G04 Layer: BottomLayer*
G04 EasyEDA v6.1.49, Wed, 05 Jun 2019 22:56:44 GMT*
G04 6b520eb5fea8430f926b6e8f94950312,d502dfb0143049649cf38511bf809cad,10*
G04 Gerber Generator version 0.2*
G04 Scale: 100 percent, Rotated: No, Reflected: No *
G04 Dimensions in inches *
G04 leading zeros omitted , absolute positions ,2 integer and 4 decimal *
%FSLAX24Y24*%
%MOIN*%
G90*
G70D02*

%ADD10C,0.010000*%
%ADD12R,0.065000X0.065000*%
%ADD13C,0.065000*%
%ADD14R,0.118110X0.072835*%
%ADD15R,0.072835X0.118110*%
%ADD16C,0.110236*%

%LPD*%
G54D10*
G01X9500Y12250D02*
G01X10250Y13000D01*
G01X13000Y10250D02*
G01X12250Y9500D01*
G01X9500Y10250D02*
G01X10250Y9500D01*
G01X12789Y12250D02*
G01X12789Y11441D01*
G01X10848Y9500D01*
G01X10250Y9500D01*
G01X12250Y13000D02*
G01X12789Y12461D01*
G01X12789Y12250D01*
G01X12789Y12250D02*
G01X13000Y12250D01*
G01X9805Y8010D02*
G01X10250Y8454D01*
G01X10250Y9500D01*
G01X14596Y11250D02*
G01X14596Y10548D01*
G01X14596Y10548D02*
G01X14478Y10430D01*
G01X14478Y9793D01*
G01X12758Y510D02*
G01X12758Y946D01*
G01X13738Y8446D02*
G01X13872Y8579D01*
G01X13872Y12675D01*
G01X11951Y14596D01*
G01X12758Y946D02*
G01X13980Y2167D01*
G01X13980Y2980D01*
G01X14929Y3929D01*
G01X14929Y7255D01*
G01X13738Y8446D01*
G01X13738Y8446D02*
G01X12758Y8446D01*
G01X12758Y8010D02*
G01X12758Y8446D01*
G01X11250Y14596D02*
G01X11951Y14596D01*
G01X2750Y5500D02*
G01X2000Y4750D01*
G01X6978Y5246D02*
G01X6978Y4228D01*
G01X5500Y2750D01*
G01X5500Y2750D02*
G01X4750Y2000D01*
G01X2000Y2750D02*
G01X2750Y2000D01*
G01X5289Y4750D02*
G01X5289Y3941D01*
G01X3348Y2000D01*
G01X2750Y2000D01*
G01X4750Y5500D02*
G01X5289Y4961D01*
G01X5289Y4750D01*
G01X5289Y4750D02*
G01X5500Y4750D01*
G01X6978Y2293D02*
G01X6542Y2293D01*
G01X403Y3750D02*
G01X403Y3048D01*
G01X403Y3048D02*
G01X2284Y1167D01*
G01X5416Y1167D01*
G01X6542Y2293D01*
G01X22096Y3750D02*
G01X22096Y3048D01*
G01X22096Y3048D02*
G01X21978Y2930D01*
G01X21978Y2293D01*
G01X5258Y510D02*
G01X6057Y510D01*
G01X7429Y1882D01*
G01X7429Y5419D01*
G01X5752Y7096D01*
G01X3750Y7096D01*
G01X13000Y2750D02*
G01X14478Y4228D01*
G01X14478Y5246D01*
G01X9500Y4750D02*
G01X10250Y5500D01*
G01X13000Y2750D02*
G01X12250Y2000D01*
G01X9500Y2750D02*
G01X10250Y2000D01*
G01X12789Y4750D02*
G01X12789Y3941D01*
G01X10848Y2000D01*
G01X10250Y2000D01*
G01X12250Y5500D02*
G01X12789Y4961D01*
G01X12789Y4750D01*
G01X12789Y4750D02*
G01X13000Y4750D01*
G01X9805Y510D02*
G01X9805Y1556D01*
G01X10250Y2000D01*
G01X17000Y4750D02*
G01X17750Y5500D01*
G01X20500Y2750D02*
G01X19750Y2000D01*
G01X17000Y2750D02*
G01X17750Y2000D01*
G01X20289Y4750D02*
G01X20289Y3941D01*
G01X18348Y2000D01*
G01X17750Y2000D01*
G01X19750Y5500D02*
G01X20289Y4961D01*
G01X20289Y4750D01*
G01X20289Y4750D02*
G01X20500Y4750D01*
G01X17305Y510D02*
G01X17305Y1556D01*
G01X17750Y2000D01*
G01X20258Y510D02*
G01X20258Y946D01*
G01X18750Y7096D02*
G01X19451Y7096D01*
G01X19451Y7096D02*
G01X21326Y5221D01*
G01X21326Y2014D01*
G01X20258Y946D01*
G01X156Y468D02*
G01X156Y3007D01*
G01X156Y3007D02*
G01X206Y3007D01*
G01X261Y2905D02*
G01X2142Y1024D01*
G01X1986Y156D02*
G01X468Y156D01*
G01X184Y339D02*
G01X1861Y339D01*
G01X156Y541D02*
G01X1830Y541D01*
G01X156Y743D02*
G01X1890Y743D01*
G01X156Y945D02*
G01X2111Y945D01*
G01X156Y1147D02*
G01X2019Y1147D01*
G01X156Y1349D02*
G01X1817Y1349D01*
G01X156Y1551D02*
G01X1615Y1551D01*
G01X156Y1753D02*
G01X1413Y1753D01*
G01X156Y1955D02*
G01X1211Y1955D01*
G01X156Y2157D02*
G01X1009Y2157D01*
G01X156Y2359D02*
G01X807Y2359D01*
G01X156Y2561D02*
G01X605Y2561D01*
G01X156Y2763D02*
G01X403Y2763D01*
G01X156Y2965D02*
G01X219Y2965D01*
G01X2162Y964D02*
G01X2162Y1006D01*
G01X1960Y156D02*
G01X1960Y181D01*
G01X1960Y838D02*
G01X1960Y1206D01*
G01X1758Y156D02*
G01X1758Y1408D01*
G01X1556Y156D02*
G01X1556Y1610D01*
G01X1354Y156D02*
G01X1354Y1812D01*
G01X1152Y156D02*
G01X1152Y2014D01*
G01X950Y156D02*
G01X950Y2216D01*
G01X748Y156D02*
G01X748Y2418D01*
G01X546Y156D02*
G01X546Y2620D01*
G01X344Y182D02*
G01X344Y2822D01*
G01X13235Y185D02*
G01X13235Y835D01*
G01X13083Y986D02*
G01X14011Y1913D01*
G01X14153Y1816D02*
G01X14803Y1816D01*
G01X14954Y1968D02*
G01X14954Y2618D01*
G01X14803Y2769D02*
G01X14181Y2769D01*
G01X14181Y2769D02*
G01X14181Y2896D01*
G01X14181Y2896D02*
G01X15071Y3786D01*
G01X15131Y3929D02*
G01X15131Y7255D01*
G01X15071Y7397D02*
G01X14023Y8446D01*
G01X14073Y8579D02*
G01X14073Y9339D01*
G01X14153Y9316D02*
G01X14803Y9316D01*
G01X14843Y9322D02*
G01X14843Y7968D01*
G01X15468Y7343D02*
G01X18007Y7343D01*
G01X18007Y7343D02*
G01X18007Y6732D01*
G01X18159Y6580D02*
G01X19340Y6580D01*
G01X19492Y6732D02*
G01X19492Y6770D01*
G01X19492Y6770D02*
G01X19924Y6338D01*
G01X17047Y5657D02*
G01X17047Y5452D01*
G01X17047Y5452D02*
G01X16842Y5452D01*
G01X16842Y2047D02*
G01X17047Y2047D01*
G01X17047Y2047D02*
G01X17047Y1842D01*
G01X17103Y1556D02*
G01X17103Y941D01*
G01X16986Y156D02*
G01X13232Y156D01*
G01X13235Y339D02*
G01X16861Y339D01*
G01X13235Y541D02*
G01X16830Y541D01*
G01X13235Y743D02*
G01X16890Y743D01*
G01X13187Y945D02*
G01X17103Y945D01*
G01X13244Y1147D02*
G01X17103Y1147D01*
G01X13446Y1349D02*
G01X17103Y1349D01*
G01X13649Y1551D02*
G01X17103Y1551D01*
G01X13851Y1753D02*
G01X17053Y1753D01*
G01X14954Y1955D02*
G01X17047Y1955D01*
G01X14954Y2157D02*
G01X16465Y2157D01*
G01X14954Y2359D02*
G01X16258Y2359D01*
G01X14954Y2561D02*
G01X16165Y2561D01*
G01X14847Y2763D02*
G01X16139Y2763D01*
G01X14250Y2965D02*
G01X16173Y2965D01*
G01X14452Y3167D02*
G01X16277Y3167D01*
G01X14654Y3369D02*
G01X16423Y3369D01*
G01X14856Y3571D02*
G01X16281Y3571D01*
G01X15058Y3773D02*
G01X16249Y3773D01*
G01X15131Y3975D02*
G01X16301Y3975D01*
G01X15131Y4177D02*
G01X16435Y4177D01*
G01X15131Y4379D02*
G01X16245Y4379D01*
G01X15131Y4581D02*
G01X16160Y4581D01*
G01X15131Y4783D02*
G01X16140Y4783D01*
G01X15131Y4985D02*
G01X16180Y4985D01*
G01X15131Y5187D02*
G01X16292Y5187D01*
G01X15131Y5389D02*
G01X16550Y5389D01*
G01X15131Y5591D02*
G01X17047Y5591D01*
G01X15131Y5793D02*
G01X17060Y5793D01*
G01X15131Y5995D02*
G01X17133Y5995D01*
G01X15131Y6197D02*
G01X17300Y6197D01*
G01X18199Y6197D02*
G01X18523Y6197D01*
G01X18976Y6197D02*
G01X19300Y6197D01*
G01X15131Y6399D02*
G01X19863Y6399D01*
G01X15131Y6601D02*
G01X18083Y6601D01*
G01X19416Y6601D02*
G01X19661Y6601D01*
G01X15131Y6803D02*
G01X18007Y6803D01*
G01X15131Y7005D02*
G01X18007Y7005D01*
G01X15131Y7207D02*
G01X18007Y7207D01*
G01X15060Y7409D02*
G01X15189Y7409D01*
G01X14858Y7611D02*
G01X14955Y7611D01*
G01X14656Y7813D02*
G01X14863Y7813D01*
G01X14454Y8015D02*
G01X14843Y8015D01*
G01X14252Y8217D02*
G01X14843Y8217D01*
G01X14050Y8419D02*
G01X14843Y8419D01*
G01X14073Y8621D02*
G01X14843Y8621D01*
G01X14073Y8823D02*
G01X14843Y8823D01*
G01X14073Y9025D02*
G01X14843Y9025D01*
G01X14073Y9227D02*
G01X14843Y9227D01*
G01X19736Y6360D02*
G01X19736Y6526D01*
G01X19534Y6326D02*
G01X19534Y6728D01*
G01X19332Y6222D02*
G01X19332Y6580D01*
G01X19130Y6076D02*
G01X19130Y6580D01*
G01X18928Y6218D02*
G01X18928Y6580D01*
G01X18726Y6250D02*
G01X18726Y6580D01*
G01X18524Y6198D02*
G01X18524Y6580D01*
G01X18322Y6064D02*
G01X18322Y6580D01*
G01X18120Y6254D02*
G01X18120Y6585D01*
G01X17918Y6339D02*
G01X17918Y7343D01*
G01X17716Y6359D02*
G01X17716Y7343D01*
G01X17514Y6319D02*
G01X17514Y7343D01*
G01X17312Y6207D02*
G01X17312Y7343D01*
G01X17110Y5949D02*
G01X17110Y7343D01*
G01X16908Y156D02*
G01X16908Y246D01*
G01X16908Y773D02*
G01X16908Y2047D01*
G01X16908Y5452D02*
G01X16908Y7343D01*
G01X16706Y156D02*
G01X16706Y2060D01*
G01X16706Y5439D02*
G01X16706Y7343D01*
G01X16504Y156D02*
G01X16504Y2133D01*
G01X16504Y5366D02*
G01X16504Y7343D01*
G01X16302Y156D02*
G01X16302Y2300D01*
G01X16302Y3199D02*
G01X16302Y3523D01*
G01X16302Y3976D02*
G01X16302Y4300D01*
G01X16302Y5199D02*
G01X16302Y7343D01*
G01X16100Y156D02*
G01X16100Y7343D01*
G01X15898Y156D02*
G01X15898Y7343D01*
G01X15696Y156D02*
G01X15696Y7343D01*
G01X15494Y156D02*
G01X15494Y7343D01*
G01X15292Y156D02*
G01X15292Y7368D01*
G01X15090Y156D02*
G01X15090Y3808D01*
G01X15090Y7376D02*
G01X15090Y7470D01*
G01X14888Y156D02*
G01X14888Y1843D01*
G01X14888Y2743D02*
G01X14888Y3603D01*
G01X14888Y7580D02*
G01X14888Y7735D01*
G01X14686Y156D02*
G01X14686Y1816D01*
G01X14686Y2769D02*
G01X14686Y3401D01*
G01X14686Y7782D02*
G01X14686Y9316D01*
G01X14484Y156D02*
G01X14484Y1816D01*
G01X14484Y2769D02*
G01X14484Y3199D01*
G01X14484Y7984D02*
G01X14484Y9316D01*
G01X14282Y156D02*
G01X14282Y1816D01*
G01X14282Y2769D02*
G01X14282Y2997D01*
G01X14282Y8186D02*
G01X14282Y9316D01*
G01X14080Y156D02*
G01X14080Y1835D01*
G01X14080Y8388D02*
G01X14080Y9335D01*
G01X13878Y156D02*
G01X13878Y1780D01*
G01X13676Y156D02*
G01X13676Y1578D01*
G01X13474Y156D02*
G01X13474Y1377D01*
G01X13272Y156D02*
G01X13272Y1175D01*
G01X4784Y156D02*
G01X4492Y156D01*
G01X4492Y156D02*
G01X4492Y767D01*
G01X4340Y919D02*
G01X3159Y919D01*
G01X3007Y767D02*
G01X3007Y156D01*
G01X3007Y156D02*
G01X2625Y156D01*
G01X2444Y965D02*
G01X4857Y965D01*
G01X4782Y835D02*
G01X4782Y185D01*
G01X2750Y339D02*
G01X3007Y339D01*
G01X4492Y339D02*
G01X4782Y339D01*
G01X2781Y541D02*
G01X3007Y541D01*
G01X4492Y541D02*
G01X4782Y541D01*
G01X2721Y743D02*
G01X3007Y743D01*
G01X4492Y743D02*
G01X4782Y743D01*
G01X2499Y945D02*
G01X4829Y945D01*
G01X4788Y879D02*
G01X4788Y965D01*
G01X4586Y156D02*
G01X4586Y965D01*
G01X4384Y912D02*
G01X4384Y965D01*
G01X4182Y919D02*
G01X4182Y965D01*
G01X3980Y919D02*
G01X3980Y965D01*
G01X3778Y919D02*
G01X3778Y965D01*
G01X3576Y919D02*
G01X3576Y965D01*
G01X3374Y919D02*
G01X3374Y965D01*
G01X3172Y919D02*
G01X3172Y965D01*
G01X2970Y156D02*
G01X2970Y965D01*
G01X2768Y156D02*
G01X2768Y396D01*
G01X2768Y623D02*
G01X2768Y965D01*
G01X2566Y908D02*
G01X2566Y965D01*
G01X19784Y156D02*
G01X19492Y156D01*
G01X19492Y156D02*
G01X19492Y767D01*
G01X19340Y919D02*
G01X18159Y919D01*
G01X18007Y767D02*
G01X18007Y156D01*
G01X18007Y156D02*
G01X17625Y156D01*
G01X17506Y941D02*
G01X17506Y1183D01*
G01X20452Y1842D02*
G01X20452Y2047D01*
G01X20452Y2047D02*
G01X20657Y2047D01*
G01X21125Y2225D02*
G01X21125Y2097D01*
G01X21125Y2097D02*
G01X20116Y1088D01*
G01X20061Y986D02*
G01X19933Y986D01*
G01X19782Y835D02*
G01X19782Y185D01*
G01X17750Y339D02*
G01X18007Y339D01*
G01X19492Y339D02*
G01X19782Y339D01*
G01X17781Y541D02*
G01X18007Y541D01*
G01X19492Y541D02*
G01X19782Y541D01*
G01X17721Y743D02*
G01X18007Y743D01*
G01X19492Y743D02*
G01X19782Y743D01*
G01X17506Y945D02*
G01X19829Y945D01*
G01X17506Y1147D02*
G01X17648Y1147D01*
G01X17851Y1147D02*
G01X19648Y1147D01*
G01X19851Y1147D02*
G01X20174Y1147D01*
G01X18250Y1349D02*
G01X18448Y1349D01*
G01X19051Y1349D02*
G01X19249Y1349D01*
G01X20250Y1349D02*
G01X20376Y1349D01*
G01X20389Y1551D02*
G01X20578Y1551D01*
G01X20446Y1753D02*
G01X20780Y1753D01*
G01X20452Y1955D02*
G01X20982Y1955D01*
G01X21034Y2157D02*
G01X21125Y2157D01*
G01X20948Y1921D02*
G01X20948Y2110D01*
G01X20746Y1719D02*
G01X20746Y2053D01*
G01X20544Y1517D02*
G01X20544Y2047D01*
G01X20342Y1315D02*
G01X20342Y1465D01*
G01X20140Y1113D02*
G01X20140Y1258D01*
G01X19938Y986D02*
G01X19938Y1165D01*
G01X19736Y156D02*
G01X19736Y1139D01*
G01X19534Y156D02*
G01X19534Y1173D01*
G01X19332Y919D02*
G01X19332Y1277D01*
G01X19130Y919D02*
G01X19130Y1423D01*
G01X18928Y919D02*
G01X18928Y1281D01*
G01X18726Y919D02*
G01X18726Y1249D01*
G01X18524Y919D02*
G01X18524Y1301D01*
G01X18322Y919D02*
G01X18322Y1435D01*
G01X18120Y914D02*
G01X18120Y1245D01*
G01X17918Y156D02*
G01X17918Y1160D01*
G01X17716Y156D02*
G01X17716Y268D01*
G01X17716Y751D02*
G01X17716Y1140D01*
G01X17514Y938D02*
G01X17514Y1180D01*
G01X10507Y767D02*
G01X10507Y156D01*
G01X10507Y156D02*
G01X10125Y156D01*
G01X10006Y941D02*
G01X10006Y1183D01*
G01X12952Y1842D02*
G01X12952Y2047D01*
G01X12952Y2047D02*
G01X13157Y2047D01*
G01X13778Y2422D02*
G01X13778Y2250D01*
G01X13778Y2250D02*
G01X12616Y1088D01*
G01X12561Y986D02*
G01X12433Y986D01*
G01X12282Y835D02*
G01X12282Y185D01*
G01X12284Y156D02*
G01X11992Y156D01*
G01X11992Y156D02*
G01X11992Y767D01*
G01X11840Y919D02*
G01X10659Y919D01*
G01X10250Y339D02*
G01X10507Y339D01*
G01X11992Y339D02*
G01X12282Y339D01*
G01X10281Y541D02*
G01X10507Y541D01*
G01X11992Y541D02*
G01X12282Y541D01*
G01X10221Y743D02*
G01X10507Y743D01*
G01X11992Y743D02*
G01X12282Y743D01*
G01X10006Y945D02*
G01X12329Y945D01*
G01X10006Y1147D02*
G01X10148Y1147D01*
G01X10351Y1147D02*
G01X12148Y1147D01*
G01X12351Y1147D02*
G01X12674Y1147D01*
G01X10750Y1349D02*
G01X10948Y1349D01*
G01X11551Y1349D02*
G01X11749Y1349D01*
G01X12750Y1349D02*
G01X12876Y1349D01*
G01X12889Y1551D02*
G01X13078Y1551D01*
G01X12946Y1753D02*
G01X13281Y1753D01*
G01X12952Y1955D02*
G01X13483Y1955D01*
G01X13534Y2157D02*
G01X13685Y2157D01*
G01X13741Y2359D02*
G01X13778Y2359D01*
G01X13676Y2148D02*
G01X13676Y2276D01*
G01X13474Y1946D02*
G01X13474Y2123D01*
G01X13272Y1744D02*
G01X13272Y2056D01*
G01X13070Y1543D02*
G01X13070Y2047D01*
G01X12868Y1341D02*
G01X12868Y1509D01*
G01X12666Y1139D02*
G01X12666Y1276D01*
G01X12464Y986D02*
G01X12464Y1173D01*
G01X12262Y156D02*
G01X12262Y1139D01*
G01X12060Y156D02*
G01X12060Y1165D01*
G01X11858Y918D02*
G01X11858Y1258D01*
G01X11656Y919D02*
G01X11656Y1456D01*
G01X11454Y919D02*
G01X11454Y1292D01*
G01X11252Y919D02*
G01X11252Y1248D01*
G01X11050Y919D02*
G01X11050Y1289D01*
G01X10848Y919D02*
G01X10848Y1449D01*
G01X10646Y918D02*
G01X10646Y1262D01*
G01X10444Y156D02*
G01X10444Y1167D01*
G01X10242Y156D02*
G01X10242Y319D01*
G01X10242Y700D02*
G01X10242Y1139D01*
G01X10040Y924D02*
G01X10040Y1171D01*
G01X5735Y185D02*
G01X5735Y308D01*
G01X5735Y308D02*
G01X6057Y308D01*
G01X6199Y367D02*
G01X7571Y1739D01*
G01X7631Y1882D02*
G01X7631Y5419D01*
G01X7571Y5561D02*
G01X5894Y7238D01*
G01X5752Y7297D02*
G01X4492Y7297D01*
G01X4492Y7297D02*
G01X4492Y7343D01*
G01X4492Y7343D02*
G01X7031Y7343D01*
G01X7656Y7968D02*
G01X7656Y10507D01*
G01X7656Y10507D02*
G01X8267Y10507D01*
G01X8419Y10659D02*
G01X8419Y11840D01*
G01X8267Y11992D02*
G01X7656Y11992D01*
G01X7656Y11992D02*
G01X7656Y14531D01*
G01X7968Y14843D02*
G01X10507Y14843D01*
G01X10507Y14843D02*
G01X10507Y14232D01*
G01X10659Y14080D02*
G01X11840Y14080D01*
G01X11992Y14232D02*
G01X11992Y14270D01*
G01X11992Y14270D02*
G01X12424Y13838D01*
G01X9547Y13157D02*
G01X9547Y12952D01*
G01X9547Y12952D02*
G01X9342Y12952D01*
G01X9342Y9547D02*
G01X9547Y9547D01*
G01X9547Y9547D02*
G01X9547Y9342D01*
G01X10048Y8669D02*
G01X10048Y8537D01*
G01X10048Y8537D02*
G01X9968Y8457D01*
G01X9492Y7651D02*
G01X9375Y7651D01*
G01X9223Y7500D02*
G01X9223Y6950D01*
G01X9375Y6798D02*
G01X13279Y6798D01*
G01X13430Y6950D02*
G01X13430Y7500D01*
G01X13279Y7651D02*
G01X13231Y7651D01*
G01X13235Y7685D02*
G01X13235Y8244D01*
G01X13235Y8244D02*
G01X13655Y8244D01*
G01X13655Y8244D02*
G01X14727Y7171D01*
G01X14727Y7171D02*
G01X14727Y5651D01*
G01X14277Y4814D02*
G01X14277Y4311D01*
G01X14277Y4311D02*
G01X13750Y3784D01*
G01X13157Y5452D02*
G01X12952Y5452D01*
G01X12952Y5452D02*
G01X12952Y5657D01*
G01X9547Y5657D02*
G01X9547Y5452D01*
G01X9547Y5452D02*
G01X9342Y5452D01*
G01X9342Y2047D02*
G01X9547Y2047D01*
G01X9547Y2047D02*
G01X9547Y1842D01*
G01X9603Y1556D02*
G01X9603Y941D01*
G01X9486Y156D02*
G01X5732Y156D01*
G01X6164Y339D02*
G01X9361Y339D01*
G01X6373Y541D02*
G01X9330Y541D01*
G01X6575Y743D02*
G01X9390Y743D01*
G01X6777Y945D02*
G01X9603Y945D01*
G01X6979Y1147D02*
G01X9603Y1147D01*
G01X7181Y1349D02*
G01X9603Y1349D01*
G01X7383Y1551D02*
G01X9603Y1551D01*
G01X7584Y1753D02*
G01X9553Y1753D01*
G01X7631Y1955D02*
G01X9547Y1955D01*
G01X7631Y2157D02*
G01X8965Y2157D01*
G01X7631Y2359D02*
G01X8758Y2359D01*
G01X7631Y2561D02*
G01X8665Y2561D01*
G01X7631Y2763D02*
G01X8639Y2763D01*
G01X7631Y2965D02*
G01X8673Y2965D01*
G01X7631Y3167D02*
G01X8777Y3167D01*
G01X7631Y3369D02*
G01X8923Y3369D01*
G01X7631Y3571D02*
G01X8781Y3571D01*
G01X7631Y3773D02*
G01X8749Y3773D01*
G01X7631Y3975D02*
G01X8801Y3975D01*
G01X13698Y3975D02*
G01X13940Y3975D01*
G01X7631Y4177D02*
G01X8935Y4177D01*
G01X13564Y4177D02*
G01X14142Y4177D01*
G01X7631Y4379D02*
G01X8745Y4379D01*
G01X13754Y4379D02*
G01X14277Y4379D01*
G01X7631Y4581D02*
G01X8660Y4581D01*
G01X13839Y4581D02*
G01X14277Y4581D01*
G01X7631Y4783D02*
G01X8640Y4783D01*
G01X13859Y4783D02*
G01X14277Y4783D01*
G01X7631Y4985D02*
G01X8680Y4985D01*
G01X13819Y4985D02*
G01X14079Y4985D01*
G01X7631Y5187D02*
G01X8792Y5187D01*
G01X13707Y5187D02*
G01X14005Y5187D01*
G01X7631Y5389D02*
G01X9050Y5389D01*
G01X13449Y5389D02*
G01X14023Y5389D01*
G01X7542Y5591D02*
G01X9547Y5591D01*
G01X12952Y5591D02*
G01X14149Y5591D01*
G01X7340Y5793D02*
G01X9560Y5793D01*
G01X12939Y5793D02*
G01X14727Y5793D01*
G01X7138Y5995D02*
G01X9633Y5995D01*
G01X12866Y5995D02*
G01X14727Y5995D01*
G01X6936Y6197D02*
G01X9800Y6197D01*
G01X10699Y6197D02*
G01X11023Y6197D01*
G01X11476Y6197D02*
G01X11800Y6197D01*
G01X12699Y6197D02*
G01X14727Y6197D01*
G01X6734Y6399D02*
G01X14727Y6399D01*
G01X6532Y6601D02*
G01X14727Y6601D01*
G01X6330Y6803D02*
G01X9337Y6803D01*
G01X13316Y6803D02*
G01X14727Y6803D01*
G01X6128Y7005D02*
G01X9223Y7005D01*
G01X13430Y7005D02*
G01X14727Y7005D01*
G01X5926Y7207D02*
G01X9223Y7207D01*
G01X13430Y7207D02*
G01X14692Y7207D01*
G01X7310Y7409D02*
G01X9223Y7409D01*
G01X13430Y7409D02*
G01X14490Y7409D01*
G01X7544Y7611D02*
G01X9272Y7611D01*
G01X13382Y7611D02*
G01X14288Y7611D01*
G01X7636Y7813D02*
G01X9371Y7813D01*
G01X13235Y7813D02*
G01X14086Y7813D01*
G01X7656Y8015D02*
G01X9329Y8015D01*
G01X13235Y8015D02*
G01X13884Y8015D01*
G01X7656Y8217D02*
G01X9376Y8217D01*
G01X13235Y8217D02*
G01X13682Y8217D01*
G01X7656Y8419D02*
G01X9561Y8419D01*
G01X7656Y8621D02*
G01X10048Y8621D01*
G01X7656Y8823D02*
G01X9776Y8823D01*
G01X7656Y9025D02*
G01X9623Y9025D01*
G01X7656Y9227D02*
G01X9556Y9227D01*
G01X7656Y9429D02*
G01X9547Y9429D01*
G01X7656Y9631D02*
G01X9009Y9631D01*
G01X7656Y9833D02*
G01X8776Y9833D01*
G01X7656Y10035D02*
G01X8673Y10035D01*
G01X7656Y10237D02*
G01X8639Y10237D01*
G01X7656Y10439D02*
G01X8665Y10439D01*
G01X8418Y10641D02*
G01X8758Y10641D01*
G01X8419Y10843D02*
G01X8956Y10843D01*
G01X8419Y11045D02*
G01X8792Y11045D01*
G01X8419Y11247D02*
G01X8748Y11247D01*
G01X8419Y11449D02*
G01X8789Y11449D01*
G01X8419Y11651D02*
G01X8949Y11651D01*
G01X8418Y11853D02*
G01X8762Y11853D01*
G01X7656Y12055D02*
G01X8667Y12055D01*
G01X7656Y12257D02*
G01X8639Y12257D01*
G01X7656Y12459D02*
G01X8671Y12459D01*
G01X7656Y12661D02*
G01X8772Y12661D01*
G01X7656Y12863D02*
G01X8999Y12863D01*
G01X7656Y13065D02*
G01X9547Y13065D01*
G01X7656Y13267D02*
G01X9555Y13267D01*
G01X7656Y13469D02*
G01X9620Y13469D01*
G01X7656Y13671D02*
G01X9770Y13671D01*
G01X10729Y13671D02*
G01X10977Y13671D01*
G01X11522Y13671D02*
G01X11770Y13671D01*
G01X7656Y13873D02*
G01X12389Y13873D01*
G01X7656Y14075D02*
G01X12187Y14075D01*
G01X7656Y14277D02*
G01X10507Y14277D01*
G01X7656Y14479D02*
G01X10507Y14479D01*
G01X7694Y14681D02*
G01X10507Y14681D01*
G01X14686Y5674D02*
G01X14686Y7213D01*
G01X14484Y5722D02*
G01X14484Y7415D01*
G01X14282Y5680D02*
G01X14282Y7617D01*
G01X14080Y4115D02*
G01X14080Y4983D01*
G01X14080Y5508D02*
G01X14080Y7819D01*
G01X13878Y3913D02*
G01X13878Y8021D01*
G01X13676Y4013D02*
G01X13676Y4276D01*
G01X13676Y5223D02*
G01X13676Y8223D01*
G01X13474Y5376D02*
G01X13474Y8244D01*
G01X13272Y5443D02*
G01X13272Y6798D01*
G01X13272Y7651D02*
G01X13272Y8244D01*
G01X13070Y5452D02*
G01X13070Y6798D01*
G01X12868Y5990D02*
G01X12868Y6798D01*
G01X12666Y6223D02*
G01X12666Y6798D01*
G01X12464Y6326D02*
G01X12464Y6798D01*
G01X12262Y6360D02*
G01X12262Y6798D01*
G01X12262Y13860D02*
G01X12262Y14000D01*
G01X12060Y6334D02*
G01X12060Y6798D01*
G01X12060Y13834D02*
G01X12060Y14202D01*
G01X11858Y6241D02*
G01X11858Y6798D01*
G01X11858Y13741D02*
G01X11858Y14081D01*
G01X11656Y6043D02*
G01X11656Y6798D01*
G01X11656Y13543D02*
G01X11656Y14080D01*
G01X11454Y6207D02*
G01X11454Y6798D01*
G01X11454Y13707D02*
G01X11454Y14080D01*
G01X11252Y6251D02*
G01X11252Y6798D01*
G01X11252Y13751D02*
G01X11252Y14080D01*
G01X11050Y6210D02*
G01X11050Y6798D01*
G01X11050Y13710D02*
G01X11050Y14080D01*
G01X10848Y6050D02*
G01X10848Y6798D01*
G01X10848Y13550D02*
G01X10848Y14080D01*
G01X10646Y6237D02*
G01X10646Y6798D01*
G01X10646Y13737D02*
G01X10646Y14081D01*
G01X10444Y6332D02*
G01X10444Y6798D01*
G01X10444Y13832D02*
G01X10444Y14843D01*
G01X10242Y6360D02*
G01X10242Y6798D01*
G01X10242Y13860D02*
G01X10242Y14843D01*
G01X10040Y6328D02*
G01X10040Y6798D01*
G01X10040Y8529D02*
G01X10040Y8671D01*
G01X10040Y13828D02*
G01X10040Y14843D01*
G01X9838Y6227D02*
G01X9838Y6798D01*
G01X9838Y8485D02*
G01X9838Y8772D01*
G01X9838Y13727D02*
G01X9838Y14843D01*
G01X9636Y6000D02*
G01X9636Y6798D01*
G01X9636Y8455D02*
G01X9636Y8999D01*
G01X9636Y13500D02*
G01X9636Y14843D01*
G01X9434Y156D02*
G01X9434Y211D01*
G01X9434Y808D02*
G01X9434Y2047D01*
G01X9434Y5452D02*
G01X9434Y6798D01*
G01X9434Y7651D02*
G01X9434Y7711D01*
G01X9434Y8308D02*
G01X9434Y9547D01*
G01X9434Y12952D02*
G01X9434Y14843D01*
G01X9232Y156D02*
G01X9232Y2055D01*
G01X9232Y5444D02*
G01X9232Y6898D01*
G01X9232Y7551D02*
G01X9232Y9555D01*
G01X9232Y12944D02*
G01X9232Y14843D01*
G01X9030Y156D02*
G01X9030Y2120D01*
G01X9030Y5379D02*
G01X9030Y9620D01*
G01X9030Y12879D02*
G01X9030Y14843D01*
G01X8828Y156D02*
G01X8828Y2270D01*
G01X8828Y3229D02*
G01X8828Y3477D01*
G01X8828Y4022D02*
G01X8828Y4270D01*
G01X8828Y5229D02*
G01X8828Y9770D01*
G01X8828Y10729D02*
G01X8828Y10977D01*
G01X8828Y11522D02*
G01X8828Y11770D01*
G01X8828Y12729D02*
G01X8828Y14843D01*
G01X8626Y156D02*
G01X8626Y14843D01*
G01X8424Y156D02*
G01X8424Y14843D01*
G01X8222Y156D02*
G01X8222Y10507D01*
G01X8222Y11992D02*
G01X8222Y14843D01*
G01X8020Y156D02*
G01X8020Y10507D01*
G01X8020Y11992D02*
G01X8020Y14843D01*
G01X7818Y156D02*
G01X7818Y10507D01*
G01X7818Y11992D02*
G01X7818Y14805D01*
G01X7616Y156D02*
G01X7616Y1807D01*
G01X7616Y5493D02*
G01X7616Y7749D01*
G01X7414Y156D02*
G01X7414Y1582D01*
G01X7414Y5718D02*
G01X7414Y7474D01*
G01X7212Y156D02*
G01X7212Y1380D01*
G01X7212Y5920D02*
G01X7212Y7370D01*
G01X7010Y156D02*
G01X7010Y1178D01*
G01X7010Y6122D02*
G01X7010Y7343D01*
G01X6808Y156D02*
G01X6808Y976D01*
G01X6808Y6324D02*
G01X6808Y7343D01*
G01X6606Y156D02*
G01X6606Y774D01*
G01X6606Y6526D02*
G01X6606Y7343D01*
G01X6404Y156D02*
G01X6404Y572D01*
G01X6404Y6728D02*
G01X6404Y7343D01*
G01X6202Y156D02*
G01X6202Y370D01*
G01X6202Y6930D02*
G01X6202Y7343D01*
G01X6000Y156D02*
G01X6000Y308D01*
G01X6000Y7132D02*
G01X6000Y7343D01*
G01X5798Y156D02*
G01X5798Y308D01*
G01X5798Y7292D02*
G01X5798Y7343D01*
G01X5596Y7297D02*
G01X5596Y7343D01*
G01X5394Y7297D02*
G01X5394Y7343D01*
G01X5192Y7297D02*
G01X5192Y7343D01*
G01X4990Y7297D02*
G01X4990Y7343D01*
G01X4788Y7297D02*
G01X4788Y7343D01*
G01X4586Y7297D02*
G01X4586Y7343D01*
G01X20735Y185D02*
G01X20735Y835D01*
G01X20583Y986D02*
G01X21468Y1871D01*
G01X21653Y1816D02*
G01X22303Y1816D01*
G01X22343Y1822D02*
G01X22343Y468D01*
G01X22031Y156D02*
G01X20732Y156D01*
G01X20735Y339D02*
G01X22315Y339D01*
G01X20735Y541D02*
G01X22343Y541D01*
G01X20735Y743D02*
G01X22343Y743D01*
G01X20687Y945D02*
G01X22343Y945D01*
G01X20744Y1147D02*
G01X22343Y1147D01*
G01X20946Y1349D02*
G01X22343Y1349D01*
G01X21148Y1551D02*
G01X22343Y1551D01*
G01X21350Y1753D02*
G01X22343Y1753D01*
G01X22160Y184D02*
G01X22160Y1816D01*
G01X21958Y156D02*
G01X21958Y1816D01*
G01X21756Y156D02*
G01X21756Y1816D01*
G01X21554Y156D02*
G01X21554Y1853D01*
G01X21352Y156D02*
G01X21352Y1755D01*
G01X21150Y156D02*
G01X21150Y1553D01*
G01X20948Y156D02*
G01X20948Y1351D01*
G01X20746Y156D02*
G01X20746Y1149D01*
G01X7079Y1816D02*
G01X5974Y711D01*
G01X5974Y711D02*
G01X5735Y711D01*
G01X5735Y711D02*
G01X5735Y835D01*
G01X5583Y986D02*
G01X5505Y986D01*
G01X5558Y1024D02*
G01X6501Y1967D01*
G01X6653Y1816D02*
G01X7079Y1816D01*
G01X5735Y743D02*
G01X6005Y743D01*
G01X5687Y945D02*
G01X6207Y945D01*
G01X5681Y1147D02*
G01X6409Y1147D01*
G01X5883Y1349D02*
G01X6611Y1349D01*
G01X6085Y1551D02*
G01X6813Y1551D01*
G01X6287Y1753D02*
G01X7015Y1753D01*
G01X6489Y1955D02*
G01X6502Y1955D01*
G01X7010Y1748D02*
G01X7010Y1816D01*
G01X6808Y1546D02*
G01X6808Y1816D01*
G01X6606Y1344D02*
G01X6606Y1824D01*
G01X6404Y1142D02*
G01X6404Y1870D01*
G01X6202Y940D02*
G01X6202Y1668D01*
G01X6000Y738D02*
G01X6000Y1466D01*
G01X5798Y711D02*
G01X5798Y1264D01*
G01X5596Y985D02*
G01X5596Y1062D01*
G01X4231Y1368D02*
G01X4075Y1368D01*
G01X4182Y1368D02*
G01X4182Y1427D01*
G01X3424Y1368D02*
G01X3268Y1368D01*
G01X3374Y1368D02*
G01X3374Y1417D01*
G01X5452Y1842D02*
G01X5452Y2047D01*
G01X5452Y2047D02*
G01X5657Y2047D01*
G01X6214Y3178D02*
G01X7120Y4085D01*
G01X7180Y4228D02*
G01X7180Y4814D01*
G01X7227Y4840D02*
G01X7227Y2769D01*
G01X7227Y2769D02*
G01X6653Y2769D01*
G01X6501Y2618D02*
G01X6501Y2490D01*
G01X6400Y2435D02*
G01X5333Y1368D01*
G01X5333Y1368D02*
G01X5268Y1368D01*
G01X5389Y1551D02*
G01X5515Y1551D01*
G01X5446Y1753D02*
G01X5717Y1753D01*
G01X5452Y1955D02*
G01X5919Y1955D01*
G01X6034Y2157D02*
G01X6121Y2157D01*
G01X6241Y2359D02*
G01X6323Y2359D01*
G01X6334Y2561D02*
G01X6501Y2561D01*
G01X6360Y2763D02*
G01X6609Y2763D01*
G01X6326Y2965D02*
G01X7227Y2965D01*
G01X6222Y3167D02*
G01X7227Y3167D01*
G01X6404Y3369D02*
G01X7227Y3369D01*
G01X6606Y3571D02*
G01X7227Y3571D01*
G01X6808Y3773D02*
G01X7227Y3773D01*
G01X7010Y3975D02*
G01X7227Y3975D01*
G01X7173Y4177D02*
G01X7227Y4177D01*
G01X7180Y4379D02*
G01X7227Y4379D01*
G01X7180Y4581D02*
G01X7227Y4581D01*
G01X7180Y4783D02*
G01X7227Y4783D01*
G01X7212Y2769D02*
G01X7212Y4831D01*
G01X7010Y2769D02*
G01X7010Y3975D01*
G01X6808Y2769D02*
G01X6808Y3773D01*
G01X6606Y2762D02*
G01X6606Y3571D01*
G01X6404Y2440D02*
G01X6404Y3369D01*
G01X6202Y2238D02*
G01X6202Y2306D01*
G01X6000Y2036D02*
G01X6000Y2136D01*
G01X5798Y1834D02*
G01X5798Y2061D01*
G01X5596Y1632D02*
G01X5596Y2047D01*
G01X5394Y1430D02*
G01X5394Y1563D01*
G01X2069Y1667D02*
G01X1667Y2069D01*
G01X1842Y2047D02*
G01X2047Y2047D01*
G01X2047Y2047D02*
G01X2047Y1842D01*
G01X1983Y1753D02*
G01X2053Y1753D01*
G01X1781Y1955D02*
G01X2047Y1955D01*
G01X1960Y1775D02*
G01X1960Y2047D01*
G01X1758Y1977D02*
G01X1758Y2052D01*
G01X4047Y2157D02*
G01X4047Y2153D01*
G01X3870Y2236D02*
G01X4140Y2507D01*
G01X4042Y2157D02*
G01X4047Y2157D01*
G01X3992Y2359D02*
G01X4076Y2359D01*
G01X3980Y2195D02*
G01X3980Y2347D01*
G01X19047Y2157D02*
G01X19047Y2153D01*
G01X18870Y2236D02*
G01X19140Y2507D01*
G01X19042Y2157D02*
G01X19047Y2157D01*
G01X18992Y2359D02*
G01X19076Y2359D01*
G01X19130Y2489D02*
G01X19130Y2497D01*
G01X18928Y2218D02*
G01X18928Y2295D01*
G01X11547Y2157D02*
G01X11547Y2153D01*
G01X11370Y2236D02*
G01X11640Y2507D01*
G01X11542Y2157D02*
G01X11547Y2157D01*
G01X11492Y2359D02*
G01X11576Y2359D01*
G01X11454Y2207D02*
G01X11454Y2321D01*
G01X3869Y2806D02*
G01X3422Y2359D01*
G01X2157Y3452D02*
G01X2153Y3452D01*
G01X2153Y4047D02*
G01X2157Y4047D01*
G01X3452Y5342D02*
G01X3452Y5346D01*
G01X4047Y5346D02*
G01X4047Y5342D01*
G01X5088Y4095D02*
G01X5088Y4024D01*
G01X5088Y4024D02*
G01X4693Y3630D01*
G01X3325Y2561D02*
G01X3624Y2561D01*
G01X3106Y2763D02*
G01X3826Y2763D01*
G01X2826Y2965D02*
G01X3211Y2965D01*
G01X2722Y3167D02*
G01X2997Y3167D01*
G01X2489Y3369D02*
G01X2878Y3369D01*
G01X2218Y3571D02*
G01X2815Y3571D01*
G01X2250Y3773D02*
G01X2798Y3773D01*
G01X4701Y3773D02*
G01X4836Y3773D01*
G01X2198Y3975D02*
G01X2825Y3975D01*
G01X4674Y3975D02*
G01X5038Y3975D01*
G01X2564Y4177D02*
G01X2899Y4177D01*
G01X4600Y4177D02*
G01X4935Y4177D01*
G01X2754Y4379D02*
G01X3036Y4379D01*
G01X4463Y4379D02*
G01X4745Y4379D01*
G01X2839Y4581D02*
G01X3286Y4581D01*
G01X4213Y4581D02*
G01X4660Y4581D01*
G01X3175Y4783D02*
G01X4324Y4783D01*
G01X3355Y4985D02*
G01X4144Y4985D01*
G01X3435Y5187D02*
G01X4064Y5187D01*
G01X4990Y3927D02*
G01X4990Y4141D01*
G01X4788Y3725D02*
G01X4788Y4317D01*
G01X4586Y4202D02*
G01X4586Y4659D01*
G01X4384Y4458D02*
G01X4384Y4742D01*
G01X4182Y4597D02*
G01X4182Y4927D01*
G01X3980Y4673D02*
G01X3980Y5304D01*
G01X3778Y2715D02*
G01X3778Y2798D01*
G01X3778Y4701D02*
G01X3778Y5249D01*
G01X3576Y2513D02*
G01X3576Y2814D01*
G01X3576Y4685D02*
G01X3576Y5279D01*
G01X3374Y2479D02*
G01X3374Y2875D01*
G01X3374Y4624D02*
G01X3374Y5020D01*
G01X3172Y2718D02*
G01X3172Y2993D01*
G01X3172Y4506D02*
G01X3172Y4781D01*
G01X2970Y2824D02*
G01X2970Y3203D01*
G01X2970Y4296D02*
G01X2970Y4675D01*
G01X2768Y3096D02*
G01X2768Y4403D01*
G01X2566Y3321D02*
G01X2566Y4178D01*
G01X2364Y3421D02*
G01X2364Y4078D01*
G01X2162Y3452D02*
G01X2162Y3465D01*
G01X2162Y4034D02*
G01X2162Y4047D01*
G01X18869Y2806D02*
G01X18422Y2359D01*
G01X17157Y3452D02*
G01X17153Y3452D01*
G01X17153Y4047D02*
G01X17157Y4047D01*
G01X18452Y5342D02*
G01X18452Y5346D01*
G01X19047Y5346D02*
G01X19047Y5342D01*
G01X20088Y4095D02*
G01X20088Y4024D01*
G01X20088Y4024D02*
G01X19693Y3630D01*
G01X18325Y2561D02*
G01X18624Y2561D01*
G01X18106Y2763D02*
G01X18826Y2763D01*
G01X17826Y2965D02*
G01X18211Y2965D01*
G01X17722Y3167D02*
G01X17997Y3167D01*
G01X17489Y3369D02*
G01X17878Y3369D01*
G01X17218Y3571D02*
G01X17815Y3571D01*
G01X17250Y3773D02*
G01X17798Y3773D01*
G01X19701Y3773D02*
G01X19836Y3773D01*
G01X17198Y3975D02*
G01X17825Y3975D01*
G01X19674Y3975D02*
G01X20038Y3975D01*
G01X17564Y4177D02*
G01X17899Y4177D01*
G01X19600Y4177D02*
G01X19935Y4177D01*
G01X17754Y4379D02*
G01X18036Y4379D01*
G01X19463Y4379D02*
G01X19745Y4379D01*
G01X17839Y4581D02*
G01X18286Y4581D01*
G01X19213Y4581D02*
G01X19660Y4581D01*
G01X18175Y4783D02*
G01X19324Y4783D01*
G01X18355Y4985D02*
G01X19144Y4985D01*
G01X18435Y5187D02*
G01X19064Y5187D01*
G01X19938Y3875D02*
G01X19938Y4174D01*
G01X19736Y3673D02*
G01X19736Y4393D01*
G01X19534Y4288D02*
G01X19534Y4673D01*
G01X19332Y4502D02*
G01X19332Y4777D01*
G01X19130Y4621D02*
G01X19130Y5010D01*
G01X18928Y4684D02*
G01X18928Y5281D01*
G01X18726Y2663D02*
G01X18726Y2798D01*
G01X18726Y4701D02*
G01X18726Y5249D01*
G01X18524Y2461D02*
G01X18524Y2825D01*
G01X18524Y4674D02*
G01X18524Y5301D01*
G01X18322Y2564D02*
G01X18322Y2899D01*
G01X18322Y4600D02*
G01X18322Y4935D01*
G01X18120Y2754D02*
G01X18120Y3036D01*
G01X18120Y4463D02*
G01X18120Y4745D01*
G01X17918Y2839D02*
G01X17918Y3286D01*
G01X17918Y4213D02*
G01X17918Y4660D01*
G01X17716Y3175D02*
G01X17716Y4324D01*
G01X17514Y3355D02*
G01X17514Y4144D01*
G01X17312Y3435D02*
G01X17312Y4064D01*
G01X9657Y3452D02*
G01X9653Y3452D01*
G01X9653Y4047D02*
G01X9657Y4047D01*
G01X10952Y5342D02*
G01X10952Y5346D01*
G01X11547Y5346D02*
G01X11547Y5342D01*
G01X12588Y4095D02*
G01X12588Y4024D01*
G01X12588Y4024D02*
G01X12193Y3630D01*
G01X11369Y2806D02*
G01X10922Y2359D01*
G01X10825Y2561D02*
G01X11124Y2561D01*
G01X10606Y2763D02*
G01X11326Y2763D01*
G01X10326Y2965D02*
G01X10711Y2965D01*
G01X10222Y3167D02*
G01X10497Y3167D01*
G01X9989Y3369D02*
G01X10378Y3369D01*
G01X9718Y3571D02*
G01X10315Y3571D01*
G01X9750Y3773D02*
G01X10298Y3773D01*
G01X12201Y3773D02*
G01X12336Y3773D01*
G01X9698Y3975D02*
G01X10325Y3975D01*
G01X12174Y3975D02*
G01X12538Y3975D01*
G01X10064Y4177D02*
G01X10399Y4177D01*
G01X12100Y4177D02*
G01X12435Y4177D01*
G01X10254Y4379D02*
G01X10536Y4379D01*
G01X11963Y4379D02*
G01X12245Y4379D01*
G01X10339Y4581D02*
G01X10786Y4581D01*
G01X11713Y4581D02*
G01X12160Y4581D01*
G01X10675Y4783D02*
G01X11824Y4783D01*
G01X10855Y4985D02*
G01X11644Y4985D01*
G01X10935Y5187D02*
G01X11564Y5187D01*
G01X12464Y3901D02*
G01X12464Y4157D01*
G01X12262Y3699D02*
G01X12262Y4352D01*
G01X12060Y4248D02*
G01X12060Y4665D01*
G01X11858Y4481D02*
G01X11858Y4758D01*
G01X11656Y4610D02*
G01X11656Y4965D01*
G01X11454Y4679D02*
G01X11454Y5292D01*
G01X11252Y2689D02*
G01X11252Y2798D01*
G01X11252Y4701D02*
G01X11252Y5248D01*
G01X11050Y2487D02*
G01X11050Y2819D01*
G01X11050Y4680D02*
G01X11050Y5289D01*
G01X10848Y2525D02*
G01X10848Y2887D01*
G01X10848Y4612D02*
G01X10848Y4974D01*
G01X10646Y2737D02*
G01X10646Y3014D01*
G01X10646Y4485D02*
G01X10646Y4762D01*
G01X10444Y2832D02*
G01X10444Y3243D01*
G01X10444Y4256D02*
G01X10444Y4667D01*
G01X10242Y3138D02*
G01X10242Y4361D01*
G01X10040Y3338D02*
G01X10040Y4161D01*
G01X9838Y3428D02*
G01X9838Y4071D01*
G01X1162Y2574D02*
G01X728Y3007D01*
G01X728Y3007D02*
G01X767Y3007D01*
G01X919Y3159D02*
G01X919Y4340D01*
G01X767Y4492D02*
G01X156Y4492D01*
G01X156Y4492D02*
G01X156Y7031D01*
G01X468Y7343D02*
G01X3007Y7343D01*
G01X3007Y7343D02*
G01X3007Y6732D01*
G01X3159Y6580D02*
G01X4340Y6580D01*
G01X4492Y6732D02*
G01X4492Y6894D01*
G01X4492Y6894D02*
G01X5669Y6894D01*
G01X5669Y6894D02*
G01X6856Y5706D01*
G01X6777Y4814D02*
G01X6777Y4311D01*
G01X6777Y4311D02*
G01X6250Y3784D01*
G01X5657Y5452D02*
G01X5452Y5452D01*
G01X5452Y5452D02*
G01X5452Y5657D01*
G01X2047Y5657D02*
G01X2047Y5452D01*
G01X2047Y5452D02*
G01X1842Y5452D01*
G01X973Y2763D02*
G01X1139Y2763D01*
G01X771Y2965D02*
G01X1173Y2965D01*
G01X919Y3167D02*
G01X1277Y3167D01*
G01X919Y3369D02*
G01X1423Y3369D01*
G01X919Y3571D02*
G01X1281Y3571D01*
G01X919Y3773D02*
G01X1249Y3773D01*
G01X919Y3975D02*
G01X1301Y3975D01*
G01X6198Y3975D02*
G01X6440Y3975D01*
G01X919Y4177D02*
G01X1435Y4177D01*
G01X6064Y4177D02*
G01X6642Y4177D01*
G01X914Y4379D02*
G01X1245Y4379D01*
G01X6254Y4379D02*
G01X6777Y4379D01*
G01X156Y4581D02*
G01X1160Y4581D01*
G01X6339Y4581D02*
G01X6777Y4581D01*
G01X156Y4783D02*
G01X1140Y4783D01*
G01X6359Y4783D02*
G01X6777Y4783D01*
G01X156Y4985D02*
G01X1180Y4985D01*
G01X6319Y4985D02*
G01X6579Y4985D01*
G01X156Y5187D02*
G01X1292Y5187D01*
G01X6207Y5187D02*
G01X6505Y5187D01*
G01X156Y5389D02*
G01X1550Y5389D01*
G01X5949Y5389D02*
G01X6523Y5389D01*
G01X156Y5591D02*
G01X2047Y5591D01*
G01X5452Y5591D02*
G01X6649Y5591D01*
G01X156Y5793D02*
G01X2060Y5793D01*
G01X5439Y5793D02*
G01X6770Y5793D01*
G01X156Y5995D02*
G01X2133Y5995D01*
G01X5366Y5995D02*
G01X6568Y5995D01*
G01X156Y6197D02*
G01X2300Y6197D01*
G01X3199Y6197D02*
G01X3523Y6197D01*
G01X3976Y6197D02*
G01X4300Y6197D01*
G01X5199Y6197D02*
G01X6366Y6197D01*
G01X156Y6399D02*
G01X6164Y6399D01*
G01X156Y6601D02*
G01X3083Y6601D01*
G01X4416Y6601D02*
G01X5962Y6601D01*
G01X156Y6803D02*
G01X3007Y6803D01*
G01X4492Y6803D02*
G01X5760Y6803D01*
G01X156Y7005D02*
G01X3007Y7005D01*
G01X210Y7207D02*
G01X3007Y7207D01*
G01X6808Y5691D02*
G01X6808Y5755D01*
G01X6606Y4141D02*
G01X6606Y4947D01*
G01X6606Y5544D02*
G01X6606Y5957D01*
G01X6404Y3939D02*
G01X6404Y6159D01*
G01X6202Y3965D02*
G01X6202Y4306D01*
G01X6202Y5193D02*
G01X6202Y6361D01*
G01X6000Y5363D02*
G01X6000Y6563D01*
G01X5798Y5438D02*
G01X5798Y6765D01*
G01X5596Y5452D02*
G01X5596Y6894D01*
G01X5394Y5936D02*
G01X5394Y6894D01*
G01X5192Y6203D02*
G01X5192Y6894D01*
G01X4990Y6317D02*
G01X4990Y6894D01*
G01X4788Y6359D02*
G01X4788Y6894D01*
G01X4586Y6340D02*
G01X4586Y6894D01*
G01X4384Y6257D02*
G01X4384Y6587D01*
G01X4182Y6072D02*
G01X4182Y6580D01*
G01X3980Y6195D02*
G01X3980Y6580D01*
G01X3778Y6250D02*
G01X3778Y6580D01*
G01X3576Y6220D02*
G01X3576Y6580D01*
G01X3374Y6082D02*
G01X3374Y6580D01*
G01X3172Y6218D02*
G01X3172Y6580D01*
G01X2970Y6324D02*
G01X2970Y7343D01*
G01X2768Y6359D02*
G01X2768Y7343D01*
G01X2566Y6335D02*
G01X2566Y7343D01*
G01X2364Y6245D02*
G01X2364Y7343D01*
G01X2162Y6043D02*
G01X2162Y7343D01*
G01X1960Y5452D02*
G01X1960Y7343D01*
G01X1758Y5447D02*
G01X1758Y7343D01*
G01X1556Y5391D02*
G01X1556Y7343D01*
G01X1354Y3255D02*
G01X1354Y3441D01*
G01X1354Y4058D02*
G01X1354Y4244D01*
G01X1354Y5255D02*
G01X1354Y7343D01*
G01X1152Y2583D02*
G01X1152Y2615D01*
G01X1152Y2884D02*
G01X1152Y4615D01*
G01X1152Y4884D02*
G01X1152Y7343D01*
G01X950Y2785D02*
G01X950Y7343D01*
G01X748Y2987D02*
G01X748Y3007D01*
G01X748Y4492D02*
G01X748Y7343D01*
G01X546Y4492D02*
G01X546Y7343D01*
G01X344Y4492D02*
G01X344Y7317D01*
G01X21527Y2703D02*
G01X21527Y5090D01*
G01X22343Y4939D02*
G01X22343Y4492D01*
G01X22343Y4492D02*
G01X21732Y4492D01*
G01X21580Y4340D02*
G01X21580Y3159D01*
G01X21732Y3007D02*
G01X21792Y3007D01*
G01X21777Y2930D02*
G01X21777Y2769D01*
G01X21777Y2769D02*
G01X21653Y2769D01*
G01X21527Y2763D02*
G01X21609Y2763D01*
G01X21527Y2965D02*
G01X21780Y2965D01*
G01X21527Y3167D02*
G01X21580Y3167D01*
G01X21527Y3369D02*
G01X21580Y3369D01*
G01X21527Y3571D02*
G01X21580Y3571D01*
G01X21527Y3773D02*
G01X21580Y3773D01*
G01X21527Y3975D02*
G01X21580Y3975D01*
G01X21527Y4177D02*
G01X21580Y4177D01*
G01X21527Y4379D02*
G01X21585Y4379D01*
G01X21527Y4581D02*
G01X22343Y4581D01*
G01X21527Y4783D02*
G01X21865Y4783D01*
G01X22091Y4783D02*
G01X22343Y4783D01*
G01X21527Y4985D02*
G01X21579Y4985D01*
G01X22160Y4492D02*
G01X22160Y4805D01*
G01X21958Y4492D02*
G01X21958Y4770D01*
G01X21756Y2769D02*
G01X21756Y3007D01*
G01X21756Y4492D02*
G01X21756Y4824D01*
G01X21554Y2733D02*
G01X21554Y5027D01*
G01X22343Y3007D02*
G01X22343Y2764D01*
G01X22303Y2769D02*
G01X22180Y2769D01*
G01X22180Y2769D02*
G01X22180Y2846D01*
G01X22180Y2846D02*
G01X22238Y2905D01*
G01X22293Y3007D02*
G01X22343Y3007D01*
G01X22280Y2965D02*
G01X22343Y2965D01*
G01X4400Y2766D02*
G01X4733Y3099D01*
G01X4598Y2965D02*
G01X4673Y2965D01*
G01X4586Y2840D02*
G01X4586Y2953D01*
G01X19400Y2766D02*
G01X19733Y3099D01*
G01X19598Y2965D02*
G01X19673Y2965D01*
G01X19534Y2826D02*
G01X19534Y2901D01*
G01X11900Y2766D02*
G01X12233Y3099D01*
G01X12098Y2965D02*
G01X12173Y2965D01*
G01X12060Y2834D02*
G01X12060Y2927D01*
G01X13714Y3178D02*
G01X14620Y4085D01*
G01X14680Y4228D02*
G01X14680Y4814D01*
G01X14727Y4840D02*
G01X14727Y4012D01*
G01X14727Y4012D02*
G01X13838Y3122D01*
G01X13722Y3167D02*
G01X13882Y3167D01*
G01X13904Y3369D02*
G01X14084Y3369D01*
G01X14106Y3571D02*
G01X14286Y3571D01*
G01X14308Y3773D02*
G01X14488Y3773D01*
G01X14510Y3975D02*
G01X14690Y3975D01*
G01X14673Y4177D02*
G01X14727Y4177D01*
G01X14680Y4379D02*
G01X14727Y4379D01*
G01X14680Y4581D02*
G01X14727Y4581D01*
G01X14680Y4783D02*
G01X14727Y4783D01*
G01X14686Y3971D02*
G01X14686Y4817D01*
G01X14484Y3769D02*
G01X14484Y3949D01*
G01X14282Y3567D02*
G01X14282Y3747D01*
G01X14080Y3365D02*
G01X14080Y3545D01*
G01X13878Y3163D02*
G01X13878Y3343D01*
G01X21125Y3417D02*
G01X21125Y3274D01*
G01X21076Y3369D02*
G01X21125Y3369D01*
G01X4992Y3359D02*
G01X5263Y3629D01*
G01X5346Y3452D02*
G01X5342Y3452D01*
G01X5002Y3369D02*
G01X5010Y3369D01*
G01X5204Y3571D02*
G01X5281Y3571D01*
G01X5192Y3436D02*
G01X5192Y3559D01*
G01X19992Y3359D02*
G01X20263Y3629D01*
G01X20346Y3452D02*
G01X20342Y3452D01*
G01X20002Y3369D02*
G01X20010Y3369D01*
G01X20204Y3571D02*
G01X20281Y3571D01*
G01X20342Y3452D02*
G01X20342Y3457D01*
G01X20140Y3423D02*
G01X20140Y3507D01*
G01X12492Y3359D02*
G01X12763Y3629D01*
G01X12846Y3452D02*
G01X12842Y3452D01*
G01X12502Y3369D02*
G01X12510Y3369D01*
G01X12704Y3571D02*
G01X12781Y3571D01*
G01X12666Y3430D02*
G01X12666Y3533D01*
G01X21125Y4225D02*
G01X21125Y4082D01*
G01X21064Y4177D02*
G01X21125Y4177D01*
G01X21468Y5363D02*
G01X19593Y7238D01*
G01X19492Y7293D02*
G01X19492Y7343D01*
G01X19492Y7343D02*
G01X22031Y7343D01*
G01X22343Y7031D02*
G01X22343Y5552D01*
G01X21443Y5389D02*
G01X21523Y5389D01*
G01X21241Y5591D02*
G01X21649Y5591D01*
G01X22306Y5591D02*
G01X22343Y5591D01*
G01X21039Y5793D02*
G01X22343Y5793D01*
G01X20837Y5995D02*
G01X22343Y5995D01*
G01X20635Y6197D02*
G01X22343Y6197D01*
G01X20433Y6399D02*
G01X22343Y6399D01*
G01X20231Y6601D02*
G01X22343Y6601D01*
G01X20029Y6803D02*
G01X22343Y6803D01*
G01X19827Y7005D02*
G01X22343Y7005D01*
G01X19625Y7207D02*
G01X22289Y7207D01*
G01X22160Y5686D02*
G01X22160Y7315D01*
G01X21958Y5722D02*
G01X21958Y7343D01*
G01X21756Y5667D02*
G01X21756Y7343D01*
G01X21554Y5464D02*
G01X21554Y7343D01*
G01X21352Y5479D02*
G01X21352Y7343D01*
G01X21150Y5681D02*
G01X21150Y7343D01*
G01X20948Y5883D02*
G01X20948Y7343D01*
G01X20746Y6085D02*
G01X20746Y7343D01*
G01X20544Y6287D02*
G01X20544Y7343D01*
G01X20342Y6489D02*
G01X20342Y7343D01*
G01X20140Y6691D02*
G01X20140Y7343D01*
G01X19938Y6893D02*
G01X19938Y7343D01*
G01X19736Y7095D02*
G01X19736Y7343D01*
G01X19534Y7279D02*
G01X19534Y7343D01*
G01X20657Y5452D02*
G01X20452Y5452D01*
G01X20452Y5452D02*
G01X20452Y5657D01*
G01X20430Y5832D02*
G01X20832Y5430D01*
G01X20452Y5591D02*
G01X20671Y5591D01*
G01X20439Y5793D02*
G01X20469Y5793D01*
G01X20746Y5446D02*
G01X20746Y5516D01*
G01X20544Y5452D02*
G01X20544Y5718D01*
G01X10253Y8172D02*
G01X10392Y8311D01*
G01X10452Y8454D02*
G01X10452Y8669D01*
G01X12952Y9342D02*
G01X12952Y9547D01*
G01X12952Y9547D02*
G01X13157Y9547D01*
G01X13671Y9770D02*
G01X13671Y8663D01*
G01X13671Y8663D02*
G01X13655Y8647D01*
G01X13655Y8647D02*
G01X12758Y8647D01*
G01X12561Y8486D02*
G01X12433Y8486D01*
G01X12282Y8335D02*
G01X12282Y7685D01*
G01X12285Y7651D02*
G01X10119Y7651D01*
G01X10239Y7813D02*
G01X12282Y7813D01*
G01X10282Y8015D02*
G01X12282Y8015D01*
G01X10298Y8217D02*
G01X12282Y8217D01*
G01X10448Y8419D02*
G01X12307Y8419D01*
G01X10452Y8621D02*
G01X12658Y8621D01*
G01X10723Y8823D02*
G01X10986Y8823D01*
G01X11513Y8823D02*
G01X11776Y8823D01*
G01X12723Y8823D02*
G01X13671Y8823D01*
G01X12876Y9025D02*
G01X13671Y9025D01*
G01X12943Y9227D02*
G01X13671Y9227D01*
G01X12952Y9429D02*
G01X13671Y9429D01*
G01X13490Y9631D02*
G01X13671Y9631D01*
G01X13474Y8647D02*
G01X13474Y9623D01*
G01X13272Y8647D02*
G01X13272Y9556D01*
G01X13070Y8647D02*
G01X13070Y9547D01*
G01X12868Y8647D02*
G01X12868Y9009D01*
G01X12666Y8625D02*
G01X12666Y8776D01*
G01X12464Y8486D02*
G01X12464Y8673D01*
G01X12262Y7651D02*
G01X12262Y8639D01*
G01X12060Y7651D02*
G01X12060Y8665D01*
G01X11858Y7651D02*
G01X11858Y8758D01*
G01X11656Y7651D02*
G01X11656Y8956D01*
G01X11454Y7651D02*
G01X11454Y8792D01*
G01X11252Y7651D02*
G01X11252Y8748D01*
G01X11050Y7651D02*
G01X11050Y8789D01*
G01X10848Y7651D02*
G01X10848Y8949D01*
G01X10646Y7651D02*
G01X10646Y8762D01*
G01X10444Y7651D02*
G01X10444Y8400D01*
G01X10242Y7651D02*
G01X10242Y7819D01*
G01X11547Y9657D02*
G01X11547Y9653D01*
G01X11370Y9736D02*
G01X11640Y10007D01*
G01X11466Y9833D02*
G01X11569Y9833D01*
G01X11454Y9707D02*
G01X11454Y9821D01*
G01X11369Y10306D02*
G01X10922Y9859D01*
G01X9657Y10952D02*
G01X9653Y10952D01*
G01X9653Y11547D02*
G01X9657Y11547D01*
G01X10952Y12842D02*
G01X10952Y12846D01*
G01X11547Y12846D02*
G01X11547Y12842D01*
G01X12588Y11595D02*
G01X12588Y11524D01*
G01X12588Y11524D02*
G01X12193Y11130D01*
G01X10842Y10035D02*
G01X11098Y10035D01*
G01X10647Y10237D02*
G01X11300Y10237D01*
G01X10334Y10439D02*
G01X10751Y10439D01*
G01X10241Y10641D02*
G01X10518Y10641D01*
G01X10034Y10843D02*
G01X10389Y10843D01*
G01X9707Y11045D02*
G01X10320Y11045D01*
G01X9751Y11247D02*
G01X10298Y11247D01*
G01X12201Y11247D02*
G01X12310Y11247D01*
G01X9710Y11449D02*
G01X10319Y11449D01*
G01X12180Y11449D02*
G01X12512Y11449D01*
G01X10025Y11651D02*
G01X10387Y11651D01*
G01X12112Y11651D02*
G01X12474Y11651D01*
G01X10237Y11853D02*
G01X10514Y11853D01*
G01X11985Y11853D02*
G01X12262Y11853D01*
G01X10332Y12055D02*
G01X10743Y12055D01*
G01X11756Y12055D02*
G01X12167Y12055D01*
G01X10638Y12257D02*
G01X11861Y12257D01*
G01X10838Y12459D02*
G01X11661Y12459D01*
G01X10928Y12661D02*
G01X11571Y12661D01*
G01X12464Y11401D02*
G01X12464Y11657D01*
G01X12262Y11199D02*
G01X12262Y11852D01*
G01X12060Y11748D02*
G01X12060Y12165D01*
G01X11858Y11981D02*
G01X11858Y12258D01*
G01X11656Y12110D02*
G01X11656Y12465D01*
G01X11454Y12179D02*
G01X11454Y12792D01*
G01X11252Y10189D02*
G01X11252Y10298D01*
G01X11252Y12201D02*
G01X11252Y12748D01*
G01X11050Y9987D02*
G01X11050Y10319D01*
G01X11050Y12180D02*
G01X11050Y12789D01*
G01X10848Y10025D02*
G01X10848Y10387D01*
G01X10848Y12112D02*
G01X10848Y12474D01*
G01X10646Y10237D02*
G01X10646Y10514D01*
G01X10646Y11985D02*
G01X10646Y12262D01*
G01X10444Y10332D02*
G01X10444Y10743D01*
G01X10444Y11756D02*
G01X10444Y12167D01*
G01X10242Y10638D02*
G01X10242Y11861D01*
G01X10040Y10838D02*
G01X10040Y11661D01*
G01X9838Y10928D02*
G01X9838Y11571D01*
G01X14073Y10247D02*
G01X14073Y12494D01*
G01X14843Y12439D02*
G01X14843Y11992D01*
G01X14843Y11992D02*
G01X14232Y11992D01*
G01X14080Y11840D02*
G01X14080Y10659D01*
G01X14232Y10507D02*
G01X14292Y10507D01*
G01X14277Y10430D02*
G01X14277Y10269D01*
G01X14277Y10269D02*
G01X14153Y10269D01*
G01X14073Y10439D02*
G01X14277Y10439D01*
G01X14073Y10641D02*
G01X14081Y10641D01*
G01X14073Y10843D02*
G01X14080Y10843D01*
G01X14073Y11045D02*
G01X14080Y11045D01*
G01X14073Y11247D02*
G01X14080Y11247D01*
G01X14073Y11449D02*
G01X14080Y11449D01*
G01X14073Y11651D02*
G01X14080Y11651D01*
G01X14073Y11853D02*
G01X14081Y11853D01*
G01X14073Y12055D02*
G01X14843Y12055D01*
G01X14073Y12257D02*
G01X14843Y12257D01*
G01X14073Y12459D02*
G01X14097Y12459D01*
G01X14686Y11992D02*
G01X14686Y12317D01*
G01X14484Y11992D02*
G01X14484Y12269D01*
G01X14282Y10478D02*
G01X14282Y10507D01*
G01X14282Y11992D02*
G01X14282Y12311D01*
G01X14080Y10251D02*
G01X14080Y12483D01*
G01X14843Y10507D02*
G01X14843Y10264D01*
G01X14803Y10269D02*
G01X14680Y10269D01*
G01X14680Y10269D02*
G01X14680Y10346D01*
G01X14680Y10346D02*
G01X14738Y10405D01*
G01X14793Y10507D02*
G01X14843Y10507D01*
G01X14765Y10439D02*
G01X14843Y10439D01*
G01X14686Y10269D02*
G01X14686Y10353D01*
G01X11900Y10266D02*
G01X12233Y10599D01*
G01X12072Y10439D02*
G01X12165Y10439D01*
G01X12060Y10334D02*
G01X12060Y10427D01*
G01X13671Y10977D02*
G01X13671Y10729D01*
G01X13543Y10843D02*
G01X13671Y10843D01*
G01X12492Y10859D02*
G01X12763Y11129D01*
G01X12846Y10952D02*
G01X12842Y10952D01*
G01X12678Y11045D02*
G01X12792Y11045D01*
G01X12666Y10930D02*
G01X12666Y11033D01*
G01X13671Y11770D02*
G01X13671Y11522D01*
G01X13550Y11651D02*
G01X13671Y11651D01*
G01X14008Y12824D02*
G01X12093Y14738D01*
G01X11992Y14793D02*
G01X11992Y14843D01*
G01X11992Y14843D02*
G01X14531Y14843D01*
G01X14843Y14531D02*
G01X14843Y13052D01*
G01X13969Y12863D02*
G01X14016Y12863D01*
G01X13767Y13065D02*
G01X14124Y13065D01*
G01X14832Y13065D02*
G01X14843Y13065D01*
G01X13565Y13267D02*
G01X14843Y13267D01*
G01X13363Y13469D02*
G01X14843Y13469D01*
G01X13161Y13671D02*
G01X14843Y13671D01*
G01X12959Y13873D02*
G01X14843Y13873D01*
G01X12757Y14075D02*
G01X14843Y14075D01*
G01X12555Y14277D02*
G01X14843Y14277D01*
G01X12353Y14479D02*
G01X14843Y14479D01*
G01X12151Y14681D02*
G01X14805Y14681D01*
G01X14686Y13174D02*
G01X14686Y14802D01*
G01X14484Y13222D02*
G01X14484Y14843D01*
G01X14282Y13180D02*
G01X14282Y14843D01*
G01X14080Y13008D02*
G01X14080Y14843D01*
G01X13878Y12953D02*
G01X13878Y14843D01*
G01X13676Y13155D02*
G01X13676Y14843D01*
G01X13474Y13357D02*
G01X13474Y14843D01*
G01X13272Y13559D02*
G01X13272Y14843D01*
G01X13070Y13761D02*
G01X13070Y14843D01*
G01X12868Y13963D02*
G01X12868Y14843D01*
G01X12666Y14165D02*
G01X12666Y14843D01*
G01X12464Y14367D02*
G01X12464Y14843D01*
G01X12262Y14569D02*
G01X12262Y14843D01*
G01X12060Y14765D02*
G01X12060Y14843D01*
G01X13157Y12952D02*
G01X12952Y12952D01*
G01X12952Y12952D02*
G01X12952Y13157D01*
G01X12930Y13332D02*
G01X13332Y12930D01*
G01X12952Y13065D02*
G01X13197Y13065D01*
G01X12944Y13267D02*
G01X12995Y13267D01*
G01X13272Y12943D02*
G01X13272Y12990D01*
G01X13070Y12952D02*
G01X13070Y13192D01*
G01X156Y468D02*
G01X156Y3007D01*
G01X156Y3007D02*
G01X206Y3007D01*
G01X261Y2905D02*
G01X2142Y1024D01*
G01X1986Y156D02*
G01X468Y156D01*
G01X184Y339D02*
G01X1861Y339D01*
G01X156Y541D02*
G01X1830Y541D01*
G01X156Y743D02*
G01X1890Y743D01*
G01X156Y945D02*
G01X2111Y945D01*
G01X156Y1147D02*
G01X2019Y1147D01*
G01X156Y1349D02*
G01X1817Y1349D01*
G01X156Y1551D02*
G01X1615Y1551D01*
G01X156Y1753D02*
G01X1413Y1753D01*
G01X156Y1955D02*
G01X1211Y1955D01*
G01X156Y2157D02*
G01X1009Y2157D01*
G01X156Y2359D02*
G01X807Y2359D01*
G01X156Y2561D02*
G01X605Y2561D01*
G01X156Y2763D02*
G01X403Y2763D01*
G01X156Y2965D02*
G01X219Y2965D01*
G01X2162Y964D02*
G01X2162Y1006D01*
G01X1960Y156D02*
G01X1960Y181D01*
G01X1960Y838D02*
G01X1960Y1206D01*
G01X1758Y156D02*
G01X1758Y1408D01*
G01X1556Y156D02*
G01X1556Y1610D01*
G01X1354Y156D02*
G01X1354Y1812D01*
G01X1152Y156D02*
G01X1152Y2014D01*
G01X950Y156D02*
G01X950Y2216D01*
G01X748Y156D02*
G01X748Y2418D01*
G01X546Y156D02*
G01X546Y2620D01*
G01X344Y182D02*
G01X344Y2822D01*
G01X13235Y185D02*
G01X13235Y835D01*
G01X13083Y986D02*
G01X14011Y1913D01*
G01X14153Y1816D02*
G01X14803Y1816D01*
G01X14954Y1968D02*
G01X14954Y2618D01*
G01X14803Y2769D02*
G01X14181Y2769D01*
G01X14181Y2769D02*
G01X14181Y2896D01*
G01X14181Y2896D02*
G01X15071Y3786D01*
G01X15131Y3929D02*
G01X15131Y7255D01*
G01X15071Y7397D02*
G01X14023Y8446D01*
G01X14073Y8579D02*
G01X14073Y9339D01*
G01X14153Y9316D02*
G01X14803Y9316D01*
G01X14843Y9322D02*
G01X14843Y7968D01*
G01X15468Y7343D02*
G01X18007Y7343D01*
G01X18007Y7343D02*
G01X18007Y6732D01*
G01X18159Y6580D02*
G01X19340Y6580D01*
G01X19492Y6732D02*
G01X19492Y6770D01*
G01X19492Y6770D02*
G01X19924Y6338D01*
G01X17047Y5657D02*
G01X17047Y5452D01*
G01X17047Y5452D02*
G01X16842Y5452D01*
G01X16842Y2047D02*
G01X17047Y2047D01*
G01X17047Y2047D02*
G01X17047Y1842D01*
G01X17103Y1556D02*
G01X17103Y941D01*
G01X16986Y156D02*
G01X13232Y156D01*
G01X13235Y339D02*
G01X16861Y339D01*
G01X13235Y541D02*
G01X16830Y541D01*
G01X13235Y743D02*
G01X16890Y743D01*
G01X13187Y945D02*
G01X17103Y945D01*
G01X13244Y1147D02*
G01X17103Y1147D01*
G01X13446Y1349D02*
G01X17103Y1349D01*
G01X13649Y1551D02*
G01X17103Y1551D01*
G01X13851Y1753D02*
G01X17053Y1753D01*
G01X14954Y1955D02*
G01X17047Y1955D01*
G01X14954Y2157D02*
G01X16465Y2157D01*
G01X14954Y2359D02*
G01X16258Y2359D01*
G01X14954Y2561D02*
G01X16165Y2561D01*
G01X14847Y2763D02*
G01X16139Y2763D01*
G01X14250Y2965D02*
G01X16173Y2965D01*
G01X14452Y3167D02*
G01X16277Y3167D01*
G01X14654Y3369D02*
G01X16423Y3369D01*
G01X14856Y3571D02*
G01X16281Y3571D01*
G01X15058Y3773D02*
G01X16249Y3773D01*
G01X15131Y3975D02*
G01X16301Y3975D01*
G01X15131Y4177D02*
G01X16435Y4177D01*
G01X15131Y4379D02*
G01X16245Y4379D01*
G01X15131Y4581D02*
G01X16160Y4581D01*
G01X15131Y4783D02*
G01X16140Y4783D01*
G01X15131Y4985D02*
G01X16180Y4985D01*
G01X15131Y5187D02*
G01X16292Y5187D01*
G01X15131Y5389D02*
G01X16550Y5389D01*
G01X15131Y5591D02*
G01X17047Y5591D01*
G01X15131Y5793D02*
G01X17060Y5793D01*
G01X15131Y5995D02*
G01X17133Y5995D01*
G01X15131Y6197D02*
G01X17300Y6197D01*
G01X18199Y6197D02*
G01X18523Y6197D01*
G01X18976Y6197D02*
G01X19300Y6197D01*
G01X15131Y6399D02*
G01X19863Y6399D01*
G01X15131Y6601D02*
G01X18083Y6601D01*
G01X19416Y6601D02*
G01X19661Y6601D01*
G01X15131Y6803D02*
G01X18007Y6803D01*
G01X15131Y7005D02*
G01X18007Y7005D01*
G01X15131Y7207D02*
G01X18007Y7207D01*
G01X15060Y7409D02*
G01X15189Y7409D01*
G01X14858Y7611D02*
G01X14955Y7611D01*
G01X14656Y7813D02*
G01X14863Y7813D01*
G01X14454Y8015D02*
G01X14843Y8015D01*
G01X14252Y8217D02*
G01X14843Y8217D01*
G01X14050Y8419D02*
G01X14843Y8419D01*
G01X14073Y8621D02*
G01X14843Y8621D01*
G01X14073Y8823D02*
G01X14843Y8823D01*
G01X14073Y9025D02*
G01X14843Y9025D01*
G01X14073Y9227D02*
G01X14843Y9227D01*
G01X19736Y6360D02*
G01X19736Y6526D01*
G01X19534Y6326D02*
G01X19534Y6728D01*
G01X19332Y6222D02*
G01X19332Y6580D01*
G01X19130Y6076D02*
G01X19130Y6580D01*
G01X18928Y6218D02*
G01X18928Y6580D01*
G01X18726Y6250D02*
G01X18726Y6580D01*
G01X18524Y6198D02*
G01X18524Y6580D01*
G01X18322Y6064D02*
G01X18322Y6580D01*
G01X18120Y6254D02*
G01X18120Y6585D01*
G01X17918Y6339D02*
G01X17918Y7343D01*
G01X17716Y6359D02*
G01X17716Y7343D01*
G01X17514Y6319D02*
G01X17514Y7343D01*
G01X17312Y6207D02*
G01X17312Y7343D01*
G01X17110Y5949D02*
G01X17110Y7343D01*
G01X16908Y156D02*
G01X16908Y246D01*
G01X16908Y773D02*
G01X16908Y2047D01*
G01X16908Y5452D02*
G01X16908Y7343D01*
G01X16706Y156D02*
G01X16706Y2060D01*
G01X16706Y5439D02*
G01X16706Y7343D01*
G01X16504Y156D02*
G01X16504Y2133D01*
G01X16504Y5366D02*
G01X16504Y7343D01*
G01X16302Y156D02*
G01X16302Y2300D01*
G01X16302Y3199D02*
G01X16302Y3523D01*
G01X16302Y3976D02*
G01X16302Y4300D01*
G01X16302Y5199D02*
G01X16302Y7343D01*
G01X16100Y156D02*
G01X16100Y7343D01*
G01X15898Y156D02*
G01X15898Y7343D01*
G01X15696Y156D02*
G01X15696Y7343D01*
G01X15494Y156D02*
G01X15494Y7343D01*
G01X15292Y156D02*
G01X15292Y7368D01*
G01X15090Y156D02*
G01X15090Y3808D01*
G01X15090Y7376D02*
G01X15090Y7470D01*
G01X14888Y156D02*
G01X14888Y1843D01*
G01X14888Y2743D02*
G01X14888Y3603D01*
G01X14888Y7580D02*
G01X14888Y7735D01*
G01X14686Y156D02*
G01X14686Y1816D01*
G01X14686Y2769D02*
G01X14686Y3401D01*
G01X14686Y7782D02*
G01X14686Y9316D01*
G01X14484Y156D02*
G01X14484Y1816D01*
G01X14484Y2769D02*
G01X14484Y3199D01*
G01X14484Y7984D02*
G01X14484Y9316D01*
G01X14282Y156D02*
G01X14282Y1816D01*
G01X14282Y2769D02*
G01X14282Y2997D01*
G01X14282Y8186D02*
G01X14282Y9316D01*
G01X14080Y156D02*
G01X14080Y1835D01*
G01X14080Y8388D02*
G01X14080Y9335D01*
G01X13878Y156D02*
G01X13878Y1780D01*
G01X13676Y156D02*
G01X13676Y1578D01*
G01X13474Y156D02*
G01X13474Y1377D01*
G01X13272Y156D02*
G01X13272Y1175D01*
G01X4784Y156D02*
G01X4492Y156D01*
G01X4492Y156D02*
G01X4492Y767D01*
G01X4340Y919D02*
G01X3159Y919D01*
G01X3007Y767D02*
G01X3007Y156D01*
G01X3007Y156D02*
G01X2625Y156D01*
G01X2444Y965D02*
G01X4857Y965D01*
G01X4782Y835D02*
G01X4782Y185D01*
G01X2750Y339D02*
G01X3007Y339D01*
G01X4492Y339D02*
G01X4782Y339D01*
G01X2781Y541D02*
G01X3007Y541D01*
G01X4492Y541D02*
G01X4782Y541D01*
G01X2721Y743D02*
G01X3007Y743D01*
G01X4492Y743D02*
G01X4782Y743D01*
G01X2499Y945D02*
G01X4829Y945D01*
G01X4788Y879D02*
G01X4788Y965D01*
G01X4586Y156D02*
G01X4586Y965D01*
G01X4384Y912D02*
G01X4384Y965D01*
G01X4182Y919D02*
G01X4182Y965D01*
G01X3980Y919D02*
G01X3980Y965D01*
G01X3778Y919D02*
G01X3778Y965D01*
G01X3576Y919D02*
G01X3576Y965D01*
G01X3374Y919D02*
G01X3374Y965D01*
G01X3172Y919D02*
G01X3172Y965D01*
G01X2970Y156D02*
G01X2970Y965D01*
G01X2768Y156D02*
G01X2768Y396D01*
G01X2768Y623D02*
G01X2768Y965D01*
G01X2566Y908D02*
G01X2566Y965D01*
G01X19784Y156D02*
G01X19492Y156D01*
G01X19492Y156D02*
G01X19492Y767D01*
G01X19340Y919D02*
G01X18159Y919D01*
G01X18007Y767D02*
G01X18007Y156D01*
G01X18007Y156D02*
G01X17625Y156D01*
G01X17506Y941D02*
G01X17506Y1183D01*
G01X20452Y1842D02*
G01X20452Y2047D01*
G01X20452Y2047D02*
G01X20657Y2047D01*
G01X21125Y2225D02*
G01X21125Y2097D01*
G01X21125Y2097D02*
G01X20116Y1088D01*
G01X20061Y986D02*
G01X19933Y986D01*
G01X19782Y835D02*
G01X19782Y185D01*
G01X17750Y339D02*
G01X18007Y339D01*
G01X19492Y339D02*
G01X19782Y339D01*
G01X17781Y541D02*
G01X18007Y541D01*
G01X19492Y541D02*
G01X19782Y541D01*
G01X17721Y743D02*
G01X18007Y743D01*
G01X19492Y743D02*
G01X19782Y743D01*
G01X17506Y945D02*
G01X19829Y945D01*
G01X17506Y1147D02*
G01X17648Y1147D01*
G01X17851Y1147D02*
G01X19648Y1147D01*
G01X19851Y1147D02*
G01X20174Y1147D01*
G01X18250Y1349D02*
G01X18448Y1349D01*
G01X19051Y1349D02*
G01X19249Y1349D01*
G01X20250Y1349D02*
G01X20376Y1349D01*
G01X20389Y1551D02*
G01X20578Y1551D01*
G01X20446Y1753D02*
G01X20780Y1753D01*
G01X20452Y1955D02*
G01X20982Y1955D01*
G01X21034Y2157D02*
G01X21125Y2157D01*
G01X20948Y1921D02*
G01X20948Y2110D01*
G01X20746Y1719D02*
G01X20746Y2053D01*
G01X20544Y1517D02*
G01X20544Y2047D01*
G01X20342Y1315D02*
G01X20342Y1465D01*
G01X20140Y1113D02*
G01X20140Y1258D01*
G01X19938Y986D02*
G01X19938Y1165D01*
G01X19736Y156D02*
G01X19736Y1139D01*
G01X19534Y156D02*
G01X19534Y1173D01*
G01X19332Y919D02*
G01X19332Y1277D01*
G01X19130Y919D02*
G01X19130Y1423D01*
G01X18928Y919D02*
G01X18928Y1281D01*
G01X18726Y919D02*
G01X18726Y1249D01*
G01X18524Y919D02*
G01X18524Y1301D01*
G01X18322Y919D02*
G01X18322Y1435D01*
G01X18120Y914D02*
G01X18120Y1245D01*
G01X17918Y156D02*
G01X17918Y1160D01*
G01X17716Y156D02*
G01X17716Y268D01*
G01X17716Y751D02*
G01X17716Y1140D01*
G01X17514Y938D02*
G01X17514Y1180D01*
G01X10507Y767D02*
G01X10507Y156D01*
G01X10507Y156D02*
G01X10125Y156D01*
G01X10006Y941D02*
G01X10006Y1183D01*
G01X12952Y1842D02*
G01X12952Y2047D01*
G01X12952Y2047D02*
G01X13157Y2047D01*
G01X13778Y2422D02*
G01X13778Y2250D01*
G01X13778Y2250D02*
G01X12616Y1088D01*
G01X12561Y986D02*
G01X12433Y986D01*
G01X12282Y835D02*
G01X12282Y185D01*
G01X12284Y156D02*
G01X11992Y156D01*
G01X11992Y156D02*
G01X11992Y767D01*
G01X11840Y919D02*
G01X10659Y919D01*
G01X10250Y339D02*
G01X10507Y339D01*
G01X11992Y339D02*
G01X12282Y339D01*
G01X10281Y541D02*
G01X10507Y541D01*
G01X11992Y541D02*
G01X12282Y541D01*
G01X10221Y743D02*
G01X10507Y743D01*
G01X11992Y743D02*
G01X12282Y743D01*
G01X10006Y945D02*
G01X12329Y945D01*
G01X10006Y1147D02*
G01X10148Y1147D01*
G01X10351Y1147D02*
G01X12148Y1147D01*
G01X12351Y1147D02*
G01X12674Y1147D01*
G01X10750Y1349D02*
G01X10948Y1349D01*
G01X11551Y1349D02*
G01X11749Y1349D01*
G01X12750Y1349D02*
G01X12876Y1349D01*
G01X12889Y1551D02*
G01X13078Y1551D01*
G01X12946Y1753D02*
G01X13281Y1753D01*
G01X12952Y1955D02*
G01X13483Y1955D01*
G01X13534Y2157D02*
G01X13685Y2157D01*
G01X13741Y2359D02*
G01X13778Y2359D01*
G01X13676Y2148D02*
G01X13676Y2276D01*
G01X13474Y1946D02*
G01X13474Y2123D01*
G01X13272Y1744D02*
G01X13272Y2056D01*
G01X13070Y1543D02*
G01X13070Y2047D01*
G01X12868Y1341D02*
G01X12868Y1509D01*
G01X12666Y1139D02*
G01X12666Y1276D01*
G01X12464Y986D02*
G01X12464Y1173D01*
G01X12262Y156D02*
G01X12262Y1139D01*
G01X12060Y156D02*
G01X12060Y1165D01*
G01X11858Y918D02*
G01X11858Y1258D01*
G01X11656Y919D02*
G01X11656Y1456D01*
G01X11454Y919D02*
G01X11454Y1292D01*
G01X11252Y919D02*
G01X11252Y1248D01*
G01X11050Y919D02*
G01X11050Y1289D01*
G01X10848Y919D02*
G01X10848Y1449D01*
G01X10646Y918D02*
G01X10646Y1262D01*
G01X10444Y156D02*
G01X10444Y1167D01*
G01X10242Y156D02*
G01X10242Y319D01*
G01X10242Y700D02*
G01X10242Y1139D01*
G01X10040Y924D02*
G01X10040Y1171D01*
G01X5735Y185D02*
G01X5735Y308D01*
G01X5735Y308D02*
G01X6057Y308D01*
G01X6199Y367D02*
G01X7571Y1739D01*
G01X7631Y1882D02*
G01X7631Y5419D01*
G01X7571Y5561D02*
G01X5894Y7238D01*
G01X5752Y7297D02*
G01X4492Y7297D01*
G01X4492Y7297D02*
G01X4492Y7343D01*
G01X4492Y7343D02*
G01X7031Y7343D01*
G01X7656Y7968D02*
G01X7656Y10507D01*
G01X7656Y10507D02*
G01X8267Y10507D01*
G01X8419Y10659D02*
G01X8419Y11840D01*
G01X8267Y11992D02*
G01X7656Y11992D01*
G01X7656Y11992D02*
G01X7656Y14531D01*
G01X7968Y14843D02*
G01X10507Y14843D01*
G01X10507Y14843D02*
G01X10507Y14232D01*
G01X10659Y14080D02*
G01X11840Y14080D01*
G01X11992Y14232D02*
G01X11992Y14270D01*
G01X11992Y14270D02*
G01X12424Y13838D01*
G01X9547Y13157D02*
G01X9547Y12952D01*
G01X9547Y12952D02*
G01X9342Y12952D01*
G01X9342Y9547D02*
G01X9547Y9547D01*
G01X9547Y9547D02*
G01X9547Y9342D01*
G01X10048Y8669D02*
G01X10048Y8537D01*
G01X10048Y8537D02*
G01X9968Y8457D01*
G01X9492Y7651D02*
G01X9375Y7651D01*
G01X9223Y7500D02*
G01X9223Y6950D01*
G01X9375Y6798D02*
G01X13279Y6798D01*
G01X13430Y6950D02*
G01X13430Y7500D01*
G01X13279Y7651D02*
G01X13231Y7651D01*
G01X13235Y7685D02*
G01X13235Y8244D01*
G01X13235Y8244D02*
G01X13655Y8244D01*
G01X13655Y8244D02*
G01X14727Y7171D01*
G01X14727Y7171D02*
G01X14727Y5651D01*
G01X14277Y4814D02*
G01X14277Y4311D01*
G01X14277Y4311D02*
G01X13750Y3784D01*
G01X13157Y5452D02*
G01X12952Y5452D01*
G01X12952Y5452D02*
G01X12952Y5657D01*
G01X9547Y5657D02*
G01X9547Y5452D01*
G01X9547Y5452D02*
G01X9342Y5452D01*
G01X9342Y2047D02*
G01X9547Y2047D01*
G01X9547Y2047D02*
G01X9547Y1842D01*
G01X9603Y1556D02*
G01X9603Y941D01*
G01X9486Y156D02*
G01X5732Y156D01*
G01X6164Y339D02*
G01X9361Y339D01*
G01X6373Y541D02*
G01X9330Y541D01*
G01X6575Y743D02*
G01X9390Y743D01*
G01X6777Y945D02*
G01X9603Y945D01*
G01X6979Y1147D02*
G01X9603Y1147D01*
G01X7181Y1349D02*
G01X9603Y1349D01*
G01X7383Y1551D02*
G01X9603Y1551D01*
G01X7584Y1753D02*
G01X9553Y1753D01*
G01X7631Y1955D02*
G01X9547Y1955D01*
G01X7631Y2157D02*
G01X8965Y2157D01*
G01X7631Y2359D02*
G01X8758Y2359D01*
G01X7631Y2561D02*
G01X8665Y2561D01*
G01X7631Y2763D02*
G01X8639Y2763D01*
G01X7631Y2965D02*
G01X8673Y2965D01*
G01X7631Y3167D02*
G01X8777Y3167D01*
G01X7631Y3369D02*
G01X8923Y3369D01*
G01X7631Y3571D02*
G01X8781Y3571D01*
G01X7631Y3773D02*
G01X8749Y3773D01*
G01X7631Y3975D02*
G01X8801Y3975D01*
G01X13698Y3975D02*
G01X13940Y3975D01*
G01X7631Y4177D02*
G01X8935Y4177D01*
G01X13564Y4177D02*
G01X14142Y4177D01*
G01X7631Y4379D02*
G01X8745Y4379D01*
G01X13754Y4379D02*
G01X14277Y4379D01*
G01X7631Y4581D02*
G01X8660Y4581D01*
G01X13839Y4581D02*
G01X14277Y4581D01*
G01X7631Y4783D02*
G01X8640Y4783D01*
G01X13859Y4783D02*
G01X14277Y4783D01*
G01X7631Y4985D02*
G01X8680Y4985D01*
G01X13819Y4985D02*
G01X14079Y4985D01*
G01X7631Y5187D02*
G01X8792Y5187D01*
G01X13707Y5187D02*
G01X14005Y5187D01*
G01X7631Y5389D02*
G01X9050Y5389D01*
G01X13449Y5389D02*
G01X14023Y5389D01*
G01X7542Y5591D02*
G01X9547Y5591D01*
G01X12952Y5591D02*
G01X14149Y5591D01*
G01X7340Y5793D02*
G01X9560Y5793D01*
G01X12939Y5793D02*
G01X14727Y5793D01*
G01X7138Y5995D02*
G01X9633Y5995D01*
G01X12866Y5995D02*
G01X14727Y5995D01*
G01X6936Y6197D02*
G01X9800Y6197D01*
G01X10699Y6197D02*
G01X11023Y6197D01*
G01X11476Y6197D02*
G01X11800Y6197D01*
G01X12699Y6197D02*
G01X14727Y6197D01*
G01X6734Y6399D02*
G01X14727Y6399D01*
G01X6532Y6601D02*
G01X14727Y6601D01*
G01X6330Y6803D02*
G01X9337Y6803D01*
G01X13316Y6803D02*
G01X14727Y6803D01*
G01X6128Y7005D02*
G01X9223Y7005D01*
G01X13430Y7005D02*
G01X14727Y7005D01*
G01X5926Y7207D02*
G01X9223Y7207D01*
G01X13430Y7207D02*
G01X14692Y7207D01*
G01X7310Y7409D02*
G01X9223Y7409D01*
G01X13430Y7409D02*
G01X14490Y7409D01*
G01X7544Y7611D02*
G01X9272Y7611D01*
G01X13382Y7611D02*
G01X14288Y7611D01*
G01X7636Y7813D02*
G01X9371Y7813D01*
G01X13235Y7813D02*
G01X14086Y7813D01*
G01X7656Y8015D02*
G01X9329Y8015D01*
G01X13235Y8015D02*
G01X13884Y8015D01*
G01X7656Y8217D02*
G01X9376Y8217D01*
G01X13235Y8217D02*
G01X13682Y8217D01*
G01X7656Y8419D02*
G01X9561Y8419D01*
G01X7656Y8621D02*
G01X10048Y8621D01*
G01X7656Y8823D02*
G01X9776Y8823D01*
G01X7656Y9025D02*
G01X9623Y9025D01*
G01X7656Y9227D02*
G01X9556Y9227D01*
G01X7656Y9429D02*
G01X9547Y9429D01*
G01X7656Y9631D02*
G01X9009Y9631D01*
G01X7656Y9833D02*
G01X8776Y9833D01*
G01X7656Y10035D02*
G01X8673Y10035D01*
G01X7656Y10237D02*
G01X8639Y10237D01*
G01X7656Y10439D02*
G01X8665Y10439D01*
G01X8418Y10641D02*
G01X8758Y10641D01*
G01X8419Y10843D02*
G01X8956Y10843D01*
G01X8419Y11045D02*
G01X8792Y11045D01*
G01X8419Y11247D02*
G01X8748Y11247D01*
G01X8419Y11449D02*
G01X8789Y11449D01*
G01X8419Y11651D02*
G01X8949Y11651D01*
G01X8418Y11853D02*
G01X8762Y11853D01*
G01X7656Y12055D02*
G01X8667Y12055D01*
G01X7656Y12257D02*
G01X8639Y12257D01*
G01X7656Y12459D02*
G01X8671Y12459D01*
G01X7656Y12661D02*
G01X8772Y12661D01*
G01X7656Y12863D02*
G01X8999Y12863D01*
G01X7656Y13065D02*
G01X9547Y13065D01*
G01X7656Y13267D02*
G01X9555Y13267D01*
G01X7656Y13469D02*
G01X9620Y13469D01*
G01X7656Y13671D02*
G01X9770Y13671D01*
G01X10729Y13671D02*
G01X10977Y13671D01*
G01X11522Y13671D02*
G01X11770Y13671D01*
G01X7656Y13873D02*
G01X12389Y13873D01*
G01X7656Y14075D02*
G01X12187Y14075D01*
G01X7656Y14277D02*
G01X10507Y14277D01*
G01X7656Y14479D02*
G01X10507Y14479D01*
G01X7694Y14681D02*
G01X10507Y14681D01*
G01X14686Y5674D02*
G01X14686Y7213D01*
G01X14484Y5722D02*
G01X14484Y7415D01*
G01X14282Y5680D02*
G01X14282Y7617D01*
G01X14080Y4115D02*
G01X14080Y4983D01*
G01X14080Y5508D02*
G01X14080Y7819D01*
G01X13878Y3913D02*
G01X13878Y8021D01*
G01X13676Y4013D02*
G01X13676Y4276D01*
G01X13676Y5223D02*
G01X13676Y8223D01*
G01X13474Y5376D02*
G01X13474Y8244D01*
G01X13272Y5443D02*
G01X13272Y6798D01*
G01X13272Y7651D02*
G01X13272Y8244D01*
G01X13070Y5452D02*
G01X13070Y6798D01*
G01X12868Y5990D02*
G01X12868Y6798D01*
G01X12666Y6223D02*
G01X12666Y6798D01*
G01X12464Y6326D02*
G01X12464Y6798D01*
G01X12262Y6360D02*
G01X12262Y6798D01*
G01X12262Y13860D02*
G01X12262Y14000D01*
G01X12060Y6334D02*
G01X12060Y6798D01*
G01X12060Y13834D02*
G01X12060Y14202D01*
G01X11858Y6241D02*
G01X11858Y6798D01*
G01X11858Y13741D02*
G01X11858Y14081D01*
G01X11656Y6043D02*
G01X11656Y6798D01*
G01X11656Y13543D02*
G01X11656Y14080D01*
G01X11454Y6207D02*
G01X11454Y6798D01*
G01X11454Y13707D02*
G01X11454Y14080D01*
G01X11252Y6251D02*
G01X11252Y6798D01*
G01X11252Y13751D02*
G01X11252Y14080D01*
G01X11050Y6210D02*
G01X11050Y6798D01*
G01X11050Y13710D02*
G01X11050Y14080D01*
G01X10848Y6050D02*
G01X10848Y6798D01*
G01X10848Y13550D02*
G01X10848Y14080D01*
G01X10646Y6237D02*
G01X10646Y6798D01*
G01X10646Y13737D02*
G01X10646Y14081D01*
G01X10444Y6332D02*
G01X10444Y6798D01*
G01X10444Y13832D02*
G01X10444Y14843D01*
G01X10242Y6360D02*
G01X10242Y6798D01*
G01X10242Y13860D02*
G01X10242Y14843D01*
G01X10040Y6328D02*
G01X10040Y6798D01*
G01X10040Y8529D02*
G01X10040Y8671D01*
G01X10040Y13828D02*
G01X10040Y14843D01*
G01X9838Y6227D02*
G01X9838Y6798D01*
G01X9838Y8485D02*
G01X9838Y8772D01*
G01X9838Y13727D02*
G01X9838Y14843D01*
G01X9636Y6000D02*
G01X9636Y6798D01*
G01X9636Y8455D02*
G01X9636Y8999D01*
G01X9636Y13500D02*
G01X9636Y14843D01*
G01X9434Y156D02*
G01X9434Y211D01*
G01X9434Y808D02*
G01X9434Y2047D01*
G01X9434Y5452D02*
G01X9434Y6798D01*
G01X9434Y7651D02*
G01X9434Y7711D01*
G01X9434Y8308D02*
G01X9434Y9547D01*
G01X9434Y12952D02*
G01X9434Y14843D01*
G01X9232Y156D02*
G01X9232Y2055D01*
G01X9232Y5444D02*
G01X9232Y6898D01*
G01X9232Y7551D02*
G01X9232Y9555D01*
G01X9232Y12944D02*
G01X9232Y14843D01*
G01X9030Y156D02*
G01X9030Y2120D01*
G01X9030Y5379D02*
G01X9030Y9620D01*
G01X9030Y12879D02*
G01X9030Y14843D01*
G01X8828Y156D02*
G01X8828Y2270D01*
G01X8828Y3229D02*
G01X8828Y3477D01*
G01X8828Y4022D02*
G01X8828Y4270D01*
G01X8828Y5229D02*
G01X8828Y9770D01*
G01X8828Y10729D02*
G01X8828Y10977D01*
G01X8828Y11522D02*
G01X8828Y11770D01*
G01X8828Y12729D02*
G01X8828Y14843D01*
G01X8626Y156D02*
G01X8626Y14843D01*
G01X8424Y156D02*
G01X8424Y14843D01*
G01X8222Y156D02*
G01X8222Y10507D01*
G01X8222Y11992D02*
G01X8222Y14843D01*
G01X8020Y156D02*
G01X8020Y10507D01*
G01X8020Y11992D02*
G01X8020Y14843D01*
G01X7818Y156D02*
G01X7818Y10507D01*
G01X7818Y11992D02*
G01X7818Y14805D01*
G01X7616Y156D02*
G01X7616Y1807D01*
G01X7616Y5493D02*
G01X7616Y7749D01*
G01X7414Y156D02*
G01X7414Y1582D01*
G01X7414Y5718D02*
G01X7414Y7474D01*
G01X7212Y156D02*
G01X7212Y1380D01*
G01X7212Y5920D02*
G01X7212Y7370D01*
G01X7010Y156D02*
G01X7010Y1178D01*
G01X7010Y6122D02*
G01X7010Y7343D01*
G01X6808Y156D02*
G01X6808Y976D01*
G01X6808Y6324D02*
G01X6808Y7343D01*
G01X6606Y156D02*
G01X6606Y774D01*
G01X6606Y6526D02*
G01X6606Y7343D01*
G01X6404Y156D02*
G01X6404Y572D01*
G01X6404Y6728D02*
G01X6404Y7343D01*
G01X6202Y156D02*
G01X6202Y370D01*
G01X6202Y6930D02*
G01X6202Y7343D01*
G01X6000Y156D02*
G01X6000Y308D01*
G01X6000Y7132D02*
G01X6000Y7343D01*
G01X5798Y156D02*
G01X5798Y308D01*
G01X5798Y7292D02*
G01X5798Y7343D01*
G01X5596Y7297D02*
G01X5596Y7343D01*
G01X5394Y7297D02*
G01X5394Y7343D01*
G01X5192Y7297D02*
G01X5192Y7343D01*
G01X4990Y7297D02*
G01X4990Y7343D01*
G01X4788Y7297D02*
G01X4788Y7343D01*
G01X4586Y7297D02*
G01X4586Y7343D01*
G01X20735Y185D02*
G01X20735Y835D01*
G01X20583Y986D02*
G01X21468Y1871D01*
G01X21653Y1816D02*
G01X22303Y1816D01*
G01X22343Y1822D02*
G01X22343Y468D01*
G01X22031Y156D02*
G01X20732Y156D01*
G01X20735Y339D02*
G01X22315Y339D01*
G01X20735Y541D02*
G01X22343Y541D01*
G01X20735Y743D02*
G01X22343Y743D01*
G01X20687Y945D02*
G01X22343Y945D01*
G01X20744Y1147D02*
G01X22343Y1147D01*
G01X20946Y1349D02*
G01X22343Y1349D01*
G01X21148Y1551D02*
G01X22343Y1551D01*
G01X21350Y1753D02*
G01X22343Y1753D01*
G01X22160Y184D02*
G01X22160Y1816D01*
G01X21958Y156D02*
G01X21958Y1816D01*
G01X21756Y156D02*
G01X21756Y1816D01*
G01X21554Y156D02*
G01X21554Y1853D01*
G01X21352Y156D02*
G01X21352Y1755D01*
G01X21150Y156D02*
G01X21150Y1553D01*
G01X20948Y156D02*
G01X20948Y1351D01*
G01X20746Y156D02*
G01X20746Y1149D01*
G01X7079Y1816D02*
G01X5974Y711D01*
G01X5974Y711D02*
G01X5735Y711D01*
G01X5735Y711D02*
G01X5735Y835D01*
G01X5583Y986D02*
G01X5505Y986D01*
G01X5558Y1024D02*
G01X6501Y1967D01*
G01X6653Y1816D02*
G01X7079Y1816D01*
G01X5735Y743D02*
G01X6005Y743D01*
G01X5687Y945D02*
G01X6207Y945D01*
G01X5681Y1147D02*
G01X6409Y1147D01*
G01X5883Y1349D02*
G01X6611Y1349D01*
G01X6085Y1551D02*
G01X6813Y1551D01*
G01X6287Y1753D02*
G01X7015Y1753D01*
G01X6489Y1955D02*
G01X6502Y1955D01*
G01X7010Y1748D02*
G01X7010Y1816D01*
G01X6808Y1546D02*
G01X6808Y1816D01*
G01X6606Y1344D02*
G01X6606Y1824D01*
G01X6404Y1142D02*
G01X6404Y1870D01*
G01X6202Y940D02*
G01X6202Y1668D01*
G01X6000Y738D02*
G01X6000Y1466D01*
G01X5798Y711D02*
G01X5798Y1264D01*
G01X5596Y985D02*
G01X5596Y1062D01*
G01X4231Y1368D02*
G01X4075Y1368D01*
G01X4182Y1368D02*
G01X4182Y1427D01*
G01X3424Y1368D02*
G01X3268Y1368D01*
G01X3374Y1368D02*
G01X3374Y1417D01*
G01X5452Y1842D02*
G01X5452Y2047D01*
G01X5452Y2047D02*
G01X5657Y2047D01*
G01X6214Y3178D02*
G01X7120Y4085D01*
G01X7180Y4228D02*
G01X7180Y4814D01*
G01X7227Y4840D02*
G01X7227Y2769D01*
G01X7227Y2769D02*
G01X6653Y2769D01*
G01X6501Y2618D02*
G01X6501Y2490D01*
G01X6400Y2435D02*
G01X5333Y1368D01*
G01X5333Y1368D02*
G01X5268Y1368D01*
G01X5389Y1551D02*
G01X5515Y1551D01*
G01X5446Y1753D02*
G01X5717Y1753D01*
G01X5452Y1955D02*
G01X5919Y1955D01*
G01X6034Y2157D02*
G01X6121Y2157D01*
G01X6241Y2359D02*
G01X6323Y2359D01*
G01X6334Y2561D02*
G01X6501Y2561D01*
G01X6360Y2763D02*
G01X6609Y2763D01*
G01X6326Y2965D02*
G01X7227Y2965D01*
G01X6222Y3167D02*
G01X7227Y3167D01*
G01X6404Y3369D02*
G01X7227Y3369D01*
G01X6606Y3571D02*
G01X7227Y3571D01*
G01X6808Y3773D02*
G01X7227Y3773D01*
G01X7010Y3975D02*
G01X7227Y3975D01*
G01X7173Y4177D02*
G01X7227Y4177D01*
G01X7180Y4379D02*
G01X7227Y4379D01*
G01X7180Y4581D02*
G01X7227Y4581D01*
G01X7180Y4783D02*
G01X7227Y4783D01*
G01X7212Y2769D02*
G01X7212Y4831D01*
G01X7010Y2769D02*
G01X7010Y3975D01*
G01X6808Y2769D02*
G01X6808Y3773D01*
G01X6606Y2762D02*
G01X6606Y3571D01*
G01X6404Y2440D02*
G01X6404Y3369D01*
G01X6202Y2238D02*
G01X6202Y2306D01*
G01X6000Y2036D02*
G01X6000Y2136D01*
G01X5798Y1834D02*
G01X5798Y2061D01*
G01X5596Y1632D02*
G01X5596Y2047D01*
G01X5394Y1430D02*
G01X5394Y1563D01*
G01X2069Y1667D02*
G01X1667Y2069D01*
G01X1842Y2047D02*
G01X2047Y2047D01*
G01X2047Y2047D02*
G01X2047Y1842D01*
G01X1983Y1753D02*
G01X2053Y1753D01*
G01X1781Y1955D02*
G01X2047Y1955D01*
G01X1960Y1775D02*
G01X1960Y2047D01*
G01X1758Y1977D02*
G01X1758Y2052D01*
G01X4047Y2157D02*
G01X4047Y2153D01*
G01X3870Y2236D02*
G01X4140Y2507D01*
G01X4042Y2157D02*
G01X4047Y2157D01*
G01X3992Y2359D02*
G01X4076Y2359D01*
G01X3980Y2195D02*
G01X3980Y2347D01*
G01X19047Y2157D02*
G01X19047Y2153D01*
G01X18870Y2236D02*
G01X19140Y2507D01*
G01X19042Y2157D02*
G01X19047Y2157D01*
G01X18992Y2359D02*
G01X19076Y2359D01*
G01X19130Y2489D02*
G01X19130Y2497D01*
G01X18928Y2218D02*
G01X18928Y2295D01*
G01X11547Y2157D02*
G01X11547Y2153D01*
G01X11370Y2236D02*
G01X11640Y2507D01*
G01X11542Y2157D02*
G01X11547Y2157D01*
G01X11492Y2359D02*
G01X11576Y2359D01*
G01X11454Y2207D02*
G01X11454Y2321D01*
G01X3869Y2806D02*
G01X3422Y2359D01*
G01X2157Y3452D02*
G01X2153Y3452D01*
G01X2153Y4047D02*
G01X2157Y4047D01*
G01X3452Y5342D02*
G01X3452Y5346D01*
G01X4047Y5346D02*
G01X4047Y5342D01*
G01X5088Y4095D02*
G01X5088Y4024D01*
G01X5088Y4024D02*
G01X4693Y3630D01*
G01X3325Y2561D02*
G01X3624Y2561D01*
G01X3106Y2763D02*
G01X3826Y2763D01*
G01X2826Y2965D02*
G01X3211Y2965D01*
G01X2722Y3167D02*
G01X2997Y3167D01*
G01X2489Y3369D02*
G01X2878Y3369D01*
G01X2218Y3571D02*
G01X2815Y3571D01*
G01X2250Y3773D02*
G01X2798Y3773D01*
G01X4701Y3773D02*
G01X4836Y3773D01*
G01X2198Y3975D02*
G01X2825Y3975D01*
G01X4674Y3975D02*
G01X5038Y3975D01*
G01X2564Y4177D02*
G01X2899Y4177D01*
G01X4600Y4177D02*
G01X4935Y4177D01*
G01X2754Y4379D02*
G01X3036Y4379D01*
G01X4463Y4379D02*
G01X4745Y4379D01*
G01X2839Y4581D02*
G01X3286Y4581D01*
G01X4213Y4581D02*
G01X4660Y4581D01*
G01X3175Y4783D02*
G01X4324Y4783D01*
G01X3355Y4985D02*
G01X4144Y4985D01*
G01X3435Y5187D02*
G01X4064Y5187D01*
G01X4990Y3927D02*
G01X4990Y4141D01*
G01X4788Y3725D02*
G01X4788Y4317D01*
G01X4586Y4202D02*
G01X4586Y4659D01*
G01X4384Y4458D02*
G01X4384Y4742D01*
G01X4182Y4597D02*
G01X4182Y4927D01*
G01X3980Y4673D02*
G01X3980Y5304D01*
G01X3778Y2715D02*
G01X3778Y2798D01*
G01X3778Y4701D02*
G01X3778Y5249D01*
G01X3576Y2513D02*
G01X3576Y2814D01*
G01X3576Y4685D02*
G01X3576Y5279D01*
G01X3374Y2479D02*
G01X3374Y2875D01*
G01X3374Y4624D02*
G01X3374Y5020D01*
G01X3172Y2718D02*
G01X3172Y2993D01*
G01X3172Y4506D02*
G01X3172Y4781D01*
G01X2970Y2824D02*
G01X2970Y3203D01*
G01X2970Y4296D02*
G01X2970Y4675D01*
G01X2768Y3096D02*
G01X2768Y4403D01*
G01X2566Y3321D02*
G01X2566Y4178D01*
G01X2364Y3421D02*
G01X2364Y4078D01*
G01X2162Y3452D02*
G01X2162Y3465D01*
G01X2162Y4034D02*
G01X2162Y4047D01*
G01X18869Y2806D02*
G01X18422Y2359D01*
G01X17157Y3452D02*
G01X17153Y3452D01*
G01X17153Y4047D02*
G01X17157Y4047D01*
G01X18452Y5342D02*
G01X18452Y5346D01*
G01X19047Y5346D02*
G01X19047Y5342D01*
G01X20088Y4095D02*
G01X20088Y4024D01*
G01X20088Y4024D02*
G01X19693Y3630D01*
G01X18325Y2561D02*
G01X18624Y2561D01*
G01X18106Y2763D02*
G01X18826Y2763D01*
G01X17826Y2965D02*
G01X18211Y2965D01*
G01X17722Y3167D02*
G01X17997Y3167D01*
G01X17489Y3369D02*
G01X17878Y3369D01*
G01X17218Y3571D02*
G01X17815Y3571D01*
G01X17250Y3773D02*
G01X17798Y3773D01*
G01X19701Y3773D02*
G01X19836Y3773D01*
G01X17198Y3975D02*
G01X17825Y3975D01*
G01X19674Y3975D02*
G01X20038Y3975D01*
G01X17564Y4177D02*
G01X17899Y4177D01*
G01X19600Y4177D02*
G01X19935Y4177D01*
G01X17754Y4379D02*
G01X18036Y4379D01*
G01X19463Y4379D02*
G01X19745Y4379D01*
G01X17839Y4581D02*
G01X18286Y4581D01*
G01X19213Y4581D02*
G01X19660Y4581D01*
G01X18175Y4783D02*
G01X19324Y4783D01*
G01X18355Y4985D02*
G01X19144Y4985D01*
G01X18435Y5187D02*
G01X19064Y5187D01*
G01X19938Y3875D02*
G01X19938Y4174D01*
G01X19736Y3673D02*
G01X19736Y4393D01*
G01X19534Y4288D02*
G01X19534Y4673D01*
G01X19332Y4502D02*
G01X19332Y4777D01*
G01X19130Y4621D02*
G01X19130Y5010D01*
G01X18928Y4684D02*
G01X18928Y5281D01*
G01X18726Y2663D02*
G01X18726Y2798D01*
G01X18726Y4701D02*
G01X18726Y5249D01*
G01X18524Y2461D02*
G01X18524Y2825D01*
G01X18524Y4674D02*
G01X18524Y5301D01*
G01X18322Y2564D02*
G01X18322Y2899D01*
G01X18322Y4600D02*
G01X18322Y4935D01*
G01X18120Y2754D02*
G01X18120Y3036D01*
G01X18120Y4463D02*
G01X18120Y4745D01*
G01X17918Y2839D02*
G01X17918Y3286D01*
G01X17918Y4213D02*
G01X17918Y4660D01*
G01X17716Y3175D02*
G01X17716Y4324D01*
G01X17514Y3355D02*
G01X17514Y4144D01*
G01X17312Y3435D02*
G01X17312Y4064D01*
G01X9657Y3452D02*
G01X9653Y3452D01*
G01X9653Y4047D02*
G01X9657Y4047D01*
G01X10952Y5342D02*
G01X10952Y5346D01*
G01X11547Y5346D02*
G01X11547Y5342D01*
G01X12588Y4095D02*
G01X12588Y4024D01*
G01X12588Y4024D02*
G01X12193Y3630D01*
G01X11369Y2806D02*
G01X10922Y2359D01*
G01X10825Y2561D02*
G01X11124Y2561D01*
G01X10606Y2763D02*
G01X11326Y2763D01*
G01X10326Y2965D02*
G01X10711Y2965D01*
G01X10222Y3167D02*
G01X10497Y3167D01*
G01X9989Y3369D02*
G01X10378Y3369D01*
G01X9718Y3571D02*
G01X10315Y3571D01*
G01X9750Y3773D02*
G01X10298Y3773D01*
G01X12201Y3773D02*
G01X12336Y3773D01*
G01X9698Y3975D02*
G01X10325Y3975D01*
G01X12174Y3975D02*
G01X12538Y3975D01*
G01X10064Y4177D02*
G01X10399Y4177D01*
G01X12100Y4177D02*
G01X12435Y4177D01*
G01X10254Y4379D02*
G01X10536Y4379D01*
G01X11963Y4379D02*
G01X12245Y4379D01*
G01X10339Y4581D02*
G01X10786Y4581D01*
G01X11713Y4581D02*
G01X12160Y4581D01*
G01X10675Y4783D02*
G01X11824Y4783D01*
G01X10855Y4985D02*
G01X11644Y4985D01*
G01X10935Y5187D02*
G01X11564Y5187D01*
G01X12464Y3901D02*
G01X12464Y4157D01*
G01X12262Y3699D02*
G01X12262Y4352D01*
G01X12060Y4248D02*
G01X12060Y4665D01*
G01X11858Y4481D02*
G01X11858Y4758D01*
G01X11656Y4610D02*
G01X11656Y4965D01*
G01X11454Y4679D02*
G01X11454Y5292D01*
G01X11252Y2689D02*
G01X11252Y2798D01*
G01X11252Y4701D02*
G01X11252Y5248D01*
G01X11050Y2487D02*
G01X11050Y2819D01*
G01X11050Y4680D02*
G01X11050Y5289D01*
G01X10848Y2525D02*
G01X10848Y2887D01*
G01X10848Y4612D02*
G01X10848Y4974D01*
G01X10646Y2737D02*
G01X10646Y3014D01*
G01X10646Y4485D02*
G01X10646Y4762D01*
G01X10444Y2832D02*
G01X10444Y3243D01*
G01X10444Y4256D02*
G01X10444Y4667D01*
G01X10242Y3138D02*
G01X10242Y4361D01*
G01X10040Y3338D02*
G01X10040Y4161D01*
G01X9838Y3428D02*
G01X9838Y4071D01*
G01X1162Y2574D02*
G01X728Y3007D01*
G01X728Y3007D02*
G01X767Y3007D01*
G01X919Y3159D02*
G01X919Y4340D01*
G01X767Y4492D02*
G01X156Y4492D01*
G01X156Y4492D02*
G01X156Y7031D01*
G01X468Y7343D02*
G01X3007Y7343D01*
G01X3007Y7343D02*
G01X3007Y6732D01*
G01X3159Y6580D02*
G01X4340Y6580D01*
G01X4492Y6732D02*
G01X4492Y6894D01*
G01X4492Y6894D02*
G01X5669Y6894D01*
G01X5669Y6894D02*
G01X6856Y5706D01*
G01X6777Y4814D02*
G01X6777Y4311D01*
G01X6777Y4311D02*
G01X6250Y3784D01*
G01X5657Y5452D02*
G01X5452Y5452D01*
G01X5452Y5452D02*
G01X5452Y5657D01*
G01X2047Y5657D02*
G01X2047Y5452D01*
G01X2047Y5452D02*
G01X1842Y5452D01*
G01X973Y2763D02*
G01X1139Y2763D01*
G01X771Y2965D02*
G01X1173Y2965D01*
G01X919Y3167D02*
G01X1277Y3167D01*
G01X919Y3369D02*
G01X1423Y3369D01*
G01X919Y3571D02*
G01X1281Y3571D01*
G01X919Y3773D02*
G01X1249Y3773D01*
G01X919Y3975D02*
G01X1301Y3975D01*
G01X6198Y3975D02*
G01X6440Y3975D01*
G01X919Y4177D02*
G01X1435Y4177D01*
G01X6064Y4177D02*
G01X6642Y4177D01*
G01X914Y4379D02*
G01X1245Y4379D01*
G01X6254Y4379D02*
G01X6777Y4379D01*
G01X156Y4581D02*
G01X1160Y4581D01*
G01X6339Y4581D02*
G01X6777Y4581D01*
G01X156Y4783D02*
G01X1140Y4783D01*
G01X6359Y4783D02*
G01X6777Y4783D01*
G01X156Y4985D02*
G01X1180Y4985D01*
G01X6319Y4985D02*
G01X6579Y4985D01*
G01X156Y5187D02*
G01X1292Y5187D01*
G01X6207Y5187D02*
G01X6505Y5187D01*
G01X156Y5389D02*
G01X1550Y5389D01*
G01X5949Y5389D02*
G01X6523Y5389D01*
G01X156Y5591D02*
G01X2047Y5591D01*
G01X5452Y5591D02*
G01X6649Y5591D01*
G01X156Y5793D02*
G01X2060Y5793D01*
G01X5439Y5793D02*
G01X6770Y5793D01*
G01X156Y5995D02*
G01X2133Y5995D01*
G01X5366Y5995D02*
G01X6568Y5995D01*
G01X156Y6197D02*
G01X2300Y6197D01*
G01X3199Y6197D02*
G01X3523Y6197D01*
G01X3976Y6197D02*
G01X4300Y6197D01*
G01X5199Y6197D02*
G01X6366Y6197D01*
G01X156Y6399D02*
G01X6164Y6399D01*
G01X156Y6601D02*
G01X3083Y6601D01*
G01X4416Y6601D02*
G01X5962Y6601D01*
G01X156Y6803D02*
G01X3007Y6803D01*
G01X4492Y6803D02*
G01X5760Y6803D01*
G01X156Y7005D02*
G01X3007Y7005D01*
G01X210Y7207D02*
G01X3007Y7207D01*
G01X6808Y5691D02*
G01X6808Y5755D01*
G01X6606Y4141D02*
G01X6606Y4947D01*
G01X6606Y5544D02*
G01X6606Y5957D01*
G01X6404Y3939D02*
G01X6404Y6159D01*
G01X6202Y3965D02*
G01X6202Y4306D01*
G01X6202Y5193D02*
G01X6202Y6361D01*
G01X6000Y5363D02*
G01X6000Y6563D01*
G01X5798Y5438D02*
G01X5798Y6765D01*
G01X5596Y5452D02*
G01X5596Y6894D01*
G01X5394Y5936D02*
G01X5394Y6894D01*
G01X5192Y6203D02*
G01X5192Y6894D01*
G01X4990Y6317D02*
G01X4990Y6894D01*
G01X4788Y6359D02*
G01X4788Y6894D01*
G01X4586Y6340D02*
G01X4586Y6894D01*
G01X4384Y6257D02*
G01X4384Y6587D01*
G01X4182Y6072D02*
G01X4182Y6580D01*
G01X3980Y6195D02*
G01X3980Y6580D01*
G01X3778Y6250D02*
G01X3778Y6580D01*
G01X3576Y6220D02*
G01X3576Y6580D01*
G01X3374Y6082D02*
G01X3374Y6580D01*
G01X3172Y6218D02*
G01X3172Y6580D01*
G01X2970Y6324D02*
G01X2970Y7343D01*
G01X2768Y6359D02*
G01X2768Y7343D01*
G01X2566Y6335D02*
G01X2566Y7343D01*
G01X2364Y6245D02*
G01X2364Y7343D01*
G01X2162Y6043D02*
G01X2162Y7343D01*
G01X1960Y5452D02*
G01X1960Y7343D01*
G01X1758Y5447D02*
G01X1758Y7343D01*
G01X1556Y5391D02*
G01X1556Y7343D01*
G01X1354Y3255D02*
G01X1354Y3441D01*
G01X1354Y4058D02*
G01X1354Y4244D01*
G01X1354Y5255D02*
G01X1354Y7343D01*
G01X1152Y2583D02*
G01X1152Y2615D01*
G01X1152Y2884D02*
G01X1152Y4615D01*
G01X1152Y4884D02*
G01X1152Y7343D01*
G01X950Y2785D02*
G01X950Y7343D01*
G01X748Y2987D02*
G01X748Y3007D01*
G01X748Y4492D02*
G01X748Y7343D01*
G01X546Y4492D02*
G01X546Y7343D01*
G01X344Y4492D02*
G01X344Y7317D01*
G01X21527Y2703D02*
G01X21527Y5090D01*
G01X22343Y4939D02*
G01X22343Y4492D01*
G01X22343Y4492D02*
G01X21732Y4492D01*
G01X21580Y4340D02*
G01X21580Y3159D01*
G01X21732Y3007D02*
G01X21792Y3007D01*
G01X21777Y2930D02*
G01X21777Y2769D01*
G01X21777Y2769D02*
G01X21653Y2769D01*
G01X21527Y2763D02*
G01X21609Y2763D01*
G01X21527Y2965D02*
G01X21780Y2965D01*
G01X21527Y3167D02*
G01X21580Y3167D01*
G01X21527Y3369D02*
G01X21580Y3369D01*
G01X21527Y3571D02*
G01X21580Y3571D01*
G01X21527Y3773D02*
G01X21580Y3773D01*
G01X21527Y3975D02*
G01X21580Y3975D01*
G01X21527Y4177D02*
G01X21580Y4177D01*
G01X21527Y4379D02*
G01X21585Y4379D01*
G01X21527Y4581D02*
G01X22343Y4581D01*
G01X21527Y4783D02*
G01X21865Y4783D01*
G01X22091Y4783D02*
G01X22343Y4783D01*
G01X21527Y4985D02*
G01X21579Y4985D01*
G01X22160Y4492D02*
G01X22160Y4805D01*
G01X21958Y4492D02*
G01X21958Y4770D01*
G01X21756Y2769D02*
G01X21756Y3007D01*
G01X21756Y4492D02*
G01X21756Y4824D01*
G01X21554Y2733D02*
G01X21554Y5027D01*
G01X22343Y3007D02*
G01X22343Y2764D01*
G01X22303Y2769D02*
G01X22180Y2769D01*
G01X22180Y2769D02*
G01X22180Y2846D01*
G01X22180Y2846D02*
G01X22238Y2905D01*
G01X22293Y3007D02*
G01X22343Y3007D01*
G01X22280Y2965D02*
G01X22343Y2965D01*
G01X4400Y2766D02*
G01X4733Y3099D01*
G01X4598Y2965D02*
G01X4673Y2965D01*
G01X4586Y2840D02*
G01X4586Y2953D01*
G01X19400Y2766D02*
G01X19733Y3099D01*
G01X19598Y2965D02*
G01X19673Y2965D01*
G01X19534Y2826D02*
G01X19534Y2901D01*
G01X11900Y2766D02*
G01X12233Y3099D01*
G01X12098Y2965D02*
G01X12173Y2965D01*
G01X12060Y2834D02*
G01X12060Y2927D01*
G01X13714Y3178D02*
G01X14620Y4085D01*
G01X14680Y4228D02*
G01X14680Y4814D01*
G01X14727Y4840D02*
G01X14727Y4012D01*
G01X14727Y4012D02*
G01X13838Y3122D01*
G01X13722Y3167D02*
G01X13882Y3167D01*
G01X13904Y3369D02*
G01X14084Y3369D01*
G01X14106Y3571D02*
G01X14286Y3571D01*
G01X14308Y3773D02*
G01X14488Y3773D01*
G01X14510Y3975D02*
G01X14690Y3975D01*
G01X14673Y4177D02*
G01X14727Y4177D01*
G01X14680Y4379D02*
G01X14727Y4379D01*
G01X14680Y4581D02*
G01X14727Y4581D01*
G01X14680Y4783D02*
G01X14727Y4783D01*
G01X14686Y3971D02*
G01X14686Y4817D01*
G01X14484Y3769D02*
G01X14484Y3949D01*
G01X14282Y3567D02*
G01X14282Y3747D01*
G01X14080Y3365D02*
G01X14080Y3545D01*
G01X13878Y3163D02*
G01X13878Y3343D01*
G01X21125Y3417D02*
G01X21125Y3274D01*
G01X21076Y3369D02*
G01X21125Y3369D01*
G01X4992Y3359D02*
G01X5263Y3629D01*
G01X5346Y3452D02*
G01X5342Y3452D01*
G01X5002Y3369D02*
G01X5010Y3369D01*
G01X5204Y3571D02*
G01X5281Y3571D01*
G01X5192Y3436D02*
G01X5192Y3559D01*
G01X19992Y3359D02*
G01X20263Y3629D01*
G01X20346Y3452D02*
G01X20342Y3452D01*
G01X20002Y3369D02*
G01X20010Y3369D01*
G01X20204Y3571D02*
G01X20281Y3571D01*
G01X20342Y3452D02*
G01X20342Y3457D01*
G01X20140Y3423D02*
G01X20140Y3507D01*
G01X12492Y3359D02*
G01X12763Y3629D01*
G01X12846Y3452D02*
G01X12842Y3452D01*
G01X12502Y3369D02*
G01X12510Y3369D01*
G01X12704Y3571D02*
G01X12781Y3571D01*
G01X12666Y3430D02*
G01X12666Y3533D01*
G01X21125Y4225D02*
G01X21125Y4082D01*
G01X21064Y4177D02*
G01X21125Y4177D01*
G01X21468Y5363D02*
G01X19593Y7238D01*
G01X19492Y7293D02*
G01X19492Y7343D01*
G01X19492Y7343D02*
G01X22031Y7343D01*
G01X22343Y7031D02*
G01X22343Y5552D01*
G01X21443Y5389D02*
G01X21523Y5389D01*
G01X21241Y5591D02*
G01X21649Y5591D01*
G01X22306Y5591D02*
G01X22343Y5591D01*
G01X21039Y5793D02*
G01X22343Y5793D01*
G01X20837Y5995D02*
G01X22343Y5995D01*
G01X20635Y6197D02*
G01X22343Y6197D01*
G01X20433Y6399D02*
G01X22343Y6399D01*
G01X20231Y6601D02*
G01X22343Y6601D01*
G01X20029Y6803D02*
G01X22343Y6803D01*
G01X19827Y7005D02*
G01X22343Y7005D01*
G01X19625Y7207D02*
G01X22289Y7207D01*
G01X22160Y5686D02*
G01X22160Y7315D01*
G01X21958Y5722D02*
G01X21958Y7343D01*
G01X21756Y5667D02*
G01X21756Y7343D01*
G01X21554Y5464D02*
G01X21554Y7343D01*
G01X21352Y5479D02*
G01X21352Y7343D01*
G01X21150Y5681D02*
G01X21150Y7343D01*
G01X20948Y5883D02*
G01X20948Y7343D01*
G01X20746Y6085D02*
G01X20746Y7343D01*
G01X20544Y6287D02*
G01X20544Y7343D01*
G01X20342Y6489D02*
G01X20342Y7343D01*
G01X20140Y6691D02*
G01X20140Y7343D01*
G01X19938Y6893D02*
G01X19938Y7343D01*
G01X19736Y7095D02*
G01X19736Y7343D01*
G01X19534Y7279D02*
G01X19534Y7343D01*
G01X20657Y5452D02*
G01X20452Y5452D01*
G01X20452Y5452D02*
G01X20452Y5657D01*
G01X20430Y5832D02*
G01X20832Y5430D01*
G01X20452Y5591D02*
G01X20671Y5591D01*
G01X20439Y5793D02*
G01X20469Y5793D01*
G01X20746Y5446D02*
G01X20746Y5516D01*
G01X20544Y5452D02*
G01X20544Y5718D01*
G01X10253Y8172D02*
G01X10392Y8311D01*
G01X10452Y8454D02*
G01X10452Y8669D01*
G01X12952Y9342D02*
G01X12952Y9547D01*
G01X12952Y9547D02*
G01X13157Y9547D01*
G01X13671Y9770D02*
G01X13671Y8663D01*
G01X13671Y8663D02*
G01X13655Y8647D01*
G01X13655Y8647D02*
G01X12758Y8647D01*
G01X12561Y8486D02*
G01X12433Y8486D01*
G01X12282Y8335D02*
G01X12282Y7685D01*
G01X12285Y7651D02*
G01X10119Y7651D01*
G01X10239Y7813D02*
G01X12282Y7813D01*
G01X10282Y8015D02*
G01X12282Y8015D01*
G01X10298Y8217D02*
G01X12282Y8217D01*
G01X10448Y8419D02*
G01X12307Y8419D01*
G01X10452Y8621D02*
G01X12658Y8621D01*
G01X10723Y8823D02*
G01X10986Y8823D01*
G01X11513Y8823D02*
G01X11776Y8823D01*
G01X12723Y8823D02*
G01X13671Y8823D01*
G01X12876Y9025D02*
G01X13671Y9025D01*
G01X12943Y9227D02*
G01X13671Y9227D01*
G01X12952Y9429D02*
G01X13671Y9429D01*
G01X13490Y9631D02*
G01X13671Y9631D01*
G01X13474Y8647D02*
G01X13474Y9623D01*
G01X13272Y8647D02*
G01X13272Y9556D01*
G01X13070Y8647D02*
G01X13070Y9547D01*
G01X12868Y8647D02*
G01X12868Y9009D01*
G01X12666Y8625D02*
G01X12666Y8776D01*
G01X12464Y8486D02*
G01X12464Y8673D01*
G01X12262Y7651D02*
G01X12262Y8639D01*
G01X12060Y7651D02*
G01X12060Y8665D01*
G01X11858Y7651D02*
G01X11858Y8758D01*
G01X11656Y7651D02*
G01X11656Y8956D01*
G01X11454Y7651D02*
G01X11454Y8792D01*
G01X11252Y7651D02*
G01X11252Y8748D01*
G01X11050Y7651D02*
G01X11050Y8789D01*
G01X10848Y7651D02*
G01X10848Y8949D01*
G01X10646Y7651D02*
G01X10646Y8762D01*
G01X10444Y7651D02*
G01X10444Y8400D01*
G01X10242Y7651D02*
G01X10242Y7819D01*
G01X11547Y9657D02*
G01X11547Y9653D01*
G01X11370Y9736D02*
G01X11640Y10007D01*
G01X11466Y9833D02*
G01X11569Y9833D01*
G01X11454Y9707D02*
G01X11454Y9821D01*
G01X11369Y10306D02*
G01X10922Y9859D01*
G01X9657Y10952D02*
G01X9653Y10952D01*
G01X9653Y11547D02*
G01X9657Y11547D01*
G01X10952Y12842D02*
G01X10952Y12846D01*
G01X11547Y12846D02*
G01X11547Y12842D01*
G01X12588Y11595D02*
G01X12588Y11524D01*
G01X12588Y11524D02*
G01X12193Y11130D01*
G01X10842Y10035D02*
G01X11098Y10035D01*
G01X10647Y10237D02*
G01X11300Y10237D01*
G01X10334Y10439D02*
G01X10751Y10439D01*
G01X10241Y10641D02*
G01X10518Y10641D01*
G01X10034Y10843D02*
G01X10389Y10843D01*
G01X9707Y11045D02*
G01X10320Y11045D01*
G01X9751Y11247D02*
G01X10298Y11247D01*
G01X12201Y11247D02*
G01X12310Y11247D01*
G01X9710Y11449D02*
G01X10319Y11449D01*
G01X12180Y11449D02*
G01X12512Y11449D01*
G01X10025Y11651D02*
G01X10387Y11651D01*
G01X12112Y11651D02*
G01X12474Y11651D01*
G01X10237Y11853D02*
G01X10514Y11853D01*
G01X11985Y11853D02*
G01X12262Y11853D01*
G01X10332Y12055D02*
G01X10743Y12055D01*
G01X11756Y12055D02*
G01X12167Y12055D01*
G01X10638Y12257D02*
G01X11861Y12257D01*
G01X10838Y12459D02*
G01X11661Y12459D01*
G01X10928Y12661D02*
G01X11571Y12661D01*
G01X12464Y11401D02*
G01X12464Y11657D01*
G01X12262Y11199D02*
G01X12262Y11852D01*
G01X12060Y11748D02*
G01X12060Y12165D01*
G01X11858Y11981D02*
G01X11858Y12258D01*
G01X11656Y12110D02*
G01X11656Y12465D01*
G01X11454Y12179D02*
G01X11454Y12792D01*
G01X11252Y10189D02*
G01X11252Y10298D01*
G01X11252Y12201D02*
G01X11252Y12748D01*
G01X11050Y9987D02*
G01X11050Y10319D01*
G01X11050Y12180D02*
G01X11050Y12789D01*
G01X10848Y10025D02*
G01X10848Y10387D01*
G01X10848Y12112D02*
G01X10848Y12474D01*
G01X10646Y10237D02*
G01X10646Y10514D01*
G01X10646Y11985D02*
G01X10646Y12262D01*
G01X10444Y10332D02*
G01X10444Y10743D01*
G01X10444Y11756D02*
G01X10444Y12167D01*
G01X10242Y10638D02*
G01X10242Y11861D01*
G01X10040Y10838D02*
G01X10040Y11661D01*
G01X9838Y10928D02*
G01X9838Y11571D01*
G01X14073Y10247D02*
G01X14073Y12494D01*
G01X14843Y12439D02*
G01X14843Y11992D01*
G01X14843Y11992D02*
G01X14232Y11992D01*
G01X14080Y11840D02*
G01X14080Y10659D01*
G01X14232Y10507D02*
G01X14292Y10507D01*
G01X14277Y10430D02*
G01X14277Y10269D01*
G01X14277Y10269D02*
G01X14153Y10269D01*
G01X14073Y10439D02*
G01X14277Y10439D01*
G01X14073Y10641D02*
G01X14081Y10641D01*
G01X14073Y10843D02*
G01X14080Y10843D01*
G01X14073Y11045D02*
G01X14080Y11045D01*
G01X14073Y11247D02*
G01X14080Y11247D01*
G01X14073Y11449D02*
G01X14080Y11449D01*
G01X14073Y11651D02*
G01X14080Y11651D01*
G01X14073Y11853D02*
G01X14081Y11853D01*
G01X14073Y12055D02*
G01X14843Y12055D01*
G01X14073Y12257D02*
G01X14843Y12257D01*
G01X14073Y12459D02*
G01X14097Y12459D01*
G01X14686Y11992D02*
G01X14686Y12317D01*
G01X14484Y11992D02*
G01X14484Y12269D01*
G01X14282Y10478D02*
G01X14282Y10507D01*
G01X14282Y11992D02*
G01X14282Y12311D01*
G01X14080Y10251D02*
G01X14080Y12483D01*
G01X14843Y10507D02*
G01X14843Y10264D01*
G01X14803Y10269D02*
G01X14680Y10269D01*
G01X14680Y10269D02*
G01X14680Y10346D01*
G01X14680Y10346D02*
G01X14738Y10405D01*
G01X14793Y10507D02*
G01X14843Y10507D01*
G01X14765Y10439D02*
G01X14843Y10439D01*
G01X14686Y10269D02*
G01X14686Y10353D01*
G01X11900Y10266D02*
G01X12233Y10599D01*
G01X12072Y10439D02*
G01X12165Y10439D01*
G01X12060Y10334D02*
G01X12060Y10427D01*
G01X13671Y10977D02*
G01X13671Y10729D01*
G01X13543Y10843D02*
G01X13671Y10843D01*
G01X12492Y10859D02*
G01X12763Y11129D01*
G01X12846Y10952D02*
G01X12842Y10952D01*
G01X12678Y11045D02*
G01X12792Y11045D01*
G01X12666Y10930D02*
G01X12666Y11033D01*
G01X13671Y11770D02*
G01X13671Y11522D01*
G01X13550Y11651D02*
G01X13671Y11651D01*
G01X14008Y12824D02*
G01X12093Y14738D01*
G01X11992Y14793D02*
G01X11992Y14843D01*
G01X11992Y14843D02*
G01X14531Y14843D01*
G01X14843Y14531D02*
G01X14843Y13052D01*
G01X13969Y12863D02*
G01X14016Y12863D01*
G01X13767Y13065D02*
G01X14124Y13065D01*
G01X14832Y13065D02*
G01X14843Y13065D01*
G01X13565Y13267D02*
G01X14843Y13267D01*
G01X13363Y13469D02*
G01X14843Y13469D01*
G01X13161Y13671D02*
G01X14843Y13671D01*
G01X12959Y13873D02*
G01X14843Y13873D01*
G01X12757Y14075D02*
G01X14843Y14075D01*
G01X12555Y14277D02*
G01X14843Y14277D01*
G01X12353Y14479D02*
G01X14843Y14479D01*
G01X12151Y14681D02*
G01X14805Y14681D01*
G01X14686Y13174D02*
G01X14686Y14802D01*
G01X14484Y13222D02*
G01X14484Y14843D01*
G01X14282Y13180D02*
G01X14282Y14843D01*
G01X14080Y13008D02*
G01X14080Y14843D01*
G01X13878Y12953D02*
G01X13878Y14843D01*
G01X13676Y13155D02*
G01X13676Y14843D01*
G01X13474Y13357D02*
G01X13474Y14843D01*
G01X13272Y13559D02*
G01X13272Y14843D01*
G01X13070Y13761D02*
G01X13070Y14843D01*
G01X12868Y13963D02*
G01X12868Y14843D01*
G01X12666Y14165D02*
G01X12666Y14843D01*
G01X12464Y14367D02*
G01X12464Y14843D01*
G01X12262Y14569D02*
G01X12262Y14843D01*
G01X12060Y14765D02*
G01X12060Y14843D01*
G01X13157Y12952D02*
G01X12952Y12952D01*
G01X12952Y12952D02*
G01X12952Y13157D01*
G01X12930Y13332D02*
G01X13332Y12930D01*
G01X12952Y13065D02*
G01X13197Y13065D01*
G01X12944Y13267D02*
G01X12995Y13267D01*
G01X13272Y12943D02*
G01X13272Y12990D01*
G01X13070Y12952D02*
G01X13070Y13192D01*

%LPD*%
G36*
G01X12455Y7386D02*
G01X12441Y7387D01*
G01X12421Y7385D01*
G01X12403Y7381D01*
G01X12386Y7375D01*
G01X12371Y7366D01*
G01X12356Y7354D01*
G01X12344Y7341D01*
G01X12333Y7326D01*
G01X12325Y7309D01*
G01X12318Y7289D01*
G01X12313Y7269D01*
G01X12310Y7248D01*
G01X12309Y7227D01*
G01X12310Y7203D01*
G01X12313Y7181D01*
G01X12318Y7160D01*
G01X12326Y7141D01*
G01X12335Y7122D01*
G01X12347Y7106D01*
G01X12360Y7093D01*
G01X12376Y7082D01*
G01X12392Y7073D01*
G01X12409Y7067D01*
G01X12427Y7063D01*
G01X12445Y7062D01*
G01X12457Y7062D01*
G01X12469Y7064D01*
G01X12481Y7068D01*
G01X12492Y7073D01*
G01X12502Y7078D01*
G01X12511Y7085D01*
G01X12519Y7092D01*
G01X12526Y7101D01*
G01X12526Y6950D01*
G01X12579Y6950D01*
G01X12579Y7380D01*
G01X12531Y7380D01*
G01X12531Y7339D01*
G01X12522Y7350D01*
G01X12513Y7360D01*
G01X12503Y7368D01*
G01X12493Y7375D01*
G01X12481Y7380D01*
G01X12469Y7384D01*
G01X12455Y7386D01*
G37*

%LPC*%
G36*
G01X12462Y7344D02*
G01X12446Y7346D01*
G01X12429Y7344D01*
G01X12414Y7338D01*
G01X12400Y7329D01*
G01X12387Y7316D01*
G01X12376Y7299D01*
G01X12369Y7278D01*
G01X12364Y7254D01*
G01X12363Y7227D01*
G01X12369Y7173D01*
G01X12388Y7135D01*
G01X12401Y7121D01*
G01X12415Y7112D01*
G01X12431Y7106D01*
G01X12448Y7105D01*
G01X12464Y7106D01*
G01X12480Y7112D01*
G01X12494Y7121D01*
G01X12507Y7134D01*
G01X12517Y7150D01*
G01X12525Y7170D01*
G01X12529Y7194D01*
G01X12531Y7223D01*
G01X12529Y7251D01*
G01X12524Y7275D01*
G01X12517Y7296D01*
G01X12506Y7314D01*
G01X12492Y7328D01*
G01X12478Y7338D01*
G01X12462Y7344D01*
G37*

%LPD*%
G36*
G01X12810Y7498D02*
G01X12788Y7500D01*
G01X12771Y7499D01*
G01X12755Y7496D01*
G01X12740Y7492D01*
G01X12727Y7486D01*
G01X12714Y7478D01*
G01X12703Y7469D01*
G01X12693Y7458D01*
G01X12684Y7446D01*
G01X12676Y7432D01*
G01X12668Y7417D01*
G01X12662Y7400D01*
G01X12657Y7382D01*
G01X12649Y7337D01*
G01X12647Y7281D01*
G01X12651Y7212D01*
G01X12663Y7159D01*
G01X12672Y7136D01*
G01X12682Y7117D01*
G01X12695Y7100D01*
G01X12709Y7087D01*
G01X12725Y7075D01*
G01X12744Y7067D01*
G01X12765Y7062D01*
G01X12788Y7061D01*
G01X12843Y7072D01*
G01X12885Y7106D01*
G01X12903Y7137D01*
G01X12917Y7176D01*
G01X12925Y7224D01*
G01X12928Y7281D01*
G01X12924Y7349D01*
G01X12912Y7403D01*
G01X12903Y7425D01*
G01X12892Y7444D01*
G01X12879Y7461D01*
G01X12865Y7475D01*
G01X12848Y7485D01*
G01X12830Y7493D01*
G01X12810Y7498D01*
G37*

%LPC*%
G36*
G01X12805Y7454D02*
G01X12788Y7456D01*
G01X12770Y7453D01*
G01X12754Y7447D01*
G01X12739Y7436D01*
G01X12726Y7421D01*
G01X12708Y7369D01*
G01X12702Y7281D01*
G01X12708Y7192D01*
G01X12726Y7140D01*
G01X12739Y7124D01*
G01X12754Y7113D01*
G01X12770Y7107D01*
G01X12788Y7105D01*
G01X12805Y7107D01*
G01X12821Y7113D01*
G01X12835Y7124D01*
G01X12849Y7140D01*
G01X12867Y7192D01*
G01X12873Y7281D01*
G01X12871Y7329D01*
G01X12866Y7369D01*
G01X12857Y7401D01*
G01X12846Y7426D01*
G01X12834Y7439D01*
G01X12820Y7448D01*
G01X12805Y7454D01*
G37*

%LPD*%
G36*
G01X9645Y7498D02*
G01X9592Y7498D01*
G01X9592Y7345D01*
G01X9553Y7376D01*
G01X9507Y7387D01*
G01X9492Y7386D01*
G01X9478Y7384D01*
G01X9465Y7380D01*
G01X9452Y7375D01*
G01X9440Y7368D01*
G01X9429Y7361D01*
G01X9419Y7352D01*
G01X9410Y7343D01*
G01X9402Y7331D01*
G01X9395Y7319D01*
G01X9389Y7306D01*
G01X9384Y7292D01*
G01X9380Y7277D01*
G01X9377Y7261D01*
G01X9375Y7245D01*
G01X9375Y7229D01*
G01X9384Y7158D01*
G01X9414Y7105D01*
G01X9457Y7072D01*
G01X9509Y7062D01*
G01X9558Y7073D01*
G01X9596Y7108D01*
G01X9596Y7069D01*
G01X9645Y7069D01*
G01X9645Y7498D01*
G37*

%LPC*%
G36*
G01X9528Y7342D02*
G01X9511Y7344D01*
G01X9494Y7342D01*
G01X9479Y7336D01*
G01X9465Y7327D01*
G01X9453Y7315D01*
G01X9442Y7298D01*
G01X9435Y7278D01*
G01X9430Y7253D01*
G01X9429Y7225D01*
G01X9430Y7196D01*
G01X9435Y7172D01*
G01X9443Y7151D01*
G01X9454Y7135D01*
G01X9467Y7121D01*
G01X9481Y7112D01*
G01X9497Y7106D01*
G01X9514Y7105D01*
G01X9534Y7107D01*
G01X9551Y7115D01*
G01X9567Y7128D01*
G01X9581Y7146D01*
G01X9587Y7160D01*
G01X9592Y7178D01*
G01X9595Y7200D01*
G01X9596Y7227D01*
G01X9594Y7253D01*
G01X9589Y7276D01*
G01X9582Y7296D01*
G01X9571Y7314D01*
G01X9558Y7327D01*
G01X9543Y7336D01*
G01X9528Y7342D01*
G37*

%LPD*%
G36*
G01X9780Y7380D02*
G01X9727Y7380D01*
G01X9727Y7069D01*
G01X9774Y7069D01*
G01X9774Y7114D01*
G01X9816Y7075D01*
G01X9873Y7062D01*
G01X9886Y7062D01*
G01X9899Y7064D01*
G01X9911Y7067D01*
G01X9924Y7072D01*
G01X9935Y7077D01*
G01X9945Y7084D01*
G01X9953Y7091D01*
G01X9960Y7099D01*
G01X9965Y7107D01*
G01X9969Y7116D01*
G01X9973Y7126D01*
G01X9976Y7138D01*
G01X9977Y7146D01*
G01X9978Y7157D01*
G01X9978Y7171D01*
G01X9979Y7187D01*
G01X9979Y7380D01*
G01X9926Y7380D01*
G01X9926Y7207D01*
G01X9925Y7188D01*
G01X9925Y7172D01*
G01X9924Y7160D01*
G01X9923Y7152D01*
G01X9919Y7142D01*
G01X9915Y7133D01*
G01X9909Y7125D01*
G01X9902Y7119D01*
G01X9893Y7113D01*
G01X9884Y7110D01*
G01X9873Y7107D01*
G01X9850Y7107D01*
G01X9828Y7113D01*
G01X9808Y7125D01*
G01X9800Y7133D01*
G01X9793Y7142D01*
G01X9788Y7152D01*
G01X9784Y7163D01*
G01X9782Y7177D01*
G01X9780Y7194D01*
G01X9780Y7380D01*
G37*

%LPD*%
G36*
G01X10305Y7385D02*
G01X10286Y7387D01*
G01X10261Y7385D01*
G01X10239Y7380D01*
G01X10220Y7372D01*
G01X10203Y7361D01*
G01X10188Y7347D01*
G01X10176Y7330D01*
G01X10167Y7310D01*
G01X10161Y7288D01*
G01X10213Y7281D01*
G01X10217Y7295D01*
G01X10223Y7308D01*
G01X10230Y7319D01*
G01X10239Y7328D01*
G01X10248Y7335D01*
G01X10259Y7340D01*
G01X10271Y7343D01*
G01X10284Y7344D01*
G01X10302Y7342D01*
G01X10319Y7336D01*
G01X10334Y7327D01*
G01X10348Y7315D01*
G01X10359Y7298D01*
G01X10366Y7278D01*
G01X10371Y7253D01*
G01X10373Y7225D01*
G01X10367Y7170D01*
G01X10349Y7133D01*
G01X10336Y7120D01*
G01X10321Y7112D01*
G01X10304Y7106D01*
G01X10286Y7105D01*
G01X10271Y7106D01*
G01X10257Y7109D01*
G01X10245Y7115D01*
G01X10235Y7124D01*
G01X10225Y7134D01*
G01X10217Y7148D01*
G01X10212Y7164D01*
G01X10208Y7183D01*
G01X10156Y7176D01*
G01X10171Y7128D01*
G01X10200Y7092D01*
G01X10218Y7078D01*
G01X10239Y7069D01*
G01X10261Y7063D01*
G01X10286Y7062D01*
G01X10343Y7072D01*
G01X10389Y7103D01*
G01X10417Y7154D01*
G01X10427Y7223D01*
G01X10426Y7247D01*
G01X10423Y7270D01*
G01X10418Y7291D01*
G01X10411Y7311D01*
G01X10401Y7328D01*
G01X10389Y7344D01*
G01X10376Y7357D01*
G01X10360Y7368D01*
G01X10342Y7376D01*
G01X10324Y7382D01*
G01X10305Y7385D01*
G37*

%LPD*%
G36*
G01X11342Y7376D02*
G01X11284Y7387D01*
G01X11227Y7376D01*
G01X11182Y7344D01*
G01X11152Y7293D01*
G01X11143Y7225D01*
G01X11143Y7211D01*
G01X11375Y7211D01*
G01X11372Y7186D01*
G01X11366Y7165D01*
G01X11357Y7147D01*
G01X11346Y7132D01*
G01X11332Y7120D01*
G01X11316Y7111D01*
G01X11299Y7106D01*
G01X11281Y7105D01*
G01X11267Y7105D01*
G01X11254Y7108D01*
G01X11242Y7113D01*
G01X11232Y7120D01*
G01X11222Y7129D01*
G01X11213Y7140D01*
G01X11205Y7153D01*
G01X11199Y7169D01*
G01X11145Y7162D01*
G01X11152Y7139D01*
G01X11162Y7119D01*
G01X11176Y7102D01*
G01X11192Y7088D01*
G01X11210Y7076D01*
G01X11231Y7068D01*
G01X11255Y7063D01*
G01X11281Y7062D01*
G01X11342Y7072D01*
G01X11390Y7104D01*
G01X11420Y7154D01*
G01X11430Y7222D01*
G01X11419Y7291D01*
G01X11389Y7344D01*
G01X11342Y7376D01*
G37*

%LPC*%
G36*
G01X11301Y7342D02*
G01X11284Y7344D01*
G01X11265Y7342D01*
G01X11247Y7336D01*
G01X11232Y7326D01*
G01X11218Y7313D01*
G01X11210Y7301D01*
G01X11205Y7288D01*
G01X11200Y7272D01*
G01X11198Y7254D01*
G01X11372Y7254D01*
G01X11369Y7273D01*
G01X11364Y7290D01*
G01X11356Y7305D01*
G01X11345Y7319D01*
G01X11331Y7329D01*
G01X11317Y7337D01*
G01X11301Y7342D01*
G37*

%LPD*%
G36*
G01X11605Y7385D02*
G01X11586Y7387D01*
G01X11562Y7385D01*
G01X11540Y7380D01*
G01X11520Y7372D01*
G01X11503Y7361D01*
G01X11488Y7347D01*
G01X11476Y7330D01*
G01X11468Y7310D01*
G01X11462Y7288D01*
G01X11513Y7281D01*
G01X11517Y7295D01*
G01X11523Y7308D01*
G01X11530Y7319D01*
G01X11539Y7328D01*
G01X11549Y7335D01*
G01X11559Y7340D01*
G01X11571Y7343D01*
G01X11584Y7344D01*
G01X11603Y7342D01*
G01X11620Y7336D01*
G01X11635Y7327D01*
G01X11649Y7315D01*
G01X11660Y7298D01*
G01X11667Y7278D01*
G01X11672Y7253D01*
G01X11674Y7225D01*
G01X11668Y7170D01*
G01X11650Y7133D01*
G01X11637Y7120D01*
G01X11622Y7112D01*
G01X11605Y7106D01*
G01X11587Y7105D01*
G01X11572Y7106D01*
G01X11558Y7109D01*
G01X11546Y7115D01*
G01X11535Y7124D01*
G01X11526Y7134D01*
G01X11518Y7148D01*
G01X11513Y7164D01*
G01X11509Y7183D01*
G01X11457Y7176D01*
G01X11472Y7128D01*
G01X11501Y7092D01*
G01X11519Y7078D01*
G01X11540Y7069D01*
G01X11562Y7063D01*
G01X11587Y7062D01*
G01X11644Y7072D01*
G01X11689Y7103D01*
G01X11718Y7154D01*
G01X11728Y7223D01*
G01X11727Y7247D01*
G01X11723Y7270D01*
G01X11718Y7291D01*
G01X11711Y7311D01*
G01X11702Y7328D01*
G01X11690Y7344D01*
G01X11677Y7357D01*
G01X11661Y7368D01*
G01X11643Y7376D01*
G01X11624Y7382D01*
G01X11605Y7385D01*
G37*

%LPD*%
G36*
G01X12176Y7376D02*
G01X12118Y7387D01*
G01X12061Y7376D01*
G01X12016Y7344D01*
G01X11986Y7293D01*
G01X11976Y7225D01*
G01X11976Y7215D01*
G01X11977Y7211D01*
G01X12209Y7211D01*
G01X12206Y7186D01*
G01X12200Y7165D01*
G01X12191Y7147D01*
G01X12180Y7132D01*
G01X12166Y7120D01*
G01X12150Y7111D01*
G01X12133Y7106D01*
G01X12115Y7105D01*
G01X12101Y7105D01*
G01X12088Y7108D01*
G01X12076Y7113D01*
G01X12065Y7120D01*
G01X12055Y7129D01*
G01X12047Y7140D01*
G01X12039Y7153D01*
G01X12033Y7169D01*
G01X11978Y7162D01*
G01X11986Y7139D01*
G01X11996Y7119D01*
G01X12010Y7102D01*
G01X12026Y7088D01*
G01X12044Y7076D01*
G01X12065Y7068D01*
G01X12089Y7063D01*
G01X12115Y7062D01*
G01X12176Y7072D01*
G01X12223Y7104D01*
G01X12253Y7154D01*
G01X12263Y7222D01*
G01X12253Y7291D01*
G01X12223Y7344D01*
G01X12176Y7376D01*
G37*

%LPC*%
G36*
G01X12134Y7342D02*
G01X12117Y7344D01*
G01X12098Y7342D01*
G01X12080Y7336D01*
G01X12065Y7326D01*
G01X12052Y7313D01*
G01X12044Y7301D01*
G01X12038Y7288D01*
G01X12034Y7272D01*
G01X12032Y7254D01*
G01X12206Y7254D01*
G01X12203Y7273D01*
G01X12197Y7290D01*
G01X12189Y7305D01*
G01X12178Y7319D01*
G01X12165Y7329D01*
G01X12150Y7337D01*
G01X12134Y7342D01*
G37*

%LPD*%
G36*
G01X10735Y7457D02*
G01X10683Y7489D01*
G01X10683Y7380D01*
G01X10630Y7380D01*
G01X10630Y7339D01*
G01X10683Y7339D01*
G01X10683Y7157D01*
G01X10682Y7146D01*
G01X10682Y7138D01*
G01X10681Y7132D01*
G01X10680Y7128D01*
G01X10678Y7124D01*
G01X10673Y7119D01*
G01X10667Y7116D01*
G01X10663Y7115D01*
G01X10658Y7114D01*
G01X10642Y7114D01*
G01X10630Y7116D01*
G01X10622Y7069D01*
G01X10632Y7067D01*
G01X10643Y7066D01*
G01X10652Y7065D01*
G01X10675Y7065D01*
G01X10687Y7067D01*
G01X10697Y7070D01*
G01X10706Y7074D01*
G01X10713Y7078D01*
G01X10725Y7090D01*
G01X10729Y7098D01*
G01X10731Y7107D01*
G01X10733Y7120D01*
G01X10734Y7138D01*
G01X10735Y7160D01*
G01X10735Y7339D01*
G01X10774Y7339D01*
G01X10774Y7380D01*
G01X10735Y7380D01*
G01X10735Y7457D01*
G37*

%LPD*%
G36*
G01X10112Y7498D02*
G01X10060Y7498D01*
G01X10060Y7069D01*
G01X10112Y7069D01*
G01X10112Y7498D01*
G37*

%LPD*%
G36*
G01X10563Y7129D02*
G01X10503Y7129D01*
G01X10503Y7069D01*
G01X10563Y7069D01*
G01X10563Y7129D01*
G37*

%LPD*%
G36*
G01X10989Y7374D02*
G01X10932Y7387D01*
G01X10918Y7386D01*
G01X10905Y7384D01*
G01X10892Y7381D01*
G01X10880Y7377D01*
G01X10869Y7371D01*
G01X10859Y7365D01*
G01X10851Y7358D01*
G01X10845Y7350D01*
G01X10839Y7341D01*
G01X10834Y7332D01*
G01X10831Y7322D01*
G01X10828Y7311D01*
G01X10827Y7302D01*
G01X10826Y7291D01*
G01X10826Y7069D01*
G01X10878Y7069D01*
G01X10878Y7273D01*
G01X10879Y7286D01*
G01X10881Y7297D01*
G01X10884Y7306D01*
G01X10888Y7313D01*
G01X10893Y7320D01*
G01X10899Y7326D01*
G01X10906Y7332D01*
G01X10914Y7335D01*
G01X10923Y7338D01*
G01X10932Y7340D01*
G01X10943Y7341D01*
G01X10959Y7339D01*
G01X10974Y7335D01*
G01X10988Y7329D01*
G01X11001Y7320D01*
G01X11012Y7306D01*
G01X11019Y7288D01*
G01X11024Y7266D01*
G01X11026Y7239D01*
G01X11026Y7069D01*
G01X11078Y7069D01*
G01X11078Y7380D01*
G01X11031Y7380D01*
G01X11031Y7336D01*
G01X10989Y7374D01*
G37*

%LPD*%
G36*
G01X11806Y7386D02*
G01X11798Y7387D01*
G01X11784Y7385D01*
G01X11770Y7382D01*
G01X11757Y7377D01*
G01X11743Y7370D01*
G01X11762Y7321D01*
G01X11771Y7325D01*
G01X11781Y7329D01*
G01X11790Y7331D01*
G01X11800Y7332D01*
G01X11808Y7331D01*
G01X11816Y7329D01*
G01X11824Y7326D01*
G01X11831Y7322D01*
G01X11837Y7316D01*
G01X11843Y7309D01*
G01X11851Y7293D01*
G01X11855Y7278D01*
G01X11859Y7248D01*
G01X11860Y7232D01*
G01X11860Y7069D01*
G01X11912Y7069D01*
G01X11912Y7380D01*
G01X11865Y7380D01*
G01X11865Y7333D01*
G01X11856Y7348D01*
G01X11847Y7360D01*
G01X11839Y7369D01*
G01X11831Y7376D01*
G01X11815Y7384D01*
G01X11806Y7386D01*
G37*

%LPD*%
G36*
G01X13083Y7498D02*
G01X13039Y7498D01*
G01X13039Y7220D01*
G01X12981Y7220D01*
G01X12981Y7172D01*
G01X13039Y7172D01*
G01X13039Y7069D01*
G01X13092Y7069D01*
G01X13092Y7172D01*
G01X13279Y7172D01*
G01X13279Y7220D01*
G01X13083Y7498D01*
G37*

%LPC*%
G36*
G01X13227Y7220D02*
G01X13092Y7414D01*
G01X13092Y7220D01*
G01X13227Y7220D01*
G37*

%LPD*%
G75*
G01X469Y157D02*
G02X156Y469I0J312D01*
G01*
G75*
G01X206Y3008D02*
G03X261Y2906I197J40D01*
G01*
G75*
G01X2142Y1025D02*
G03X2216Y978I143J142D01*
G01*
G75*
G01X2216Y978D02*
G03X1829Y510I90J-468D01*
G01*
G75*
G01X1829Y510D02*
G03X1986Y157I477J0D01*
G01*
G75*
G01X13232Y157D02*
G03X13235Y185I-148J28D01*
G01*
G75*
G01X13235Y835D02*
G03X13084Y987I-151J0D01*
G01*
G75*
G01X14012Y1914D02*
G03X14153Y1817I141J54D01*
G01*
G75*
G01X14803Y1817D02*
G03X14955Y1968I0J151D01*
G01*
G75*
G01X14955Y2618D02*
G03X14803Y2770I-152J0D01*
G01*
G75*
G01X15072Y3787D02*
G03X15131Y3929I-142J142D01*
G01*
G75*
G01X15131Y7255D02*
G03X15072Y7398I-201J0D01*
G01*
G75*
G01X14024Y8446D02*
G03X14074Y8579I-151J133D01*
G01*
G75*
G01X14074Y9339D02*
G03X14153Y9317I79J129D01*
G01*
G75*
G01X14803Y9317D02*
G03X14844Y9322I0J151D01*
G01*
G75*
G01X14844Y7969D02*
G03X15469Y7343I625J0D01*
G01*
G75*
G01X18008Y6732D02*
G03X18159Y6581I151J0D01*
G01*
G75*
G01X19341Y6581D02*
G03X19492Y6732I0J151D01*
G01*
G75*
G01X19925Y6338D02*
G03X19750Y6360I-175J-681D01*
G01*
G75*
G01X19750Y6360D02*
G03X19160Y6039I0J-703D01*
G01*
G75*
G01X19160Y6039D02*
G03X18750Y6251I-410J-289D01*
G01*
G75*
G01X18750Y6251D02*
G03X18340Y6039I0J-501D01*
G01*
G75*
G01X18340Y6039D02*
G03X17750Y6360I-590J-382D01*
G01*
G75*
G01X17750Y6360D02*
G03X17047Y5657I0J-703D01*
G01*
G75*
G01X16843Y5453D02*
G03X16140Y4750I0J-703D01*
G01*
G75*
G01X16140Y4750D02*
G03X16461Y4160I703J0D01*
G01*
G75*
G01X16461Y4160D02*
G03X16248Y3750I289J-410D01*
G01*
G75*
G01X16248Y3750D02*
G03X16461Y3340I502J0D01*
G01*
G75*
G01X16461Y3340D02*
G03X16140Y2750I382J-590D01*
G01*
G75*
G01X16140Y2750D02*
G03X16843Y2047I703J0D01*
G01*
G75*
G01X17047Y1843D02*
G03X17104Y1566I703J0D01*
G01*
G75*
G01X17104Y1566D02*
G03X17104Y1556I201J-10D01*
G01*
G75*
G01X17104Y942D02*
G03X16829Y510I202J-432D01*
G01*
G75*
G01X16829Y510D02*
G03X16986Y157I477J0D01*
G01*
G75*
G01X4782Y185D02*
G03X4785Y157I152J0D01*
G01*
G75*
G01X4492Y768D02*
G03X4341Y919I-151J0D01*
G01*
G75*
G01X3159Y919D02*
G03X3008Y768I0J-151D01*
G01*
G75*
G01X2625Y157D02*
G03X2782Y510I-319J353D01*
G01*
G75*
G01X2782Y510D02*
G03X2445Y966I-476J0D01*
G01*
G75*
G01X4857Y966D02*
G03X4782Y835I77J-131D01*
G01*
G75*
G01X19782Y185D02*
G03X19785Y157I152J0D01*
G01*
G75*
G01X19492Y768D02*
G03X19341Y919I-151J0D01*
G01*
G75*
G01X18159Y919D02*
G03X18008Y768I0J-151D01*
G01*
G75*
G01X17625Y157D02*
G03X17782Y510I-319J353D01*
G01*
G75*
G01X17782Y510D02*
G03X17507Y942I-476J0D01*
G01*
G75*
G01X17507Y1183D02*
G03X17750Y1140I243J660D01*
G01*
G75*
G01X17750Y1140D02*
G03X18340Y1461I0J703D01*
G01*
G75*
G01X18340Y1461D02*
G03X18750Y1249I410J289D01*
G01*
G75*
G01X18750Y1249D02*
G03X19160Y1461I0J501D01*
G01*
G75*
G01X19160Y1461D02*
G03X19750Y1140I590J382D01*
G01*
G75*
G01X19750Y1140D02*
G03X20453Y1843I0J703D01*
G01*
G75*
G01X20657Y2047D02*
G03X21125Y2225I0J703D01*
G01*
G75*
G01X20116Y1089D02*
G03X20061Y987I142J-143D01*
G01*
G75*
G01X19934Y987D02*
G03X19782Y835I0J-152D01*
G01*
G75*
G01X10125Y157D02*
G03X10282Y510I-319J353D01*
G01*
G75*
G01X10282Y510D02*
G03X10007Y942I-476J0D01*
G01*
G75*
G01X10007Y1183D02*
G03X10250Y1140I243J660D01*
G01*
G75*
G01X10250Y1140D02*
G03X10840Y1461I0J703D01*
G01*
G75*
G01X10840Y1461D02*
G03X11250Y1249I410J289D01*
G01*
G75*
G01X11250Y1249D02*
G03X11660Y1461I0J501D01*
G01*
G75*
G01X11660Y1461D02*
G03X12250Y1140I590J382D01*
G01*
G75*
G01X12250Y1140D02*
G03X12953Y1843I0J703D01*
G01*
G75*
G01X13157Y2047D02*
G03X13779Y2422I0J703D01*
G01*
G75*
G01X12616Y1089D02*
G03X12561Y987I142J-143D01*
G01*
G75*
G01X12434Y987D02*
G03X12282Y835I0J-152D01*
G01*
G75*
G01X12282Y185D02*
G03X12285Y157I152J0D01*
G01*
G75*
G01X11992Y768D02*
G03X11841Y919I-151J0D01*
G01*
G75*
G01X10659Y919D02*
G03X10508Y768I0J-151D01*
G01*
G75*
G01X5732Y157D02*
G03X5735Y185I-148J28D01*
G01*
G75*
G01X6057Y309D02*
G03X6200Y368I0J201D01*
G01*
G75*
G01X7572Y1740D02*
G03X7631Y1882I-142J142D01*
G01*
G75*
G01X7631Y5419D02*
G03X7572Y5562I-201J0D01*
G01*
G75*
G01X5895Y7239D02*
G03X5752Y7298I-143J-143D01*
G01*
G75*
G01X7031Y7343D02*
G03X7656Y7969I0J626D01*
G01*
G75*
G01X8268Y10508D02*
G03X8419Y10659I0J151D01*
G01*
G75*
G01X8419Y11841D02*
G03X8268Y11992I-151J0D01*
G01*
G75*
G01X7656Y14531D02*
G02X7969Y14843I313J0D01*
G01*
G75*
G01X10508Y14232D02*
G03X10659Y14081I151J0D01*
G01*
G75*
G01X11841Y14081D02*
G03X11992Y14232I0J151D01*
G01*
G75*
G01X12425Y13838D02*
G03X12250Y13860I-175J-681D01*
G01*
G75*
G01X12250Y13860D02*
G03X11660Y13539I0J-703D01*
G01*
G75*
G01X11660Y13539D02*
G03X11250Y13751I-410J-289D01*
G01*
G75*
G01X11250Y13751D02*
G03X10840Y13539I0J-501D01*
G01*
G75*
G01X10840Y13539D02*
G03X10250Y13860I-590J-382D01*
G01*
G75*
G01X10250Y13860D02*
G03X9547Y13157I0J-703D01*
G01*
G75*
G01X9343Y12953D02*
G03X8640Y12250I0J-703D01*
G01*
G75*
G01X8640Y12250D02*
G03X8961Y11660I703J0D01*
G01*
G75*
G01X8961Y11660D02*
G03X8748Y11250I289J-410D01*
G01*
G75*
G01X8748Y11250D02*
G03X8961Y10840I502J0D01*
G01*
G75*
G01X8961Y10840D02*
G03X8640Y10250I382J-590D01*
G01*
G75*
G01X8640Y10250D02*
G03X9343Y9547I703J0D01*
G01*
G75*
G01X9547Y9343D02*
G03X10049Y8669I703J0D01*
G01*
G75*
G01X9969Y8458D02*
G03X9806Y8486I-163J-448D01*
G01*
G75*
G01X9806Y8486D02*
G03X9329Y8010I0J-476D01*
G01*
G75*
G01X9329Y8010D02*
G03X9492Y7651I477J0D01*
G01*
G75*
G01X9375Y7651D02*
G03X9224Y7500I0J-151D01*
G01*
G75*
G01X9224Y6950D02*
G03X9375Y6799I151J0D01*
G01*
G75*
G01X13279Y6799D02*
G03X13431Y6950I0J151D01*
G01*
G75*
G01X13431Y7500D02*
G03X13279Y7651I-152J0D01*
G01*
G75*
G01X13231Y7651D02*
G03X13235Y7685I-147J34D01*
G01*
G75*
G01X14728Y5652D02*
G03X14478Y5723I-250J-406D01*
G01*
G75*
G01X14478Y5723D02*
G03X14002Y5246I0J-477D01*
G01*
G75*
G01X14002Y5246D02*
G03X14277Y4814I476J0D01*
G01*
G75*
G01X13750Y3785D02*
G03X13539Y4160I-500J-35D01*
G01*
G75*
G01X13539Y4160D02*
G03X13860Y4750I-382J590D01*
G01*
G75*
G01X13860Y4750D02*
G03X13157Y5453I-703J0D01*
G01*
G75*
G01X12953Y5657D02*
G03X12250Y6360I-703J0D01*
G01*
G75*
G01X12250Y6360D02*
G03X11660Y6039I0J-703D01*
G01*
G75*
G01X11660Y6039D02*
G03X11250Y6251I-410J-289D01*
G01*
G75*
G01X11250Y6251D02*
G03X10840Y6039I0J-501D01*
G01*
G75*
G01X10840Y6039D02*
G03X10250Y6360I-590J-382D01*
G01*
G75*
G01X10250Y6360D02*
G03X9547Y5657I0J-703D01*
G01*
G75*
G01X9343Y5453D02*
G03X8640Y4750I0J-703D01*
G01*
G75*
G01X8640Y4750D02*
G03X8961Y4160I703J0D01*
G01*
G75*
G01X8961Y4160D02*
G03X8748Y3750I289J-410D01*
G01*
G75*
G01X8748Y3750D02*
G03X8961Y3340I502J0D01*
G01*
G75*
G01X8961Y3340D02*
G03X8640Y2750I382J-590D01*
G01*
G75*
G01X8640Y2750D02*
G03X9343Y2047I703J0D01*
G01*
G75*
G01X9547Y1843D02*
G03X9604Y1566I703J0D01*
G01*
G75*
G01X9604Y1566D02*
G03X9604Y1556I201J-10D01*
G01*
G75*
G01X9604Y942D02*
G03X9329Y510I202J-432D01*
G01*
G75*
G01X9329Y510D02*
G03X9486Y157I477J0D01*
G01*
G75*
G01X20732Y157D02*
G03X20735Y185I-148J28D01*
G01*
G75*
G01X20735Y835D02*
G03X20584Y987I-151J0D01*
G01*
G75*
G01X21469Y1872D02*
G03X21508Y1926I-142J142D01*
G01*
G75*
G01X21508Y1926D02*
G03X21653Y1817I145J42D01*
G01*
G75*
G01X22303Y1817D02*
G03X22344Y1822I0J151D01*
G01*
G75*
G01X22344Y469D02*
G02X22031Y157I-313J0D01*
G01*
G75*
G01X5735Y835D02*
G03X5584Y987I-151J0D01*
G01*
G75*
G01X5506Y987D02*
G03X5559Y1025I-90J180D01*
G01*
G75*
G01X6502Y1968D02*
G03X6653Y1817I151J0D01*
G01*
G75*
G01X4076Y1369D02*
G03X4160Y1461I-326J381D01*
G01*
G75*
G01X4160Y1461D02*
G03X4231Y1369I590J382D01*
G01*
G75*
G01X3340Y1461D02*
G03X3424Y1369I410J289D01*
G01*
G75*
G01X3269Y1369D02*
G03X3340Y1461I-519J474D01*
G01*
G75*
G01X5269Y1369D02*
G03X5453Y1843I-519J474D01*
G01*
G75*
G01X5657Y2047D02*
G03X6360Y2750I0J703D01*
G01*
G75*
G01X6360Y2750D02*
G03X6214Y3179I-703J0D01*
G01*
G75*
G01X7121Y4086D02*
G03X7180Y4228I-143J142D01*
G01*
G75*
G01X7180Y4814D02*
G03X7228Y4840I-202J432D01*
G01*
G75*
G01X6653Y2770D02*
G03X6502Y2618I0J-152D01*
G01*
G75*
G01X6502Y2491D02*
G03X6400Y2436I41J-198D01*
G01*
G75*
G01X1667Y2070D02*
G03X1843Y2047I176J680D01*
G01*
G75*
G01X2047Y1843D02*
G03X2070Y1667I703J0D01*
G01*
G75*
G01X4047Y2154D02*
G03X3870Y2237I-297J-404D01*
G01*
G75*
G01X4141Y2507D02*
G03X4047Y2157I609J-350D01*
G01*
G75*
G01X19047Y2154D02*
G03X18870Y2237I-297J-404D01*
G01*
G75*
G01X19141Y2507D02*
G03X19047Y2157I609J-350D01*
G01*
G75*
G01X11547Y2154D02*
G03X11370Y2237I-297J-404D01*
G01*
G75*
G01X11641Y2507D02*
G03X11547Y2157I609J-350D01*
G01*
G75*
G01X3423Y2360D02*
G03X2853Y2853I-673J-203D01*
G01*
G75*
G01X2853Y2853D02*
G03X2157Y3453I-696J-103D01*
G01*
G75*
G01X2154Y3453D02*
G03X2252Y3750I-404J297D01*
G01*
G75*
G01X2252Y3750D02*
G03X2154Y4047I-502J0D01*
G01*
G75*
G01X2157Y4047D02*
G03X2853Y4647I0J703D01*
G01*
G75*
G01X2853Y4647D02*
G03X3453Y5343I-103J696D01*
G01*
G75*
G01X3453Y5346D02*
G03X3750Y5249I297J404D01*
G01*
G75*
G01X3750Y5249D02*
G03X4047Y5346I0J501D01*
G01*
G75*
G01X4047Y5343D02*
G03X4647Y4647I703J0D01*
G01*
G75*
G01X4647Y4647D02*
G03X5088Y4095I696J103D01*
G01*
G75*
G01X4694Y3631D02*
G03X4702Y3750I-944J119D01*
G01*
G75*
G01X4702Y3750D02*
G03X3750Y4701I-952J0D01*
G01*
G75*
G01X3750Y4701D02*
G03X2798Y3750I0J-951D01*
G01*
G75*
G01X2798Y3750D02*
G03X3750Y2799I952J0D01*
G01*
G75*
G01X3750Y2799D02*
G03X3869Y2806I0J951D01*
G01*
G75*
G01X18423Y2360D02*
G03X17853Y2853I-673J-203D01*
G01*
G75*
G01X17853Y2853D02*
G03X17157Y3453I-696J-103D01*
G01*
G75*
G01X17154Y3453D02*
G03X17252Y3750I-404J297D01*
G01*
G75*
G01X17252Y3750D02*
G03X17154Y4047I-502J0D01*
G01*
G75*
G01X17157Y4047D02*
G03X17853Y4647I0J703D01*
G01*
G75*
G01X17853Y4647D02*
G03X18453Y5343I-103J696D01*
G01*
G75*
G01X18453Y5346D02*
G03X18750Y5249I297J404D01*
G01*
G75*
G01X18750Y5249D02*
G03X19047Y5346I0J501D01*
G01*
G75*
G01X19047Y5343D02*
G03X19647Y4647I703J0D01*
G01*
G75*
G01X19647Y4647D02*
G03X20088Y4095I696J103D01*
G01*
G75*
G01X19694Y3631D02*
G03X19702Y3750I-944J119D01*
G01*
G75*
G01X19702Y3750D02*
G03X18750Y4701I-952J0D01*
G01*
G75*
G01X18750Y4701D02*
G03X17798Y3750I0J-951D01*
G01*
G75*
G01X17798Y3750D02*
G03X18750Y2799I952J0D01*
G01*
G75*
G01X18750Y2799D02*
G03X18869Y2806I0J951D01*
G01*
G75*
G01X10923Y2360D02*
G03X10353Y2853I-673J-203D01*
G01*
G75*
G01X10353Y2853D02*
G03X9657Y3453I-696J-103D01*
G01*
G75*
G01X9654Y3453D02*
G03X9752Y3750I-404J297D01*
G01*
G75*
G01X9752Y3750D02*
G03X9654Y4047I-502J0D01*
G01*
G75*
G01X9657Y4047D02*
G03X10353Y4647I0J703D01*
G01*
G75*
G01X10353Y4647D02*
G03X10953Y5343I-103J696D01*
G01*
G75*
G01X10953Y5346D02*
G03X11250Y5249I297J404D01*
G01*
G75*
G01X11250Y5249D02*
G03X11547Y5346I0J501D01*
G01*
G75*
G01X11547Y5343D02*
G03X12147Y4647I703J0D01*
G01*
G75*
G01X12147Y4647D02*
G03X12588Y4095I696J103D01*
G01*
G75*
G01X12194Y3631D02*
G03X12202Y3750I-944J119D01*
G01*
G75*
G01X12202Y3750D02*
G03X11250Y4701I-952J0D01*
G01*
G75*
G01X11250Y4701D02*
G03X10298Y3750I0J-951D01*
G01*
G75*
G01X10298Y3750D02*
G03X11250Y2799I952J0D01*
G01*
G75*
G01X11250Y2799D02*
G03X11369Y2806I0J951D01*
G01*
G75*
G01X768Y3008D02*
G03X919Y3159I0J151D01*
G01*
G75*
G01X919Y4341D02*
G03X768Y4492I-151J0D01*
G01*
G75*
G01X156Y7031D02*
G02X469Y7343I313J0D01*
G01*
G75*
G01X3008Y6732D02*
G03X3159Y6581I151J0D01*
G01*
G75*
G01X4341Y6581D02*
G03X4492Y6732I0J151D01*
G01*
G75*
G01X6857Y5707D02*
G03X6502Y5246I121J-461D01*
G01*
G75*
G01X6502Y5246D02*
G03X6777Y4814I476J0D01*
G01*
G75*
G01X6250Y3785D02*
G03X6039Y4160I-500J-35D01*
G01*
G75*
G01X6039Y4160D02*
G03X6360Y4750I-382J590D01*
G01*
G75*
G01X6360Y4750D02*
G03X5657Y5453I-703J0D01*
G01*
G75*
G01X5453Y5657D02*
G03X4750Y6360I-703J0D01*
G01*
G75*
G01X4750Y6360D02*
G03X4160Y6039I0J-703D01*
G01*
G75*
G01X4160Y6039D02*
G03X3750Y6251I-410J-289D01*
G01*
G75*
G01X3750Y6251D02*
G03X3340Y6039I0J-501D01*
G01*
G75*
G01X3340Y6039D02*
G03X2750Y6360I-590J-382D01*
G01*
G75*
G01X2750Y6360D02*
G03X2047Y5657I0J-703D01*
G01*
G75*
G01X1843Y5453D02*
G03X1140Y4750I0J-703D01*
G01*
G75*
G01X1140Y4750D02*
G03X1461Y4160I703J0D01*
G01*
G75*
G01X1461Y4160D02*
G03X1248Y3750I289J-410D01*
G01*
G75*
G01X1248Y3750D02*
G03X1461Y3340I502J0D01*
G01*
G75*
G01X1461Y3340D02*
G03X1140Y2750I382J-590D01*
G01*
G75*
G01X1140Y2750D02*
G03X1162Y2575I703J0D01*
G01*
G75*
G01X21653Y2770D02*
G03X21528Y2703I0J-152D01*
G01*
G75*
G01X21528Y5091D02*
G03X21978Y4770I450J155D01*
G01*
G75*
G01X21978Y4770D02*
G03X22344Y4940I0J476D01*
G01*
G75*
G01X21732Y4492D02*
G03X21581Y4341I0J-151D01*
G01*
G75*
G01X21581Y3159D02*
G03X21732Y3008I151J0D01*
G01*
G75*
G01X21793Y3008D02*
G03X21777Y2930I185J-78D01*
G01*
G75*
G01X22344Y2764D02*
G03X22303Y2770I-41J-146D01*
G01*
G75*
G01X22239Y2906D02*
G03X22294Y3008I-142J142D01*
G01*
G75*
G01X4647Y2853D02*
G03X4400Y2767I103J-696D01*
G01*
G75*
G01X4733Y3100D02*
G03X4647Y2853I610J-350D01*
G01*
G75*
G01X19733Y3100D02*
G03X19647Y2853I610J-350D01*
G01*
G75*
G01X19647Y2853D02*
G03X19400Y2767I103J-696D01*
G01*
G75*
G01X12233Y3100D02*
G03X12147Y2853I610J-350D01*
G01*
G75*
G01X12147Y2853D02*
G03X11900Y2767I103J-696D01*
G01*
G75*
G01X13792Y3052D02*
G03X13714Y3179I-635J-302D01*
G01*
G75*
G01X14621Y4086D02*
G03X14680Y4228I-143J142D01*
G01*
G75*
G01X14680Y4814D02*
G03X14728Y4840I-202J432D01*
G01*
G75*
G01X13838Y3123D02*
G03X13792Y3052I143J-143D01*
G01*
G75*
G01X21125Y3275D02*
G03X21039Y3340I-468J-525D01*
G01*
G75*
G01X21039Y3340D02*
G03X21125Y3417I-289J410D01*
G01*
G75*
G01X5343Y3453D02*
G03X4993Y3359I0J-703D01*
G01*
G75*
G01X5263Y3630D02*
G03X5346Y3453I487J120D01*
G01*
G75*
G01X20263Y3630D02*
G03X20346Y3453I487J120D01*
G01*
G75*
G01X20343Y3453D02*
G03X19993Y3359I0J-703D01*
G01*
G75*
G01X12843Y3453D02*
G03X12493Y3359I0J-703D01*
G01*
G75*
G01X12763Y3630D02*
G03X12846Y3453I487J120D01*
G01*
G75*
G01X21125Y4083D02*
G03X21039Y4160I-375J-333D01*
G01*
G75*
G01X21039Y4160D02*
G03X21125Y4225I-382J590D01*
G01*
G75*
G01X21978Y5723D02*
G03X21506Y5312I0J-477D01*
G01*
G75*
G01X21506Y5312D02*
G03X21469Y5364I-180J-91D01*
G01*
G75*
G01X19594Y7239D02*
G03X19492Y7294I-143J-143D01*
G01*
G75*
G01X22031Y7343D02*
G02X22344Y7031I0J-312D01*
G01*
G75*
G01X22344Y5552D02*
G03X21978Y5723I-366J-306D01*
G01*
G75*
G01X20832Y5431D02*
G03X20657Y5453I-175J-681D01*
G01*
G75*
G01X20453Y5657D02*
G03X20431Y5832I-703J0D01*
G01*
G75*
G01X10120Y7651D02*
G03X10282Y8010I-314J359D01*
G01*
G75*
G01X10282Y8010D02*
G03X10254Y8173I-476J0D01*
G01*
G75*
G01X10393Y8312D02*
G03X10452Y8454I-142J142D01*
G01*
G75*
G01X10452Y8670D02*
G03X10840Y8961I-202J673D01*
G01*
G75*
G01X10840Y8961D02*
G03X11250Y8749I410J289D01*
G01*
G75*
G01X11250Y8749D02*
G03X11660Y8961I0J501D01*
G01*
G75*
G01X11660Y8961D02*
G03X12250Y8640I590J382D01*
G01*
G75*
G01X12250Y8640D02*
G03X12953Y9343I0J703D01*
G01*
G75*
G01X13157Y9547D02*
G03X13671Y9770I0J703D01*
G01*
G75*
G01X12759Y8648D02*
G03X12561Y8487I-1J-202D01*
G01*
G75*
G01X12434Y8487D02*
G03X12282Y8335I0J-152D01*
G01*
G75*
G01X12282Y7685D02*
G03X12286Y7651I152J0D01*
G01*
G75*
G01X11547Y9654D02*
G03X11370Y9737I-297J-404D01*
G01*
G75*
G01X11641Y10007D02*
G03X11547Y9657I609J-350D01*
G01*
G75*
G01X10923Y9860D02*
G03X10353Y10353I-673J-203D01*
G01*
G75*
G01X10353Y10353D02*
G03X9657Y10953I-696J-103D01*
G01*
G75*
G01X9654Y10953D02*
G03X9752Y11250I-404J297D01*
G01*
G75*
G01X9752Y11250D02*
G03X9654Y11547I-502J0D01*
G01*
G75*
G01X9657Y11547D02*
G03X10353Y12147I0J703D01*
G01*
G75*
G01X10353Y12147D02*
G03X10953Y12843I-103J696D01*
G01*
G75*
G01X10953Y12846D02*
G03X11250Y12749I297J404D01*
G01*
G75*
G01X11250Y12749D02*
G03X11547Y12846I0J501D01*
G01*
G75*
G01X11547Y12843D02*
G03X12147Y12147I703J0D01*
G01*
G75*
G01X12147Y12147D02*
G03X12588Y11595I696J103D01*
G01*
G75*
G01X12194Y11131D02*
G03X12202Y11250I-944J119D01*
G01*
G75*
G01X12202Y11250D02*
G03X11250Y12201I-952J0D01*
G01*
G75*
G01X11250Y12201D02*
G03X10298Y11250I0J-951D01*
G01*
G75*
G01X10298Y11250D02*
G03X11250Y10299I952J0D01*
G01*
G75*
G01X11250Y10299D02*
G03X11369Y10306I0J951D01*
G01*
G75*
G01X14074Y12494D02*
G03X14478Y12270I404J252D01*
G01*
G75*
G01X14478Y12270D02*
G03X14844Y12440I0J476D01*
G01*
G75*
G01X14232Y11992D02*
G03X14081Y11841I0J-151D01*
G01*
G75*
G01X14081Y10659D02*
G03X14232Y10508I151J0D01*
G01*
G75*
G01X14293Y10508D02*
G03X14277Y10430I185J-78D01*
G01*
G75*
G01X14153Y10270D02*
G03X14074Y10247I0J-152D01*
G01*
G75*
G01X14844Y10264D02*
G03X14803Y10270I-41J-146D01*
G01*
G75*
G01X14739Y10406D02*
G03X14794Y10508I-142J142D01*
G01*
G75*
G01X12233Y10600D02*
G03X12147Y10353I610J-350D01*
G01*
G75*
G01X12147Y10353D02*
G03X11900Y10267I103J-696D01*
G01*
G75*
G01X13671Y10730D02*
G03X13539Y10840I-514J-480D01*
G01*
G75*
G01X13539Y10840D02*
G03X13671Y10977I-289J410D01*
G01*
G75*
G01X12763Y11130D02*
G03X12846Y10953I487J120D01*
G01*
G75*
G01X12843Y10953D02*
G03X12493Y10859I0J-703D01*
G01*
G75*
G01X13671Y11523D02*
G03X13539Y11660I-421J-273D01*
G01*
G75*
G01X13539Y11660D02*
G03X13671Y11770I-382J590D01*
G01*
G75*
G01X14478Y13223D02*
G03X14008Y12824I0J-477D01*
G01*
G75*
G01X12094Y14739D02*
G03X11992Y14794I-143J-143D01*
G01*
G75*
G01X14531Y14843D02*
G02X14844Y14531I0J-312D01*
G01*
G75*
G01X14844Y13052D02*
G03X14478Y13223I-366J-306D01*
G01*
G75*
G01X13332Y12931D02*
G03X13157Y12953I-175J-681D01*
G01*
G75*
G01X12953Y13157D02*
G03X12931Y13332I-703J0D01*
G01*
G75*
G01X469Y157D02*
G02X156Y469I0J312D01*
G01*
G75*
G01X206Y3008D02*
G03X261Y2906I197J40D01*
G01*
G75*
G01X2142Y1025D02*
G03X2216Y978I143J142D01*
G01*
G75*
G01X2216Y978D02*
G03X1829Y510I90J-468D01*
G01*
G75*
G01X1829Y510D02*
G03X1986Y157I477J0D01*
G01*
G75*
G01X13232Y157D02*
G03X13235Y185I-148J28D01*
G01*
G75*
G01X13235Y835D02*
G03X13084Y987I-151J0D01*
G01*
G75*
G01X14012Y1914D02*
G03X14153Y1817I141J54D01*
G01*
G75*
G01X14803Y1817D02*
G03X14955Y1968I0J151D01*
G01*
G75*
G01X14955Y2618D02*
G03X14803Y2770I-152J0D01*
G01*
G75*
G01X15072Y3787D02*
G03X15131Y3929I-142J142D01*
G01*
G75*
G01X15131Y7255D02*
G03X15072Y7398I-201J0D01*
G01*
G75*
G01X14024Y8446D02*
G03X14074Y8579I-151J133D01*
G01*
G75*
G01X14074Y9339D02*
G03X14153Y9317I79J129D01*
G01*
G75*
G01X14803Y9317D02*
G03X14844Y9322I0J151D01*
G01*
G75*
G01X14844Y7969D02*
G03X15469Y7343I625J0D01*
G01*
G75*
G01X18008Y6732D02*
G03X18159Y6581I151J0D01*
G01*
G75*
G01X19341Y6581D02*
G03X19492Y6732I0J151D01*
G01*
G75*
G01X19925Y6338D02*
G03X19750Y6360I-175J-681D01*
G01*
G75*
G01X19750Y6360D02*
G03X19160Y6039I0J-703D01*
G01*
G75*
G01X19160Y6039D02*
G03X18750Y6251I-410J-289D01*
G01*
G75*
G01X18750Y6251D02*
G03X18340Y6039I0J-501D01*
G01*
G75*
G01X18340Y6039D02*
G03X17750Y6360I-590J-382D01*
G01*
G75*
G01X17750Y6360D02*
G03X17047Y5657I0J-703D01*
G01*
G75*
G01X16843Y5453D02*
G03X16140Y4750I0J-703D01*
G01*
G75*
G01X16140Y4750D02*
G03X16461Y4160I703J0D01*
G01*
G75*
G01X16461Y4160D02*
G03X16248Y3750I289J-410D01*
G01*
G75*
G01X16248Y3750D02*
G03X16461Y3340I502J0D01*
G01*
G75*
G01X16461Y3340D02*
G03X16140Y2750I382J-590D01*
G01*
G75*
G01X16140Y2750D02*
G03X16843Y2047I703J0D01*
G01*
G75*
G01X17047Y1843D02*
G03X17104Y1566I703J0D01*
G01*
G75*
G01X17104Y1566D02*
G03X17104Y1556I201J-10D01*
G01*
G75*
G01X17104Y942D02*
G03X16829Y510I202J-432D01*
G01*
G75*
G01X16829Y510D02*
G03X16986Y157I477J0D01*
G01*
G75*
G01X4782Y185D02*
G03X4785Y157I152J0D01*
G01*
G75*
G01X4492Y768D02*
G03X4341Y919I-151J0D01*
G01*
G75*
G01X3159Y919D02*
G03X3008Y768I0J-151D01*
G01*
G75*
G01X2625Y157D02*
G03X2782Y510I-319J353D01*
G01*
G75*
G01X2782Y510D02*
G03X2445Y966I-476J0D01*
G01*
G75*
G01X4857Y966D02*
G03X4782Y835I77J-131D01*
G01*
G75*
G01X19782Y185D02*
G03X19785Y157I152J0D01*
G01*
G75*
G01X19492Y768D02*
G03X19341Y919I-151J0D01*
G01*
G75*
G01X18159Y919D02*
G03X18008Y768I0J-151D01*
G01*
G75*
G01X17625Y157D02*
G03X17782Y510I-319J353D01*
G01*
G75*
G01X17782Y510D02*
G03X17507Y942I-476J0D01*
G01*
G75*
G01X17507Y1183D02*
G03X17750Y1140I243J660D01*
G01*
G75*
G01X17750Y1140D02*
G03X18340Y1461I0J703D01*
G01*
G75*
G01X18340Y1461D02*
G03X18750Y1249I410J289D01*
G01*
G75*
G01X18750Y1249D02*
G03X19160Y1461I0J501D01*
G01*
G75*
G01X19160Y1461D02*
G03X19750Y1140I590J382D01*
G01*
G75*
G01X19750Y1140D02*
G03X20453Y1843I0J703D01*
G01*
G75*
G01X20657Y2047D02*
G03X21125Y2225I0J703D01*
G01*
G75*
G01X20116Y1089D02*
G03X20061Y987I142J-143D01*
G01*
G75*
G01X19934Y987D02*
G03X19782Y835I0J-152D01*
G01*
G75*
G01X10125Y157D02*
G03X10282Y510I-319J353D01*
G01*
G75*
G01X10282Y510D02*
G03X10007Y942I-476J0D01*
G01*
G75*
G01X10007Y1183D02*
G03X10250Y1140I243J660D01*
G01*
G75*
G01X10250Y1140D02*
G03X10840Y1461I0J703D01*
G01*
G75*
G01X10840Y1461D02*
G03X11250Y1249I410J289D01*
G01*
G75*
G01X11250Y1249D02*
G03X11660Y1461I0J501D01*
G01*
G75*
G01X11660Y1461D02*
G03X12250Y1140I590J382D01*
G01*
G75*
G01X12250Y1140D02*
G03X12953Y1843I0J703D01*
G01*
G75*
G01X13157Y2047D02*
G03X13779Y2422I0J703D01*
G01*
G75*
G01X12616Y1089D02*
G03X12561Y987I142J-143D01*
G01*
G75*
G01X12434Y987D02*
G03X12282Y835I0J-152D01*
G01*
G75*
G01X12282Y185D02*
G03X12285Y157I152J0D01*
G01*
G75*
G01X11992Y768D02*
G03X11841Y919I-151J0D01*
G01*
G75*
G01X10659Y919D02*
G03X10508Y768I0J-151D01*
G01*
G75*
G01X5732Y157D02*
G03X5735Y185I-148J28D01*
G01*
G75*
G01X6057Y309D02*
G03X6200Y368I0J201D01*
G01*
G75*
G01X7572Y1740D02*
G03X7631Y1882I-142J142D01*
G01*
G75*
G01X7631Y5419D02*
G03X7572Y5562I-201J0D01*
G01*
G75*
G01X5895Y7239D02*
G03X5752Y7298I-143J-143D01*
G01*
G75*
G01X7031Y7343D02*
G03X7656Y7969I0J626D01*
G01*
G75*
G01X8268Y10508D02*
G03X8419Y10659I0J151D01*
G01*
G75*
G01X8419Y11841D02*
G03X8268Y11992I-151J0D01*
G01*
G75*
G01X7656Y14531D02*
G02X7969Y14843I313J0D01*
G01*
G75*
G01X10508Y14232D02*
G03X10659Y14081I151J0D01*
G01*
G75*
G01X11841Y14081D02*
G03X11992Y14232I0J151D01*
G01*
G75*
G01X12425Y13838D02*
G03X12250Y13860I-175J-681D01*
G01*
G75*
G01X12250Y13860D02*
G03X11660Y13539I0J-703D01*
G01*
G75*
G01X11660Y13539D02*
G03X11250Y13751I-410J-289D01*
G01*
G75*
G01X11250Y13751D02*
G03X10840Y13539I0J-501D01*
G01*
G75*
G01X10840Y13539D02*
G03X10250Y13860I-590J-382D01*
G01*
G75*
G01X10250Y13860D02*
G03X9547Y13157I0J-703D01*
G01*
G75*
G01X9343Y12953D02*
G03X8640Y12250I0J-703D01*
G01*
G75*
G01X8640Y12250D02*
G03X8961Y11660I703J0D01*
G01*
G75*
G01X8961Y11660D02*
G03X8748Y11250I289J-410D01*
G01*
G75*
G01X8748Y11250D02*
G03X8961Y10840I502J0D01*
G01*
G75*
G01X8961Y10840D02*
G03X8640Y10250I382J-590D01*
G01*
G75*
G01X8640Y10250D02*
G03X9343Y9547I703J0D01*
G01*
G75*
G01X9547Y9343D02*
G03X10049Y8669I703J0D01*
G01*
G75*
G01X9969Y8458D02*
G03X9806Y8486I-163J-448D01*
G01*
G75*
G01X9806Y8486D02*
G03X9329Y8010I0J-476D01*
G01*
G75*
G01X9329Y8010D02*
G03X9492Y7651I477J0D01*
G01*
G75*
G01X9375Y7651D02*
G03X9224Y7500I0J-151D01*
G01*
G75*
G01X9224Y6950D02*
G03X9375Y6799I151J0D01*
G01*
G75*
G01X13279Y6799D02*
G03X13431Y6950I0J151D01*
G01*
G75*
G01X13431Y7500D02*
G03X13279Y7651I-152J0D01*
G01*
G75*
G01X13231Y7651D02*
G03X13235Y7685I-147J34D01*
G01*
G75*
G01X14728Y5652D02*
G03X14478Y5723I-250J-406D01*
G01*
G75*
G01X14478Y5723D02*
G03X14002Y5246I0J-477D01*
G01*
G75*
G01X14002Y5246D02*
G03X14277Y4814I476J0D01*
G01*
G75*
G01X13750Y3785D02*
G03X13539Y4160I-500J-35D01*
G01*
G75*
G01X13539Y4160D02*
G03X13860Y4750I-382J590D01*
G01*
G75*
G01X13860Y4750D02*
G03X13157Y5453I-703J0D01*
G01*
G75*
G01X12953Y5657D02*
G03X12250Y6360I-703J0D01*
G01*
G75*
G01X12250Y6360D02*
G03X11660Y6039I0J-703D01*
G01*
G75*
G01X11660Y6039D02*
G03X11250Y6251I-410J-289D01*
G01*
G75*
G01X11250Y6251D02*
G03X10840Y6039I0J-501D01*
G01*
G75*
G01X10840Y6039D02*
G03X10250Y6360I-590J-382D01*
G01*
G75*
G01X10250Y6360D02*
G03X9547Y5657I0J-703D01*
G01*
G75*
G01X9343Y5453D02*
G03X8640Y4750I0J-703D01*
G01*
G75*
G01X8640Y4750D02*
G03X8961Y4160I703J0D01*
G01*
G75*
G01X8961Y4160D02*
G03X8748Y3750I289J-410D01*
G01*
G75*
G01X8748Y3750D02*
G03X8961Y3340I502J0D01*
G01*
G75*
G01X8961Y3340D02*
G03X8640Y2750I382J-590D01*
G01*
G75*
G01X8640Y2750D02*
G03X9343Y2047I703J0D01*
G01*
G75*
G01X9547Y1843D02*
G03X9604Y1566I703J0D01*
G01*
G75*
G01X9604Y1566D02*
G03X9604Y1556I201J-10D01*
G01*
G75*
G01X9604Y942D02*
G03X9329Y510I202J-432D01*
G01*
G75*
G01X9329Y510D02*
G03X9486Y157I477J0D01*
G01*
G75*
G01X20732Y157D02*
G03X20735Y185I-148J28D01*
G01*
G75*
G01X20735Y835D02*
G03X20584Y987I-151J0D01*
G01*
G75*
G01X21469Y1872D02*
G03X21508Y1926I-142J142D01*
G01*
G75*
G01X21508Y1926D02*
G03X21653Y1817I145J42D01*
G01*
G75*
G01X22303Y1817D02*
G03X22344Y1822I0J151D01*
G01*
G75*
G01X22344Y469D02*
G02X22031Y157I-313J0D01*
G01*
G75*
G01X5735Y835D02*
G03X5584Y987I-151J0D01*
G01*
G75*
G01X5506Y987D02*
G03X5559Y1025I-90J180D01*
G01*
G75*
G01X6502Y1968D02*
G03X6653Y1817I151J0D01*
G01*
G75*
G01X4076Y1369D02*
G03X4160Y1461I-326J381D01*
G01*
G75*
G01X4160Y1461D02*
G03X4231Y1369I590J382D01*
G01*
G75*
G01X3340Y1461D02*
G03X3424Y1369I410J289D01*
G01*
G75*
G01X3269Y1369D02*
G03X3340Y1461I-519J474D01*
G01*
G75*
G01X5269Y1369D02*
G03X5453Y1843I-519J474D01*
G01*
G75*
G01X5657Y2047D02*
G03X6360Y2750I0J703D01*
G01*
G75*
G01X6360Y2750D02*
G03X6214Y3179I-703J0D01*
G01*
G75*
G01X7121Y4086D02*
G03X7180Y4228I-143J142D01*
G01*
G75*
G01X7180Y4814D02*
G03X7228Y4840I-202J432D01*
G01*
G75*
G01X6653Y2770D02*
G03X6502Y2618I0J-152D01*
G01*
G75*
G01X6502Y2491D02*
G03X6400Y2436I41J-198D01*
G01*
G75*
G01X1667Y2070D02*
G03X1843Y2047I176J680D01*
G01*
G75*
G01X2047Y1843D02*
G03X2070Y1667I703J0D01*
G01*
G75*
G01X4047Y2154D02*
G03X3870Y2237I-297J-404D01*
G01*
G75*
G01X4141Y2507D02*
G03X4047Y2157I609J-350D01*
G01*
G75*
G01X19047Y2154D02*
G03X18870Y2237I-297J-404D01*
G01*
G75*
G01X19141Y2507D02*
G03X19047Y2157I609J-350D01*
G01*
G75*
G01X11547Y2154D02*
G03X11370Y2237I-297J-404D01*
G01*
G75*
G01X11641Y2507D02*
G03X11547Y2157I609J-350D01*
G01*
G75*
G01X3423Y2360D02*
G03X2853Y2853I-673J-203D01*
G01*
G75*
G01X2853Y2853D02*
G03X2157Y3453I-696J-103D01*
G01*
G75*
G01X2154Y3453D02*
G03X2252Y3750I-404J297D01*
G01*
G75*
G01X2252Y3750D02*
G03X2154Y4047I-502J0D01*
G01*
G75*
G01X2157Y4047D02*
G03X2853Y4647I0J703D01*
G01*
G75*
G01X2853Y4647D02*
G03X3453Y5343I-103J696D01*
G01*
G75*
G01X3453Y5346D02*
G03X3750Y5249I297J404D01*
G01*
G75*
G01X3750Y5249D02*
G03X4047Y5346I0J501D01*
G01*
G75*
G01X4047Y5343D02*
G03X4647Y4647I703J0D01*
G01*
G75*
G01X4647Y4647D02*
G03X5088Y4095I696J103D01*
G01*
G75*
G01X4694Y3631D02*
G03X4702Y3750I-944J119D01*
G01*
G75*
G01X4702Y3750D02*
G03X3750Y4701I-952J0D01*
G01*
G75*
G01X3750Y4701D02*
G03X2798Y3750I0J-951D01*
G01*
G75*
G01X2798Y3750D02*
G03X3750Y2799I952J0D01*
G01*
G75*
G01X3750Y2799D02*
G03X3869Y2806I0J951D01*
G01*
G75*
G01X18423Y2360D02*
G03X17853Y2853I-673J-203D01*
G01*
G75*
G01X17853Y2853D02*
G03X17157Y3453I-696J-103D01*
G01*
G75*
G01X17154Y3453D02*
G03X17252Y3750I-404J297D01*
G01*
G75*
G01X17252Y3750D02*
G03X17154Y4047I-502J0D01*
G01*
G75*
G01X17157Y4047D02*
G03X17853Y4647I0J703D01*
G01*
G75*
G01X17853Y4647D02*
G03X18453Y5343I-103J696D01*
G01*
G75*
G01X18453Y5346D02*
G03X18750Y5249I297J404D01*
G01*
G75*
G01X18750Y5249D02*
G03X19047Y5346I0J501D01*
G01*
G75*
G01X19047Y5343D02*
G03X19647Y4647I703J0D01*
G01*
G75*
G01X19647Y4647D02*
G03X20088Y4095I696J103D01*
G01*
G75*
G01X19694Y3631D02*
G03X19702Y3750I-944J119D01*
G01*
G75*
G01X19702Y3750D02*
G03X18750Y4701I-952J0D01*
G01*
G75*
G01X18750Y4701D02*
G03X17798Y3750I0J-951D01*
G01*
G75*
G01X17798Y3750D02*
G03X18750Y2799I952J0D01*
G01*
G75*
G01X18750Y2799D02*
G03X18869Y2806I0J951D01*
G01*
G75*
G01X10923Y2360D02*
G03X10353Y2853I-673J-203D01*
G01*
G75*
G01X10353Y2853D02*
G03X9657Y3453I-696J-103D01*
G01*
G75*
G01X9654Y3453D02*
G03X9752Y3750I-404J297D01*
G01*
G75*
G01X9752Y3750D02*
G03X9654Y4047I-502J0D01*
G01*
G75*
G01X9657Y4047D02*
G03X10353Y4647I0J703D01*
G01*
G75*
G01X10353Y4647D02*
G03X10953Y5343I-103J696D01*
G01*
G75*
G01X10953Y5346D02*
G03X11250Y5249I297J404D01*
G01*
G75*
G01X11250Y5249D02*
G03X11547Y5346I0J501D01*
G01*
G75*
G01X11547Y5343D02*
G03X12147Y4647I703J0D01*
G01*
G75*
G01X12147Y4647D02*
G03X12588Y4095I696J103D01*
G01*
G75*
G01X12194Y3631D02*
G03X12202Y3750I-944J119D01*
G01*
G75*
G01X12202Y3750D02*
G03X11250Y4701I-952J0D01*
G01*
G75*
G01X11250Y4701D02*
G03X10298Y3750I0J-951D01*
G01*
G75*
G01X10298Y3750D02*
G03X11250Y2799I952J0D01*
G01*
G75*
G01X11250Y2799D02*
G03X11369Y2806I0J951D01*
G01*
G75*
G01X768Y3008D02*
G03X919Y3159I0J151D01*
G01*
G75*
G01X919Y4341D02*
G03X768Y4492I-151J0D01*
G01*
G75*
G01X156Y7031D02*
G02X469Y7343I313J0D01*
G01*
G75*
G01X3008Y6732D02*
G03X3159Y6581I151J0D01*
G01*
G75*
G01X4341Y6581D02*
G03X4492Y6732I0J151D01*
G01*
G75*
G01X6857Y5707D02*
G03X6502Y5246I121J-461D01*
G01*
G75*
G01X6502Y5246D02*
G03X6777Y4814I476J0D01*
G01*
G75*
G01X6250Y3785D02*
G03X6039Y4160I-500J-35D01*
G01*
G75*
G01X6039Y4160D02*
G03X6360Y4750I-382J590D01*
G01*
G75*
G01X6360Y4750D02*
G03X5657Y5453I-703J0D01*
G01*
G75*
G01X5453Y5657D02*
G03X4750Y6360I-703J0D01*
G01*
G75*
G01X4750Y6360D02*
G03X4160Y6039I0J-703D01*
G01*
G75*
G01X4160Y6039D02*
G03X3750Y6251I-410J-289D01*
G01*
G75*
G01X3750Y6251D02*
G03X3340Y6039I0J-501D01*
G01*
G75*
G01X3340Y6039D02*
G03X2750Y6360I-590J-382D01*
G01*
G75*
G01X2750Y6360D02*
G03X2047Y5657I0J-703D01*
G01*
G75*
G01X1843Y5453D02*
G03X1140Y4750I0J-703D01*
G01*
G75*
G01X1140Y4750D02*
G03X1461Y4160I703J0D01*
G01*
G75*
G01X1461Y4160D02*
G03X1248Y3750I289J-410D01*
G01*
G75*
G01X1248Y3750D02*
G03X1461Y3340I502J0D01*
G01*
G75*
G01X1461Y3340D02*
G03X1140Y2750I382J-590D01*
G01*
G75*
G01X1140Y2750D02*
G03X1162Y2575I703J0D01*
G01*
G75*
G01X21653Y2770D02*
G03X21528Y2703I0J-152D01*
G01*
G75*
G01X21528Y5091D02*
G03X21978Y4770I450J155D01*
G01*
G75*
G01X21978Y4770D02*
G03X22344Y4940I0J476D01*
G01*
G75*
G01X21732Y4492D02*
G03X21581Y4341I0J-151D01*
G01*
G75*
G01X21581Y3159D02*
G03X21732Y3008I151J0D01*
G01*
G75*
G01X21793Y3008D02*
G03X21777Y2930I185J-78D01*
G01*
G75*
G01X22344Y2764D02*
G03X22303Y2770I-41J-146D01*
G01*
G75*
G01X22239Y2906D02*
G03X22294Y3008I-142J142D01*
G01*
G75*
G01X4647Y2853D02*
G03X4400Y2767I103J-696D01*
G01*
G75*
G01X4733Y3100D02*
G03X4647Y2853I610J-350D01*
G01*
G75*
G01X19733Y3100D02*
G03X19647Y2853I610J-350D01*
G01*
G75*
G01X19647Y2853D02*
G03X19400Y2767I103J-696D01*
G01*
G75*
G01X12233Y3100D02*
G03X12147Y2853I610J-350D01*
G01*
G75*
G01X12147Y2853D02*
G03X11900Y2767I103J-696D01*
G01*
G75*
G01X13792Y3052D02*
G03X13714Y3179I-635J-302D01*
G01*
G75*
G01X14621Y4086D02*
G03X14680Y4228I-143J142D01*
G01*
G75*
G01X14680Y4814D02*
G03X14728Y4840I-202J432D01*
G01*
G75*
G01X13838Y3123D02*
G03X13792Y3052I143J-143D01*
G01*
G75*
G01X21125Y3275D02*
G03X21039Y3340I-468J-525D01*
G01*
G75*
G01X21039Y3340D02*
G03X21125Y3417I-289J410D01*
G01*
G75*
G01X5343Y3453D02*
G03X4993Y3359I0J-703D01*
G01*
G75*
G01X5263Y3630D02*
G03X5346Y3453I487J120D01*
G01*
G75*
G01X20263Y3630D02*
G03X20346Y3453I487J120D01*
G01*
G75*
G01X20343Y3453D02*
G03X19993Y3359I0J-703D01*
G01*
G75*
G01X12843Y3453D02*
G03X12493Y3359I0J-703D01*
G01*
G75*
G01X12763Y3630D02*
G03X12846Y3453I487J120D01*
G01*
G75*
G01X21125Y4083D02*
G03X21039Y4160I-375J-333D01*
G01*
G75*
G01X21039Y4160D02*
G03X21125Y4225I-382J590D01*
G01*
G75*
G01X21978Y5723D02*
G03X21506Y5312I0J-477D01*
G01*
G75*
G01X21506Y5312D02*
G03X21469Y5364I-180J-91D01*
G01*
G75*
G01X19594Y7239D02*
G03X19492Y7294I-143J-143D01*
G01*
G75*
G01X22031Y7343D02*
G02X22344Y7031I0J-312D01*
G01*
G75*
G01X22344Y5552D02*
G03X21978Y5723I-366J-306D01*
G01*
G75*
G01X20832Y5431D02*
G03X20657Y5453I-175J-681D01*
G01*
G75*
G01X20453Y5657D02*
G03X20431Y5832I-703J0D01*
G01*
G75*
G01X10120Y7651D02*
G03X10282Y8010I-314J359D01*
G01*
G75*
G01X10282Y8010D02*
G03X10254Y8173I-476J0D01*
G01*
G75*
G01X10393Y8312D02*
G03X10452Y8454I-142J142D01*
G01*
G75*
G01X10452Y8670D02*
G03X10840Y8961I-202J673D01*
G01*
G75*
G01X10840Y8961D02*
G03X11250Y8749I410J289D01*
G01*
G75*
G01X11250Y8749D02*
G03X11660Y8961I0J501D01*
G01*
G75*
G01X11660Y8961D02*
G03X12250Y8640I590J382D01*
G01*
G75*
G01X12250Y8640D02*
G03X12953Y9343I0J703D01*
G01*
G75*
G01X13157Y9547D02*
G03X13671Y9770I0J703D01*
G01*
G75*
G01X12759Y8648D02*
G03X12561Y8487I-1J-202D01*
G01*
G75*
G01X12434Y8487D02*
G03X12282Y8335I0J-152D01*
G01*
G75*
G01X12282Y7685D02*
G03X12286Y7651I152J0D01*
G01*
G75*
G01X11547Y9654D02*
G03X11370Y9737I-297J-404D01*
G01*
G75*
G01X11641Y10007D02*
G03X11547Y9657I609J-350D01*
G01*
G75*
G01X10923Y9860D02*
G03X10353Y10353I-673J-203D01*
G01*
G75*
G01X10353Y10353D02*
G03X9657Y10953I-696J-103D01*
G01*
G75*
G01X9654Y10953D02*
G03X9752Y11250I-404J297D01*
G01*
G75*
G01X9752Y11250D02*
G03X9654Y11547I-502J0D01*
G01*
G75*
G01X9657Y11547D02*
G03X10353Y12147I0J703D01*
G01*
G75*
G01X10353Y12147D02*
G03X10953Y12843I-103J696D01*
G01*
G75*
G01X10953Y12846D02*
G03X11250Y12749I297J404D01*
G01*
G75*
G01X11250Y12749D02*
G03X11547Y12846I0J501D01*
G01*
G75*
G01X11547Y12843D02*
G03X12147Y12147I703J0D01*
G01*
G75*
G01X12147Y12147D02*
G03X12588Y11595I696J103D01*
G01*
G75*
G01X12194Y11131D02*
G03X12202Y11250I-944J119D01*
G01*
G75*
G01X12202Y11250D02*
G03X11250Y12201I-952J0D01*
G01*
G75*
G01X11250Y12201D02*
G03X10298Y11250I0J-951D01*
G01*
G75*
G01X10298Y11250D02*
G03X11250Y10299I952J0D01*
G01*
G75*
G01X11250Y10299D02*
G03X11369Y10306I0J951D01*
G01*
G75*
G01X14074Y12494D02*
G03X14478Y12270I404J252D01*
G01*
G75*
G01X14478Y12270D02*
G03X14844Y12440I0J476D01*
G01*
G75*
G01X14232Y11992D02*
G03X14081Y11841I0J-151D01*
G01*
G75*
G01X14081Y10659D02*
G03X14232Y10508I151J0D01*
G01*
G75*
G01X14293Y10508D02*
G03X14277Y10430I185J-78D01*
G01*
G75*
G01X14153Y10270D02*
G03X14074Y10247I0J-152D01*
G01*
G75*
G01X14844Y10264D02*
G03X14803Y10270I-41J-146D01*
G01*
G75*
G01X14739Y10406D02*
G03X14794Y10508I-142J142D01*
G01*
G75*
G01X12233Y10600D02*
G03X12147Y10353I610J-350D01*
G01*
G75*
G01X12147Y10353D02*
G03X11900Y10267I103J-696D01*
G01*
G75*
G01X13671Y10730D02*
G03X13539Y10840I-514J-480D01*
G01*
G75*
G01X13539Y10840D02*
G03X13671Y10977I-289J410D01*
G01*
G75*
G01X12763Y11130D02*
G03X12846Y10953I487J120D01*
G01*
G75*
G01X12843Y10953D02*
G03X12493Y10859I0J-703D01*
G01*
G75*
G01X13671Y11523D02*
G03X13539Y11660I-421J-273D01*
G01*
G75*
G01X13539Y11660D02*
G03X13671Y11770I-382J590D01*
G01*
G75*
G01X14478Y13223D02*
G03X14008Y12824I0J-477D01*
G01*
G75*
G01X12094Y14739D02*
G03X11992Y14794I-143J-143D01*
G01*
G75*
G01X14531Y14843D02*
G02X14844Y14531I0J-312D01*
G01*
G75*
G01X14844Y13052D02*
G03X14478Y13223I-366J-306D01*
G01*
G75*
G01X13332Y12931D02*
G03X13157Y12953I-175J-681D01*
G01*
G75*
G01X12953Y13157D02*
G03X12931Y13332I-703J0D01*
G01*
G36*
G01X14803Y9468D02*
G01X14153Y9468D01*
G01X14153Y10118D01*
G01X14803Y10118D01*
G01X14803Y9468D01*
G37*
G54D13*
G01X14478Y12746D03*
G54D12*
G01X12758Y8010D03*
G54D13*
G01X9805Y8009D03*
G54D14*
G01X11250Y14596D03*
G54D15*
G01X14596Y11249D03*
G01X7903Y11249D03*
G36*
G01X7303Y1968D02*
G01X6653Y1968D01*
G01X6653Y2618D01*
G01X7303Y2618D01*
G01X7303Y1968D01*
G37*
G54D13*
G01X6978Y5246D03*
G54D12*
G01X5258Y510D03*
G54D13*
G01X2305Y509D03*
G54D14*
G01X3750Y7096D03*
G01X3750Y403D03*
G54D15*
G01X403Y3749D03*
G36*
G01X14803Y1968D02*
G01X14153Y1968D01*
G01X14153Y2618D01*
G01X14803Y2618D01*
G01X14803Y1968D01*
G37*
G54D13*
G01X14478Y5246D03*
G54D12*
G01X12758Y510D03*
G54D13*
G01X9805Y509D03*
G54D14*
G01X11250Y403D03*
G36*
G01X22303Y1968D02*
G01X21653Y1968D01*
G01X21653Y2618D01*
G01X22303Y2618D01*
G01X22303Y1968D01*
G37*
G54D13*
G01X21978Y5246D03*
G54D12*
G01X20258Y510D03*
G54D13*
G01X17305Y509D03*
G54D14*
G01X18750Y7096D03*
G54D15*
G01X22096Y3749D03*
G54D14*
G01X18750Y403D03*
G54D16*
G01X10250Y13157D02*
G01X10250Y12842D01*
G01X9342Y12249D02*
G01X9657Y12249D01*
G01X12250Y9657D02*
G01X12250Y9342D01*
G01X12842Y10249D02*
G01X13157Y10249D01*
G01X10250Y9657D02*
G01X10250Y9342D01*
G01X9342Y10249D02*
G01X9657Y10249D01*
G01X12842Y12249D02*
G01X13157Y12249D01*
G01X12250Y13157D02*
G01X12250Y12842D01*
G01X2750Y5657D02*
G01X2750Y5342D01*
G01X1842Y4749D02*
G01X2157Y4749D01*
G01X4750Y2157D02*
G01X4750Y1842D01*
G01X5342Y2749D02*
G01X5657Y2749D01*
G01X2750Y2157D02*
G01X2750Y1842D01*
G01X1842Y2749D02*
G01X2157Y2749D01*
G01X5342Y4749D02*
G01X5657Y4749D01*
G01X4750Y5657D02*
G01X4750Y5342D01*
G01X10250Y5657D02*
G01X10250Y5342D01*
G01X9342Y4749D02*
G01X9657Y4749D01*
G01X12250Y2157D02*
G01X12250Y1842D01*
G01X12842Y2749D02*
G01X13157Y2749D01*
G01X10250Y2157D02*
G01X10250Y1842D01*
G01X9342Y2749D02*
G01X9657Y2749D01*
G01X12842Y4749D02*
G01X13157Y4749D01*
G01X12250Y5657D02*
G01X12250Y5342D01*
G01X17750Y5657D02*
G01X17750Y5342D01*
G01X16842Y4749D02*
G01X17157Y4749D01*
G01X19750Y2157D02*
G01X19750Y1842D01*
G01X20342Y2749D02*
G01X20657Y2749D01*
G01X17750Y2157D02*
G01X17750Y1842D01*
G01X16842Y2749D02*
G01X17157Y2749D01*
G01X20342Y4749D02*
G01X20657Y4749D01*
G01X19750Y5657D02*
G01X19750Y5342D01*
M00*
M02*
