G04 Layer: TopLayer*
G04 EasyEDA v6.1.49, Wed, 05 Jun 2019 22:56:44 GMT*
G04 6b520eb5fea8430f926b6e8f94950312,d502dfb0143049649cf38511bf809cad,10*
G04 Gerber Generator version 0.2*
G04 Scale: 100 percent, Rotated: No, Reflected: No *
G04 Dimensions in inches *
G04 leading zeros omitted , absolute positions ,2 integer and 4 decimal *
%FSLAX24Y24*%
%MOIN*%
G90*
G70D02*

%ADD10C,0.010000*%
%ADD12R,0.065000X0.065000*%
%ADD13C,0.065000*%
%ADD14R,0.118110X0.072835*%
%ADD15R,0.072835X0.118110*%
%ADD16C,0.110236*%

%LPD*%
G54D10*
G01X13130Y10718D02*
G01X10848Y13000D01*
G01X10250Y13000D01*
G01X14478Y12746D02*
G01X13973Y12241D01*
G01X13973Y11307D01*
G01X13383Y10718D01*
G01X13130Y10718D01*
G01X13130Y10718D02*
G01X13130Y10380D01*
G01X13000Y10250D01*
G01X7903Y11250D02*
G01X7903Y10548D01*
G01X14478Y9793D02*
G01X14042Y9793D01*
G01X14042Y9793D02*
G01X12910Y8661D01*
G01X9790Y8661D01*
G01X7903Y10548D01*
G01X12758Y510D02*
G01X12322Y510D01*
G01X11250Y403D02*
G01X12216Y403D01*
G01X12322Y510D01*
G01X6978Y5246D02*
G01X5858Y6366D01*
G01X3616Y6366D01*
G01X2750Y5500D01*
G01X2305Y510D02*
G01X2305Y1556D01*
G01X2750Y2000D01*
G01X14914Y1161D02*
G01X8545Y1161D01*
G01X7414Y2293D01*
G01X21542Y2293D02*
G01X20410Y1161D01*
G01X14914Y1161D01*
G01X14914Y1161D02*
G01X14914Y2293D01*
G01X6978Y2293D02*
G01X7414Y2293D01*
G01X14478Y2293D02*
G01X14914Y2293D01*
G01X21978Y2293D02*
G01X21542Y2293D01*
G01X5258Y510D02*
G01X4822Y510D01*
G01X3750Y403D02*
G01X4716Y403D01*
G01X4822Y510D01*
G01X13000Y2750D02*
G01X13000Y3348D01*
G01X10848Y5500D01*
G01X10250Y5500D01*
G01X20630Y3218D02*
G01X18348Y5500D01*
G01X17750Y5500D01*
G01X21978Y5246D02*
G01X21473Y4741D01*
G01X21473Y3807D01*
G01X20883Y3218D01*
G01X20630Y3218D01*
G01X20630Y3218D02*
G01X20630Y2880D01*
G01X20500Y2750D01*
G01X20258Y510D02*
G01X19822Y510D01*
G01X18750Y403D02*
G01X19716Y403D01*
G01X19822Y510D01*
G01X156Y468D02*
G01X156Y3007D01*
G01X156Y3007D02*
G01X767Y3007D01*
G01X919Y3159D02*
G01X919Y4340D01*
G01X767Y4492D02*
G01X156Y4492D01*
G01X156Y4492D02*
G01X156Y7031D01*
G01X468Y7343D02*
G01X3007Y7343D01*
G01X3007Y7343D02*
G01X3007Y6732D01*
G01X3159Y6580D02*
G01X4340Y6580D01*
G01X4492Y6732D02*
G01X4492Y7343D01*
G01X4492Y7343D02*
G01X7031Y7343D01*
G01X7656Y7968D02*
G01X7656Y10507D01*
G01X7656Y10507D02*
G01X7706Y10507D01*
G01X7761Y10405D02*
G01X9648Y8518D01*
G01X9492Y7651D02*
G01X9375Y7651D01*
G01X9223Y7500D02*
G01X9223Y6950D01*
G01X9375Y6798D02*
G01X13279Y6798D01*
G01X13430Y6950D02*
G01X13430Y7500D01*
G01X13279Y7651D02*
G01X13231Y7651D01*
G01X13235Y7685D02*
G01X13235Y8335D01*
G01X13083Y8486D02*
G01X13010Y8486D01*
G01X13052Y8518D02*
G01X14001Y9467D01*
G01X14153Y9316D02*
G01X14803Y9316D01*
G01X14843Y9322D02*
G01X14843Y7968D01*
G01X15468Y7343D02*
G01X18007Y7343D01*
G01X18007Y7343D02*
G01X18007Y6732D01*
G01X18159Y6580D02*
G01X19340Y6580D01*
G01X19492Y6732D02*
G01X19492Y7343D01*
G01X19492Y7343D02*
G01X22031Y7343D01*
G01X22343Y7031D02*
G01X22343Y5552D01*
G01X21530Y5083D02*
G01X21344Y4897D01*
G01X20657Y5452D02*
G01X20452Y5452D01*
G01X20452Y5452D02*
G01X20452Y5657D01*
G01X17047Y5657D02*
G01X17047Y5452D01*
G01X17047Y5452D02*
G01X16842Y5452D01*
G01X16842Y2047D02*
G01X17047Y2047D01*
G01X17047Y2047D02*
G01X17047Y1842D01*
G01X17236Y1362D02*
G01X15115Y1362D01*
G01X15115Y1362D02*
G01X15115Y2293D01*
G01X14954Y2490D02*
G01X14954Y2618D01*
G01X14803Y2769D02*
G01X14153Y2769D01*
G01X14001Y2618D02*
G01X14001Y1968D01*
G01X14153Y1816D02*
G01X14713Y1816D01*
G01X14713Y1816D02*
G01X14713Y1362D01*
G01X14713Y1362D02*
G01X12763Y1362D01*
G01X12952Y1842D02*
G01X12952Y2047D01*
G01X12952Y2047D02*
G01X13157Y2047D01*
G01X13157Y5452D02*
G01X12952Y5452D01*
G01X12952Y5452D02*
G01X12952Y5657D01*
G01X9547Y5657D02*
G01X9547Y5452D01*
G01X9547Y5452D02*
G01X9342Y5452D01*
G01X9342Y2047D02*
G01X9547Y2047D01*
G01X9547Y2047D02*
G01X9547Y1842D01*
G01X9736Y1362D02*
G01X8629Y1362D01*
G01X8629Y1362D02*
G01X7557Y2435D01*
G01X7454Y2490D02*
G01X7454Y2618D01*
G01X7303Y2769D02*
G01X6653Y2769D01*
G01X6501Y2618D02*
G01X6501Y1968D01*
G01X6653Y1816D02*
G01X7303Y1816D01*
G01X7454Y1967D02*
G01X8402Y1018D01*
G01X8545Y959D02*
G01X9648Y959D01*
G01X9486Y156D02*
G01X5732Y156D01*
G01X5735Y185D02*
G01X5735Y835D01*
G01X5583Y986D02*
G01X4933Y986D01*
G01X4782Y835D02*
G01X4782Y707D01*
G01X4679Y652D02*
G01X4632Y604D01*
G01X4632Y604D02*
G01X4492Y604D01*
G01X4492Y604D02*
G01X4492Y767D01*
G01X4340Y919D02*
G01X3159Y919D01*
G01X3007Y767D02*
G01X3007Y156D01*
G01X3007Y156D02*
G01X2625Y156D01*
G01X2506Y941D02*
G01X2506Y1183D01*
G01X5452Y1842D02*
G01X5452Y2047D01*
G01X5452Y2047D02*
G01X5657Y2047D01*
G01X5657Y5452D02*
G01X5452Y5452D01*
G01X5452Y5452D02*
G01X5452Y5657D01*
G01X5236Y6164D02*
G01X5775Y6164D01*
G01X5775Y6164D02*
G01X6530Y5409D01*
G01X6815Y5693D02*
G01X6000Y6508D01*
G01X5858Y6567D02*
G01X3616Y6567D01*
G01X3474Y6508D02*
G01X3179Y6213D01*
G01X2047Y5657D02*
G01X2047Y5452D01*
G01X2047Y5452D02*
G01X1842Y5452D01*
G01X1842Y2047D02*
G01X2047Y2047D01*
G01X2047Y2047D02*
G01X2047Y1842D01*
G01X2103Y1556D02*
G01X2103Y941D01*
G01X1986Y156D02*
G01X468Y156D01*
G01X184Y339D02*
G01X1861Y339D01*
G01X2750Y339D02*
G01X3007Y339D01*
G01X5735Y339D02*
G01X9361Y339D01*
G01X156Y541D02*
G01X1830Y541D01*
G01X2781Y541D02*
G01X3007Y541D01*
G01X5735Y541D02*
G01X9330Y541D01*
G01X156Y743D02*
G01X1890Y743D01*
G01X2721Y743D02*
G01X3007Y743D01*
G01X4492Y743D02*
G01X4782Y743D01*
G01X5735Y743D02*
G01X9390Y743D01*
G01X156Y945D02*
G01X2103Y945D01*
G01X2506Y945D02*
G01X4829Y945D01*
G01X5687Y945D02*
G01X9611Y945D01*
G01X156Y1147D02*
G01X2103Y1147D01*
G01X2506Y1147D02*
G01X2648Y1147D01*
G01X2851Y1147D02*
G01X4648Y1147D01*
G01X4851Y1147D02*
G01X8274Y1147D01*
G01X156Y1349D02*
G01X2103Y1349D01*
G01X3250Y1349D02*
G01X3448Y1349D01*
G01X4051Y1349D02*
G01X4249Y1349D01*
G01X5250Y1349D02*
G01X8072Y1349D01*
G01X156Y1551D02*
G01X2103Y1551D01*
G01X5389Y1551D02*
G01X7871Y1551D01*
G01X8440Y1551D02*
G01X9610Y1551D01*
G01X12889Y1551D02*
G01X14713Y1551D01*
G01X15115Y1551D02*
G01X17110Y1551D01*
G01X156Y1753D02*
G01X2053Y1753D01*
G01X5446Y1753D02*
G01X7669Y1753D01*
G01X8238Y1753D02*
G01X9553Y1753D01*
G01X12946Y1753D02*
G01X14713Y1753D01*
G01X15115Y1753D02*
G01X17053Y1753D01*
G01X156Y1955D02*
G01X2047Y1955D01*
G01X5452Y1955D02*
G01X6502Y1955D01*
G01X7454Y1955D02*
G01X7467Y1955D01*
G01X8037Y1955D02*
G01X9547Y1955D01*
G01X12952Y1955D02*
G01X14002Y1955D01*
G01X15115Y1955D02*
G01X17047Y1955D01*
G01X156Y2157D02*
G01X1465Y2157D01*
G01X6034Y2157D02*
G01X6501Y2157D01*
G01X7835Y2157D02*
G01X8965Y2157D01*
G01X13534Y2157D02*
G01X14001Y2157D01*
G01X15115Y2157D02*
G01X16465Y2157D01*
G01X156Y2359D02*
G01X1258Y2359D01*
G01X6241Y2359D02*
G01X6501Y2359D01*
G01X7633Y2359D02*
G01X8758Y2359D01*
G01X13741Y2359D02*
G01X14001Y2359D01*
G01X15104Y2359D02*
G01X16258Y2359D01*
G01X156Y2561D02*
G01X1165Y2561D01*
G01X6334Y2561D02*
G01X6501Y2561D01*
G01X7454Y2561D02*
G01X8665Y2561D01*
G01X13834Y2561D02*
G01X14001Y2561D01*
G01X14954Y2561D02*
G01X16165Y2561D01*
G01X156Y2763D02*
G01X1139Y2763D01*
G01X6360Y2763D02*
G01X6609Y2763D01*
G01X7347Y2763D02*
G01X8639Y2763D01*
G01X13860Y2763D02*
G01X14109Y2763D01*
G01X14847Y2763D02*
G01X16139Y2763D01*
G01X156Y2965D02*
G01X1173Y2965D01*
G01X6326Y2965D02*
G01X8673Y2965D01*
G01X13826Y2965D02*
G01X16173Y2965D01*
G01X919Y3167D02*
G01X1277Y3167D01*
G01X6222Y3167D02*
G01X8777Y3167D01*
G01X13722Y3167D02*
G01X16277Y3167D01*
G01X919Y3369D02*
G01X1423Y3369D01*
G01X6076Y3369D02*
G01X8923Y3369D01*
G01X13576Y3369D02*
G01X16423Y3369D01*
G01X919Y3571D02*
G01X1281Y3571D01*
G01X6218Y3571D02*
G01X8781Y3571D01*
G01X13718Y3571D02*
G01X16281Y3571D01*
G01X919Y3773D02*
G01X1249Y3773D01*
G01X6250Y3773D02*
G01X8749Y3773D01*
G01X13750Y3773D02*
G01X16249Y3773D01*
G01X919Y3975D02*
G01X1301Y3975D01*
G01X6198Y3975D02*
G01X8801Y3975D01*
G01X13698Y3975D02*
G01X16301Y3975D01*
G01X919Y4177D02*
G01X1435Y4177D01*
G01X6064Y4177D02*
G01X8935Y4177D01*
G01X13564Y4177D02*
G01X16435Y4177D01*
G01X914Y4379D02*
G01X1245Y4379D01*
G01X6254Y4379D02*
G01X8745Y4379D01*
G01X13754Y4379D02*
G01X16245Y4379D01*
G01X156Y4581D02*
G01X1160Y4581D01*
G01X6339Y4581D02*
G01X8660Y4581D01*
G01X13839Y4581D02*
G01X16160Y4581D01*
G01X156Y4783D02*
G01X1140Y4783D01*
G01X6359Y4783D02*
G01X6865Y4783D01*
G01X7091Y4783D02*
G01X8640Y4783D01*
G01X13859Y4783D02*
G01X14365Y4783D01*
G01X14591Y4783D02*
G01X16140Y4783D01*
G01X156Y4985D02*
G01X1180Y4985D01*
G01X6319Y4985D02*
G01X6579Y4985D01*
G01X7377Y4985D02*
G01X8680Y4985D01*
G01X13819Y4985D02*
G01X14079Y4985D01*
G01X14877Y4985D02*
G01X16180Y4985D01*
G01X21319Y4985D02*
G01X21432Y4985D01*
G01X156Y5187D02*
G01X1292Y5187D01*
G01X6207Y5187D02*
G01X6505Y5187D01*
G01X7451Y5187D02*
G01X8792Y5187D01*
G01X13707Y5187D02*
G01X14005Y5187D01*
G01X14951Y5187D02*
G01X16292Y5187D01*
G01X21207Y5187D02*
G01X21505Y5187D01*
G01X156Y5389D02*
G01X1550Y5389D01*
G01X5949Y5389D02*
G01X6523Y5389D01*
G01X7432Y5389D02*
G01X9050Y5389D01*
G01X13449Y5389D02*
G01X14023Y5389D01*
G01X14932Y5389D02*
G01X16550Y5389D01*
G01X20949Y5389D02*
G01X21523Y5389D01*
G01X156Y5591D02*
G01X2047Y5591D01*
G01X5452Y5591D02*
G01X6348Y5591D01*
G01X7306Y5591D02*
G01X9547Y5591D01*
G01X12952Y5591D02*
G01X14149Y5591D01*
G01X14806Y5591D02*
G01X17047Y5591D01*
G01X20452Y5591D02*
G01X21649Y5591D01*
G01X22306Y5591D02*
G01X22343Y5591D01*
G01X156Y5793D02*
G01X2060Y5793D01*
G01X5439Y5793D02*
G01X6146Y5793D01*
G01X6716Y5793D02*
G01X9560Y5793D01*
G01X12939Y5793D02*
G01X17060Y5793D01*
G01X20439Y5793D02*
G01X22343Y5793D01*
G01X156Y5995D02*
G01X2133Y5995D01*
G01X5366Y5995D02*
G01X5944Y5995D01*
G01X6514Y5995D02*
G01X9633Y5995D01*
G01X12866Y5995D02*
G01X17133Y5995D01*
G01X20366Y5995D02*
G01X22343Y5995D01*
G01X156Y6197D02*
G01X2300Y6197D01*
G01X6312Y6197D02*
G01X9800Y6197D01*
G01X10699Y6197D02*
G01X11023Y6197D01*
G01X11476Y6197D02*
G01X11800Y6197D01*
G01X12699Y6197D02*
G01X17300Y6197D01*
G01X18199Y6197D02*
G01X18523Y6197D01*
G01X18976Y6197D02*
G01X19300Y6197D01*
G01X20199Y6197D02*
G01X22343Y6197D01*
G01X156Y6399D02*
G01X3364Y6399D01*
G01X6110Y6399D02*
G01X22343Y6399D01*
G01X156Y6601D02*
G01X3083Y6601D01*
G01X4416Y6601D02*
G01X18083Y6601D01*
G01X19416Y6601D02*
G01X22343Y6601D01*
G01X156Y6803D02*
G01X3007Y6803D01*
G01X4492Y6803D02*
G01X9337Y6803D01*
G01X13316Y6803D02*
G01X18007Y6803D01*
G01X19492Y6803D02*
G01X22343Y6803D01*
G01X156Y7005D02*
G01X3007Y7005D01*
G01X4492Y7005D02*
G01X9223Y7005D01*
G01X13430Y7005D02*
G01X18007Y7005D01*
G01X19492Y7005D02*
G01X22343Y7005D01*
G01X210Y7207D02*
G01X3007Y7207D01*
G01X4492Y7207D02*
G01X9223Y7207D01*
G01X13430Y7207D02*
G01X18007Y7207D01*
G01X19492Y7207D02*
G01X22289Y7207D01*
G01X7310Y7409D02*
G01X9223Y7409D01*
G01X13430Y7409D02*
G01X15189Y7409D01*
G01X7544Y7611D02*
G01X9272Y7611D01*
G01X13381Y7611D02*
G01X14955Y7611D01*
G01X7636Y7813D02*
G01X9371Y7813D01*
G01X13235Y7813D02*
G01X14863Y7813D01*
G01X7656Y8015D02*
G01X9329Y8015D01*
G01X13235Y8015D02*
G01X14843Y8015D01*
G01X7656Y8217D02*
G01X9376Y8217D01*
G01X13235Y8217D02*
G01X14843Y8217D01*
G01X7656Y8419D02*
G01X9561Y8419D01*
G01X13209Y8419D02*
G01X14843Y8419D01*
G01X7656Y8621D02*
G01X9545Y8621D01*
G01X13155Y8621D02*
G01X14843Y8621D01*
G01X7656Y8823D02*
G01X9343Y8823D01*
G01X13357Y8823D02*
G01X14843Y8823D01*
G01X7656Y9025D02*
G01X9141Y9025D01*
G01X13559Y9025D02*
G01X14843Y9025D01*
G01X7656Y9227D02*
G01X8939Y9227D01*
G01X13761Y9227D02*
G01X14843Y9227D01*
G01X7656Y9429D02*
G01X8737Y9429D01*
G01X13963Y9429D02*
G01X14006Y9429D01*
G01X7656Y9631D02*
G01X8535Y9631D01*
G01X7656Y9833D02*
G01X8333Y9833D01*
G01X7656Y10035D02*
G01X8131Y10035D01*
G01X7656Y10237D02*
G01X7929Y10237D01*
G01X7656Y10439D02*
G01X7734Y10439D01*
G01X22160Y5686D02*
G01X22160Y7315D01*
G01X21958Y5722D02*
G01X21958Y7343D01*
G01X21756Y5667D02*
G01X21756Y7343D01*
G01X21554Y5464D02*
G01X21554Y7343D01*
G01X21352Y4905D02*
G01X21352Y7343D01*
G01X21150Y5250D02*
G01X21150Y7343D01*
G01X20948Y5389D02*
G01X20948Y7343D01*
G01X20746Y5446D02*
G01X20746Y7343D01*
G01X20544Y5452D02*
G01X20544Y7343D01*
G01X20342Y6034D02*
G01X20342Y7343D01*
G01X20140Y6241D02*
G01X20140Y7343D01*
G01X19938Y6334D02*
G01X19938Y7343D01*
G01X19736Y6360D02*
G01X19736Y7343D01*
G01X19534Y6326D02*
G01X19534Y7343D01*
G01X19332Y6222D02*
G01X19332Y6580D01*
G01X19130Y6076D02*
G01X19130Y6580D01*
G01X18928Y6218D02*
G01X18928Y6580D01*
G01X18726Y6250D02*
G01X18726Y6580D01*
G01X18524Y6198D02*
G01X18524Y6580D01*
G01X18322Y6064D02*
G01X18322Y6580D01*
G01X18120Y6254D02*
G01X18120Y6585D01*
G01X17918Y6339D02*
G01X17918Y7343D01*
G01X17716Y6359D02*
G01X17716Y7343D01*
G01X17514Y6319D02*
G01X17514Y7343D01*
G01X17312Y6207D02*
G01X17312Y7343D01*
G01X17110Y1362D02*
G01X17110Y1550D01*
G01X17110Y5949D02*
G01X17110Y7343D01*
G01X16908Y1362D02*
G01X16908Y2047D01*
G01X16908Y5452D02*
G01X16908Y7343D01*
G01X16706Y1362D02*
G01X16706Y2060D01*
G01X16706Y5439D02*
G01X16706Y7343D01*
G01X16504Y1362D02*
G01X16504Y2133D01*
G01X16504Y5366D02*
G01X16504Y7343D01*
G01X16302Y1362D02*
G01X16302Y2300D01*
G01X16302Y3199D02*
G01X16302Y3523D01*
G01X16302Y3976D02*
G01X16302Y4300D01*
G01X16302Y5199D02*
G01X16302Y7343D01*
G01X16100Y1362D02*
G01X16100Y7343D01*
G01X15898Y1362D02*
G01X15898Y7343D01*
G01X15696Y1362D02*
G01X15696Y7343D01*
G01X15494Y1362D02*
G01X15494Y7343D01*
G01X15292Y1362D02*
G01X15292Y7368D01*
G01X15090Y2390D02*
G01X15090Y7470D01*
G01X14888Y2743D02*
G01X14888Y5003D01*
G01X14888Y5488D02*
G01X14888Y7735D01*
G01X14686Y1362D02*
G01X14686Y1816D01*
G01X14686Y2769D02*
G01X14686Y4817D01*
G01X14686Y5674D02*
G01X14686Y9316D01*
G01X14484Y1362D02*
G01X14484Y1816D01*
G01X14484Y2769D02*
G01X14484Y4769D01*
G01X14484Y5722D02*
G01X14484Y9316D01*
G01X14282Y1362D02*
G01X14282Y1816D01*
G01X14282Y2769D02*
G01X14282Y4811D01*
G01X14282Y5680D02*
G01X14282Y9316D01*
G01X14080Y1362D02*
G01X14080Y1835D01*
G01X14080Y2751D02*
G01X14080Y4983D01*
G01X14080Y5508D02*
G01X14080Y9335D01*
G01X13878Y1362D02*
G01X13878Y9344D01*
G01X13676Y1362D02*
G01X13676Y2276D01*
G01X13676Y3223D02*
G01X13676Y3486D01*
G01X13676Y4013D02*
G01X13676Y4276D01*
G01X13676Y5223D02*
G01X13676Y9142D01*
G01X13474Y1362D02*
G01X13474Y2123D01*
G01X13474Y5376D02*
G01X13474Y8940D01*
G01X13272Y1362D02*
G01X13272Y2056D01*
G01X13272Y5443D02*
G01X13272Y6798D01*
G01X13272Y7651D02*
G01X13272Y8738D01*
G01X13070Y1362D02*
G01X13070Y2047D01*
G01X13070Y5452D02*
G01X13070Y6798D01*
G01X13070Y8486D02*
G01X13070Y8536D01*
G01X12868Y1362D02*
G01X12868Y1509D01*
G01X12868Y5990D02*
G01X12868Y6798D01*
G01X12666Y6223D02*
G01X12666Y6798D01*
G01X12464Y6326D02*
G01X12464Y6798D01*
G01X12262Y6360D02*
G01X12262Y6798D01*
G01X12060Y6334D02*
G01X12060Y6798D01*
G01X11858Y6241D02*
G01X11858Y6798D01*
G01X11656Y6043D02*
G01X11656Y6798D01*
G01X11454Y6207D02*
G01X11454Y6798D01*
G01X11252Y6251D02*
G01X11252Y6798D01*
G01X11050Y6210D02*
G01X11050Y6798D01*
G01X10848Y6050D02*
G01X10848Y6798D01*
G01X10646Y6237D02*
G01X10646Y6798D01*
G01X10444Y6332D02*
G01X10444Y6798D01*
G01X10242Y6360D02*
G01X10242Y6798D01*
G01X10040Y6328D02*
G01X10040Y6798D01*
G01X9838Y6227D02*
G01X9838Y6798D01*
G01X9636Y955D02*
G01X9636Y959D01*
G01X9636Y1362D02*
G01X9636Y1499D01*
G01X9636Y6000D02*
G01X9636Y6798D01*
G01X9636Y8455D02*
G01X9636Y8530D01*
G01X9434Y156D02*
G01X9434Y211D01*
G01X9434Y808D02*
G01X9434Y959D01*
G01X9434Y1362D02*
G01X9434Y2047D01*
G01X9434Y5452D02*
G01X9434Y6798D01*
G01X9434Y7651D02*
G01X9434Y7711D01*
G01X9434Y8308D02*
G01X9434Y8732D01*
G01X9232Y156D02*
G01X9232Y959D01*
G01X9232Y1362D02*
G01X9232Y2055D01*
G01X9232Y5444D02*
G01X9232Y6898D01*
G01X9232Y7551D02*
G01X9232Y8934D01*
G01X9030Y156D02*
G01X9030Y959D01*
G01X9030Y1362D02*
G01X9030Y2120D01*
G01X9030Y5379D02*
G01X9030Y9136D01*
G01X8828Y156D02*
G01X8828Y959D01*
G01X8828Y1362D02*
G01X8828Y2270D01*
G01X8828Y3229D02*
G01X8828Y3477D01*
G01X8828Y4022D02*
G01X8828Y4270D01*
G01X8828Y5229D02*
G01X8828Y9338D01*
G01X8626Y156D02*
G01X8626Y959D01*
G01X8626Y1365D02*
G01X8626Y9540D01*
G01X8424Y156D02*
G01X8424Y999D01*
G01X8424Y1567D02*
G01X8424Y9742D01*
G01X8222Y156D02*
G01X8222Y1199D01*
G01X8222Y1769D02*
G01X8222Y9944D01*
G01X8020Y156D02*
G01X8020Y1401D01*
G01X8020Y1971D02*
G01X8020Y10146D01*
G01X7818Y156D02*
G01X7818Y1603D01*
G01X7818Y2173D02*
G01X7818Y10348D01*
G01X7616Y156D02*
G01X7616Y1805D01*
G01X7616Y2375D02*
G01X7616Y7749D01*
G01X7414Y156D02*
G01X7414Y1865D01*
G01X7414Y2720D02*
G01X7414Y5054D01*
G01X7414Y5437D02*
G01X7414Y7474D01*
G01X7212Y156D02*
G01X7212Y1816D01*
G01X7212Y2769D02*
G01X7212Y4831D01*
G01X7212Y5660D02*
G01X7212Y7370D01*
G01X7010Y156D02*
G01X7010Y1816D01*
G01X7010Y2769D02*
G01X7010Y4770D01*
G01X7010Y5721D02*
G01X7010Y7343D01*
G01X6808Y156D02*
G01X6808Y1816D01*
G01X6808Y2769D02*
G01X6808Y4800D01*
G01X6808Y5700D02*
G01X6808Y7343D01*
G01X6606Y156D02*
G01X6606Y1824D01*
G01X6606Y2762D02*
G01X6606Y4947D01*
G01X6606Y5902D02*
G01X6606Y7343D01*
G01X6404Y156D02*
G01X6404Y5535D01*
G01X6404Y6104D02*
G01X6404Y7343D01*
G01X6202Y156D02*
G01X6202Y2306D01*
G01X6202Y3193D02*
G01X6202Y3534D01*
G01X6202Y3965D02*
G01X6202Y4306D01*
G01X6202Y5193D02*
G01X6202Y5737D01*
G01X6202Y6306D02*
G01X6202Y7343D01*
G01X6000Y156D02*
G01X6000Y2136D01*
G01X6000Y5363D02*
G01X6000Y5939D01*
G01X6000Y6508D02*
G01X6000Y7343D01*
G01X5798Y156D02*
G01X5798Y2061D01*
G01X5798Y5438D02*
G01X5798Y6141D01*
G01X5798Y6567D02*
G01X5798Y7343D01*
G01X5596Y985D02*
G01X5596Y2047D01*
G01X5596Y5452D02*
G01X5596Y6164D01*
G01X5596Y6567D02*
G01X5596Y7343D01*
G01X5394Y986D02*
G01X5394Y1563D01*
G01X5394Y5936D02*
G01X5394Y6164D01*
G01X5394Y6567D02*
G01X5394Y7343D01*
G01X5192Y986D02*
G01X5192Y1296D01*
G01X5192Y6567D02*
G01X5192Y7343D01*
G01X4990Y986D02*
G01X4990Y1182D01*
G01X4990Y6567D02*
G01X4990Y7343D01*
G01X4788Y879D02*
G01X4788Y1140D01*
G01X4788Y6567D02*
G01X4788Y7343D01*
G01X4586Y604D02*
G01X4586Y1159D01*
G01X4586Y6567D02*
G01X4586Y7343D01*
G01X4384Y912D02*
G01X4384Y1242D01*
G01X4384Y6567D02*
G01X4384Y6587D01*
G01X4182Y919D02*
G01X4182Y1427D01*
G01X4182Y6567D02*
G01X4182Y6580D01*
G01X3980Y919D02*
G01X3980Y1304D01*
G01X3980Y6567D02*
G01X3980Y6580D01*
G01X3778Y919D02*
G01X3778Y1249D01*
G01X3778Y6567D02*
G01X3778Y6580D01*
G01X3576Y919D02*
G01X3576Y1279D01*
G01X3576Y6563D02*
G01X3576Y6580D01*
G01X3374Y919D02*
G01X3374Y1417D01*
G01X3374Y6409D02*
G01X3374Y6580D01*
G01X3172Y919D02*
G01X3172Y1281D01*
G01X3172Y6218D02*
G01X3172Y6580D01*
G01X2970Y156D02*
G01X2970Y1175D01*
G01X2970Y6324D02*
G01X2970Y7343D01*
G01X2768Y156D02*
G01X2768Y396D01*
G01X2768Y623D02*
G01X2768Y1140D01*
G01X2768Y6359D02*
G01X2768Y7343D01*
G01X2566Y908D02*
G01X2566Y1164D01*
G01X2566Y6335D02*
G01X2566Y7343D01*
G01X2364Y6245D02*
G01X2364Y7343D01*
G01X2162Y6043D02*
G01X2162Y7343D01*
G01X1960Y156D02*
G01X1960Y181D01*
G01X1960Y838D02*
G01X1960Y2047D01*
G01X1960Y5452D02*
G01X1960Y7343D01*
G01X1758Y156D02*
G01X1758Y2052D01*
G01X1758Y5447D02*
G01X1758Y7343D01*
G01X1556Y156D02*
G01X1556Y2108D01*
G01X1556Y5391D02*
G01X1556Y7343D01*
G01X1354Y156D02*
G01X1354Y2244D01*
G01X1354Y3255D02*
G01X1354Y3441D01*
G01X1354Y4058D02*
G01X1354Y4244D01*
G01X1354Y5255D02*
G01X1354Y7343D01*
G01X1152Y156D02*
G01X1152Y2615D01*
G01X1152Y2884D02*
G01X1152Y4615D01*
G01X1152Y4884D02*
G01X1152Y7343D01*
G01X950Y156D02*
G01X950Y7343D01*
G01X748Y156D02*
G01X748Y3007D01*
G01X748Y4492D02*
G01X748Y7343D01*
G01X546Y156D02*
G01X546Y3007D01*
G01X546Y4492D02*
G01X546Y7343D01*
G01X344Y182D02*
G01X344Y3007D01*
G01X344Y4492D02*
G01X344Y7317D01*
G01X10507Y767D02*
G01X10507Y156D01*
G01X10507Y156D02*
G01X10125Y156D01*
G01X9963Y959D02*
G01X12347Y959D01*
G01X12282Y835D02*
G01X12282Y707D01*
G01X12179Y652D02*
G01X12132Y604D01*
G01X12132Y604D02*
G01X11992Y604D01*
G01X11992Y604D02*
G01X11992Y767D01*
G01X11840Y919D02*
G01X10659Y919D01*
G01X10250Y339D02*
G01X10507Y339D01*
G01X10281Y541D02*
G01X10507Y541D01*
G01X10221Y743D02*
G01X10507Y743D01*
G01X11992Y743D02*
G01X12282Y743D01*
G01X9999Y945D02*
G01X12329Y945D01*
G01X12262Y702D02*
G01X12262Y959D01*
G01X12060Y604D02*
G01X12060Y959D01*
G01X11858Y918D02*
G01X11858Y959D01*
G01X11656Y919D02*
G01X11656Y959D01*
G01X11454Y919D02*
G01X11454Y959D01*
G01X11252Y919D02*
G01X11252Y959D01*
G01X11050Y919D02*
G01X11050Y959D01*
G01X10848Y919D02*
G01X10848Y959D01*
G01X10646Y918D02*
G01X10646Y959D01*
G01X10444Y156D02*
G01X10444Y959D01*
G01X10242Y156D02*
G01X10242Y319D01*
G01X10242Y700D02*
G01X10242Y959D01*
G01X10040Y924D02*
G01X10040Y959D01*
G01X18007Y767D02*
G01X18007Y156D01*
G01X18007Y156D02*
G01X17625Y156D01*
G01X17463Y959D02*
G01X19847Y959D01*
G01X19782Y835D02*
G01X19782Y707D01*
G01X19679Y652D02*
G01X19632Y604D01*
G01X19632Y604D02*
G01X19492Y604D01*
G01X19492Y604D02*
G01X19492Y767D01*
G01X19340Y919D02*
G01X18159Y919D01*
G01X17750Y339D02*
G01X18007Y339D01*
G01X17781Y541D02*
G01X18007Y541D01*
G01X17721Y743D02*
G01X18007Y743D01*
G01X19492Y743D02*
G01X19782Y743D01*
G01X17499Y945D02*
G01X19829Y945D01*
G01X19736Y692D02*
G01X19736Y959D01*
G01X19534Y604D02*
G01X19534Y959D01*
G01X19332Y919D02*
G01X19332Y959D01*
G01X19130Y919D02*
G01X19130Y959D01*
G01X18928Y919D02*
G01X18928Y959D01*
G01X18726Y919D02*
G01X18726Y959D01*
G01X18524Y919D02*
G01X18524Y959D01*
G01X18322Y919D02*
G01X18322Y959D01*
G01X18120Y914D02*
G01X18120Y959D01*
G01X17918Y156D02*
G01X17918Y959D01*
G01X17716Y156D02*
G01X17716Y268D01*
G01X17716Y751D02*
G01X17716Y959D01*
G01X17514Y938D02*
G01X17514Y959D01*
G01X4784Y156D02*
G01X4492Y156D01*
G01X4492Y156D02*
G01X4492Y201D01*
G01X4492Y201D02*
G01X4716Y201D01*
G01X4782Y212D02*
G01X4782Y185D01*
G01X4586Y156D02*
G01X4586Y201D01*
G01X13235Y185D02*
G01X13235Y835D01*
G01X13169Y959D02*
G01X14914Y959D01*
G01X14914Y959D02*
G01X17148Y959D01*
G01X16986Y156D02*
G01X13232Y156D01*
G01X13235Y339D02*
G01X16861Y339D01*
G01X13235Y541D02*
G01X16830Y541D01*
G01X13235Y743D02*
G01X16890Y743D01*
G01X13187Y945D02*
G01X17111Y945D01*
G01X17110Y944D02*
G01X17110Y959D01*
G01X16908Y156D02*
G01X16908Y246D01*
G01X16908Y773D02*
G01X16908Y959D01*
G01X16706Y156D02*
G01X16706Y959D01*
G01X16504Y156D02*
G01X16504Y959D01*
G01X16302Y156D02*
G01X16302Y959D01*
G01X16100Y156D02*
G01X16100Y959D01*
G01X15898Y156D02*
G01X15898Y959D01*
G01X15696Y156D02*
G01X15696Y959D01*
G01X15494Y156D02*
G01X15494Y959D01*
G01X15292Y156D02*
G01X15292Y959D01*
G01X15090Y156D02*
G01X15090Y959D01*
G01X14888Y156D02*
G01X14888Y959D01*
G01X14686Y156D02*
G01X14686Y959D01*
G01X14484Y156D02*
G01X14484Y959D01*
G01X14282Y156D02*
G01X14282Y959D01*
G01X14080Y156D02*
G01X14080Y959D01*
G01X13878Y156D02*
G01X13878Y959D01*
G01X13676Y156D02*
G01X13676Y959D01*
G01X13474Y156D02*
G01X13474Y959D01*
G01X13272Y156D02*
G01X13272Y959D01*
G01X19784Y156D02*
G01X19492Y156D01*
G01X19492Y156D02*
G01X19492Y201D01*
G01X19492Y201D02*
G01X19716Y201D01*
G01X19782Y212D02*
G01X19782Y185D01*
G01X19736Y156D02*
G01X19736Y202D01*
G01X19534Y156D02*
G01X19534Y201D01*
G01X12284Y156D02*
G01X11992Y156D01*
G01X11992Y156D02*
G01X11992Y201D01*
G01X11992Y201D02*
G01X12216Y201D01*
G01X12282Y212D02*
G01X12282Y185D01*
G01X12262Y156D02*
G01X12262Y207D01*
G01X12060Y156D02*
G01X12060Y201D01*
G01X20735Y185D02*
G01X20735Y835D01*
G01X20583Y986D02*
G01X20510Y986D01*
G01X20552Y1018D02*
G01X21501Y1967D01*
G01X21653Y1816D02*
G01X22303Y1816D01*
G01X22343Y1822D02*
G01X22343Y468D01*
G01X22031Y156D02*
G01X20732Y156D01*
G01X20735Y339D02*
G01X22315Y339D01*
G01X20735Y541D02*
G01X22343Y541D01*
G01X20735Y743D02*
G01X22343Y743D01*
G01X20687Y945D02*
G01X22343Y945D01*
G01X20681Y1147D02*
G01X22343Y1147D01*
G01X20883Y1349D02*
G01X22343Y1349D01*
G01X21085Y1551D02*
G01X22343Y1551D01*
G01X21287Y1753D02*
G01X22343Y1753D01*
G01X21489Y1955D02*
G01X21502Y1955D01*
G01X22160Y184D02*
G01X22160Y1816D01*
G01X21958Y156D02*
G01X21958Y1816D01*
G01X21756Y156D02*
G01X21756Y1816D01*
G01X21554Y156D02*
G01X21554Y1853D01*
G01X21352Y156D02*
G01X21352Y1818D01*
G01X21150Y156D02*
G01X21150Y1616D01*
G01X20948Y156D02*
G01X20948Y1414D01*
G01X20746Y156D02*
G01X20746Y1212D01*
G01X20544Y986D02*
G01X20544Y1010D01*
G01X20452Y1842D02*
G01X20452Y2047D01*
G01X20452Y2047D02*
G01X20657Y2047D01*
G01X21175Y3224D02*
G01X21580Y3629D01*
G01X21580Y3629D02*
G01X21580Y3159D01*
G01X21732Y3007D02*
G01X22343Y3007D01*
G01X22343Y3007D02*
G01X22343Y2764D01*
G01X22303Y2769D02*
G01X21653Y2769D01*
G01X21501Y2618D02*
G01X21501Y2490D01*
G01X21400Y2435D02*
G01X20327Y1362D01*
G01X20327Y1362D02*
G01X20263Y1362D01*
G01X20389Y1551D02*
G01X20515Y1551D01*
G01X20446Y1753D02*
G01X20717Y1753D01*
G01X20452Y1955D02*
G01X20919Y1955D01*
G01X21034Y2157D02*
G01X21121Y2157D01*
G01X21241Y2359D02*
G01X21323Y2359D01*
G01X21334Y2561D02*
G01X21501Y2561D01*
G01X21360Y2763D02*
G01X21609Y2763D01*
G01X21326Y2965D02*
G01X22343Y2965D01*
G01X21222Y3167D02*
G01X21580Y3167D01*
G01X21319Y3369D02*
G01X21580Y3369D01*
G01X21522Y3571D02*
G01X21580Y3571D01*
G01X22160Y2769D02*
G01X22160Y3007D01*
G01X21958Y2769D02*
G01X21958Y3007D01*
G01X21756Y2769D02*
G01X21756Y3007D01*
G01X21554Y2733D02*
G01X21554Y3603D01*
G01X21352Y2388D02*
G01X21352Y2648D01*
G01X21352Y2851D02*
G01X21352Y3401D01*
G01X21150Y2186D02*
G01X21150Y2249D01*
G01X20948Y1984D02*
G01X20948Y2110D01*
G01X20746Y1782D02*
G01X20746Y2053D01*
G01X20544Y1580D02*
G01X20544Y2047D01*
G01X20342Y1378D02*
G01X20342Y1465D01*
G01X18431Y1362D02*
G01X18263Y1362D01*
G01X18322Y1362D02*
G01X18322Y1435D01*
G01X10931Y1362D02*
G01X10763Y1362D01*
G01X10848Y1362D02*
G01X10848Y1449D01*
G01X11736Y1362D02*
G01X11568Y1362D01*
G01X11656Y1362D02*
G01X11656Y1456D01*
G01X19236Y1362D02*
G01X19068Y1362D01*
G01X19130Y1362D02*
G01X19130Y1423D01*
G01X3452Y2153D02*
G01X3452Y2157D01*
G01X2157Y3452D02*
G01X2153Y3452D01*
G01X2153Y4047D02*
G01X2157Y4047D01*
G01X3452Y5342D02*
G01X3452Y5346D01*
G01X4047Y5346D02*
G01X4047Y5342D01*
G01X5342Y4047D02*
G01X5346Y4047D01*
G01X5346Y3452D02*
G01X5342Y3452D01*
G01X4047Y2157D02*
G01X4047Y2153D01*
G01X3452Y2157D02*
G01X3457Y2157D01*
G01X4042Y2157D02*
G01X4047Y2157D01*
G01X3423Y2359D02*
G01X4076Y2359D01*
G01X3325Y2561D02*
G01X4174Y2561D01*
G01X3106Y2763D02*
G01X4393Y2763D01*
G01X2826Y2965D02*
G01X3211Y2965D01*
G01X4288Y2965D02*
G01X4673Y2965D01*
G01X2722Y3167D02*
G01X2997Y3167D01*
G01X4502Y3167D02*
G01X4777Y3167D01*
G01X2489Y3369D02*
G01X2878Y3369D01*
G01X4621Y3369D02*
G01X5010Y3369D01*
G01X2218Y3571D02*
G01X2815Y3571D01*
G01X4684Y3571D02*
G01X5281Y3571D01*
G01X2250Y3773D02*
G01X2798Y3773D01*
G01X4701Y3773D02*
G01X5249Y3773D01*
G01X2198Y3975D02*
G01X2825Y3975D01*
G01X4674Y3975D02*
G01X5301Y3975D01*
G01X2564Y4177D02*
G01X2899Y4177D01*
G01X4600Y4177D02*
G01X4935Y4177D01*
G01X2754Y4379D02*
G01X3036Y4379D01*
G01X4463Y4379D02*
G01X4745Y4379D01*
G01X2839Y4581D02*
G01X3286Y4581D01*
G01X4213Y4581D02*
G01X4660Y4581D01*
G01X3175Y4783D02*
G01X4324Y4783D01*
G01X3355Y4985D02*
G01X4144Y4985D01*
G01X3435Y5187D02*
G01X4064Y5187D01*
G01X5192Y3436D02*
G01X5192Y4063D01*
G01X4990Y3358D02*
G01X4990Y4141D01*
G01X4788Y3182D02*
G01X4788Y4317D01*
G01X4586Y2840D02*
G01X4586Y3297D01*
G01X4586Y4202D02*
G01X4586Y4659D01*
G01X4384Y2757D02*
G01X4384Y3041D01*
G01X4384Y4458D02*
G01X4384Y4742D01*
G01X4182Y2572D02*
G01X4182Y2902D01*
G01X4182Y4597D02*
G01X4182Y4927D01*
G01X3980Y2195D02*
G01X3980Y2826D01*
G01X3980Y4673D02*
G01X3980Y5304D01*
G01X3778Y2250D02*
G01X3778Y2798D01*
G01X3778Y4701D02*
G01X3778Y5249D01*
G01X3576Y2220D02*
G01X3576Y2814D01*
G01X3576Y4685D02*
G01X3576Y5279D01*
G01X3374Y2479D02*
G01X3374Y2875D01*
G01X3374Y4624D02*
G01X3374Y5020D01*
G01X3172Y2718D02*
G01X3172Y2993D01*
G01X3172Y4506D02*
G01X3172Y4781D01*
G01X2970Y2824D02*
G01X2970Y3203D01*
G01X2970Y4296D02*
G01X2970Y4675D01*
G01X2768Y3096D02*
G01X2768Y4403D01*
G01X2566Y3321D02*
G01X2566Y4178D01*
G01X2364Y3421D02*
G01X2364Y4078D01*
G01X2162Y3452D02*
G01X2162Y3465D01*
G01X2162Y4034D02*
G01X2162Y4047D01*
G01X19047Y2157D02*
G01X19047Y2153D01*
G01X18452Y2153D02*
G01X18452Y2157D01*
G01X17157Y3452D02*
G01X17153Y3452D01*
G01X17153Y4047D02*
G01X17157Y4047D01*
G01X18423Y5140D02*
G01X18869Y4693D01*
G01X19693Y3869D02*
G01X20140Y3423D01*
G01X18452Y2157D02*
G01X18457Y2157D01*
G01X19042Y2157D02*
G01X19047Y2157D01*
G01X18423Y2359D02*
G01X19076Y2359D01*
G01X18325Y2561D02*
G01X19174Y2561D01*
G01X18106Y2763D02*
G01X19393Y2763D01*
G01X17826Y2965D02*
G01X18211Y2965D01*
G01X19288Y2965D02*
G01X19673Y2965D01*
G01X17722Y3167D02*
G01X17997Y3167D01*
G01X19502Y3167D02*
G01X19777Y3167D01*
G01X17489Y3369D02*
G01X17878Y3369D01*
G01X19621Y3369D02*
G01X20010Y3369D01*
G01X17218Y3571D02*
G01X17815Y3571D01*
G01X19684Y3571D02*
G01X19992Y3571D01*
G01X17250Y3773D02*
G01X17798Y3773D01*
G01X19701Y3773D02*
G01X19790Y3773D01*
G01X17198Y3975D02*
G01X17825Y3975D01*
G01X17564Y4177D02*
G01X17899Y4177D01*
G01X17754Y4379D02*
G01X18036Y4379D01*
G01X17839Y4581D02*
G01X18286Y4581D01*
G01X18175Y4783D02*
G01X18780Y4783D01*
G01X18355Y4985D02*
G01X18578Y4985D01*
G01X19938Y3325D02*
G01X19938Y3625D01*
G01X19736Y3106D02*
G01X19736Y3827D01*
G01X19534Y2826D02*
G01X19534Y3211D01*
G01X19332Y2722D02*
G01X19332Y2997D01*
G01X19130Y2489D02*
G01X19130Y2878D01*
G01X18928Y2218D02*
G01X18928Y2815D01*
G01X18726Y2250D02*
G01X18726Y2798D01*
G01X18726Y4701D02*
G01X18726Y4837D01*
G01X18524Y2198D02*
G01X18524Y2825D01*
G01X18524Y4674D02*
G01X18524Y5039D01*
G01X18322Y2564D02*
G01X18322Y2899D01*
G01X18322Y4600D02*
G01X18322Y4935D01*
G01X18120Y2754D02*
G01X18120Y3036D01*
G01X18120Y4463D02*
G01X18120Y4745D01*
G01X17918Y2839D02*
G01X17918Y3286D01*
G01X17918Y4213D02*
G01X17918Y4660D01*
G01X17716Y3175D02*
G01X17716Y4324D01*
G01X17514Y3355D02*
G01X17514Y4144D01*
G01X17312Y3435D02*
G01X17312Y4064D01*
G01X11547Y2157D02*
G01X11547Y2153D01*
G01X10952Y2153D02*
G01X10952Y2157D01*
G01X9657Y3452D02*
G01X9653Y3452D01*
G01X9653Y4047D02*
G01X9657Y4047D01*
G01X10923Y5140D02*
G01X11369Y4693D01*
G01X12193Y3869D02*
G01X12640Y3423D01*
G01X10952Y2157D02*
G01X10957Y2157D01*
G01X11542Y2157D02*
G01X11547Y2157D01*
G01X10923Y2359D02*
G01X11576Y2359D01*
G01X10825Y2561D02*
G01X11674Y2561D01*
G01X10606Y2763D02*
G01X11893Y2763D01*
G01X10326Y2965D02*
G01X10711Y2965D01*
G01X11788Y2965D02*
G01X12173Y2965D01*
G01X10222Y3167D02*
G01X10497Y3167D01*
G01X12002Y3167D02*
G01X12277Y3167D01*
G01X9989Y3369D02*
G01X10378Y3369D01*
G01X12121Y3369D02*
G01X12510Y3369D01*
G01X9718Y3571D02*
G01X10315Y3571D01*
G01X12184Y3571D02*
G01X12492Y3571D01*
G01X9750Y3773D02*
G01X10298Y3773D01*
G01X12201Y3773D02*
G01X12290Y3773D01*
G01X9698Y3975D02*
G01X10325Y3975D01*
G01X10064Y4177D02*
G01X10399Y4177D01*
G01X10254Y4379D02*
G01X10536Y4379D01*
G01X10339Y4581D02*
G01X10786Y4581D01*
G01X10675Y4783D02*
G01X11280Y4783D01*
G01X10855Y4985D02*
G01X11078Y4985D01*
G01X12464Y3342D02*
G01X12464Y3599D01*
G01X12262Y3147D02*
G01X12262Y3801D01*
G01X12060Y2834D02*
G01X12060Y3251D01*
G01X11858Y2741D02*
G01X11858Y3018D01*
G01X11656Y2534D02*
G01X11656Y2889D01*
G01X11454Y2207D02*
G01X11454Y2820D01*
G01X11252Y2251D02*
G01X11252Y2798D01*
G01X11252Y4701D02*
G01X11252Y4811D01*
G01X11050Y2210D02*
G01X11050Y2819D01*
G01X11050Y4680D02*
G01X11050Y5013D01*
G01X10848Y2525D02*
G01X10848Y2887D01*
G01X10848Y4612D02*
G01X10848Y4974D01*
G01X10646Y2737D02*
G01X10646Y3014D01*
G01X10646Y4485D02*
G01X10646Y4762D01*
G01X10444Y2832D02*
G01X10444Y3243D01*
G01X10444Y4256D02*
G01X10444Y4667D01*
G01X10242Y3138D02*
G01X10242Y4361D01*
G01X10040Y3338D02*
G01X10040Y4161D01*
G01X9838Y3428D02*
G01X9838Y4071D01*
G01X21272Y3890D02*
G01X21239Y3858D01*
G01X21272Y4409D02*
G01X21272Y3890D01*
G01X21198Y3975D02*
G01X21272Y3975D01*
G01X21064Y4177D02*
G01X21272Y4177D01*
G01X21254Y4379D02*
G01X21272Y4379D01*
G01X21150Y4051D02*
G01X21150Y4249D01*
G01X20263Y3870D02*
G01X19993Y4140D01*
G01X20342Y4047D02*
G01X20346Y4047D01*
G01X20158Y3975D02*
G01X20301Y3975D01*
G01X20342Y4042D02*
G01X20342Y4047D01*
G01X20140Y3992D02*
G01X20140Y4076D01*
G01X12763Y3870D02*
G01X12493Y4140D01*
G01X12842Y4047D02*
G01X12846Y4047D01*
G01X12658Y3975D02*
G01X12801Y3975D01*
G01X12666Y3966D02*
G01X12666Y4069D01*
G01X12232Y4401D02*
G01X11901Y4732D01*
G01X12052Y4581D02*
G01X12160Y4581D01*
G01X12060Y4572D02*
G01X12060Y4665D01*
G01X19732Y4401D02*
G01X19401Y4732D01*
G01X19552Y4581D02*
G01X19660Y4581D01*
G01X19534Y4598D02*
G01X19534Y4673D01*
G01X21675Y4480D02*
G01X21675Y4657D01*
G01X21675Y4657D02*
G01X21815Y4798D01*
G01X22343Y4939D02*
G01X22343Y4492D01*
G01X22343Y4492D02*
G01X21732Y4492D01*
G01X21675Y4581D02*
G01X22343Y4581D01*
G01X21800Y4783D02*
G01X21865Y4783D01*
G01X22091Y4783D02*
G01X22343Y4783D01*
G01X22160Y4492D02*
G01X22160Y4805D01*
G01X21958Y4492D02*
G01X21958Y4770D01*
G01X21756Y4492D02*
G01X21756Y4739D01*
G01X19140Y4993D02*
G01X18870Y5263D01*
G01X19047Y5346D02*
G01X19047Y5342D01*
G01X18946Y5187D02*
G01X19064Y5187D01*
G01X19130Y5002D02*
G01X19130Y5010D01*
G01X18928Y5204D02*
G01X18928Y5281D01*
G01X11640Y4993D02*
G01X11370Y5263D01*
G01X11547Y5346D02*
G01X11547Y5342D01*
G01X11446Y5187D02*
G01X11564Y5187D01*
G01X11454Y5178D02*
G01X11454Y5292D01*
G01X4031Y6164D02*
G01X4263Y6164D01*
G01X4182Y6072D02*
G01X4182Y6164D01*
G01X9963Y8459D02*
G01X12347Y8459D01*
G01X12282Y8335D02*
G01X12282Y7685D01*
G01X12285Y7651D02*
G01X10119Y7651D01*
G01X10239Y7813D02*
G01X12282Y7813D01*
G01X10282Y8015D02*
G01X12282Y8015D01*
G01X10234Y8217D02*
G01X12282Y8217D01*
G01X10049Y8419D02*
G01X12307Y8419D01*
G01X12262Y7651D02*
G01X12262Y8459D01*
G01X12060Y7651D02*
G01X12060Y8459D01*
G01X11858Y7651D02*
G01X11858Y8459D01*
G01X11656Y7651D02*
G01X11656Y8459D01*
G01X11454Y7651D02*
G01X11454Y8459D01*
G01X11252Y7651D02*
G01X11252Y8459D01*
G01X11050Y7651D02*
G01X11050Y8459D01*
G01X10848Y7651D02*
G01X10848Y8459D01*
G01X10646Y7651D02*
G01X10646Y8459D01*
G01X10444Y7651D02*
G01X10444Y8459D01*
G01X10242Y7651D02*
G01X10242Y7819D01*
G01X10242Y8200D02*
G01X10242Y8459D01*
G01X10040Y8424D02*
G01X10040Y8459D01*
G01X10931Y8862D02*
G01X10763Y8862D01*
G01X10848Y8862D02*
G01X10848Y8949D01*
G01X11736Y8862D02*
G01X11568Y8862D01*
G01X11656Y8862D02*
G01X11656Y8956D01*
G01X12952Y9342D02*
G01X12952Y9547D01*
G01X12952Y9547D02*
G01X13157Y9547D01*
G01X13675Y10724D02*
G01X14080Y11129D01*
G01X14080Y11129D02*
G01X14080Y10659D01*
G01X14232Y10507D02*
G01X14843Y10507D01*
G01X14843Y10507D02*
G01X14843Y10264D01*
G01X14803Y10269D02*
G01X14153Y10269D01*
G01X14001Y10118D02*
G01X14001Y9990D01*
G01X13900Y9935D02*
G01X12827Y8862D01*
G01X12827Y8862D02*
G01X12763Y8862D01*
G01X12876Y9025D02*
G01X12989Y9025D01*
G01X12943Y9227D02*
G01X13191Y9227D01*
G01X12952Y9429D02*
G01X13393Y9429D01*
G01X13490Y9631D02*
G01X13595Y9631D01*
G01X13723Y9833D02*
G01X13797Y9833D01*
G01X13826Y10035D02*
G01X14001Y10035D01*
G01X13860Y10237D02*
G01X14059Y10237D01*
G01X13834Y10439D02*
G01X14843Y10439D01*
G01X13741Y10641D02*
G01X14081Y10641D01*
G01X13793Y10843D02*
G01X14080Y10843D01*
G01X13996Y11045D02*
G01X14080Y11045D01*
G01X14686Y10269D02*
G01X14686Y10507D01*
G01X14484Y10269D02*
G01X14484Y10507D01*
G01X14282Y10269D02*
G01X14282Y10507D01*
G01X14080Y10251D02*
G01X14080Y11129D01*
G01X13878Y9914D02*
G01X13878Y10927D01*
G01X13676Y9712D02*
G01X13676Y9776D01*
G01X13676Y10723D02*
G01X13676Y10726D01*
G01X13474Y9510D02*
G01X13474Y9623D01*
G01X13272Y9308D02*
G01X13272Y9556D01*
G01X13070Y9106D02*
G01X13070Y9547D01*
G01X12868Y8904D02*
G01X12868Y9009D01*
G01X9569Y9167D02*
G01X9167Y9569D01*
G01X9342Y9547D02*
G01X9547Y9547D01*
G01X9547Y9547D02*
G01X9547Y9342D01*
G01X9509Y9227D02*
G01X9556Y9227D01*
G01X9307Y9429D02*
G01X9547Y9429D01*
G01X9434Y9301D02*
G01X9434Y9547D01*
G01X9232Y9503D02*
G01X9232Y9555D01*
G01X11547Y9657D02*
G01X11547Y9653D01*
G01X10952Y9653D02*
G01X10952Y9657D01*
G01X9657Y10952D02*
G01X9653Y10952D01*
G01X9653Y11547D02*
G01X9657Y11547D01*
G01X10923Y12640D02*
G01X11369Y12193D01*
G01X12193Y11369D02*
G01X12640Y10923D01*
G01X10930Y9833D02*
G01X11569Y9833D01*
G01X10842Y10035D02*
G01X11657Y10035D01*
G01X10647Y10237D02*
G01X11852Y10237D01*
G01X10334Y10439D02*
G01X10751Y10439D01*
G01X11748Y10439D02*
G01X12165Y10439D01*
G01X10241Y10641D02*
G01X10518Y10641D01*
G01X11981Y10641D02*
G01X12258Y10641D01*
G01X10034Y10843D02*
G01X10389Y10843D01*
G01X12110Y10843D02*
G01X12465Y10843D01*
G01X9707Y11045D02*
G01X10320Y11045D01*
G01X12179Y11045D02*
G01X12518Y11045D01*
G01X9751Y11247D02*
G01X10298Y11247D01*
G01X12201Y11247D02*
G01X12316Y11247D01*
G01X9710Y11449D02*
G01X10319Y11449D01*
G01X10025Y11651D02*
G01X10387Y11651D01*
G01X10237Y11853D02*
G01X10514Y11853D01*
G01X10332Y12055D02*
G01X10743Y12055D01*
G01X10638Y12257D02*
G01X11306Y12257D01*
G01X10838Y12459D02*
G01X11104Y12459D01*
G01X12464Y10842D02*
G01X12464Y11099D01*
G01X12262Y10647D02*
G01X12262Y11301D01*
G01X12060Y10334D02*
G01X12060Y10751D01*
G01X11858Y10241D02*
G01X11858Y10518D01*
G01X11656Y10034D02*
G01X11656Y10389D01*
G01X11454Y9707D02*
G01X11454Y10320D01*
G01X11252Y9751D02*
G01X11252Y10298D01*
G01X11252Y12201D02*
G01X11252Y12311D01*
G01X11050Y9710D02*
G01X11050Y10319D01*
G01X11050Y12180D02*
G01X11050Y12513D01*
G01X10848Y10025D02*
G01X10848Y10387D01*
G01X10848Y12112D02*
G01X10848Y12474D01*
G01X10646Y10237D02*
G01X10646Y10514D01*
G01X10646Y11985D02*
G01X10646Y12262D01*
G01X10444Y10332D02*
G01X10444Y10743D01*
G01X10444Y11756D02*
G01X10444Y12167D01*
G01X10242Y10638D02*
G01X10242Y11861D01*
G01X10040Y10838D02*
G01X10040Y11661D01*
G01X9838Y10928D02*
G01X9838Y11571D01*
G01X8662Y10074D02*
G01X8228Y10507D01*
G01X8228Y10507D02*
G01X8267Y10507D01*
G01X8419Y10659D02*
G01X8419Y11840D01*
G01X8267Y11992D02*
G01X7656Y11992D01*
G01X7656Y11992D02*
G01X7656Y14531D01*
G01X7968Y14843D02*
G01X10507Y14843D01*
G01X10507Y14843D02*
G01X10507Y14232D01*
G01X10659Y14080D02*
G01X11840Y14080D01*
G01X11992Y14232D02*
G01X11992Y14843D01*
G01X11992Y14843D02*
G01X14531Y14843D01*
G01X14843Y14531D02*
G01X14843Y13052D01*
G01X14030Y12583D02*
G01X13844Y12397D01*
G01X13157Y12952D02*
G01X12952Y12952D01*
G01X12952Y12952D02*
G01X12952Y13157D01*
G01X9547Y13157D02*
G01X9547Y12952D01*
G01X9547Y12952D02*
G01X9342Y12952D01*
G01X8499Y10237D02*
G01X8639Y10237D01*
G01X8297Y10439D02*
G01X8665Y10439D01*
G01X8418Y10641D02*
G01X8758Y10641D01*
G01X8419Y10843D02*
G01X8956Y10843D01*
G01X8419Y11045D02*
G01X8792Y11045D01*
G01X8419Y11247D02*
G01X8748Y11247D01*
G01X8419Y11449D02*
G01X8789Y11449D01*
G01X8419Y11651D02*
G01X8949Y11651D01*
G01X8418Y11853D02*
G01X8762Y11853D01*
G01X7656Y12055D02*
G01X8667Y12055D01*
G01X7656Y12257D02*
G01X8639Y12257D01*
G01X7656Y12459D02*
G01X8671Y12459D01*
G01X13828Y12459D02*
G01X13906Y12459D01*
G01X7656Y12661D02*
G01X8772Y12661D01*
G01X13727Y12661D02*
G01X14009Y12661D01*
G01X7656Y12863D02*
G01X8999Y12863D01*
G01X13500Y12863D02*
G01X14016Y12863D01*
G01X7656Y13065D02*
G01X9547Y13065D01*
G01X12952Y13065D02*
G01X14124Y13065D01*
G01X14832Y13065D02*
G01X14843Y13065D01*
G01X7656Y13267D02*
G01X9555Y13267D01*
G01X12944Y13267D02*
G01X14843Y13267D01*
G01X7656Y13469D02*
G01X9620Y13469D01*
G01X12879Y13469D02*
G01X14843Y13469D01*
G01X7656Y13671D02*
G01X9770Y13671D01*
G01X10729Y13671D02*
G01X10977Y13671D01*
G01X11522Y13671D02*
G01X11770Y13671D01*
G01X12729Y13671D02*
G01X14843Y13671D01*
G01X7656Y13873D02*
G01X14843Y13873D01*
G01X7656Y14075D02*
G01X14843Y14075D01*
G01X7656Y14277D02*
G01X10507Y14277D01*
G01X11992Y14277D02*
G01X14843Y14277D01*
G01X7656Y14479D02*
G01X10507Y14479D01*
G01X11992Y14479D02*
G01X14843Y14479D01*
G01X7694Y14681D02*
G01X10507Y14681D01*
G01X11992Y14681D02*
G01X14805Y14681D01*
G01X14686Y13174D02*
G01X14686Y14802D01*
G01X14484Y13222D02*
G01X14484Y14843D01*
G01X14282Y13180D02*
G01X14282Y14843D01*
G01X14080Y13008D02*
G01X14080Y14843D01*
G01X13878Y12431D02*
G01X13878Y14843D01*
G01X13676Y12723D02*
G01X13676Y14843D01*
G01X13474Y12876D02*
G01X13474Y14843D01*
G01X13272Y12943D02*
G01X13272Y14843D01*
G01X13070Y12952D02*
G01X13070Y14843D01*
G01X12868Y13490D02*
G01X12868Y14843D01*
G01X12666Y13723D02*
G01X12666Y14843D01*
G01X12464Y13826D02*
G01X12464Y14843D01*
G01X12262Y13860D02*
G01X12262Y14843D01*
G01X12060Y13834D02*
G01X12060Y14843D01*
G01X11858Y13741D02*
G01X11858Y14081D01*
G01X11656Y13543D02*
G01X11656Y14080D01*
G01X11454Y13707D02*
G01X11454Y14080D01*
G01X11252Y13751D02*
G01X11252Y14080D01*
G01X11050Y13710D02*
G01X11050Y14080D01*
G01X10848Y13550D02*
G01X10848Y14080D01*
G01X10646Y13737D02*
G01X10646Y14081D01*
G01X10444Y13832D02*
G01X10444Y14843D01*
G01X10242Y13860D02*
G01X10242Y14843D01*
G01X10040Y13828D02*
G01X10040Y14843D01*
G01X9838Y13727D02*
G01X9838Y14843D01*
G01X9636Y13500D02*
G01X9636Y14843D01*
G01X9434Y12952D02*
G01X9434Y14843D01*
G01X9232Y12944D02*
G01X9232Y14843D01*
G01X9030Y12879D02*
G01X9030Y14843D01*
G01X8828Y10729D02*
G01X8828Y10977D01*
G01X8828Y11522D02*
G01X8828Y11770D01*
G01X8828Y12729D02*
G01X8828Y14843D01*
G01X8626Y10109D02*
G01X8626Y14843D01*
G01X8424Y10311D02*
G01X8424Y14843D01*
G01X8222Y11992D02*
G01X8222Y14843D01*
G01X8020Y11992D02*
G01X8020Y14843D01*
G01X7818Y11992D02*
G01X7818Y14805D01*
G01X13772Y11390D02*
G01X13739Y11358D01*
G01X13772Y11909D02*
G01X13772Y11390D01*
G01X13710Y11449D02*
G01X13772Y11449D01*
G01X13550Y11651D02*
G01X13772Y11651D01*
G01X13737Y11853D02*
G01X13772Y11853D01*
G01X13676Y11513D02*
G01X13676Y11776D01*
G01X12763Y11370D02*
G01X12493Y11640D01*
G01X12842Y11547D02*
G01X12846Y11547D01*
G01X12684Y11449D02*
G01X12789Y11449D01*
G01X12666Y11466D02*
G01X12666Y11569D01*
G01X12232Y11901D02*
G01X11901Y12232D01*
G01X12078Y12055D02*
G01X12167Y12055D01*
G01X12060Y12072D02*
G01X12060Y12165D01*
G01X14175Y11980D02*
G01X14175Y12157D01*
G01X14175Y12157D02*
G01X14315Y12298D01*
G01X14843Y12439D02*
G01X14843Y11992D01*
G01X14843Y11992D02*
G01X14232Y11992D01*
G01X14175Y12055D02*
G01X14843Y12055D01*
G01X14274Y12257D02*
G01X14843Y12257D01*
G01X14686Y11992D02*
G01X14686Y12317D01*
G01X14484Y11992D02*
G01X14484Y12269D01*
G01X14282Y11992D02*
G01X14282Y12265D01*
G01X11640Y12493D02*
G01X11370Y12763D01*
G01X11547Y12846D02*
G01X11547Y12842D01*
G01X11472Y12661D02*
G01X11571Y12661D01*
G01X11454Y12678D02*
G01X11454Y12792D01*
G01X156Y468D02*
G01X156Y3007D01*
G01X156Y3007D02*
G01X767Y3007D01*
G01X919Y3159D02*
G01X919Y4340D01*
G01X767Y4492D02*
G01X156Y4492D01*
G01X156Y4492D02*
G01X156Y7031D01*
G01X468Y7343D02*
G01X3007Y7343D01*
G01X3007Y7343D02*
G01X3007Y6732D01*
G01X3159Y6580D02*
G01X4340Y6580D01*
G01X4492Y6732D02*
G01X4492Y7343D01*
G01X4492Y7343D02*
G01X7031Y7343D01*
G01X7656Y7968D02*
G01X7656Y10507D01*
G01X7656Y10507D02*
G01X7706Y10507D01*
G01X7761Y10405D02*
G01X9648Y8518D01*
G01X9492Y7651D02*
G01X9375Y7651D01*
G01X9223Y7500D02*
G01X9223Y6950D01*
G01X9375Y6798D02*
G01X13279Y6798D01*
G01X13430Y6950D02*
G01X13430Y7500D01*
G01X13279Y7651D02*
G01X13231Y7651D01*
G01X13235Y7685D02*
G01X13235Y8335D01*
G01X13083Y8486D02*
G01X13010Y8486D01*
G01X13052Y8518D02*
G01X14001Y9467D01*
G01X14153Y9316D02*
G01X14803Y9316D01*
G01X14843Y9322D02*
G01X14843Y7968D01*
G01X15468Y7343D02*
G01X18007Y7343D01*
G01X18007Y7343D02*
G01X18007Y6732D01*
G01X18159Y6580D02*
G01X19340Y6580D01*
G01X19492Y6732D02*
G01X19492Y7343D01*
G01X19492Y7343D02*
G01X22031Y7343D01*
G01X22343Y7031D02*
G01X22343Y5552D01*
G01X21530Y5083D02*
G01X21344Y4897D01*
G01X20657Y5452D02*
G01X20452Y5452D01*
G01X20452Y5452D02*
G01X20452Y5657D01*
G01X17047Y5657D02*
G01X17047Y5452D01*
G01X17047Y5452D02*
G01X16842Y5452D01*
G01X16842Y2047D02*
G01X17047Y2047D01*
G01X17047Y2047D02*
G01X17047Y1842D01*
G01X17236Y1362D02*
G01X15115Y1362D01*
G01X15115Y1362D02*
G01X15115Y2293D01*
G01X14954Y2490D02*
G01X14954Y2618D01*
G01X14803Y2769D02*
G01X14153Y2769D01*
G01X14001Y2618D02*
G01X14001Y1968D01*
G01X14153Y1816D02*
G01X14713Y1816D01*
G01X14713Y1816D02*
G01X14713Y1362D01*
G01X14713Y1362D02*
G01X12763Y1362D01*
G01X12952Y1842D02*
G01X12952Y2047D01*
G01X12952Y2047D02*
G01X13157Y2047D01*
G01X13157Y5452D02*
G01X12952Y5452D01*
G01X12952Y5452D02*
G01X12952Y5657D01*
G01X9547Y5657D02*
G01X9547Y5452D01*
G01X9547Y5452D02*
G01X9342Y5452D01*
G01X9342Y2047D02*
G01X9547Y2047D01*
G01X9547Y2047D02*
G01X9547Y1842D01*
G01X9736Y1362D02*
G01X8629Y1362D01*
G01X8629Y1362D02*
G01X7557Y2435D01*
G01X7454Y2490D02*
G01X7454Y2618D01*
G01X7303Y2769D02*
G01X6653Y2769D01*
G01X6501Y2618D02*
G01X6501Y1968D01*
G01X6653Y1816D02*
G01X7303Y1816D01*
G01X7454Y1967D02*
G01X8402Y1018D01*
G01X8545Y959D02*
G01X9648Y959D01*
G01X9486Y156D02*
G01X5732Y156D01*
G01X5735Y185D02*
G01X5735Y835D01*
G01X5583Y986D02*
G01X4933Y986D01*
G01X4782Y835D02*
G01X4782Y707D01*
G01X4679Y652D02*
G01X4632Y604D01*
G01X4632Y604D02*
G01X4492Y604D01*
G01X4492Y604D02*
G01X4492Y767D01*
G01X4340Y919D02*
G01X3159Y919D01*
G01X3007Y767D02*
G01X3007Y156D01*
G01X3007Y156D02*
G01X2625Y156D01*
G01X2506Y941D02*
G01X2506Y1183D01*
G01X5452Y1842D02*
G01X5452Y2047D01*
G01X5452Y2047D02*
G01X5657Y2047D01*
G01X5657Y5452D02*
G01X5452Y5452D01*
G01X5452Y5452D02*
G01X5452Y5657D01*
G01X5236Y6164D02*
G01X5775Y6164D01*
G01X5775Y6164D02*
G01X6530Y5409D01*
G01X6815Y5693D02*
G01X6000Y6508D01*
G01X5858Y6567D02*
G01X3616Y6567D01*
G01X3474Y6508D02*
G01X3179Y6213D01*
G01X2047Y5657D02*
G01X2047Y5452D01*
G01X2047Y5452D02*
G01X1842Y5452D01*
G01X1842Y2047D02*
G01X2047Y2047D01*
G01X2047Y2047D02*
G01X2047Y1842D01*
G01X2103Y1556D02*
G01X2103Y941D01*
G01X1986Y156D02*
G01X468Y156D01*
G01X184Y339D02*
G01X1861Y339D01*
G01X2750Y339D02*
G01X3007Y339D01*
G01X5735Y339D02*
G01X9361Y339D01*
G01X156Y541D02*
G01X1830Y541D01*
G01X2781Y541D02*
G01X3007Y541D01*
G01X5735Y541D02*
G01X9330Y541D01*
G01X156Y743D02*
G01X1890Y743D01*
G01X2721Y743D02*
G01X3007Y743D01*
G01X4492Y743D02*
G01X4782Y743D01*
G01X5735Y743D02*
G01X9390Y743D01*
G01X156Y945D02*
G01X2103Y945D01*
G01X2506Y945D02*
G01X4829Y945D01*
G01X5687Y945D02*
G01X9611Y945D01*
G01X156Y1147D02*
G01X2103Y1147D01*
G01X2506Y1147D02*
G01X2648Y1147D01*
G01X2851Y1147D02*
G01X4648Y1147D01*
G01X4851Y1147D02*
G01X8274Y1147D01*
G01X156Y1349D02*
G01X2103Y1349D01*
G01X3250Y1349D02*
G01X3448Y1349D01*
G01X4051Y1349D02*
G01X4249Y1349D01*
G01X5250Y1349D02*
G01X8072Y1349D01*
G01X156Y1551D02*
G01X2103Y1551D01*
G01X5389Y1551D02*
G01X7871Y1551D01*
G01X8440Y1551D02*
G01X9610Y1551D01*
G01X12889Y1551D02*
G01X14713Y1551D01*
G01X15115Y1551D02*
G01X17110Y1551D01*
G01X156Y1753D02*
G01X2053Y1753D01*
G01X5446Y1753D02*
G01X7669Y1753D01*
G01X8238Y1753D02*
G01X9553Y1753D01*
G01X12946Y1753D02*
G01X14713Y1753D01*
G01X15115Y1753D02*
G01X17053Y1753D01*
G01X156Y1955D02*
G01X2047Y1955D01*
G01X5452Y1955D02*
G01X6502Y1955D01*
G01X7454Y1955D02*
G01X7467Y1955D01*
G01X8037Y1955D02*
G01X9547Y1955D01*
G01X12952Y1955D02*
G01X14002Y1955D01*
G01X15115Y1955D02*
G01X17047Y1955D01*
G01X156Y2157D02*
G01X1465Y2157D01*
G01X6034Y2157D02*
G01X6501Y2157D01*
G01X7835Y2157D02*
G01X8965Y2157D01*
G01X13534Y2157D02*
G01X14001Y2157D01*
G01X15115Y2157D02*
G01X16465Y2157D01*
G01X156Y2359D02*
G01X1258Y2359D01*
G01X6241Y2359D02*
G01X6501Y2359D01*
G01X7633Y2359D02*
G01X8758Y2359D01*
G01X13741Y2359D02*
G01X14001Y2359D01*
G01X15104Y2359D02*
G01X16258Y2359D01*
G01X156Y2561D02*
G01X1165Y2561D01*
G01X6334Y2561D02*
G01X6501Y2561D01*
G01X7454Y2561D02*
G01X8665Y2561D01*
G01X13834Y2561D02*
G01X14001Y2561D01*
G01X14954Y2561D02*
G01X16165Y2561D01*
G01X156Y2763D02*
G01X1139Y2763D01*
G01X6360Y2763D02*
G01X6609Y2763D01*
G01X7347Y2763D02*
G01X8639Y2763D01*
G01X13860Y2763D02*
G01X14109Y2763D01*
G01X14847Y2763D02*
G01X16139Y2763D01*
G01X156Y2965D02*
G01X1173Y2965D01*
G01X6326Y2965D02*
G01X8673Y2965D01*
G01X13826Y2965D02*
G01X16173Y2965D01*
G01X919Y3167D02*
G01X1277Y3167D01*
G01X6222Y3167D02*
G01X8777Y3167D01*
G01X13722Y3167D02*
G01X16277Y3167D01*
G01X919Y3369D02*
G01X1423Y3369D01*
G01X6076Y3369D02*
G01X8923Y3369D01*
G01X13576Y3369D02*
G01X16423Y3369D01*
G01X919Y3571D02*
G01X1281Y3571D01*
G01X6218Y3571D02*
G01X8781Y3571D01*
G01X13718Y3571D02*
G01X16281Y3571D01*
G01X919Y3773D02*
G01X1249Y3773D01*
G01X6250Y3773D02*
G01X8749Y3773D01*
G01X13750Y3773D02*
G01X16249Y3773D01*
G01X919Y3975D02*
G01X1301Y3975D01*
G01X6198Y3975D02*
G01X8801Y3975D01*
G01X13698Y3975D02*
G01X16301Y3975D01*
G01X919Y4177D02*
G01X1435Y4177D01*
G01X6064Y4177D02*
G01X8935Y4177D01*
G01X13564Y4177D02*
G01X16435Y4177D01*
G01X914Y4379D02*
G01X1245Y4379D01*
G01X6254Y4379D02*
G01X8745Y4379D01*
G01X13754Y4379D02*
G01X16245Y4379D01*
G01X156Y4581D02*
G01X1160Y4581D01*
G01X6339Y4581D02*
G01X8660Y4581D01*
G01X13839Y4581D02*
G01X16160Y4581D01*
G01X156Y4783D02*
G01X1140Y4783D01*
G01X6359Y4783D02*
G01X6865Y4783D01*
G01X7091Y4783D02*
G01X8640Y4783D01*
G01X13859Y4783D02*
G01X14365Y4783D01*
G01X14591Y4783D02*
G01X16140Y4783D01*
G01X156Y4985D02*
G01X1180Y4985D01*
G01X6319Y4985D02*
G01X6579Y4985D01*
G01X7377Y4985D02*
G01X8680Y4985D01*
G01X13819Y4985D02*
G01X14079Y4985D01*
G01X14877Y4985D02*
G01X16180Y4985D01*
G01X21319Y4985D02*
G01X21432Y4985D01*
G01X156Y5187D02*
G01X1292Y5187D01*
G01X6207Y5187D02*
G01X6505Y5187D01*
G01X7451Y5187D02*
G01X8792Y5187D01*
G01X13707Y5187D02*
G01X14005Y5187D01*
G01X14951Y5187D02*
G01X16292Y5187D01*
G01X21207Y5187D02*
G01X21505Y5187D01*
G01X156Y5389D02*
G01X1550Y5389D01*
G01X5949Y5389D02*
G01X6523Y5389D01*
G01X7432Y5389D02*
G01X9050Y5389D01*
G01X13449Y5389D02*
G01X14023Y5389D01*
G01X14932Y5389D02*
G01X16550Y5389D01*
G01X20949Y5389D02*
G01X21523Y5389D01*
G01X156Y5591D02*
G01X2047Y5591D01*
G01X5452Y5591D02*
G01X6348Y5591D01*
G01X7306Y5591D02*
G01X9547Y5591D01*
G01X12952Y5591D02*
G01X14149Y5591D01*
G01X14806Y5591D02*
G01X17047Y5591D01*
G01X20452Y5591D02*
G01X21649Y5591D01*
G01X22306Y5591D02*
G01X22343Y5591D01*
G01X156Y5793D02*
G01X2060Y5793D01*
G01X5439Y5793D02*
G01X6146Y5793D01*
G01X6716Y5793D02*
G01X9560Y5793D01*
G01X12939Y5793D02*
G01X17060Y5793D01*
G01X20439Y5793D02*
G01X22343Y5793D01*
G01X156Y5995D02*
G01X2133Y5995D01*
G01X5366Y5995D02*
G01X5944Y5995D01*
G01X6514Y5995D02*
G01X9633Y5995D01*
G01X12866Y5995D02*
G01X17133Y5995D01*
G01X20366Y5995D02*
G01X22343Y5995D01*
G01X156Y6197D02*
G01X2300Y6197D01*
G01X6312Y6197D02*
G01X9800Y6197D01*
G01X10699Y6197D02*
G01X11023Y6197D01*
G01X11476Y6197D02*
G01X11800Y6197D01*
G01X12699Y6197D02*
G01X17300Y6197D01*
G01X18199Y6197D02*
G01X18523Y6197D01*
G01X18976Y6197D02*
G01X19300Y6197D01*
G01X20199Y6197D02*
G01X22343Y6197D01*
G01X156Y6399D02*
G01X3364Y6399D01*
G01X6110Y6399D02*
G01X22343Y6399D01*
G01X156Y6601D02*
G01X3083Y6601D01*
G01X4416Y6601D02*
G01X18083Y6601D01*
G01X19416Y6601D02*
G01X22343Y6601D01*
G01X156Y6803D02*
G01X3007Y6803D01*
G01X4492Y6803D02*
G01X9337Y6803D01*
G01X13316Y6803D02*
G01X18007Y6803D01*
G01X19492Y6803D02*
G01X22343Y6803D01*
G01X156Y7005D02*
G01X3007Y7005D01*
G01X4492Y7005D02*
G01X9223Y7005D01*
G01X13430Y7005D02*
G01X18007Y7005D01*
G01X19492Y7005D02*
G01X22343Y7005D01*
G01X210Y7207D02*
G01X3007Y7207D01*
G01X4492Y7207D02*
G01X9223Y7207D01*
G01X13430Y7207D02*
G01X18007Y7207D01*
G01X19492Y7207D02*
G01X22289Y7207D01*
G01X7310Y7409D02*
G01X9223Y7409D01*
G01X13430Y7409D02*
G01X15189Y7409D01*
G01X7544Y7611D02*
G01X9272Y7611D01*
G01X13381Y7611D02*
G01X14955Y7611D01*
G01X7636Y7813D02*
G01X9371Y7813D01*
G01X13235Y7813D02*
G01X14863Y7813D01*
G01X7656Y8015D02*
G01X9329Y8015D01*
G01X13235Y8015D02*
G01X14843Y8015D01*
G01X7656Y8217D02*
G01X9376Y8217D01*
G01X13235Y8217D02*
G01X14843Y8217D01*
G01X7656Y8419D02*
G01X9561Y8419D01*
G01X13209Y8419D02*
G01X14843Y8419D01*
G01X7656Y8621D02*
G01X9545Y8621D01*
G01X13155Y8621D02*
G01X14843Y8621D01*
G01X7656Y8823D02*
G01X9343Y8823D01*
G01X13357Y8823D02*
G01X14843Y8823D01*
G01X7656Y9025D02*
G01X9141Y9025D01*
G01X13559Y9025D02*
G01X14843Y9025D01*
G01X7656Y9227D02*
G01X8939Y9227D01*
G01X13761Y9227D02*
G01X14843Y9227D01*
G01X7656Y9429D02*
G01X8737Y9429D01*
G01X13963Y9429D02*
G01X14006Y9429D01*
G01X7656Y9631D02*
G01X8535Y9631D01*
G01X7656Y9833D02*
G01X8333Y9833D01*
G01X7656Y10035D02*
G01X8131Y10035D01*
G01X7656Y10237D02*
G01X7929Y10237D01*
G01X7656Y10439D02*
G01X7734Y10439D01*
G01X22160Y5686D02*
G01X22160Y7315D01*
G01X21958Y5722D02*
G01X21958Y7343D01*
G01X21756Y5667D02*
G01X21756Y7343D01*
G01X21554Y5464D02*
G01X21554Y7343D01*
G01X21352Y4905D02*
G01X21352Y7343D01*
G01X21150Y5250D02*
G01X21150Y7343D01*
G01X20948Y5389D02*
G01X20948Y7343D01*
G01X20746Y5446D02*
G01X20746Y7343D01*
G01X20544Y5452D02*
G01X20544Y7343D01*
G01X20342Y6034D02*
G01X20342Y7343D01*
G01X20140Y6241D02*
G01X20140Y7343D01*
G01X19938Y6334D02*
G01X19938Y7343D01*
G01X19736Y6360D02*
G01X19736Y7343D01*
G01X19534Y6326D02*
G01X19534Y7343D01*
G01X19332Y6222D02*
G01X19332Y6580D01*
G01X19130Y6076D02*
G01X19130Y6580D01*
G01X18928Y6218D02*
G01X18928Y6580D01*
G01X18726Y6250D02*
G01X18726Y6580D01*
G01X18524Y6198D02*
G01X18524Y6580D01*
G01X18322Y6064D02*
G01X18322Y6580D01*
G01X18120Y6254D02*
G01X18120Y6585D01*
G01X17918Y6339D02*
G01X17918Y7343D01*
G01X17716Y6359D02*
G01X17716Y7343D01*
G01X17514Y6319D02*
G01X17514Y7343D01*
G01X17312Y6207D02*
G01X17312Y7343D01*
G01X17110Y1362D02*
G01X17110Y1550D01*
G01X17110Y5949D02*
G01X17110Y7343D01*
G01X16908Y1362D02*
G01X16908Y2047D01*
G01X16908Y5452D02*
G01X16908Y7343D01*
G01X16706Y1362D02*
G01X16706Y2060D01*
G01X16706Y5439D02*
G01X16706Y7343D01*
G01X16504Y1362D02*
G01X16504Y2133D01*
G01X16504Y5366D02*
G01X16504Y7343D01*
G01X16302Y1362D02*
G01X16302Y2300D01*
G01X16302Y3199D02*
G01X16302Y3523D01*
G01X16302Y3976D02*
G01X16302Y4300D01*
G01X16302Y5199D02*
G01X16302Y7343D01*
G01X16100Y1362D02*
G01X16100Y7343D01*
G01X15898Y1362D02*
G01X15898Y7343D01*
G01X15696Y1362D02*
G01X15696Y7343D01*
G01X15494Y1362D02*
G01X15494Y7343D01*
G01X15292Y1362D02*
G01X15292Y7368D01*
G01X15090Y2390D02*
G01X15090Y7470D01*
G01X14888Y2743D02*
G01X14888Y5003D01*
G01X14888Y5488D02*
G01X14888Y7735D01*
G01X14686Y1362D02*
G01X14686Y1816D01*
G01X14686Y2769D02*
G01X14686Y4817D01*
G01X14686Y5674D02*
G01X14686Y9316D01*
G01X14484Y1362D02*
G01X14484Y1816D01*
G01X14484Y2769D02*
G01X14484Y4769D01*
G01X14484Y5722D02*
G01X14484Y9316D01*
G01X14282Y1362D02*
G01X14282Y1816D01*
G01X14282Y2769D02*
G01X14282Y4811D01*
G01X14282Y5680D02*
G01X14282Y9316D01*
G01X14080Y1362D02*
G01X14080Y1835D01*
G01X14080Y2751D02*
G01X14080Y4983D01*
G01X14080Y5508D02*
G01X14080Y9335D01*
G01X13878Y1362D02*
G01X13878Y9344D01*
G01X13676Y1362D02*
G01X13676Y2276D01*
G01X13676Y3223D02*
G01X13676Y3486D01*
G01X13676Y4013D02*
G01X13676Y4276D01*
G01X13676Y5223D02*
G01X13676Y9142D01*
G01X13474Y1362D02*
G01X13474Y2123D01*
G01X13474Y5376D02*
G01X13474Y8940D01*
G01X13272Y1362D02*
G01X13272Y2056D01*
G01X13272Y5443D02*
G01X13272Y6798D01*
G01X13272Y7651D02*
G01X13272Y8738D01*
G01X13070Y1362D02*
G01X13070Y2047D01*
G01X13070Y5452D02*
G01X13070Y6798D01*
G01X13070Y8486D02*
G01X13070Y8536D01*
G01X12868Y1362D02*
G01X12868Y1509D01*
G01X12868Y5990D02*
G01X12868Y6798D01*
G01X12666Y6223D02*
G01X12666Y6798D01*
G01X12464Y6326D02*
G01X12464Y6798D01*
G01X12262Y6360D02*
G01X12262Y6798D01*
G01X12060Y6334D02*
G01X12060Y6798D01*
G01X11858Y6241D02*
G01X11858Y6798D01*
G01X11656Y6043D02*
G01X11656Y6798D01*
G01X11454Y6207D02*
G01X11454Y6798D01*
G01X11252Y6251D02*
G01X11252Y6798D01*
G01X11050Y6210D02*
G01X11050Y6798D01*
G01X10848Y6050D02*
G01X10848Y6798D01*
G01X10646Y6237D02*
G01X10646Y6798D01*
G01X10444Y6332D02*
G01X10444Y6798D01*
G01X10242Y6360D02*
G01X10242Y6798D01*
G01X10040Y6328D02*
G01X10040Y6798D01*
G01X9838Y6227D02*
G01X9838Y6798D01*
G01X9636Y955D02*
G01X9636Y959D01*
G01X9636Y1362D02*
G01X9636Y1499D01*
G01X9636Y6000D02*
G01X9636Y6798D01*
G01X9636Y8455D02*
G01X9636Y8530D01*
G01X9434Y156D02*
G01X9434Y211D01*
G01X9434Y808D02*
G01X9434Y959D01*
G01X9434Y1362D02*
G01X9434Y2047D01*
G01X9434Y5452D02*
G01X9434Y6798D01*
G01X9434Y7651D02*
G01X9434Y7711D01*
G01X9434Y8308D02*
G01X9434Y8732D01*
G01X9232Y156D02*
G01X9232Y959D01*
G01X9232Y1362D02*
G01X9232Y2055D01*
G01X9232Y5444D02*
G01X9232Y6898D01*
G01X9232Y7551D02*
G01X9232Y8934D01*
G01X9030Y156D02*
G01X9030Y959D01*
G01X9030Y1362D02*
G01X9030Y2120D01*
G01X9030Y5379D02*
G01X9030Y9136D01*
G01X8828Y156D02*
G01X8828Y959D01*
G01X8828Y1362D02*
G01X8828Y2270D01*
G01X8828Y3229D02*
G01X8828Y3477D01*
G01X8828Y4022D02*
G01X8828Y4270D01*
G01X8828Y5229D02*
G01X8828Y9338D01*
G01X8626Y156D02*
G01X8626Y959D01*
G01X8626Y1365D02*
G01X8626Y9540D01*
G01X8424Y156D02*
G01X8424Y999D01*
G01X8424Y1567D02*
G01X8424Y9742D01*
G01X8222Y156D02*
G01X8222Y1199D01*
G01X8222Y1769D02*
G01X8222Y9944D01*
G01X8020Y156D02*
G01X8020Y1401D01*
G01X8020Y1971D02*
G01X8020Y10146D01*
G01X7818Y156D02*
G01X7818Y1603D01*
G01X7818Y2173D02*
G01X7818Y10348D01*
G01X7616Y156D02*
G01X7616Y1805D01*
G01X7616Y2375D02*
G01X7616Y7749D01*
G01X7414Y156D02*
G01X7414Y1865D01*
G01X7414Y2720D02*
G01X7414Y5054D01*
G01X7414Y5437D02*
G01X7414Y7474D01*
G01X7212Y156D02*
G01X7212Y1816D01*
G01X7212Y2769D02*
G01X7212Y4831D01*
G01X7212Y5660D02*
G01X7212Y7370D01*
G01X7010Y156D02*
G01X7010Y1816D01*
G01X7010Y2769D02*
G01X7010Y4770D01*
G01X7010Y5721D02*
G01X7010Y7343D01*
G01X6808Y156D02*
G01X6808Y1816D01*
G01X6808Y2769D02*
G01X6808Y4800D01*
G01X6808Y5700D02*
G01X6808Y7343D01*
G01X6606Y156D02*
G01X6606Y1824D01*
G01X6606Y2762D02*
G01X6606Y4947D01*
G01X6606Y5902D02*
G01X6606Y7343D01*
G01X6404Y156D02*
G01X6404Y5535D01*
G01X6404Y6104D02*
G01X6404Y7343D01*
G01X6202Y156D02*
G01X6202Y2306D01*
G01X6202Y3193D02*
G01X6202Y3534D01*
G01X6202Y3965D02*
G01X6202Y4306D01*
G01X6202Y5193D02*
G01X6202Y5737D01*
G01X6202Y6306D02*
G01X6202Y7343D01*
G01X6000Y156D02*
G01X6000Y2136D01*
G01X6000Y5363D02*
G01X6000Y5939D01*
G01X6000Y6508D02*
G01X6000Y7343D01*
G01X5798Y156D02*
G01X5798Y2061D01*
G01X5798Y5438D02*
G01X5798Y6141D01*
G01X5798Y6567D02*
G01X5798Y7343D01*
G01X5596Y985D02*
G01X5596Y2047D01*
G01X5596Y5452D02*
G01X5596Y6164D01*
G01X5596Y6567D02*
G01X5596Y7343D01*
G01X5394Y986D02*
G01X5394Y1563D01*
G01X5394Y5936D02*
G01X5394Y6164D01*
G01X5394Y6567D02*
G01X5394Y7343D01*
G01X5192Y986D02*
G01X5192Y1296D01*
G01X5192Y6567D02*
G01X5192Y7343D01*
G01X4990Y986D02*
G01X4990Y1182D01*
G01X4990Y6567D02*
G01X4990Y7343D01*
G01X4788Y879D02*
G01X4788Y1140D01*
G01X4788Y6567D02*
G01X4788Y7343D01*
G01X4586Y604D02*
G01X4586Y1159D01*
G01X4586Y6567D02*
G01X4586Y7343D01*
G01X4384Y912D02*
G01X4384Y1242D01*
G01X4384Y6567D02*
G01X4384Y6587D01*
G01X4182Y919D02*
G01X4182Y1427D01*
G01X4182Y6567D02*
G01X4182Y6580D01*
G01X3980Y919D02*
G01X3980Y1304D01*
G01X3980Y6567D02*
G01X3980Y6580D01*
G01X3778Y919D02*
G01X3778Y1249D01*
G01X3778Y6567D02*
G01X3778Y6580D01*
G01X3576Y919D02*
G01X3576Y1279D01*
G01X3576Y6563D02*
G01X3576Y6580D01*
G01X3374Y919D02*
G01X3374Y1417D01*
G01X3374Y6409D02*
G01X3374Y6580D01*
G01X3172Y919D02*
G01X3172Y1281D01*
G01X3172Y6218D02*
G01X3172Y6580D01*
G01X2970Y156D02*
G01X2970Y1175D01*
G01X2970Y6324D02*
G01X2970Y7343D01*
G01X2768Y156D02*
G01X2768Y396D01*
G01X2768Y623D02*
G01X2768Y1140D01*
G01X2768Y6359D02*
G01X2768Y7343D01*
G01X2566Y908D02*
G01X2566Y1164D01*
G01X2566Y6335D02*
G01X2566Y7343D01*
G01X2364Y6245D02*
G01X2364Y7343D01*
G01X2162Y6043D02*
G01X2162Y7343D01*
G01X1960Y156D02*
G01X1960Y181D01*
G01X1960Y838D02*
G01X1960Y2047D01*
G01X1960Y5452D02*
G01X1960Y7343D01*
G01X1758Y156D02*
G01X1758Y2052D01*
G01X1758Y5447D02*
G01X1758Y7343D01*
G01X1556Y156D02*
G01X1556Y2108D01*
G01X1556Y5391D02*
G01X1556Y7343D01*
G01X1354Y156D02*
G01X1354Y2244D01*
G01X1354Y3255D02*
G01X1354Y3441D01*
G01X1354Y4058D02*
G01X1354Y4244D01*
G01X1354Y5255D02*
G01X1354Y7343D01*
G01X1152Y156D02*
G01X1152Y2615D01*
G01X1152Y2884D02*
G01X1152Y4615D01*
G01X1152Y4884D02*
G01X1152Y7343D01*
G01X950Y156D02*
G01X950Y7343D01*
G01X748Y156D02*
G01X748Y3007D01*
G01X748Y4492D02*
G01X748Y7343D01*
G01X546Y156D02*
G01X546Y3007D01*
G01X546Y4492D02*
G01X546Y7343D01*
G01X344Y182D02*
G01X344Y3007D01*
G01X344Y4492D02*
G01X344Y7317D01*
G01X10507Y767D02*
G01X10507Y156D01*
G01X10507Y156D02*
G01X10125Y156D01*
G01X9963Y959D02*
G01X12347Y959D01*
G01X12282Y835D02*
G01X12282Y707D01*
G01X12179Y652D02*
G01X12132Y604D01*
G01X12132Y604D02*
G01X11992Y604D01*
G01X11992Y604D02*
G01X11992Y767D01*
G01X11840Y919D02*
G01X10659Y919D01*
G01X10250Y339D02*
G01X10507Y339D01*
G01X10281Y541D02*
G01X10507Y541D01*
G01X10221Y743D02*
G01X10507Y743D01*
G01X11992Y743D02*
G01X12282Y743D01*
G01X9999Y945D02*
G01X12329Y945D01*
G01X12262Y702D02*
G01X12262Y959D01*
G01X12060Y604D02*
G01X12060Y959D01*
G01X11858Y918D02*
G01X11858Y959D01*
G01X11656Y919D02*
G01X11656Y959D01*
G01X11454Y919D02*
G01X11454Y959D01*
G01X11252Y919D02*
G01X11252Y959D01*
G01X11050Y919D02*
G01X11050Y959D01*
G01X10848Y919D02*
G01X10848Y959D01*
G01X10646Y918D02*
G01X10646Y959D01*
G01X10444Y156D02*
G01X10444Y959D01*
G01X10242Y156D02*
G01X10242Y319D01*
G01X10242Y700D02*
G01X10242Y959D01*
G01X10040Y924D02*
G01X10040Y959D01*
G01X18007Y767D02*
G01X18007Y156D01*
G01X18007Y156D02*
G01X17625Y156D01*
G01X17463Y959D02*
G01X19847Y959D01*
G01X19782Y835D02*
G01X19782Y707D01*
G01X19679Y652D02*
G01X19632Y604D01*
G01X19632Y604D02*
G01X19492Y604D01*
G01X19492Y604D02*
G01X19492Y767D01*
G01X19340Y919D02*
G01X18159Y919D01*
G01X17750Y339D02*
G01X18007Y339D01*
G01X17781Y541D02*
G01X18007Y541D01*
G01X17721Y743D02*
G01X18007Y743D01*
G01X19492Y743D02*
G01X19782Y743D01*
G01X17499Y945D02*
G01X19829Y945D01*
G01X19736Y692D02*
G01X19736Y959D01*
G01X19534Y604D02*
G01X19534Y959D01*
G01X19332Y919D02*
G01X19332Y959D01*
G01X19130Y919D02*
G01X19130Y959D01*
G01X18928Y919D02*
G01X18928Y959D01*
G01X18726Y919D02*
G01X18726Y959D01*
G01X18524Y919D02*
G01X18524Y959D01*
G01X18322Y919D02*
G01X18322Y959D01*
G01X18120Y914D02*
G01X18120Y959D01*
G01X17918Y156D02*
G01X17918Y959D01*
G01X17716Y156D02*
G01X17716Y268D01*
G01X17716Y751D02*
G01X17716Y959D01*
G01X17514Y938D02*
G01X17514Y959D01*
G01X4784Y156D02*
G01X4492Y156D01*
G01X4492Y156D02*
G01X4492Y201D01*
G01X4492Y201D02*
G01X4716Y201D01*
G01X4782Y212D02*
G01X4782Y185D01*
G01X4586Y156D02*
G01X4586Y201D01*
G01X13235Y185D02*
G01X13235Y835D01*
G01X13169Y959D02*
G01X14914Y959D01*
G01X14914Y959D02*
G01X17148Y959D01*
G01X16986Y156D02*
G01X13232Y156D01*
G01X13235Y339D02*
G01X16861Y339D01*
G01X13235Y541D02*
G01X16830Y541D01*
G01X13235Y743D02*
G01X16890Y743D01*
G01X13187Y945D02*
G01X17111Y945D01*
G01X17110Y944D02*
G01X17110Y959D01*
G01X16908Y156D02*
G01X16908Y246D01*
G01X16908Y773D02*
G01X16908Y959D01*
G01X16706Y156D02*
G01X16706Y959D01*
G01X16504Y156D02*
G01X16504Y959D01*
G01X16302Y156D02*
G01X16302Y959D01*
G01X16100Y156D02*
G01X16100Y959D01*
G01X15898Y156D02*
G01X15898Y959D01*
G01X15696Y156D02*
G01X15696Y959D01*
G01X15494Y156D02*
G01X15494Y959D01*
G01X15292Y156D02*
G01X15292Y959D01*
G01X15090Y156D02*
G01X15090Y959D01*
G01X14888Y156D02*
G01X14888Y959D01*
G01X14686Y156D02*
G01X14686Y959D01*
G01X14484Y156D02*
G01X14484Y959D01*
G01X14282Y156D02*
G01X14282Y959D01*
G01X14080Y156D02*
G01X14080Y959D01*
G01X13878Y156D02*
G01X13878Y959D01*
G01X13676Y156D02*
G01X13676Y959D01*
G01X13474Y156D02*
G01X13474Y959D01*
G01X13272Y156D02*
G01X13272Y959D01*
G01X19784Y156D02*
G01X19492Y156D01*
G01X19492Y156D02*
G01X19492Y201D01*
G01X19492Y201D02*
G01X19716Y201D01*
G01X19782Y212D02*
G01X19782Y185D01*
G01X19736Y156D02*
G01X19736Y202D01*
G01X19534Y156D02*
G01X19534Y201D01*
G01X12284Y156D02*
G01X11992Y156D01*
G01X11992Y156D02*
G01X11992Y201D01*
G01X11992Y201D02*
G01X12216Y201D01*
G01X12282Y212D02*
G01X12282Y185D01*
G01X12262Y156D02*
G01X12262Y207D01*
G01X12060Y156D02*
G01X12060Y201D01*
G01X20735Y185D02*
G01X20735Y835D01*
G01X20583Y986D02*
G01X20510Y986D01*
G01X20552Y1018D02*
G01X21501Y1967D01*
G01X21653Y1816D02*
G01X22303Y1816D01*
G01X22343Y1822D02*
G01X22343Y468D01*
G01X22031Y156D02*
G01X20732Y156D01*
G01X20735Y339D02*
G01X22315Y339D01*
G01X20735Y541D02*
G01X22343Y541D01*
G01X20735Y743D02*
G01X22343Y743D01*
G01X20687Y945D02*
G01X22343Y945D01*
G01X20681Y1147D02*
G01X22343Y1147D01*
G01X20883Y1349D02*
G01X22343Y1349D01*
G01X21085Y1551D02*
G01X22343Y1551D01*
G01X21287Y1753D02*
G01X22343Y1753D01*
G01X21489Y1955D02*
G01X21502Y1955D01*
G01X22160Y184D02*
G01X22160Y1816D01*
G01X21958Y156D02*
G01X21958Y1816D01*
G01X21756Y156D02*
G01X21756Y1816D01*
G01X21554Y156D02*
G01X21554Y1853D01*
G01X21352Y156D02*
G01X21352Y1818D01*
G01X21150Y156D02*
G01X21150Y1616D01*
G01X20948Y156D02*
G01X20948Y1414D01*
G01X20746Y156D02*
G01X20746Y1212D01*
G01X20544Y986D02*
G01X20544Y1010D01*
G01X20452Y1842D02*
G01X20452Y2047D01*
G01X20452Y2047D02*
G01X20657Y2047D01*
G01X21175Y3224D02*
G01X21580Y3629D01*
G01X21580Y3629D02*
G01X21580Y3159D01*
G01X21732Y3007D02*
G01X22343Y3007D01*
G01X22343Y3007D02*
G01X22343Y2764D01*
G01X22303Y2769D02*
G01X21653Y2769D01*
G01X21501Y2618D02*
G01X21501Y2490D01*
G01X21400Y2435D02*
G01X20327Y1362D01*
G01X20327Y1362D02*
G01X20263Y1362D01*
G01X20389Y1551D02*
G01X20515Y1551D01*
G01X20446Y1753D02*
G01X20717Y1753D01*
G01X20452Y1955D02*
G01X20919Y1955D01*
G01X21034Y2157D02*
G01X21121Y2157D01*
G01X21241Y2359D02*
G01X21323Y2359D01*
G01X21334Y2561D02*
G01X21501Y2561D01*
G01X21360Y2763D02*
G01X21609Y2763D01*
G01X21326Y2965D02*
G01X22343Y2965D01*
G01X21222Y3167D02*
G01X21580Y3167D01*
G01X21319Y3369D02*
G01X21580Y3369D01*
G01X21522Y3571D02*
G01X21580Y3571D01*
G01X22160Y2769D02*
G01X22160Y3007D01*
G01X21958Y2769D02*
G01X21958Y3007D01*
G01X21756Y2769D02*
G01X21756Y3007D01*
G01X21554Y2733D02*
G01X21554Y3603D01*
G01X21352Y2388D02*
G01X21352Y2648D01*
G01X21352Y2851D02*
G01X21352Y3401D01*
G01X21150Y2186D02*
G01X21150Y2249D01*
G01X20948Y1984D02*
G01X20948Y2110D01*
G01X20746Y1782D02*
G01X20746Y2053D01*
G01X20544Y1580D02*
G01X20544Y2047D01*
G01X20342Y1378D02*
G01X20342Y1465D01*
G01X18431Y1362D02*
G01X18263Y1362D01*
G01X18322Y1362D02*
G01X18322Y1435D01*
G01X10931Y1362D02*
G01X10763Y1362D01*
G01X10848Y1362D02*
G01X10848Y1449D01*
G01X11736Y1362D02*
G01X11568Y1362D01*
G01X11656Y1362D02*
G01X11656Y1456D01*
G01X19236Y1362D02*
G01X19068Y1362D01*
G01X19130Y1362D02*
G01X19130Y1423D01*
G01X3452Y2153D02*
G01X3452Y2157D01*
G01X2157Y3452D02*
G01X2153Y3452D01*
G01X2153Y4047D02*
G01X2157Y4047D01*
G01X3452Y5342D02*
G01X3452Y5346D01*
G01X4047Y5346D02*
G01X4047Y5342D01*
G01X5342Y4047D02*
G01X5346Y4047D01*
G01X5346Y3452D02*
G01X5342Y3452D01*
G01X4047Y2157D02*
G01X4047Y2153D01*
G01X3452Y2157D02*
G01X3457Y2157D01*
G01X4042Y2157D02*
G01X4047Y2157D01*
G01X3423Y2359D02*
G01X4076Y2359D01*
G01X3325Y2561D02*
G01X4174Y2561D01*
G01X3106Y2763D02*
G01X4393Y2763D01*
G01X2826Y2965D02*
G01X3211Y2965D01*
G01X4288Y2965D02*
G01X4673Y2965D01*
G01X2722Y3167D02*
G01X2997Y3167D01*
G01X4502Y3167D02*
G01X4777Y3167D01*
G01X2489Y3369D02*
G01X2878Y3369D01*
G01X4621Y3369D02*
G01X5010Y3369D01*
G01X2218Y3571D02*
G01X2815Y3571D01*
G01X4684Y3571D02*
G01X5281Y3571D01*
G01X2250Y3773D02*
G01X2798Y3773D01*
G01X4701Y3773D02*
G01X5249Y3773D01*
G01X2198Y3975D02*
G01X2825Y3975D01*
G01X4674Y3975D02*
G01X5301Y3975D01*
G01X2564Y4177D02*
G01X2899Y4177D01*
G01X4600Y4177D02*
G01X4935Y4177D01*
G01X2754Y4379D02*
G01X3036Y4379D01*
G01X4463Y4379D02*
G01X4745Y4379D01*
G01X2839Y4581D02*
G01X3286Y4581D01*
G01X4213Y4581D02*
G01X4660Y4581D01*
G01X3175Y4783D02*
G01X4324Y4783D01*
G01X3355Y4985D02*
G01X4144Y4985D01*
G01X3435Y5187D02*
G01X4064Y5187D01*
G01X5192Y3436D02*
G01X5192Y4063D01*
G01X4990Y3358D02*
G01X4990Y4141D01*
G01X4788Y3182D02*
G01X4788Y4317D01*
G01X4586Y2840D02*
G01X4586Y3297D01*
G01X4586Y4202D02*
G01X4586Y4659D01*
G01X4384Y2757D02*
G01X4384Y3041D01*
G01X4384Y4458D02*
G01X4384Y4742D01*
G01X4182Y2572D02*
G01X4182Y2902D01*
G01X4182Y4597D02*
G01X4182Y4927D01*
G01X3980Y2195D02*
G01X3980Y2826D01*
G01X3980Y4673D02*
G01X3980Y5304D01*
G01X3778Y2250D02*
G01X3778Y2798D01*
G01X3778Y4701D02*
G01X3778Y5249D01*
G01X3576Y2220D02*
G01X3576Y2814D01*
G01X3576Y4685D02*
G01X3576Y5279D01*
G01X3374Y2479D02*
G01X3374Y2875D01*
G01X3374Y4624D02*
G01X3374Y5020D01*
G01X3172Y2718D02*
G01X3172Y2993D01*
G01X3172Y4506D02*
G01X3172Y4781D01*
G01X2970Y2824D02*
G01X2970Y3203D01*
G01X2970Y4296D02*
G01X2970Y4675D01*
G01X2768Y3096D02*
G01X2768Y4403D01*
G01X2566Y3321D02*
G01X2566Y4178D01*
G01X2364Y3421D02*
G01X2364Y4078D01*
G01X2162Y3452D02*
G01X2162Y3465D01*
G01X2162Y4034D02*
G01X2162Y4047D01*
G01X19047Y2157D02*
G01X19047Y2153D01*
G01X18452Y2153D02*
G01X18452Y2157D01*
G01X17157Y3452D02*
G01X17153Y3452D01*
G01X17153Y4047D02*
G01X17157Y4047D01*
G01X18423Y5140D02*
G01X18869Y4693D01*
G01X19693Y3869D02*
G01X20140Y3423D01*
G01X18452Y2157D02*
G01X18457Y2157D01*
G01X19042Y2157D02*
G01X19047Y2157D01*
G01X18423Y2359D02*
G01X19076Y2359D01*
G01X18325Y2561D02*
G01X19174Y2561D01*
G01X18106Y2763D02*
G01X19393Y2763D01*
G01X17826Y2965D02*
G01X18211Y2965D01*
G01X19288Y2965D02*
G01X19673Y2965D01*
G01X17722Y3167D02*
G01X17997Y3167D01*
G01X19502Y3167D02*
G01X19777Y3167D01*
G01X17489Y3369D02*
G01X17878Y3369D01*
G01X19621Y3369D02*
G01X20010Y3369D01*
G01X17218Y3571D02*
G01X17815Y3571D01*
G01X19684Y3571D02*
G01X19992Y3571D01*
G01X17250Y3773D02*
G01X17798Y3773D01*
G01X19701Y3773D02*
G01X19790Y3773D01*
G01X17198Y3975D02*
G01X17825Y3975D01*
G01X17564Y4177D02*
G01X17899Y4177D01*
G01X17754Y4379D02*
G01X18036Y4379D01*
G01X17839Y4581D02*
G01X18286Y4581D01*
G01X18175Y4783D02*
G01X18780Y4783D01*
G01X18355Y4985D02*
G01X18578Y4985D01*
G01X19938Y3325D02*
G01X19938Y3625D01*
G01X19736Y3106D02*
G01X19736Y3827D01*
G01X19534Y2826D02*
G01X19534Y3211D01*
G01X19332Y2722D02*
G01X19332Y2997D01*
G01X19130Y2489D02*
G01X19130Y2878D01*
G01X18928Y2218D02*
G01X18928Y2815D01*
G01X18726Y2250D02*
G01X18726Y2798D01*
G01X18726Y4701D02*
G01X18726Y4837D01*
G01X18524Y2198D02*
G01X18524Y2825D01*
G01X18524Y4674D02*
G01X18524Y5039D01*
G01X18322Y2564D02*
G01X18322Y2899D01*
G01X18322Y4600D02*
G01X18322Y4935D01*
G01X18120Y2754D02*
G01X18120Y3036D01*
G01X18120Y4463D02*
G01X18120Y4745D01*
G01X17918Y2839D02*
G01X17918Y3286D01*
G01X17918Y4213D02*
G01X17918Y4660D01*
G01X17716Y3175D02*
G01X17716Y4324D01*
G01X17514Y3355D02*
G01X17514Y4144D01*
G01X17312Y3435D02*
G01X17312Y4064D01*
G01X11547Y2157D02*
G01X11547Y2153D01*
G01X10952Y2153D02*
G01X10952Y2157D01*
G01X9657Y3452D02*
G01X9653Y3452D01*
G01X9653Y4047D02*
G01X9657Y4047D01*
G01X10923Y5140D02*
G01X11369Y4693D01*
G01X12193Y3869D02*
G01X12640Y3423D01*
G01X10952Y2157D02*
G01X10957Y2157D01*
G01X11542Y2157D02*
G01X11547Y2157D01*
G01X10923Y2359D02*
G01X11576Y2359D01*
G01X10825Y2561D02*
G01X11674Y2561D01*
G01X10606Y2763D02*
G01X11893Y2763D01*
G01X10326Y2965D02*
G01X10711Y2965D01*
G01X11788Y2965D02*
G01X12173Y2965D01*
G01X10222Y3167D02*
G01X10497Y3167D01*
G01X12002Y3167D02*
G01X12277Y3167D01*
G01X9989Y3369D02*
G01X10378Y3369D01*
G01X12121Y3369D02*
G01X12510Y3369D01*
G01X9718Y3571D02*
G01X10315Y3571D01*
G01X12184Y3571D02*
G01X12492Y3571D01*
G01X9750Y3773D02*
G01X10298Y3773D01*
G01X12201Y3773D02*
G01X12290Y3773D01*
G01X9698Y3975D02*
G01X10325Y3975D01*
G01X10064Y4177D02*
G01X10399Y4177D01*
G01X10254Y4379D02*
G01X10536Y4379D01*
G01X10339Y4581D02*
G01X10786Y4581D01*
G01X10675Y4783D02*
G01X11280Y4783D01*
G01X10855Y4985D02*
G01X11078Y4985D01*
G01X12464Y3342D02*
G01X12464Y3599D01*
G01X12262Y3147D02*
G01X12262Y3801D01*
G01X12060Y2834D02*
G01X12060Y3251D01*
G01X11858Y2741D02*
G01X11858Y3018D01*
G01X11656Y2534D02*
G01X11656Y2889D01*
G01X11454Y2207D02*
G01X11454Y2820D01*
G01X11252Y2251D02*
G01X11252Y2798D01*
G01X11252Y4701D02*
G01X11252Y4811D01*
G01X11050Y2210D02*
G01X11050Y2819D01*
G01X11050Y4680D02*
G01X11050Y5013D01*
G01X10848Y2525D02*
G01X10848Y2887D01*
G01X10848Y4612D02*
G01X10848Y4974D01*
G01X10646Y2737D02*
G01X10646Y3014D01*
G01X10646Y4485D02*
G01X10646Y4762D01*
G01X10444Y2832D02*
G01X10444Y3243D01*
G01X10444Y4256D02*
G01X10444Y4667D01*
G01X10242Y3138D02*
G01X10242Y4361D01*
G01X10040Y3338D02*
G01X10040Y4161D01*
G01X9838Y3428D02*
G01X9838Y4071D01*
G01X21272Y3890D02*
G01X21239Y3858D01*
G01X21272Y4409D02*
G01X21272Y3890D01*
G01X21198Y3975D02*
G01X21272Y3975D01*
G01X21064Y4177D02*
G01X21272Y4177D01*
G01X21254Y4379D02*
G01X21272Y4379D01*
G01X21150Y4051D02*
G01X21150Y4249D01*
G01X20263Y3870D02*
G01X19993Y4140D01*
G01X20342Y4047D02*
G01X20346Y4047D01*
G01X20158Y3975D02*
G01X20301Y3975D01*
G01X20342Y4042D02*
G01X20342Y4047D01*
G01X20140Y3992D02*
G01X20140Y4076D01*
G01X12763Y3870D02*
G01X12493Y4140D01*
G01X12842Y4047D02*
G01X12846Y4047D01*
G01X12658Y3975D02*
G01X12801Y3975D01*
G01X12666Y3966D02*
G01X12666Y4069D01*
G01X12232Y4401D02*
G01X11901Y4732D01*
G01X12052Y4581D02*
G01X12160Y4581D01*
G01X12060Y4572D02*
G01X12060Y4665D01*
G01X19732Y4401D02*
G01X19401Y4732D01*
G01X19552Y4581D02*
G01X19660Y4581D01*
G01X19534Y4598D02*
G01X19534Y4673D01*
G01X21675Y4480D02*
G01X21675Y4657D01*
G01X21675Y4657D02*
G01X21815Y4798D01*
G01X22343Y4939D02*
G01X22343Y4492D01*
G01X22343Y4492D02*
G01X21732Y4492D01*
G01X21675Y4581D02*
G01X22343Y4581D01*
G01X21800Y4783D02*
G01X21865Y4783D01*
G01X22091Y4783D02*
G01X22343Y4783D01*
G01X22160Y4492D02*
G01X22160Y4805D01*
G01X21958Y4492D02*
G01X21958Y4770D01*
G01X21756Y4492D02*
G01X21756Y4739D01*
G01X19140Y4993D02*
G01X18870Y5263D01*
G01X19047Y5346D02*
G01X19047Y5342D01*
G01X18946Y5187D02*
G01X19064Y5187D01*
G01X19130Y5002D02*
G01X19130Y5010D01*
G01X18928Y5204D02*
G01X18928Y5281D01*
G01X11640Y4993D02*
G01X11370Y5263D01*
G01X11547Y5346D02*
G01X11547Y5342D01*
G01X11446Y5187D02*
G01X11564Y5187D01*
G01X11454Y5178D02*
G01X11454Y5292D01*
G01X4031Y6164D02*
G01X4263Y6164D01*
G01X4182Y6072D02*
G01X4182Y6164D01*
G01X9963Y8459D02*
G01X12347Y8459D01*
G01X12282Y8335D02*
G01X12282Y7685D01*
G01X12285Y7651D02*
G01X10119Y7651D01*
G01X10239Y7813D02*
G01X12282Y7813D01*
G01X10282Y8015D02*
G01X12282Y8015D01*
G01X10234Y8217D02*
G01X12282Y8217D01*
G01X10049Y8419D02*
G01X12307Y8419D01*
G01X12262Y7651D02*
G01X12262Y8459D01*
G01X12060Y7651D02*
G01X12060Y8459D01*
G01X11858Y7651D02*
G01X11858Y8459D01*
G01X11656Y7651D02*
G01X11656Y8459D01*
G01X11454Y7651D02*
G01X11454Y8459D01*
G01X11252Y7651D02*
G01X11252Y8459D01*
G01X11050Y7651D02*
G01X11050Y8459D01*
G01X10848Y7651D02*
G01X10848Y8459D01*
G01X10646Y7651D02*
G01X10646Y8459D01*
G01X10444Y7651D02*
G01X10444Y8459D01*
G01X10242Y7651D02*
G01X10242Y7819D01*
G01X10242Y8200D02*
G01X10242Y8459D01*
G01X10040Y8424D02*
G01X10040Y8459D01*
G01X10931Y8862D02*
G01X10763Y8862D01*
G01X10848Y8862D02*
G01X10848Y8949D01*
G01X11736Y8862D02*
G01X11568Y8862D01*
G01X11656Y8862D02*
G01X11656Y8956D01*
G01X12952Y9342D02*
G01X12952Y9547D01*
G01X12952Y9547D02*
G01X13157Y9547D01*
G01X13675Y10724D02*
G01X14080Y11129D01*
G01X14080Y11129D02*
G01X14080Y10659D01*
G01X14232Y10507D02*
G01X14843Y10507D01*
G01X14843Y10507D02*
G01X14843Y10264D01*
G01X14803Y10269D02*
G01X14153Y10269D01*
G01X14001Y10118D02*
G01X14001Y9990D01*
G01X13900Y9935D02*
G01X12827Y8862D01*
G01X12827Y8862D02*
G01X12763Y8862D01*
G01X12876Y9025D02*
G01X12989Y9025D01*
G01X12943Y9227D02*
G01X13191Y9227D01*
G01X12952Y9429D02*
G01X13393Y9429D01*
G01X13490Y9631D02*
G01X13595Y9631D01*
G01X13723Y9833D02*
G01X13797Y9833D01*
G01X13826Y10035D02*
G01X14001Y10035D01*
G01X13860Y10237D02*
G01X14059Y10237D01*
G01X13834Y10439D02*
G01X14843Y10439D01*
G01X13741Y10641D02*
G01X14081Y10641D01*
G01X13793Y10843D02*
G01X14080Y10843D01*
G01X13996Y11045D02*
G01X14080Y11045D01*
G01X14686Y10269D02*
G01X14686Y10507D01*
G01X14484Y10269D02*
G01X14484Y10507D01*
G01X14282Y10269D02*
G01X14282Y10507D01*
G01X14080Y10251D02*
G01X14080Y11129D01*
G01X13878Y9914D02*
G01X13878Y10927D01*
G01X13676Y9712D02*
G01X13676Y9776D01*
G01X13676Y10723D02*
G01X13676Y10726D01*
G01X13474Y9510D02*
G01X13474Y9623D01*
G01X13272Y9308D02*
G01X13272Y9556D01*
G01X13070Y9106D02*
G01X13070Y9547D01*
G01X12868Y8904D02*
G01X12868Y9009D01*
G01X9569Y9167D02*
G01X9167Y9569D01*
G01X9342Y9547D02*
G01X9547Y9547D01*
G01X9547Y9547D02*
G01X9547Y9342D01*
G01X9509Y9227D02*
G01X9556Y9227D01*
G01X9307Y9429D02*
G01X9547Y9429D01*
G01X9434Y9301D02*
G01X9434Y9547D01*
G01X9232Y9503D02*
G01X9232Y9555D01*
G01X11547Y9657D02*
G01X11547Y9653D01*
G01X10952Y9653D02*
G01X10952Y9657D01*
G01X9657Y10952D02*
G01X9653Y10952D01*
G01X9653Y11547D02*
G01X9657Y11547D01*
G01X10923Y12640D02*
G01X11369Y12193D01*
G01X12193Y11369D02*
G01X12640Y10923D01*
G01X10930Y9833D02*
G01X11569Y9833D01*
G01X10842Y10035D02*
G01X11657Y10035D01*
G01X10647Y10237D02*
G01X11852Y10237D01*
G01X10334Y10439D02*
G01X10751Y10439D01*
G01X11748Y10439D02*
G01X12165Y10439D01*
G01X10241Y10641D02*
G01X10518Y10641D01*
G01X11981Y10641D02*
G01X12258Y10641D01*
G01X10034Y10843D02*
G01X10389Y10843D01*
G01X12110Y10843D02*
G01X12465Y10843D01*
G01X9707Y11045D02*
G01X10320Y11045D01*
G01X12179Y11045D02*
G01X12518Y11045D01*
G01X9751Y11247D02*
G01X10298Y11247D01*
G01X12201Y11247D02*
G01X12316Y11247D01*
G01X9710Y11449D02*
G01X10319Y11449D01*
G01X10025Y11651D02*
G01X10387Y11651D01*
G01X10237Y11853D02*
G01X10514Y11853D01*
G01X10332Y12055D02*
G01X10743Y12055D01*
G01X10638Y12257D02*
G01X11306Y12257D01*
G01X10838Y12459D02*
G01X11104Y12459D01*
G01X12464Y10842D02*
G01X12464Y11099D01*
G01X12262Y10647D02*
G01X12262Y11301D01*
G01X12060Y10334D02*
G01X12060Y10751D01*
G01X11858Y10241D02*
G01X11858Y10518D01*
G01X11656Y10034D02*
G01X11656Y10389D01*
G01X11454Y9707D02*
G01X11454Y10320D01*
G01X11252Y9751D02*
G01X11252Y10298D01*
G01X11252Y12201D02*
G01X11252Y12311D01*
G01X11050Y9710D02*
G01X11050Y10319D01*
G01X11050Y12180D02*
G01X11050Y12513D01*
G01X10848Y10025D02*
G01X10848Y10387D01*
G01X10848Y12112D02*
G01X10848Y12474D01*
G01X10646Y10237D02*
G01X10646Y10514D01*
G01X10646Y11985D02*
G01X10646Y12262D01*
G01X10444Y10332D02*
G01X10444Y10743D01*
G01X10444Y11756D02*
G01X10444Y12167D01*
G01X10242Y10638D02*
G01X10242Y11861D01*
G01X10040Y10838D02*
G01X10040Y11661D01*
G01X9838Y10928D02*
G01X9838Y11571D01*
G01X8662Y10074D02*
G01X8228Y10507D01*
G01X8228Y10507D02*
G01X8267Y10507D01*
G01X8419Y10659D02*
G01X8419Y11840D01*
G01X8267Y11992D02*
G01X7656Y11992D01*
G01X7656Y11992D02*
G01X7656Y14531D01*
G01X7968Y14843D02*
G01X10507Y14843D01*
G01X10507Y14843D02*
G01X10507Y14232D01*
G01X10659Y14080D02*
G01X11840Y14080D01*
G01X11992Y14232D02*
G01X11992Y14843D01*
G01X11992Y14843D02*
G01X14531Y14843D01*
G01X14843Y14531D02*
G01X14843Y13052D01*
G01X14030Y12583D02*
G01X13844Y12397D01*
G01X13157Y12952D02*
G01X12952Y12952D01*
G01X12952Y12952D02*
G01X12952Y13157D01*
G01X9547Y13157D02*
G01X9547Y12952D01*
G01X9547Y12952D02*
G01X9342Y12952D01*
G01X8499Y10237D02*
G01X8639Y10237D01*
G01X8297Y10439D02*
G01X8665Y10439D01*
G01X8418Y10641D02*
G01X8758Y10641D01*
G01X8419Y10843D02*
G01X8956Y10843D01*
G01X8419Y11045D02*
G01X8792Y11045D01*
G01X8419Y11247D02*
G01X8748Y11247D01*
G01X8419Y11449D02*
G01X8789Y11449D01*
G01X8419Y11651D02*
G01X8949Y11651D01*
G01X8418Y11853D02*
G01X8762Y11853D01*
G01X7656Y12055D02*
G01X8667Y12055D01*
G01X7656Y12257D02*
G01X8639Y12257D01*
G01X7656Y12459D02*
G01X8671Y12459D01*
G01X13828Y12459D02*
G01X13906Y12459D01*
G01X7656Y12661D02*
G01X8772Y12661D01*
G01X13727Y12661D02*
G01X14009Y12661D01*
G01X7656Y12863D02*
G01X8999Y12863D01*
G01X13500Y12863D02*
G01X14016Y12863D01*
G01X7656Y13065D02*
G01X9547Y13065D01*
G01X12952Y13065D02*
G01X14124Y13065D01*
G01X14832Y13065D02*
G01X14843Y13065D01*
G01X7656Y13267D02*
G01X9555Y13267D01*
G01X12944Y13267D02*
G01X14843Y13267D01*
G01X7656Y13469D02*
G01X9620Y13469D01*
G01X12879Y13469D02*
G01X14843Y13469D01*
G01X7656Y13671D02*
G01X9770Y13671D01*
G01X10729Y13671D02*
G01X10977Y13671D01*
G01X11522Y13671D02*
G01X11770Y13671D01*
G01X12729Y13671D02*
G01X14843Y13671D01*
G01X7656Y13873D02*
G01X14843Y13873D01*
G01X7656Y14075D02*
G01X14843Y14075D01*
G01X7656Y14277D02*
G01X10507Y14277D01*
G01X11992Y14277D02*
G01X14843Y14277D01*
G01X7656Y14479D02*
G01X10507Y14479D01*
G01X11992Y14479D02*
G01X14843Y14479D01*
G01X7694Y14681D02*
G01X10507Y14681D01*
G01X11992Y14681D02*
G01X14805Y14681D01*
G01X14686Y13174D02*
G01X14686Y14802D01*
G01X14484Y13222D02*
G01X14484Y14843D01*
G01X14282Y13180D02*
G01X14282Y14843D01*
G01X14080Y13008D02*
G01X14080Y14843D01*
G01X13878Y12431D02*
G01X13878Y14843D01*
G01X13676Y12723D02*
G01X13676Y14843D01*
G01X13474Y12876D02*
G01X13474Y14843D01*
G01X13272Y12943D02*
G01X13272Y14843D01*
G01X13070Y12952D02*
G01X13070Y14843D01*
G01X12868Y13490D02*
G01X12868Y14843D01*
G01X12666Y13723D02*
G01X12666Y14843D01*
G01X12464Y13826D02*
G01X12464Y14843D01*
G01X12262Y13860D02*
G01X12262Y14843D01*
G01X12060Y13834D02*
G01X12060Y14843D01*
G01X11858Y13741D02*
G01X11858Y14081D01*
G01X11656Y13543D02*
G01X11656Y14080D01*
G01X11454Y13707D02*
G01X11454Y14080D01*
G01X11252Y13751D02*
G01X11252Y14080D01*
G01X11050Y13710D02*
G01X11050Y14080D01*
G01X10848Y13550D02*
G01X10848Y14080D01*
G01X10646Y13737D02*
G01X10646Y14081D01*
G01X10444Y13832D02*
G01X10444Y14843D01*
G01X10242Y13860D02*
G01X10242Y14843D01*
G01X10040Y13828D02*
G01X10040Y14843D01*
G01X9838Y13727D02*
G01X9838Y14843D01*
G01X9636Y13500D02*
G01X9636Y14843D01*
G01X9434Y12952D02*
G01X9434Y14843D01*
G01X9232Y12944D02*
G01X9232Y14843D01*
G01X9030Y12879D02*
G01X9030Y14843D01*
G01X8828Y10729D02*
G01X8828Y10977D01*
G01X8828Y11522D02*
G01X8828Y11770D01*
G01X8828Y12729D02*
G01X8828Y14843D01*
G01X8626Y10109D02*
G01X8626Y14843D01*
G01X8424Y10311D02*
G01X8424Y14843D01*
G01X8222Y11992D02*
G01X8222Y14843D01*
G01X8020Y11992D02*
G01X8020Y14843D01*
G01X7818Y11992D02*
G01X7818Y14805D01*
G01X13772Y11390D02*
G01X13739Y11358D01*
G01X13772Y11909D02*
G01X13772Y11390D01*
G01X13710Y11449D02*
G01X13772Y11449D01*
G01X13550Y11651D02*
G01X13772Y11651D01*
G01X13737Y11853D02*
G01X13772Y11853D01*
G01X13676Y11513D02*
G01X13676Y11776D01*
G01X12763Y11370D02*
G01X12493Y11640D01*
G01X12842Y11547D02*
G01X12846Y11547D01*
G01X12684Y11449D02*
G01X12789Y11449D01*
G01X12666Y11466D02*
G01X12666Y11569D01*
G01X12232Y11901D02*
G01X11901Y12232D01*
G01X12078Y12055D02*
G01X12167Y12055D01*
G01X12060Y12072D02*
G01X12060Y12165D01*
G01X14175Y11980D02*
G01X14175Y12157D01*
G01X14175Y12157D02*
G01X14315Y12298D01*
G01X14843Y12439D02*
G01X14843Y11992D01*
G01X14843Y11992D02*
G01X14232Y11992D01*
G01X14175Y12055D02*
G01X14843Y12055D01*
G01X14274Y12257D02*
G01X14843Y12257D01*
G01X14686Y11992D02*
G01X14686Y12317D01*
G01X14484Y11992D02*
G01X14484Y12269D01*
G01X14282Y11992D02*
G01X14282Y12265D01*
G01X11640Y12493D02*
G01X11370Y12763D01*
G01X11547Y12846D02*
G01X11547Y12842D01*
G01X11472Y12661D02*
G01X11571Y12661D01*
G01X11454Y12678D02*
G01X11454Y12792D01*

%LPD*%
G36*
G01X10232Y7385D02*
G01X10213Y7387D01*
G01X10198Y7386D01*
G01X10185Y7384D01*
G01X10172Y7380D01*
G01X10161Y7375D01*
G01X10150Y7368D01*
G01X10141Y7360D01*
G01X10131Y7350D01*
G01X10123Y7339D01*
G01X10123Y7380D01*
G01X10075Y7380D01*
G01X10075Y6950D01*
G01X10128Y6950D01*
G01X10128Y7101D01*
G01X10135Y7092D01*
G01X10143Y7085D01*
G01X10152Y7078D01*
G01X10172Y7068D01*
G01X10184Y7064D01*
G01X10196Y7062D01*
G01X10209Y7062D01*
G01X10226Y7063D01*
G01X10244Y7067D01*
G01X10261Y7073D01*
G01X10278Y7082D01*
G01X10293Y7093D01*
G01X10307Y7106D01*
G01X10318Y7122D01*
G01X10328Y7141D01*
G01X10335Y7160D01*
G01X10340Y7181D01*
G01X10344Y7203D01*
G01X10345Y7227D01*
G01X10344Y7248D01*
G01X10341Y7269D01*
G01X10336Y7289D01*
G01X10329Y7309D01*
G01X10320Y7326D01*
G01X10310Y7341D01*
G01X10297Y7354D01*
G01X10283Y7366D01*
G01X10267Y7375D01*
G01X10250Y7381D01*
G01X10232Y7385D01*
G37*

%LPC*%
G36*
G01X10224Y7344D02*
G01X10208Y7346D01*
G01X10191Y7344D01*
G01X10176Y7338D01*
G01X10161Y7328D01*
G01X10148Y7314D01*
G01X10137Y7296D01*
G01X10129Y7275D01*
G01X10124Y7251D01*
G01X10123Y7223D01*
G01X10124Y7194D01*
G01X10129Y7170D01*
G01X10136Y7150D01*
G01X10147Y7134D01*
G01X10159Y7121D01*
G01X10173Y7112D01*
G01X10189Y7106D01*
G01X10206Y7105D01*
G01X10223Y7106D01*
G01X10238Y7112D01*
G01X10253Y7121D01*
G01X10266Y7135D01*
G01X10284Y7173D01*
G01X10291Y7227D01*
G01X10289Y7254D01*
G01X10285Y7278D01*
G01X10277Y7299D01*
G01X10267Y7316D01*
G01X10254Y7329D01*
G01X10239Y7338D01*
G01X10224Y7344D01*
G37*

%LPD*%
G36*
G01X9883Y7499D02*
G01X9866Y7500D01*
G01X9844Y7498D01*
G01X9823Y7493D01*
G01X9805Y7485D01*
G01X9789Y7475D01*
G01X9774Y7461D01*
G01X9761Y7444D01*
G01X9751Y7425D01*
G01X9742Y7403D01*
G01X9730Y7349D01*
G01X9726Y7281D01*
G01X9728Y7224D01*
G01X9736Y7176D01*
G01X9750Y7137D01*
G01X9769Y7106D01*
G01X9810Y7072D01*
G01X9866Y7061D01*
G01X9889Y7062D01*
G01X9909Y7067D01*
G01X9928Y7075D01*
G01X9945Y7087D01*
G01X9959Y7100D01*
G01X9971Y7117D01*
G01X9982Y7136D01*
G01X9991Y7159D01*
G01X10003Y7212D01*
G01X10007Y7281D01*
G01X10004Y7337D01*
G01X9997Y7382D01*
G01X9991Y7400D01*
G01X9985Y7417D01*
G01X9978Y7432D01*
G01X9970Y7446D01*
G01X9961Y7458D01*
G01X9950Y7469D01*
G01X9939Y7478D01*
G01X9927Y7486D01*
G01X9913Y7492D01*
G01X9898Y7496D01*
G01X9883Y7499D01*
G37*

%LPC*%
G36*
G01X9883Y7453D02*
G01X9866Y7456D01*
G01X9849Y7454D01*
G01X9833Y7448D01*
G01X9820Y7439D01*
G01X9808Y7426D01*
G01X9796Y7401D01*
G01X9787Y7369D01*
G01X9782Y7329D01*
G01X9781Y7281D01*
G01X9787Y7192D01*
G01X9805Y7140D01*
G01X9818Y7124D01*
G01X9832Y7113D01*
G01X9848Y7107D01*
G01X9866Y7105D01*
G01X9883Y7107D01*
G01X9900Y7113D01*
G01X9914Y7124D01*
G01X9928Y7140D01*
G01X9946Y7192D01*
G01X9952Y7281D01*
G01X9946Y7369D01*
G01X9928Y7421D01*
G01X9914Y7436D01*
G01X9900Y7447D01*
G01X9883Y7453D01*
G37*

%LPD*%
G36*
G01X13062Y7498D02*
G01X13009Y7498D01*
G01X13009Y7069D01*
G01X13058Y7069D01*
G01X13058Y7108D01*
G01X13095Y7073D01*
G01X13145Y7062D01*
G01X13196Y7072D01*
G01X13240Y7105D01*
G01X13269Y7158D01*
G01X13279Y7229D01*
G01X13278Y7245D01*
G01X13274Y7277D01*
G01X13270Y7292D01*
G01X13265Y7306D01*
G01X13259Y7319D01*
G01X13252Y7331D01*
G01X13244Y7343D01*
G01X13235Y7352D01*
G01X13225Y7361D01*
G01X13214Y7368D01*
G01X13202Y7375D01*
G01X13188Y7380D01*
G01X13175Y7384D01*
G01X13161Y7386D01*
G01X13147Y7387D01*
G01X13100Y7376D01*
G01X13062Y7345D01*
G01X13062Y7498D01*
G37*

%LPC*%
G36*
G01X13159Y7342D02*
G01X13143Y7344D01*
G01X13126Y7342D01*
G01X13110Y7336D01*
G01X13096Y7327D01*
G01X13083Y7314D01*
G01X13072Y7296D01*
G01X13064Y7276D01*
G01X13059Y7253D01*
G01X13058Y7227D01*
G01X13059Y7200D01*
G01X13061Y7178D01*
G01X13066Y7160D01*
G01X13073Y7146D01*
G01X13086Y7128D01*
G01X13102Y7115D01*
G01X13120Y7107D01*
G01X13140Y7105D01*
G01X13157Y7106D01*
G01X13172Y7112D01*
G01X13187Y7121D01*
G01X13200Y7135D01*
G01X13211Y7151D01*
G01X13218Y7172D01*
G01X13223Y7196D01*
G01X13225Y7225D01*
G01X13223Y7253D01*
G01X13219Y7278D01*
G01X13211Y7298D01*
G01X13201Y7315D01*
G01X13188Y7327D01*
G01X13174Y7336D01*
G01X13159Y7342D01*
G37*

%LPD*%
G36*
G01X12728Y7380D02*
G01X12675Y7380D01*
G01X12675Y7157D01*
G01X12676Y7146D01*
G01X12681Y7126D01*
G01X12684Y7116D01*
G01X12689Y7107D01*
G01X12694Y7099D01*
G01X12700Y7091D01*
G01X12718Y7077D01*
G01X12742Y7067D01*
G01X12754Y7064D01*
G01X12767Y7062D01*
G01X12781Y7062D01*
G01X12837Y7075D01*
G01X12880Y7114D01*
G01X12880Y7069D01*
G01X12927Y7069D01*
G01X12927Y7380D01*
G01X12874Y7380D01*
G01X12874Y7213D01*
G01X12873Y7194D01*
G01X12872Y7177D01*
G01X12869Y7163D01*
G01X12866Y7152D01*
G01X12860Y7142D01*
G01X12854Y7133D01*
G01X12845Y7125D01*
G01X12836Y7119D01*
G01X12825Y7113D01*
G01X12803Y7107D01*
G01X12780Y7107D01*
G01X12760Y7113D01*
G01X12744Y7125D01*
G01X12738Y7133D01*
G01X12734Y7142D01*
G01X12731Y7152D01*
G01X12729Y7160D01*
G01X12728Y7172D01*
G01X12728Y7380D01*
G37*

%LPD*%
G36*
G01X12392Y7385D02*
G01X12368Y7387D01*
G01X12348Y7385D01*
G01X12329Y7382D01*
G01X12311Y7376D01*
G01X12294Y7368D01*
G01X12278Y7357D01*
G01X12264Y7344D01*
G01X12252Y7328D01*
G01X12243Y7311D01*
G01X12236Y7291D01*
G01X12231Y7270D01*
G01X12228Y7247D01*
G01X12227Y7223D01*
G01X12236Y7154D01*
G01X12265Y7103D01*
G01X12310Y7072D01*
G01X12368Y7062D01*
G01X12392Y7063D01*
G01X12415Y7069D01*
G01X12435Y7078D01*
G01X12454Y7092D01*
G01X12482Y7128D01*
G01X12498Y7176D01*
G01X12446Y7183D01*
G01X12442Y7164D01*
G01X12436Y7148D01*
G01X12428Y7134D01*
G01X12419Y7124D01*
G01X12408Y7115D01*
G01X12396Y7109D01*
G01X12382Y7106D01*
G01X12368Y7105D01*
G01X12349Y7106D01*
G01X12332Y7112D01*
G01X12318Y7120D01*
G01X12305Y7133D01*
G01X12287Y7170D01*
G01X12281Y7225D01*
G01X12282Y7253D01*
G01X12287Y7278D01*
G01X12295Y7298D01*
G01X12306Y7315D01*
G01X12319Y7327D01*
G01X12334Y7336D01*
G01X12351Y7342D01*
G01X12370Y7344D01*
G01X12383Y7343D01*
G01X12394Y7340D01*
G01X12405Y7335D01*
G01X12415Y7328D01*
G01X12423Y7319D01*
G01X12431Y7308D01*
G01X12436Y7295D01*
G01X12441Y7281D01*
G01X12493Y7288D01*
G01X12487Y7310D01*
G01X12478Y7330D01*
G01X12466Y7347D01*
G01X12451Y7361D01*
G01X12433Y7372D01*
G01X12414Y7380D01*
G01X12392Y7385D01*
G37*

%LPD*%
G36*
G01X11426Y7376D02*
G01X11370Y7387D01*
G01X11311Y7376D01*
G01X11265Y7344D01*
G01X11234Y7291D01*
G01X11224Y7222D01*
G01X11234Y7154D01*
G01X11264Y7104D01*
G01X11311Y7072D01*
G01X11373Y7062D01*
G01X11398Y7063D01*
G01X11422Y7068D01*
G01X11443Y7076D01*
G01X11462Y7088D01*
G01X11478Y7102D01*
G01X11491Y7119D01*
G01X11501Y7139D01*
G01X11509Y7162D01*
G01X11455Y7169D01*
G01X11448Y7153D01*
G01X11440Y7140D01*
G01X11432Y7129D01*
G01X11422Y7120D01*
G01X11411Y7113D01*
G01X11399Y7108D01*
G01X11387Y7105D01*
G01X11373Y7105D01*
G01X11354Y7106D01*
G01X11337Y7111D01*
G01X11321Y7120D01*
G01X11308Y7132D01*
G01X11296Y7147D01*
G01X11287Y7165D01*
G01X11282Y7186D01*
G01X11279Y7211D01*
G01X11511Y7211D01*
G01X11511Y7225D01*
G01X11501Y7293D01*
G01X11472Y7344D01*
G01X11426Y7376D01*
G37*

%LPC*%
G36*
G01X11389Y7342D02*
G01X11370Y7344D01*
G01X11352Y7342D01*
G01X11336Y7337D01*
G01X11322Y7329D01*
G01X11309Y7319D01*
G01X11298Y7305D01*
G01X11289Y7290D01*
G01X11284Y7273D01*
G01X11282Y7254D01*
G01X11456Y7254D01*
G01X11453Y7272D01*
G01X11449Y7288D01*
G01X11443Y7301D01*
G01X11436Y7313D01*
G01X11422Y7326D01*
G01X11406Y7336D01*
G01X11389Y7342D01*
G37*

%LPD*%
G36*
G01X11092Y7385D02*
G01X11068Y7387D01*
G01X11048Y7385D01*
G01X11029Y7382D01*
G01X11010Y7376D01*
G01X10993Y7368D01*
G01X10977Y7357D01*
G01X10963Y7344D01*
G01X10952Y7328D01*
G01X10943Y7311D01*
G01X10935Y7291D01*
G01X10930Y7270D01*
G01X10927Y7247D01*
G01X10926Y7223D01*
G01X10935Y7154D01*
G01X10965Y7103D01*
G01X11009Y7072D01*
G01X11067Y7062D01*
G01X11091Y7063D01*
G01X11114Y7069D01*
G01X11134Y7078D01*
G01X11153Y7092D01*
G01X11181Y7128D01*
G01X11197Y7176D01*
G01X11145Y7183D01*
G01X11141Y7164D01*
G01X11135Y7148D01*
G01X11128Y7134D01*
G01X11119Y7124D01*
G01X11108Y7115D01*
G01X11095Y7109D01*
G01X11082Y7106D01*
G01X11067Y7105D01*
G01X11048Y7106D01*
G01X11031Y7112D01*
G01X11017Y7120D01*
G01X11004Y7133D01*
G01X10986Y7170D01*
G01X10980Y7225D01*
G01X10981Y7253D01*
G01X10986Y7278D01*
G01X10994Y7298D01*
G01X11005Y7315D01*
G01X11018Y7327D01*
G01X11033Y7336D01*
G01X11051Y7342D01*
G01X11070Y7344D01*
G01X11082Y7343D01*
G01X11094Y7340D01*
G01X11105Y7335D01*
G01X11115Y7328D01*
G01X11123Y7319D01*
G01X11130Y7308D01*
G01X11136Y7295D01*
G01X11141Y7281D01*
G01X11192Y7288D01*
G01X11186Y7310D01*
G01X11177Y7330D01*
G01X11165Y7347D01*
G01X11151Y7361D01*
G01X11133Y7372D01*
G01X11113Y7380D01*
G01X11092Y7385D01*
G37*

%LPD*%
G36*
G01X10593Y7376D02*
G01X10536Y7387D01*
G01X10477Y7376D01*
G01X10431Y7344D01*
G01X10401Y7291D01*
G01X10391Y7222D01*
G01X10401Y7154D01*
G01X10431Y7104D01*
G01X10478Y7072D01*
G01X10539Y7062D01*
G01X10564Y7063D01*
G01X10588Y7068D01*
G01X10609Y7076D01*
G01X10628Y7088D01*
G01X10644Y7102D01*
G01X10657Y7119D01*
G01X10668Y7139D01*
G01X10676Y7162D01*
G01X10621Y7169D01*
G01X10614Y7153D01*
G01X10607Y7140D01*
G01X10598Y7129D01*
G01X10589Y7120D01*
G01X10578Y7113D01*
G01X10566Y7108D01*
G01X10553Y7105D01*
G01X10539Y7105D01*
G01X10520Y7106D01*
G01X10503Y7111D01*
G01X10487Y7120D01*
G01X10474Y7132D01*
G01X10462Y7147D01*
G01X10453Y7165D01*
G01X10448Y7186D01*
G01X10445Y7211D01*
G01X10677Y7211D01*
G01X10677Y7219D01*
G01X10678Y7222D01*
G01X10678Y7225D01*
G01X10668Y7293D01*
G01X10638Y7344D01*
G01X10593Y7376D01*
G37*

%LPC*%
G36*
G01X10556Y7342D02*
G01X10537Y7344D01*
G01X10519Y7342D01*
G01X10503Y7337D01*
G01X10488Y7329D01*
G01X10476Y7319D01*
G01X10464Y7305D01*
G01X10456Y7290D01*
G01X10451Y7273D01*
G01X10448Y7254D01*
G01X10622Y7254D01*
G01X10619Y7272D01*
G01X10615Y7288D01*
G01X10609Y7301D01*
G01X10602Y7313D01*
G01X10588Y7326D01*
G01X10573Y7336D01*
G01X10556Y7342D01*
G37*

%LPD*%
G36*
G01X11971Y7380D02*
G01X11971Y7489D01*
G01X11919Y7457D01*
G01X11919Y7380D01*
G01X11880Y7380D01*
G01X11880Y7339D01*
G01X11919Y7339D01*
G01X11919Y7138D01*
G01X11920Y7120D01*
G01X11922Y7107D01*
G01X11925Y7098D01*
G01X11929Y7090D01*
G01X11934Y7084D01*
G01X11940Y7078D01*
G01X11956Y7070D01*
G01X11967Y7067D01*
G01X11978Y7065D01*
G01X12001Y7065D01*
G01X12021Y7067D01*
G01X12032Y7069D01*
G01X12024Y7116D01*
G01X12017Y7115D01*
G01X12011Y7114D01*
G01X11995Y7114D01*
G01X11991Y7115D01*
G01X11986Y7116D01*
G01X11983Y7118D01*
G01X11980Y7119D01*
G01X11975Y7124D01*
G01X11974Y7128D01*
G01X11972Y7132D01*
G01X11971Y7138D01*
G01X11971Y7339D01*
G01X12024Y7339D01*
G01X12024Y7380D01*
G01X11971Y7380D01*
G37*

%LPD*%
G36*
G01X12594Y7498D02*
G01X12542Y7498D01*
G01X12542Y7069D01*
G01X12594Y7069D01*
G01X12594Y7498D01*
G37*

%LPD*%
G36*
G01X12151Y7129D02*
G01X12091Y7129D01*
G01X12091Y7069D01*
G01X12151Y7069D01*
G01X12151Y7129D01*
G37*

%LPD*%
G36*
G01X11735Y7386D02*
G01X11722Y7387D01*
G01X11664Y7374D01*
G01X11623Y7336D01*
G01X11623Y7380D01*
G01X11576Y7380D01*
G01X11576Y7069D01*
G01X11628Y7069D01*
G01X11628Y7239D01*
G01X11629Y7266D01*
G01X11634Y7288D01*
G01X11642Y7306D01*
G01X11653Y7320D01*
G01X11665Y7329D01*
G01X11679Y7335D01*
G01X11694Y7339D01*
G01X11711Y7341D01*
G01X11721Y7340D01*
G01X11730Y7338D01*
G01X11748Y7332D01*
G01X11755Y7326D01*
G01X11761Y7320D01*
G01X11766Y7313D01*
G01X11770Y7306D01*
G01X11772Y7297D01*
G01X11774Y7286D01*
G01X11775Y7273D01*
G01X11776Y7258D01*
G01X11776Y7069D01*
G01X11828Y7069D01*
G01X11828Y7277D01*
G01X11827Y7291D01*
G01X11826Y7302D01*
G01X11826Y7311D01*
G01X11823Y7322D01*
G01X11819Y7332D01*
G01X11809Y7350D01*
G01X11802Y7358D01*
G01X11794Y7365D01*
G01X11774Y7377D01*
G01X11761Y7381D01*
G01X11749Y7384D01*
G01X11735Y7386D01*
G37*

%LPD*%
G36*
G01X10869Y7385D02*
G01X10856Y7387D01*
G01X10847Y7386D01*
G01X10838Y7384D01*
G01X10830Y7380D01*
G01X10823Y7376D01*
G01X10815Y7369D01*
G01X10806Y7360D01*
G01X10798Y7348D01*
G01X10789Y7333D01*
G01X10789Y7380D01*
G01X10742Y7380D01*
G01X10742Y7069D01*
G01X10794Y7069D01*
G01X10794Y7248D01*
G01X10796Y7263D01*
G01X10799Y7278D01*
G01X10803Y7293D01*
G01X10806Y7301D01*
G01X10811Y7309D01*
G01X10816Y7316D01*
G01X10823Y7322D01*
G01X10829Y7326D01*
G01X10837Y7329D01*
G01X10845Y7331D01*
G01X10854Y7332D01*
G01X10863Y7331D01*
G01X10873Y7329D01*
G01X10882Y7325D01*
G01X10892Y7321D01*
G01X10911Y7370D01*
G01X10897Y7377D01*
G01X10883Y7382D01*
G01X10869Y7385D01*
G37*

%LPD*%
G36*
G01X9615Y7498D02*
G01X9571Y7498D01*
G01X9375Y7220D01*
G01X9375Y7172D01*
G01X9562Y7172D01*
G01X9562Y7069D01*
G01X9615Y7069D01*
G01X9615Y7172D01*
G01X9673Y7172D01*
G01X9673Y7220D01*
G01X9615Y7220D01*
G01X9615Y7498D01*
G37*

%LPC*%
G36*
G01X9562Y7220D02*
G01X9562Y7414D01*
G01X9427Y7220D01*
G01X9562Y7220D01*
G37*

%LPD*%
G75*
G01X469Y157D02*
G02X156Y469I0J312D01*
G01*
G75*
G01X768Y3008D02*
G03X919Y3159I0J151D01*
G01*
G75*
G01X919Y4341D02*
G03X768Y4492I-151J0D01*
G01*
G75*
G01X156Y7031D02*
G02X469Y7343I313J0D01*
G01*
G75*
G01X3008Y6732D02*
G03X3159Y6581I151J0D01*
G01*
G75*
G01X4341Y6581D02*
G03X4492Y6732I0J151D01*
G01*
G75*
G01X7031Y7343D02*
G03X7656Y7969I0J626D01*
G01*
G75*
G01X7706Y10508D02*
G03X7761Y10406I197J40D01*
G01*
G75*
G01X9648Y8519D02*
G03X9710Y8477I142J142D01*
G01*
G75*
G01X9710Y8477D02*
G03X9329Y8010I96J-467D01*
G01*
G75*
G01X9329Y8010D02*
G03X9492Y7651I477J0D01*
G01*
G75*
G01X9375Y7651D02*
G03X9224Y7500I0J-151D01*
G01*
G75*
G01X9224Y6950D02*
G03X9375Y6799I151J0D01*
G01*
G75*
G01X13279Y6799D02*
G03X13431Y6950I0J151D01*
G01*
G75*
G01X13431Y7500D02*
G03X13279Y7651I-152J0D01*
G01*
G75*
G01X13231Y7651D02*
G03X13235Y7685I-147J34D01*
G01*
G75*
G01X13235Y8335D02*
G03X13084Y8487I-151J0D01*
G01*
G75*
G01X13011Y8487D02*
G03X13053Y8519I-100J174D01*
G01*
G75*
G01X14002Y9468D02*
G03X14153Y9317I151J0D01*
G01*
G75*
G01X14803Y9317D02*
G03X14844Y9322I0J151D01*
G01*
G75*
G01X14844Y7969D02*
G03X15469Y7343I625J0D01*
G01*
G75*
G01X18008Y6732D02*
G03X18159Y6581I151J0D01*
G01*
G75*
G01X19341Y6581D02*
G03X19492Y6732I0J151D01*
G01*
G75*
G01X22031Y7343D02*
G02X22344Y7031I0J-312D01*
G01*
G75*
G01X22344Y5552D02*
G03X21978Y5723I-366J-306D01*
G01*
G75*
G01X21978Y5723D02*
G03X21502Y5246I0J-477D01*
G01*
G75*
G01X21502Y5246D02*
G03X21531Y5083I476J0D01*
G01*
G75*
G01X21345Y4897D02*
G03X20657Y5453I-688J-147D01*
G01*
G75*
G01X20453Y5657D02*
G03X19750Y6360I-703J0D01*
G01*
G75*
G01X19750Y6360D02*
G03X19160Y6039I0J-703D01*
G01*
G75*
G01X19160Y6039D02*
G03X18750Y6251I-410J-289D01*
G01*
G75*
G01X18750Y6251D02*
G03X18340Y6039I0J-501D01*
G01*
G75*
G01X18340Y6039D02*
G03X17750Y6360I-590J-382D01*
G01*
G75*
G01X17750Y6360D02*
G03X17047Y5657I0J-703D01*
G01*
G75*
G01X16843Y5453D02*
G03X16140Y4750I0J-703D01*
G01*
G75*
G01X16140Y4750D02*
G03X16461Y4160I703J0D01*
G01*
G75*
G01X16461Y4160D02*
G03X16248Y3750I289J-410D01*
G01*
G75*
G01X16248Y3750D02*
G03X16461Y3340I502J0D01*
G01*
G75*
G01X16461Y3340D02*
G03X16140Y2750I382J-590D01*
G01*
G75*
G01X16140Y2750D02*
G03X16843Y2047I703J0D01*
G01*
G75*
G01X17047Y1843D02*
G03X17237Y1363I703J0D01*
G01*
G75*
G01X15116Y2293D02*
G03X14955Y2491I-202J0D01*
G01*
G75*
G01X14955Y2618D02*
G03X14803Y2770I-152J0D01*
G01*
G75*
G01X14153Y2770D02*
G03X14002Y2618I0J-152D01*
G01*
G75*
G01X14002Y1968D02*
G03X14153Y1817I151J0D01*
G01*
G75*
G01X12763Y1363D02*
G03X12953Y1843I-513J480D01*
G01*
G75*
G01X13157Y2047D02*
G03X13860Y2750I0J703D01*
G01*
G75*
G01X13860Y2750D02*
G03X13539Y3340I-703J0D01*
G01*
G75*
G01X13539Y3340D02*
G03X13752Y3750I-289J410D01*
G01*
G75*
G01X13752Y3750D02*
G03X13539Y4160I-502J0D01*
G01*
G75*
G01X13539Y4160D02*
G03X13860Y4750I-382J590D01*
G01*
G75*
G01X13860Y4750D02*
G03X13157Y5453I-703J0D01*
G01*
G75*
G01X12953Y5657D02*
G03X12250Y6360I-703J0D01*
G01*
G75*
G01X12250Y6360D02*
G03X11660Y6039I0J-703D01*
G01*
G75*
G01X11660Y6039D02*
G03X11250Y6251I-410J-289D01*
G01*
G75*
G01X11250Y6251D02*
G03X10840Y6039I0J-501D01*
G01*
G75*
G01X10840Y6039D02*
G03X10250Y6360I-590J-382D01*
G01*
G75*
G01X10250Y6360D02*
G03X9547Y5657I0J-703D01*
G01*
G75*
G01X9343Y5453D02*
G03X8640Y4750I0J-703D01*
G01*
G75*
G01X8640Y4750D02*
G03X8961Y4160I703J0D01*
G01*
G75*
G01X8961Y4160D02*
G03X8748Y3750I289J-410D01*
G01*
G75*
G01X8748Y3750D02*
G03X8961Y3340I502J0D01*
G01*
G75*
G01X8961Y3340D02*
G03X8640Y2750I382J-590D01*
G01*
G75*
G01X8640Y2750D02*
G03X9343Y2047I703J0D01*
G01*
G75*
G01X9547Y1843D02*
G03X9737Y1363I703J0D01*
G01*
G75*
G01X7557Y2436D02*
G03X7455Y2491I-143J-143D01*
G01*
G75*
G01X7455Y2618D02*
G03X7303Y2770I-152J0D01*
G01*
G75*
G01X6653Y2770D02*
G03X6502Y2618I0J-152D01*
G01*
G75*
G01X6502Y1968D02*
G03X6653Y1817I151J0D01*
G01*
G75*
G01X7303Y1817D02*
G03X7455Y1968I0J151D01*
G01*
G75*
G01X8403Y1019D02*
G03X8545Y960I143J142D01*
G01*
G75*
G01X9648Y960D02*
G03X9329Y510I158J-450D01*
G01*
G75*
G01X9329Y510D02*
G03X9486Y157I477J0D01*
G01*
G75*
G01X5732Y157D02*
G03X5735Y185I-148J28D01*
G01*
G75*
G01X5735Y835D02*
G03X5584Y987I-151J0D01*
G01*
G75*
G01X4934Y987D02*
G03X4782Y835I0J-152D01*
G01*
G75*
G01X4782Y708D02*
G03X4679Y652I40J-198D01*
G01*
G75*
G01X4492Y768D02*
G03X4341Y919I-151J0D01*
G01*
G75*
G01X3159Y919D02*
G03X3008Y768I0J-151D01*
G01*
G75*
G01X2625Y157D02*
G03X2782Y510I-319J353D01*
G01*
G75*
G01X2782Y510D02*
G03X2507Y942I-476J0D01*
G01*
G75*
G01X2507Y1183D02*
G03X2750Y1140I243J660D01*
G01*
G75*
G01X2750Y1140D02*
G03X3340Y1461I0J703D01*
G01*
G75*
G01X3340Y1461D02*
G03X3750Y1249I410J289D01*
G01*
G75*
G01X3750Y1249D02*
G03X4160Y1461I0J501D01*
G01*
G75*
G01X4160Y1461D02*
G03X4750Y1140I590J382D01*
G01*
G75*
G01X4750Y1140D02*
G03X5453Y1843I0J703D01*
G01*
G75*
G01X5657Y2047D02*
G03X6360Y2750I0J703D01*
G01*
G75*
G01X6360Y2750D02*
G03X6039Y3340I-703J0D01*
G01*
G75*
G01X6039Y3340D02*
G03X6252Y3750I-289J410D01*
G01*
G75*
G01X6252Y3750D02*
G03X6039Y4160I-502J0D01*
G01*
G75*
G01X6039Y4160D02*
G03X6360Y4750I-382J590D01*
G01*
G75*
G01X6360Y4750D02*
G03X5657Y5453I-703J0D01*
G01*
G75*
G01X5453Y5657D02*
G03X5236Y6165I-703J0D01*
G01*
G75*
G01X6531Y5409D02*
G03X6502Y5246I447J-163D01*
G01*
G75*
G01X6502Y5246D02*
G03X6978Y4770I476J0D01*
G01*
G75*
G01X6978Y4770D02*
G03X7455Y5246I0J476D01*
G01*
G75*
G01X7455Y5246D02*
G03X6978Y5723I-477J0D01*
G01*
G75*
G01X6978Y5723D02*
G03X6816Y5694I0J-477D01*
G01*
G75*
G01X6001Y6509D02*
G03X5859Y6568I-143J-143D01*
G01*
G75*
G01X3616Y6568D02*
G03X3474Y6509I1J-202D01*
G01*
G75*
G01X3179Y6214D02*
G03X2750Y6360I-429J-557D01*
G01*
G75*
G01X2750Y6360D02*
G03X2047Y5657I0J-703D01*
G01*
G75*
G01X1843Y5453D02*
G03X1140Y4750I0J-703D01*
G01*
G75*
G01X1140Y4750D02*
G03X1461Y4160I703J0D01*
G01*
G75*
G01X1461Y4160D02*
G03X1248Y3750I289J-410D01*
G01*
G75*
G01X1248Y3750D02*
G03X1461Y3340I502J0D01*
G01*
G75*
G01X1461Y3340D02*
G03X1140Y2750I382J-590D01*
G01*
G75*
G01X1140Y2750D02*
G03X1843Y2047I703J0D01*
G01*
G75*
G01X2047Y1843D02*
G03X2104Y1566I703J0D01*
G01*
G75*
G01X2104Y1566D02*
G03X2104Y1556I201J-10D01*
G01*
G75*
G01X2104Y942D02*
G03X1829Y510I202J-432D01*
G01*
G75*
G01X1829Y510D02*
G03X1986Y157I477J0D01*
G01*
G75*
G01X14002Y5246D02*
G03X14478Y4770I476J0D01*
G01*
G75*
G01X14478Y4770D02*
G03X14955Y5246I0J476D01*
G01*
G75*
G01X14955Y5246D02*
G03X14478Y5723I-477J0D01*
G01*
G75*
G01X14478Y5723D02*
G03X14002Y5246I0J-477D01*
G01*
G75*
G01X10125Y157D02*
G03X10282Y510I-319J353D01*
G01*
G75*
G01X10282Y510D02*
G03X9963Y960I-476J0D01*
G01*
G75*
G01X12348Y960D02*
G03X12282Y835I86J-125D01*
G01*
G75*
G01X12282Y708D02*
G03X12179Y652I40J-198D01*
G01*
G75*
G01X11992Y768D02*
G03X11841Y919I-151J0D01*
G01*
G75*
G01X10659Y919D02*
G03X10508Y768I0J-151D01*
G01*
G75*
G01X17625Y157D02*
G03X17782Y510I-319J353D01*
G01*
G75*
G01X17782Y510D02*
G03X17463Y960I-476J0D01*
G01*
G75*
G01X19848Y960D02*
G03X19782Y835I86J-125D01*
G01*
G75*
G01X19782Y708D02*
G03X19679Y652I40J-198D01*
G01*
G75*
G01X19492Y768D02*
G03X19341Y919I-151J0D01*
G01*
G75*
G01X18159Y919D02*
G03X18008Y768I0J-151D01*
G01*
G75*
G01X4782Y185D02*
G03X4785Y157I152J0D01*
G01*
G75*
G01X4716Y202D02*
G03X4782Y213I1J201D01*
G01*
G75*
G01X13232Y157D02*
G03X13235Y185I-148J28D01*
G01*
G75*
G01X13235Y835D02*
G03X13170Y960I-151J0D01*
G01*
G75*
G01X17148Y960D02*
G03X16829Y510I158J-450D01*
G01*
G75*
G01X16829Y510D02*
G03X16986Y157I477J0D01*
G01*
G75*
G01X19782Y185D02*
G03X19785Y157I152J0D01*
G01*
G75*
G01X19716Y202D02*
G03X19782Y213I1J201D01*
G01*
G75*
G01X12282Y185D02*
G03X12285Y157I152J0D01*
G01*
G75*
G01X12216Y202D02*
G03X12282Y213I1J201D01*
G01*
G75*
G01X20732Y157D02*
G03X20735Y185I-148J28D01*
G01*
G75*
G01X20735Y835D02*
G03X20584Y987I-151J0D01*
G01*
G75*
G01X20511Y987D02*
G03X20553Y1019I-100J174D01*
G01*
G75*
G01X21502Y1968D02*
G03X21653Y1817I151J0D01*
G01*
G75*
G01X22303Y1817D02*
G03X22344Y1822I0J151D01*
G01*
G75*
G01X22344Y469D02*
G02X22031Y157I-313J0D01*
G01*
G75*
G01X20263Y1363D02*
G03X20453Y1843I-513J480D01*
G01*
G75*
G01X20657Y2047D02*
G03X21360Y2750I0J703D01*
G01*
G75*
G01X21360Y2750D02*
G03X21175Y3225I-703J0D01*
G01*
G75*
G01X21581Y3159D02*
G03X21732Y3008I151J0D01*
G01*
G75*
G01X22344Y2764D02*
G03X22303Y2770I-41J-146D01*
G01*
G75*
G01X21653Y2770D02*
G03X21502Y2618I0J-152D01*
G01*
G75*
G01X21502Y2491D02*
G03X21400Y2436I41J-198D01*
G01*
G75*
G01X18340Y1461D02*
G03X18431Y1363I410J289D01*
G01*
G75*
G01X18263Y1363D02*
G03X18340Y1461I-513J480D01*
G01*
G75*
G01X10840Y1461D02*
G03X10931Y1363I410J289D01*
G01*
G75*
G01X10763Y1363D02*
G03X10840Y1461I-513J480D01*
G01*
G75*
G01X11660Y1461D02*
G03X11737Y1363I590J382D01*
G01*
G75*
G01X11569Y1363D02*
G03X11660Y1461I-319J387D01*
G01*
G75*
G01X19160Y1461D02*
G03X19237Y1363I590J382D01*
G01*
G75*
G01X19069Y1363D02*
G03X19160Y1461I-319J387D01*
G01*
G75*
G01X3453Y2157D02*
G03X2853Y2853I-703J0D01*
G01*
G75*
G01X2853Y2853D02*
G03X2157Y3453I-696J-103D01*
G01*
G75*
G01X2154Y3453D02*
G03X2252Y3750I-404J297D01*
G01*
G75*
G01X2252Y3750D02*
G03X2154Y4047I-502J0D01*
G01*
G75*
G01X2157Y4047D02*
G03X2853Y4647I0J703D01*
G01*
G75*
G01X2853Y4647D02*
G03X3453Y5343I-103J696D01*
G01*
G75*
G01X3453Y5346D02*
G03X3750Y5249I297J404D01*
G01*
G75*
G01X3750Y5249D02*
G03X4047Y5346I0J501D01*
G01*
G75*
G01X4047Y5343D02*
G03X4647Y4647I703J0D01*
G01*
G75*
G01X4647Y4647D02*
G03X5343Y4047I696J103D01*
G01*
G75*
G01X5346Y4047D02*
G03X5248Y3750I404J-297D01*
G01*
G75*
G01X5248Y3750D02*
G03X5346Y3453I502J0D01*
G01*
G75*
G01X5343Y3453D02*
G03X4647Y2853I0J-703D01*
G01*
G75*
G01X4647Y2853D02*
G03X4047Y2157I103J-696D01*
G01*
G75*
G01X4047Y2154D02*
G03X3750Y2251I-297J-404D01*
G01*
G75*
G01X3750Y2251D02*
G03X3453Y2154I0J-501D01*
G01*
G75*
G01X2798Y3750D02*
G03X3750Y2799I952J0D01*
G01*
G75*
G01X3750Y2799D02*
G03X4702Y3750I0J951D01*
G01*
G75*
G01X4702Y3750D02*
G03X3750Y4701I-952J0D01*
G01*
G75*
G01X3750Y4701D02*
G03X2798Y3750I0J-951D01*
G01*
G75*
G01X19047Y2154D02*
G03X18750Y2251I-297J-404D01*
G01*
G75*
G01X18750Y2251D02*
G03X18453Y2154I0J-501D01*
G01*
G75*
G01X18453Y2157D02*
G03X17853Y2853I-703J0D01*
G01*
G75*
G01X17853Y2853D02*
G03X17157Y3453I-696J-103D01*
G01*
G75*
G01X17154Y3453D02*
G03X17252Y3750I-404J297D01*
G01*
G75*
G01X17252Y3750D02*
G03X17154Y4047I-502J0D01*
G01*
G75*
G01X17157Y4047D02*
G03X17853Y4647I0J703D01*
G01*
G75*
G01X17853Y4647D02*
G03X18423Y5141I-103J696D01*
G01*
G75*
G01X18870Y4694D02*
G03X18750Y4701I-120J-944D01*
G01*
G75*
G01X18750Y4701D02*
G03X17798Y3750I0J-951D01*
G01*
G75*
G01X17798Y3750D02*
G03X18750Y2799I952J0D01*
G01*
G75*
G01X18750Y2799D02*
G03X19702Y3750I0J951D01*
G01*
G75*
G01X19702Y3750D02*
G03X19694Y3870I-952J0D01*
G01*
G75*
G01X20141Y3423D02*
G03X19647Y2853I202J-673D01*
G01*
G75*
G01X19647Y2853D02*
G03X19047Y2157I103J-696D01*
G01*
G75*
G01X11547Y2154D02*
G03X11250Y2251I-297J-404D01*
G01*
G75*
G01X11250Y2251D02*
G03X10953Y2154I0J-501D01*
G01*
G75*
G01X10953Y2157D02*
G03X10353Y2853I-703J0D01*
G01*
G75*
G01X10353Y2853D02*
G03X9657Y3453I-696J-103D01*
G01*
G75*
G01X9654Y3453D02*
G03X9752Y3750I-404J297D01*
G01*
G75*
G01X9752Y3750D02*
G03X9654Y4047I-502J0D01*
G01*
G75*
G01X9657Y4047D02*
G03X10353Y4647I0J703D01*
G01*
G75*
G01X10353Y4647D02*
G03X10923Y5141I-103J696D01*
G01*
G75*
G01X11370Y4694D02*
G03X11250Y4701I-120J-944D01*
G01*
G75*
G01X11250Y4701D02*
G03X10298Y3750I0J-951D01*
G01*
G75*
G01X10298Y3750D02*
G03X11250Y2799I952J0D01*
G01*
G75*
G01X11250Y2799D02*
G03X12202Y3750I0J951D01*
G01*
G75*
G01X12202Y3750D02*
G03X12194Y3870I-952J0D01*
G01*
G75*
G01X12641Y3423D02*
G03X12147Y2853I202J-673D01*
G01*
G75*
G01X12147Y2853D02*
G03X11547Y2157I103J-696D01*
G01*
G75*
G01X21240Y3858D02*
G03X21039Y4160I-490J-108D01*
G01*
G75*
G01X21039Y4160D02*
G03X21272Y4409I-382J590D01*
G01*
G75*
G01X19994Y4140D02*
G03X20343Y4047I349J610D01*
G01*
G75*
G01X20346Y4047D02*
G03X20263Y3871I404J-297D01*
G01*
G75*
G01X12494Y4140D02*
G03X12843Y4047I349J610D01*
G01*
G75*
G01X12846Y4047D02*
G03X12763Y3871I404J-297D01*
G01*
G75*
G01X11901Y4733D02*
G03X12147Y4647I349J610D01*
G01*
G75*
G01X12147Y4647D02*
G03X12233Y4401I696J103D01*
G01*
G75*
G01X19401Y4733D02*
G03X19647Y4647I349J610D01*
G01*
G75*
G01X19647Y4647D02*
G03X19733Y4401I696J103D01*
G01*
G75*
G01X21732Y4492D02*
G03X21675Y4481I0J-151D01*
G01*
G75*
G01X21816Y4798D02*
G03X21978Y4770I162J448D01*
G01*
G75*
G01X21978Y4770D02*
G03X22344Y4940I0J476D01*
G01*
G75*
G01X18871Y5263D02*
G03X19047Y5346I-121J487D01*
G01*
G75*
G01X19047Y5343D02*
G03X19140Y4994I703J0D01*
G01*
G75*
G01X11371Y5263D02*
G03X11547Y5346I-121J487D01*
G01*
G75*
G01X11547Y5343D02*
G03X11640Y4994I703J0D01*
G01*
G75*
G01X4264Y6165D02*
G03X4160Y6039I486J-508D01*
G01*
G75*
G01X4160Y6039D02*
G03X4032Y6165I-410J-289D01*
G01*
G75*
G01X10120Y7651D02*
G03X10282Y8010I-314J359D01*
G01*
G75*
G01X10282Y8010D02*
G03X9963Y8460I-476J0D01*
G01*
G75*
G01X12348Y8460D02*
G03X12282Y8335I86J-125D01*
G01*
G75*
G01X12282Y7685D02*
G03X12286Y7651I152J0D01*
G01*
G75*
G01X10840Y8961D02*
G03X10931Y8863I410J289D01*
G01*
G75*
G01X10763Y8863D02*
G03X10840Y8961I-513J480D01*
G01*
G75*
G01X11660Y8961D02*
G03X11737Y8863I590J382D01*
G01*
G75*
G01X11569Y8863D02*
G03X11660Y8961I-319J387D01*
G01*
G75*
G01X12763Y8863D02*
G03X12953Y9343I-513J480D01*
G01*
G75*
G01X13157Y9547D02*
G03X13860Y10250I0J703D01*
G01*
G75*
G01X13860Y10250D02*
G03X13675Y10725I-703J0D01*
G01*
G75*
G01X14081Y10659D02*
G03X14232Y10508I151J0D01*
G01*
G75*
G01X14844Y10264D02*
G03X14803Y10270I-41J-146D01*
G01*
G75*
G01X14153Y10270D02*
G03X14002Y10118I0J-152D01*
G01*
G75*
G01X14002Y9991D02*
G03X13900Y9936I41J-198D01*
G01*
G75*
G01X9167Y9570D02*
G03X9343Y9547I176J680D01*
G01*
G75*
G01X9547Y9343D02*
G03X9570Y9167I703J0D01*
G01*
G75*
G01X11547Y9654D02*
G03X11250Y9751I-297J-404D01*
G01*
G75*
G01X11250Y9751D02*
G03X10953Y9654I0J-501D01*
G01*
G75*
G01X10953Y9657D02*
G03X10353Y10353I-703J0D01*
G01*
G75*
G01X10353Y10353D02*
G03X9657Y10953I-696J-103D01*
G01*
G75*
G01X9654Y10953D02*
G03X9752Y11250I-404J297D01*
G01*
G75*
G01X9752Y11250D02*
G03X9654Y11547I-502J0D01*
G01*
G75*
G01X9657Y11547D02*
G03X10353Y12147I0J703D01*
G01*
G75*
G01X10353Y12147D02*
G03X10923Y12641I-103J696D01*
G01*
G75*
G01X11370Y12194D02*
G03X11250Y12201I-120J-944D01*
G01*
G75*
G01X11250Y12201D02*
G03X10298Y11250I0J-951D01*
G01*
G75*
G01X10298Y11250D02*
G03X11250Y10299I952J0D01*
G01*
G75*
G01X11250Y10299D02*
G03X12202Y11250I0J951D01*
G01*
G75*
G01X12202Y11250D02*
G03X12194Y11370I-952J0D01*
G01*
G75*
G01X12641Y10923D02*
G03X12147Y10353I202J-673D01*
G01*
G75*
G01X12147Y10353D02*
G03X11547Y9657I103J-696D01*
G01*
G75*
G01X8268Y10508D02*
G03X8419Y10659I0J151D01*
G01*
G75*
G01X8419Y11841D02*
G03X8268Y11992I-151J0D01*
G01*
G75*
G01X7656Y14531D02*
G02X7969Y14843I313J0D01*
G01*
G75*
G01X10508Y14232D02*
G03X10659Y14081I151J0D01*
G01*
G75*
G01X11841Y14081D02*
G03X11992Y14232I0J151D01*
G01*
G75*
G01X14531Y14843D02*
G02X14844Y14531I0J-312D01*
G01*
G75*
G01X14844Y13052D02*
G03X14478Y13223I-366J-306D01*
G01*
G75*
G01X14478Y13223D02*
G03X14002Y12746I0J-477D01*
G01*
G75*
G01X14002Y12746D02*
G03X14031Y12583I476J0D01*
G01*
G75*
G01X13845Y12397D02*
G03X13157Y12953I-688J-147D01*
G01*
G75*
G01X12953Y13157D02*
G03X12250Y13860I-703J0D01*
G01*
G75*
G01X12250Y13860D02*
G03X11660Y13539I0J-703D01*
G01*
G75*
G01X11660Y13539D02*
G03X11250Y13751I-410J-289D01*
G01*
G75*
G01X11250Y13751D02*
G03X10840Y13539I0J-501D01*
G01*
G75*
G01X10840Y13539D02*
G03X10250Y13860I-590J-382D01*
G01*
G75*
G01X10250Y13860D02*
G03X9547Y13157I0J-703D01*
G01*
G75*
G01X9343Y12953D02*
G03X8640Y12250I0J-703D01*
G01*
G75*
G01X8640Y12250D02*
G03X8961Y11660I703J0D01*
G01*
G75*
G01X8961Y11660D02*
G03X8748Y11250I289J-410D01*
G01*
G75*
G01X8748Y11250D02*
G03X8961Y10840I502J0D01*
G01*
G75*
G01X8961Y10840D02*
G03X8640Y10250I382J-590D01*
G01*
G75*
G01X8640Y10250D02*
G03X8662Y10075I703J0D01*
G01*
G75*
G01X13740Y11358D02*
G03X13539Y11660I-490J-108D01*
G01*
G75*
G01X13539Y11660D02*
G03X13772Y11909I-382J590D01*
G01*
G75*
G01X12494Y11640D02*
G03X12843Y11547I349J610D01*
G01*
G75*
G01X12846Y11547D02*
G03X12763Y11371I404J-297D01*
G01*
G75*
G01X11901Y12233D02*
G03X12147Y12147I349J610D01*
G01*
G75*
G01X12147Y12147D02*
G03X12233Y11901I696J103D01*
G01*
G75*
G01X14232Y11992D02*
G03X14175Y11981I0J-151D01*
G01*
G75*
G01X14316Y12298D02*
G03X14478Y12270I162J448D01*
G01*
G75*
G01X14478Y12270D02*
G03X14844Y12440I0J476D01*
G01*
G75*
G01X11371Y12763D02*
G03X11547Y12846I-121J487D01*
G01*
G75*
G01X11547Y12843D02*
G03X11640Y12494I703J0D01*
G01*
G75*
G01X469Y157D02*
G02X156Y469I0J312D01*
G01*
G75*
G01X768Y3008D02*
G03X919Y3159I0J151D01*
G01*
G75*
G01X919Y4341D02*
G03X768Y4492I-151J0D01*
G01*
G75*
G01X156Y7031D02*
G02X469Y7343I313J0D01*
G01*
G75*
G01X3008Y6732D02*
G03X3159Y6581I151J0D01*
G01*
G75*
G01X4341Y6581D02*
G03X4492Y6732I0J151D01*
G01*
G75*
G01X7031Y7343D02*
G03X7656Y7969I0J626D01*
G01*
G75*
G01X7706Y10508D02*
G03X7761Y10406I197J40D01*
G01*
G75*
G01X9648Y8519D02*
G03X9710Y8477I142J142D01*
G01*
G75*
G01X9710Y8477D02*
G03X9329Y8010I96J-467D01*
G01*
G75*
G01X9329Y8010D02*
G03X9492Y7651I477J0D01*
G01*
G75*
G01X9375Y7651D02*
G03X9224Y7500I0J-151D01*
G01*
G75*
G01X9224Y6950D02*
G03X9375Y6799I151J0D01*
G01*
G75*
G01X13279Y6799D02*
G03X13431Y6950I0J151D01*
G01*
G75*
G01X13431Y7500D02*
G03X13279Y7651I-152J0D01*
G01*
G75*
G01X13231Y7651D02*
G03X13235Y7685I-147J34D01*
G01*
G75*
G01X13235Y8335D02*
G03X13084Y8487I-151J0D01*
G01*
G75*
G01X13011Y8487D02*
G03X13053Y8519I-100J174D01*
G01*
G75*
G01X14002Y9468D02*
G03X14153Y9317I151J0D01*
G01*
G75*
G01X14803Y9317D02*
G03X14844Y9322I0J151D01*
G01*
G75*
G01X14844Y7969D02*
G03X15469Y7343I625J0D01*
G01*
G75*
G01X18008Y6732D02*
G03X18159Y6581I151J0D01*
G01*
G75*
G01X19341Y6581D02*
G03X19492Y6732I0J151D01*
G01*
G75*
G01X22031Y7343D02*
G02X22344Y7031I0J-312D01*
G01*
G75*
G01X22344Y5552D02*
G03X21978Y5723I-366J-306D01*
G01*
G75*
G01X21978Y5723D02*
G03X21502Y5246I0J-477D01*
G01*
G75*
G01X21502Y5246D02*
G03X21531Y5083I476J0D01*
G01*
G75*
G01X21345Y4897D02*
G03X20657Y5453I-688J-147D01*
G01*
G75*
G01X20453Y5657D02*
G03X19750Y6360I-703J0D01*
G01*
G75*
G01X19750Y6360D02*
G03X19160Y6039I0J-703D01*
G01*
G75*
G01X19160Y6039D02*
G03X18750Y6251I-410J-289D01*
G01*
G75*
G01X18750Y6251D02*
G03X18340Y6039I0J-501D01*
G01*
G75*
G01X18340Y6039D02*
G03X17750Y6360I-590J-382D01*
G01*
G75*
G01X17750Y6360D02*
G03X17047Y5657I0J-703D01*
G01*
G75*
G01X16843Y5453D02*
G03X16140Y4750I0J-703D01*
G01*
G75*
G01X16140Y4750D02*
G03X16461Y4160I703J0D01*
G01*
G75*
G01X16461Y4160D02*
G03X16248Y3750I289J-410D01*
G01*
G75*
G01X16248Y3750D02*
G03X16461Y3340I502J0D01*
G01*
G75*
G01X16461Y3340D02*
G03X16140Y2750I382J-590D01*
G01*
G75*
G01X16140Y2750D02*
G03X16843Y2047I703J0D01*
G01*
G75*
G01X17047Y1843D02*
G03X17237Y1363I703J0D01*
G01*
G75*
G01X15116Y2293D02*
G03X14955Y2491I-202J0D01*
G01*
G75*
G01X14955Y2618D02*
G03X14803Y2770I-152J0D01*
G01*
G75*
G01X14153Y2770D02*
G03X14002Y2618I0J-152D01*
G01*
G75*
G01X14002Y1968D02*
G03X14153Y1817I151J0D01*
G01*
G75*
G01X12763Y1363D02*
G03X12953Y1843I-513J480D01*
G01*
G75*
G01X13157Y2047D02*
G03X13860Y2750I0J703D01*
G01*
G75*
G01X13860Y2750D02*
G03X13539Y3340I-703J0D01*
G01*
G75*
G01X13539Y3340D02*
G03X13752Y3750I-289J410D01*
G01*
G75*
G01X13752Y3750D02*
G03X13539Y4160I-502J0D01*
G01*
G75*
G01X13539Y4160D02*
G03X13860Y4750I-382J590D01*
G01*
G75*
G01X13860Y4750D02*
G03X13157Y5453I-703J0D01*
G01*
G75*
G01X12953Y5657D02*
G03X12250Y6360I-703J0D01*
G01*
G75*
G01X12250Y6360D02*
G03X11660Y6039I0J-703D01*
G01*
G75*
G01X11660Y6039D02*
G03X11250Y6251I-410J-289D01*
G01*
G75*
G01X11250Y6251D02*
G03X10840Y6039I0J-501D01*
G01*
G75*
G01X10840Y6039D02*
G03X10250Y6360I-590J-382D01*
G01*
G75*
G01X10250Y6360D02*
G03X9547Y5657I0J-703D01*
G01*
G75*
G01X9343Y5453D02*
G03X8640Y4750I0J-703D01*
G01*
G75*
G01X8640Y4750D02*
G03X8961Y4160I703J0D01*
G01*
G75*
G01X8961Y4160D02*
G03X8748Y3750I289J-410D01*
G01*
G75*
G01X8748Y3750D02*
G03X8961Y3340I502J0D01*
G01*
G75*
G01X8961Y3340D02*
G03X8640Y2750I382J-590D01*
G01*
G75*
G01X8640Y2750D02*
G03X9343Y2047I703J0D01*
G01*
G75*
G01X9547Y1843D02*
G03X9737Y1363I703J0D01*
G01*
G75*
G01X7557Y2436D02*
G03X7455Y2491I-143J-143D01*
G01*
G75*
G01X7455Y2618D02*
G03X7303Y2770I-152J0D01*
G01*
G75*
G01X6653Y2770D02*
G03X6502Y2618I0J-152D01*
G01*
G75*
G01X6502Y1968D02*
G03X6653Y1817I151J0D01*
G01*
G75*
G01X7303Y1817D02*
G03X7455Y1968I0J151D01*
G01*
G75*
G01X8403Y1019D02*
G03X8545Y960I143J142D01*
G01*
G75*
G01X9648Y960D02*
G03X9329Y510I158J-450D01*
G01*
G75*
G01X9329Y510D02*
G03X9486Y157I477J0D01*
G01*
G75*
G01X5732Y157D02*
G03X5735Y185I-148J28D01*
G01*
G75*
G01X5735Y835D02*
G03X5584Y987I-151J0D01*
G01*
G75*
G01X4934Y987D02*
G03X4782Y835I0J-152D01*
G01*
G75*
G01X4782Y708D02*
G03X4679Y652I40J-198D01*
G01*
G75*
G01X4492Y768D02*
G03X4341Y919I-151J0D01*
G01*
G75*
G01X3159Y919D02*
G03X3008Y768I0J-151D01*
G01*
G75*
G01X2625Y157D02*
G03X2782Y510I-319J353D01*
G01*
G75*
G01X2782Y510D02*
G03X2507Y942I-476J0D01*
G01*
G75*
G01X2507Y1183D02*
G03X2750Y1140I243J660D01*
G01*
G75*
G01X2750Y1140D02*
G03X3340Y1461I0J703D01*
G01*
G75*
G01X3340Y1461D02*
G03X3750Y1249I410J289D01*
G01*
G75*
G01X3750Y1249D02*
G03X4160Y1461I0J501D01*
G01*
G75*
G01X4160Y1461D02*
G03X4750Y1140I590J382D01*
G01*
G75*
G01X4750Y1140D02*
G03X5453Y1843I0J703D01*
G01*
G75*
G01X5657Y2047D02*
G03X6360Y2750I0J703D01*
G01*
G75*
G01X6360Y2750D02*
G03X6039Y3340I-703J0D01*
G01*
G75*
G01X6039Y3340D02*
G03X6252Y3750I-289J410D01*
G01*
G75*
G01X6252Y3750D02*
G03X6039Y4160I-502J0D01*
G01*
G75*
G01X6039Y4160D02*
G03X6360Y4750I-382J590D01*
G01*
G75*
G01X6360Y4750D02*
G03X5657Y5453I-703J0D01*
G01*
G75*
G01X5453Y5657D02*
G03X5236Y6165I-703J0D01*
G01*
G75*
G01X6531Y5409D02*
G03X6502Y5246I447J-163D01*
G01*
G75*
G01X6502Y5246D02*
G03X6978Y4770I476J0D01*
G01*
G75*
G01X6978Y4770D02*
G03X7455Y5246I0J476D01*
G01*
G75*
G01X7455Y5246D02*
G03X6978Y5723I-477J0D01*
G01*
G75*
G01X6978Y5723D02*
G03X6816Y5694I0J-477D01*
G01*
G75*
G01X6001Y6509D02*
G03X5859Y6568I-143J-143D01*
G01*
G75*
G01X3616Y6568D02*
G03X3474Y6509I1J-202D01*
G01*
G75*
G01X3179Y6214D02*
G03X2750Y6360I-429J-557D01*
G01*
G75*
G01X2750Y6360D02*
G03X2047Y5657I0J-703D01*
G01*
G75*
G01X1843Y5453D02*
G03X1140Y4750I0J-703D01*
G01*
G75*
G01X1140Y4750D02*
G03X1461Y4160I703J0D01*
G01*
G75*
G01X1461Y4160D02*
G03X1248Y3750I289J-410D01*
G01*
G75*
G01X1248Y3750D02*
G03X1461Y3340I502J0D01*
G01*
G75*
G01X1461Y3340D02*
G03X1140Y2750I382J-590D01*
G01*
G75*
G01X1140Y2750D02*
G03X1843Y2047I703J0D01*
G01*
G75*
G01X2047Y1843D02*
G03X2104Y1566I703J0D01*
G01*
G75*
G01X2104Y1566D02*
G03X2104Y1556I201J-10D01*
G01*
G75*
G01X2104Y942D02*
G03X1829Y510I202J-432D01*
G01*
G75*
G01X1829Y510D02*
G03X1986Y157I477J0D01*
G01*
G75*
G01X14002Y5246D02*
G03X14478Y4770I476J0D01*
G01*
G75*
G01X14478Y4770D02*
G03X14955Y5246I0J476D01*
G01*
G75*
G01X14955Y5246D02*
G03X14478Y5723I-477J0D01*
G01*
G75*
G01X14478Y5723D02*
G03X14002Y5246I0J-477D01*
G01*
G75*
G01X10125Y157D02*
G03X10282Y510I-319J353D01*
G01*
G75*
G01X10282Y510D02*
G03X9963Y960I-476J0D01*
G01*
G75*
G01X12348Y960D02*
G03X12282Y835I86J-125D01*
G01*
G75*
G01X12282Y708D02*
G03X12179Y652I40J-198D01*
G01*
G75*
G01X11992Y768D02*
G03X11841Y919I-151J0D01*
G01*
G75*
G01X10659Y919D02*
G03X10508Y768I0J-151D01*
G01*
G75*
G01X17625Y157D02*
G03X17782Y510I-319J353D01*
G01*
G75*
G01X17782Y510D02*
G03X17463Y960I-476J0D01*
G01*
G75*
G01X19848Y960D02*
G03X19782Y835I86J-125D01*
G01*
G75*
G01X19782Y708D02*
G03X19679Y652I40J-198D01*
G01*
G75*
G01X19492Y768D02*
G03X19341Y919I-151J0D01*
G01*
G75*
G01X18159Y919D02*
G03X18008Y768I0J-151D01*
G01*
G75*
G01X4782Y185D02*
G03X4785Y157I152J0D01*
G01*
G75*
G01X4716Y202D02*
G03X4782Y213I1J201D01*
G01*
G75*
G01X13232Y157D02*
G03X13235Y185I-148J28D01*
G01*
G75*
G01X13235Y835D02*
G03X13170Y960I-151J0D01*
G01*
G75*
G01X17148Y960D02*
G03X16829Y510I158J-450D01*
G01*
G75*
G01X16829Y510D02*
G03X16986Y157I477J0D01*
G01*
G75*
G01X19782Y185D02*
G03X19785Y157I152J0D01*
G01*
G75*
G01X19716Y202D02*
G03X19782Y213I1J201D01*
G01*
G75*
G01X12282Y185D02*
G03X12285Y157I152J0D01*
G01*
G75*
G01X12216Y202D02*
G03X12282Y213I1J201D01*
G01*
G75*
G01X20732Y157D02*
G03X20735Y185I-148J28D01*
G01*
G75*
G01X20735Y835D02*
G03X20584Y987I-151J0D01*
G01*
G75*
G01X20511Y987D02*
G03X20553Y1019I-100J174D01*
G01*
G75*
G01X21502Y1968D02*
G03X21653Y1817I151J0D01*
G01*
G75*
G01X22303Y1817D02*
G03X22344Y1822I0J151D01*
G01*
G75*
G01X22344Y469D02*
G02X22031Y157I-313J0D01*
G01*
G75*
G01X20263Y1363D02*
G03X20453Y1843I-513J480D01*
G01*
G75*
G01X20657Y2047D02*
G03X21360Y2750I0J703D01*
G01*
G75*
G01X21360Y2750D02*
G03X21175Y3225I-703J0D01*
G01*
G75*
G01X21581Y3159D02*
G03X21732Y3008I151J0D01*
G01*
G75*
G01X22344Y2764D02*
G03X22303Y2770I-41J-146D01*
G01*
G75*
G01X21653Y2770D02*
G03X21502Y2618I0J-152D01*
G01*
G75*
G01X21502Y2491D02*
G03X21400Y2436I41J-198D01*
G01*
G75*
G01X18340Y1461D02*
G03X18431Y1363I410J289D01*
G01*
G75*
G01X18263Y1363D02*
G03X18340Y1461I-513J480D01*
G01*
G75*
G01X10840Y1461D02*
G03X10931Y1363I410J289D01*
G01*
G75*
G01X10763Y1363D02*
G03X10840Y1461I-513J480D01*
G01*
G75*
G01X11660Y1461D02*
G03X11737Y1363I590J382D01*
G01*
G75*
G01X11569Y1363D02*
G03X11660Y1461I-319J387D01*
G01*
G75*
G01X19160Y1461D02*
G03X19237Y1363I590J382D01*
G01*
G75*
G01X19069Y1363D02*
G03X19160Y1461I-319J387D01*
G01*
G75*
G01X3453Y2157D02*
G03X2853Y2853I-703J0D01*
G01*
G75*
G01X2853Y2853D02*
G03X2157Y3453I-696J-103D01*
G01*
G75*
G01X2154Y3453D02*
G03X2252Y3750I-404J297D01*
G01*
G75*
G01X2252Y3750D02*
G03X2154Y4047I-502J0D01*
G01*
G75*
G01X2157Y4047D02*
G03X2853Y4647I0J703D01*
G01*
G75*
G01X2853Y4647D02*
G03X3453Y5343I-103J696D01*
G01*
G75*
G01X3453Y5346D02*
G03X3750Y5249I297J404D01*
G01*
G75*
G01X3750Y5249D02*
G03X4047Y5346I0J501D01*
G01*
G75*
G01X4047Y5343D02*
G03X4647Y4647I703J0D01*
G01*
G75*
G01X4647Y4647D02*
G03X5343Y4047I696J103D01*
G01*
G75*
G01X5346Y4047D02*
G03X5248Y3750I404J-297D01*
G01*
G75*
G01X5248Y3750D02*
G03X5346Y3453I502J0D01*
G01*
G75*
G01X5343Y3453D02*
G03X4647Y2853I0J-703D01*
G01*
G75*
G01X4647Y2853D02*
G03X4047Y2157I103J-696D01*
G01*
G75*
G01X4047Y2154D02*
G03X3750Y2251I-297J-404D01*
G01*
G75*
G01X3750Y2251D02*
G03X3453Y2154I0J-501D01*
G01*
G75*
G01X2798Y3750D02*
G03X3750Y2799I952J0D01*
G01*
G75*
G01X3750Y2799D02*
G03X4702Y3750I0J951D01*
G01*
G75*
G01X4702Y3750D02*
G03X3750Y4701I-952J0D01*
G01*
G75*
G01X3750Y4701D02*
G03X2798Y3750I0J-951D01*
G01*
G75*
G01X19047Y2154D02*
G03X18750Y2251I-297J-404D01*
G01*
G75*
G01X18750Y2251D02*
G03X18453Y2154I0J-501D01*
G01*
G75*
G01X18453Y2157D02*
G03X17853Y2853I-703J0D01*
G01*
G75*
G01X17853Y2853D02*
G03X17157Y3453I-696J-103D01*
G01*
G75*
G01X17154Y3453D02*
G03X17252Y3750I-404J297D01*
G01*
G75*
G01X17252Y3750D02*
G03X17154Y4047I-502J0D01*
G01*
G75*
G01X17157Y4047D02*
G03X17853Y4647I0J703D01*
G01*
G75*
G01X17853Y4647D02*
G03X18423Y5141I-103J696D01*
G01*
G75*
G01X18870Y4694D02*
G03X18750Y4701I-120J-944D01*
G01*
G75*
G01X18750Y4701D02*
G03X17798Y3750I0J-951D01*
G01*
G75*
G01X17798Y3750D02*
G03X18750Y2799I952J0D01*
G01*
G75*
G01X18750Y2799D02*
G03X19702Y3750I0J951D01*
G01*
G75*
G01X19702Y3750D02*
G03X19694Y3870I-952J0D01*
G01*
G75*
G01X20141Y3423D02*
G03X19647Y2853I202J-673D01*
G01*
G75*
G01X19647Y2853D02*
G03X19047Y2157I103J-696D01*
G01*
G75*
G01X11547Y2154D02*
G03X11250Y2251I-297J-404D01*
G01*
G75*
G01X11250Y2251D02*
G03X10953Y2154I0J-501D01*
G01*
G75*
G01X10953Y2157D02*
G03X10353Y2853I-703J0D01*
G01*
G75*
G01X10353Y2853D02*
G03X9657Y3453I-696J-103D01*
G01*
G75*
G01X9654Y3453D02*
G03X9752Y3750I-404J297D01*
G01*
G75*
G01X9752Y3750D02*
G03X9654Y4047I-502J0D01*
G01*
G75*
G01X9657Y4047D02*
G03X10353Y4647I0J703D01*
G01*
G75*
G01X10353Y4647D02*
G03X10923Y5141I-103J696D01*
G01*
G75*
G01X11370Y4694D02*
G03X11250Y4701I-120J-944D01*
G01*
G75*
G01X11250Y4701D02*
G03X10298Y3750I0J-951D01*
G01*
G75*
G01X10298Y3750D02*
G03X11250Y2799I952J0D01*
G01*
G75*
G01X11250Y2799D02*
G03X12202Y3750I0J951D01*
G01*
G75*
G01X12202Y3750D02*
G03X12194Y3870I-952J0D01*
G01*
G75*
G01X12641Y3423D02*
G03X12147Y2853I202J-673D01*
G01*
G75*
G01X12147Y2853D02*
G03X11547Y2157I103J-696D01*
G01*
G75*
G01X21240Y3858D02*
G03X21039Y4160I-490J-108D01*
G01*
G75*
G01X21039Y4160D02*
G03X21272Y4409I-382J590D01*
G01*
G75*
G01X19994Y4140D02*
G03X20343Y4047I349J610D01*
G01*
G75*
G01X20346Y4047D02*
G03X20263Y3871I404J-297D01*
G01*
G75*
G01X12494Y4140D02*
G03X12843Y4047I349J610D01*
G01*
G75*
G01X12846Y4047D02*
G03X12763Y3871I404J-297D01*
G01*
G75*
G01X11901Y4733D02*
G03X12147Y4647I349J610D01*
G01*
G75*
G01X12147Y4647D02*
G03X12233Y4401I696J103D01*
G01*
G75*
G01X19401Y4733D02*
G03X19647Y4647I349J610D01*
G01*
G75*
G01X19647Y4647D02*
G03X19733Y4401I696J103D01*
G01*
G75*
G01X21732Y4492D02*
G03X21675Y4481I0J-151D01*
G01*
G75*
G01X21816Y4798D02*
G03X21978Y4770I162J448D01*
G01*
G75*
G01X21978Y4770D02*
G03X22344Y4940I0J476D01*
G01*
G75*
G01X18871Y5263D02*
G03X19047Y5346I-121J487D01*
G01*
G75*
G01X19047Y5343D02*
G03X19140Y4994I703J0D01*
G01*
G75*
G01X11371Y5263D02*
G03X11547Y5346I-121J487D01*
G01*
G75*
G01X11547Y5343D02*
G03X11640Y4994I703J0D01*
G01*
G75*
G01X4264Y6165D02*
G03X4160Y6039I486J-508D01*
G01*
G75*
G01X4160Y6039D02*
G03X4032Y6165I-410J-289D01*
G01*
G75*
G01X10120Y7651D02*
G03X10282Y8010I-314J359D01*
G01*
G75*
G01X10282Y8010D02*
G03X9963Y8460I-476J0D01*
G01*
G75*
G01X12348Y8460D02*
G03X12282Y8335I86J-125D01*
G01*
G75*
G01X12282Y7685D02*
G03X12286Y7651I152J0D01*
G01*
G75*
G01X10840Y8961D02*
G03X10931Y8863I410J289D01*
G01*
G75*
G01X10763Y8863D02*
G03X10840Y8961I-513J480D01*
G01*
G75*
G01X11660Y8961D02*
G03X11737Y8863I590J382D01*
G01*
G75*
G01X11569Y8863D02*
G03X11660Y8961I-319J387D01*
G01*
G75*
G01X12763Y8863D02*
G03X12953Y9343I-513J480D01*
G01*
G75*
G01X13157Y9547D02*
G03X13860Y10250I0J703D01*
G01*
G75*
G01X13860Y10250D02*
G03X13675Y10725I-703J0D01*
G01*
G75*
G01X14081Y10659D02*
G03X14232Y10508I151J0D01*
G01*
G75*
G01X14844Y10264D02*
G03X14803Y10270I-41J-146D01*
G01*
G75*
G01X14153Y10270D02*
G03X14002Y10118I0J-152D01*
G01*
G75*
G01X14002Y9991D02*
G03X13900Y9936I41J-198D01*
G01*
G75*
G01X9167Y9570D02*
G03X9343Y9547I176J680D01*
G01*
G75*
G01X9547Y9343D02*
G03X9570Y9167I703J0D01*
G01*
G75*
G01X11547Y9654D02*
G03X11250Y9751I-297J-404D01*
G01*
G75*
G01X11250Y9751D02*
G03X10953Y9654I0J-501D01*
G01*
G75*
G01X10953Y9657D02*
G03X10353Y10353I-703J0D01*
G01*
G75*
G01X10353Y10353D02*
G03X9657Y10953I-696J-103D01*
G01*
G75*
G01X9654Y10953D02*
G03X9752Y11250I-404J297D01*
G01*
G75*
G01X9752Y11250D02*
G03X9654Y11547I-502J0D01*
G01*
G75*
G01X9657Y11547D02*
G03X10353Y12147I0J703D01*
G01*
G75*
G01X10353Y12147D02*
G03X10923Y12641I-103J696D01*
G01*
G75*
G01X11370Y12194D02*
G03X11250Y12201I-120J-944D01*
G01*
G75*
G01X11250Y12201D02*
G03X10298Y11250I0J-951D01*
G01*
G75*
G01X10298Y11250D02*
G03X11250Y10299I952J0D01*
G01*
G75*
G01X11250Y10299D02*
G03X12202Y11250I0J951D01*
G01*
G75*
G01X12202Y11250D02*
G03X12194Y11370I-952J0D01*
G01*
G75*
G01X12641Y10923D02*
G03X12147Y10353I202J-673D01*
G01*
G75*
G01X12147Y10353D02*
G03X11547Y9657I103J-696D01*
G01*
G75*
G01X8268Y10508D02*
G03X8419Y10659I0J151D01*
G01*
G75*
G01X8419Y11841D02*
G03X8268Y11992I-151J0D01*
G01*
G75*
G01X7656Y14531D02*
G02X7969Y14843I313J0D01*
G01*
G75*
G01X10508Y14232D02*
G03X10659Y14081I151J0D01*
G01*
G75*
G01X11841Y14081D02*
G03X11992Y14232I0J151D01*
G01*
G75*
G01X14531Y14843D02*
G02X14844Y14531I0J-312D01*
G01*
G75*
G01X14844Y13052D02*
G03X14478Y13223I-366J-306D01*
G01*
G75*
G01X14478Y13223D02*
G03X14002Y12746I0J-477D01*
G01*
G75*
G01X14002Y12746D02*
G03X14031Y12583I476J0D01*
G01*
G75*
G01X13845Y12397D02*
G03X13157Y12953I-688J-147D01*
G01*
G75*
G01X12953Y13157D02*
G03X12250Y13860I-703J0D01*
G01*
G75*
G01X12250Y13860D02*
G03X11660Y13539I0J-703D01*
G01*
G75*
G01X11660Y13539D02*
G03X11250Y13751I-410J-289D01*
G01*
G75*
G01X11250Y13751D02*
G03X10840Y13539I0J-501D01*
G01*
G75*
G01X10840Y13539D02*
G03X10250Y13860I-590J-382D01*
G01*
G75*
G01X10250Y13860D02*
G03X9547Y13157I0J-703D01*
G01*
G75*
G01X9343Y12953D02*
G03X8640Y12250I0J-703D01*
G01*
G75*
G01X8640Y12250D02*
G03X8961Y11660I703J0D01*
G01*
G75*
G01X8961Y11660D02*
G03X8748Y11250I289J-410D01*
G01*
G75*
G01X8748Y11250D02*
G03X8961Y10840I502J0D01*
G01*
G75*
G01X8961Y10840D02*
G03X8640Y10250I382J-590D01*
G01*
G75*
G01X8640Y10250D02*
G03X8662Y10075I703J0D01*
G01*
G75*
G01X13740Y11358D02*
G03X13539Y11660I-490J-108D01*
G01*
G75*
G01X13539Y11660D02*
G03X13772Y11909I-382J590D01*
G01*
G75*
G01X12494Y11640D02*
G03X12843Y11547I349J610D01*
G01*
G75*
G01X12846Y11547D02*
G03X12763Y11371I404J-297D01*
G01*
G75*
G01X11901Y12233D02*
G03X12147Y12147I349J610D01*
G01*
G75*
G01X12147Y12147D02*
G03X12233Y11901I696J103D01*
G01*
G75*
G01X14232Y11992D02*
G03X14175Y11981I0J-151D01*
G01*
G75*
G01X14316Y12298D02*
G03X14478Y12270I162J448D01*
G01*
G75*
G01X14478Y12270D02*
G03X14844Y12440I0J476D01*
G01*
G75*
G01X11371Y12763D02*
G03X11547Y12846I-121J487D01*
G01*
G75*
G01X11547Y12843D02*
G03X11640Y12494I703J0D01*
G01*
G36*
G01X14803Y9468D02*
G01X14153Y9468D01*
G01X14153Y10118D01*
G01X14803Y10118D01*
G01X14803Y9468D01*
G37*
G54D13*
G01X14478Y12746D03*
G54D12*
G01X12758Y8010D03*
G54D13*
G01X9805Y8009D03*
G54D14*
G01X11250Y14596D03*
G54D15*
G01X14596Y11249D03*
G01X7903Y11249D03*
G36*
G01X7303Y1968D02*
G01X6653Y1968D01*
G01X6653Y2618D01*
G01X7303Y2618D01*
G01X7303Y1968D01*
G37*
G54D13*
G01X6978Y5246D03*
G54D12*
G01X5258Y510D03*
G54D13*
G01X2305Y509D03*
G54D14*
G01X3750Y7096D03*
G01X3750Y403D03*
G54D15*
G01X403Y3749D03*
G36*
G01X14803Y1968D02*
G01X14153Y1968D01*
G01X14153Y2618D01*
G01X14803Y2618D01*
G01X14803Y1968D01*
G37*
G54D13*
G01X14478Y5246D03*
G54D12*
G01X12758Y510D03*
G54D13*
G01X9805Y509D03*
G54D14*
G01X11250Y403D03*
G36*
G01X22303Y1968D02*
G01X21653Y1968D01*
G01X21653Y2618D01*
G01X22303Y2618D01*
G01X22303Y1968D01*
G37*
G54D13*
G01X21978Y5246D03*
G54D12*
G01X20258Y510D03*
G54D13*
G01X17305Y509D03*
G54D14*
G01X18750Y7096D03*
G54D15*
G01X22096Y3749D03*
G54D14*
G01X18750Y403D03*
G54D16*
G01X10250Y13157D02*
G01X10250Y12842D01*
G01X9342Y12249D02*
G01X9657Y12249D01*
G01X12250Y9657D02*
G01X12250Y9342D01*
G01X12842Y10249D02*
G01X13157Y10249D01*
G01X10250Y9657D02*
G01X10250Y9342D01*
G01X9342Y10249D02*
G01X9657Y10249D01*
G01X12842Y12249D02*
G01X13157Y12249D01*
G01X12250Y13157D02*
G01X12250Y12842D01*
G01X2750Y5657D02*
G01X2750Y5342D01*
G01X1842Y4749D02*
G01X2157Y4749D01*
G01X4750Y2157D02*
G01X4750Y1842D01*
G01X5342Y2749D02*
G01X5657Y2749D01*
G01X2750Y2157D02*
G01X2750Y1842D01*
G01X1842Y2749D02*
G01X2157Y2749D01*
G01X5342Y4749D02*
G01X5657Y4749D01*
G01X4750Y5657D02*
G01X4750Y5342D01*
G01X10250Y5657D02*
G01X10250Y5342D01*
G01X9342Y4749D02*
G01X9657Y4749D01*
G01X12250Y2157D02*
G01X12250Y1842D01*
G01X12842Y2749D02*
G01X13157Y2749D01*
G01X10250Y2157D02*
G01X10250Y1842D01*
G01X9342Y2749D02*
G01X9657Y2749D01*
G01X12842Y4749D02*
G01X13157Y4749D01*
G01X12250Y5657D02*
G01X12250Y5342D01*
G01X17750Y5657D02*
G01X17750Y5342D01*
G01X16842Y4749D02*
G01X17157Y4749D01*
G01X19750Y2157D02*
G01X19750Y1842D01*
G01X20342Y2749D02*
G01X20657Y2749D01*
G01X17750Y2157D02*
G01X17750Y1842D01*
G01X16842Y2749D02*
G01X17157Y2749D01*
G01X20342Y4749D02*
G01X20657Y4749D01*
G01X19750Y5657D02*
G01X19750Y5342D01*
M00*
M02*
