;Layer: Drill PTH
;EasyEDA v6.1.49, Wed, 05 Jun 2019 22:56:44 GMT
;6b520eb5fea8430f926b6e8f94950312,d502dfb0143049649cf38511bf809cad,10
;Gerber Generator version 0.2
M48
INCH,LZ,00.0000
;Holesize 1 = 0.020 INCH
T01C0.020
;Holesize 2 = 0.039 INCH
T02C0.039
;Holesize 3 = 0.060 INCH
T03C0.060
%
G05
G90
T01
X+011250Y+014596
X+014596Y+011250
X+007903Y+011250
X+003750Y+007096
X+003750Y+000403
X+000403Y+003750
X+011250Y+000403
X+018750Y+007096
X+022096Y+003750
X+018750Y+000403
T02
X+014478Y+009793
X+014478Y+012746
X+012758Y+008010
X+009805Y+008009
X+006978Y+002293
X+006978Y+005246
X+005258Y+000510
X+002305Y+000509
X+014478Y+002293
X+014478Y+005246
X+012758Y+000510
X+009805Y+000509
X+021978Y+002293
X+021978Y+005246
X+020258Y+000510
X+017305Y+000509
T03
X+010250Y+012750G85X+010250Y+013249
X+009749Y+012250G85X+009250Y+012250
X+012250Y+009250G85X+012250Y+009749
X+013249Y+010250G85X+012750Y+010250
X+010250Y+009250G85X+010250Y+009749
X+009749Y+010250G85X+009250Y+010250
X+013249Y+012250G85X+012750Y+012250
X+012250Y+012750G85X+012250Y+013249
X+002750Y+005250G85X+002750Y+005749
X+002249Y+004750G85X+001750Y+004750
X+004750Y+001750G85X+004750Y+002249
X+005749Y+002750G85X+005250Y+002750
X+002750Y+001750G85X+002750Y+002249
X+002249Y+002750G85X+001750Y+002750
X+005749Y+004750G85X+005250Y+004750
X+004750Y+005250G85X+004750Y+005749
X+010250Y+005250G85X+010250Y+005749
X+009749Y+004750G85X+009250Y+004750
X+012250Y+001750G85X+012250Y+002249
X+013249Y+002750G85X+012750Y+002750
X+010250Y+001750G85X+010250Y+002249
X+009749Y+002750G85X+009250Y+002750
X+013249Y+004750G85X+012750Y+004750
X+012250Y+005250G85X+012250Y+005749
X+017750Y+005250G85X+017750Y+005749
X+017249Y+004750G85X+016750Y+004750
X+019750Y+001750G85X+019750Y+002249
X+020749Y+002750G85X+020250Y+002750
X+017750Y+001750G85X+017750Y+002249
X+017249Y+002750G85X+016750Y+002750
X+020749Y+004750G85X+020250Y+004750
X+019750Y+005250G85X+019750Y+005749
M30
