;Layer: Drill NPTH
;EasyEDA v6.1.49, Wed, 05 Jun 2019 22:56:44 GMT
;6b520eb5fea8430f926b6e8f94950312,d502dfb0143049649cf38511bf809cad,10
;Gerber Generator version 0.2
M48
INCH,LZ,00.0000
;Holesize 1 = 0.070 INCH
T01C0.070
;Holesize 2 = 0.160 INCH
T02C0.160
%
G05
G90
T01
X+013250Y+011249
X+009250Y+011249
X+011250Y+013249
X+011250Y+009249
X+005750Y+003749
X+001750Y+003749
X+003750Y+005749
X+003750Y+001749
X+013250Y+003749
X+009250Y+003749
X+011250Y+005749
X+011250Y+001749
X+020750Y+003749
X+016750Y+003749
X+018750Y+005749
X+018750Y+001749
T02
X+011250Y+011249
X+003750Y+003749
X+011250Y+003749
X+018750Y+003749
M30
