G04 Layer: BottomSolderMaskLayer*
G04 EasyEDA v6.1.49, Wed, 05 Jun 2019 22:56:44 GMT*
G04 6b520eb5fea8430f926b6e8f94950312,d502dfb0143049649cf38511bf809cad,10*
G04 Gerber Generator version 0.2*
G04 Scale: 100 percent, Rotated: No, Reflected: No *
G04 Dimensions in inches *
G04 leading zeros omitted , absolute positions ,2 integer and 4 decimal *
%FSLAX24Y24*%
%MOIN*%
G90*
G70D02*

%ADD17C,0.118268*%
%ADD18R,0.073000X0.073000*%
%ADD19C,0.073000*%
%ADD20R,0.126110X0.080835*%
%ADD21R,0.080835X0.126110*%

%LPD*%
G54D17*
G01X10250Y13157D02*
G01X10250Y12842D01*
G01X9342Y12249D02*
G01X9657Y12249D01*
G01X12250Y9657D02*
G01X12250Y9342D01*
G01X12842Y10249D02*
G01X13157Y10249D01*
G01X10250Y9657D02*
G01X10250Y9342D01*
G01X9342Y10249D02*
G01X9657Y10249D01*
G01X12842Y12249D02*
G01X13157Y12249D01*
G01X12250Y13157D02*
G01X12250Y12842D01*
G01X2750Y5657D02*
G01X2750Y5342D01*
G01X1842Y4749D02*
G01X2157Y4749D01*
G01X4750Y2157D02*
G01X4750Y1842D01*
G01X5342Y2749D02*
G01X5657Y2749D01*
G01X2750Y2157D02*
G01X2750Y1842D01*
G01X1842Y2749D02*
G01X2157Y2749D01*
G01X5342Y4749D02*
G01X5657Y4749D01*
G01X4750Y5657D02*
G01X4750Y5342D01*
G01X10250Y5657D02*
G01X10250Y5342D01*
G01X9342Y4749D02*
G01X9657Y4749D01*
G01X12250Y2157D02*
G01X12250Y1842D01*
G01X12842Y2749D02*
G01X13157Y2749D01*
G01X10250Y2157D02*
G01X10250Y1842D01*
G01X9342Y2749D02*
G01X9657Y2749D01*
G01X12842Y4749D02*
G01X13157Y4749D01*
G01X12250Y5657D02*
G01X12250Y5342D01*
G01X17750Y5657D02*
G01X17750Y5342D01*
G01X16842Y4749D02*
G01X17157Y4749D01*
G01X19750Y2157D02*
G01X19750Y1842D01*
G01X20342Y2749D02*
G01X20657Y2749D01*
G01X17750Y2157D02*
G01X17750Y1842D01*
G01X16842Y2749D02*
G01X17157Y2749D01*
G01X20342Y4749D02*
G01X20657Y4749D01*
G01X19750Y5657D02*
G01X19750Y5342D01*
G36*
G01X14113Y9428D02*
G01X14113Y10158D01*
G01X14843Y10158D01*
G01X14843Y9428D01*
G01X14113Y9428D01*
G37*
G54D19*
G01X14478Y12746D03*
G54D18*
G01X12758Y8010D03*
G54D19*
G01X9805Y8009D03*
G54D20*
G01X11250Y14596D03*
G54D21*
G01X14596Y11249D03*
G01X7903Y11249D03*
G36*
G01X6613Y1928D02*
G01X6613Y2658D01*
G01X7343Y2658D01*
G01X7343Y1928D01*
G01X6613Y1928D01*
G37*
G54D19*
G01X6978Y5246D03*
G54D18*
G01X5258Y510D03*
G54D19*
G01X2305Y509D03*
G54D20*
G01X3750Y7096D03*
G01X3750Y403D03*
G54D21*
G01X403Y3749D03*
G36*
G01X14113Y1928D02*
G01X14113Y2658D01*
G01X14843Y2658D01*
G01X14843Y1928D01*
G01X14113Y1928D01*
G37*
G54D19*
G01X14478Y5246D03*
G54D18*
G01X12758Y510D03*
G54D19*
G01X9805Y509D03*
G54D20*
G01X11250Y403D03*
G36*
G01X21613Y1928D02*
G01X21613Y2658D01*
G01X22343Y2658D01*
G01X22343Y1928D01*
G01X21613Y1928D01*
G37*
G54D19*
G01X21978Y5246D03*
G54D18*
G01X20258Y510D03*
G54D19*
G01X17305Y509D03*
G54D20*
G01X18750Y7096D03*
G54D21*
G01X22096Y3749D03*
G54D20*
G01X18750Y403D03*
M00*
M02*
