G04 Layer: TopSolderMaskLayer*
G04 EasyEDA v6.1.49, Wed, 05 Jun 2019 22:56:30 GMT*
G04 124cd29601cd48afb0c399f4905ffa2e,d502dfb0143049649cf38511bf809cad,10*
G04 Gerber Generator version 0.2*
G04 Scale: 100 percent, Rotated: No, Reflected: No *
G04 Dimensions in inches *
G04 leading zeros omitted , absolute positions ,2 integer and 4 decimal *
%FSLAX24Y24*%
%MOIN*%
G90*
G70D02*

%ADD18C,0.118268*%
%ADD19R,0.073000X0.073000*%
%ADD20C,0.073000*%
%ADD21R,0.126110X0.080835*%
%ADD22R,0.080835X0.126110*%

%LPD*%
G54D18*
G01X2750Y20657D02*
G01X2750Y20342D01*
G01X1842Y19750D02*
G01X2157Y19750D01*
G01X4750Y17157D02*
G01X4750Y16842D01*
G01X5342Y17750D02*
G01X5657Y17750D01*
G01X2750Y17157D02*
G01X2750Y16842D01*
G01X1842Y17750D02*
G01X2157Y17750D01*
G01X5342Y19750D02*
G01X5657Y19750D01*
G01X4750Y20657D02*
G01X4750Y20342D01*
G01X2749Y13156D02*
G01X2749Y12842D01*
G01X1842Y12249D02*
G01X2157Y12249D01*
G01X4749Y9656D02*
G01X4749Y9342D01*
G01X5342Y10249D02*
G01X5657Y10249D01*
G01X2749Y9656D02*
G01X2749Y9342D01*
G01X1842Y10249D02*
G01X2157Y10249D01*
G01X5342Y12249D02*
G01X5657Y12249D01*
G01X4749Y13156D02*
G01X4749Y12842D01*
G01X2749Y5656D02*
G01X2749Y5342D01*
G01X1842Y4749D02*
G01X2157Y4749D01*
G01X4749Y2156D02*
G01X4749Y1842D01*
G01X5342Y2749D02*
G01X5657Y2749D01*
G01X2749Y2156D02*
G01X2749Y1842D01*
G01X1842Y2749D02*
G01X2157Y2749D01*
G01X5342Y4749D02*
G01X5657Y4749D01*
G01X4749Y5656D02*
G01X4749Y5342D01*
G01X10249Y5656D02*
G01X10249Y5342D01*
G01X9342Y4749D02*
G01X9657Y4749D01*
G01X12249Y2156D02*
G01X12249Y1842D01*
G01X12842Y2749D02*
G01X13157Y2749D01*
G01X10249Y2156D02*
G01X10249Y1842D01*
G01X9342Y2749D02*
G01X9657Y2749D01*
G01X12842Y4749D02*
G01X13157Y4749D01*
G01X12249Y5656D02*
G01X12249Y5342D01*
G36*
G01X6613Y16928D02*
G01X6613Y17658D01*
G01X7343Y17658D01*
G01X7343Y16928D01*
G01X6613Y16928D01*
G37*
G54D20*
G01X6978Y20246D03*
G54D19*
G01X5258Y15510D03*
G54D20*
G01X2305Y15509D03*
G54D21*
G01X3750Y22096D03*
G54D22*
G01X7096Y18750D03*
G01X403Y18750D03*
G36*
G01X6612Y9427D02*
G01X6612Y10157D01*
G01X7342Y10157D01*
G01X7342Y9427D01*
G01X6612Y9427D01*
G37*
G54D20*
G01X6978Y12745D03*
G54D19*
G01X5258Y8009D03*
G54D20*
G01X2305Y8009D03*
G54D22*
G01X7096Y11249D03*
G01X403Y11249D03*
G36*
G01X6612Y1927D02*
G01X6612Y2657D01*
G01X7342Y2657D01*
G01X7342Y1927D01*
G01X6612Y1927D01*
G37*
G54D20*
G01X6978Y5245D03*
G54D19*
G01X5258Y509D03*
G54D20*
G01X2305Y509D03*
G54D21*
G01X3749Y403D03*
G54D22*
G01X403Y3749D03*
G36*
G01X14112Y1927D02*
G01X14112Y2657D01*
G01X14842Y2657D01*
G01X14842Y1927D01*
G01X14112Y1927D01*
G37*
G54D20*
G01X14478Y5245D03*
G54D19*
G01X12758Y509D03*
G54D20*
G01X9805Y509D03*
G54D21*
G01X11249Y7095D03*
G54D22*
G01X14596Y3749D03*
G54D21*
G01X11249Y403D03*
M00*
M02*
