;Layer: Drill NPTH
;EasyEDA v6.1.49, Wed, 05 Jun 2019 22:56:30 GMT
;124cd29601cd48afb0c399f4905ffa2e,d502dfb0143049649cf38511bf809cad,10
;Gerber Generator version 0.2
M48
INCH,LZ,00.0000
;Holesize 1 = 0.070 INCH
T01C0.070
;Holesize 2 = 0.160 INCH
T02C0.160
%
G05
G90
T01
X+005750Y+018750
X+001750Y+018750
X+003750Y+020750
X+003750Y+016750
X+005749Y+011249
X+001749Y+011249
X+003749Y+013249
X+003749Y+009249
X+005749Y+003749
X+001749Y+003749
X+003749Y+005749
X+003749Y+001749
X+013249Y+003749
X+009249Y+003749
X+011249Y+005749
X+011249Y+001749
T02
X+003750Y+018750
X+003749Y+011249
X+003749Y+003749
X+011249Y+003749
M30
