;Layer: Drill PTH
;EasyEDA v6.1.49, Wed, 05 Jun 2019 22:56:30 GMT
;124cd29601cd48afb0c399f4905ffa2e,d502dfb0143049649cf38511bf809cad,10
;Gerber Generator version 0.2
M48
INCH,LZ,00.0000
;Holesize 1 = 0.012 INCH
T01C0.012
;Holesize 2 = 0.020 INCH
T02C0.020
;Holesize 3 = 0.039 INCH
T03C0.039
;Holesize 4 = 0.060 INCH
T04C0.060
%
G05
G90
T01
X+006518Y+001535
T02
X+003750Y+022096
X+007096Y+018750
X+000403Y+018750
X+007096Y+011249
X+000403Y+011249
X+003749Y+000403
X+000403Y+003749
X+011249Y+007095
X+014596Y+003749
X+011249Y+000403
T03
X+006978Y+017293
X+006978Y+020246
X+005258Y+015510
X+002305Y+015509
X+006978Y+009792
X+006978Y+012745
X+005258Y+008009
X+002305Y+008009
X+006978Y+002292
X+006978Y+005245
X+005258Y+000509
X+002305Y+000509
X+014478Y+002292
X+014478Y+005245
X+012758Y+000509
X+009805Y+000509
T04
X+002750Y+020250G85X+002750Y+020749
X+002249Y+019750G85X+001750Y+019750
X+004750Y+016750G85X+004750Y+017249
X+005749Y+017750G85X+005250Y+017750
X+002750Y+016750G85X+002750Y+017249
X+002249Y+017750G85X+001750Y+017750
X+005749Y+019750G85X+005250Y+019750
X+004750Y+020250G85X+004750Y+020749
X+002749Y+012750G85X+002749Y+013248
X+002248Y+012249G85X+001750Y+012249
X+004749Y+009250G85X+004749Y+009748
X+005748Y+010249G85X+005250Y+010249
X+002749Y+009250G85X+002749Y+009748
X+002248Y+010249G85X+001750Y+010249
X+005748Y+012249G85X+005250Y+012249
X+004749Y+012750G85X+004749Y+013248
X+002749Y+005250G85X+002749Y+005748
X+002248Y+004749G85X+001750Y+004749
X+004749Y+001750G85X+004749Y+002248
X+005748Y+002749G85X+005250Y+002749
X+002749Y+001750G85X+002749Y+002248
X+002248Y+002749G85X+001750Y+002749
X+005748Y+004749G85X+005250Y+004749
X+004749Y+005250G85X+004749Y+005748
X+010249Y+005250G85X+010249Y+005748
X+009748Y+004749G85X+009250Y+004749
X+012249Y+001750G85X+012249Y+002248
X+013248Y+002749G85X+012750Y+002749
X+010249Y+001750G85X+010249Y+002248
X+009748Y+002749G85X+009250Y+002749
X+013248Y+004749G85X+012750Y+004749
X+012249Y+005250G85X+012249Y+005748
M30
