G04 Layer: TopLayer*
G04 EasyEDA v6.1.49, Wed, 05 Jun 2019 22:56:30 GMT*
G04 124cd29601cd48afb0c399f4905ffa2e,d502dfb0143049649cf38511bf809cad,10*
G04 Gerber Generator version 0.2*
G04 Scale: 100 percent, Rotated: No, Reflected: No *
G04 Dimensions in inches *
G04 leading zeros omitted , absolute positions ,2 integer and 4 decimal *
%FSLAX24Y24*%
%MOIN*%
G90*
G70D02*

%ADD10C,0.010000*%
%ADD12C,0.024000*%
%ADD13R,0.065000X0.065000*%
%ADD14C,0.065000*%
%ADD15R,0.118110X0.072835*%
%ADD16R,0.072835X0.118110*%
%ADD17C,0.110236*%

%LPD*%
G54D10*
G01X6977Y2292D02*
G01X6977Y1856D01*
G01X6977Y1856D02*
G01X6840Y1856D01*
G01X6518Y1535D01*
G01X14596Y3749D02*
G01X14596Y3047D01*
G01X14596Y3047D02*
G01X14477Y2929D01*
G01X14477Y2292D01*
G01X2305Y15509D02*
G01X2749Y15954D01*
G01X2749Y16999D01*
G01X7096Y18749D02*
G01X7096Y18048D01*
G01X7096Y18048D02*
G01X6978Y17930D01*
G01X6978Y17293D01*
G01X5258Y15510D02*
G01X5258Y15945D01*
G01X3749Y22096D02*
G01X4451Y22096D01*
G01X4451Y22096D02*
G01X6326Y20220D01*
G01X6326Y17014D01*
G01X5258Y15945D01*
G01X5258Y15510D02*
G01X5258Y15074D01*
G01X5258Y8009D02*
G01X5258Y8445D01*
G01X5258Y8445D02*
G01X6330Y9517D01*
G01X6330Y14002D01*
G01X5258Y15074D01*
G01X5258Y7791D02*
G01X5258Y8009D01*
G01X5258Y7791D02*
G01X5258Y7573D01*
G01X5258Y509D02*
G01X5258Y945D01*
G01X5258Y945D02*
G01X6330Y2017D01*
G01X6330Y6501D01*
G01X5258Y7573D01*
G01X4749Y9499D02*
G01X5288Y10038D01*
G01X5288Y11058D01*
G01X3347Y12999D01*
G01X2749Y12999D01*
G01X2305Y8009D02*
G01X2749Y8453D01*
G01X2749Y9499D01*
G01X7096Y11249D02*
G01X7096Y10547D01*
G01X7096Y10547D02*
G01X6977Y10429D01*
G01X6977Y9792D01*
G01X4749Y1999D02*
G01X5288Y2538D01*
G01X5288Y3558D01*
G01X3347Y5499D01*
G01X2749Y5499D01*
G01X2305Y509D02*
G01X2305Y1555D01*
G01X2749Y1999D01*
G01X14477Y5245D02*
G01X13972Y4740D01*
G01X13972Y3722D01*
G01X12999Y2749D01*
G01X9805Y509D02*
G01X9805Y1555D01*
G01X10249Y1999D01*
G01X156Y468D02*
G01X156Y3007D01*
G01X156Y3007D02*
G01X767Y3007D01*
G01X918Y3158D02*
G01X918Y4340D01*
G01X767Y4491D02*
G01X156Y4491D01*
G01X156Y4491D02*
G01X156Y10507D01*
G01X156Y10507D02*
G01X767Y10507D01*
G01X918Y10658D02*
G01X918Y11840D01*
G01X767Y11991D02*
G01X156Y11991D01*
G01X156Y11991D02*
G01X156Y18007D01*
G01X156Y18007D02*
G01X767Y18007D01*
G01X919Y18159D02*
G01X919Y19340D01*
G01X767Y19492D02*
G01X156Y19492D01*
G01X156Y19492D02*
G01X156Y22031D01*
G01X468Y22343D02*
G01X3007Y22343D01*
G01X3007Y22343D02*
G01X3007Y21732D01*
G01X3159Y21580D02*
G01X4340Y21580D01*
G01X4492Y21732D02*
G01X4492Y21771D01*
G01X4492Y21771D02*
G01X4924Y21338D01*
G01X2047Y20657D02*
G01X2047Y20452D01*
G01X2047Y20452D02*
G01X1842Y20452D01*
G01X1842Y17047D02*
G01X2047Y17047D01*
G01X2047Y17047D02*
G01X2047Y16842D01*
G01X2548Y16169D02*
G01X2548Y16037D01*
G01X2548Y16037D02*
G01X2468Y15957D01*
G01X2753Y15673D02*
G01X2892Y15812D01*
G01X2951Y15954D02*
G01X2951Y16169D01*
G01X5452Y16842D02*
G01X5452Y17047D01*
G01X5452Y17047D02*
G01X5657Y17047D01*
G01X6125Y17225D02*
G01X6125Y17097D01*
G01X6125Y17097D02*
G01X5116Y16087D01*
G01X5061Y15986D02*
G01X4933Y15986D01*
G01X4782Y15835D02*
G01X4782Y15185D01*
G01X4933Y15033D02*
G01X5061Y15033D01*
G01X5116Y14932D02*
G01X6129Y13919D01*
G01X6129Y13919D02*
G01X6129Y12770D01*
G01X5657Y12952D02*
G01X5452Y12952D01*
G01X5452Y12952D02*
G01X5452Y13156D01*
G01X2047Y13156D02*
G01X2047Y12952D01*
G01X2047Y12952D02*
G01X1842Y12952D01*
G01X1842Y9546D02*
G01X2047Y9546D01*
G01X2047Y9546D02*
G01X2047Y9342D01*
G01X2548Y8668D02*
G01X2548Y8536D01*
G01X2548Y8536D02*
G01X2468Y8457D01*
G01X2753Y8172D02*
G01X2892Y8311D01*
G01X2951Y8453D02*
G01X2951Y8668D01*
G01X5452Y9342D02*
G01X5452Y9546D01*
G01X5452Y9546D02*
G01X5657Y9546D01*
G01X6129Y9728D02*
G01X6129Y9600D01*
G01X6129Y9600D02*
G01X5116Y8587D01*
G01X5061Y8486D02*
G01X4933Y8486D01*
G01X4781Y8334D02*
G01X4781Y7684D01*
G01X4933Y7533D02*
G01X5061Y7533D01*
G01X5116Y7431D02*
G01X6129Y6418D01*
G01X6129Y6418D02*
G01X6129Y5270D01*
G01X5657Y5452D02*
G01X5452Y5452D01*
G01X5452Y5452D02*
G01X5452Y5656D01*
G01X2047Y5656D02*
G01X2047Y5452D01*
G01X2047Y5452D02*
G01X1842Y5452D01*
G01X1842Y2046D02*
G01X2047Y2046D01*
G01X2047Y2046D02*
G01X2047Y1842D01*
G01X2104Y1555D02*
G01X2104Y941D01*
G01X1985Y156D02*
G01X468Y156D01*
G01X184Y339D02*
G01X1860Y339D01*
G01X156Y541D02*
G01X1830Y541D01*
G01X156Y743D02*
G01X1890Y743D01*
G01X156Y945D02*
G01X2104Y945D01*
G01X156Y1147D02*
G01X2104Y1147D01*
G01X156Y1349D02*
G01X2104Y1349D01*
G01X156Y1551D02*
G01X2104Y1551D01*
G01X156Y1753D02*
G01X2052Y1753D01*
G01X156Y1955D02*
G01X2047Y1955D01*
G01X156Y2157D02*
G01X1464Y2157D01*
G01X156Y2359D02*
G01X1257Y2359D01*
G01X156Y2561D02*
G01X1165Y2561D01*
G01X156Y2763D02*
G01X1139Y2763D01*
G01X156Y2965D02*
G01X1173Y2965D01*
G01X918Y3167D02*
G01X1277Y3167D01*
G01X918Y3369D02*
G01X1422Y3369D01*
G01X918Y3571D02*
G01X1280Y3571D01*
G01X918Y3773D02*
G01X1248Y3773D01*
G01X918Y3975D02*
G01X1301Y3975D01*
G01X918Y4177D02*
G01X1434Y4177D01*
G01X913Y4379D02*
G01X1245Y4379D01*
G01X156Y4581D02*
G01X1160Y4581D01*
G01X156Y4783D02*
G01X1140Y4783D01*
G01X156Y4985D02*
G01X1180Y4985D01*
G01X156Y5187D02*
G01X1292Y5187D01*
G01X156Y5389D02*
G01X1551Y5389D01*
G01X5947Y5389D02*
G01X6129Y5389D01*
G01X156Y5591D02*
G01X2047Y5591D01*
G01X5452Y5591D02*
G01X6129Y5591D01*
G01X156Y5793D02*
G01X2060Y5793D01*
G01X5439Y5793D02*
G01X6129Y5793D01*
G01X156Y5995D02*
G01X2133Y5995D01*
G01X5365Y5995D02*
G01X6129Y5995D01*
G01X156Y6197D02*
G01X2300Y6197D01*
G01X3199Y6197D02*
G01X3523Y6197D01*
G01X3975Y6197D02*
G01X4300Y6197D01*
G01X5199Y6197D02*
G01X6129Y6197D01*
G01X156Y6399D02*
G01X6129Y6399D01*
G01X156Y6601D02*
G01X5946Y6601D01*
G01X156Y6803D02*
G01X5744Y6803D01*
G01X156Y7005D02*
G01X5542Y7005D01*
G01X156Y7207D02*
G01X5340Y7207D01*
G01X156Y7409D02*
G01X5138Y7409D01*
G01X156Y7611D02*
G01X2044Y7611D01*
G01X2567Y7611D02*
G01X4800Y7611D01*
G01X156Y7813D02*
G01X1871Y7813D01*
G01X2739Y7813D02*
G01X4781Y7813D01*
G01X156Y8015D02*
G01X1829Y8015D01*
G01X2782Y8015D02*
G01X4781Y8015D01*
G01X156Y8217D02*
G01X1876Y8217D01*
G01X2798Y8217D02*
G01X4781Y8217D01*
G01X156Y8419D02*
G01X2062Y8419D01*
G01X2948Y8419D02*
G01X4807Y8419D01*
G01X156Y8621D02*
G01X2548Y8621D01*
G01X2951Y8621D02*
G01X5149Y8621D01*
G01X156Y8823D02*
G01X2275Y8823D01*
G01X3223Y8823D02*
G01X3485Y8823D01*
G01X4013Y8823D02*
G01X4275Y8823D01*
G01X5223Y8823D02*
G01X5351Y8823D01*
G01X156Y9025D02*
G01X2122Y9025D01*
G01X5376Y9025D02*
G01X5553Y9025D01*
G01X156Y9227D02*
G01X2056Y9227D01*
G01X5442Y9227D02*
G01X5755Y9227D01*
G01X156Y9429D02*
G01X2047Y9429D01*
G01X5452Y9429D02*
G01X5957Y9429D01*
G01X156Y9631D02*
G01X1508Y9631D01*
G01X5991Y9631D02*
G01X6129Y9631D01*
G01X156Y9833D02*
G01X1276Y9833D01*
G01X156Y10035D02*
G01X1173Y10035D01*
G01X156Y10237D02*
G01X1139Y10237D01*
G01X156Y10439D02*
G01X1165Y10439D01*
G01X917Y10641D02*
G01X1258Y10641D01*
G01X918Y10843D02*
G01X1455Y10843D01*
G01X918Y11045D02*
G01X1291Y11045D01*
G01X918Y11247D02*
G01X1248Y11247D01*
G01X918Y11449D02*
G01X1289Y11449D01*
G01X918Y11651D02*
G01X1449Y11651D01*
G01X918Y11853D02*
G01X1261Y11853D01*
G01X156Y12055D02*
G01X1166Y12055D01*
G01X156Y12257D02*
G01X1139Y12257D01*
G01X156Y12459D02*
G01X1171Y12459D01*
G01X156Y12661D02*
G01X1272Y12661D01*
G01X156Y12863D02*
G01X1500Y12863D01*
G01X5999Y12863D02*
G01X6129Y12863D01*
G01X156Y13065D02*
G01X2047Y13065D01*
G01X5452Y13065D02*
G01X6129Y13065D01*
G01X156Y13267D02*
G01X2055Y13267D01*
G01X5443Y13267D02*
G01X6129Y13267D01*
G01X156Y13469D02*
G01X2120Y13469D01*
G01X5379Y13469D02*
G01X6129Y13469D01*
G01X156Y13671D02*
G01X2270Y13671D01*
G01X3228Y13671D02*
G01X3478Y13671D01*
G01X4021Y13671D02*
G01X4270Y13671D01*
G01X5228Y13671D02*
G01X6129Y13671D01*
G01X156Y13873D02*
G01X6129Y13873D01*
G01X156Y14075D02*
G01X5973Y14075D01*
G01X156Y14277D02*
G01X5771Y14277D01*
G01X156Y14479D02*
G01X5569Y14479D01*
G01X156Y14681D02*
G01X5367Y14681D01*
G01X156Y14883D02*
G01X5165Y14883D01*
G01X156Y15085D02*
G01X2089Y15085D01*
G01X2521Y15085D02*
G01X4819Y15085D01*
G01X156Y15287D02*
G01X1884Y15287D01*
G01X2727Y15287D02*
G01X4782Y15287D01*
G01X156Y15489D02*
G01X1829Y15489D01*
G01X2781Y15489D02*
G01X4782Y15489D01*
G01X156Y15691D02*
G01X1865Y15691D01*
G01X2771Y15691D02*
G01X4782Y15691D01*
G01X156Y15893D02*
G01X2022Y15893D01*
G01X2941Y15893D02*
G01X4793Y15893D01*
G01X156Y16095D02*
G01X2548Y16095D01*
G01X2951Y16095D02*
G01X5123Y16095D01*
G01X156Y16297D02*
G01X2306Y16297D01*
G01X3193Y16297D02*
G01X3534Y16297D01*
G01X3965Y16297D02*
G01X4306Y16297D01*
G01X5193Y16297D02*
G01X5325Y16297D01*
G01X156Y16499D02*
G01X2136Y16499D01*
G01X5363Y16499D02*
G01X5527Y16499D01*
G01X156Y16701D02*
G01X2061Y16701D01*
G01X5438Y16701D02*
G01X5728Y16701D01*
G01X156Y16903D02*
G01X2047Y16903D01*
G01X5452Y16903D02*
G01X5930Y16903D01*
G01X156Y17105D02*
G01X1563Y17105D01*
G01X5936Y17105D02*
G01X6125Y17105D01*
G01X156Y17307D02*
G01X1296Y17307D01*
G01X156Y17509D02*
G01X1182Y17509D01*
G01X156Y17711D02*
G01X1140Y17711D01*
G01X156Y17913D02*
G01X1159Y17913D01*
G01X912Y18115D02*
G01X1242Y18115D01*
G01X919Y18317D02*
G01X1427Y18317D01*
G01X919Y18519D02*
G01X1304Y18519D01*
G01X919Y18721D02*
G01X1249Y18721D01*
G01X919Y18923D02*
G01X1279Y18923D01*
G01X919Y19125D02*
G01X1417Y19125D01*
G01X919Y19327D02*
G01X1281Y19327D01*
G01X156Y19529D02*
G01X1175Y19529D01*
G01X156Y19731D02*
G01X1140Y19731D01*
G01X156Y19933D02*
G01X1164Y19933D01*
G01X156Y20135D02*
G01X1254Y20135D01*
G01X156Y20337D02*
G01X1456Y20337D01*
G01X156Y20539D02*
G01X2047Y20539D01*
G01X156Y20741D02*
G01X2052Y20741D01*
G01X156Y20943D02*
G01X2108Y20943D01*
G01X156Y21145D02*
G01X2244Y21145D01*
G01X3255Y21145D02*
G01X3441Y21145D01*
G01X4058Y21145D02*
G01X4244Y21145D01*
G01X156Y21347D02*
G01X2615Y21347D01*
G01X2884Y21347D02*
G01X4615Y21347D01*
G01X4884Y21347D02*
G01X4915Y21347D01*
G01X156Y21549D02*
G01X4713Y21549D01*
G01X156Y21751D02*
G01X3007Y21751D01*
G01X4492Y21751D02*
G01X4511Y21751D01*
G01X156Y21953D02*
G01X3007Y21953D01*
G01X182Y22155D02*
G01X3007Y22155D01*
G01X5974Y5376D02*
G01X5974Y6572D01*
G01X5974Y9446D02*
G01X5974Y9622D01*
G01X5974Y12876D02*
G01X5974Y14073D01*
G01X5974Y16947D02*
G01X5974Y17122D01*
G01X5772Y5442D02*
G01X5772Y6774D01*
G01X5772Y9244D02*
G01X5772Y9556D01*
G01X5772Y12942D02*
G01X5772Y14275D01*
G01X5772Y16745D02*
G01X5772Y17056D01*
G01X5570Y5452D02*
G01X5570Y6976D01*
G01X5570Y9042D02*
G01X5570Y9546D01*
G01X5570Y12952D02*
G01X5570Y14477D01*
G01X5570Y16542D02*
G01X5570Y17047D01*
G01X5368Y5989D02*
G01X5368Y7178D01*
G01X5368Y8840D02*
G01X5368Y9009D01*
G01X5368Y13489D02*
G01X5368Y14679D01*
G01X5368Y16340D02*
G01X5368Y16509D01*
G01X5166Y6222D02*
G01X5166Y7380D01*
G01X5166Y8638D02*
G01X5166Y8776D01*
G01X5166Y13722D02*
G01X5166Y14881D01*
G01X5166Y16138D02*
G01X5166Y16276D01*
G01X4964Y6325D02*
G01X4964Y7533D01*
G01X4964Y8486D02*
G01X4964Y8673D01*
G01X4964Y13825D02*
G01X4964Y15033D01*
G01X4964Y15986D02*
G01X4964Y16173D01*
G01X4762Y6359D02*
G01X4762Y8639D01*
G01X4762Y13859D02*
G01X4762Y16139D01*
G01X4762Y21360D02*
G01X4762Y21500D01*
G01X4560Y6333D02*
G01X4560Y8665D01*
G01X4560Y13833D02*
G01X4560Y16165D01*
G01X4560Y21334D02*
G01X4560Y21702D01*
G01X4358Y6240D02*
G01X4358Y8758D01*
G01X4358Y13740D02*
G01X4358Y16258D01*
G01X4358Y21241D02*
G01X4358Y21581D01*
G01X4156Y6042D02*
G01X4156Y8956D01*
G01X4156Y13542D02*
G01X4156Y16456D01*
G01X4156Y21043D02*
G01X4156Y21580D01*
G01X3954Y6207D02*
G01X3954Y8791D01*
G01X3954Y13707D02*
G01X3954Y16292D01*
G01X3954Y21207D02*
G01X3954Y21580D01*
G01X3752Y6250D02*
G01X3752Y8748D01*
G01X3752Y13750D02*
G01X3752Y16248D01*
G01X3752Y21251D02*
G01X3752Y21580D01*
G01X3550Y6209D02*
G01X3550Y8789D01*
G01X3550Y13709D02*
G01X3550Y16289D01*
G01X3550Y21210D02*
G01X3550Y21580D01*
G01X3348Y6050D02*
G01X3348Y8948D01*
G01X3348Y13550D02*
G01X3348Y16449D01*
G01X3348Y21050D02*
G01X3348Y21580D01*
G01X3146Y6236D02*
G01X3146Y8762D01*
G01X3146Y13736D02*
G01X3146Y16262D01*
G01X3146Y21237D02*
G01X3146Y21581D01*
G01X2944Y6332D02*
G01X2944Y8402D01*
G01X2944Y13832D02*
G01X2944Y15903D01*
G01X2944Y21332D02*
G01X2944Y22343D01*
G01X2742Y6359D02*
G01X2742Y7819D01*
G01X2742Y13859D02*
G01X2742Y15319D01*
G01X2742Y21360D02*
G01X2742Y22343D01*
G01X2540Y6327D02*
G01X2540Y7595D01*
G01X2540Y8529D02*
G01X2540Y8671D01*
G01X2540Y13827D02*
G01X2540Y15095D01*
G01X2540Y16030D02*
G01X2540Y16171D01*
G01X2540Y21328D02*
G01X2540Y22343D01*
G01X2338Y6226D02*
G01X2338Y7534D01*
G01X2338Y8484D02*
G01X2338Y8772D01*
G01X2338Y13726D02*
G01X2338Y15034D01*
G01X2338Y15985D02*
G01X2338Y16272D01*
G01X2338Y21227D02*
G01X2338Y22343D01*
G01X2136Y6000D02*
G01X2136Y7563D01*
G01X2136Y8455D02*
G01X2136Y8998D01*
G01X2136Y13500D02*
G01X2136Y15064D01*
G01X2136Y15955D02*
G01X2136Y16499D01*
G01X2136Y21000D02*
G01X2136Y22343D01*
G01X1934Y156D02*
G01X1934Y210D01*
G01X1934Y808D02*
G01X1934Y2046D01*
G01X1934Y5452D02*
G01X1934Y7710D01*
G01X1934Y8308D02*
G01X1934Y9546D01*
G01X1934Y12952D02*
G01X1934Y15211D01*
G01X1934Y15808D02*
G01X1934Y17047D01*
G01X1934Y20452D02*
G01X1934Y22343D01*
G01X1732Y156D02*
G01X1732Y2055D01*
G01X1732Y5443D02*
G01X1732Y9555D01*
G01X1732Y12943D02*
G01X1732Y17055D01*
G01X1732Y20444D02*
G01X1732Y22343D01*
G01X1530Y156D02*
G01X1530Y2119D01*
G01X1530Y5379D02*
G01X1530Y9619D01*
G01X1530Y12879D02*
G01X1530Y17120D01*
G01X1530Y20379D02*
G01X1530Y22343D01*
G01X1328Y156D02*
G01X1328Y2269D01*
G01X1328Y3229D02*
G01X1328Y3476D01*
G01X1328Y4022D02*
G01X1328Y4269D01*
G01X1328Y5229D02*
G01X1328Y9769D01*
G01X1328Y10729D02*
G01X1328Y10976D01*
G01X1328Y11522D02*
G01X1328Y11769D01*
G01X1328Y12729D02*
G01X1328Y17270D01*
G01X1328Y18229D02*
G01X1328Y18477D01*
G01X1328Y19022D02*
G01X1328Y19270D01*
G01X1328Y20229D02*
G01X1328Y22343D01*
G01X1126Y156D02*
G01X1126Y22343D01*
G01X924Y156D02*
G01X924Y22343D01*
G01X722Y156D02*
G01X722Y3007D01*
G01X722Y4491D02*
G01X722Y10507D01*
G01X722Y11991D02*
G01X722Y18007D01*
G01X722Y19492D02*
G01X722Y22343D01*
G01X520Y156D02*
G01X520Y3007D01*
G01X520Y4491D02*
G01X520Y10507D01*
G01X520Y11991D02*
G01X520Y18007D01*
G01X520Y19492D02*
G01X520Y22343D01*
G01X318Y194D02*
G01X318Y3007D01*
G01X318Y4491D02*
G01X318Y10507D01*
G01X318Y11991D02*
G01X318Y18007D01*
G01X318Y19492D02*
G01X318Y22305D01*
G01X9485Y156D02*
G01X5732Y156D01*
G01X5734Y184D02*
G01X5734Y834D01*
G01X5584Y986D02*
G01X6473Y1875D01*
G01X6552Y1854D02*
G01X6505Y1806D01*
G01X6789Y1521D02*
G01X6924Y1655D01*
G01X6924Y1655D02*
G01X6977Y1655D01*
G01X7175Y1816D02*
G01X7303Y1816D01*
G01X7538Y1730D02*
G01X8088Y1730D01*
G01X8239Y1882D02*
G01X8239Y5786D01*
G01X8088Y5937D02*
G01X7538Y5937D01*
G01X7386Y5786D02*
G01X7386Y5491D01*
G01X6532Y5413D02*
G01X6532Y6501D01*
G01X6473Y6643D02*
G01X5584Y7533D01*
G01X5734Y7684D02*
G01X5734Y8334D01*
G01X5584Y8486D02*
G01X6473Y9375D01*
G01X6653Y9316D02*
G01X7303Y9316D01*
G01X7343Y9321D02*
G01X7343Y7968D01*
G01X7968Y7343D02*
G01X10507Y7343D01*
G01X10507Y7343D02*
G01X10507Y6731D01*
G01X10659Y6580D02*
G01X11840Y6580D01*
G01X11991Y6731D02*
G01X11991Y7343D01*
G01X11991Y7343D02*
G01X14531Y7343D01*
G01X14843Y7031D02*
G01X14843Y5551D01*
G01X14030Y5082D02*
G01X13844Y4896D01*
G01X13157Y5452D02*
G01X12952Y5452D01*
G01X12952Y5452D02*
G01X12952Y5656D01*
G01X9547Y5656D02*
G01X9547Y5452D01*
G01X9547Y5452D02*
G01X9342Y5452D01*
G01X9342Y2046D02*
G01X9547Y2046D01*
G01X9547Y2046D02*
G01X9547Y1842D01*
G01X9604Y1555D02*
G01X9604Y941D01*
G01X5734Y339D02*
G01X9360Y339D01*
G01X5734Y541D02*
G01X9330Y541D01*
G01X5734Y743D02*
G01X9390Y743D01*
G01X5686Y945D02*
G01X9604Y945D01*
G01X5745Y1147D02*
G01X9604Y1147D01*
G01X5947Y1349D02*
G01X6321Y1349D01*
G01X6716Y1349D02*
G01X9604Y1349D01*
G01X6149Y1551D02*
G01X6247Y1551D01*
G01X6819Y1551D02*
G01X9604Y1551D01*
G01X6351Y1753D02*
G01X6356Y1753D01*
G01X7150Y1753D02*
G01X7458Y1753D01*
G01X8167Y1753D02*
G01X9552Y1753D01*
G01X8239Y1955D02*
G01X9547Y1955D01*
G01X8239Y2157D02*
G01X8964Y2157D01*
G01X8239Y2359D02*
G01X8757Y2359D01*
G01X8239Y2561D02*
G01X8665Y2561D01*
G01X8239Y2763D02*
G01X8639Y2763D01*
G01X8239Y2965D02*
G01X8673Y2965D01*
G01X8239Y3167D02*
G01X8777Y3167D01*
G01X8239Y3369D02*
G01X8922Y3369D01*
G01X8239Y3571D02*
G01X8780Y3571D01*
G01X8239Y3773D02*
G01X8748Y3773D01*
G01X8239Y3975D02*
G01X8801Y3975D01*
G01X8239Y4177D02*
G01X8934Y4177D01*
G01X8239Y4379D02*
G01X8745Y4379D01*
G01X8239Y4581D02*
G01X8660Y4581D01*
G01X8239Y4783D02*
G01X8640Y4783D01*
G01X8239Y4985D02*
G01X8680Y4985D01*
G01X13819Y4985D02*
G01X13932Y4985D01*
G01X8239Y5187D02*
G01X8792Y5187D01*
G01X13706Y5187D02*
G01X14005Y5187D01*
G01X8239Y5389D02*
G01X9051Y5389D01*
G01X13447Y5389D02*
G01X14023Y5389D01*
G01X6532Y5591D02*
G01X6650Y5591D01*
G01X7306Y5591D02*
G01X7386Y5591D01*
G01X8239Y5591D02*
G01X9547Y5591D01*
G01X12952Y5591D02*
G01X14150Y5591D01*
G01X14806Y5591D02*
G01X14843Y5591D01*
G01X6532Y5793D02*
G01X7386Y5793D01*
G01X8239Y5793D02*
G01X9560Y5793D01*
G01X12939Y5793D02*
G01X14843Y5793D01*
G01X6532Y5995D02*
G01X9633Y5995D01*
G01X12865Y5995D02*
G01X14843Y5995D01*
G01X6532Y6197D02*
G01X9800Y6197D01*
G01X10699Y6197D02*
G01X11023Y6197D01*
G01X11475Y6197D02*
G01X11800Y6197D01*
G01X12699Y6197D02*
G01X14843Y6197D01*
G01X6532Y6399D02*
G01X14843Y6399D01*
G01X6505Y6601D02*
G01X10582Y6601D01*
G01X11917Y6601D02*
G01X14843Y6601D01*
G01X6313Y6803D02*
G01X10507Y6803D01*
G01X11991Y6803D02*
G01X14843Y6803D01*
G01X6111Y7005D02*
G01X10507Y7005D01*
G01X11991Y7005D02*
G01X14843Y7005D01*
G01X5909Y7207D02*
G01X10507Y7207D01*
G01X11991Y7207D02*
G01X14789Y7207D01*
G01X5707Y7409D02*
G01X7689Y7409D01*
G01X5716Y7611D02*
G01X7455Y7611D01*
G01X5734Y7813D02*
G01X7363Y7813D01*
G01X5734Y8015D02*
G01X7343Y8015D01*
G01X5734Y8217D02*
G01X7343Y8217D01*
G01X5709Y8419D02*
G01X7343Y8419D01*
G01X5719Y8621D02*
G01X7343Y8621D01*
G01X5921Y8823D02*
G01X7343Y8823D01*
G01X6123Y9025D02*
G01X7343Y9025D01*
G01X6325Y9227D02*
G01X7343Y9227D01*
G01X14660Y5685D02*
G01X14660Y7315D01*
G01X14458Y5721D02*
G01X14458Y7343D01*
G01X14256Y5667D02*
G01X14256Y7343D01*
G01X14054Y5464D02*
G01X14054Y7343D01*
G01X13852Y4905D02*
G01X13852Y7343D01*
G01X13650Y5249D02*
G01X13650Y7343D01*
G01X13448Y5388D02*
G01X13448Y7343D01*
G01X13246Y5446D02*
G01X13246Y7343D01*
G01X13044Y5452D02*
G01X13044Y7343D01*
G01X12842Y6033D02*
G01X12842Y7343D01*
G01X12640Y6240D02*
G01X12640Y7343D01*
G01X12438Y6333D02*
G01X12438Y7343D01*
G01X12236Y6359D02*
G01X12236Y7343D01*
G01X12034Y6325D02*
G01X12034Y7343D01*
G01X11832Y6222D02*
G01X11832Y6580D01*
G01X11630Y6075D02*
G01X11630Y6580D01*
G01X11428Y6217D02*
G01X11428Y6580D01*
G01X11226Y6250D02*
G01X11226Y6580D01*
G01X11024Y6197D02*
G01X11024Y6580D01*
G01X10822Y6063D02*
G01X10822Y6580D01*
G01X10620Y6253D02*
G01X10620Y6585D01*
G01X10418Y6339D02*
G01X10418Y7343D01*
G01X10216Y6358D02*
G01X10216Y7343D01*
G01X10014Y6319D02*
G01X10014Y7343D01*
G01X9812Y6207D02*
G01X9812Y7343D01*
G01X9610Y5949D02*
G01X9610Y7343D01*
G01X9408Y156D02*
G01X9408Y245D01*
G01X9408Y773D02*
G01X9408Y2046D01*
G01X9408Y5452D02*
G01X9408Y7343D01*
G01X9206Y156D02*
G01X9206Y2060D01*
G01X9206Y5438D02*
G01X9206Y7343D01*
G01X9004Y156D02*
G01X9004Y2133D01*
G01X9004Y5365D02*
G01X9004Y7343D01*
G01X8802Y156D02*
G01X8802Y2299D01*
G01X8802Y3199D02*
G01X8802Y3522D01*
G01X8802Y3976D02*
G01X8802Y4299D01*
G01X8802Y5199D02*
G01X8802Y7343D01*
G01X8600Y156D02*
G01X8600Y7343D01*
G01X8398Y156D02*
G01X8398Y7343D01*
G01X8196Y156D02*
G01X8196Y1776D01*
G01X8196Y5891D02*
G01X8196Y7343D01*
G01X7994Y156D02*
G01X7994Y1730D01*
G01X7994Y5937D02*
G01X7994Y7343D01*
G01X7792Y156D02*
G01X7792Y1730D01*
G01X7792Y5937D02*
G01X7792Y7368D01*
G01X7590Y156D02*
G01X7590Y1730D01*
G01X7590Y5937D02*
G01X7590Y7470D01*
G01X7388Y156D02*
G01X7388Y1842D01*
G01X7388Y5812D02*
G01X7388Y7735D01*
G01X7186Y156D02*
G01X7186Y1816D01*
G01X7186Y5674D02*
G01X7186Y9316D01*
G01X6984Y156D02*
G01X6984Y1655D01*
G01X6984Y5722D02*
G01X6984Y9316D01*
G01X6782Y156D02*
G01X6782Y1472D01*
G01X6782Y5680D02*
G01X6782Y9316D01*
G01X6580Y156D02*
G01X6580Y1271D01*
G01X6580Y5508D02*
G01X6580Y9334D01*
G01X6378Y156D02*
G01X6378Y1302D01*
G01X6378Y1768D02*
G01X6378Y1780D01*
G01X6378Y6738D02*
G01X6378Y9280D01*
G01X6176Y156D02*
G01X6176Y1578D01*
G01X6176Y6940D02*
G01X6176Y9078D01*
G01X5974Y156D02*
G01X5974Y1376D01*
G01X5974Y7142D02*
G01X5974Y8876D01*
G01X5772Y156D02*
G01X5772Y1174D01*
G01X5772Y7344D02*
G01X5772Y8674D01*
G01X10507Y767D02*
G01X10507Y156D01*
G01X10507Y156D02*
G01X10125Y156D01*
G01X10007Y941D02*
G01X10007Y1182D01*
G01X12952Y1842D02*
G01X12952Y2046D01*
G01X12952Y2046D02*
G01X13157Y2046D01*
G01X13713Y3178D02*
G01X14080Y3545D01*
G01X14080Y3545D02*
G01X14080Y3158D01*
G01X14232Y3007D02*
G01X14291Y3007D01*
G01X14276Y2929D02*
G01X14276Y2769D01*
G01X14276Y2769D02*
G01X14153Y2769D01*
G01X14001Y2617D02*
G01X14001Y1967D01*
G01X14153Y1816D02*
G01X14803Y1816D01*
G01X14843Y1821D02*
G01X14843Y468D01*
G01X14531Y156D02*
G01X13232Y156D01*
G01X13234Y184D02*
G01X13234Y834D01*
G01X13083Y986D02*
G01X12433Y986D01*
G01X12281Y834D02*
G01X12281Y184D01*
G01X12284Y156D02*
G01X11991Y156D01*
G01X11991Y156D02*
G01X11991Y767D01*
G01X11840Y918D02*
G01X10659Y918D01*
G01X10250Y339D02*
G01X10507Y339D01*
G01X11991Y339D02*
G01X12281Y339D01*
G01X13234Y339D02*
G01X14815Y339D01*
G01X10281Y541D02*
G01X10507Y541D01*
G01X11991Y541D02*
G01X12281Y541D01*
G01X13234Y541D02*
G01X14843Y541D01*
G01X10220Y743D02*
G01X10507Y743D01*
G01X11991Y743D02*
G01X12281Y743D01*
G01X13234Y743D02*
G01X14843Y743D01*
G01X10007Y945D02*
G01X12330Y945D01*
G01X13186Y945D02*
G01X14843Y945D01*
G01X10007Y1147D02*
G01X10144Y1147D01*
G01X10354Y1147D02*
G01X12144Y1147D01*
G01X12354Y1147D02*
G01X14843Y1147D01*
G01X10750Y1349D02*
G01X10947Y1349D01*
G01X11551Y1349D02*
G01X11748Y1349D01*
G01X12750Y1349D02*
G01X14843Y1349D01*
G01X12889Y1551D02*
G01X14843Y1551D01*
G01X12946Y1753D02*
G01X14843Y1753D01*
G01X12952Y1955D02*
G01X14002Y1955D01*
G01X13535Y2157D02*
G01X14001Y2157D01*
G01X13741Y2359D02*
G01X14001Y2359D01*
G01X13834Y2561D02*
G01X14001Y2561D01*
G01X13859Y2763D02*
G01X14110Y2763D01*
G01X13825Y2965D02*
G01X14279Y2965D01*
G01X13722Y3167D02*
G01X14080Y3167D01*
G01X13904Y3369D02*
G01X14080Y3369D01*
G01X14660Y184D02*
G01X14660Y1816D01*
G01X14458Y156D02*
G01X14458Y1816D01*
G01X14256Y156D02*
G01X14256Y1816D01*
G01X14256Y2769D02*
G01X14256Y3007D01*
G01X14054Y156D02*
G01X14054Y1852D01*
G01X14054Y2733D02*
G01X14054Y3519D01*
G01X13852Y156D02*
G01X13852Y2649D01*
G01X13852Y2849D02*
G01X13852Y3317D01*
G01X13650Y156D02*
G01X13650Y2249D01*
G01X13448Y156D02*
G01X13448Y2110D01*
G01X13246Y156D02*
G01X13246Y2052D01*
G01X13044Y986D02*
G01X13044Y2046D01*
G01X12842Y986D02*
G01X12842Y1465D01*
G01X12640Y986D02*
G01X12640Y1258D01*
G01X12438Y986D02*
G01X12438Y1165D01*
G01X12236Y156D02*
G01X12236Y1139D01*
G01X12034Y156D02*
G01X12034Y1173D01*
G01X11832Y918D02*
G01X11832Y1276D01*
G01X11630Y918D02*
G01X11630Y1423D01*
G01X11428Y918D02*
G01X11428Y1281D01*
G01X11226Y918D02*
G01X11226Y1248D01*
G01X11024Y918D02*
G01X11024Y1301D01*
G01X10822Y918D02*
G01X10822Y1435D01*
G01X10620Y913D02*
G01X10620Y1245D01*
G01X10418Y156D02*
G01X10418Y1159D01*
G01X10216Y156D02*
G01X10216Y268D01*
G01X10216Y750D02*
G01X10216Y1140D01*
G01X10014Y937D02*
G01X10014Y1179D01*
G01X3007Y767D02*
G01X3007Y156D01*
G01X3007Y156D02*
G01X2625Y156D01*
G01X2507Y941D02*
G01X2507Y1182D01*
G01X5452Y1842D02*
G01X5452Y2046D01*
G01X5452Y2046D02*
G01X5657Y2046D01*
G01X6129Y2228D02*
G01X6129Y2100D01*
G01X6129Y2100D02*
G01X5116Y1087D01*
G01X5061Y986D02*
G01X4933Y986D01*
G01X4781Y834D02*
G01X4781Y184D01*
G01X4784Y156D02*
G01X4491Y156D01*
G01X4491Y156D02*
G01X4491Y767D01*
G01X4340Y918D02*
G01X3159Y918D01*
G01X2750Y339D02*
G01X3007Y339D01*
G01X4491Y339D02*
G01X4781Y339D01*
G01X2781Y541D02*
G01X3007Y541D01*
G01X4491Y541D02*
G01X4781Y541D01*
G01X2720Y743D02*
G01X3007Y743D01*
G01X4491Y743D02*
G01X4781Y743D01*
G01X2507Y945D02*
G01X4830Y945D01*
G01X2507Y1147D02*
G01X2644Y1147D01*
G01X2854Y1147D02*
G01X4644Y1147D01*
G01X4854Y1147D02*
G01X5175Y1147D01*
G01X3250Y1349D02*
G01X3447Y1349D01*
G01X4051Y1349D02*
G01X4248Y1349D01*
G01X5250Y1349D02*
G01X5377Y1349D01*
G01X5389Y1551D02*
G01X5579Y1551D01*
G01X5446Y1753D02*
G01X5781Y1753D01*
G01X5452Y1955D02*
G01X5983Y1955D01*
G01X6035Y2157D02*
G01X6129Y2157D01*
G01X5974Y1946D02*
G01X5974Y2122D01*
G01X5772Y1744D02*
G01X5772Y2056D01*
G01X5570Y1542D02*
G01X5570Y2046D01*
G01X5368Y1340D02*
G01X5368Y1509D01*
G01X5166Y1138D02*
G01X5166Y1276D01*
G01X4964Y986D02*
G01X4964Y1173D01*
G01X4762Y156D02*
G01X4762Y1139D01*
G01X4560Y156D02*
G01X4560Y1165D01*
G01X4358Y917D02*
G01X4358Y1258D01*
G01X4156Y918D02*
G01X4156Y1456D01*
G01X3954Y918D02*
G01X3954Y1291D01*
G01X3752Y918D02*
G01X3752Y1248D01*
G01X3550Y918D02*
G01X3550Y1289D01*
G01X3348Y918D02*
G01X3348Y1448D01*
G01X3146Y918D02*
G01X3146Y1262D01*
G01X2944Y156D02*
G01X2944Y1166D01*
G01X2742Y156D02*
G01X2742Y319D01*
G01X2742Y699D02*
G01X2742Y1139D01*
G01X2540Y923D02*
G01X2540Y1171D01*
G01X3452Y2153D02*
G01X3452Y2156D01*
G01X2157Y3452D02*
G01X2153Y3452D01*
G01X2153Y4046D02*
G01X2157Y4046D01*
G01X3422Y5139D02*
G01X3868Y4693D01*
G01X4693Y3868D02*
G01X5087Y3475D01*
G01X5087Y3475D02*
G01X5087Y3404D01*
G01X4047Y2156D02*
G01X4047Y2153D01*
G01X3452Y2157D02*
G01X3457Y2157D01*
G01X4041Y2157D02*
G01X4047Y2157D01*
G01X3422Y2359D02*
G01X4076Y2359D01*
G01X3324Y2561D02*
G01X4175Y2561D01*
G01X3104Y2763D02*
G01X4394Y2763D01*
G01X2825Y2965D02*
G01X3210Y2965D01*
G01X4288Y2965D02*
G01X4673Y2965D01*
G01X2722Y3167D02*
G01X2997Y3167D01*
G01X4502Y3167D02*
G01X4777Y3167D01*
G01X2488Y3369D02*
G01X2877Y3369D01*
G01X4621Y3369D02*
G01X5011Y3369D01*
G01X2218Y3571D02*
G01X2815Y3571D01*
G01X4684Y3571D02*
G01X4991Y3571D01*
G01X2250Y3773D02*
G01X2798Y3773D01*
G01X4700Y3773D02*
G01X4789Y3773D01*
G01X2197Y3975D02*
G01X2825Y3975D01*
G01X2565Y4177D02*
G01X2899Y4177D01*
G01X2754Y4379D02*
G01X3036Y4379D01*
G01X2839Y4581D02*
G01X3287Y4581D01*
G01X3175Y4783D02*
G01X3779Y4783D01*
G01X3355Y4985D02*
G01X3577Y4985D01*
G01X4964Y3342D02*
G01X4964Y3597D01*
G01X4762Y3146D02*
G01X4762Y3799D01*
G01X4560Y2833D02*
G01X4560Y3251D01*
G01X4358Y2740D02*
G01X4358Y3018D01*
G01X4156Y2533D02*
G01X4156Y2889D01*
G01X3954Y2207D02*
G01X3954Y2820D01*
G01X3752Y2250D02*
G01X3752Y2798D01*
G01X3752Y4700D02*
G01X3752Y4809D01*
G01X3550Y2209D02*
G01X3550Y2819D01*
G01X3550Y4679D02*
G01X3550Y5011D01*
G01X3348Y2524D02*
G01X3348Y2886D01*
G01X3348Y4612D02*
G01X3348Y4974D01*
G01X3146Y2736D02*
G01X3146Y3013D01*
G01X3146Y4485D02*
G01X3146Y4762D01*
G01X2944Y2832D02*
G01X2944Y3242D01*
G01X2944Y4256D02*
G01X2944Y4666D01*
G01X2742Y3137D02*
G01X2742Y4361D01*
G01X2540Y3338D02*
G01X2540Y4160D01*
G01X2338Y3428D02*
G01X2338Y4070D01*
G01X10952Y2153D02*
G01X10952Y2156D01*
G01X9657Y3452D02*
G01X9653Y3452D01*
G01X9653Y4046D02*
G01X9657Y4046D01*
G01X10952Y5342D02*
G01X10952Y5345D01*
G01X11547Y5345D02*
G01X11547Y5342D01*
G01X12842Y4046D02*
G01X12845Y4046D01*
G01X12845Y3452D02*
G01X12842Y3452D01*
G01X11547Y2156D02*
G01X11547Y2153D01*
G01X10952Y2157D02*
G01X10957Y2157D01*
G01X11541Y2157D02*
G01X11547Y2157D01*
G01X10922Y2359D02*
G01X11576Y2359D01*
G01X10824Y2561D02*
G01X11675Y2561D01*
G01X10604Y2763D02*
G01X11894Y2763D01*
G01X10325Y2965D02*
G01X10710Y2965D01*
G01X11788Y2965D02*
G01X12173Y2965D01*
G01X10222Y3167D02*
G01X10497Y3167D01*
G01X12002Y3167D02*
G01X12277Y3167D01*
G01X9988Y3369D02*
G01X10377Y3369D01*
G01X12121Y3369D02*
G01X12511Y3369D01*
G01X9718Y3571D02*
G01X10315Y3571D01*
G01X12184Y3571D02*
G01X12780Y3571D01*
G01X9750Y3773D02*
G01X10298Y3773D01*
G01X12200Y3773D02*
G01X12748Y3773D01*
G01X9697Y3975D02*
G01X10325Y3975D01*
G01X12174Y3975D02*
G01X12801Y3975D01*
G01X10065Y4177D02*
G01X10399Y4177D01*
G01X12099Y4177D02*
G01X12434Y4177D01*
G01X10254Y4379D02*
G01X10536Y4379D01*
G01X11963Y4379D02*
G01X12245Y4379D01*
G01X10339Y4581D02*
G01X10787Y4581D01*
G01X11711Y4581D02*
G01X12160Y4581D01*
G01X10675Y4783D02*
G01X11823Y4783D01*
G01X10855Y4985D02*
G01X11644Y4985D01*
G01X10935Y5187D02*
G01X11564Y5187D01*
G01X12842Y3452D02*
G01X12842Y3456D01*
G01X12842Y4042D02*
G01X12842Y4046D01*
G01X12640Y3422D02*
G01X12640Y4076D01*
G01X12438Y3324D02*
G01X12438Y4174D01*
G01X12236Y3106D02*
G01X12236Y4392D01*
G01X12034Y2825D02*
G01X12034Y3211D01*
G01X12034Y4287D02*
G01X12034Y4673D01*
G01X11832Y2722D02*
G01X11832Y2997D01*
G01X11832Y4501D02*
G01X11832Y4776D01*
G01X11630Y2489D02*
G01X11630Y2877D01*
G01X11630Y4621D02*
G01X11630Y5009D01*
G01X11428Y2217D02*
G01X11428Y2814D01*
G01X11428Y4684D02*
G01X11428Y5281D01*
G01X11226Y2250D02*
G01X11226Y2798D01*
G01X11226Y4700D02*
G01X11226Y5248D01*
G01X11024Y2197D02*
G01X11024Y2824D01*
G01X11024Y4674D02*
G01X11024Y5301D01*
G01X10822Y2563D02*
G01X10822Y2899D01*
G01X10822Y4599D02*
G01X10822Y4935D01*
G01X10620Y2753D02*
G01X10620Y3035D01*
G01X10620Y4463D02*
G01X10620Y4745D01*
G01X10418Y2839D02*
G01X10418Y3286D01*
G01X10418Y4212D02*
G01X10418Y4659D01*
G01X10216Y3174D02*
G01X10216Y4324D01*
G01X10014Y3354D02*
G01X10014Y4144D01*
G01X9812Y3434D02*
G01X9812Y4064D01*
G01X6532Y2709D02*
G01X6532Y5077D01*
G01X7386Y5000D02*
G01X7386Y2744D01*
G01X7303Y2769D02*
G01X6653Y2769D01*
G01X6532Y2763D02*
G01X6610Y2763D01*
G01X7345Y2763D02*
G01X7386Y2763D01*
G01X6532Y2965D02*
G01X7386Y2965D01*
G01X6532Y3167D02*
G01X7386Y3167D01*
G01X6532Y3369D02*
G01X7386Y3369D01*
G01X6532Y3571D02*
G01X7386Y3571D01*
G01X6532Y3773D02*
G01X7386Y3773D01*
G01X6532Y3975D02*
G01X7386Y3975D01*
G01X6532Y4177D02*
G01X7386Y4177D01*
G01X6532Y4379D02*
G01X7386Y4379D01*
G01X6532Y4581D02*
G01X7386Y4581D01*
G01X6532Y4783D02*
G01X6862Y4783D01*
G01X7093Y4783D02*
G01X7386Y4783D01*
G01X6532Y4985D02*
G01X6579Y4985D01*
G01X7377Y4985D02*
G01X7386Y4985D01*
G01X7186Y2769D02*
G01X7186Y4817D01*
G01X6984Y2769D02*
G01X6984Y4769D01*
G01X6782Y2769D02*
G01X6782Y4811D01*
G01X6580Y2750D02*
G01X6580Y4982D01*
G01X14843Y3007D02*
G01X14843Y2763D01*
G01X14803Y2769D02*
G01X14679Y2769D01*
G01X14679Y2769D02*
G01X14679Y2845D01*
G01X14679Y2845D02*
G01X14738Y2904D01*
G01X14794Y3007D02*
G01X14843Y3007D01*
G01X14780Y2965D02*
G01X14843Y2965D01*
G01X6129Y3421D02*
G01X6129Y3270D01*
G01X6076Y3369D02*
G01X6129Y3369D01*
G01X13771Y3805D02*
G01X13750Y3784D01*
G01X13771Y4407D02*
G01X13771Y3805D01*
G01X13697Y3975D02*
G01X13771Y3975D01*
G01X13565Y4177D02*
G01X13771Y4177D01*
G01X13754Y4379D02*
G01X13771Y4379D01*
G01X13650Y4050D02*
G01X13650Y4249D01*
G01X5262Y3869D02*
G01X4991Y4140D01*
G01X5342Y4046D02*
G01X5345Y4046D01*
G01X5156Y3975D02*
G01X5301Y3975D01*
G01X5166Y3965D02*
G01X5166Y4069D01*
G01X6129Y4228D02*
G01X6129Y4077D01*
G01X6065Y4177D02*
G01X6129Y4177D01*
G01X4733Y4398D02*
G01X4399Y4733D01*
G01X4550Y4581D02*
G01X4660Y4581D01*
G01X4560Y4571D02*
G01X4560Y4665D01*
G01X14174Y4480D02*
G01X14174Y4657D01*
G01X14174Y4657D02*
G01X14315Y4797D01*
G01X14843Y4939D02*
G01X14843Y4491D01*
G01X14843Y4491D02*
G01X14232Y4491D01*
G01X14174Y4581D02*
G01X14843Y4581D01*
G01X14300Y4783D02*
G01X14362Y4783D01*
G01X14593Y4783D02*
G01X14843Y4783D01*
G01X14660Y4491D02*
G01X14660Y4805D01*
G01X14458Y4491D02*
G01X14458Y4769D01*
G01X14256Y4491D02*
G01X14256Y4739D01*
G01X4140Y4991D02*
G01X3869Y5262D01*
G01X4047Y5345D02*
G01X4047Y5342D01*
G01X3944Y5187D02*
G01X4064Y5187D01*
G01X3954Y5177D02*
G01X3954Y5291D01*
G01X3452Y9653D02*
G01X3452Y9656D01*
G01X2157Y10952D02*
G01X2153Y10952D01*
G01X2153Y11546D02*
G01X2157Y11546D01*
G01X3422Y12639D02*
G01X3868Y12193D01*
G01X4693Y11368D02*
G01X5087Y10975D01*
G01X5087Y10975D02*
G01X5087Y10904D01*
G01X4047Y9656D02*
G01X4047Y9653D01*
G01X3429Y9833D02*
G01X4069Y9833D01*
G01X3341Y10035D02*
G01X4157Y10035D01*
G01X3146Y10237D02*
G01X4353Y10237D01*
G01X2833Y10439D02*
G01X3250Y10439D01*
G01X4248Y10439D02*
G01X4665Y10439D01*
G01X2740Y10641D02*
G01X3018Y10641D01*
G01X4481Y10641D02*
G01X4758Y10641D01*
G01X2533Y10843D02*
G01X2889Y10843D01*
G01X4610Y10843D02*
G01X4966Y10843D01*
G01X2207Y11045D02*
G01X2820Y11045D01*
G01X4679Y11045D02*
G01X5017Y11045D01*
G01X2251Y11247D02*
G01X2798Y11247D01*
G01X4701Y11247D02*
G01X4815Y11247D01*
G01X2209Y11449D02*
G01X2819Y11449D01*
G01X2525Y11651D02*
G01X2887Y11651D01*
G01X2737Y11853D02*
G01X3014Y11853D01*
G01X2832Y12055D02*
G01X3243Y12055D01*
G01X3139Y12257D02*
G01X3805Y12257D01*
G01X3339Y12459D02*
G01X3603Y12459D01*
G01X4964Y10842D02*
G01X4964Y11097D01*
G01X4762Y10646D02*
G01X4762Y11299D01*
G01X4560Y10333D02*
G01X4560Y10751D01*
G01X4358Y10240D02*
G01X4358Y10518D01*
G01X4156Y10033D02*
G01X4156Y10389D01*
G01X3954Y9707D02*
G01X3954Y10320D01*
G01X3752Y9750D02*
G01X3752Y10298D01*
G01X3752Y12200D02*
G01X3752Y12309D01*
G01X3550Y9709D02*
G01X3550Y10319D01*
G01X3550Y12179D02*
G01X3550Y12511D01*
G01X3348Y10024D02*
G01X3348Y10386D01*
G01X3348Y12112D02*
G01X3348Y12474D01*
G01X3146Y10236D02*
G01X3146Y10513D01*
G01X3146Y11985D02*
G01X3146Y12262D01*
G01X2944Y10332D02*
G01X2944Y10742D01*
G01X2944Y11756D02*
G01X2944Y12166D01*
G01X2742Y10637D02*
G01X2742Y11861D01*
G01X2540Y10838D02*
G01X2540Y11660D01*
G01X2338Y10928D02*
G01X2338Y11570D01*
G01X6532Y10209D02*
G01X6532Y12577D01*
G01X7343Y12439D02*
G01X7343Y11991D01*
G01X7343Y11991D02*
G01X6732Y11991D01*
G01X6580Y11840D02*
G01X6580Y10658D01*
G01X6732Y10507D02*
G01X6791Y10507D01*
G01X6776Y10429D02*
G01X6776Y10269D01*
G01X6776Y10269D02*
G01X6653Y10269D01*
G01X6532Y10237D02*
G01X6559Y10237D01*
G01X6532Y10439D02*
G01X6776Y10439D01*
G01X6532Y10641D02*
G01X6581Y10641D01*
G01X6532Y10843D02*
G01X6580Y10843D01*
G01X6532Y11045D02*
G01X6580Y11045D01*
G01X6532Y11247D02*
G01X6580Y11247D01*
G01X6532Y11449D02*
G01X6580Y11449D01*
G01X6532Y11651D02*
G01X6580Y11651D01*
G01X6532Y11853D02*
G01X6581Y11853D01*
G01X6532Y12055D02*
G01X7343Y12055D01*
G01X6532Y12257D02*
G01X7343Y12257D01*
G01X6532Y12459D02*
G01X6597Y12459D01*
G01X7186Y11991D02*
G01X7186Y12317D01*
G01X6984Y11991D02*
G01X6984Y12269D01*
G01X6782Y10480D02*
G01X6782Y10507D01*
G01X6782Y11991D02*
G01X6782Y12311D01*
G01X6580Y10250D02*
G01X6580Y10651D01*
G01X6580Y11847D02*
G01X6580Y12482D01*
G01X7343Y10507D02*
G01X7343Y10263D01*
G01X7303Y10269D02*
G01X7179Y10269D01*
G01X7179Y10269D02*
G01X7179Y10345D01*
G01X7179Y10345D02*
G01X7238Y10404D01*
G01X7294Y10507D02*
G01X7343Y10507D01*
G01X7266Y10439D02*
G01X7343Y10439D01*
G01X7186Y10269D02*
G01X7186Y10352D01*
G01X6129Y10921D02*
G01X6129Y10770D01*
G01X6043Y10843D02*
G01X6129Y10843D01*
G01X5262Y11369D02*
G01X4991Y11640D01*
G01X5342Y11546D02*
G01X5345Y11546D01*
G01X5182Y11449D02*
G01X5289Y11449D01*
G01X5166Y11465D02*
G01X5166Y11569D01*
G01X6129Y11728D02*
G01X6129Y11577D01*
G01X6049Y11651D02*
G01X6129Y11651D01*
G01X4733Y11898D02*
G01X4399Y12233D01*
G01X4576Y12055D02*
G01X4666Y12055D01*
G01X4560Y12071D02*
G01X4560Y12165D01*
G01X4140Y12491D02*
G01X3869Y12762D01*
G01X4047Y12845D02*
G01X4047Y12842D01*
G01X3970Y12661D02*
G01X4070Y12661D01*
G01X3954Y12677D02*
G01X3954Y12791D01*
G01X6532Y12913D02*
G01X6532Y14002D01*
G01X6473Y14144D02*
G01X5584Y15033D01*
G01X5735Y15185D02*
G01X5735Y15835D01*
G01X5584Y15986D02*
G01X6469Y16872D01*
G01X6653Y16816D02*
G01X7303Y16816D01*
G01X7343Y16822D02*
G01X7343Y13051D01*
G01X6532Y13065D02*
G01X6624Y13065D01*
G01X7331Y13065D02*
G01X7343Y13065D01*
G01X6532Y13267D02*
G01X7343Y13267D01*
G01X6532Y13469D02*
G01X7343Y13469D01*
G01X6532Y13671D02*
G01X7343Y13671D01*
G01X6532Y13873D02*
G01X7343Y13873D01*
G01X6518Y14075D02*
G01X7343Y14075D01*
G01X6340Y14277D02*
G01X7343Y14277D01*
G01X6138Y14479D02*
G01X7343Y14479D01*
G01X5936Y14681D02*
G01X7343Y14681D01*
G01X5734Y14883D02*
G01X7343Y14883D01*
G01X5697Y15085D02*
G01X7343Y15085D01*
G01X5735Y15287D02*
G01X7343Y15287D01*
G01X5735Y15489D02*
G01X7343Y15489D01*
G01X5735Y15691D02*
G01X7343Y15691D01*
G01X5723Y15893D02*
G01X7343Y15893D01*
G01X5693Y16095D02*
G01X7343Y16095D01*
G01X5895Y16297D02*
G01X7343Y16297D01*
G01X6096Y16499D02*
G01X7343Y16499D01*
G01X6298Y16701D02*
G01X7343Y16701D01*
G01X6494Y16903D02*
G01X6516Y16903D01*
G01X7186Y13174D02*
G01X7186Y16816D01*
G01X6984Y13222D02*
G01X6984Y16816D01*
G01X6782Y13180D02*
G01X6782Y16816D01*
G01X6580Y13008D02*
G01X6580Y16835D01*
G01X6378Y14239D02*
G01X6378Y16781D01*
G01X6176Y14441D02*
G01X6176Y16579D01*
G01X5974Y14643D02*
G01X5974Y16377D01*
G01X5772Y14845D02*
G01X5772Y16174D01*
G01X3452Y17153D02*
G01X3452Y17157D01*
G01X2157Y18452D02*
G01X2153Y18452D01*
G01X2153Y19047D02*
G01X2157Y19047D01*
G01X3452Y20342D02*
G01X3452Y20346D01*
G01X4047Y20346D02*
G01X4047Y20342D01*
G01X5342Y19047D02*
G01X5346Y19047D01*
G01X5346Y18452D02*
G01X5342Y18452D01*
G01X4047Y17157D02*
G01X4047Y17153D01*
G01X3436Y17307D02*
G01X4063Y17307D01*
G01X3358Y17509D02*
G01X4141Y17509D01*
G01X3182Y17711D02*
G01X4317Y17711D01*
G01X2840Y17913D02*
G01X3297Y17913D01*
G01X4203Y17913D02*
G01X4659Y17913D01*
G01X2757Y18115D02*
G01X3041Y18115D01*
G01X4458Y18115D02*
G01X4742Y18115D01*
G01X2572Y18317D02*
G01X2902Y18317D01*
G01X4597Y18317D02*
G01X4927Y18317D01*
G01X2195Y18519D02*
G01X2826Y18519D01*
G01X4673Y18519D02*
G01X5304Y18519D01*
G01X2250Y18721D02*
G01X2798Y18721D01*
G01X4701Y18721D02*
G01X5249Y18721D01*
G01X2220Y18923D02*
G01X2814Y18923D01*
G01X4685Y18923D02*
G01X5279Y18923D01*
G01X2479Y19125D02*
G01X2875Y19125D01*
G01X4624Y19125D02*
G01X5020Y19125D01*
G01X2718Y19327D02*
G01X2993Y19327D01*
G01X4506Y19327D02*
G01X4781Y19327D01*
G01X2824Y19529D02*
G01X3204Y19529D01*
G01X4296Y19529D02*
G01X4675Y19529D01*
G01X3096Y19731D02*
G01X4403Y19731D01*
G01X3321Y19933D02*
G01X4178Y19933D01*
G01X3421Y20135D02*
G01X4078Y20135D01*
G01X3452Y20337D02*
G01X3465Y20337D01*
G01X4034Y20337D02*
G01X4047Y20337D01*
G01X5166Y18430D02*
G01X5166Y19069D01*
G01X4964Y18342D02*
G01X4964Y19157D01*
G01X4762Y18146D02*
G01X4762Y19353D01*
G01X4560Y17834D02*
G01X4560Y18251D01*
G01X4560Y19248D02*
G01X4560Y19665D01*
G01X4358Y17741D02*
G01X4358Y18018D01*
G01X4358Y19481D02*
G01X4358Y19758D01*
G01X4156Y17533D02*
G01X4156Y17889D01*
G01X4156Y19610D02*
G01X4156Y19966D01*
G01X3954Y17207D02*
G01X3954Y17820D01*
G01X3954Y19679D02*
G01X3954Y20292D01*
G01X3752Y17251D02*
G01X3752Y17798D01*
G01X3752Y19701D02*
G01X3752Y20248D01*
G01X3550Y17210D02*
G01X3550Y17819D01*
G01X3550Y19680D02*
G01X3550Y20289D01*
G01X3348Y17525D02*
G01X3348Y17887D01*
G01X3348Y19612D02*
G01X3348Y19974D01*
G01X3146Y17737D02*
G01X3146Y18014D01*
G01X3146Y19485D02*
G01X3146Y19762D01*
G01X2944Y17832D02*
G01X2944Y18243D01*
G01X2944Y19256D02*
G01X2944Y19667D01*
G01X2742Y18138D02*
G01X2742Y19361D01*
G01X2540Y18338D02*
G01X2540Y19161D01*
G01X2338Y18428D02*
G01X2338Y19071D01*
G01X6528Y17703D02*
G01X6528Y20089D01*
G01X7343Y19939D02*
G01X7343Y19492D01*
G01X7343Y19492D02*
G01X6732Y19492D01*
G01X6580Y19340D02*
G01X6580Y18159D01*
G01X6732Y18007D02*
G01X6792Y18007D01*
G01X6777Y17930D02*
G01X6777Y17769D01*
G01X6777Y17769D02*
G01X6653Y17769D01*
G01X6528Y17711D02*
G01X6533Y17711D01*
G01X6528Y17913D02*
G01X6777Y17913D01*
G01X6528Y18115D02*
G01X6587Y18115D01*
G01X6528Y18317D02*
G01X6580Y18317D01*
G01X6528Y18519D02*
G01X6580Y18519D01*
G01X6528Y18721D02*
G01X6580Y18721D01*
G01X6528Y18923D02*
G01X6580Y18923D01*
G01X6528Y19125D02*
G01X6580Y19125D01*
G01X6528Y19327D02*
G01X6580Y19327D01*
G01X6528Y19529D02*
G01X7343Y19529D01*
G01X6528Y19731D02*
G01X7343Y19731D01*
G01X6528Y19933D02*
G01X6619Y19933D01*
G01X7337Y19933D02*
G01X7343Y19933D01*
G01X7186Y19492D02*
G01X7186Y19817D01*
G01X6984Y19492D02*
G01X6984Y19769D01*
G01X6782Y17977D02*
G01X6782Y18007D01*
G01X6782Y19492D02*
G01X6782Y19811D01*
G01X6580Y17751D02*
G01X6580Y19983D01*
G01X7343Y18007D02*
G01X7343Y17764D01*
G01X7303Y17769D02*
G01X7180Y17769D01*
G01X7180Y17769D02*
G01X7180Y17847D01*
G01X7180Y17847D02*
G01X7239Y17906D01*
G01X7294Y18007D02*
G01X7343Y18007D01*
G01X7246Y17913D02*
G01X7343Y17913D01*
G01X7186Y17769D02*
G01X7186Y17853D01*
G01X6125Y18417D02*
G01X6125Y18274D01*
G01X6072Y18317D02*
G01X6125Y18317D01*
G01X6125Y19225D02*
G01X6125Y19082D01*
G01X6082Y19125D02*
G01X6125Y19125D01*
G01X6469Y20362D02*
G01X4594Y22238D01*
G01X4492Y22293D02*
G01X4492Y22343D01*
G01X4492Y22343D02*
G01X7031Y22343D01*
G01X7343Y22031D02*
G01X7343Y20552D01*
G01X6490Y20337D02*
G01X6510Y20337D01*
G01X6293Y20539D02*
G01X6602Y20539D01*
G01X6091Y20741D02*
G01X7343Y20741D01*
G01X5889Y20943D02*
G01X7343Y20943D01*
G01X5687Y21145D02*
G01X7343Y21145D01*
G01X5485Y21347D02*
G01X7343Y21347D01*
G01X5283Y21549D02*
G01X7343Y21549D01*
G01X5081Y21751D02*
G01X7343Y21751D01*
G01X4879Y21953D02*
G01X7343Y21953D01*
G01X4677Y22155D02*
G01X7317Y22155D01*
G01X7186Y20674D02*
G01X7186Y22302D01*
G01X6984Y20722D02*
G01X6984Y22343D01*
G01X6782Y20680D02*
G01X6782Y22343D01*
G01X6580Y20508D02*
G01X6580Y22343D01*
G01X6378Y20453D02*
G01X6378Y22343D01*
G01X6176Y20655D02*
G01X6176Y22343D01*
G01X5974Y20857D02*
G01X5974Y22343D01*
G01X5772Y21059D02*
G01X5772Y22343D01*
G01X5570Y21261D02*
G01X5570Y22343D01*
G01X5368Y21464D02*
G01X5368Y22343D01*
G01X5166Y21666D02*
G01X5166Y22343D01*
G01X4964Y21868D02*
G01X4964Y22343D01*
G01X4762Y22070D02*
G01X4762Y22343D01*
G01X4560Y22265D02*
G01X4560Y22343D01*
G01X5657Y20452D02*
G01X5452Y20452D01*
G01X5452Y20452D02*
G01X5452Y20657D01*
G01X5430Y20831D02*
G01X5831Y20430D01*
G01X5452Y20539D02*
G01X5723Y20539D01*
G01X5447Y20741D02*
G01X5521Y20741D01*
G01X5772Y20443D02*
G01X5772Y20489D01*
G01X5570Y20452D02*
G01X5570Y20691D01*
G01X156Y468D02*
G01X156Y3007D01*
G01X156Y3007D02*
G01X767Y3007D01*
G01X918Y3158D02*
G01X918Y4340D01*
G01X767Y4491D02*
G01X156Y4491D01*
G01X156Y4491D02*
G01X156Y10507D01*
G01X156Y10507D02*
G01X767Y10507D01*
G01X918Y10658D02*
G01X918Y11840D01*
G01X767Y11991D02*
G01X156Y11991D01*
G01X156Y11991D02*
G01X156Y18007D01*
G01X156Y18007D02*
G01X767Y18007D01*
G01X919Y18159D02*
G01X919Y19340D01*
G01X767Y19492D02*
G01X156Y19492D01*
G01X156Y19492D02*
G01X156Y22031D01*
G01X468Y22343D02*
G01X3007Y22343D01*
G01X3007Y22343D02*
G01X3007Y21732D01*
G01X3159Y21580D02*
G01X4340Y21580D01*
G01X4492Y21732D02*
G01X4492Y21771D01*
G01X4492Y21771D02*
G01X4924Y21338D01*
G01X2047Y20657D02*
G01X2047Y20452D01*
G01X2047Y20452D02*
G01X1842Y20452D01*
G01X1842Y17047D02*
G01X2047Y17047D01*
G01X2047Y17047D02*
G01X2047Y16842D01*
G01X2548Y16169D02*
G01X2548Y16037D01*
G01X2548Y16037D02*
G01X2468Y15957D01*
G01X2753Y15673D02*
G01X2892Y15812D01*
G01X2951Y15954D02*
G01X2951Y16169D01*
G01X5452Y16842D02*
G01X5452Y17047D01*
G01X5452Y17047D02*
G01X5657Y17047D01*
G01X6125Y17225D02*
G01X6125Y17097D01*
G01X6125Y17097D02*
G01X5116Y16087D01*
G01X5061Y15986D02*
G01X4933Y15986D01*
G01X4782Y15835D02*
G01X4782Y15185D01*
G01X4933Y15033D02*
G01X5061Y15033D01*
G01X5116Y14932D02*
G01X6129Y13919D01*
G01X6129Y13919D02*
G01X6129Y12770D01*
G01X5657Y12952D02*
G01X5452Y12952D01*
G01X5452Y12952D02*
G01X5452Y13156D01*
G01X2047Y13156D02*
G01X2047Y12952D01*
G01X2047Y12952D02*
G01X1842Y12952D01*
G01X1842Y9546D02*
G01X2047Y9546D01*
G01X2047Y9546D02*
G01X2047Y9342D01*
G01X2548Y8668D02*
G01X2548Y8536D01*
G01X2548Y8536D02*
G01X2468Y8457D01*
G01X2753Y8172D02*
G01X2892Y8311D01*
G01X2951Y8453D02*
G01X2951Y8668D01*
G01X5452Y9342D02*
G01X5452Y9546D01*
G01X5452Y9546D02*
G01X5657Y9546D01*
G01X6129Y9728D02*
G01X6129Y9600D01*
G01X6129Y9600D02*
G01X5116Y8587D01*
G01X5061Y8486D02*
G01X4933Y8486D01*
G01X4781Y8334D02*
G01X4781Y7684D01*
G01X4933Y7533D02*
G01X5061Y7533D01*
G01X5116Y7431D02*
G01X6129Y6418D01*
G01X6129Y6418D02*
G01X6129Y5270D01*
G01X5657Y5452D02*
G01X5452Y5452D01*
G01X5452Y5452D02*
G01X5452Y5656D01*
G01X2047Y5656D02*
G01X2047Y5452D01*
G01X2047Y5452D02*
G01X1842Y5452D01*
G01X1842Y2046D02*
G01X2047Y2046D01*
G01X2047Y2046D02*
G01X2047Y1842D01*
G01X2104Y1555D02*
G01X2104Y941D01*
G01X1985Y156D02*
G01X468Y156D01*
G01X184Y339D02*
G01X1860Y339D01*
G01X156Y541D02*
G01X1830Y541D01*
G01X156Y743D02*
G01X1890Y743D01*
G01X156Y945D02*
G01X2104Y945D01*
G01X156Y1147D02*
G01X2104Y1147D01*
G01X156Y1349D02*
G01X2104Y1349D01*
G01X156Y1551D02*
G01X2104Y1551D01*
G01X156Y1753D02*
G01X2052Y1753D01*
G01X156Y1955D02*
G01X2047Y1955D01*
G01X156Y2157D02*
G01X1464Y2157D01*
G01X156Y2359D02*
G01X1257Y2359D01*
G01X156Y2561D02*
G01X1165Y2561D01*
G01X156Y2763D02*
G01X1139Y2763D01*
G01X156Y2965D02*
G01X1173Y2965D01*
G01X918Y3167D02*
G01X1277Y3167D01*
G01X918Y3369D02*
G01X1422Y3369D01*
G01X918Y3571D02*
G01X1280Y3571D01*
G01X918Y3773D02*
G01X1248Y3773D01*
G01X918Y3975D02*
G01X1301Y3975D01*
G01X918Y4177D02*
G01X1434Y4177D01*
G01X913Y4379D02*
G01X1245Y4379D01*
G01X156Y4581D02*
G01X1160Y4581D01*
G01X156Y4783D02*
G01X1140Y4783D01*
G01X156Y4985D02*
G01X1180Y4985D01*
G01X156Y5187D02*
G01X1292Y5187D01*
G01X156Y5389D02*
G01X1551Y5389D01*
G01X5947Y5389D02*
G01X6129Y5389D01*
G01X156Y5591D02*
G01X2047Y5591D01*
G01X5452Y5591D02*
G01X6129Y5591D01*
G01X156Y5793D02*
G01X2060Y5793D01*
G01X5439Y5793D02*
G01X6129Y5793D01*
G01X156Y5995D02*
G01X2133Y5995D01*
G01X5365Y5995D02*
G01X6129Y5995D01*
G01X156Y6197D02*
G01X2300Y6197D01*
G01X3199Y6197D02*
G01X3523Y6197D01*
G01X3975Y6197D02*
G01X4300Y6197D01*
G01X5199Y6197D02*
G01X6129Y6197D01*
G01X156Y6399D02*
G01X6129Y6399D01*
G01X156Y6601D02*
G01X5946Y6601D01*
G01X156Y6803D02*
G01X5744Y6803D01*
G01X156Y7005D02*
G01X5542Y7005D01*
G01X156Y7207D02*
G01X5340Y7207D01*
G01X156Y7409D02*
G01X5138Y7409D01*
G01X156Y7611D02*
G01X2044Y7611D01*
G01X2567Y7611D02*
G01X4800Y7611D01*
G01X156Y7813D02*
G01X1871Y7813D01*
G01X2739Y7813D02*
G01X4781Y7813D01*
G01X156Y8015D02*
G01X1829Y8015D01*
G01X2782Y8015D02*
G01X4781Y8015D01*
G01X156Y8217D02*
G01X1876Y8217D01*
G01X2798Y8217D02*
G01X4781Y8217D01*
G01X156Y8419D02*
G01X2062Y8419D01*
G01X2948Y8419D02*
G01X4807Y8419D01*
G01X156Y8621D02*
G01X2548Y8621D01*
G01X2951Y8621D02*
G01X5149Y8621D01*
G01X156Y8823D02*
G01X2275Y8823D01*
G01X3223Y8823D02*
G01X3485Y8823D01*
G01X4013Y8823D02*
G01X4275Y8823D01*
G01X5223Y8823D02*
G01X5351Y8823D01*
G01X156Y9025D02*
G01X2122Y9025D01*
G01X5376Y9025D02*
G01X5553Y9025D01*
G01X156Y9227D02*
G01X2056Y9227D01*
G01X5442Y9227D02*
G01X5755Y9227D01*
G01X156Y9429D02*
G01X2047Y9429D01*
G01X5452Y9429D02*
G01X5957Y9429D01*
G01X156Y9631D02*
G01X1508Y9631D01*
G01X5991Y9631D02*
G01X6129Y9631D01*
G01X156Y9833D02*
G01X1276Y9833D01*
G01X156Y10035D02*
G01X1173Y10035D01*
G01X156Y10237D02*
G01X1139Y10237D01*
G01X156Y10439D02*
G01X1165Y10439D01*
G01X917Y10641D02*
G01X1258Y10641D01*
G01X918Y10843D02*
G01X1455Y10843D01*
G01X918Y11045D02*
G01X1291Y11045D01*
G01X918Y11247D02*
G01X1248Y11247D01*
G01X918Y11449D02*
G01X1289Y11449D01*
G01X918Y11651D02*
G01X1449Y11651D01*
G01X918Y11853D02*
G01X1261Y11853D01*
G01X156Y12055D02*
G01X1166Y12055D01*
G01X156Y12257D02*
G01X1139Y12257D01*
G01X156Y12459D02*
G01X1171Y12459D01*
G01X156Y12661D02*
G01X1272Y12661D01*
G01X156Y12863D02*
G01X1500Y12863D01*
G01X5999Y12863D02*
G01X6129Y12863D01*
G01X156Y13065D02*
G01X2047Y13065D01*
G01X5452Y13065D02*
G01X6129Y13065D01*
G01X156Y13267D02*
G01X2055Y13267D01*
G01X5443Y13267D02*
G01X6129Y13267D01*
G01X156Y13469D02*
G01X2120Y13469D01*
G01X5379Y13469D02*
G01X6129Y13469D01*
G01X156Y13671D02*
G01X2270Y13671D01*
G01X3228Y13671D02*
G01X3478Y13671D01*
G01X4021Y13671D02*
G01X4270Y13671D01*
G01X5228Y13671D02*
G01X6129Y13671D01*
G01X156Y13873D02*
G01X6129Y13873D01*
G01X156Y14075D02*
G01X5973Y14075D01*
G01X156Y14277D02*
G01X5771Y14277D01*
G01X156Y14479D02*
G01X5569Y14479D01*
G01X156Y14681D02*
G01X5367Y14681D01*
G01X156Y14883D02*
G01X5165Y14883D01*
G01X156Y15085D02*
G01X2089Y15085D01*
G01X2521Y15085D02*
G01X4819Y15085D01*
G01X156Y15287D02*
G01X1884Y15287D01*
G01X2727Y15287D02*
G01X4782Y15287D01*
G01X156Y15489D02*
G01X1829Y15489D01*
G01X2781Y15489D02*
G01X4782Y15489D01*
G01X156Y15691D02*
G01X1865Y15691D01*
G01X2771Y15691D02*
G01X4782Y15691D01*
G01X156Y15893D02*
G01X2022Y15893D01*
G01X2941Y15893D02*
G01X4793Y15893D01*
G01X156Y16095D02*
G01X2548Y16095D01*
G01X2951Y16095D02*
G01X5123Y16095D01*
G01X156Y16297D02*
G01X2306Y16297D01*
G01X3193Y16297D02*
G01X3534Y16297D01*
G01X3965Y16297D02*
G01X4306Y16297D01*
G01X5193Y16297D02*
G01X5325Y16297D01*
G01X156Y16499D02*
G01X2136Y16499D01*
G01X5363Y16499D02*
G01X5527Y16499D01*
G01X156Y16701D02*
G01X2061Y16701D01*
G01X5438Y16701D02*
G01X5728Y16701D01*
G01X156Y16903D02*
G01X2047Y16903D01*
G01X5452Y16903D02*
G01X5930Y16903D01*
G01X156Y17105D02*
G01X1563Y17105D01*
G01X5936Y17105D02*
G01X6125Y17105D01*
G01X156Y17307D02*
G01X1296Y17307D01*
G01X156Y17509D02*
G01X1182Y17509D01*
G01X156Y17711D02*
G01X1140Y17711D01*
G01X156Y17913D02*
G01X1159Y17913D01*
G01X912Y18115D02*
G01X1242Y18115D01*
G01X919Y18317D02*
G01X1427Y18317D01*
G01X919Y18519D02*
G01X1304Y18519D01*
G01X919Y18721D02*
G01X1249Y18721D01*
G01X919Y18923D02*
G01X1279Y18923D01*
G01X919Y19125D02*
G01X1417Y19125D01*
G01X919Y19327D02*
G01X1281Y19327D01*
G01X156Y19529D02*
G01X1175Y19529D01*
G01X156Y19731D02*
G01X1140Y19731D01*
G01X156Y19933D02*
G01X1164Y19933D01*
G01X156Y20135D02*
G01X1254Y20135D01*
G01X156Y20337D02*
G01X1456Y20337D01*
G01X156Y20539D02*
G01X2047Y20539D01*
G01X156Y20741D02*
G01X2052Y20741D01*
G01X156Y20943D02*
G01X2108Y20943D01*
G01X156Y21145D02*
G01X2244Y21145D01*
G01X3255Y21145D02*
G01X3441Y21145D01*
G01X4058Y21145D02*
G01X4244Y21145D01*
G01X156Y21347D02*
G01X2615Y21347D01*
G01X2884Y21347D02*
G01X4615Y21347D01*
G01X4884Y21347D02*
G01X4915Y21347D01*
G01X156Y21549D02*
G01X4713Y21549D01*
G01X156Y21751D02*
G01X3007Y21751D01*
G01X4492Y21751D02*
G01X4511Y21751D01*
G01X156Y21953D02*
G01X3007Y21953D01*
G01X182Y22155D02*
G01X3007Y22155D01*
G01X5974Y5376D02*
G01X5974Y6572D01*
G01X5974Y9446D02*
G01X5974Y9622D01*
G01X5974Y12876D02*
G01X5974Y14073D01*
G01X5974Y16947D02*
G01X5974Y17122D01*
G01X5772Y5442D02*
G01X5772Y6774D01*
G01X5772Y9244D02*
G01X5772Y9556D01*
G01X5772Y12942D02*
G01X5772Y14275D01*
G01X5772Y16745D02*
G01X5772Y17056D01*
G01X5570Y5452D02*
G01X5570Y6976D01*
G01X5570Y9042D02*
G01X5570Y9546D01*
G01X5570Y12952D02*
G01X5570Y14477D01*
G01X5570Y16542D02*
G01X5570Y17047D01*
G01X5368Y5989D02*
G01X5368Y7178D01*
G01X5368Y8840D02*
G01X5368Y9009D01*
G01X5368Y13489D02*
G01X5368Y14679D01*
G01X5368Y16340D02*
G01X5368Y16509D01*
G01X5166Y6222D02*
G01X5166Y7380D01*
G01X5166Y8638D02*
G01X5166Y8776D01*
G01X5166Y13722D02*
G01X5166Y14881D01*
G01X5166Y16138D02*
G01X5166Y16276D01*
G01X4964Y6325D02*
G01X4964Y7533D01*
G01X4964Y8486D02*
G01X4964Y8673D01*
G01X4964Y13825D02*
G01X4964Y15033D01*
G01X4964Y15986D02*
G01X4964Y16173D01*
G01X4762Y6359D02*
G01X4762Y8639D01*
G01X4762Y13859D02*
G01X4762Y16139D01*
G01X4762Y21360D02*
G01X4762Y21500D01*
G01X4560Y6333D02*
G01X4560Y8665D01*
G01X4560Y13833D02*
G01X4560Y16165D01*
G01X4560Y21334D02*
G01X4560Y21702D01*
G01X4358Y6240D02*
G01X4358Y8758D01*
G01X4358Y13740D02*
G01X4358Y16258D01*
G01X4358Y21241D02*
G01X4358Y21581D01*
G01X4156Y6042D02*
G01X4156Y8956D01*
G01X4156Y13542D02*
G01X4156Y16456D01*
G01X4156Y21043D02*
G01X4156Y21580D01*
G01X3954Y6207D02*
G01X3954Y8791D01*
G01X3954Y13707D02*
G01X3954Y16292D01*
G01X3954Y21207D02*
G01X3954Y21580D01*
G01X3752Y6250D02*
G01X3752Y8748D01*
G01X3752Y13750D02*
G01X3752Y16248D01*
G01X3752Y21251D02*
G01X3752Y21580D01*
G01X3550Y6209D02*
G01X3550Y8789D01*
G01X3550Y13709D02*
G01X3550Y16289D01*
G01X3550Y21210D02*
G01X3550Y21580D01*
G01X3348Y6050D02*
G01X3348Y8948D01*
G01X3348Y13550D02*
G01X3348Y16449D01*
G01X3348Y21050D02*
G01X3348Y21580D01*
G01X3146Y6236D02*
G01X3146Y8762D01*
G01X3146Y13736D02*
G01X3146Y16262D01*
G01X3146Y21237D02*
G01X3146Y21581D01*
G01X2944Y6332D02*
G01X2944Y8402D01*
G01X2944Y13832D02*
G01X2944Y15903D01*
G01X2944Y21332D02*
G01X2944Y22343D01*
G01X2742Y6359D02*
G01X2742Y7819D01*
G01X2742Y13859D02*
G01X2742Y15319D01*
G01X2742Y21360D02*
G01X2742Y22343D01*
G01X2540Y6327D02*
G01X2540Y7595D01*
G01X2540Y8529D02*
G01X2540Y8671D01*
G01X2540Y13827D02*
G01X2540Y15095D01*
G01X2540Y16030D02*
G01X2540Y16171D01*
G01X2540Y21328D02*
G01X2540Y22343D01*
G01X2338Y6226D02*
G01X2338Y7534D01*
G01X2338Y8484D02*
G01X2338Y8772D01*
G01X2338Y13726D02*
G01X2338Y15034D01*
G01X2338Y15985D02*
G01X2338Y16272D01*
G01X2338Y21227D02*
G01X2338Y22343D01*
G01X2136Y6000D02*
G01X2136Y7563D01*
G01X2136Y8455D02*
G01X2136Y8998D01*
G01X2136Y13500D02*
G01X2136Y15064D01*
G01X2136Y15955D02*
G01X2136Y16499D01*
G01X2136Y21000D02*
G01X2136Y22343D01*
G01X1934Y156D02*
G01X1934Y210D01*
G01X1934Y808D02*
G01X1934Y2046D01*
G01X1934Y5452D02*
G01X1934Y7710D01*
G01X1934Y8308D02*
G01X1934Y9546D01*
G01X1934Y12952D02*
G01X1934Y15211D01*
G01X1934Y15808D02*
G01X1934Y17047D01*
G01X1934Y20452D02*
G01X1934Y22343D01*
G01X1732Y156D02*
G01X1732Y2055D01*
G01X1732Y5443D02*
G01X1732Y9555D01*
G01X1732Y12943D02*
G01X1732Y17055D01*
G01X1732Y20444D02*
G01X1732Y22343D01*
G01X1530Y156D02*
G01X1530Y2119D01*
G01X1530Y5379D02*
G01X1530Y9619D01*
G01X1530Y12879D02*
G01X1530Y17120D01*
G01X1530Y20379D02*
G01X1530Y22343D01*
G01X1328Y156D02*
G01X1328Y2269D01*
G01X1328Y3229D02*
G01X1328Y3476D01*
G01X1328Y4022D02*
G01X1328Y4269D01*
G01X1328Y5229D02*
G01X1328Y9769D01*
G01X1328Y10729D02*
G01X1328Y10976D01*
G01X1328Y11522D02*
G01X1328Y11769D01*
G01X1328Y12729D02*
G01X1328Y17270D01*
G01X1328Y18229D02*
G01X1328Y18477D01*
G01X1328Y19022D02*
G01X1328Y19270D01*
G01X1328Y20229D02*
G01X1328Y22343D01*
G01X1126Y156D02*
G01X1126Y22343D01*
G01X924Y156D02*
G01X924Y22343D01*
G01X722Y156D02*
G01X722Y3007D01*
G01X722Y4491D02*
G01X722Y10507D01*
G01X722Y11991D02*
G01X722Y18007D01*
G01X722Y19492D02*
G01X722Y22343D01*
G01X520Y156D02*
G01X520Y3007D01*
G01X520Y4491D02*
G01X520Y10507D01*
G01X520Y11991D02*
G01X520Y18007D01*
G01X520Y19492D02*
G01X520Y22343D01*
G01X318Y194D02*
G01X318Y3007D01*
G01X318Y4491D02*
G01X318Y10507D01*
G01X318Y11991D02*
G01X318Y18007D01*
G01X318Y19492D02*
G01X318Y22305D01*
G01X9485Y156D02*
G01X5732Y156D01*
G01X5734Y184D02*
G01X5734Y834D01*
G01X5584Y986D02*
G01X6473Y1875D01*
G01X6552Y1854D02*
G01X6505Y1806D01*
G01X6789Y1521D02*
G01X6924Y1655D01*
G01X6924Y1655D02*
G01X6977Y1655D01*
G01X7175Y1816D02*
G01X7303Y1816D01*
G01X7538Y1730D02*
G01X8088Y1730D01*
G01X8239Y1882D02*
G01X8239Y5786D01*
G01X8088Y5937D02*
G01X7538Y5937D01*
G01X7386Y5786D02*
G01X7386Y5491D01*
G01X6532Y5413D02*
G01X6532Y6501D01*
G01X6473Y6643D02*
G01X5584Y7533D01*
G01X5734Y7684D02*
G01X5734Y8334D01*
G01X5584Y8486D02*
G01X6473Y9375D01*
G01X6653Y9316D02*
G01X7303Y9316D01*
G01X7343Y9321D02*
G01X7343Y7968D01*
G01X7968Y7343D02*
G01X10507Y7343D01*
G01X10507Y7343D02*
G01X10507Y6731D01*
G01X10659Y6580D02*
G01X11840Y6580D01*
G01X11991Y6731D02*
G01X11991Y7343D01*
G01X11991Y7343D02*
G01X14531Y7343D01*
G01X14843Y7031D02*
G01X14843Y5551D01*
G01X14030Y5082D02*
G01X13844Y4896D01*
G01X13157Y5452D02*
G01X12952Y5452D01*
G01X12952Y5452D02*
G01X12952Y5656D01*
G01X9547Y5656D02*
G01X9547Y5452D01*
G01X9547Y5452D02*
G01X9342Y5452D01*
G01X9342Y2046D02*
G01X9547Y2046D01*
G01X9547Y2046D02*
G01X9547Y1842D01*
G01X9604Y1555D02*
G01X9604Y941D01*
G01X5734Y339D02*
G01X9360Y339D01*
G01X5734Y541D02*
G01X9330Y541D01*
G01X5734Y743D02*
G01X9390Y743D01*
G01X5686Y945D02*
G01X9604Y945D01*
G01X5745Y1147D02*
G01X9604Y1147D01*
G01X5947Y1349D02*
G01X6321Y1349D01*
G01X6716Y1349D02*
G01X9604Y1349D01*
G01X6149Y1551D02*
G01X6247Y1551D01*
G01X6819Y1551D02*
G01X9604Y1551D01*
G01X6351Y1753D02*
G01X6356Y1753D01*
G01X7150Y1753D02*
G01X7458Y1753D01*
G01X8167Y1753D02*
G01X9552Y1753D01*
G01X8239Y1955D02*
G01X9547Y1955D01*
G01X8239Y2157D02*
G01X8964Y2157D01*
G01X8239Y2359D02*
G01X8757Y2359D01*
G01X8239Y2561D02*
G01X8665Y2561D01*
G01X8239Y2763D02*
G01X8639Y2763D01*
G01X8239Y2965D02*
G01X8673Y2965D01*
G01X8239Y3167D02*
G01X8777Y3167D01*
G01X8239Y3369D02*
G01X8922Y3369D01*
G01X8239Y3571D02*
G01X8780Y3571D01*
G01X8239Y3773D02*
G01X8748Y3773D01*
G01X8239Y3975D02*
G01X8801Y3975D01*
G01X8239Y4177D02*
G01X8934Y4177D01*
G01X8239Y4379D02*
G01X8745Y4379D01*
G01X8239Y4581D02*
G01X8660Y4581D01*
G01X8239Y4783D02*
G01X8640Y4783D01*
G01X8239Y4985D02*
G01X8680Y4985D01*
G01X13819Y4985D02*
G01X13932Y4985D01*
G01X8239Y5187D02*
G01X8792Y5187D01*
G01X13706Y5187D02*
G01X14005Y5187D01*
G01X8239Y5389D02*
G01X9051Y5389D01*
G01X13447Y5389D02*
G01X14023Y5389D01*
G01X6532Y5591D02*
G01X6650Y5591D01*
G01X7306Y5591D02*
G01X7386Y5591D01*
G01X8239Y5591D02*
G01X9547Y5591D01*
G01X12952Y5591D02*
G01X14150Y5591D01*
G01X14806Y5591D02*
G01X14843Y5591D01*
G01X6532Y5793D02*
G01X7386Y5793D01*
G01X8239Y5793D02*
G01X9560Y5793D01*
G01X12939Y5793D02*
G01X14843Y5793D01*
G01X6532Y5995D02*
G01X9633Y5995D01*
G01X12865Y5995D02*
G01X14843Y5995D01*
G01X6532Y6197D02*
G01X9800Y6197D01*
G01X10699Y6197D02*
G01X11023Y6197D01*
G01X11475Y6197D02*
G01X11800Y6197D01*
G01X12699Y6197D02*
G01X14843Y6197D01*
G01X6532Y6399D02*
G01X14843Y6399D01*
G01X6505Y6601D02*
G01X10582Y6601D01*
G01X11917Y6601D02*
G01X14843Y6601D01*
G01X6313Y6803D02*
G01X10507Y6803D01*
G01X11991Y6803D02*
G01X14843Y6803D01*
G01X6111Y7005D02*
G01X10507Y7005D01*
G01X11991Y7005D02*
G01X14843Y7005D01*
G01X5909Y7207D02*
G01X10507Y7207D01*
G01X11991Y7207D02*
G01X14789Y7207D01*
G01X5707Y7409D02*
G01X7689Y7409D01*
G01X5716Y7611D02*
G01X7455Y7611D01*
G01X5734Y7813D02*
G01X7363Y7813D01*
G01X5734Y8015D02*
G01X7343Y8015D01*
G01X5734Y8217D02*
G01X7343Y8217D01*
G01X5709Y8419D02*
G01X7343Y8419D01*
G01X5719Y8621D02*
G01X7343Y8621D01*
G01X5921Y8823D02*
G01X7343Y8823D01*
G01X6123Y9025D02*
G01X7343Y9025D01*
G01X6325Y9227D02*
G01X7343Y9227D01*
G01X14660Y5685D02*
G01X14660Y7315D01*
G01X14458Y5721D02*
G01X14458Y7343D01*
G01X14256Y5667D02*
G01X14256Y7343D01*
G01X14054Y5464D02*
G01X14054Y7343D01*
G01X13852Y4905D02*
G01X13852Y7343D01*
G01X13650Y5249D02*
G01X13650Y7343D01*
G01X13448Y5388D02*
G01X13448Y7343D01*
G01X13246Y5446D02*
G01X13246Y7343D01*
G01X13044Y5452D02*
G01X13044Y7343D01*
G01X12842Y6033D02*
G01X12842Y7343D01*
G01X12640Y6240D02*
G01X12640Y7343D01*
G01X12438Y6333D02*
G01X12438Y7343D01*
G01X12236Y6359D02*
G01X12236Y7343D01*
G01X12034Y6325D02*
G01X12034Y7343D01*
G01X11832Y6222D02*
G01X11832Y6580D01*
G01X11630Y6075D02*
G01X11630Y6580D01*
G01X11428Y6217D02*
G01X11428Y6580D01*
G01X11226Y6250D02*
G01X11226Y6580D01*
G01X11024Y6197D02*
G01X11024Y6580D01*
G01X10822Y6063D02*
G01X10822Y6580D01*
G01X10620Y6253D02*
G01X10620Y6585D01*
G01X10418Y6339D02*
G01X10418Y7343D01*
G01X10216Y6358D02*
G01X10216Y7343D01*
G01X10014Y6319D02*
G01X10014Y7343D01*
G01X9812Y6207D02*
G01X9812Y7343D01*
G01X9610Y5949D02*
G01X9610Y7343D01*
G01X9408Y156D02*
G01X9408Y245D01*
G01X9408Y773D02*
G01X9408Y2046D01*
G01X9408Y5452D02*
G01X9408Y7343D01*
G01X9206Y156D02*
G01X9206Y2060D01*
G01X9206Y5438D02*
G01X9206Y7343D01*
G01X9004Y156D02*
G01X9004Y2133D01*
G01X9004Y5365D02*
G01X9004Y7343D01*
G01X8802Y156D02*
G01X8802Y2299D01*
G01X8802Y3199D02*
G01X8802Y3522D01*
G01X8802Y3976D02*
G01X8802Y4299D01*
G01X8802Y5199D02*
G01X8802Y7343D01*
G01X8600Y156D02*
G01X8600Y7343D01*
G01X8398Y156D02*
G01X8398Y7343D01*
G01X8196Y156D02*
G01X8196Y1776D01*
G01X8196Y5891D02*
G01X8196Y7343D01*
G01X7994Y156D02*
G01X7994Y1730D01*
G01X7994Y5937D02*
G01X7994Y7343D01*
G01X7792Y156D02*
G01X7792Y1730D01*
G01X7792Y5937D02*
G01X7792Y7368D01*
G01X7590Y156D02*
G01X7590Y1730D01*
G01X7590Y5937D02*
G01X7590Y7470D01*
G01X7388Y156D02*
G01X7388Y1842D01*
G01X7388Y5812D02*
G01X7388Y7735D01*
G01X7186Y156D02*
G01X7186Y1816D01*
G01X7186Y5674D02*
G01X7186Y9316D01*
G01X6984Y156D02*
G01X6984Y1655D01*
G01X6984Y5722D02*
G01X6984Y9316D01*
G01X6782Y156D02*
G01X6782Y1472D01*
G01X6782Y5680D02*
G01X6782Y9316D01*
G01X6580Y156D02*
G01X6580Y1271D01*
G01X6580Y5508D02*
G01X6580Y9334D01*
G01X6378Y156D02*
G01X6378Y1302D01*
G01X6378Y1768D02*
G01X6378Y1780D01*
G01X6378Y6738D02*
G01X6378Y9280D01*
G01X6176Y156D02*
G01X6176Y1578D01*
G01X6176Y6940D02*
G01X6176Y9078D01*
G01X5974Y156D02*
G01X5974Y1376D01*
G01X5974Y7142D02*
G01X5974Y8876D01*
G01X5772Y156D02*
G01X5772Y1174D01*
G01X5772Y7344D02*
G01X5772Y8674D01*
G01X10507Y767D02*
G01X10507Y156D01*
G01X10507Y156D02*
G01X10125Y156D01*
G01X10007Y941D02*
G01X10007Y1182D01*
G01X12952Y1842D02*
G01X12952Y2046D01*
G01X12952Y2046D02*
G01X13157Y2046D01*
G01X13713Y3178D02*
G01X14080Y3545D01*
G01X14080Y3545D02*
G01X14080Y3158D01*
G01X14232Y3007D02*
G01X14291Y3007D01*
G01X14276Y2929D02*
G01X14276Y2769D01*
G01X14276Y2769D02*
G01X14153Y2769D01*
G01X14001Y2617D02*
G01X14001Y1967D01*
G01X14153Y1816D02*
G01X14803Y1816D01*
G01X14843Y1821D02*
G01X14843Y468D01*
G01X14531Y156D02*
G01X13232Y156D01*
G01X13234Y184D02*
G01X13234Y834D01*
G01X13083Y986D02*
G01X12433Y986D01*
G01X12281Y834D02*
G01X12281Y184D01*
G01X12284Y156D02*
G01X11991Y156D01*
G01X11991Y156D02*
G01X11991Y767D01*
G01X11840Y918D02*
G01X10659Y918D01*
G01X10250Y339D02*
G01X10507Y339D01*
G01X11991Y339D02*
G01X12281Y339D01*
G01X13234Y339D02*
G01X14815Y339D01*
G01X10281Y541D02*
G01X10507Y541D01*
G01X11991Y541D02*
G01X12281Y541D01*
G01X13234Y541D02*
G01X14843Y541D01*
G01X10220Y743D02*
G01X10507Y743D01*
G01X11991Y743D02*
G01X12281Y743D01*
G01X13234Y743D02*
G01X14843Y743D01*
G01X10007Y945D02*
G01X12330Y945D01*
G01X13186Y945D02*
G01X14843Y945D01*
G01X10007Y1147D02*
G01X10144Y1147D01*
G01X10354Y1147D02*
G01X12144Y1147D01*
G01X12354Y1147D02*
G01X14843Y1147D01*
G01X10750Y1349D02*
G01X10947Y1349D01*
G01X11551Y1349D02*
G01X11748Y1349D01*
G01X12750Y1349D02*
G01X14843Y1349D01*
G01X12889Y1551D02*
G01X14843Y1551D01*
G01X12946Y1753D02*
G01X14843Y1753D01*
G01X12952Y1955D02*
G01X14002Y1955D01*
G01X13535Y2157D02*
G01X14001Y2157D01*
G01X13741Y2359D02*
G01X14001Y2359D01*
G01X13834Y2561D02*
G01X14001Y2561D01*
G01X13859Y2763D02*
G01X14110Y2763D01*
G01X13825Y2965D02*
G01X14279Y2965D01*
G01X13722Y3167D02*
G01X14080Y3167D01*
G01X13904Y3369D02*
G01X14080Y3369D01*
G01X14660Y184D02*
G01X14660Y1816D01*
G01X14458Y156D02*
G01X14458Y1816D01*
G01X14256Y156D02*
G01X14256Y1816D01*
G01X14256Y2769D02*
G01X14256Y3007D01*
G01X14054Y156D02*
G01X14054Y1852D01*
G01X14054Y2733D02*
G01X14054Y3519D01*
G01X13852Y156D02*
G01X13852Y2649D01*
G01X13852Y2849D02*
G01X13852Y3317D01*
G01X13650Y156D02*
G01X13650Y2249D01*
G01X13448Y156D02*
G01X13448Y2110D01*
G01X13246Y156D02*
G01X13246Y2052D01*
G01X13044Y986D02*
G01X13044Y2046D01*
G01X12842Y986D02*
G01X12842Y1465D01*
G01X12640Y986D02*
G01X12640Y1258D01*
G01X12438Y986D02*
G01X12438Y1165D01*
G01X12236Y156D02*
G01X12236Y1139D01*
G01X12034Y156D02*
G01X12034Y1173D01*
G01X11832Y918D02*
G01X11832Y1276D01*
G01X11630Y918D02*
G01X11630Y1423D01*
G01X11428Y918D02*
G01X11428Y1281D01*
G01X11226Y918D02*
G01X11226Y1248D01*
G01X11024Y918D02*
G01X11024Y1301D01*
G01X10822Y918D02*
G01X10822Y1435D01*
G01X10620Y913D02*
G01X10620Y1245D01*
G01X10418Y156D02*
G01X10418Y1159D01*
G01X10216Y156D02*
G01X10216Y268D01*
G01X10216Y750D02*
G01X10216Y1140D01*
G01X10014Y937D02*
G01X10014Y1179D01*
G01X3007Y767D02*
G01X3007Y156D01*
G01X3007Y156D02*
G01X2625Y156D01*
G01X2507Y941D02*
G01X2507Y1182D01*
G01X5452Y1842D02*
G01X5452Y2046D01*
G01X5452Y2046D02*
G01X5657Y2046D01*
G01X6129Y2228D02*
G01X6129Y2100D01*
G01X6129Y2100D02*
G01X5116Y1087D01*
G01X5061Y986D02*
G01X4933Y986D01*
G01X4781Y834D02*
G01X4781Y184D01*
G01X4784Y156D02*
G01X4491Y156D01*
G01X4491Y156D02*
G01X4491Y767D01*
G01X4340Y918D02*
G01X3159Y918D01*
G01X2750Y339D02*
G01X3007Y339D01*
G01X4491Y339D02*
G01X4781Y339D01*
G01X2781Y541D02*
G01X3007Y541D01*
G01X4491Y541D02*
G01X4781Y541D01*
G01X2720Y743D02*
G01X3007Y743D01*
G01X4491Y743D02*
G01X4781Y743D01*
G01X2507Y945D02*
G01X4830Y945D01*
G01X2507Y1147D02*
G01X2644Y1147D01*
G01X2854Y1147D02*
G01X4644Y1147D01*
G01X4854Y1147D02*
G01X5175Y1147D01*
G01X3250Y1349D02*
G01X3447Y1349D01*
G01X4051Y1349D02*
G01X4248Y1349D01*
G01X5250Y1349D02*
G01X5377Y1349D01*
G01X5389Y1551D02*
G01X5579Y1551D01*
G01X5446Y1753D02*
G01X5781Y1753D01*
G01X5452Y1955D02*
G01X5983Y1955D01*
G01X6035Y2157D02*
G01X6129Y2157D01*
G01X5974Y1946D02*
G01X5974Y2122D01*
G01X5772Y1744D02*
G01X5772Y2056D01*
G01X5570Y1542D02*
G01X5570Y2046D01*
G01X5368Y1340D02*
G01X5368Y1509D01*
G01X5166Y1138D02*
G01X5166Y1276D01*
G01X4964Y986D02*
G01X4964Y1173D01*
G01X4762Y156D02*
G01X4762Y1139D01*
G01X4560Y156D02*
G01X4560Y1165D01*
G01X4358Y917D02*
G01X4358Y1258D01*
G01X4156Y918D02*
G01X4156Y1456D01*
G01X3954Y918D02*
G01X3954Y1291D01*
G01X3752Y918D02*
G01X3752Y1248D01*
G01X3550Y918D02*
G01X3550Y1289D01*
G01X3348Y918D02*
G01X3348Y1448D01*
G01X3146Y918D02*
G01X3146Y1262D01*
G01X2944Y156D02*
G01X2944Y1166D01*
G01X2742Y156D02*
G01X2742Y319D01*
G01X2742Y699D02*
G01X2742Y1139D01*
G01X2540Y923D02*
G01X2540Y1171D01*
G01X3452Y2153D02*
G01X3452Y2156D01*
G01X2157Y3452D02*
G01X2153Y3452D01*
G01X2153Y4046D02*
G01X2157Y4046D01*
G01X3422Y5139D02*
G01X3868Y4693D01*
G01X4693Y3868D02*
G01X5087Y3475D01*
G01X5087Y3475D02*
G01X5087Y3404D01*
G01X4047Y2156D02*
G01X4047Y2153D01*
G01X3452Y2157D02*
G01X3457Y2157D01*
G01X4041Y2157D02*
G01X4047Y2157D01*
G01X3422Y2359D02*
G01X4076Y2359D01*
G01X3324Y2561D02*
G01X4175Y2561D01*
G01X3104Y2763D02*
G01X4394Y2763D01*
G01X2825Y2965D02*
G01X3210Y2965D01*
G01X4288Y2965D02*
G01X4673Y2965D01*
G01X2722Y3167D02*
G01X2997Y3167D01*
G01X4502Y3167D02*
G01X4777Y3167D01*
G01X2488Y3369D02*
G01X2877Y3369D01*
G01X4621Y3369D02*
G01X5011Y3369D01*
G01X2218Y3571D02*
G01X2815Y3571D01*
G01X4684Y3571D02*
G01X4991Y3571D01*
G01X2250Y3773D02*
G01X2798Y3773D01*
G01X4700Y3773D02*
G01X4789Y3773D01*
G01X2197Y3975D02*
G01X2825Y3975D01*
G01X2565Y4177D02*
G01X2899Y4177D01*
G01X2754Y4379D02*
G01X3036Y4379D01*
G01X2839Y4581D02*
G01X3287Y4581D01*
G01X3175Y4783D02*
G01X3779Y4783D01*
G01X3355Y4985D02*
G01X3577Y4985D01*
G01X4964Y3342D02*
G01X4964Y3597D01*
G01X4762Y3146D02*
G01X4762Y3799D01*
G01X4560Y2833D02*
G01X4560Y3251D01*
G01X4358Y2740D02*
G01X4358Y3018D01*
G01X4156Y2533D02*
G01X4156Y2889D01*
G01X3954Y2207D02*
G01X3954Y2820D01*
G01X3752Y2250D02*
G01X3752Y2798D01*
G01X3752Y4700D02*
G01X3752Y4809D01*
G01X3550Y2209D02*
G01X3550Y2819D01*
G01X3550Y4679D02*
G01X3550Y5011D01*
G01X3348Y2524D02*
G01X3348Y2886D01*
G01X3348Y4612D02*
G01X3348Y4974D01*
G01X3146Y2736D02*
G01X3146Y3013D01*
G01X3146Y4485D02*
G01X3146Y4762D01*
G01X2944Y2832D02*
G01X2944Y3242D01*
G01X2944Y4256D02*
G01X2944Y4666D01*
G01X2742Y3137D02*
G01X2742Y4361D01*
G01X2540Y3338D02*
G01X2540Y4160D01*
G01X2338Y3428D02*
G01X2338Y4070D01*
G01X10952Y2153D02*
G01X10952Y2156D01*
G01X9657Y3452D02*
G01X9653Y3452D01*
G01X9653Y4046D02*
G01X9657Y4046D01*
G01X10952Y5342D02*
G01X10952Y5345D01*
G01X11547Y5345D02*
G01X11547Y5342D01*
G01X12842Y4046D02*
G01X12845Y4046D01*
G01X12845Y3452D02*
G01X12842Y3452D01*
G01X11547Y2156D02*
G01X11547Y2153D01*
G01X10952Y2157D02*
G01X10957Y2157D01*
G01X11541Y2157D02*
G01X11547Y2157D01*
G01X10922Y2359D02*
G01X11576Y2359D01*
G01X10824Y2561D02*
G01X11675Y2561D01*
G01X10604Y2763D02*
G01X11894Y2763D01*
G01X10325Y2965D02*
G01X10710Y2965D01*
G01X11788Y2965D02*
G01X12173Y2965D01*
G01X10222Y3167D02*
G01X10497Y3167D01*
G01X12002Y3167D02*
G01X12277Y3167D01*
G01X9988Y3369D02*
G01X10377Y3369D01*
G01X12121Y3369D02*
G01X12511Y3369D01*
G01X9718Y3571D02*
G01X10315Y3571D01*
G01X12184Y3571D02*
G01X12780Y3571D01*
G01X9750Y3773D02*
G01X10298Y3773D01*
G01X12200Y3773D02*
G01X12748Y3773D01*
G01X9697Y3975D02*
G01X10325Y3975D01*
G01X12174Y3975D02*
G01X12801Y3975D01*
G01X10065Y4177D02*
G01X10399Y4177D01*
G01X12099Y4177D02*
G01X12434Y4177D01*
G01X10254Y4379D02*
G01X10536Y4379D01*
G01X11963Y4379D02*
G01X12245Y4379D01*
G01X10339Y4581D02*
G01X10787Y4581D01*
G01X11711Y4581D02*
G01X12160Y4581D01*
G01X10675Y4783D02*
G01X11823Y4783D01*
G01X10855Y4985D02*
G01X11644Y4985D01*
G01X10935Y5187D02*
G01X11564Y5187D01*
G01X12842Y3452D02*
G01X12842Y3456D01*
G01X12842Y4042D02*
G01X12842Y4046D01*
G01X12640Y3422D02*
G01X12640Y4076D01*
G01X12438Y3324D02*
G01X12438Y4174D01*
G01X12236Y3106D02*
G01X12236Y4392D01*
G01X12034Y2825D02*
G01X12034Y3211D01*
G01X12034Y4287D02*
G01X12034Y4673D01*
G01X11832Y2722D02*
G01X11832Y2997D01*
G01X11832Y4501D02*
G01X11832Y4776D01*
G01X11630Y2489D02*
G01X11630Y2877D01*
G01X11630Y4621D02*
G01X11630Y5009D01*
G01X11428Y2217D02*
G01X11428Y2814D01*
G01X11428Y4684D02*
G01X11428Y5281D01*
G01X11226Y2250D02*
G01X11226Y2798D01*
G01X11226Y4700D02*
G01X11226Y5248D01*
G01X11024Y2197D02*
G01X11024Y2824D01*
G01X11024Y4674D02*
G01X11024Y5301D01*
G01X10822Y2563D02*
G01X10822Y2899D01*
G01X10822Y4599D02*
G01X10822Y4935D01*
G01X10620Y2753D02*
G01X10620Y3035D01*
G01X10620Y4463D02*
G01X10620Y4745D01*
G01X10418Y2839D02*
G01X10418Y3286D01*
G01X10418Y4212D02*
G01X10418Y4659D01*
G01X10216Y3174D02*
G01X10216Y4324D01*
G01X10014Y3354D02*
G01X10014Y4144D01*
G01X9812Y3434D02*
G01X9812Y4064D01*
G01X6532Y2709D02*
G01X6532Y5077D01*
G01X7386Y5000D02*
G01X7386Y2744D01*
G01X7303Y2769D02*
G01X6653Y2769D01*
G01X6532Y2763D02*
G01X6610Y2763D01*
G01X7345Y2763D02*
G01X7386Y2763D01*
G01X6532Y2965D02*
G01X7386Y2965D01*
G01X6532Y3167D02*
G01X7386Y3167D01*
G01X6532Y3369D02*
G01X7386Y3369D01*
G01X6532Y3571D02*
G01X7386Y3571D01*
G01X6532Y3773D02*
G01X7386Y3773D01*
G01X6532Y3975D02*
G01X7386Y3975D01*
G01X6532Y4177D02*
G01X7386Y4177D01*
G01X6532Y4379D02*
G01X7386Y4379D01*
G01X6532Y4581D02*
G01X7386Y4581D01*
G01X6532Y4783D02*
G01X6862Y4783D01*
G01X7093Y4783D02*
G01X7386Y4783D01*
G01X6532Y4985D02*
G01X6579Y4985D01*
G01X7377Y4985D02*
G01X7386Y4985D01*
G01X7186Y2769D02*
G01X7186Y4817D01*
G01X6984Y2769D02*
G01X6984Y4769D01*
G01X6782Y2769D02*
G01X6782Y4811D01*
G01X6580Y2750D02*
G01X6580Y4982D01*
G01X14843Y3007D02*
G01X14843Y2763D01*
G01X14803Y2769D02*
G01X14679Y2769D01*
G01X14679Y2769D02*
G01X14679Y2845D01*
G01X14679Y2845D02*
G01X14738Y2904D01*
G01X14794Y3007D02*
G01X14843Y3007D01*
G01X14780Y2965D02*
G01X14843Y2965D01*
G01X6129Y3421D02*
G01X6129Y3270D01*
G01X6076Y3369D02*
G01X6129Y3369D01*
G01X13771Y3805D02*
G01X13750Y3784D01*
G01X13771Y4407D02*
G01X13771Y3805D01*
G01X13697Y3975D02*
G01X13771Y3975D01*
G01X13565Y4177D02*
G01X13771Y4177D01*
G01X13754Y4379D02*
G01X13771Y4379D01*
G01X13650Y4050D02*
G01X13650Y4249D01*
G01X5262Y3869D02*
G01X4991Y4140D01*
G01X5342Y4046D02*
G01X5345Y4046D01*
G01X5156Y3975D02*
G01X5301Y3975D01*
G01X5166Y3965D02*
G01X5166Y4069D01*
G01X6129Y4228D02*
G01X6129Y4077D01*
G01X6065Y4177D02*
G01X6129Y4177D01*
G01X4733Y4398D02*
G01X4399Y4733D01*
G01X4550Y4581D02*
G01X4660Y4581D01*
G01X4560Y4571D02*
G01X4560Y4665D01*
G01X14174Y4480D02*
G01X14174Y4657D01*
G01X14174Y4657D02*
G01X14315Y4797D01*
G01X14843Y4939D02*
G01X14843Y4491D01*
G01X14843Y4491D02*
G01X14232Y4491D01*
G01X14174Y4581D02*
G01X14843Y4581D01*
G01X14300Y4783D02*
G01X14362Y4783D01*
G01X14593Y4783D02*
G01X14843Y4783D01*
G01X14660Y4491D02*
G01X14660Y4805D01*
G01X14458Y4491D02*
G01X14458Y4769D01*
G01X14256Y4491D02*
G01X14256Y4739D01*
G01X4140Y4991D02*
G01X3869Y5262D01*
G01X4047Y5345D02*
G01X4047Y5342D01*
G01X3944Y5187D02*
G01X4064Y5187D01*
G01X3954Y5177D02*
G01X3954Y5291D01*
G01X3452Y9653D02*
G01X3452Y9656D01*
G01X2157Y10952D02*
G01X2153Y10952D01*
G01X2153Y11546D02*
G01X2157Y11546D01*
G01X3422Y12639D02*
G01X3868Y12193D01*
G01X4693Y11368D02*
G01X5087Y10975D01*
G01X5087Y10975D02*
G01X5087Y10904D01*
G01X4047Y9656D02*
G01X4047Y9653D01*
G01X3429Y9833D02*
G01X4069Y9833D01*
G01X3341Y10035D02*
G01X4157Y10035D01*
G01X3146Y10237D02*
G01X4353Y10237D01*
G01X2833Y10439D02*
G01X3250Y10439D01*
G01X4248Y10439D02*
G01X4665Y10439D01*
G01X2740Y10641D02*
G01X3018Y10641D01*
G01X4481Y10641D02*
G01X4758Y10641D01*
G01X2533Y10843D02*
G01X2889Y10843D01*
G01X4610Y10843D02*
G01X4966Y10843D01*
G01X2207Y11045D02*
G01X2820Y11045D01*
G01X4679Y11045D02*
G01X5017Y11045D01*
G01X2251Y11247D02*
G01X2798Y11247D01*
G01X4701Y11247D02*
G01X4815Y11247D01*
G01X2209Y11449D02*
G01X2819Y11449D01*
G01X2525Y11651D02*
G01X2887Y11651D01*
G01X2737Y11853D02*
G01X3014Y11853D01*
G01X2832Y12055D02*
G01X3243Y12055D01*
G01X3139Y12257D02*
G01X3805Y12257D01*
G01X3339Y12459D02*
G01X3603Y12459D01*
G01X4964Y10842D02*
G01X4964Y11097D01*
G01X4762Y10646D02*
G01X4762Y11299D01*
G01X4560Y10333D02*
G01X4560Y10751D01*
G01X4358Y10240D02*
G01X4358Y10518D01*
G01X4156Y10033D02*
G01X4156Y10389D01*
G01X3954Y9707D02*
G01X3954Y10320D01*
G01X3752Y9750D02*
G01X3752Y10298D01*
G01X3752Y12200D02*
G01X3752Y12309D01*
G01X3550Y9709D02*
G01X3550Y10319D01*
G01X3550Y12179D02*
G01X3550Y12511D01*
G01X3348Y10024D02*
G01X3348Y10386D01*
G01X3348Y12112D02*
G01X3348Y12474D01*
G01X3146Y10236D02*
G01X3146Y10513D01*
G01X3146Y11985D02*
G01X3146Y12262D01*
G01X2944Y10332D02*
G01X2944Y10742D01*
G01X2944Y11756D02*
G01X2944Y12166D01*
G01X2742Y10637D02*
G01X2742Y11861D01*
G01X2540Y10838D02*
G01X2540Y11660D01*
G01X2338Y10928D02*
G01X2338Y11570D01*
G01X6532Y10209D02*
G01X6532Y12577D01*
G01X7343Y12439D02*
G01X7343Y11991D01*
G01X7343Y11991D02*
G01X6732Y11991D01*
G01X6580Y11840D02*
G01X6580Y10658D01*
G01X6732Y10507D02*
G01X6791Y10507D01*
G01X6776Y10429D02*
G01X6776Y10269D01*
G01X6776Y10269D02*
G01X6653Y10269D01*
G01X6532Y10237D02*
G01X6559Y10237D01*
G01X6532Y10439D02*
G01X6776Y10439D01*
G01X6532Y10641D02*
G01X6581Y10641D01*
G01X6532Y10843D02*
G01X6580Y10843D01*
G01X6532Y11045D02*
G01X6580Y11045D01*
G01X6532Y11247D02*
G01X6580Y11247D01*
G01X6532Y11449D02*
G01X6580Y11449D01*
G01X6532Y11651D02*
G01X6580Y11651D01*
G01X6532Y11853D02*
G01X6581Y11853D01*
G01X6532Y12055D02*
G01X7343Y12055D01*
G01X6532Y12257D02*
G01X7343Y12257D01*
G01X6532Y12459D02*
G01X6597Y12459D01*
G01X7186Y11991D02*
G01X7186Y12317D01*
G01X6984Y11991D02*
G01X6984Y12269D01*
G01X6782Y10480D02*
G01X6782Y10507D01*
G01X6782Y11991D02*
G01X6782Y12311D01*
G01X6580Y10250D02*
G01X6580Y10651D01*
G01X6580Y11847D02*
G01X6580Y12482D01*
G01X7343Y10507D02*
G01X7343Y10263D01*
G01X7303Y10269D02*
G01X7179Y10269D01*
G01X7179Y10269D02*
G01X7179Y10345D01*
G01X7179Y10345D02*
G01X7238Y10404D01*
G01X7294Y10507D02*
G01X7343Y10507D01*
G01X7266Y10439D02*
G01X7343Y10439D01*
G01X7186Y10269D02*
G01X7186Y10352D01*
G01X6129Y10921D02*
G01X6129Y10770D01*
G01X6043Y10843D02*
G01X6129Y10843D01*
G01X5262Y11369D02*
G01X4991Y11640D01*
G01X5342Y11546D02*
G01X5345Y11546D01*
G01X5182Y11449D02*
G01X5289Y11449D01*
G01X5166Y11465D02*
G01X5166Y11569D01*
G01X6129Y11728D02*
G01X6129Y11577D01*
G01X6049Y11651D02*
G01X6129Y11651D01*
G01X4733Y11898D02*
G01X4399Y12233D01*
G01X4576Y12055D02*
G01X4666Y12055D01*
G01X4560Y12071D02*
G01X4560Y12165D01*
G01X4140Y12491D02*
G01X3869Y12762D01*
G01X4047Y12845D02*
G01X4047Y12842D01*
G01X3970Y12661D02*
G01X4070Y12661D01*
G01X3954Y12677D02*
G01X3954Y12791D01*
G01X6532Y12913D02*
G01X6532Y14002D01*
G01X6473Y14144D02*
G01X5584Y15033D01*
G01X5735Y15185D02*
G01X5735Y15835D01*
G01X5584Y15986D02*
G01X6469Y16872D01*
G01X6653Y16816D02*
G01X7303Y16816D01*
G01X7343Y16822D02*
G01X7343Y13051D01*
G01X6532Y13065D02*
G01X6624Y13065D01*
G01X7331Y13065D02*
G01X7343Y13065D01*
G01X6532Y13267D02*
G01X7343Y13267D01*
G01X6532Y13469D02*
G01X7343Y13469D01*
G01X6532Y13671D02*
G01X7343Y13671D01*
G01X6532Y13873D02*
G01X7343Y13873D01*
G01X6518Y14075D02*
G01X7343Y14075D01*
G01X6340Y14277D02*
G01X7343Y14277D01*
G01X6138Y14479D02*
G01X7343Y14479D01*
G01X5936Y14681D02*
G01X7343Y14681D01*
G01X5734Y14883D02*
G01X7343Y14883D01*
G01X5697Y15085D02*
G01X7343Y15085D01*
G01X5735Y15287D02*
G01X7343Y15287D01*
G01X5735Y15489D02*
G01X7343Y15489D01*
G01X5735Y15691D02*
G01X7343Y15691D01*
G01X5723Y15893D02*
G01X7343Y15893D01*
G01X5693Y16095D02*
G01X7343Y16095D01*
G01X5895Y16297D02*
G01X7343Y16297D01*
G01X6096Y16499D02*
G01X7343Y16499D01*
G01X6298Y16701D02*
G01X7343Y16701D01*
G01X6494Y16903D02*
G01X6516Y16903D01*
G01X7186Y13174D02*
G01X7186Y16816D01*
G01X6984Y13222D02*
G01X6984Y16816D01*
G01X6782Y13180D02*
G01X6782Y16816D01*
G01X6580Y13008D02*
G01X6580Y16835D01*
G01X6378Y14239D02*
G01X6378Y16781D01*
G01X6176Y14441D02*
G01X6176Y16579D01*
G01X5974Y14643D02*
G01X5974Y16377D01*
G01X5772Y14845D02*
G01X5772Y16174D01*
G01X3452Y17153D02*
G01X3452Y17157D01*
G01X2157Y18452D02*
G01X2153Y18452D01*
G01X2153Y19047D02*
G01X2157Y19047D01*
G01X3452Y20342D02*
G01X3452Y20346D01*
G01X4047Y20346D02*
G01X4047Y20342D01*
G01X5342Y19047D02*
G01X5346Y19047D01*
G01X5346Y18452D02*
G01X5342Y18452D01*
G01X4047Y17157D02*
G01X4047Y17153D01*
G01X3436Y17307D02*
G01X4063Y17307D01*
G01X3358Y17509D02*
G01X4141Y17509D01*
G01X3182Y17711D02*
G01X4317Y17711D01*
G01X2840Y17913D02*
G01X3297Y17913D01*
G01X4203Y17913D02*
G01X4659Y17913D01*
G01X2757Y18115D02*
G01X3041Y18115D01*
G01X4458Y18115D02*
G01X4742Y18115D01*
G01X2572Y18317D02*
G01X2902Y18317D01*
G01X4597Y18317D02*
G01X4927Y18317D01*
G01X2195Y18519D02*
G01X2826Y18519D01*
G01X4673Y18519D02*
G01X5304Y18519D01*
G01X2250Y18721D02*
G01X2798Y18721D01*
G01X4701Y18721D02*
G01X5249Y18721D01*
G01X2220Y18923D02*
G01X2814Y18923D01*
G01X4685Y18923D02*
G01X5279Y18923D01*
G01X2479Y19125D02*
G01X2875Y19125D01*
G01X4624Y19125D02*
G01X5020Y19125D01*
G01X2718Y19327D02*
G01X2993Y19327D01*
G01X4506Y19327D02*
G01X4781Y19327D01*
G01X2824Y19529D02*
G01X3204Y19529D01*
G01X4296Y19529D02*
G01X4675Y19529D01*
G01X3096Y19731D02*
G01X4403Y19731D01*
G01X3321Y19933D02*
G01X4178Y19933D01*
G01X3421Y20135D02*
G01X4078Y20135D01*
G01X3452Y20337D02*
G01X3465Y20337D01*
G01X4034Y20337D02*
G01X4047Y20337D01*
G01X5166Y18430D02*
G01X5166Y19069D01*
G01X4964Y18342D02*
G01X4964Y19157D01*
G01X4762Y18146D02*
G01X4762Y19353D01*
G01X4560Y17834D02*
G01X4560Y18251D01*
G01X4560Y19248D02*
G01X4560Y19665D01*
G01X4358Y17741D02*
G01X4358Y18018D01*
G01X4358Y19481D02*
G01X4358Y19758D01*
G01X4156Y17533D02*
G01X4156Y17889D01*
G01X4156Y19610D02*
G01X4156Y19966D01*
G01X3954Y17207D02*
G01X3954Y17820D01*
G01X3954Y19679D02*
G01X3954Y20292D01*
G01X3752Y17251D02*
G01X3752Y17798D01*
G01X3752Y19701D02*
G01X3752Y20248D01*
G01X3550Y17210D02*
G01X3550Y17819D01*
G01X3550Y19680D02*
G01X3550Y20289D01*
G01X3348Y17525D02*
G01X3348Y17887D01*
G01X3348Y19612D02*
G01X3348Y19974D01*
G01X3146Y17737D02*
G01X3146Y18014D01*
G01X3146Y19485D02*
G01X3146Y19762D01*
G01X2944Y17832D02*
G01X2944Y18243D01*
G01X2944Y19256D02*
G01X2944Y19667D01*
G01X2742Y18138D02*
G01X2742Y19361D01*
G01X2540Y18338D02*
G01X2540Y19161D01*
G01X2338Y18428D02*
G01X2338Y19071D01*
G01X6528Y17703D02*
G01X6528Y20089D01*
G01X7343Y19939D02*
G01X7343Y19492D01*
G01X7343Y19492D02*
G01X6732Y19492D01*
G01X6580Y19340D02*
G01X6580Y18159D01*
G01X6732Y18007D02*
G01X6792Y18007D01*
G01X6777Y17930D02*
G01X6777Y17769D01*
G01X6777Y17769D02*
G01X6653Y17769D01*
G01X6528Y17711D02*
G01X6533Y17711D01*
G01X6528Y17913D02*
G01X6777Y17913D01*
G01X6528Y18115D02*
G01X6587Y18115D01*
G01X6528Y18317D02*
G01X6580Y18317D01*
G01X6528Y18519D02*
G01X6580Y18519D01*
G01X6528Y18721D02*
G01X6580Y18721D01*
G01X6528Y18923D02*
G01X6580Y18923D01*
G01X6528Y19125D02*
G01X6580Y19125D01*
G01X6528Y19327D02*
G01X6580Y19327D01*
G01X6528Y19529D02*
G01X7343Y19529D01*
G01X6528Y19731D02*
G01X7343Y19731D01*
G01X6528Y19933D02*
G01X6619Y19933D01*
G01X7337Y19933D02*
G01X7343Y19933D01*
G01X7186Y19492D02*
G01X7186Y19817D01*
G01X6984Y19492D02*
G01X6984Y19769D01*
G01X6782Y17977D02*
G01X6782Y18007D01*
G01X6782Y19492D02*
G01X6782Y19811D01*
G01X6580Y17751D02*
G01X6580Y19983D01*
G01X7343Y18007D02*
G01X7343Y17764D01*
G01X7303Y17769D02*
G01X7180Y17769D01*
G01X7180Y17769D02*
G01X7180Y17847D01*
G01X7180Y17847D02*
G01X7239Y17906D01*
G01X7294Y18007D02*
G01X7343Y18007D01*
G01X7246Y17913D02*
G01X7343Y17913D01*
G01X7186Y17769D02*
G01X7186Y17853D01*
G01X6125Y18417D02*
G01X6125Y18274D01*
G01X6072Y18317D02*
G01X6125Y18317D01*
G01X6125Y19225D02*
G01X6125Y19082D01*
G01X6082Y19125D02*
G01X6125Y19125D01*
G01X6469Y20362D02*
G01X4594Y22238D01*
G01X4492Y22293D02*
G01X4492Y22343D01*
G01X4492Y22343D02*
G01X7031Y22343D01*
G01X7343Y22031D02*
G01X7343Y20552D01*
G01X6490Y20337D02*
G01X6510Y20337D01*
G01X6293Y20539D02*
G01X6602Y20539D01*
G01X6091Y20741D02*
G01X7343Y20741D01*
G01X5889Y20943D02*
G01X7343Y20943D01*
G01X5687Y21145D02*
G01X7343Y21145D01*
G01X5485Y21347D02*
G01X7343Y21347D01*
G01X5283Y21549D02*
G01X7343Y21549D01*
G01X5081Y21751D02*
G01X7343Y21751D01*
G01X4879Y21953D02*
G01X7343Y21953D01*
G01X4677Y22155D02*
G01X7317Y22155D01*
G01X7186Y20674D02*
G01X7186Y22302D01*
G01X6984Y20722D02*
G01X6984Y22343D01*
G01X6782Y20680D02*
G01X6782Y22343D01*
G01X6580Y20508D02*
G01X6580Y22343D01*
G01X6378Y20453D02*
G01X6378Y22343D01*
G01X6176Y20655D02*
G01X6176Y22343D01*
G01X5974Y20857D02*
G01X5974Y22343D01*
G01X5772Y21059D02*
G01X5772Y22343D01*
G01X5570Y21261D02*
G01X5570Y22343D01*
G01X5368Y21464D02*
G01X5368Y22343D01*
G01X5166Y21666D02*
G01X5166Y22343D01*
G01X4964Y21868D02*
G01X4964Y22343D01*
G01X4762Y22070D02*
G01X4762Y22343D01*
G01X4560Y22265D02*
G01X4560Y22343D01*
G01X5657Y20452D02*
G01X5452Y20452D01*
G01X5452Y20452D02*
G01X5452Y20657D01*
G01X5430Y20831D02*
G01X5831Y20430D01*
G01X5452Y20539D02*
G01X5723Y20539D01*
G01X5447Y20741D02*
G01X5521Y20741D01*
G01X5772Y20443D02*
G01X5772Y20489D01*
G01X5570Y20452D02*
G01X5570Y20691D01*

%LPD*%
G36*
G01X7865Y2179D02*
G01X7817Y2179D01*
G01X7817Y2121D01*
G01X7538Y2121D01*
G01X7538Y2078D01*
G01X7817Y1882D01*
G01X7865Y1882D01*
G01X7865Y2069D01*
G01X7968Y2069D01*
G01X7968Y2121D01*
G01X7865Y2121D01*
G01X7865Y2179D01*
G37*

%LPC*%
G36*
G01X7817Y2069D02*
G01X7623Y2069D01*
G01X7817Y1934D01*
G01X7817Y2069D01*
G37*

%LPD*%
G36*
G01X7825Y2509D02*
G01X7756Y2513D01*
G01X7699Y2510D01*
G01X7654Y2504D01*
G01X7620Y2492D01*
G01X7605Y2485D01*
G01X7591Y2477D01*
G01X7579Y2468D01*
G01X7568Y2457D01*
G01X7558Y2446D01*
G01X7550Y2434D01*
G01X7545Y2420D01*
G01X7541Y2405D01*
G01X7538Y2390D01*
G01X7537Y2373D01*
G01X7539Y2351D01*
G01X7544Y2330D01*
G01X7552Y2312D01*
G01X7562Y2296D01*
G01X7576Y2281D01*
G01X7593Y2268D01*
G01X7612Y2258D01*
G01X7633Y2249D01*
G01X7688Y2237D01*
G01X7756Y2233D01*
G01X7813Y2235D01*
G01X7861Y2243D01*
G01X7900Y2257D01*
G01X7931Y2276D01*
G01X7964Y2318D01*
G01X7975Y2373D01*
G01X7974Y2396D01*
G01X7969Y2416D01*
G01X7961Y2435D01*
G01X7950Y2451D01*
G01X7936Y2465D01*
G01X7919Y2478D01*
G01X7900Y2489D01*
G01X7878Y2498D01*
G01X7825Y2509D01*
G37*

%LPC*%
G36*
G01X7844Y2452D02*
G01X7756Y2459D01*
G01X7668Y2452D01*
G01X7615Y2434D01*
G01X7600Y2421D01*
G01X7589Y2406D01*
G01X7583Y2390D01*
G01X7580Y2373D01*
G01X7582Y2355D01*
G01X7588Y2340D01*
G01X7598Y2326D01*
G01X7611Y2315D01*
G01X7635Y2303D01*
G01X7667Y2294D01*
G01X7708Y2289D01*
G01X7756Y2288D01*
G01X7845Y2294D01*
G01X7897Y2312D01*
G01X7913Y2325D01*
G01X7924Y2339D01*
G01X7930Y2355D01*
G01X7932Y2373D01*
G01X7930Y2390D01*
G01X7924Y2406D01*
G01X7913Y2421D01*
G01X7897Y2434D01*
G01X7844Y2452D01*
G37*

%LPD*%
G36*
G01X7834Y2851D02*
G01X7810Y2852D01*
G01X7788Y2851D01*
G01X7767Y2848D01*
G01X7747Y2843D01*
G01X7728Y2836D01*
G01X7711Y2827D01*
G01X7695Y2817D01*
G01X7682Y2804D01*
G01X7670Y2790D01*
G01X7662Y2774D01*
G01X7655Y2757D01*
G01X7652Y2739D01*
G01X7650Y2720D01*
G01X7651Y2705D01*
G01X7653Y2691D01*
G01X7657Y2679D01*
G01X7661Y2668D01*
G01X7668Y2657D01*
G01X7676Y2648D01*
G01X7686Y2638D01*
G01X7697Y2630D01*
G01X7657Y2630D01*
G01X7657Y2582D01*
G01X8087Y2582D01*
G01X8087Y2634D01*
G01X7936Y2634D01*
G01X7945Y2641D01*
G01X7959Y2659D01*
G01X7964Y2669D01*
G01X7969Y2680D01*
G01X7973Y2691D01*
G01X7975Y2703D01*
G01X7975Y2716D01*
G01X7974Y2734D01*
G01X7970Y2751D01*
G01X7964Y2768D01*
G01X7954Y2785D01*
G01X7943Y2800D01*
G01X7930Y2814D01*
G01X7914Y2825D01*
G01X7896Y2835D01*
G01X7877Y2842D01*
G01X7856Y2848D01*
G01X7834Y2851D01*
G37*

%LPC*%
G36*
G01X7864Y2791D02*
G01X7810Y2798D01*
G01X7782Y2796D01*
G01X7758Y2791D01*
G01X7737Y2784D01*
G01X7720Y2773D01*
G01X7708Y2760D01*
G01X7699Y2746D01*
G01X7693Y2731D01*
G01X7691Y2715D01*
G01X7693Y2698D01*
G01X7699Y2683D01*
G01X7709Y2668D01*
G01X7722Y2655D01*
G01X7761Y2635D01*
G01X7814Y2629D01*
G01X7843Y2630D01*
G01X7867Y2635D01*
G01X7887Y2643D01*
G01X7903Y2654D01*
G01X7916Y2666D01*
G01X7924Y2680D01*
G01X7930Y2696D01*
G01X7931Y2713D01*
G01X7930Y2730D01*
G01X7924Y2745D01*
G01X7915Y2760D01*
G01X7902Y2773D01*
G01X7864Y2791D01*
G37*

%LPD*%
G36*
G01X7815Y3185D02*
G01X7812Y3185D01*
G01X7744Y3175D01*
G01X7692Y3145D01*
G01X7661Y3100D01*
G01X7650Y3043D01*
G01X7661Y2985D01*
G01X7693Y2938D01*
G01X7745Y2908D01*
G01X7815Y2898D01*
G01X7883Y2908D01*
G01X7933Y2938D01*
G01X7965Y2985D01*
G01X7975Y3046D01*
G01X7974Y3072D01*
G01X7969Y3095D01*
G01X7960Y3116D01*
G01X7948Y3135D01*
G01X7934Y3151D01*
G01X7917Y3164D01*
G01X7897Y3175D01*
G01X7874Y3183D01*
G01X7868Y3128D01*
G01X7884Y3121D01*
G01X7897Y3114D01*
G01X7908Y3105D01*
G01X7916Y3096D01*
G01X7923Y3085D01*
G01X7928Y3073D01*
G01X7931Y3060D01*
G01X7931Y3046D01*
G01X7930Y3027D01*
G01X7925Y3010D01*
G01X7916Y2995D01*
G01X7904Y2981D01*
G01X7889Y2969D01*
G01X7871Y2960D01*
G01X7850Y2955D01*
G01X7826Y2952D01*
G01X7826Y3184D01*
G01X7818Y3184D01*
G01X7815Y3185D01*
G37*

%LPC*%
G36*
G01X7782Y2955D02*
G01X7782Y3129D01*
G01X7764Y3126D01*
G01X7748Y3122D01*
G01X7735Y3116D01*
G01X7723Y3109D01*
G01X7710Y3095D01*
G01X7701Y3080D01*
G01X7695Y3063D01*
G01X7693Y3044D01*
G01X7695Y3026D01*
G01X7699Y3010D01*
G01X7707Y2996D01*
G01X7717Y2983D01*
G01X7731Y2972D01*
G01X7746Y2963D01*
G01X7763Y2958D01*
G01X7782Y2955D01*
G37*

%LPD*%
G36*
G01X7716Y3399D02*
G01X7667Y3418D01*
G01X7660Y3404D01*
G01X7655Y3390D01*
G01X7652Y3376D01*
G01X7650Y3363D01*
G01X7651Y3354D01*
G01X7653Y3345D01*
G01X7656Y3337D01*
G01X7660Y3329D01*
G01X7667Y3321D01*
G01X7677Y3313D01*
G01X7689Y3305D01*
G01X7704Y3296D01*
G01X7657Y3296D01*
G01X7657Y3248D01*
G01X7968Y3248D01*
G01X7968Y3301D01*
G01X7789Y3301D01*
G01X7773Y3303D01*
G01X7758Y3306D01*
G01X7743Y3310D01*
G01X7735Y3313D01*
G01X7727Y3318D01*
G01X7720Y3323D01*
G01X7714Y3330D01*
G01X7710Y3337D01*
G01X7707Y3344D01*
G01X7705Y3352D01*
G01X7704Y3361D01*
G01X7705Y3370D01*
G01X7707Y3380D01*
G01X7711Y3389D01*
G01X7716Y3399D01*
G37*

%LPD*%
G36*
G01X7887Y3698D02*
G01X7861Y3704D01*
G01X7854Y3652D01*
G01X7873Y3648D01*
G01X7888Y3642D01*
G01X7902Y3635D01*
G01X7912Y3626D01*
G01X7921Y3615D01*
G01X7927Y3602D01*
G01X7930Y3589D01*
G01X7931Y3574D01*
G01X7930Y3555D01*
G01X7924Y3539D01*
G01X7916Y3524D01*
G01X7903Y3511D01*
G01X7887Y3500D01*
G01X7867Y3493D01*
G01X7842Y3488D01*
G01X7812Y3487D01*
G01X7784Y3488D01*
G01X7759Y3493D01*
G01X7739Y3501D01*
G01X7722Y3512D01*
G01X7710Y3525D01*
G01X7701Y3540D01*
G01X7695Y3558D01*
G01X7693Y3577D01*
G01X7694Y3589D01*
G01X7697Y3601D01*
G01X7702Y3612D01*
G01X7709Y3622D01*
G01X7718Y3630D01*
G01X7729Y3637D01*
G01X7742Y3643D01*
G01X7756Y3648D01*
G01X7748Y3699D01*
G01X7726Y3693D01*
G01X7707Y3684D01*
G01X7690Y3672D01*
G01X7675Y3657D01*
G01X7665Y3640D01*
G01X7657Y3620D01*
G01X7652Y3599D01*
G01X7650Y3575D01*
G01X7652Y3555D01*
G01X7655Y3535D01*
G01X7661Y3517D01*
G01X7668Y3500D01*
G01X7679Y3484D01*
G01X7692Y3470D01*
G01X7708Y3458D01*
G01X7725Y3449D01*
G01X7745Y3442D01*
G01X7766Y3437D01*
G01X7789Y3434D01*
G01X7813Y3433D01*
G01X7882Y3443D01*
G01X7933Y3472D01*
G01X7965Y3516D01*
G01X7975Y3574D01*
G01X7974Y3598D01*
G01X7968Y3621D01*
G01X7958Y3641D01*
G01X7944Y3660D01*
G01X7928Y3676D01*
G01X7909Y3688D01*
G01X7887Y3698D01*
G37*

%LPD*%
G36*
G01X7826Y4018D02*
G01X7812Y4018D01*
G01X7744Y4008D01*
G01X7692Y3979D01*
G01X7661Y3933D01*
G01X7650Y3877D01*
G01X7661Y3818D01*
G01X7693Y3772D01*
G01X7745Y3741D01*
G01X7815Y3731D01*
G01X7883Y3741D01*
G01X7933Y3771D01*
G01X7965Y3818D01*
G01X7975Y3880D01*
G01X7974Y3906D01*
G01X7969Y3929D01*
G01X7960Y3950D01*
G01X7948Y3969D01*
G01X7934Y3984D01*
G01X7917Y3997D01*
G01X7897Y4008D01*
G01X7874Y4016D01*
G01X7868Y3962D01*
G01X7884Y3955D01*
G01X7897Y3947D01*
G01X7908Y3939D01*
G01X7916Y3929D01*
G01X7923Y3918D01*
G01X7928Y3906D01*
G01X7931Y3894D01*
G01X7931Y3880D01*
G01X7930Y3861D01*
G01X7925Y3844D01*
G01X7916Y3829D01*
G01X7904Y3815D01*
G01X7889Y3803D01*
G01X7871Y3794D01*
G01X7850Y3789D01*
G01X7826Y3786D01*
G01X7826Y4018D01*
G37*

%LPC*%
G36*
G01X7782Y3789D02*
G01X7782Y3962D01*
G01X7764Y3959D01*
G01X7748Y3956D01*
G01X7735Y3950D01*
G01X7723Y3943D01*
G01X7710Y3929D01*
G01X7701Y3913D01*
G01X7695Y3896D01*
G01X7693Y3877D01*
G01X7695Y3859D01*
G01X7699Y3843D01*
G01X7707Y3829D01*
G01X7717Y3816D01*
G01X7731Y3805D01*
G01X7746Y3796D01*
G01X7763Y3791D01*
G01X7782Y3789D01*
G37*

%LPD*%
G36*
G01X7968Y4335D02*
G01X7760Y4335D01*
G01X7746Y4334D01*
G01X7734Y4333D01*
G01X7725Y4332D01*
G01X7705Y4326D01*
G01X7695Y4321D01*
G01X7686Y4316D01*
G01X7679Y4309D01*
G01X7672Y4301D01*
G01X7666Y4292D01*
G01X7660Y4281D01*
G01X7656Y4268D01*
G01X7653Y4256D01*
G01X7651Y4243D01*
G01X7650Y4229D01*
G01X7663Y4171D01*
G01X7701Y4130D01*
G01X7657Y4130D01*
G01X7657Y4083D01*
G01X7968Y4083D01*
G01X7968Y4135D01*
G01X7798Y4135D01*
G01X7771Y4136D01*
G01X7748Y4141D01*
G01X7730Y4149D01*
G01X7717Y4160D01*
G01X7708Y4172D01*
G01X7701Y4186D01*
G01X7697Y4201D01*
G01X7695Y4218D01*
G01X7696Y4228D01*
G01X7698Y4237D01*
G01X7701Y4246D01*
G01X7705Y4255D01*
G01X7710Y4262D01*
G01X7716Y4268D01*
G01X7723Y4273D01*
G01X7730Y4277D01*
G01X7739Y4279D01*
G01X7750Y4281D01*
G01X7763Y4282D01*
G01X7778Y4283D01*
G01X7968Y4283D01*
G01X7968Y4335D01*
G37*

%LPD*%
G36*
G01X7970Y4528D02*
G01X7967Y4539D01*
G01X7921Y4531D01*
G01X7922Y4524D01*
G01X7923Y4518D01*
G01X7923Y4502D01*
G01X7922Y4498D01*
G01X7921Y4493D01*
G01X7917Y4487D01*
G01X7912Y4482D01*
G01X7909Y4481D01*
G01X7905Y4479D01*
G01X7899Y4478D01*
G01X7698Y4478D01*
G01X7698Y4531D01*
G01X7657Y4531D01*
G01X7657Y4478D01*
G01X7548Y4478D01*
G01X7580Y4426D01*
G01X7657Y4426D01*
G01X7657Y4387D01*
G01X7698Y4387D01*
G01X7698Y4426D01*
G01X7899Y4426D01*
G01X7916Y4427D01*
G01X7930Y4429D01*
G01X7939Y4432D01*
G01X7947Y4436D01*
G01X7953Y4441D01*
G01X7959Y4447D01*
G01X7967Y4463D01*
G01X7970Y4473D01*
G01X7972Y4485D01*
G01X7972Y4508D01*
G01X7970Y4528D01*
G37*

%LPD*%
G36*
G01X7968Y4658D02*
G01X7908Y4658D01*
G01X7908Y4598D01*
G01X7968Y4598D01*
G01X7968Y4658D01*
G37*

%LPD*%
G36*
G01X7887Y4999D02*
G01X7861Y5005D01*
G01X7854Y4953D01*
G01X7873Y4949D01*
G01X7888Y4943D01*
G01X7902Y4935D01*
G01X7912Y4926D01*
G01X7921Y4915D01*
G01X7927Y4903D01*
G01X7930Y4889D01*
G01X7931Y4874D01*
G01X7930Y4856D01*
G01X7924Y4839D01*
G01X7916Y4825D01*
G01X7903Y4812D01*
G01X7887Y4801D01*
G01X7867Y4794D01*
G01X7842Y4789D01*
G01X7812Y4788D01*
G01X7784Y4789D01*
G01X7759Y4794D01*
G01X7739Y4802D01*
G01X7722Y4813D01*
G01X7710Y4826D01*
G01X7701Y4841D01*
G01X7695Y4858D01*
G01X7693Y4877D01*
G01X7694Y4890D01*
G01X7697Y4901D01*
G01X7702Y4912D01*
G01X7709Y4922D01*
G01X7718Y4930D01*
G01X7729Y4938D01*
G01X7742Y4943D01*
G01X7756Y4948D01*
G01X7748Y5000D01*
G01X7726Y4993D01*
G01X7707Y4984D01*
G01X7690Y4972D01*
G01X7675Y4958D01*
G01X7665Y4941D01*
G01X7657Y4921D01*
G01X7652Y4899D01*
G01X7650Y4875D01*
G01X7652Y4855D01*
G01X7655Y4836D01*
G01X7661Y4818D01*
G01X7668Y4801D01*
G01X7679Y4785D01*
G01X7692Y4771D01*
G01X7708Y4759D01*
G01X7725Y4750D01*
G01X7745Y4743D01*
G01X7766Y4738D01*
G01X7789Y4735D01*
G01X7813Y4734D01*
G01X7882Y4743D01*
G01X7933Y4772D01*
G01X7965Y4817D01*
G01X7975Y4875D01*
G01X7974Y4899D01*
G01X7968Y4922D01*
G01X7958Y4942D01*
G01X7944Y4961D01*
G01X7928Y4977D01*
G01X7909Y4989D01*
G01X7887Y4999D01*
G37*

%LPD*%
G36*
G01X7968Y5101D02*
G01X7538Y5101D01*
G01X7538Y5048D01*
G01X7968Y5048D01*
G01X7968Y5101D01*
G37*

%LPD*%
G36*
G01X7968Y5434D02*
G01X7657Y5434D01*
G01X7657Y5381D01*
G01X7823Y5381D01*
G01X7842Y5380D01*
G01X7859Y5379D01*
G01X7873Y5376D01*
G01X7884Y5373D01*
G01X7894Y5367D01*
G01X7903Y5361D01*
G01X7911Y5352D01*
G01X7917Y5343D01*
G01X7923Y5332D01*
G01X7929Y5310D01*
G01X7929Y5287D01*
G01X7927Y5277D01*
G01X7923Y5267D01*
G01X7918Y5259D01*
G01X7912Y5251D01*
G01X7904Y5245D01*
G01X7895Y5241D01*
G01X7885Y5238D01*
G01X7876Y5236D01*
G01X7864Y5235D01*
G01X7657Y5235D01*
G01X7657Y5182D01*
G01X7865Y5182D01*
G01X7879Y5183D01*
G01X7890Y5183D01*
G01X7899Y5185D01*
G01X7911Y5188D01*
G01X7921Y5191D01*
G01X7930Y5196D01*
G01X7938Y5201D01*
G01X7946Y5207D01*
G01X7953Y5216D01*
G01X7959Y5225D01*
G01X7969Y5249D01*
G01X7973Y5261D01*
G01X7975Y5274D01*
G01X7975Y5288D01*
G01X7962Y5344D01*
G01X7922Y5387D01*
G01X7968Y5387D01*
G01X7968Y5434D01*
G37*

%LPD*%
G36*
G01X7878Y5776D02*
G01X7807Y5786D01*
G01X7791Y5785D01*
G01X7775Y5783D01*
G01X7760Y5781D01*
G01X7744Y5777D01*
G01X7730Y5771D01*
G01X7717Y5765D01*
G01X7705Y5758D01*
G01X7694Y5751D01*
G01X7685Y5742D01*
G01X7676Y5732D01*
G01X7668Y5721D01*
G01X7661Y5709D01*
G01X7657Y5696D01*
G01X7653Y5682D01*
G01X7651Y5668D01*
G01X7650Y5654D01*
G01X7661Y5606D01*
G01X7691Y5569D01*
G01X7538Y5569D01*
G01X7538Y5516D01*
G01X7968Y5516D01*
G01X7968Y5565D01*
G01X7929Y5565D01*
G01X7964Y5602D01*
G01X7975Y5652D01*
G01X7964Y5703D01*
G01X7931Y5747D01*
G01X7878Y5776D01*
G37*

%LPC*%
G36*
G01X7840Y5730D02*
G01X7812Y5732D01*
G01X7784Y5730D01*
G01X7759Y5726D01*
G01X7739Y5718D01*
G01X7722Y5708D01*
G01X7710Y5695D01*
G01X7701Y5681D01*
G01X7695Y5666D01*
G01X7693Y5650D01*
G01X7695Y5633D01*
G01X7701Y5617D01*
G01X7710Y5603D01*
G01X7723Y5590D01*
G01X7740Y5579D01*
G01X7760Y5571D01*
G01X7784Y5566D01*
G01X7810Y5565D01*
G01X7837Y5566D01*
G01X7859Y5568D01*
G01X7877Y5573D01*
G01X7891Y5580D01*
G01X7909Y5593D01*
G01X7921Y5609D01*
G01X7929Y5627D01*
G01X7931Y5647D01*
G01X7930Y5664D01*
G01X7924Y5679D01*
G01X7915Y5694D01*
G01X7901Y5707D01*
G01X7885Y5718D01*
G01X7864Y5725D01*
G01X7840Y5730D01*
G37*

%LPD*%
G75*
G01X469Y157D02*
G02X156Y469I0J312D01*
G01*
G75*
G01X767Y3007D02*
G03X919Y3159I0J152D01*
G01*
G75*
G01X919Y4340D02*
G03X767Y4492I-152J0D01*
G01*
G75*
G01X767Y10507D02*
G03X919Y10659I0J152D01*
G01*
G75*
G01X919Y11840D02*
G03X767Y11992I-152J0D01*
G01*
G75*
G01X768Y18008D02*
G03X919Y18159I0J151D01*
G01*
G75*
G01X919Y19341D02*
G03X768Y19492I-151J0D01*
G01*
G75*
G01X156Y22031D02*
G02X469Y22343I313J0D01*
G01*
G75*
G01X3008Y21732D02*
G03X3159Y21581I151J0D01*
G01*
G75*
G01X4341Y21581D02*
G03X4492Y21732I0J151D01*
G01*
G75*
G01X4925Y21338D02*
G03X4750Y21360I-175J-681D01*
G01*
G75*
G01X4750Y21360D02*
G03X4160Y21039I0J-703D01*
G01*
G75*
G01X4160Y21039D02*
G03X3750Y21251I-410J-289D01*
G01*
G75*
G01X3750Y21251D02*
G03X3340Y21039I0J-501D01*
G01*
G75*
G01X3340Y21039D02*
G03X2750Y21360I-590J-382D01*
G01*
G75*
G01X2750Y21360D02*
G03X2047Y20657I0J-703D01*
G01*
G75*
G01X1843Y20453D02*
G03X1140Y19750I0J-703D01*
G01*
G75*
G01X1140Y19750D02*
G03X1461Y19160I703J0D01*
G01*
G75*
G01X1461Y19160D02*
G03X1249Y18750I289J-410D01*
G01*
G75*
G01X1249Y18750D02*
G03X1461Y18340I501J0D01*
G01*
G75*
G01X1461Y18340D02*
G03X1140Y17750I382J-590D01*
G01*
G75*
G01X1140Y17750D02*
G03X1843Y17047I703J0D01*
G01*
G75*
G01X2047Y16843D02*
G03X2548Y16169I703J0D01*
G01*
G75*
G01X2469Y15958D02*
G03X2306Y15986I-163J-448D01*
G01*
G75*
G01X2306Y15986D02*
G03X1829Y15510I0J-476D01*
G01*
G75*
G01X1829Y15510D02*
G03X2306Y15034I477J0D01*
G01*
G75*
G01X2306Y15034D02*
G03X2782Y15510I0J476D01*
G01*
G75*
G01X2782Y15510D02*
G03X2754Y15673I-476J0D01*
G01*
G75*
G01X2892Y15812D02*
G03X2951Y15955I-142J142D01*
G01*
G75*
G01X2951Y16169D02*
G03X3340Y16461I-201J674D01*
G01*
G75*
G01X3340Y16461D02*
G03X3750Y16249I410J289D01*
G01*
G75*
G01X3750Y16249D02*
G03X4160Y16461I0J501D01*
G01*
G75*
G01X4160Y16461D02*
G03X4750Y16140I590J382D01*
G01*
G75*
G01X4750Y16140D02*
G03X5453Y16843I0J703D01*
G01*
G75*
G01X5658Y17047D02*
G03X6125Y17226I0J703D01*
G01*
G75*
G01X5116Y16088D02*
G03X5061Y15987I143J-142D01*
G01*
G75*
G01X4934Y15987D02*
G03X4782Y15835I0J-152D01*
G01*
G75*
G01X4782Y15185D02*
G03X4934Y15034I152J0D01*
G01*
G75*
G01X5061Y15034D02*
G03X5116Y14932I198J40D01*
G01*
G75*
G01X6129Y12770D02*
G03X5657Y12952I-472J-520D01*
G01*
G75*
G01X5452Y13157D02*
G03X4750Y13860I-702J0D01*
G01*
G75*
G01X4750Y13860D02*
G03X4160Y13538I0J-703D01*
G01*
G75*
G01X4160Y13538D02*
G03X3750Y13751I-410J-288D01*
G01*
G75*
G01X3750Y13751D02*
G03X3340Y13538I0J-501D01*
G01*
G75*
G01X3340Y13538D02*
G03X2750Y13860I-590J-381D01*
G01*
G75*
G01X2750Y13860D02*
G03X2047Y13157I0J-703D01*
G01*
G75*
G01X1842Y12952D02*
G03X1140Y12249I0J-703D01*
G01*
G75*
G01X1140Y12249D02*
G03X1461Y11659I702J0D01*
G01*
G75*
G01X1461Y11659D02*
G03X1248Y11249I289J-409D01*
G01*
G75*
G01X1248Y11249D02*
G03X1461Y10840I502J0D01*
G01*
G75*
G01X1461Y10840D02*
G03X1140Y10249I381J-590D01*
G01*
G75*
G01X1140Y10249D02*
G03X1842Y9547I702J0D01*
G01*
G75*
G01X2047Y9342D02*
G03X2548Y8669I703J0D01*
G01*
G75*
G01X2469Y8457D02*
G03X2306Y8486I-163J-448D01*
G01*
G75*
G01X2306Y8486D02*
G03X1829Y8009I0J-476D01*
G01*
G75*
G01X1829Y8009D02*
G03X2306Y7533I477J0D01*
G01*
G75*
G01X2306Y7533D02*
G03X2782Y8009I0J476D01*
G01*
G75*
G01X2782Y8009D02*
G03X2753Y8172I-476J0D01*
G01*
G75*
G01X2892Y8311D02*
G03X2951Y8453I-142J143D01*
G01*
G75*
G01X2951Y8669D02*
G03X3340Y8961I-201J673D01*
G01*
G75*
G01X3340Y8961D02*
G03X3750Y8748I410J288D01*
G01*
G75*
G01X3750Y8748D02*
G03X4160Y8961I0J501D01*
G01*
G75*
G01X4160Y8961D02*
G03X4750Y8639I590J381D01*
G01*
G75*
G01X4750Y8639D02*
G03X5452Y9342I0J703D01*
G01*
G75*
G01X5657Y9547D02*
G03X6129Y9729I0J702D01*
G01*
G75*
G01X5116Y8588D02*
G03X5061Y8486I143J-143D01*
G01*
G75*
G01X4933Y8486D02*
G03X4782Y8335I0J-151D01*
G01*
G75*
G01X4782Y7685D02*
G03X4933Y7533I151J0D01*
G01*
G75*
G01X5061Y7533D02*
G03X5116Y7431I198J40D01*
G01*
G75*
G01X6129Y5270D02*
G03X5657Y5452I-472J-520D01*
G01*
G75*
G01X5452Y5657D02*
G03X4750Y6360I-702J0D01*
G01*
G75*
G01X4750Y6360D02*
G03X4160Y6038I0J-703D01*
G01*
G75*
G01X4160Y6038D02*
G03X3750Y6251I-410J-288D01*
G01*
G75*
G01X3750Y6251D02*
G03X3340Y6038I0J-501D01*
G01*
G75*
G01X3340Y6038D02*
G03X2750Y6360I-590J-381D01*
G01*
G75*
G01X2750Y6360D02*
G03X2047Y5657I0J-703D01*
G01*
G75*
G01X1842Y5452D02*
G03X1140Y4749I0J-703D01*
G01*
G75*
G01X1140Y4749D02*
G03X1461Y4159I702J0D01*
G01*
G75*
G01X1461Y4159D02*
G03X1248Y3749I289J-409D01*
G01*
G75*
G01X1248Y3749D02*
G03X1461Y3340I502J0D01*
G01*
G75*
G01X1461Y3340D02*
G03X1140Y2749I381J-590D01*
G01*
G75*
G01X1140Y2749D02*
G03X1842Y2047I702J0D01*
G01*
G75*
G01X2047Y1842D02*
G03X2104Y1564I703J0D01*
G01*
G75*
G01X2104Y1564D02*
G03X2104Y1555I202J-9D01*
G01*
G75*
G01X2104Y941D02*
G03X1829Y509I202J-432D01*
G01*
G75*
G01X1829Y509D02*
G03X1986Y157I477J0D01*
G01*
G75*
G01X9329Y509D02*
G03X9486Y157I477J0D01*
G01*
G75*
G01X5732Y157D02*
G03X5735Y185I-149J28D01*
G01*
G75*
G01X5735Y835D02*
G03X5584Y986I-152J0D01*
G01*
G75*
G01X6473Y1875D02*
G03X6508Y1923I-142J143D01*
G01*
G75*
G01X6508Y1923D02*
G03X6553Y1854I145J45D01*
G01*
G75*
G01X6505Y1807D02*
G03X6247Y1536I14J-272D01*
G01*
G75*
G01X6247Y1536D02*
G03X6519Y1264I272J0D01*
G01*
G75*
G01X6519Y1264D02*
G03X6790Y1521I0J271D01*
G01*
G75*
G01X6978Y1655D02*
G03X7175Y1816I0J201D01*
G01*
G75*
G01X7303Y1816D02*
G03X7391Y1845I0J152D01*
G01*
G75*
G01X7391Y1845D02*
G03X7538Y1731I147J37D01*
G01*
G75*
G01X8088Y1731D02*
G03X8240Y1882I0J151D01*
G01*
G75*
G01X8240Y5786D02*
G03X8088Y5938I-152J0D01*
G01*
G75*
G01X7538Y5938D02*
G03X7386Y5786I0J-152D01*
G01*
G75*
G01X7386Y5491D02*
G03X6978Y5722I-408J-245D01*
G01*
G75*
G01X6978Y5722D02*
G03X6532Y5414I0J-476D01*
G01*
G75*
G01X6532Y6501D02*
G03X6473Y6644I-201J0D01*
G01*
G75*
G01X5584Y7533D02*
G03X5735Y7685I-1J152D01*
G01*
G75*
G01X5735Y8335D02*
G03X5584Y8486I-152J0D01*
G01*
G75*
G01X6473Y9375D02*
G03X6508Y9423I-142J143D01*
G01*
G75*
G01X6508Y9423D02*
G03X6653Y9316I145J45D01*
G01*
G75*
G01X7303Y9316D02*
G03X7344Y9322I0J152D01*
G01*
G75*
G01X7344Y7969D02*
G03X7969Y7343I625J0D01*
G01*
G75*
G01X10508Y6732D02*
G03X10659Y6580I151J0D01*
G01*
G75*
G01X11840Y6580D02*
G03X11992Y6732I0J152D01*
G01*
G75*
G01X14531Y7343D02*
G02X14844Y7031I0J-312D01*
G01*
G75*
G01X14844Y5551D02*
G03X14478Y5722I-366J-305D01*
G01*
G75*
G01X14478Y5722D02*
G03X14002Y5246I0J-476D01*
G01*
G75*
G01X14002Y5246D02*
G03X14030Y5083I476J0D01*
G01*
G75*
G01X13844Y4897D02*
G03X13157Y5452I-687J-147D01*
G01*
G75*
G01X12952Y5657D02*
G03X12250Y6360I-702J0D01*
G01*
G75*
G01X12250Y6360D02*
G03X11660Y6038I0J-703D01*
G01*
G75*
G01X11660Y6038D02*
G03X11250Y6251I-410J-288D01*
G01*
G75*
G01X11250Y6251D02*
G03X10840Y6038I0J-501D01*
G01*
G75*
G01X10840Y6038D02*
G03X10250Y6360I-590J-381D01*
G01*
G75*
G01X10250Y6360D02*
G03X9547Y5657I0J-703D01*
G01*
G75*
G01X9342Y5452D02*
G03X8640Y4749I0J-703D01*
G01*
G75*
G01X8640Y4749D02*
G03X8961Y4159I702J0D01*
G01*
G75*
G01X8961Y4159D02*
G03X8748Y3749I289J-409D01*
G01*
G75*
G01X8748Y3749D02*
G03X8961Y3340I502J0D01*
G01*
G75*
G01X8961Y3340D02*
G03X8640Y2749I381J-590D01*
G01*
G75*
G01X8640Y2749D02*
G03X9342Y2047I702J0D01*
G01*
G75*
G01X9547Y1842D02*
G03X9604Y1564I703J0D01*
G01*
G75*
G01X9604Y1564D02*
G03X9604Y1555I202J-9D01*
G01*
G75*
G01X9604Y941D02*
G03X9329Y509I202J-432D01*
G01*
G75*
G01X10126Y157D02*
G03X10282Y509I-320J352D01*
G01*
G75*
G01X10282Y509D02*
G03X10007Y941I-476J1D01*
G01*
G75*
G01X10007Y1183D02*
G03X10250Y1139I243J659D01*
G01*
G75*
G01X10250Y1139D02*
G03X10840Y1461I0J703D01*
G01*
G75*
G01X10840Y1461D02*
G03X11250Y1248I410J288D01*
G01*
G75*
G01X11250Y1248D02*
G03X11660Y1461I0J501D01*
G01*
G75*
G01X11660Y1461D02*
G03X12250Y1139I590J381D01*
G01*
G75*
G01X12250Y1139D02*
G03X12952Y1842I0J703D01*
G01*
G75*
G01X13157Y2047D02*
G03X13860Y2749I0J702D01*
G01*
G75*
G01X13860Y2749D02*
G03X13714Y3179I-703J0D01*
G01*
G75*
G01X14081Y3159D02*
G03X14232Y3007I151J0D01*
G01*
G75*
G01X14292Y3007D02*
G03X14276Y2930I186J-77D01*
G01*
G75*
G01X14153Y2769D02*
G03X14002Y2618I0J-151D01*
G01*
G75*
G01X14002Y1968D02*
G03X14153Y1816I151J0D01*
G01*
G75*
G01X14803Y1816D02*
G03X14844Y1822I0J152D01*
G01*
G75*
G01X14844Y469D02*
G02X14531Y157I-313J0D01*
G01*
G75*
G01X13232Y157D02*
G03X13235Y185I-149J28D01*
G01*
G75*
G01X13235Y835D02*
G03X13083Y986I-152J0D01*
G01*
G75*
G01X12433Y986D02*
G03X12282Y835I0J-151D01*
G01*
G75*
G01X12282Y185D02*
G03X12285Y157I151J0D01*
G01*
G75*
G01X11992Y767D02*
G03X11840Y919I-152J0D01*
G01*
G75*
G01X10659Y919D02*
G03X10508Y767I0J-152D01*
G01*
G75*
G01X2626Y157D02*
G03X2782Y509I-320J352D01*
G01*
G75*
G01X2782Y509D02*
G03X2507Y941I-476J1D01*
G01*
G75*
G01X2507Y1183D02*
G03X2750Y1139I243J659D01*
G01*
G75*
G01X2750Y1139D02*
G03X3340Y1461I0J703D01*
G01*
G75*
G01X3340Y1461D02*
G03X3750Y1248I410J288D01*
G01*
G75*
G01X3750Y1248D02*
G03X4160Y1461I0J501D01*
G01*
G75*
G01X4160Y1461D02*
G03X4750Y1139I590J381D01*
G01*
G75*
G01X4750Y1139D02*
G03X5452Y1842I0J703D01*
G01*
G75*
G01X5657Y2047D02*
G03X6129Y2229I0J702D01*
G01*
G75*
G01X5116Y1088D02*
G03X5061Y986I143J-143D01*
G01*
G75*
G01X4933Y986D02*
G03X4782Y835I0J-151D01*
G01*
G75*
G01X4782Y185D02*
G03X4785Y157I151J0D01*
G01*
G75*
G01X4492Y767D02*
G03X4340Y919I-152J0D01*
G01*
G75*
G01X3159Y919D02*
G03X3008Y767I0J-152D01*
G01*
G75*
G01X3452Y2157D02*
G03X2852Y2852I-702J0D01*
G01*
G75*
G01X2852Y2852D02*
G03X2157Y3452I-695J-102D01*
G01*
G75*
G01X2154Y3452D02*
G03X2251Y3749I-404J298D01*
G01*
G75*
G01X2251Y3749D02*
G03X2154Y4047I-501J0D01*
G01*
G75*
G01X2157Y4047D02*
G03X2852Y4647I0J702D01*
G01*
G75*
G01X2852Y4647D02*
G03X3423Y5140I-102J695D01*
G01*
G75*
G01X3869Y4694D02*
G03X3750Y4701I-119J-944D01*
G01*
G75*
G01X3750Y4701D02*
G03X2798Y3749I0J-951D01*
G01*
G75*
G01X2798Y3749D02*
G03X3750Y2798I952J1D01*
G01*
G75*
G01X3750Y2798D02*
G03X4701Y3749I0J952D01*
G01*
G75*
G01X4701Y3749D02*
G03X4694Y3869I-951J0D01*
G01*
G75*
G01X5087Y3404D02*
G03X4647Y2852I255J-654D01*
G01*
G75*
G01X4647Y2852D02*
G03X4047Y2157I103J-695D01*
G01*
G75*
G01X4047Y2153D02*
G03X3750Y2251I-297J-403D01*
G01*
G75*
G01X3750Y2251D02*
G03X3452Y2153I0J-501D01*
G01*
G75*
G01X10952Y2157D02*
G03X10352Y2852I-702J0D01*
G01*
G75*
G01X10352Y2852D02*
G03X9657Y3452I-695J-102D01*
G01*
G75*
G01X9654Y3452D02*
G03X9751Y3749I-404J298D01*
G01*
G75*
G01X9751Y3749D02*
G03X9654Y4047I-501J0D01*
G01*
G75*
G01X9657Y4047D02*
G03X10352Y4647I0J702D01*
G01*
G75*
G01X10352Y4647D02*
G03X10952Y5342I-102J695D01*
G01*
G75*
G01X10952Y5346D02*
G03X11250Y5248I298J403D01*
G01*
G75*
G01X11250Y5248D02*
G03X11547Y5346I0J501D01*
G01*
G75*
G01X11547Y5342D02*
G03X12147Y4647I703J0D01*
G01*
G75*
G01X12147Y4647D02*
G03X12842Y4047I695J102D01*
G01*
G75*
G01X12846Y4047D02*
G03X12748Y3749I404J-298D01*
G01*
G75*
G01X12748Y3749D02*
G03X12846Y3452I502J1D01*
G01*
G75*
G01X12842Y3452D02*
G03X12147Y2852I0J-702D01*
G01*
G75*
G01X12147Y2852D02*
G03X11547Y2157I103J-695D01*
G01*
G75*
G01X11547Y2153D02*
G03X11250Y2251I-297J-403D01*
G01*
G75*
G01X11250Y2251D02*
G03X10952Y2153I0J-501D01*
G01*
G75*
G01X11250Y2798D02*
G03X12201Y3749I0J952D01*
G01*
G75*
G01X12201Y3749D02*
G03X11250Y4701I-951J1D01*
G01*
G75*
G01X11250Y4701D02*
G03X10298Y3749I0J-951D01*
G01*
G75*
G01X10298Y3749D02*
G03X11250Y2798I952J1D01*
G01*
G75*
G01X6532Y5078D02*
G03X6978Y4769I446J168D01*
G01*
G75*
G01X6978Y4769D02*
G03X7386Y5000I0J477D01*
G01*
G75*
G01X7386Y2744D02*
G03X7303Y2769I-83J-126D01*
G01*
G75*
G01X6653Y2769D02*
G03X6532Y2709I0J-151D01*
G01*
G75*
G01X14844Y2764D02*
G03X14803Y2769I-41J-146D01*
G01*
G75*
G01X14739Y2904D02*
G03X14794Y3007I-142J143D01*
G01*
G75*
G01X6129Y3270D02*
G03X6039Y3340I-472J-521D01*
G01*
G75*
G01X6039Y3340D02*
G03X6129Y3422I-289J409D01*
G01*
G75*
G01X13750Y3785D02*
G03X13539Y4159I-500J-35D01*
G01*
G75*
G01X13539Y4159D02*
G03X13771Y4408I-382J590D01*
G01*
G75*
G01X4992Y4141D02*
G03X5342Y4047I350J608D01*
G01*
G75*
G01X5346Y4047D02*
G03X5263Y3869I404J-298D01*
G01*
G75*
G01X6129Y4077D02*
G03X6039Y4159I-379J-327D01*
G01*
G75*
G01X6039Y4159D02*
G03X6129Y4229I-382J591D01*
G01*
G75*
G01X4647Y4647D02*
G03X4733Y4399I695J102D01*
G01*
G75*
G01X4399Y4733D02*
G03X4647Y4647I351J609D01*
G01*
G75*
G01X14232Y4492D02*
G03X14174Y4480I0J-152D01*
G01*
G75*
G01X14315Y4798D02*
G03X14478Y4769I163J448D01*
G01*
G75*
G01X14478Y4769D02*
G03X14844Y4940I0J477D01*
G01*
G75*
G01X4047Y5342D02*
G03X4141Y4991I703J0D01*
G01*
G75*
G01X3870Y5263D02*
G03X4047Y5346I-120J487D01*
G01*
G75*
G01X3452Y9657D02*
G03X2852Y10352I-702J0D01*
G01*
G75*
G01X2852Y10352D02*
G03X2157Y10952I-695J-102D01*
G01*
G75*
G01X2154Y10952D02*
G03X2251Y11249I-404J298D01*
G01*
G75*
G01X2251Y11249D02*
G03X2154Y11547I-501J0D01*
G01*
G75*
G01X2157Y11547D02*
G03X2852Y12147I0J702D01*
G01*
G75*
G01X2852Y12147D02*
G03X3423Y12640I-102J695D01*
G01*
G75*
G01X3869Y12194D02*
G03X3750Y12201I-119J-944D01*
G01*
G75*
G01X3750Y12201D02*
G03X2798Y11249I0J-951D01*
G01*
G75*
G01X2798Y11249D02*
G03X3750Y10298I952J1D01*
G01*
G75*
G01X3750Y10298D02*
G03X4701Y11249I0J952D01*
G01*
G75*
G01X4701Y11249D02*
G03X4694Y11369I-951J0D01*
G01*
G75*
G01X5087Y10904D02*
G03X4647Y10352I255J-654D01*
G01*
G75*
G01X4647Y10352D02*
G03X4047Y9657I103J-695D01*
G01*
G75*
G01X4047Y9653D02*
G03X3750Y9751I-297J-403D01*
G01*
G75*
G01X3750Y9751D02*
G03X3452Y9653I0J-501D01*
G01*
G75*
G01X6532Y12578D02*
G03X6978Y12269I446J168D01*
G01*
G75*
G01X6978Y12269D02*
G03X7344Y12440I0J477D01*
G01*
G75*
G01X6732Y11992D02*
G03X6581Y11840I0J-152D01*
G01*
G75*
G01X6581Y10659D02*
G03X6732Y10507I151J0D01*
G01*
G75*
G01X6792Y10507D02*
G03X6776Y10430I186J-77D01*
G01*
G75*
G01X6653Y10269D02*
G03X6532Y10209I0J-151D01*
G01*
G75*
G01X7344Y10264D02*
G03X7303Y10269I-41J-146D01*
G01*
G75*
G01X7239Y10404D02*
G03X7294Y10507I-142J143D01*
G01*
G75*
G01X6129Y10770D02*
G03X6039Y10840I-472J-521D01*
G01*
G75*
G01X6039Y10840D02*
G03X6129Y10922I-289J409D01*
G01*
G75*
G01X4992Y11641D02*
G03X5342Y11547I350J608D01*
G01*
G75*
G01X5346Y11547D02*
G03X5263Y11369I404J-298D01*
G01*
G75*
G01X6129Y11577D02*
G03X6039Y11659I-379J-327D01*
G01*
G75*
G01X6039Y11659D02*
G03X6129Y11729I-382J591D01*
G01*
G75*
G01X4647Y12147D02*
G03X4733Y11899I695J102D01*
G01*
G75*
G01X4399Y12233D02*
G03X4647Y12147I351J609D01*
G01*
G75*
G01X4047Y12842D02*
G03X4141Y12491I703J0D01*
G01*
G75*
G01X3870Y12763D02*
G03X4047Y12846I-120J487D01*
G01*
G75*
G01X6978Y13222D02*
G03X6532Y12914I0J-476D01*
G01*
G75*
G01X6532Y14003D02*
G03X6473Y14145I-201J-1D01*
G01*
G75*
G01X5585Y15034D02*
G03X5735Y15185I-1J151D01*
G01*
G75*
G01X5735Y15835D02*
G03X5585Y15987I-151J0D01*
G01*
G75*
G01X6469Y16872D02*
G03X6508Y16926I-142J143D01*
G01*
G75*
G01X6508Y16926D02*
G03X6653Y16817I145J42D01*
G01*
G75*
G01X7303Y16817D02*
G03X7344Y16822I0J151D01*
G01*
G75*
G01X7344Y13051D02*
G03X6978Y13222I-366J-305D01*
G01*
G75*
G01X3453Y17157D02*
G03X2853Y17853I-703J0D01*
G01*
G75*
G01X2853Y17853D02*
G03X2158Y18453I-695J-103D01*
G01*
G75*
G01X2154Y18453D02*
G03X2252Y18750I-404J297D01*
G01*
G75*
G01X2252Y18750D02*
G03X2154Y19047I-502J0D01*
G01*
G75*
G01X2158Y19047D02*
G03X2853Y19647I0J703D01*
G01*
G75*
G01X2853Y19647D02*
G03X3453Y20343I-103J696D01*
G01*
G75*
G01X3453Y20346D02*
G03X3750Y20249I297J404D01*
G01*
G75*
G01X3750Y20249D02*
G03X4047Y20346I0J501D01*
G01*
G75*
G01X4047Y20343D02*
G03X4647Y19647I703J0D01*
G01*
G75*
G01X4647Y19647D02*
G03X5343Y19047I696J103D01*
G01*
G75*
G01X5346Y19047D02*
G03X5249Y18750I404J-297D01*
G01*
G75*
G01X5249Y18750D02*
G03X5346Y18453I501J0D01*
G01*
G75*
G01X5343Y18453D02*
G03X4647Y17853I0J-703D01*
G01*
G75*
G01X4647Y17853D02*
G03X4047Y17157I103J-696D01*
G01*
G75*
G01X4047Y17154D02*
G03X3750Y17251I-297J-404D01*
G01*
G75*
G01X3750Y17251D02*
G03X3453Y17154I0J-501D01*
G01*
G75*
G01X3750Y17799D02*
G03X4702Y18750I0J951D01*
G01*
G75*
G01X4702Y18750D02*
G03X3750Y19701I-952J0D01*
G01*
G75*
G01X3750Y19701D02*
G03X2799Y18750I0J-951D01*
G01*
G75*
G01X2799Y18750D02*
G03X3750Y17799I951J0D01*
G01*
G75*
G01X6528Y20090D02*
G03X6978Y19770I450J156D01*
G01*
G75*
G01X6978Y19770D02*
G03X7344Y19940I0J476D01*
G01*
G75*
G01X6732Y19492D02*
G03X6581Y19341I0J-151D01*
G01*
G75*
G01X6581Y18159D02*
G03X6732Y18008I151J0D01*
G01*
G75*
G01X6793Y18008D02*
G03X6777Y17930I186J-77D01*
G01*
G75*
G01X6653Y17770D02*
G03X6528Y17704I0J-152D01*
G01*
G75*
G01X7344Y17764D02*
G03X7303Y17770I-41J-146D01*
G01*
G75*
G01X7239Y17906D02*
G03X7294Y18008I-142J143D01*
G01*
G75*
G01X6125Y18274D02*
G03X6039Y18340I-467J-524D01*
G01*
G75*
G01X6039Y18340D02*
G03X6125Y18417I-289J410D01*
G01*
G75*
G01X6125Y19083D02*
G03X6039Y19160I-375J-333D01*
G01*
G75*
G01X6039Y19160D02*
G03X6125Y19226I-381J590D01*
G01*
G75*
G01X6506Y20312D02*
G03X6469Y20363I-179J-92D01*
G01*
G75*
G01X4594Y22239D02*
G03X4492Y22294I-142J-142D01*
G01*
G75*
G01X7031Y22343D02*
G02X7344Y22031I0J-312D01*
G01*
G75*
G01X7344Y20552D02*
G03X6978Y20723I-366J-306D01*
G01*
G75*
G01X6978Y20723D02*
G03X6506Y20312I0J-477D01*
G01*
G75*
G01X5832Y20431D02*
G03X5658Y20453I-174J-681D01*
G01*
G75*
G01X5453Y20657D02*
G03X5431Y20832I-703J0D01*
G01*
G75*
G01X469Y157D02*
G02X156Y469I0J312D01*
G01*
G75*
G01X767Y3007D02*
G03X919Y3159I0J152D01*
G01*
G75*
G01X919Y4340D02*
G03X767Y4492I-152J0D01*
G01*
G75*
G01X767Y10507D02*
G03X919Y10659I0J152D01*
G01*
G75*
G01X919Y11840D02*
G03X767Y11992I-152J0D01*
G01*
G75*
G01X768Y18008D02*
G03X919Y18159I0J151D01*
G01*
G75*
G01X919Y19341D02*
G03X768Y19492I-151J0D01*
G01*
G75*
G01X156Y22031D02*
G02X469Y22343I313J0D01*
G01*
G75*
G01X3008Y21732D02*
G03X3159Y21581I151J0D01*
G01*
G75*
G01X4341Y21581D02*
G03X4492Y21732I0J151D01*
G01*
G75*
G01X4925Y21338D02*
G03X4750Y21360I-175J-681D01*
G01*
G75*
G01X4750Y21360D02*
G03X4160Y21039I0J-703D01*
G01*
G75*
G01X4160Y21039D02*
G03X3750Y21251I-410J-289D01*
G01*
G75*
G01X3750Y21251D02*
G03X3340Y21039I0J-501D01*
G01*
G75*
G01X3340Y21039D02*
G03X2750Y21360I-590J-382D01*
G01*
G75*
G01X2750Y21360D02*
G03X2047Y20657I0J-703D01*
G01*
G75*
G01X1843Y20453D02*
G03X1140Y19750I0J-703D01*
G01*
G75*
G01X1140Y19750D02*
G03X1461Y19160I703J0D01*
G01*
G75*
G01X1461Y19160D02*
G03X1249Y18750I289J-410D01*
G01*
G75*
G01X1249Y18750D02*
G03X1461Y18340I501J0D01*
G01*
G75*
G01X1461Y18340D02*
G03X1140Y17750I382J-590D01*
G01*
G75*
G01X1140Y17750D02*
G03X1843Y17047I703J0D01*
G01*
G75*
G01X2047Y16843D02*
G03X2548Y16169I703J0D01*
G01*
G75*
G01X2469Y15958D02*
G03X2306Y15986I-163J-448D01*
G01*
G75*
G01X2306Y15986D02*
G03X1829Y15510I0J-476D01*
G01*
G75*
G01X1829Y15510D02*
G03X2306Y15034I477J0D01*
G01*
G75*
G01X2306Y15034D02*
G03X2782Y15510I0J476D01*
G01*
G75*
G01X2782Y15510D02*
G03X2754Y15673I-476J0D01*
G01*
G75*
G01X2892Y15812D02*
G03X2951Y15955I-142J142D01*
G01*
G75*
G01X2951Y16169D02*
G03X3340Y16461I-201J674D01*
G01*
G75*
G01X3340Y16461D02*
G03X3750Y16249I410J289D01*
G01*
G75*
G01X3750Y16249D02*
G03X4160Y16461I0J501D01*
G01*
G75*
G01X4160Y16461D02*
G03X4750Y16140I590J382D01*
G01*
G75*
G01X4750Y16140D02*
G03X5453Y16843I0J703D01*
G01*
G75*
G01X5658Y17047D02*
G03X6125Y17226I0J703D01*
G01*
G75*
G01X5116Y16088D02*
G03X5061Y15987I143J-142D01*
G01*
G75*
G01X4934Y15987D02*
G03X4782Y15835I0J-152D01*
G01*
G75*
G01X4782Y15185D02*
G03X4934Y15034I152J0D01*
G01*
G75*
G01X5061Y15034D02*
G03X5116Y14932I198J40D01*
G01*
G75*
G01X6129Y12770D02*
G03X5657Y12952I-472J-520D01*
G01*
G75*
G01X5452Y13157D02*
G03X4750Y13860I-702J0D01*
G01*
G75*
G01X4750Y13860D02*
G03X4160Y13538I0J-703D01*
G01*
G75*
G01X4160Y13538D02*
G03X3750Y13751I-410J-288D01*
G01*
G75*
G01X3750Y13751D02*
G03X3340Y13538I0J-501D01*
G01*
G75*
G01X3340Y13538D02*
G03X2750Y13860I-590J-381D01*
G01*
G75*
G01X2750Y13860D02*
G03X2047Y13157I0J-703D01*
G01*
G75*
G01X1842Y12952D02*
G03X1140Y12249I0J-703D01*
G01*
G75*
G01X1140Y12249D02*
G03X1461Y11659I702J0D01*
G01*
G75*
G01X1461Y11659D02*
G03X1248Y11249I289J-409D01*
G01*
G75*
G01X1248Y11249D02*
G03X1461Y10840I502J0D01*
G01*
G75*
G01X1461Y10840D02*
G03X1140Y10249I381J-590D01*
G01*
G75*
G01X1140Y10249D02*
G03X1842Y9547I702J0D01*
G01*
G75*
G01X2047Y9342D02*
G03X2548Y8669I703J0D01*
G01*
G75*
G01X2469Y8457D02*
G03X2306Y8486I-163J-448D01*
G01*
G75*
G01X2306Y8486D02*
G03X1829Y8009I0J-476D01*
G01*
G75*
G01X1829Y8009D02*
G03X2306Y7533I477J0D01*
G01*
G75*
G01X2306Y7533D02*
G03X2782Y8009I0J476D01*
G01*
G75*
G01X2782Y8009D02*
G03X2753Y8172I-476J0D01*
G01*
G75*
G01X2892Y8311D02*
G03X2951Y8453I-142J143D01*
G01*
G75*
G01X2951Y8669D02*
G03X3340Y8961I-201J673D01*
G01*
G75*
G01X3340Y8961D02*
G03X3750Y8748I410J288D01*
G01*
G75*
G01X3750Y8748D02*
G03X4160Y8961I0J501D01*
G01*
G75*
G01X4160Y8961D02*
G03X4750Y8639I590J381D01*
G01*
G75*
G01X4750Y8639D02*
G03X5452Y9342I0J703D01*
G01*
G75*
G01X5657Y9547D02*
G03X6129Y9729I0J702D01*
G01*
G75*
G01X5116Y8588D02*
G03X5061Y8486I143J-143D01*
G01*
G75*
G01X4933Y8486D02*
G03X4782Y8335I0J-151D01*
G01*
G75*
G01X4782Y7685D02*
G03X4933Y7533I151J0D01*
G01*
G75*
G01X5061Y7533D02*
G03X5116Y7431I198J40D01*
G01*
G75*
G01X6129Y5270D02*
G03X5657Y5452I-472J-520D01*
G01*
G75*
G01X5452Y5657D02*
G03X4750Y6360I-702J0D01*
G01*
G75*
G01X4750Y6360D02*
G03X4160Y6038I0J-703D01*
G01*
G75*
G01X4160Y6038D02*
G03X3750Y6251I-410J-288D01*
G01*
G75*
G01X3750Y6251D02*
G03X3340Y6038I0J-501D01*
G01*
G75*
G01X3340Y6038D02*
G03X2750Y6360I-590J-381D01*
G01*
G75*
G01X2750Y6360D02*
G03X2047Y5657I0J-703D01*
G01*
G75*
G01X1842Y5452D02*
G03X1140Y4749I0J-703D01*
G01*
G75*
G01X1140Y4749D02*
G03X1461Y4159I702J0D01*
G01*
G75*
G01X1461Y4159D02*
G03X1248Y3749I289J-409D01*
G01*
G75*
G01X1248Y3749D02*
G03X1461Y3340I502J0D01*
G01*
G75*
G01X1461Y3340D02*
G03X1140Y2749I381J-590D01*
G01*
G75*
G01X1140Y2749D02*
G03X1842Y2047I702J0D01*
G01*
G75*
G01X2047Y1842D02*
G03X2104Y1564I703J0D01*
G01*
G75*
G01X2104Y1564D02*
G03X2104Y1555I202J-9D01*
G01*
G75*
G01X2104Y941D02*
G03X1829Y509I202J-432D01*
G01*
G75*
G01X1829Y509D02*
G03X1986Y157I477J0D01*
G01*
G75*
G01X9329Y509D02*
G03X9486Y157I477J0D01*
G01*
G75*
G01X5732Y157D02*
G03X5735Y185I-149J28D01*
G01*
G75*
G01X5735Y835D02*
G03X5584Y986I-152J0D01*
G01*
G75*
G01X6473Y1875D02*
G03X6508Y1923I-142J143D01*
G01*
G75*
G01X6508Y1923D02*
G03X6553Y1854I145J45D01*
G01*
G75*
G01X6505Y1807D02*
G03X6247Y1536I14J-272D01*
G01*
G75*
G01X6247Y1536D02*
G03X6519Y1264I272J0D01*
G01*
G75*
G01X6519Y1264D02*
G03X6790Y1521I0J271D01*
G01*
G75*
G01X6978Y1655D02*
G03X7175Y1816I0J201D01*
G01*
G75*
G01X7303Y1816D02*
G03X7391Y1845I0J152D01*
G01*
G75*
G01X7391Y1845D02*
G03X7538Y1731I147J37D01*
G01*
G75*
G01X8088Y1731D02*
G03X8240Y1882I0J151D01*
G01*
G75*
G01X8240Y5786D02*
G03X8088Y5938I-152J0D01*
G01*
G75*
G01X7538Y5938D02*
G03X7386Y5786I0J-152D01*
G01*
G75*
G01X7386Y5491D02*
G03X6978Y5722I-408J-245D01*
G01*
G75*
G01X6978Y5722D02*
G03X6532Y5414I0J-476D01*
G01*
G75*
G01X6532Y6501D02*
G03X6473Y6644I-201J0D01*
G01*
G75*
G01X5584Y7533D02*
G03X5735Y7685I-1J152D01*
G01*
G75*
G01X5735Y8335D02*
G03X5584Y8486I-152J0D01*
G01*
G75*
G01X6473Y9375D02*
G03X6508Y9423I-142J143D01*
G01*
G75*
G01X6508Y9423D02*
G03X6653Y9316I145J45D01*
G01*
G75*
G01X7303Y9316D02*
G03X7344Y9322I0J152D01*
G01*
G75*
G01X7344Y7969D02*
G03X7969Y7343I625J0D01*
G01*
G75*
G01X10508Y6732D02*
G03X10659Y6580I151J0D01*
G01*
G75*
G01X11840Y6580D02*
G03X11992Y6732I0J152D01*
G01*
G75*
G01X14531Y7343D02*
G02X14844Y7031I0J-312D01*
G01*
G75*
G01X14844Y5551D02*
G03X14478Y5722I-366J-305D01*
G01*
G75*
G01X14478Y5722D02*
G03X14002Y5246I0J-476D01*
G01*
G75*
G01X14002Y5246D02*
G03X14030Y5083I476J0D01*
G01*
G75*
G01X13844Y4897D02*
G03X13157Y5452I-687J-147D01*
G01*
G75*
G01X12952Y5657D02*
G03X12250Y6360I-702J0D01*
G01*
G75*
G01X12250Y6360D02*
G03X11660Y6038I0J-703D01*
G01*
G75*
G01X11660Y6038D02*
G03X11250Y6251I-410J-288D01*
G01*
G75*
G01X11250Y6251D02*
G03X10840Y6038I0J-501D01*
G01*
G75*
G01X10840Y6038D02*
G03X10250Y6360I-590J-381D01*
G01*
G75*
G01X10250Y6360D02*
G03X9547Y5657I0J-703D01*
G01*
G75*
G01X9342Y5452D02*
G03X8640Y4749I0J-703D01*
G01*
G75*
G01X8640Y4749D02*
G03X8961Y4159I702J0D01*
G01*
G75*
G01X8961Y4159D02*
G03X8748Y3749I289J-409D01*
G01*
G75*
G01X8748Y3749D02*
G03X8961Y3340I502J0D01*
G01*
G75*
G01X8961Y3340D02*
G03X8640Y2749I381J-590D01*
G01*
G75*
G01X8640Y2749D02*
G03X9342Y2047I702J0D01*
G01*
G75*
G01X9547Y1842D02*
G03X9604Y1564I703J0D01*
G01*
G75*
G01X9604Y1564D02*
G03X9604Y1555I202J-9D01*
G01*
G75*
G01X9604Y941D02*
G03X9329Y509I202J-432D01*
G01*
G75*
G01X10126Y157D02*
G03X10282Y509I-320J352D01*
G01*
G75*
G01X10282Y509D02*
G03X10007Y941I-476J1D01*
G01*
G75*
G01X10007Y1183D02*
G03X10250Y1139I243J659D01*
G01*
G75*
G01X10250Y1139D02*
G03X10840Y1461I0J703D01*
G01*
G75*
G01X10840Y1461D02*
G03X11250Y1248I410J288D01*
G01*
G75*
G01X11250Y1248D02*
G03X11660Y1461I0J501D01*
G01*
G75*
G01X11660Y1461D02*
G03X12250Y1139I590J381D01*
G01*
G75*
G01X12250Y1139D02*
G03X12952Y1842I0J703D01*
G01*
G75*
G01X13157Y2047D02*
G03X13860Y2749I0J702D01*
G01*
G75*
G01X13860Y2749D02*
G03X13714Y3179I-703J0D01*
G01*
G75*
G01X14081Y3159D02*
G03X14232Y3007I151J0D01*
G01*
G75*
G01X14292Y3007D02*
G03X14276Y2930I186J-77D01*
G01*
G75*
G01X14153Y2769D02*
G03X14002Y2618I0J-151D01*
G01*
G75*
G01X14002Y1968D02*
G03X14153Y1816I151J0D01*
G01*
G75*
G01X14803Y1816D02*
G03X14844Y1822I0J152D01*
G01*
G75*
G01X14844Y469D02*
G02X14531Y157I-313J0D01*
G01*
G75*
G01X13232Y157D02*
G03X13235Y185I-149J28D01*
G01*
G75*
G01X13235Y835D02*
G03X13083Y986I-152J0D01*
G01*
G75*
G01X12433Y986D02*
G03X12282Y835I0J-151D01*
G01*
G75*
G01X12282Y185D02*
G03X12285Y157I151J0D01*
G01*
G75*
G01X11992Y767D02*
G03X11840Y919I-152J0D01*
G01*
G75*
G01X10659Y919D02*
G03X10508Y767I0J-152D01*
G01*
G75*
G01X2626Y157D02*
G03X2782Y509I-320J352D01*
G01*
G75*
G01X2782Y509D02*
G03X2507Y941I-476J1D01*
G01*
G75*
G01X2507Y1183D02*
G03X2750Y1139I243J659D01*
G01*
G75*
G01X2750Y1139D02*
G03X3340Y1461I0J703D01*
G01*
G75*
G01X3340Y1461D02*
G03X3750Y1248I410J288D01*
G01*
G75*
G01X3750Y1248D02*
G03X4160Y1461I0J501D01*
G01*
G75*
G01X4160Y1461D02*
G03X4750Y1139I590J381D01*
G01*
G75*
G01X4750Y1139D02*
G03X5452Y1842I0J703D01*
G01*
G75*
G01X5657Y2047D02*
G03X6129Y2229I0J702D01*
G01*
G75*
G01X5116Y1088D02*
G03X5061Y986I143J-143D01*
G01*
G75*
G01X4933Y986D02*
G03X4782Y835I0J-151D01*
G01*
G75*
G01X4782Y185D02*
G03X4785Y157I151J0D01*
G01*
G75*
G01X4492Y767D02*
G03X4340Y919I-152J0D01*
G01*
G75*
G01X3159Y919D02*
G03X3008Y767I0J-152D01*
G01*
G75*
G01X3452Y2157D02*
G03X2852Y2852I-702J0D01*
G01*
G75*
G01X2852Y2852D02*
G03X2157Y3452I-695J-102D01*
G01*
G75*
G01X2154Y3452D02*
G03X2251Y3749I-404J298D01*
G01*
G75*
G01X2251Y3749D02*
G03X2154Y4047I-501J0D01*
G01*
G75*
G01X2157Y4047D02*
G03X2852Y4647I0J702D01*
G01*
G75*
G01X2852Y4647D02*
G03X3423Y5140I-102J695D01*
G01*
G75*
G01X3869Y4694D02*
G03X3750Y4701I-119J-944D01*
G01*
G75*
G01X3750Y4701D02*
G03X2798Y3749I0J-951D01*
G01*
G75*
G01X2798Y3749D02*
G03X3750Y2798I952J1D01*
G01*
G75*
G01X3750Y2798D02*
G03X4701Y3749I0J952D01*
G01*
G75*
G01X4701Y3749D02*
G03X4694Y3869I-951J0D01*
G01*
G75*
G01X5087Y3404D02*
G03X4647Y2852I255J-654D01*
G01*
G75*
G01X4647Y2852D02*
G03X4047Y2157I103J-695D01*
G01*
G75*
G01X4047Y2153D02*
G03X3750Y2251I-297J-403D01*
G01*
G75*
G01X3750Y2251D02*
G03X3452Y2153I0J-501D01*
G01*
G75*
G01X10952Y2157D02*
G03X10352Y2852I-702J0D01*
G01*
G75*
G01X10352Y2852D02*
G03X9657Y3452I-695J-102D01*
G01*
G75*
G01X9654Y3452D02*
G03X9751Y3749I-404J298D01*
G01*
G75*
G01X9751Y3749D02*
G03X9654Y4047I-501J0D01*
G01*
G75*
G01X9657Y4047D02*
G03X10352Y4647I0J702D01*
G01*
G75*
G01X10352Y4647D02*
G03X10952Y5342I-102J695D01*
G01*
G75*
G01X10952Y5346D02*
G03X11250Y5248I298J403D01*
G01*
G75*
G01X11250Y5248D02*
G03X11547Y5346I0J501D01*
G01*
G75*
G01X11547Y5342D02*
G03X12147Y4647I703J0D01*
G01*
G75*
G01X12147Y4647D02*
G03X12842Y4047I695J102D01*
G01*
G75*
G01X12846Y4047D02*
G03X12748Y3749I404J-298D01*
G01*
G75*
G01X12748Y3749D02*
G03X12846Y3452I502J1D01*
G01*
G75*
G01X12842Y3452D02*
G03X12147Y2852I0J-702D01*
G01*
G75*
G01X12147Y2852D02*
G03X11547Y2157I103J-695D01*
G01*
G75*
G01X11547Y2153D02*
G03X11250Y2251I-297J-403D01*
G01*
G75*
G01X11250Y2251D02*
G03X10952Y2153I0J-501D01*
G01*
G75*
G01X11250Y2798D02*
G03X12201Y3749I0J952D01*
G01*
G75*
G01X12201Y3749D02*
G03X11250Y4701I-951J1D01*
G01*
G75*
G01X11250Y4701D02*
G03X10298Y3749I0J-951D01*
G01*
G75*
G01X10298Y3749D02*
G03X11250Y2798I952J1D01*
G01*
G75*
G01X6532Y5078D02*
G03X6978Y4769I446J168D01*
G01*
G75*
G01X6978Y4769D02*
G03X7386Y5000I0J477D01*
G01*
G75*
G01X7386Y2744D02*
G03X7303Y2769I-83J-126D01*
G01*
G75*
G01X6653Y2769D02*
G03X6532Y2709I0J-151D01*
G01*
G75*
G01X14844Y2764D02*
G03X14803Y2769I-41J-146D01*
G01*
G75*
G01X14739Y2904D02*
G03X14794Y3007I-142J143D01*
G01*
G75*
G01X6129Y3270D02*
G03X6039Y3340I-472J-521D01*
G01*
G75*
G01X6039Y3340D02*
G03X6129Y3422I-289J409D01*
G01*
G75*
G01X13750Y3785D02*
G03X13539Y4159I-500J-35D01*
G01*
G75*
G01X13539Y4159D02*
G03X13771Y4408I-382J590D01*
G01*
G75*
G01X4992Y4141D02*
G03X5342Y4047I350J608D01*
G01*
G75*
G01X5346Y4047D02*
G03X5263Y3869I404J-298D01*
G01*
G75*
G01X6129Y4077D02*
G03X6039Y4159I-379J-327D01*
G01*
G75*
G01X6039Y4159D02*
G03X6129Y4229I-382J591D01*
G01*
G75*
G01X4647Y4647D02*
G03X4733Y4399I695J102D01*
G01*
G75*
G01X4399Y4733D02*
G03X4647Y4647I351J609D01*
G01*
G75*
G01X14232Y4492D02*
G03X14174Y4480I0J-152D01*
G01*
G75*
G01X14315Y4798D02*
G03X14478Y4769I163J448D01*
G01*
G75*
G01X14478Y4769D02*
G03X14844Y4940I0J477D01*
G01*
G75*
G01X4047Y5342D02*
G03X4141Y4991I703J0D01*
G01*
G75*
G01X3870Y5263D02*
G03X4047Y5346I-120J487D01*
G01*
G75*
G01X3452Y9657D02*
G03X2852Y10352I-702J0D01*
G01*
G75*
G01X2852Y10352D02*
G03X2157Y10952I-695J-102D01*
G01*
G75*
G01X2154Y10952D02*
G03X2251Y11249I-404J298D01*
G01*
G75*
G01X2251Y11249D02*
G03X2154Y11547I-501J0D01*
G01*
G75*
G01X2157Y11547D02*
G03X2852Y12147I0J702D01*
G01*
G75*
G01X2852Y12147D02*
G03X3423Y12640I-102J695D01*
G01*
G75*
G01X3869Y12194D02*
G03X3750Y12201I-119J-944D01*
G01*
G75*
G01X3750Y12201D02*
G03X2798Y11249I0J-951D01*
G01*
G75*
G01X2798Y11249D02*
G03X3750Y10298I952J1D01*
G01*
G75*
G01X3750Y10298D02*
G03X4701Y11249I0J952D01*
G01*
G75*
G01X4701Y11249D02*
G03X4694Y11369I-951J0D01*
G01*
G75*
G01X5087Y10904D02*
G03X4647Y10352I255J-654D01*
G01*
G75*
G01X4647Y10352D02*
G03X4047Y9657I103J-695D01*
G01*
G75*
G01X4047Y9653D02*
G03X3750Y9751I-297J-403D01*
G01*
G75*
G01X3750Y9751D02*
G03X3452Y9653I0J-501D01*
G01*
G75*
G01X6532Y12578D02*
G03X6978Y12269I446J168D01*
G01*
G75*
G01X6978Y12269D02*
G03X7344Y12440I0J477D01*
G01*
G75*
G01X6732Y11992D02*
G03X6581Y11840I0J-152D01*
G01*
G75*
G01X6581Y10659D02*
G03X6732Y10507I151J0D01*
G01*
G75*
G01X6792Y10507D02*
G03X6776Y10430I186J-77D01*
G01*
G75*
G01X6653Y10269D02*
G03X6532Y10209I0J-151D01*
G01*
G75*
G01X7344Y10264D02*
G03X7303Y10269I-41J-146D01*
G01*
G75*
G01X7239Y10404D02*
G03X7294Y10507I-142J143D01*
G01*
G75*
G01X6129Y10770D02*
G03X6039Y10840I-472J-521D01*
G01*
G75*
G01X6039Y10840D02*
G03X6129Y10922I-289J409D01*
G01*
G75*
G01X4992Y11641D02*
G03X5342Y11547I350J608D01*
G01*
G75*
G01X5346Y11547D02*
G03X5263Y11369I404J-298D01*
G01*
G75*
G01X6129Y11577D02*
G03X6039Y11659I-379J-327D01*
G01*
G75*
G01X6039Y11659D02*
G03X6129Y11729I-382J591D01*
G01*
G75*
G01X4647Y12147D02*
G03X4733Y11899I695J102D01*
G01*
G75*
G01X4399Y12233D02*
G03X4647Y12147I351J609D01*
G01*
G75*
G01X4047Y12842D02*
G03X4141Y12491I703J0D01*
G01*
G75*
G01X3870Y12763D02*
G03X4047Y12846I-120J487D01*
G01*
G75*
G01X6978Y13222D02*
G03X6532Y12914I0J-476D01*
G01*
G75*
G01X6532Y14003D02*
G03X6473Y14145I-201J-1D01*
G01*
G75*
G01X5585Y15034D02*
G03X5735Y15185I-1J151D01*
G01*
G75*
G01X5735Y15835D02*
G03X5585Y15987I-151J0D01*
G01*
G75*
G01X6469Y16872D02*
G03X6508Y16926I-142J143D01*
G01*
G75*
G01X6508Y16926D02*
G03X6653Y16817I145J42D01*
G01*
G75*
G01X7303Y16817D02*
G03X7344Y16822I0J151D01*
G01*
G75*
G01X7344Y13051D02*
G03X6978Y13222I-366J-305D01*
G01*
G75*
G01X3453Y17157D02*
G03X2853Y17853I-703J0D01*
G01*
G75*
G01X2853Y17853D02*
G03X2158Y18453I-695J-103D01*
G01*
G75*
G01X2154Y18453D02*
G03X2252Y18750I-404J297D01*
G01*
G75*
G01X2252Y18750D02*
G03X2154Y19047I-502J0D01*
G01*
G75*
G01X2158Y19047D02*
G03X2853Y19647I0J703D01*
G01*
G75*
G01X2853Y19647D02*
G03X3453Y20343I-103J696D01*
G01*
G75*
G01X3453Y20346D02*
G03X3750Y20249I297J404D01*
G01*
G75*
G01X3750Y20249D02*
G03X4047Y20346I0J501D01*
G01*
G75*
G01X4047Y20343D02*
G03X4647Y19647I703J0D01*
G01*
G75*
G01X4647Y19647D02*
G03X5343Y19047I696J103D01*
G01*
G75*
G01X5346Y19047D02*
G03X5249Y18750I404J-297D01*
G01*
G75*
G01X5249Y18750D02*
G03X5346Y18453I501J0D01*
G01*
G75*
G01X5343Y18453D02*
G03X4647Y17853I0J-703D01*
G01*
G75*
G01X4647Y17853D02*
G03X4047Y17157I103J-696D01*
G01*
G75*
G01X4047Y17154D02*
G03X3750Y17251I-297J-404D01*
G01*
G75*
G01X3750Y17251D02*
G03X3453Y17154I0J-501D01*
G01*
G75*
G01X3750Y17799D02*
G03X4702Y18750I0J951D01*
G01*
G75*
G01X4702Y18750D02*
G03X3750Y19701I-952J0D01*
G01*
G75*
G01X3750Y19701D02*
G03X2799Y18750I0J-951D01*
G01*
G75*
G01X2799Y18750D02*
G03X3750Y17799I951J0D01*
G01*
G75*
G01X6528Y20090D02*
G03X6978Y19770I450J156D01*
G01*
G75*
G01X6978Y19770D02*
G03X7344Y19940I0J476D01*
G01*
G75*
G01X6732Y19492D02*
G03X6581Y19341I0J-151D01*
G01*
G75*
G01X6581Y18159D02*
G03X6732Y18008I151J0D01*
G01*
G75*
G01X6793Y18008D02*
G03X6777Y17930I186J-77D01*
G01*
G75*
G01X6653Y17770D02*
G03X6528Y17704I0J-152D01*
G01*
G75*
G01X7344Y17764D02*
G03X7303Y17770I-41J-146D01*
G01*
G75*
G01X7239Y17906D02*
G03X7294Y18008I-142J143D01*
G01*
G75*
G01X6125Y18274D02*
G03X6039Y18340I-467J-524D01*
G01*
G75*
G01X6039Y18340D02*
G03X6125Y18417I-289J410D01*
G01*
G75*
G01X6125Y19083D02*
G03X6039Y19160I-375J-333D01*
G01*
G75*
G01X6039Y19160D02*
G03X6125Y19226I-381J590D01*
G01*
G75*
G01X6506Y20312D02*
G03X6469Y20363I-179J-92D01*
G01*
G75*
G01X4594Y22239D02*
G03X4492Y22294I-142J-142D01*
G01*
G75*
G01X7031Y22343D02*
G02X7344Y22031I0J-312D01*
G01*
G75*
G01X7344Y20552D02*
G03X6978Y20723I-366J-306D01*
G01*
G75*
G01X6978Y20723D02*
G03X6506Y20312I0J-477D01*
G01*
G75*
G01X5832Y20431D02*
G03X5658Y20453I-174J-681D01*
G01*
G75*
G01X5453Y20657D02*
G03X5431Y20832I-703J0D01*
G01*
G36*
G01X7303Y16968D02*
G01X6653Y16968D01*
G01X6653Y17618D01*
G01X7303Y17618D01*
G01X7303Y16968D01*
G37*
G54D14*
G01X6978Y20246D03*
G54D13*
G01X5258Y15510D03*
G54D14*
G01X2305Y15509D03*
G54D15*
G01X3750Y22096D03*
G54D16*
G01X7096Y18750D03*
G01X403Y18750D03*
G36*
G01X7303Y9467D02*
G01X6653Y9467D01*
G01X6653Y10117D01*
G01X7303Y10117D01*
G01X7303Y9467D01*
G37*
G54D14*
G01X6978Y12745D03*
G54D13*
G01X5258Y8009D03*
G54D14*
G01X2305Y8009D03*
G54D16*
G01X7096Y11249D03*
G01X403Y11249D03*
G36*
G01X7303Y1967D02*
G01X6653Y1967D01*
G01X6653Y2617D01*
G01X7303Y2617D01*
G01X7303Y1967D01*
G37*
G54D14*
G01X6978Y5245D03*
G54D13*
G01X5258Y509D03*
G54D14*
G01X2305Y509D03*
G54D15*
G01X3749Y403D03*
G54D16*
G01X403Y3749D03*
G36*
G01X14803Y1967D02*
G01X14153Y1967D01*
G01X14153Y2617D01*
G01X14803Y2617D01*
G01X14803Y1967D01*
G37*
G54D14*
G01X14478Y5245D03*
G54D13*
G01X12758Y509D03*
G54D14*
G01X9805Y509D03*
G54D15*
G01X11249Y7095D03*
G54D16*
G01X14596Y3749D03*
G54D15*
G01X11249Y403D03*
G54D12*
G01X6518Y1535D03*
G54D17*
G01X2750Y20657D02*
G01X2750Y20342D01*
G01X1842Y19750D02*
G01X2157Y19750D01*
G01X4750Y17157D02*
G01X4750Y16842D01*
G01X5342Y17750D02*
G01X5657Y17750D01*
G01X2750Y17157D02*
G01X2750Y16842D01*
G01X1842Y17750D02*
G01X2157Y17750D01*
G01X5342Y19750D02*
G01X5657Y19750D01*
G01X4750Y20657D02*
G01X4750Y20342D01*
G01X2749Y13156D02*
G01X2749Y12842D01*
G01X1842Y12249D02*
G01X2157Y12249D01*
G01X4749Y9656D02*
G01X4749Y9342D01*
G01X5342Y10249D02*
G01X5657Y10249D01*
G01X2749Y9656D02*
G01X2749Y9342D01*
G01X1842Y10249D02*
G01X2157Y10249D01*
G01X5342Y12249D02*
G01X5657Y12249D01*
G01X4749Y13156D02*
G01X4749Y12842D01*
G01X2749Y5656D02*
G01X2749Y5342D01*
G01X1842Y4749D02*
G01X2157Y4749D01*
G01X4749Y2156D02*
G01X4749Y1842D01*
G01X5342Y2749D02*
G01X5657Y2749D01*
G01X2749Y2156D02*
G01X2749Y1842D01*
G01X1842Y2749D02*
G01X2157Y2749D01*
G01X5342Y4749D02*
G01X5657Y4749D01*
G01X4749Y5656D02*
G01X4749Y5342D01*
G01X10249Y5656D02*
G01X10249Y5342D01*
G01X9342Y4749D02*
G01X9657Y4749D01*
G01X12249Y2156D02*
G01X12249Y1842D01*
G01X12842Y2749D02*
G01X13157Y2749D01*
G01X10249Y2156D02*
G01X10249Y1842D01*
G01X9342Y2749D02*
G01X9657Y2749D01*
G01X12842Y4749D02*
G01X13157Y4749D01*
G01X12249Y5656D02*
G01X12249Y5342D01*
M00*
M02*
