G04 Layer: TopSolderMaskLayer*
G04 EasyEDA v6.1.49, Wed, 05 Jun 2019 22:56:17 GMT*
G04 b2477c8acd00442fb18246f7a8401325,d502dfb0143049649cf38511bf809cad,10*
G04 Gerber Generator version 0.2*
G04 Scale: 100 percent, Rotated: No, Reflected: No *
G04 Dimensions in inches *
G04 leading zeros omitted , absolute positions ,2 integer and 4 decimal *
%FSLAX24Y24*%
%MOIN*%
G90*
G70D02*

%ADD17C,0.118268*%
%ADD18R,0.073000X0.073000*%
%ADD19C,0.073000*%
%ADD20R,0.126110X0.080835*%
%ADD21R,0.080835X0.126110*%

%LPD*%
G54D17*
G01X2749Y20657D02*
G01X2749Y20342D01*
G01X1842Y19750D02*
G01X2157Y19750D01*
G01X4749Y17157D02*
G01X4749Y16842D01*
G01X5342Y17750D02*
G01X5657Y17750D01*
G01X2749Y17157D02*
G01X2749Y16842D01*
G01X1842Y17750D02*
G01X2157Y17750D01*
G01X5342Y19750D02*
G01X5657Y19750D01*
G01X4749Y20657D02*
G01X4749Y20342D01*
G01X2749Y13157D02*
G01X2749Y12842D01*
G01X1842Y12250D02*
G01X2157Y12250D01*
G01X4749Y9657D02*
G01X4749Y9342D01*
G01X5342Y10250D02*
G01X5657Y10250D01*
G01X2749Y9657D02*
G01X2749Y9342D01*
G01X1842Y10250D02*
G01X2157Y10250D01*
G01X5342Y12250D02*
G01X5657Y12250D01*
G01X4749Y13157D02*
G01X4749Y12842D01*
G01X10249Y13157D02*
G01X10249Y12842D01*
G01X9342Y12250D02*
G01X9657Y12250D01*
G01X12249Y9657D02*
G01X12249Y9342D01*
G01X12842Y10250D02*
G01X13157Y10250D01*
G01X10249Y9657D02*
G01X10249Y9342D01*
G01X9342Y10250D02*
G01X9657Y10250D01*
G01X12842Y12250D02*
G01X13157Y12250D01*
G01X12249Y13157D02*
G01X12249Y12842D01*
G01X10249Y5657D02*
G01X10249Y5342D01*
G01X9342Y4750D02*
G01X9657Y4750D01*
G01X12249Y2157D02*
G01X12249Y1842D01*
G01X12842Y2750D02*
G01X13157Y2750D01*
G01X10249Y2157D02*
G01X10249Y1842D01*
G01X9342Y2750D02*
G01X9657Y2750D01*
G01X12842Y4750D02*
G01X13157Y4750D01*
G01X12249Y5657D02*
G01X12249Y5342D01*
G36*
G01X6612Y16928D02*
G01X6612Y17657D01*
G01X7342Y17657D01*
G01X7342Y16928D01*
G01X6612Y16928D01*
G37*
G54D19*
G01X6978Y20246D03*
G54D18*
G01X5258Y15510D03*
G54D19*
G01X2305Y15509D03*
G54D20*
G01X3749Y22096D03*
G54D21*
G01X7096Y18750D03*
G01X403Y18750D03*
G36*
G01X6612Y9428D02*
G01X6612Y10157D01*
G01X7342Y10157D01*
G01X7342Y9428D01*
G01X6612Y9428D01*
G37*
G54D19*
G01X6978Y12746D03*
G54D18*
G01X5258Y8010D03*
G54D19*
G01X2305Y8009D03*
G54D20*
G01X3749Y7903D03*
G54D21*
G01X403Y11250D03*
G36*
G01X14112Y9428D02*
G01X14112Y10157D01*
G01X14842Y10157D01*
G01X14842Y9428D01*
G01X14112Y9428D01*
G37*
G54D19*
G01X14478Y12746D03*
G54D18*
G01X12758Y8010D03*
G54D19*
G01X9805Y8009D03*
G54D20*
G01X11249Y14596D03*
G54D21*
G01X14596Y11250D03*
G36*
G01X14112Y1928D02*
G01X14112Y2657D01*
G01X14842Y2657D01*
G01X14842Y1928D01*
G01X14112Y1928D01*
G37*
G54D19*
G01X14478Y5246D03*
G54D18*
G01X12758Y510D03*
G54D19*
G01X9805Y509D03*
G54D21*
G01X14596Y3750D03*
G54D20*
G01X11249Y403D03*
G54D21*
G01X7903Y3750D03*
M00*
M02*
