G04 Layer: BottomLayer*
G04 EasyEDA v6.1.49, Wed, 05 Jun 2019 22:56:17 GMT*
G04 b2477c8acd00442fb18246f7a8401325,d502dfb0143049649cf38511bf809cad,10*
G04 Gerber Generator version 0.2*
G04 Scale: 100 percent, Rotated: No, Reflected: No *
G04 Dimensions in inches *
G04 leading zeros omitted , absolute positions ,2 integer and 4 decimal *
%FSLAX24Y24*%
%MOIN*%
G90*
G70D02*

%ADD10C,0.010000*%
%ADD12R,0.065000X0.065000*%
%ADD13C,0.065000*%
%ADD14R,0.118110X0.072835*%
%ADD15R,0.072835X0.118110*%
%ADD16C,0.110236*%

%LPD*%
G54D10*
G01X1999Y19750D02*
G01X2749Y20500D01*
G01X6601Y19869D02*
G01X6472Y19740D01*
G01X6472Y18723D01*
G01X5499Y17750D01*
G01X6977Y20246D02*
G01X6601Y19869D01*
G01X6601Y19869D02*
G01X5104Y21365D01*
G01X3615Y21365D01*
G01X2749Y20500D01*
G01X5499Y17750D02*
G01X4749Y17000D01*
G01X1999Y17750D02*
G01X2749Y17000D01*
G01X4749Y20125D02*
G01X3776Y20125D01*
G01X1999Y18348D01*
G01X1999Y17750D01*
G01X5499Y19750D02*
G01X5124Y20125D01*
G01X4749Y20125D01*
G01X4749Y20500D02*
G01X4749Y20125D01*
G01X6977Y17292D02*
G01X6541Y17292D01*
G01X403Y18750D02*
G01X403Y18048D01*
G01X403Y18048D02*
G01X2309Y16142D01*
G01X5391Y16142D01*
G01X6541Y17292D01*
G01X5258Y8009D02*
G01X4822Y8009D01*
G01X3749Y7903D02*
G01X4715Y7903D01*
G01X4822Y8009D01*
G01X1999Y12250D02*
G01X2749Y13000D01*
G01X6977Y12746D02*
G01X6977Y11728D01*
G01X5499Y10250D01*
G01X5499Y10250D02*
G01X4749Y9500D01*
G01X1999Y10250D02*
G01X2749Y9500D01*
G01X4749Y12625D02*
G01X3776Y12625D01*
G01X1999Y10848D01*
G01X1999Y10250D01*
G01X5499Y12250D02*
G01X5124Y12625D01*
G01X4749Y12625D01*
G01X4749Y13000D02*
G01X4749Y12625D01*
G01X6977Y9792D02*
G01X6541Y9792D01*
G01X403Y11250D02*
G01X403Y10548D01*
G01X403Y10548D02*
G01X2329Y8621D01*
G01X5370Y8621D01*
G01X6541Y9792D01*
G01X6977Y9792D02*
G01X7413Y9792D01*
G01X14477Y9792D02*
G01X14477Y8848D01*
G01X13203Y7573D01*
G01X9523Y7573D01*
G01X7413Y9684D01*
G01X7413Y9792D01*
G01X9499Y12250D02*
G01X10249Y13000D01*
G01X12999Y10250D02*
G01X12249Y9500D01*
G01X9499Y10250D02*
G01X10249Y9500D01*
G01X12249Y12625D02*
G01X11276Y12625D01*
G01X9499Y10848D01*
G01X9499Y10250D01*
G01X12999Y12250D02*
G01X12624Y12625D01*
G01X12249Y12625D01*
G01X12249Y13000D02*
G01X12249Y12625D01*
G01X12758Y8009D02*
G01X12758Y8446D01*
G01X11249Y14596D02*
G01X11951Y14596D01*
G01X11951Y14596D02*
G01X13826Y12721D01*
G01X13826Y9513D01*
G01X12758Y8446D01*
G01X12758Y509D02*
G01X12322Y509D01*
G01X11249Y403D02*
G01X12215Y403D01*
G01X12322Y509D01*
G01X9499Y4750D02*
G01X10249Y5500D01*
G01X14477Y5246D02*
G01X13972Y4740D01*
G01X13972Y3723D01*
G01X12999Y2750D01*
G01X12999Y2750D02*
G01X12249Y2000D01*
G01X9499Y2750D02*
G01X10249Y2000D01*
G01X12249Y5125D02*
G01X11276Y5125D01*
G01X9499Y3348D01*
G01X9499Y2750D01*
G01X12999Y4750D02*
G01X12624Y5125D01*
G01X12249Y5125D01*
G01X12249Y5500D02*
G01X12249Y5125D01*
G01X14477Y2292D02*
G01X14041Y2292D01*
G01X7903Y3750D02*
G01X7903Y3048D01*
G01X7903Y3048D02*
G01X9829Y1121D01*
G01X12870Y1121D01*
G01X14041Y2292D01*
G01X7659Y426D02*
G01X7659Y3007D01*
G01X7659Y3007D02*
G01X7706Y3007D01*
G01X7761Y2905D02*
G01X9687Y979D01*
G01X9486Y156D02*
G01X7968Y156D01*
G01X7684Y339D02*
G01X9360Y339D01*
G01X7659Y541D02*
G01X9330Y541D01*
G01X7659Y743D02*
G01X9390Y743D01*
G01X7659Y945D02*
G01X9611Y945D01*
G01X7659Y1147D02*
G01X9519Y1147D01*
G01X7659Y1349D02*
G01X9317Y1349D01*
G01X7659Y1551D02*
G01X9115Y1551D01*
G01X7659Y1753D02*
G01X8913Y1753D01*
G01X7659Y1955D02*
G01X8711Y1955D01*
G01X7659Y2157D02*
G01X8509Y2157D01*
G01X7659Y2359D02*
G01X8307Y2359D01*
G01X7659Y2561D02*
G01X8105Y2561D01*
G01X7659Y2763D02*
G01X7903Y2763D01*
G01X7659Y2965D02*
G01X7720Y2965D01*
G01X9610Y944D02*
G01X9610Y1056D01*
G01X9408Y156D02*
G01X9408Y246D01*
G01X9408Y773D02*
G01X9408Y1258D01*
G01X9206Y156D02*
G01X9206Y1460D01*
G01X9004Y156D02*
G01X9004Y1662D01*
G01X8802Y156D02*
G01X8802Y1864D01*
G01X8600Y156D02*
G01X8600Y2066D01*
G01X8398Y156D02*
G01X8398Y2268D01*
G01X8196Y156D02*
G01X8196Y2470D01*
G01X7994Y156D02*
G01X7994Y2672D01*
G01X7792Y210D02*
G01X7792Y2874D01*
G01X10507Y767D02*
G01X10507Y156D01*
G01X10507Y156D02*
G01X10125Y156D01*
G01X10047Y920D02*
G01X12308Y920D01*
G01X12281Y835D02*
G01X12281Y707D01*
G01X12180Y652D02*
G01X12132Y604D01*
G01X12132Y604D02*
G01X11991Y604D01*
G01X11991Y604D02*
G01X11991Y767D01*
G01X11840Y919D02*
G01X10659Y919D01*
G01X10250Y339D02*
G01X10507Y339D01*
G01X10281Y541D02*
G01X10507Y541D01*
G01X10221Y743D02*
G01X10507Y743D01*
G01X11991Y743D02*
G01X12281Y743D01*
G01X12236Y692D02*
G01X12236Y920D01*
G01X12034Y604D02*
G01X12034Y920D01*
G01X11832Y919D02*
G01X11832Y920D01*
G01X11630Y919D02*
G01X11630Y920D01*
G01X11428Y919D02*
G01X11428Y920D01*
G01X11226Y919D02*
G01X11226Y920D01*
G01X11024Y919D02*
G01X11024Y920D01*
G01X10822Y919D02*
G01X10822Y920D01*
G01X10620Y914D02*
G01X10620Y920D01*
G01X10418Y156D02*
G01X10418Y920D01*
G01X10216Y156D02*
G01X10216Y269D01*
G01X10216Y750D02*
G01X10216Y920D01*
G01X13234Y185D02*
G01X13234Y835D01*
G01X13083Y986D02*
G01X13020Y986D01*
G01X13020Y986D02*
G01X14001Y1967D01*
G01X14153Y1816D02*
G01X14803Y1816D01*
G01X14843Y1822D02*
G01X14843Y468D01*
G01X14531Y156D02*
G01X13232Y156D01*
G01X13234Y339D02*
G01X14815Y339D01*
G01X13234Y541D02*
G01X14843Y541D01*
G01X13234Y743D02*
G01X14843Y743D01*
G01X13187Y945D02*
G01X14843Y945D01*
G01X13180Y1147D02*
G01X14843Y1147D01*
G01X13382Y1349D02*
G01X14843Y1349D01*
G01X13584Y1551D02*
G01X14843Y1551D01*
G01X13786Y1753D02*
G01X14843Y1753D01*
G01X13988Y1955D02*
G01X14002Y1955D01*
G01X14660Y184D02*
G01X14660Y1816D01*
G01X14458Y156D02*
G01X14458Y1816D01*
G01X14256Y156D02*
G01X14256Y1816D01*
G01X14054Y156D02*
G01X14054Y1852D01*
G01X13852Y156D02*
G01X13852Y1819D01*
G01X13650Y156D02*
G01X13650Y1617D01*
G01X13448Y156D02*
G01X13448Y1415D01*
G01X13246Y156D02*
G01X13246Y1213D01*
G01X13044Y986D02*
G01X13044Y1011D01*
G01X12284Y156D02*
G01X11991Y156D01*
G01X11991Y156D02*
G01X11991Y201D01*
G01X11991Y201D02*
G01X12215Y201D01*
G01X12281Y212D02*
G01X12281Y185D01*
G01X12236Y156D02*
G01X12236Y202D01*
G01X12034Y156D02*
G01X12034Y201D01*
G01X10985Y1323D02*
G01X10723Y1323D01*
G01X10750Y1349D02*
G01X10948Y1349D01*
G01X10822Y1323D02*
G01X10822Y1435D01*
G01X11776Y1323D02*
G01X11513Y1323D01*
G01X11551Y1349D02*
G01X11749Y1349D01*
G01X11630Y1323D02*
G01X11630Y1423D01*
G01X12952Y1842D02*
G01X12952Y2047D01*
G01X12952Y2047D02*
G01X13157Y2047D01*
G01X13713Y3179D02*
G01X14080Y3545D01*
G01X14080Y3545D02*
G01X14080Y3159D01*
G01X14232Y3007D02*
G01X14843Y3007D01*
G01X14843Y3007D02*
G01X14843Y2764D01*
G01X14803Y2769D02*
G01X14153Y2769D01*
G01X14001Y2618D02*
G01X14001Y2490D01*
G01X13899Y2435D02*
G01X12787Y1323D01*
G01X12787Y1323D02*
G01X12723Y1323D01*
G01X12750Y1349D02*
G01X12813Y1349D01*
G01X12889Y1551D02*
G01X13015Y1551D01*
G01X12946Y1753D02*
G01X13217Y1753D01*
G01X12952Y1955D02*
G01X13419Y1955D01*
G01X13534Y2157D02*
G01X13621Y2157D01*
G01X13741Y2359D02*
G01X13823Y2359D01*
G01X13834Y2561D02*
G01X14001Y2561D01*
G01X13859Y2763D02*
G01X14109Y2763D01*
G01X13826Y2965D02*
G01X14843Y2965D01*
G01X13722Y3167D02*
G01X14080Y3167D01*
G01X13903Y3369D02*
G01X14080Y3369D01*
G01X14660Y2769D02*
G01X14660Y3007D01*
G01X14458Y2769D02*
G01X14458Y3007D01*
G01X14256Y2769D02*
G01X14256Y3007D01*
G01X14054Y2733D02*
G01X14054Y3520D01*
G01X13852Y2388D02*
G01X13852Y2649D01*
G01X13852Y2850D02*
G01X13852Y3318D01*
G01X13650Y2186D02*
G01X13650Y2249D01*
G01X13448Y1984D02*
G01X13448Y2110D01*
G01X13246Y1782D02*
G01X13246Y2053D01*
G01X13044Y1580D02*
G01X13044Y2047D01*
G01X12842Y1378D02*
G01X12842Y1465D01*
G01X9569Y1667D02*
G01X9167Y2069D01*
G01X9342Y2047D02*
G01X9547Y2047D01*
G01X9547Y2047D02*
G01X9547Y1842D01*
G01X9483Y1753D02*
G01X9552Y1753D01*
G01X9281Y1955D02*
G01X9547Y1955D01*
G01X9408Y1827D02*
G01X9408Y2047D01*
G01X9206Y2029D02*
G01X9206Y2060D01*
G01X10952Y2153D02*
G01X10952Y2157D01*
G01X9859Y3422D02*
G01X10305Y3869D01*
G01X11130Y4694D02*
G01X11360Y4923D01*
G01X11360Y4923D02*
G01X11685Y4923D01*
G01X12842Y4047D02*
G01X12845Y4047D01*
G01X12845Y3452D02*
G01X12842Y3452D01*
G01X11547Y2157D02*
G01X11547Y2153D01*
G01X10952Y2157D02*
G01X10957Y2157D01*
G01X11542Y2157D02*
G01X11547Y2157D01*
G01X10922Y2359D02*
G01X11576Y2359D01*
G01X10824Y2561D02*
G01X11674Y2561D01*
G01X10605Y2763D02*
G01X11893Y2763D01*
G01X10326Y2965D02*
G01X10711Y2965D01*
G01X11787Y2965D02*
G01X12173Y2965D01*
G01X10222Y3167D02*
G01X10497Y3167D01*
G01X12001Y3167D02*
G01X12276Y3167D01*
G01X9989Y3369D02*
G01X10377Y3369D01*
G01X12121Y3369D02*
G01X12510Y3369D01*
G01X10007Y3571D02*
G01X10315Y3571D01*
G01X12184Y3571D02*
G01X12781Y3571D01*
G01X10209Y3773D02*
G01X10298Y3773D01*
G01X12200Y3773D02*
G01X12748Y3773D01*
G01X12174Y3975D02*
G01X12801Y3975D01*
G01X12099Y4177D02*
G01X12435Y4177D01*
G01X11963Y4379D02*
G01X12245Y4379D01*
G01X11712Y4581D02*
G01X12160Y4581D01*
G01X11219Y4783D02*
G01X11824Y4783D01*
G01X12842Y3452D02*
G01X12842Y3456D01*
G01X12842Y4043D02*
G01X12842Y4047D01*
G01X12640Y3423D02*
G01X12640Y4076D01*
G01X12438Y3325D02*
G01X12438Y4174D01*
G01X12236Y3106D02*
G01X12236Y4393D01*
G01X12034Y2826D02*
G01X12034Y3212D01*
G01X12034Y4287D02*
G01X12034Y4673D01*
G01X11832Y2723D02*
G01X11832Y2998D01*
G01X11832Y4501D02*
G01X11832Y4776D01*
G01X11630Y2490D02*
G01X11630Y2878D01*
G01X11630Y4621D02*
G01X11630Y4923D01*
G01X11428Y2218D02*
G01X11428Y2815D01*
G01X11428Y4684D02*
G01X11428Y4923D01*
G01X11226Y2250D02*
G01X11226Y2798D01*
G01X11226Y4701D02*
G01X11226Y4790D01*
G01X11024Y2198D02*
G01X11024Y2825D01*
G01X10822Y2564D02*
G01X10822Y2899D01*
G01X10620Y2754D02*
G01X10620Y3036D01*
G01X10418Y2839D02*
G01X10418Y3286D01*
G01X10216Y3175D02*
G01X10216Y3780D01*
G01X10014Y3354D02*
G01X10014Y3578D01*
G01X8661Y2574D02*
G01X8228Y3007D01*
G01X8228Y3007D02*
G01X8267Y3007D01*
G01X8418Y3159D02*
G01X8418Y4340D01*
G01X8267Y4492D02*
G01X7659Y4492D01*
G01X7659Y4492D02*
G01X7659Y7031D01*
G01X7031Y7656D02*
G01X5732Y7656D01*
G01X5734Y7685D02*
G01X5734Y8335D01*
G01X5583Y8486D02*
G01X5520Y8486D01*
G01X5520Y8486D02*
G01X6501Y9467D01*
G01X6653Y9316D02*
G01X7303Y9316D01*
G01X7428Y9383D02*
G01X9381Y7431D01*
G01X9523Y7372D02*
G01X13203Y7372D01*
G01X13346Y7431D02*
G01X14620Y8705D01*
G01X14679Y8848D02*
G01X14679Y9316D01*
G01X14679Y9316D02*
G01X14803Y9316D01*
G01X14843Y9322D02*
G01X14843Y5551D01*
G01X14030Y5083D02*
G01X13844Y4897D01*
G01X13157Y5452D02*
G01X12952Y5452D01*
G01X12952Y5452D02*
G01X12952Y5657D01*
G01X9547Y5657D02*
G01X9547Y5452D01*
G01X9547Y5452D02*
G01X9342Y5452D01*
G01X8473Y2763D02*
G01X8639Y2763D01*
G01X8271Y2965D02*
G01X8673Y2965D01*
G01X8418Y3167D02*
G01X8776Y3167D01*
G01X8418Y3369D02*
G01X8923Y3369D01*
G01X8418Y3571D02*
G01X8781Y3571D01*
G01X8418Y3773D02*
G01X8748Y3773D01*
G01X8418Y3975D02*
G01X8801Y3975D01*
G01X8418Y4177D02*
G01X8935Y4177D01*
G01X8413Y4379D02*
G01X8745Y4379D01*
G01X7659Y4581D02*
G01X8660Y4581D01*
G01X7659Y4783D02*
G01X8640Y4783D01*
G01X7659Y4985D02*
G01X8680Y4985D01*
G01X13819Y4985D02*
G01X13932Y4985D01*
G01X7659Y5187D02*
G01X8792Y5187D01*
G01X13707Y5187D02*
G01X14005Y5187D01*
G01X7659Y5389D02*
G01X9050Y5389D01*
G01X13448Y5389D02*
G01X14023Y5389D01*
G01X7659Y5591D02*
G01X9547Y5591D01*
G01X12952Y5591D02*
G01X14149Y5591D01*
G01X14806Y5591D02*
G01X14843Y5591D01*
G01X7659Y5793D02*
G01X9560Y5793D01*
G01X12939Y5793D02*
G01X14843Y5793D01*
G01X7659Y5995D02*
G01X9633Y5995D01*
G01X12865Y5995D02*
G01X14843Y5995D01*
G01X7659Y6197D02*
G01X9799Y6197D01*
G01X10699Y6197D02*
G01X11022Y6197D01*
G01X11476Y6197D02*
G01X11799Y6197D01*
G01X12699Y6197D02*
G01X14843Y6197D01*
G01X7659Y6399D02*
G01X14843Y6399D01*
G01X7659Y6601D02*
G01X14843Y6601D01*
G01X7659Y6803D02*
G01X14843Y6803D01*
G01X7659Y7005D02*
G01X14843Y7005D01*
G01X7631Y7207D02*
G01X14843Y7207D01*
G01X7529Y7409D02*
G01X9407Y7409D01*
G01X13319Y7409D02*
G01X14843Y7409D01*
G01X7264Y7611D02*
G01X9201Y7611D01*
G01X13525Y7611D02*
G01X14843Y7611D01*
G01X5734Y7813D02*
G01X8999Y7813D01*
G01X13727Y7813D02*
G01X14843Y7813D01*
G01X5734Y8015D02*
G01X8797Y8015D01*
G01X13929Y8015D02*
G01X14843Y8015D01*
G01X5734Y8217D02*
G01X8595Y8217D01*
G01X14131Y8217D02*
G01X14843Y8217D01*
G01X5709Y8419D02*
G01X8393Y8419D01*
G01X14333Y8419D02*
G01X14843Y8419D01*
G01X5654Y8621D02*
G01X8191Y8621D01*
G01X14535Y8621D02*
G01X14843Y8621D01*
G01X5856Y8823D02*
G01X7989Y8823D01*
G01X14677Y8823D02*
G01X14843Y8823D01*
G01X6058Y9025D02*
G01X7787Y9025D01*
G01X14679Y9025D02*
G01X14843Y9025D01*
G01X6260Y9227D02*
G01X7585Y9227D01*
G01X14679Y9227D02*
G01X14843Y9227D01*
G01X6462Y9429D02*
G01X6506Y9429D01*
G01X14660Y5686D02*
G01X14660Y8763D01*
G01X14458Y5722D02*
G01X14458Y8544D01*
G01X14256Y5668D02*
G01X14256Y8342D01*
G01X14054Y5464D02*
G01X14054Y8140D01*
G01X13852Y4905D02*
G01X13852Y7938D01*
G01X13650Y5250D02*
G01X13650Y7736D01*
G01X13448Y5389D02*
G01X13448Y7534D01*
G01X13246Y5446D02*
G01X13246Y7377D01*
G01X13044Y5452D02*
G01X13044Y7372D01*
G01X12842Y6034D02*
G01X12842Y7372D01*
G01X12640Y6241D02*
G01X12640Y7372D01*
G01X12438Y6334D02*
G01X12438Y7372D01*
G01X12236Y6360D02*
G01X12236Y7372D01*
G01X12034Y6326D02*
G01X12034Y7372D01*
G01X11832Y6223D02*
G01X11832Y7372D01*
G01X11630Y6076D02*
G01X11630Y7372D01*
G01X11428Y6218D02*
G01X11428Y7372D01*
G01X11226Y6250D02*
G01X11226Y7372D01*
G01X11024Y6198D02*
G01X11024Y7372D01*
G01X10822Y6064D02*
G01X10822Y7372D01*
G01X10620Y6254D02*
G01X10620Y7372D01*
G01X10418Y6339D02*
G01X10418Y7372D01*
G01X10216Y6359D02*
G01X10216Y7372D01*
G01X10014Y6319D02*
G01X10014Y7372D01*
G01X9812Y6207D02*
G01X9812Y7372D01*
G01X9610Y5949D02*
G01X9610Y7372D01*
G01X9408Y5452D02*
G01X9408Y7408D01*
G01X9206Y5439D02*
G01X9206Y7606D01*
G01X9004Y5366D02*
G01X9004Y7808D01*
G01X8802Y3200D02*
G01X8802Y3522D01*
G01X8802Y3977D02*
G01X8802Y4299D01*
G01X8802Y5200D02*
G01X8802Y8010D01*
G01X8600Y2635D02*
G01X8600Y8212D01*
G01X8398Y2837D02*
G01X8398Y3083D01*
G01X8398Y4416D02*
G01X8398Y8414D01*
G01X8196Y4492D02*
G01X8196Y8616D01*
G01X7994Y4492D02*
G01X7994Y8818D01*
G01X7792Y4492D02*
G01X7792Y9020D01*
G01X7590Y7310D02*
G01X7590Y9222D01*
G01X7388Y7544D02*
G01X7388Y9343D01*
G01X7186Y7636D02*
G01X7186Y9316D01*
G01X6984Y7656D02*
G01X6984Y9316D01*
G01X6782Y7656D02*
G01X6782Y9316D01*
G01X6580Y7656D02*
G01X6580Y9335D01*
G01X6378Y7656D02*
G01X6378Y9345D01*
G01X6176Y7656D02*
G01X6176Y9143D01*
G01X5974Y7656D02*
G01X5974Y8941D01*
G01X5772Y7656D02*
G01X5772Y8739D01*
G01X5570Y8486D02*
G01X5570Y8537D01*
G01X13771Y3806D02*
G01X13750Y3785D01*
G01X13771Y4408D02*
G01X13771Y3806D01*
G01X13697Y3975D02*
G01X13771Y3975D01*
G01X13564Y4177D02*
G01X13771Y4177D01*
G01X13754Y4379D02*
G01X13771Y4379D01*
G01X13650Y4051D02*
G01X13650Y4249D01*
G01X10007Y4141D02*
G01X9736Y3869D01*
G01X9653Y4047D02*
G01X9657Y4047D01*
G01X9697Y3975D02*
G01X9842Y3975D01*
G01X9812Y3945D02*
G01X9812Y4064D01*
G01X10600Y4733D02*
G01X10266Y4399D01*
G01X10339Y4581D02*
G01X10448Y4581D01*
G01X10418Y4551D02*
G01X10418Y4660D01*
G01X14174Y4480D02*
G01X14174Y4657D01*
G01X14174Y4657D02*
G01X14315Y4798D01*
G01X14843Y4940D02*
G01X14843Y4492D01*
G01X14843Y4492D02*
G01X14232Y4492D01*
G01X14174Y4581D02*
G01X14843Y4581D01*
G01X14299Y4783D02*
G01X14364Y4783D01*
G01X14591Y4783D02*
G01X14843Y4783D01*
G01X14660Y4492D02*
G01X14660Y4805D01*
G01X14458Y4492D02*
G01X14458Y4769D01*
G01X14256Y4492D02*
G01X14256Y4740D01*
G01X11129Y5263D02*
G01X10858Y4991D01*
G01X10952Y5342D02*
G01X10952Y5346D01*
G01X10935Y5187D02*
G01X11054Y5187D01*
G01X11024Y5157D02*
G01X11024Y5301D01*
G01X11547Y5346D02*
G01X11547Y5342D01*
G01X11547Y5326D02*
G01X11518Y5326D01*
G01X1986Y7656D02*
G01X468Y7656D01*
G01X156Y7968D02*
G01X156Y10507D01*
G01X156Y10507D02*
G01X206Y10507D01*
G01X261Y10405D02*
G01X2187Y8479D01*
G01X197Y7813D02*
G01X1871Y7813D01*
G01X156Y8015D02*
G01X1829Y8015D01*
G01X156Y8217D02*
G01X1876Y8217D01*
G01X156Y8419D02*
G01X2061Y8419D01*
G01X156Y8621D02*
G01X2045Y8621D01*
G01X156Y8823D02*
G01X1843Y8823D01*
G01X156Y9025D02*
G01X1641Y9025D01*
G01X156Y9227D02*
G01X1439Y9227D01*
G01X156Y9429D02*
G01X1237Y9429D01*
G01X156Y9631D02*
G01X1035Y9631D01*
G01X156Y9833D02*
G01X833Y9833D01*
G01X156Y10035D02*
G01X631Y10035D01*
G01X156Y10237D02*
G01X429Y10237D01*
G01X156Y10439D02*
G01X234Y10439D01*
G01X2136Y8455D02*
G01X2136Y8530D01*
G01X1934Y7656D02*
G01X1934Y7710D01*
G01X1934Y8309D02*
G01X1934Y8732D01*
G01X1732Y7656D02*
G01X1732Y8934D01*
G01X1530Y7656D02*
G01X1530Y9136D01*
G01X1328Y7656D02*
G01X1328Y9338D01*
G01X1126Y7656D02*
G01X1126Y9540D01*
G01X924Y7656D02*
G01X924Y9742D01*
G01X722Y7656D02*
G01X722Y9944D01*
G01X520Y7656D02*
G01X520Y10146D01*
G01X318Y7694D02*
G01X318Y10348D01*
G01X2547Y8420D02*
G01X4808Y8420D01*
G01X4781Y8335D02*
G01X4781Y8207D01*
G01X4680Y8152D02*
G01X4632Y8104D01*
G01X4632Y8104D02*
G01X4491Y8104D01*
G01X4491Y8104D02*
G01X4491Y8267D01*
G01X4340Y8419D02*
G01X3159Y8419D01*
G01X3007Y8267D02*
G01X3007Y7656D01*
G01X3007Y7656D02*
G01X2625Y7656D01*
G01X2739Y7813D02*
G01X3007Y7813D01*
G01X2782Y8015D02*
G01X3007Y8015D01*
G01X2734Y8217D02*
G01X3007Y8217D01*
G01X4491Y8217D02*
G01X4781Y8217D01*
G01X2549Y8419D02*
G01X4807Y8419D01*
G01X4762Y8202D02*
G01X4762Y8420D01*
G01X4560Y8104D02*
G01X4560Y8420D01*
G01X4358Y8418D02*
G01X4358Y8420D01*
G01X4156Y8419D02*
G01X4156Y8420D01*
G01X3954Y8419D02*
G01X3954Y8420D01*
G01X3752Y8419D02*
G01X3752Y8420D01*
G01X3550Y8419D02*
G01X3550Y8420D01*
G01X3348Y8419D02*
G01X3348Y8420D01*
G01X3146Y8418D02*
G01X3146Y8420D01*
G01X2944Y7656D02*
G01X2944Y8420D01*
G01X2742Y7656D02*
G01X2742Y7820D01*
G01X2742Y8199D02*
G01X2742Y8420D01*
G01X4491Y7656D02*
G01X4491Y7701D01*
G01X4491Y7701D02*
G01X4715Y7701D01*
G01X4781Y7712D02*
G01X4781Y7685D01*
G01X4784Y7656D02*
G01X4491Y7656D01*
G01X4762Y7656D02*
G01X4762Y7707D01*
G01X4560Y7656D02*
G01X4560Y7701D01*
G01X9330Y8051D02*
G01X7615Y9767D01*
G01X7615Y9767D02*
G01X7615Y9792D01*
G01X7454Y9990D02*
G01X7454Y10118D01*
G01X7303Y10269D02*
G01X6653Y10269D01*
G01X6501Y10118D02*
G01X6501Y9990D01*
G01X6399Y9935D02*
G01X5287Y8823D01*
G01X5287Y8823D02*
G01X5223Y8823D01*
G01X5452Y9342D02*
G01X5452Y9547D01*
G01X5452Y9547D02*
G01X5657Y9547D01*
G01X6213Y10679D02*
G01X7120Y11585D01*
G01X7179Y11728D02*
G01X7179Y12314D01*
G01X6776Y12314D02*
G01X6776Y11811D01*
G01X6776Y11811D02*
G01X6250Y11285D01*
G01X5657Y12952D02*
G01X5452Y12952D01*
G01X5452Y12952D02*
G01X5452Y13157D01*
G01X2047Y13157D02*
G01X2047Y12952D01*
G01X2047Y12952D02*
G01X1842Y12952D01*
G01X1161Y10074D02*
G01X728Y10507D01*
G01X728Y10507D02*
G01X767Y10507D01*
G01X918Y10659D02*
G01X918Y11840D01*
G01X767Y11992D02*
G01X156Y11992D01*
G01X156Y11992D02*
G01X156Y18007D01*
G01X156Y18007D02*
G01X206Y18007D01*
G01X261Y17905D02*
G01X2167Y15999D01*
G01X1991Y15151D02*
G01X1875Y15151D01*
G01X1723Y15000D02*
G01X1723Y14450D01*
G01X1875Y14298D02*
G01X5779Y14298D01*
G01X5930Y14450D02*
G01X5930Y15000D01*
G01X5779Y15151D02*
G01X5731Y15151D01*
G01X5734Y15185D02*
G01X5734Y15835D01*
G01X5583Y15986D02*
G01X5519Y15986D01*
G01X5534Y15999D02*
G01X6501Y16967D01*
G01X6653Y16816D02*
G01X7303Y16816D01*
G01X7343Y16822D02*
G01X7343Y15468D01*
G01X7968Y14843D02*
G01X10507Y14843D01*
G01X10507Y14843D02*
G01X10507Y14232D01*
G01X10659Y14080D02*
G01X11840Y14080D01*
G01X11991Y14232D02*
G01X11991Y14270D01*
G01X11991Y14270D02*
G01X12424Y13838D01*
G01X9547Y13157D02*
G01X9547Y12952D01*
G01X9547Y12952D02*
G01X9342Y12952D01*
G01X9342Y9547D02*
G01X9547Y9547D01*
G01X9547Y9547D02*
G01X9547Y9342D01*
G01X12952Y9342D02*
G01X12952Y9547D01*
G01X12952Y9547D02*
G01X13157Y9547D01*
G01X13625Y9725D02*
G01X13625Y9597D01*
G01X13625Y9597D02*
G01X12616Y8588D01*
G01X12561Y8486D02*
G01X12433Y8486D01*
G01X12281Y8335D02*
G01X12281Y7775D01*
G01X12281Y7775D02*
G01X10220Y7775D01*
G01X10239Y7813D02*
G01X12281Y7813D01*
G01X10282Y8015D02*
G01X12281Y8015D01*
G01X9165Y8217D02*
G01X9376Y8217D01*
G01X10234Y8217D02*
G01X12281Y8217D01*
G01X8963Y8419D02*
G01X9561Y8419D01*
G01X10049Y8419D02*
G01X12307Y8419D01*
G01X8761Y8621D02*
G01X12649Y8621D01*
G01X8559Y8823D02*
G01X9776Y8823D01*
G01X10723Y8823D02*
G01X10986Y8823D01*
G01X11513Y8823D02*
G01X11776Y8823D01*
G01X12723Y8823D02*
G01X12851Y8823D01*
G01X5376Y9025D02*
G01X5489Y9025D01*
G01X8357Y9025D02*
G01X9622Y9025D01*
G01X12876Y9025D02*
G01X13053Y9025D01*
G01X5442Y9227D02*
G01X5691Y9227D01*
G01X8155Y9227D02*
G01X9556Y9227D01*
G01X12942Y9227D02*
G01X13255Y9227D01*
G01X5452Y9429D02*
G01X5893Y9429D01*
G01X7953Y9429D02*
G01X9547Y9429D01*
G01X12952Y9429D02*
G01X13457Y9429D01*
G01X5990Y9631D02*
G01X6095Y9631D01*
G01X7751Y9631D02*
G01X9009Y9631D01*
G01X13490Y9631D02*
G01X13625Y9631D01*
G01X6222Y9833D02*
G01X6297Y9833D01*
G01X7611Y9833D02*
G01X8776Y9833D01*
G01X6326Y10035D02*
G01X6501Y10035D01*
G01X7454Y10035D02*
G01X8673Y10035D01*
G01X999Y10237D02*
G01X1139Y10237D01*
G01X6359Y10237D02*
G01X6559Y10237D01*
G01X7396Y10237D02*
G01X8639Y10237D01*
G01X797Y10439D02*
G01X1165Y10439D01*
G01X6333Y10439D02*
G01X8665Y10439D01*
G01X917Y10641D02*
G01X1258Y10641D01*
G01X6240Y10641D02*
G01X8758Y10641D01*
G01X918Y10843D02*
G01X1456Y10843D01*
G01X6377Y10843D02*
G01X8956Y10843D01*
G01X918Y11045D02*
G01X1291Y11045D01*
G01X6579Y11045D02*
G01X8791Y11045D01*
G01X918Y11247D02*
G01X1248Y11247D01*
G01X6781Y11247D02*
G01X8748Y11247D01*
G01X918Y11449D02*
G01X1289Y11449D01*
G01X6209Y11449D02*
G01X6414Y11449D01*
G01X6983Y11449D02*
G01X8789Y11449D01*
G01X918Y11651D02*
G01X1448Y11651D01*
G01X6050Y11651D02*
G01X6616Y11651D01*
G01X7164Y11651D02*
G01X8948Y11651D01*
G01X918Y11853D02*
G01X1262Y11853D01*
G01X6237Y11853D02*
G01X6776Y11853D01*
G01X7179Y11853D02*
G01X8762Y11853D01*
G01X156Y12055D02*
G01X1167Y12055D01*
G01X6332Y12055D02*
G01X6776Y12055D01*
G01X7179Y12055D02*
G01X8667Y12055D01*
G01X156Y12257D02*
G01X1139Y12257D01*
G01X6359Y12257D02*
G01X6776Y12257D01*
G01X7179Y12257D02*
G01X8639Y12257D01*
G01X156Y12459D02*
G01X1171Y12459D01*
G01X6328Y12459D02*
G01X6597Y12459D01*
G01X7358Y12459D02*
G01X8671Y12459D01*
G01X156Y12661D02*
G01X1272Y12661D01*
G01X6226Y12661D02*
G01X6509Y12661D01*
G01X7447Y12661D02*
G01X8772Y12661D01*
G01X156Y12863D02*
G01X1499Y12863D01*
G01X6000Y12863D02*
G01X6516Y12863D01*
G01X7440Y12863D02*
G01X8999Y12863D01*
G01X156Y13065D02*
G01X2047Y13065D01*
G01X5452Y13065D02*
G01X6624Y13065D01*
G01X7331Y13065D02*
G01X9547Y13065D01*
G01X156Y13267D02*
G01X2055Y13267D01*
G01X5443Y13267D02*
G01X9555Y13267D01*
G01X156Y13469D02*
G01X2120Y13469D01*
G01X5379Y13469D02*
G01X9620Y13469D01*
G01X156Y13671D02*
G01X2270Y13671D01*
G01X3229Y13671D02*
G01X3477Y13671D01*
G01X4021Y13671D02*
G01X4270Y13671D01*
G01X5229Y13671D02*
G01X9770Y13671D01*
G01X10729Y13671D02*
G01X10977Y13671D01*
G01X11521Y13671D02*
G01X11770Y13671D01*
G01X156Y13873D02*
G01X12389Y13873D01*
G01X156Y14075D02*
G01X12187Y14075D01*
G01X156Y14277D02*
G01X10507Y14277D01*
G01X156Y14479D02*
G01X1723Y14479D01*
G01X5930Y14479D02*
G01X10507Y14479D01*
G01X156Y14681D02*
G01X1723Y14681D01*
G01X5930Y14681D02*
G01X10507Y14681D01*
G01X156Y14883D02*
G01X1723Y14883D01*
G01X5930Y14883D02*
G01X7749Y14883D01*
G01X156Y15085D02*
G01X1749Y15085D01*
G01X5904Y15085D02*
G01X7474Y15085D01*
G01X156Y15287D02*
G01X1884Y15287D01*
G01X5734Y15287D02*
G01X7370Y15287D01*
G01X156Y15489D02*
G01X1829Y15489D01*
G01X5734Y15489D02*
G01X7343Y15489D01*
G01X156Y15691D02*
G01X1864Y15691D01*
G01X5734Y15691D02*
G01X7343Y15691D01*
G01X156Y15893D02*
G01X2022Y15893D01*
G01X5723Y15893D02*
G01X7343Y15893D01*
G01X156Y16095D02*
G01X2071Y16095D01*
G01X5629Y16095D02*
G01X7343Y16095D01*
G01X156Y16297D02*
G01X1869Y16297D01*
G01X5831Y16297D02*
G01X7343Y16297D01*
G01X156Y16499D02*
G01X1667Y16499D01*
G01X6033Y16499D02*
G01X7343Y16499D01*
G01X156Y16701D02*
G01X1465Y16701D01*
G01X6235Y16701D02*
G01X7343Y16701D01*
G01X156Y16903D02*
G01X1263Y16903D01*
G01X6437Y16903D02*
G01X6516Y16903D01*
G01X156Y17105D02*
G01X1061Y17105D01*
G01X156Y17307D02*
G01X859Y17307D01*
G01X156Y17509D02*
G01X657Y17509D01*
G01X156Y17711D02*
G01X455Y17711D01*
G01X156Y17913D02*
G01X253Y17913D01*
G01X13448Y9420D02*
G01X13448Y9610D01*
G01X13246Y9218D02*
G01X13246Y9553D01*
G01X13044Y9016D02*
G01X13044Y9547D01*
G01X12842Y8814D02*
G01X12842Y8965D01*
G01X12640Y8612D02*
G01X12640Y8758D01*
G01X12438Y8486D02*
G01X12438Y8665D01*
G01X12236Y7775D02*
G01X12236Y8639D01*
G01X12236Y13860D02*
G01X12236Y14026D01*
G01X12034Y7775D02*
G01X12034Y8673D01*
G01X12034Y13826D02*
G01X12034Y14228D01*
G01X11832Y7775D02*
G01X11832Y8776D01*
G01X11832Y13723D02*
G01X11832Y14080D01*
G01X11630Y7775D02*
G01X11630Y8923D01*
G01X11630Y13576D02*
G01X11630Y14080D01*
G01X11428Y7775D02*
G01X11428Y8781D01*
G01X11428Y13718D02*
G01X11428Y14080D01*
G01X11226Y7775D02*
G01X11226Y8749D01*
G01X11226Y13750D02*
G01X11226Y14080D01*
G01X11024Y7775D02*
G01X11024Y8801D01*
G01X11024Y13698D02*
G01X11024Y14080D01*
G01X10822Y7775D02*
G01X10822Y8935D01*
G01X10822Y13564D02*
G01X10822Y14080D01*
G01X10620Y7775D02*
G01X10620Y8745D01*
G01X10620Y13754D02*
G01X10620Y14085D01*
G01X10418Y7775D02*
G01X10418Y8660D01*
G01X10418Y13839D02*
G01X10418Y14843D01*
G01X10216Y8250D02*
G01X10216Y8640D01*
G01X10216Y13859D02*
G01X10216Y14843D01*
G01X10014Y8438D02*
G01X10014Y8680D01*
G01X10014Y13819D02*
G01X10014Y14843D01*
G01X9812Y8486D02*
G01X9812Y8792D01*
G01X9812Y13707D02*
G01X9812Y14843D01*
G01X9610Y8444D02*
G01X9610Y9050D01*
G01X9610Y13449D02*
G01X9610Y14843D01*
G01X9408Y8273D02*
G01X9408Y9547D01*
G01X9408Y12952D02*
G01X9408Y14843D01*
G01X9206Y8175D02*
G01X9206Y9560D01*
G01X9206Y12939D02*
G01X9206Y14843D01*
G01X9004Y8377D02*
G01X9004Y9633D01*
G01X9004Y12866D02*
G01X9004Y14843D01*
G01X8802Y8579D02*
G01X8802Y9799D01*
G01X8802Y10700D02*
G01X8802Y11022D01*
G01X8802Y11477D02*
G01X8802Y11799D01*
G01X8802Y12700D02*
G01X8802Y14843D01*
G01X8600Y8781D02*
G01X8600Y14843D01*
G01X8398Y8983D02*
G01X8398Y14843D01*
G01X8196Y9185D02*
G01X8196Y14843D01*
G01X7994Y9387D02*
G01X7994Y14843D01*
G01X7792Y9589D02*
G01X7792Y14868D01*
G01X7590Y9889D02*
G01X7590Y14970D01*
G01X7388Y10243D02*
G01X7388Y12504D01*
G01X7388Y12987D02*
G01X7388Y15235D01*
G01X7186Y10269D02*
G01X7186Y12317D01*
G01X7186Y13174D02*
G01X7186Y16816D01*
G01X6984Y10269D02*
G01X6984Y11450D01*
G01X6984Y13222D02*
G01X6984Y16816D01*
G01X6782Y10269D02*
G01X6782Y11248D01*
G01X6782Y13180D02*
G01X6782Y16816D01*
G01X6580Y10251D02*
G01X6580Y11046D01*
G01X6580Y11615D02*
G01X6580Y12483D01*
G01X6580Y13009D02*
G01X6580Y16835D01*
G01X6378Y9914D02*
G01X6378Y10844D01*
G01X6378Y11413D02*
G01X6378Y16844D01*
G01X6176Y9712D02*
G01X6176Y9776D01*
G01X6176Y11513D02*
G01X6176Y11776D01*
G01X6176Y12723D02*
G01X6176Y16642D01*
G01X5974Y9510D02*
G01X5974Y9623D01*
G01X5974Y12876D02*
G01X5974Y16440D01*
G01X5772Y9308D02*
G01X5772Y9556D01*
G01X5772Y12943D02*
G01X5772Y14298D01*
G01X5772Y15151D02*
G01X5772Y16238D01*
G01X5570Y9106D02*
G01X5570Y9547D01*
G01X5570Y12952D02*
G01X5570Y14298D01*
G01X5570Y15986D02*
G01X5570Y16036D01*
G01X5368Y8904D02*
G01X5368Y9009D01*
G01X5368Y13490D02*
G01X5368Y14298D01*
G01X5166Y13723D02*
G01X5166Y14298D01*
G01X4964Y13826D02*
G01X4964Y14298D01*
G01X4762Y13860D02*
G01X4762Y14298D01*
G01X4560Y13834D02*
G01X4560Y14298D01*
G01X4358Y13741D02*
G01X4358Y14298D01*
G01X4156Y13543D02*
G01X4156Y14298D01*
G01X3954Y13707D02*
G01X3954Y14298D01*
G01X3752Y13751D02*
G01X3752Y14298D01*
G01X3550Y13710D02*
G01X3550Y14298D01*
G01X3348Y13551D02*
G01X3348Y14298D01*
G01X3146Y13737D02*
G01X3146Y14298D01*
G01X2944Y13832D02*
G01X2944Y14298D01*
G01X2742Y13860D02*
G01X2742Y14298D01*
G01X2540Y13828D02*
G01X2540Y14298D01*
G01X2338Y13727D02*
G01X2338Y14298D01*
G01X2136Y13500D02*
G01X2136Y14298D01*
G01X2136Y15955D02*
G01X2136Y16030D01*
G01X1934Y12952D02*
G01X1934Y14298D01*
G01X1934Y15151D02*
G01X1934Y15210D01*
G01X1934Y15809D02*
G01X1934Y16232D01*
G01X1732Y12944D02*
G01X1732Y14398D01*
G01X1732Y15051D02*
G01X1732Y16434D01*
G01X1530Y12879D02*
G01X1530Y16636D01*
G01X1328Y10729D02*
G01X1328Y10977D01*
G01X1328Y11522D02*
G01X1328Y11770D01*
G01X1328Y12729D02*
G01X1328Y16838D01*
G01X1126Y10109D02*
G01X1126Y17040D01*
G01X924Y10311D02*
G01X924Y17242D01*
G01X722Y11992D02*
G01X722Y17444D01*
G01X520Y11992D02*
G01X520Y17646D01*
G01X318Y11992D02*
G01X318Y17848D01*
G01X14276Y8931D02*
G01X13234Y7890D01*
G01X13234Y7890D02*
G01X13234Y8335D01*
G01X13084Y8486D02*
G01X13969Y9371D01*
G01X14153Y9316D02*
G01X14276Y9316D01*
G01X14276Y9316D02*
G01X14276Y8931D01*
G01X13234Y8015D02*
G01X13360Y8015D01*
G01X13234Y8217D02*
G01X13562Y8217D01*
G01X13209Y8419D02*
G01X13764Y8419D01*
G01X13218Y8621D02*
G01X13966Y8621D01*
G01X13420Y8823D02*
G01X14168Y8823D01*
G01X13622Y9025D02*
G01X14276Y9025D01*
G01X13824Y9227D02*
G01X14276Y9227D01*
G01X14256Y8911D02*
G01X14256Y9316D01*
G01X14054Y8709D02*
G01X14054Y9352D01*
G01X13852Y8507D02*
G01X13852Y9255D01*
G01X13650Y8305D02*
G01X13650Y9053D01*
G01X13448Y8103D02*
G01X13448Y8851D01*
G01X13246Y7901D02*
G01X13246Y8649D01*
G01X3485Y8823D02*
G01X3223Y8823D01*
G01X3348Y8823D02*
G01X3348Y8948D01*
G01X4276Y8823D02*
G01X4013Y8823D01*
G01X4156Y8823D02*
G01X4156Y8956D01*
G01X2069Y9167D02*
G01X1667Y9569D01*
G01X1842Y9547D02*
G01X2047Y9547D01*
G01X2047Y9547D02*
G01X2047Y9342D01*
G01X2009Y9227D02*
G01X2056Y9227D01*
G01X1807Y9429D02*
G01X2047Y9429D01*
G01X1934Y9301D02*
G01X1934Y9547D01*
G01X1732Y9503D02*
G01X1732Y9555D01*
G01X3452Y9653D02*
G01X3452Y9657D01*
G01X2359Y10922D02*
G01X2805Y11369D01*
G01X3630Y12194D02*
G01X3860Y12423D01*
G01X3860Y12423D02*
G01X4185Y12423D01*
G01X5342Y11547D02*
G01X5345Y11547D01*
G01X5345Y10952D02*
G01X5342Y10952D01*
G01X4047Y9657D02*
G01X4047Y9653D01*
G01X3430Y9833D02*
G01X4069Y9833D01*
G01X3342Y10035D02*
G01X4157Y10035D01*
G01X3146Y10237D02*
G01X4352Y10237D01*
G01X2833Y10439D02*
G01X3251Y10439D01*
G01X4247Y10439D02*
G01X4665Y10439D01*
G01X2740Y10641D02*
G01X3018Y10641D01*
G01X4481Y10641D02*
G01X4758Y10641D01*
G01X2533Y10843D02*
G01X2889Y10843D01*
G01X4609Y10843D02*
G01X4965Y10843D01*
G01X2481Y11045D02*
G01X2820Y11045D01*
G01X4678Y11045D02*
G01X5291Y11045D01*
G01X2683Y11247D02*
G01X2798Y11247D01*
G01X4701Y11247D02*
G01X5248Y11247D01*
G01X4680Y11449D02*
G01X5289Y11449D01*
G01X4612Y11651D02*
G01X4974Y11651D01*
G01X4485Y11853D02*
G01X4762Y11853D01*
G01X4256Y12055D02*
G01X4667Y12055D01*
G01X3693Y12257D02*
G01X4360Y12257D01*
G01X5166Y10930D02*
G01X5166Y11569D01*
G01X4964Y10842D02*
G01X4964Y11657D01*
G01X4762Y10647D02*
G01X4762Y11852D01*
G01X4560Y10334D02*
G01X4560Y10752D01*
G01X4560Y11747D02*
G01X4560Y12165D01*
G01X4358Y10241D02*
G01X4358Y10518D01*
G01X4358Y11981D02*
G01X4358Y12258D01*
G01X4156Y10034D02*
G01X4156Y10389D01*
G01X4156Y12110D02*
G01X4156Y12423D01*
G01X3954Y9707D02*
G01X3954Y10320D01*
G01X3954Y12179D02*
G01X3954Y12423D01*
G01X3752Y9751D02*
G01X3752Y10298D01*
G01X3752Y12201D02*
G01X3752Y12316D01*
G01X3550Y9710D02*
G01X3550Y10319D01*
G01X3348Y10024D02*
G01X3348Y10387D01*
G01X3146Y10237D02*
G01X3146Y10513D01*
G01X2944Y10332D02*
G01X2944Y10742D01*
G01X2742Y10638D02*
G01X2742Y11306D01*
G01X2540Y10838D02*
G01X2540Y11104D01*
G01X10952Y9653D02*
G01X10952Y9657D01*
G01X9859Y10922D02*
G01X10305Y11369D01*
G01X11130Y12194D02*
G01X11360Y12423D01*
G01X11360Y12423D02*
G01X11685Y12423D01*
G01X12842Y11547D02*
G01X12845Y11547D01*
G01X12845Y10952D02*
G01X12842Y10952D01*
G01X11547Y9657D02*
G01X11547Y9653D01*
G01X10930Y9833D02*
G01X11569Y9833D01*
G01X10842Y10035D02*
G01X11657Y10035D01*
G01X10646Y10237D02*
G01X11852Y10237D01*
G01X10333Y10439D02*
G01X10751Y10439D01*
G01X11747Y10439D02*
G01X12165Y10439D01*
G01X10240Y10641D02*
G01X10518Y10641D01*
G01X11981Y10641D02*
G01X12258Y10641D01*
G01X10033Y10843D02*
G01X10389Y10843D01*
G01X12109Y10843D02*
G01X12465Y10843D01*
G01X9981Y11045D02*
G01X10320Y11045D01*
G01X12178Y11045D02*
G01X12791Y11045D01*
G01X10183Y11247D02*
G01X10298Y11247D01*
G01X12201Y11247D02*
G01X12748Y11247D01*
G01X12180Y11449D02*
G01X12789Y11449D01*
G01X12112Y11651D02*
G01X12474Y11651D01*
G01X11985Y11853D02*
G01X12262Y11853D01*
G01X11756Y12055D02*
G01X12167Y12055D01*
G01X11193Y12257D02*
G01X11860Y12257D01*
G01X12842Y10952D02*
G01X12842Y10956D01*
G01X12842Y11543D02*
G01X12842Y11547D01*
G01X12640Y10923D02*
G01X12640Y11576D01*
G01X12438Y10825D02*
G01X12438Y11674D01*
G01X12236Y10606D02*
G01X12236Y11893D01*
G01X12034Y10326D02*
G01X12034Y10712D01*
G01X12034Y11787D02*
G01X12034Y12173D01*
G01X11832Y10223D02*
G01X11832Y10498D01*
G01X11832Y12001D02*
G01X11832Y12276D01*
G01X11630Y9990D02*
G01X11630Y10378D01*
G01X11630Y12121D02*
G01X11630Y12423D01*
G01X11428Y9718D02*
G01X11428Y10315D01*
G01X11428Y12184D02*
G01X11428Y12423D01*
G01X11226Y9750D02*
G01X11226Y10298D01*
G01X11226Y12201D02*
G01X11226Y12290D01*
G01X11024Y9698D02*
G01X11024Y10325D01*
G01X10822Y10064D02*
G01X10822Y10399D01*
G01X10620Y10254D02*
G01X10620Y10536D01*
G01X10418Y10339D02*
G01X10418Y10786D01*
G01X10216Y10675D02*
G01X10216Y11280D01*
G01X10014Y10854D02*
G01X10014Y11078D01*
G01X14028Y10204D02*
G01X14028Y12589D01*
G01X14843Y12440D02*
G01X14843Y11992D01*
G01X14843Y11992D02*
G01X14232Y11992D01*
G01X14080Y11840D02*
G01X14080Y10659D01*
G01X14232Y10507D02*
G01X14843Y10507D01*
G01X14843Y10507D02*
G01X14843Y10264D01*
G01X14803Y10269D02*
G01X14153Y10269D01*
G01X14028Y10237D02*
G01X14059Y10237D01*
G01X14028Y10439D02*
G01X14843Y10439D01*
G01X14028Y10641D02*
G01X14081Y10641D01*
G01X14028Y10843D02*
G01X14080Y10843D01*
G01X14028Y11045D02*
G01X14080Y11045D01*
G01X14028Y11247D02*
G01X14080Y11247D01*
G01X14028Y11449D02*
G01X14080Y11449D01*
G01X14028Y11651D02*
G01X14080Y11651D01*
G01X14028Y11853D02*
G01X14081Y11853D01*
G01X14028Y12055D02*
G01X14843Y12055D01*
G01X14028Y12257D02*
G01X14843Y12257D01*
G01X14028Y12459D02*
G01X14097Y12459D01*
G01X14660Y10269D02*
G01X14660Y10507D01*
G01X14660Y11992D02*
G01X14660Y12305D01*
G01X14458Y10269D02*
G01X14458Y10507D01*
G01X14458Y11992D02*
G01X14458Y12269D01*
G01X14256Y10269D02*
G01X14256Y10507D01*
G01X14256Y11992D02*
G01X14256Y12324D01*
G01X14054Y10233D02*
G01X14054Y12527D01*
G01X13625Y10917D02*
G01X13625Y10774D01*
G01X13543Y10843D02*
G01X13625Y10843D01*
G01X2507Y11641D02*
G01X2236Y11369D01*
G01X2153Y11547D02*
G01X2157Y11547D01*
G01X2209Y11449D02*
G01X2316Y11449D01*
G01X2338Y11471D02*
G01X2338Y11571D01*
G01X10007Y11641D02*
G01X9736Y11369D01*
G01X9653Y11547D02*
G01X9657Y11547D01*
G01X9709Y11449D02*
G01X9816Y11449D01*
G01X9812Y11445D02*
G01X9812Y11564D01*
G01X13625Y11725D02*
G01X13625Y11582D01*
G01X13550Y11651D02*
G01X13625Y11651D01*
G01X3100Y12233D02*
G01X2766Y11899D01*
G01X2832Y12055D02*
G01X2922Y12055D01*
G01X2944Y12077D02*
G01X2944Y12167D01*
G01X10600Y12233D02*
G01X10266Y11899D01*
G01X10332Y12055D02*
G01X10422Y12055D01*
G01X10418Y12051D02*
G01X10418Y12160D01*
G01X3629Y12763D02*
G01X3358Y12491D01*
G01X3452Y12842D02*
G01X3452Y12846D01*
G01X3428Y12661D02*
G01X3528Y12661D01*
G01X3550Y12683D02*
G01X3550Y12789D01*
G01X11129Y12763D02*
G01X10858Y12491D01*
G01X10952Y12842D02*
G01X10952Y12846D01*
G01X10928Y12661D02*
G01X11028Y12661D01*
G01X11024Y12657D02*
G01X11024Y12801D01*
G01X13969Y12863D02*
G01X12094Y14738D01*
G01X11991Y14793D02*
G01X11991Y14843D01*
G01X11991Y14843D02*
G01X14531Y14843D01*
G01X14843Y14531D02*
G01X14843Y13051D01*
G01X13969Y12863D02*
G01X14016Y12863D01*
G01X13767Y13065D02*
G01X14124Y13065D01*
G01X14831Y13065D02*
G01X14843Y13065D01*
G01X13565Y13267D02*
G01X14843Y13267D01*
G01X13363Y13469D02*
G01X14843Y13469D01*
G01X13161Y13671D02*
G01X14843Y13671D01*
G01X12959Y13873D02*
G01X14843Y13873D01*
G01X12757Y14075D02*
G01X14843Y14075D01*
G01X12555Y14277D02*
G01X14843Y14277D01*
G01X12353Y14479D02*
G01X14843Y14479D01*
G01X12151Y14681D02*
G01X14805Y14681D01*
G01X14660Y13186D02*
G01X14660Y14815D01*
G01X14458Y13222D02*
G01X14458Y14843D01*
G01X14256Y13168D02*
G01X14256Y14843D01*
G01X14054Y12964D02*
G01X14054Y14843D01*
G01X13852Y12979D02*
G01X13852Y14843D01*
G01X13650Y13181D02*
G01X13650Y14843D01*
G01X13448Y13383D02*
G01X13448Y14843D01*
G01X13246Y13585D02*
G01X13246Y14843D01*
G01X13044Y13787D02*
G01X13044Y14843D01*
G01X12842Y13989D02*
G01X12842Y14843D01*
G01X12640Y14191D02*
G01X12640Y14843D01*
G01X12438Y14393D02*
G01X12438Y14843D01*
G01X12236Y14595D02*
G01X12236Y14843D01*
G01X12034Y14779D02*
G01X12034Y14843D01*
G01X4047Y12826D02*
G01X4018Y12826D01*
G01X4047Y12846D02*
G01X4047Y12842D01*
G01X11547Y12846D02*
G01X11547Y12842D01*
G01X11547Y12826D02*
G01X11518Y12826D01*
G01X13157Y12952D02*
G01X12952Y12952D01*
G01X12952Y12952D02*
G01X12952Y13157D01*
G01X12930Y13332D02*
G01X13332Y12930D01*
G01X12952Y13065D02*
G01X13197Y13065D01*
G01X12943Y13267D02*
G01X12995Y13267D01*
G01X13246Y12946D02*
G01X13246Y13016D01*
G01X13044Y12952D02*
G01X13044Y13218D01*
G01X2509Y15940D02*
G01X4824Y15940D01*
G01X4781Y15835D02*
G01X4781Y15185D01*
G01X4785Y15151D02*
G01X2619Y15151D01*
G01X2726Y15287D02*
G01X4781Y15287D01*
G01X2781Y15489D02*
G01X4781Y15489D01*
G01X2746Y15691D02*
G01X4781Y15691D01*
G01X2588Y15893D02*
G01X4793Y15893D01*
G01X4762Y15151D02*
G01X4762Y15940D01*
G01X4560Y15151D02*
G01X4560Y15940D01*
G01X4358Y15151D02*
G01X4358Y15940D01*
G01X4156Y15151D02*
G01X4156Y15940D01*
G01X3954Y15151D02*
G01X3954Y15940D01*
G01X3752Y15151D02*
G01X3752Y15940D01*
G01X3550Y15151D02*
G01X3550Y15940D01*
G01X3348Y15151D02*
G01X3348Y15940D01*
G01X3146Y15151D02*
G01X3146Y15940D01*
G01X2944Y15151D02*
G01X2944Y15940D01*
G01X2742Y15151D02*
G01X2742Y15320D01*
G01X2742Y15699D02*
G01X2742Y15940D01*
G01X2540Y15924D02*
G01X2540Y15940D01*
G01X3456Y16343D02*
G01X3244Y16343D01*
G01X3348Y16343D02*
G01X3348Y16448D01*
G01X4255Y16343D02*
G01X4043Y16343D01*
G01X4156Y16343D02*
G01X4156Y16456D01*
G01X6399Y17435D02*
G01X5308Y16343D01*
G01X5308Y16343D02*
G01X5244Y16343D01*
G01X5452Y16842D02*
G01X5452Y17047D01*
G01X5452Y17047D02*
G01X5657Y17047D01*
G01X6213Y18179D02*
G01X6580Y18545D01*
G01X6580Y18545D02*
G01X6580Y18159D01*
G01X6732Y18007D02*
G01X7343Y18007D01*
G01X7343Y18007D02*
G01X7343Y17764D01*
G01X7303Y17769D02*
G01X6653Y17769D01*
G01X6501Y17618D02*
G01X6501Y17490D01*
G01X5362Y16499D02*
G01X5463Y16499D01*
G01X5438Y16701D02*
G01X5665Y16701D01*
G01X5452Y16903D02*
G01X5867Y16903D01*
G01X5936Y17105D02*
G01X6069Y17105D01*
G01X6202Y17307D02*
G01X6271Y17307D01*
G01X6317Y17509D02*
G01X6501Y17509D01*
G01X6358Y17711D02*
G01X6533Y17711D01*
G01X6340Y17913D02*
G01X7343Y17913D01*
G01X6257Y18115D02*
G01X6587Y18115D01*
G01X6351Y18317D02*
G01X6580Y18317D01*
G01X6553Y18519D02*
G01X6580Y18519D01*
G01X7186Y17769D02*
G01X7186Y18007D01*
G01X6984Y17769D02*
G01X6984Y18007D01*
G01X6782Y17769D02*
G01X6782Y18007D01*
G01X6580Y17751D02*
G01X6580Y18152D01*
G01X6378Y17414D02*
G01X6378Y18344D01*
G01X6176Y17212D02*
G01X6176Y17276D01*
G01X5974Y17010D02*
G01X5974Y17123D01*
G01X5772Y16808D02*
G01X5772Y17056D01*
G01X5570Y16606D02*
G01X5570Y17047D01*
G01X5368Y16404D02*
G01X5368Y16509D01*
G01X2069Y16667D02*
G01X1667Y17069D01*
G01X1842Y17047D02*
G01X2047Y17047D01*
G01X2047Y17047D02*
G01X2047Y16842D01*
G01X2035Y16701D02*
G01X2061Y16701D01*
G01X1833Y16903D02*
G01X2047Y16903D01*
G01X1934Y16801D02*
G01X1934Y17047D01*
G01X1732Y17003D02*
G01X1732Y17055D01*
G01X3452Y17153D02*
G01X3452Y17157D01*
G01X2359Y18422D02*
G01X2805Y18869D01*
G01X3630Y19694D02*
G01X3860Y19923D01*
G01X3860Y19923D02*
G01X4185Y19923D01*
G01X5342Y19047D02*
G01X5345Y19047D01*
G01X5345Y18452D02*
G01X5342Y18452D01*
G01X4047Y17157D02*
G01X4047Y17153D01*
G01X3436Y17307D02*
G01X4063Y17307D01*
G01X3358Y17509D02*
G01X4141Y17509D01*
G01X3182Y17711D02*
G01X4317Y17711D01*
G01X2840Y17913D02*
G01X3296Y17913D01*
G01X4202Y17913D02*
G01X4658Y17913D01*
G01X2757Y18115D02*
G01X3040Y18115D01*
G01X4458Y18115D02*
G01X4741Y18115D01*
G01X2571Y18317D02*
G01X2902Y18317D01*
G01X4597Y18317D02*
G01X4927Y18317D01*
G01X2455Y18519D02*
G01X2826Y18519D01*
G01X4672Y18519D02*
G01X5304Y18519D01*
G01X2657Y18721D02*
G01X2798Y18721D01*
G01X4700Y18721D02*
G01X5249Y18721D01*
G01X4685Y18923D02*
G01X5279Y18923D01*
G01X4624Y19125D02*
G01X5020Y19125D01*
G01X4506Y19327D02*
G01X4780Y19327D01*
G01X4295Y19529D02*
G01X4675Y19529D01*
G01X3667Y19731D02*
G01X4403Y19731D01*
G01X5166Y18430D02*
G01X5166Y19069D01*
G01X4964Y18342D02*
G01X4964Y19157D01*
G01X4762Y18147D02*
G01X4762Y19352D01*
G01X4560Y17834D02*
G01X4560Y18252D01*
G01X4560Y19247D02*
G01X4560Y19665D01*
G01X4358Y17741D02*
G01X4358Y18018D01*
G01X4358Y19481D02*
G01X4358Y19758D01*
G01X4156Y17534D02*
G01X4156Y17889D01*
G01X4156Y19610D02*
G01X4156Y19923D01*
G01X3954Y17207D02*
G01X3954Y17820D01*
G01X3954Y19679D02*
G01X3954Y19923D01*
G01X3752Y17251D02*
G01X3752Y17798D01*
G01X3752Y19701D02*
G01X3752Y19816D01*
G01X3550Y17210D02*
G01X3550Y17819D01*
G01X3348Y17524D02*
G01X3348Y17887D01*
G01X3146Y17737D02*
G01X3146Y18013D01*
G01X2944Y17832D02*
G01X2944Y18242D01*
G01X2742Y18138D02*
G01X2742Y18806D01*
G01X2540Y18338D02*
G01X2540Y18604D01*
G01X1161Y17574D02*
G01X728Y18007D01*
G01X728Y18007D02*
G01X767Y18007D01*
G01X918Y18159D02*
G01X918Y19340D01*
G01X767Y19492D02*
G01X156Y19492D01*
G01X156Y19492D02*
G01X156Y22031D01*
G01X468Y22343D02*
G01X3007Y22343D01*
G01X3007Y22343D02*
G01X3007Y21732D01*
G01X3159Y21580D02*
G01X4340Y21580D01*
G01X4491Y21732D02*
G01X4491Y22343D01*
G01X4491Y22343D02*
G01X7031Y22343D01*
G01X7343Y22031D02*
G01X7343Y20551D01*
G01X6501Y20253D02*
G01X5247Y21508D01*
G01X5104Y21567D02*
G01X3615Y21567D01*
G01X3473Y21508D02*
G01X3178Y21213D01*
G01X2047Y20657D02*
G01X2047Y20452D01*
G01X2047Y20452D02*
G01X1842Y20452D01*
G01X1025Y17711D02*
G01X1140Y17711D01*
G01X823Y17913D02*
G01X1158Y17913D01*
G01X912Y18115D02*
G01X1241Y18115D01*
G01X918Y18317D02*
G01X1427Y18317D01*
G01X918Y18519D02*
G01X1304Y18519D01*
G01X918Y18721D02*
G01X1249Y18721D01*
G01X918Y18923D02*
G01X1279Y18923D01*
G01X918Y19125D02*
G01X1417Y19125D01*
G01X918Y19327D02*
G01X1280Y19327D01*
G01X156Y19529D02*
G01X1175Y19529D01*
G01X156Y19731D02*
G01X1139Y19731D01*
G01X156Y19933D02*
G01X1163Y19933D01*
G01X156Y20135D02*
G01X1254Y20135D01*
G01X156Y20337D02*
G01X1456Y20337D01*
G01X6418Y20337D02*
G01X6510Y20337D01*
G01X156Y20539D02*
G01X2047Y20539D01*
G01X6216Y20539D02*
G01X6602Y20539D01*
G01X156Y20741D02*
G01X2052Y20741D01*
G01X6014Y20741D02*
G01X7343Y20741D01*
G01X156Y20943D02*
G01X2107Y20943D01*
G01X5812Y20943D02*
G01X7343Y20943D01*
G01X156Y21145D02*
G01X2243Y21145D01*
G01X5610Y21145D02*
G01X7343Y21145D01*
G01X156Y21347D02*
G01X2615Y21347D01*
G01X2883Y21347D02*
G01X3312Y21347D01*
G01X5408Y21347D02*
G01X7343Y21347D01*
G01X156Y21549D02*
G01X3531Y21549D01*
G01X5188Y21549D02*
G01X7343Y21549D01*
G01X156Y21751D02*
G01X3007Y21751D01*
G01X4491Y21751D02*
G01X7343Y21751D01*
G01X156Y21953D02*
G01X3007Y21953D01*
G01X4491Y21953D02*
G01X7343Y21953D01*
G01X182Y22155D02*
G01X3007Y22155D01*
G01X4491Y22155D02*
G01X7317Y22155D01*
G01X7186Y20674D02*
G01X7186Y22302D01*
G01X6984Y20722D02*
G01X6984Y22343D01*
G01X6782Y20680D02*
G01X6782Y22343D01*
G01X6580Y20509D02*
G01X6580Y22343D01*
G01X6378Y20376D02*
G01X6378Y22343D01*
G01X6176Y20578D02*
G01X6176Y22343D01*
G01X5974Y20780D02*
G01X5974Y22343D01*
G01X5772Y20982D02*
G01X5772Y22343D01*
G01X5570Y21184D02*
G01X5570Y22343D01*
G01X5368Y21386D02*
G01X5368Y22343D01*
G01X5166Y21557D02*
G01X5166Y22343D01*
G01X4964Y21567D02*
G01X4964Y22343D01*
G01X4762Y21567D02*
G01X4762Y22343D01*
G01X4560Y21567D02*
G01X4560Y22343D01*
G01X4358Y21567D02*
G01X4358Y21581D01*
G01X4156Y21567D02*
G01X4156Y21580D01*
G01X3954Y21567D02*
G01X3954Y21580D01*
G01X3752Y21567D02*
G01X3752Y21580D01*
G01X3550Y21556D02*
G01X3550Y21580D01*
G01X3348Y21383D02*
G01X3348Y21580D01*
G01X3146Y21237D02*
G01X3146Y21581D01*
G01X2944Y21332D02*
G01X2944Y22343D01*
G01X2742Y21360D02*
G01X2742Y22343D01*
G01X2540Y21328D02*
G01X2540Y22343D01*
G01X2338Y21227D02*
G01X2338Y22343D01*
G01X2136Y21000D02*
G01X2136Y22343D01*
G01X1934Y20452D02*
G01X1934Y22343D01*
G01X1732Y20444D02*
G01X1732Y22343D01*
G01X1530Y20379D02*
G01X1530Y22343D01*
G01X1328Y18229D02*
G01X1328Y18477D01*
G01X1328Y19022D02*
G01X1328Y19270D01*
G01X1328Y20229D02*
G01X1328Y22343D01*
G01X1126Y17609D02*
G01X1126Y22343D01*
G01X924Y17811D02*
G01X924Y22343D01*
G01X722Y19492D02*
G01X722Y22343D01*
G01X520Y19492D02*
G01X520Y22343D01*
G01X318Y19492D02*
G01X318Y22305D01*
G01X6271Y18806D02*
G01X6250Y18785D01*
G01X6271Y19408D02*
G01X6271Y18806D01*
G01X6220Y18923D02*
G01X6271Y18923D01*
G01X6082Y19125D02*
G01X6271Y19125D01*
G01X6218Y19327D02*
G01X6271Y19327D01*
G01X6176Y19013D02*
G01X6176Y19276D01*
G01X2507Y19141D02*
G01X2236Y18869D01*
G01X2153Y19047D02*
G01X2157Y19047D01*
G01X2220Y18923D02*
G01X2290Y18923D01*
G01X2478Y19125D02*
G01X2492Y19125D01*
G01X2338Y18971D02*
G01X2338Y19071D01*
G01X3100Y19733D02*
G01X2766Y19399D01*
G01X2824Y19529D02*
G01X2896Y19529D01*
G01X3096Y19731D02*
G01X3098Y19731D01*
G01X2944Y19577D02*
G01X2944Y19667D01*
G01X6674Y19480D02*
G01X6674Y19657D01*
G01X6674Y19657D02*
G01X6743Y19725D01*
G01X6744Y19726D02*
G01X6815Y19798D01*
G01X7343Y19940D02*
G01X7343Y19492D01*
G01X7343Y19492D02*
G01X6732Y19492D01*
G01X6674Y19529D02*
G01X7343Y19529D01*
G01X6748Y19731D02*
G01X7343Y19731D01*
G01X7337Y19933D02*
G01X7343Y19933D01*
G01X7186Y19492D02*
G01X7186Y19817D01*
G01X6984Y19492D02*
G01X6984Y19769D01*
G01X6782Y19492D02*
G01X6782Y19765D01*
G01X3629Y20263D02*
G01X3358Y19991D01*
G01X3452Y20342D02*
G01X3452Y20346D01*
G01X3421Y20135D02*
G01X3502Y20135D01*
G01X3452Y20337D02*
G01X3464Y20337D01*
G01X3550Y20183D02*
G01X3550Y20289D01*
G01X4047Y20326D02*
G01X4018Y20326D01*
G01X4047Y20346D02*
G01X4047Y20342D01*
G01X4034Y20337D02*
G01X4047Y20337D01*
G01X5657Y20452D02*
G01X5452Y20452D01*
G01X5452Y20452D02*
G01X5452Y20657D01*
G01X5447Y20737D02*
G01X5737Y20448D01*
G01X5452Y20539D02*
G01X5646Y20539D01*
G01X5570Y20452D02*
G01X5570Y20615D01*
G01X4032Y21164D02*
G01X4263Y21164D01*
G01X4058Y21145D02*
G01X4243Y21145D01*
G01X4156Y21043D02*
G01X4156Y21164D01*
G01X7659Y426D02*
G01X7659Y3007D01*
G01X7659Y3007D02*
G01X7706Y3007D01*
G01X7761Y2905D02*
G01X9687Y979D01*
G01X9486Y156D02*
G01X7968Y156D01*
G01X7684Y339D02*
G01X9360Y339D01*
G01X7659Y541D02*
G01X9330Y541D01*
G01X7659Y743D02*
G01X9390Y743D01*
G01X7659Y945D02*
G01X9611Y945D01*
G01X7659Y1147D02*
G01X9519Y1147D01*
G01X7659Y1349D02*
G01X9317Y1349D01*
G01X7659Y1551D02*
G01X9115Y1551D01*
G01X7659Y1753D02*
G01X8913Y1753D01*
G01X7659Y1955D02*
G01X8711Y1955D01*
G01X7659Y2157D02*
G01X8509Y2157D01*
G01X7659Y2359D02*
G01X8307Y2359D01*
G01X7659Y2561D02*
G01X8105Y2561D01*
G01X7659Y2763D02*
G01X7903Y2763D01*
G01X7659Y2965D02*
G01X7720Y2965D01*
G01X9610Y944D02*
G01X9610Y1056D01*
G01X9408Y156D02*
G01X9408Y246D01*
G01X9408Y773D02*
G01X9408Y1258D01*
G01X9206Y156D02*
G01X9206Y1460D01*
G01X9004Y156D02*
G01X9004Y1662D01*
G01X8802Y156D02*
G01X8802Y1864D01*
G01X8600Y156D02*
G01X8600Y2066D01*
G01X8398Y156D02*
G01X8398Y2268D01*
G01X8196Y156D02*
G01X8196Y2470D01*
G01X7994Y156D02*
G01X7994Y2672D01*
G01X7792Y210D02*
G01X7792Y2874D01*
G01X10507Y767D02*
G01X10507Y156D01*
G01X10507Y156D02*
G01X10125Y156D01*
G01X10047Y920D02*
G01X12308Y920D01*
G01X12281Y835D02*
G01X12281Y707D01*
G01X12180Y652D02*
G01X12132Y604D01*
G01X12132Y604D02*
G01X11991Y604D01*
G01X11991Y604D02*
G01X11991Y767D01*
G01X11840Y919D02*
G01X10659Y919D01*
G01X10250Y339D02*
G01X10507Y339D01*
G01X10281Y541D02*
G01X10507Y541D01*
G01X10221Y743D02*
G01X10507Y743D01*
G01X11991Y743D02*
G01X12281Y743D01*
G01X12236Y692D02*
G01X12236Y920D01*
G01X12034Y604D02*
G01X12034Y920D01*
G01X11832Y919D02*
G01X11832Y920D01*
G01X11630Y919D02*
G01X11630Y920D01*
G01X11428Y919D02*
G01X11428Y920D01*
G01X11226Y919D02*
G01X11226Y920D01*
G01X11024Y919D02*
G01X11024Y920D01*
G01X10822Y919D02*
G01X10822Y920D01*
G01X10620Y914D02*
G01X10620Y920D01*
G01X10418Y156D02*
G01X10418Y920D01*
G01X10216Y156D02*
G01X10216Y269D01*
G01X10216Y750D02*
G01X10216Y920D01*
G01X13234Y185D02*
G01X13234Y835D01*
G01X13083Y986D02*
G01X13020Y986D01*
G01X13020Y986D02*
G01X14001Y1967D01*
G01X14153Y1816D02*
G01X14803Y1816D01*
G01X14843Y1822D02*
G01X14843Y468D01*
G01X14531Y156D02*
G01X13232Y156D01*
G01X13234Y339D02*
G01X14815Y339D01*
G01X13234Y541D02*
G01X14843Y541D01*
G01X13234Y743D02*
G01X14843Y743D01*
G01X13187Y945D02*
G01X14843Y945D01*
G01X13180Y1147D02*
G01X14843Y1147D01*
G01X13382Y1349D02*
G01X14843Y1349D01*
G01X13584Y1551D02*
G01X14843Y1551D01*
G01X13786Y1753D02*
G01X14843Y1753D01*
G01X13988Y1955D02*
G01X14002Y1955D01*
G01X14660Y184D02*
G01X14660Y1816D01*
G01X14458Y156D02*
G01X14458Y1816D01*
G01X14256Y156D02*
G01X14256Y1816D01*
G01X14054Y156D02*
G01X14054Y1852D01*
G01X13852Y156D02*
G01X13852Y1819D01*
G01X13650Y156D02*
G01X13650Y1617D01*
G01X13448Y156D02*
G01X13448Y1415D01*
G01X13246Y156D02*
G01X13246Y1213D01*
G01X13044Y986D02*
G01X13044Y1011D01*
G01X12284Y156D02*
G01X11991Y156D01*
G01X11991Y156D02*
G01X11991Y201D01*
G01X11991Y201D02*
G01X12215Y201D01*
G01X12281Y212D02*
G01X12281Y185D01*
G01X12236Y156D02*
G01X12236Y202D01*
G01X12034Y156D02*
G01X12034Y201D01*
G01X10985Y1323D02*
G01X10723Y1323D01*
G01X10750Y1349D02*
G01X10948Y1349D01*
G01X10822Y1323D02*
G01X10822Y1435D01*
G01X11776Y1323D02*
G01X11513Y1323D01*
G01X11551Y1349D02*
G01X11749Y1349D01*
G01X11630Y1323D02*
G01X11630Y1423D01*
G01X12952Y1842D02*
G01X12952Y2047D01*
G01X12952Y2047D02*
G01X13157Y2047D01*
G01X13713Y3179D02*
G01X14080Y3545D01*
G01X14080Y3545D02*
G01X14080Y3159D01*
G01X14232Y3007D02*
G01X14843Y3007D01*
G01X14843Y3007D02*
G01X14843Y2764D01*
G01X14803Y2769D02*
G01X14153Y2769D01*
G01X14001Y2618D02*
G01X14001Y2490D01*
G01X13899Y2435D02*
G01X12787Y1323D01*
G01X12787Y1323D02*
G01X12723Y1323D01*
G01X12750Y1349D02*
G01X12813Y1349D01*
G01X12889Y1551D02*
G01X13015Y1551D01*
G01X12946Y1753D02*
G01X13217Y1753D01*
G01X12952Y1955D02*
G01X13419Y1955D01*
G01X13534Y2157D02*
G01X13621Y2157D01*
G01X13741Y2359D02*
G01X13823Y2359D01*
G01X13834Y2561D02*
G01X14001Y2561D01*
G01X13859Y2763D02*
G01X14109Y2763D01*
G01X13826Y2965D02*
G01X14843Y2965D01*
G01X13722Y3167D02*
G01X14080Y3167D01*
G01X13903Y3369D02*
G01X14080Y3369D01*
G01X14660Y2769D02*
G01X14660Y3007D01*
G01X14458Y2769D02*
G01X14458Y3007D01*
G01X14256Y2769D02*
G01X14256Y3007D01*
G01X14054Y2733D02*
G01X14054Y3520D01*
G01X13852Y2388D02*
G01X13852Y2649D01*
G01X13852Y2850D02*
G01X13852Y3318D01*
G01X13650Y2186D02*
G01X13650Y2249D01*
G01X13448Y1984D02*
G01X13448Y2110D01*
G01X13246Y1782D02*
G01X13246Y2053D01*
G01X13044Y1580D02*
G01X13044Y2047D01*
G01X12842Y1378D02*
G01X12842Y1465D01*
G01X9569Y1667D02*
G01X9167Y2069D01*
G01X9342Y2047D02*
G01X9547Y2047D01*
G01X9547Y2047D02*
G01X9547Y1842D01*
G01X9483Y1753D02*
G01X9552Y1753D01*
G01X9281Y1955D02*
G01X9547Y1955D01*
G01X9408Y1827D02*
G01X9408Y2047D01*
G01X9206Y2029D02*
G01X9206Y2060D01*
G01X10952Y2153D02*
G01X10952Y2157D01*
G01X9859Y3422D02*
G01X10305Y3869D01*
G01X11130Y4694D02*
G01X11360Y4923D01*
G01X11360Y4923D02*
G01X11685Y4923D01*
G01X12842Y4047D02*
G01X12845Y4047D01*
G01X12845Y3452D02*
G01X12842Y3452D01*
G01X11547Y2157D02*
G01X11547Y2153D01*
G01X10952Y2157D02*
G01X10957Y2157D01*
G01X11542Y2157D02*
G01X11547Y2157D01*
G01X10922Y2359D02*
G01X11576Y2359D01*
G01X10824Y2561D02*
G01X11674Y2561D01*
G01X10605Y2763D02*
G01X11893Y2763D01*
G01X10326Y2965D02*
G01X10711Y2965D01*
G01X11787Y2965D02*
G01X12173Y2965D01*
G01X10222Y3167D02*
G01X10497Y3167D01*
G01X12001Y3167D02*
G01X12276Y3167D01*
G01X9989Y3369D02*
G01X10377Y3369D01*
G01X12121Y3369D02*
G01X12510Y3369D01*
G01X10007Y3571D02*
G01X10315Y3571D01*
G01X12184Y3571D02*
G01X12781Y3571D01*
G01X10209Y3773D02*
G01X10298Y3773D01*
G01X12200Y3773D02*
G01X12748Y3773D01*
G01X12174Y3975D02*
G01X12801Y3975D01*
G01X12099Y4177D02*
G01X12435Y4177D01*
G01X11963Y4379D02*
G01X12245Y4379D01*
G01X11712Y4581D02*
G01X12160Y4581D01*
G01X11219Y4783D02*
G01X11824Y4783D01*
G01X12842Y3452D02*
G01X12842Y3456D01*
G01X12842Y4043D02*
G01X12842Y4047D01*
G01X12640Y3423D02*
G01X12640Y4076D01*
G01X12438Y3325D02*
G01X12438Y4174D01*
G01X12236Y3106D02*
G01X12236Y4393D01*
G01X12034Y2826D02*
G01X12034Y3212D01*
G01X12034Y4287D02*
G01X12034Y4673D01*
G01X11832Y2723D02*
G01X11832Y2998D01*
G01X11832Y4501D02*
G01X11832Y4776D01*
G01X11630Y2490D02*
G01X11630Y2878D01*
G01X11630Y4621D02*
G01X11630Y4923D01*
G01X11428Y2218D02*
G01X11428Y2815D01*
G01X11428Y4684D02*
G01X11428Y4923D01*
G01X11226Y2250D02*
G01X11226Y2798D01*
G01X11226Y4701D02*
G01X11226Y4790D01*
G01X11024Y2198D02*
G01X11024Y2825D01*
G01X10822Y2564D02*
G01X10822Y2899D01*
G01X10620Y2754D02*
G01X10620Y3036D01*
G01X10418Y2839D02*
G01X10418Y3286D01*
G01X10216Y3175D02*
G01X10216Y3780D01*
G01X10014Y3354D02*
G01X10014Y3578D01*
G01X8661Y2574D02*
G01X8228Y3007D01*
G01X8228Y3007D02*
G01X8267Y3007D01*
G01X8418Y3159D02*
G01X8418Y4340D01*
G01X8267Y4492D02*
G01X7659Y4492D01*
G01X7659Y4492D02*
G01X7659Y7031D01*
G01X7031Y7656D02*
G01X5732Y7656D01*
G01X5734Y7685D02*
G01X5734Y8335D01*
G01X5583Y8486D02*
G01X5520Y8486D01*
G01X5520Y8486D02*
G01X6501Y9467D01*
G01X6653Y9316D02*
G01X7303Y9316D01*
G01X7428Y9383D02*
G01X9381Y7431D01*
G01X9523Y7372D02*
G01X13203Y7372D01*
G01X13346Y7431D02*
G01X14620Y8705D01*
G01X14679Y8848D02*
G01X14679Y9316D01*
G01X14679Y9316D02*
G01X14803Y9316D01*
G01X14843Y9322D02*
G01X14843Y5551D01*
G01X14030Y5083D02*
G01X13844Y4897D01*
G01X13157Y5452D02*
G01X12952Y5452D01*
G01X12952Y5452D02*
G01X12952Y5657D01*
G01X9547Y5657D02*
G01X9547Y5452D01*
G01X9547Y5452D02*
G01X9342Y5452D01*
G01X8473Y2763D02*
G01X8639Y2763D01*
G01X8271Y2965D02*
G01X8673Y2965D01*
G01X8418Y3167D02*
G01X8776Y3167D01*
G01X8418Y3369D02*
G01X8923Y3369D01*
G01X8418Y3571D02*
G01X8781Y3571D01*
G01X8418Y3773D02*
G01X8748Y3773D01*
G01X8418Y3975D02*
G01X8801Y3975D01*
G01X8418Y4177D02*
G01X8935Y4177D01*
G01X8413Y4379D02*
G01X8745Y4379D01*
G01X7659Y4581D02*
G01X8660Y4581D01*
G01X7659Y4783D02*
G01X8640Y4783D01*
G01X7659Y4985D02*
G01X8680Y4985D01*
G01X13819Y4985D02*
G01X13932Y4985D01*
G01X7659Y5187D02*
G01X8792Y5187D01*
G01X13707Y5187D02*
G01X14005Y5187D01*
G01X7659Y5389D02*
G01X9050Y5389D01*
G01X13448Y5389D02*
G01X14023Y5389D01*
G01X7659Y5591D02*
G01X9547Y5591D01*
G01X12952Y5591D02*
G01X14149Y5591D01*
G01X14806Y5591D02*
G01X14843Y5591D01*
G01X7659Y5793D02*
G01X9560Y5793D01*
G01X12939Y5793D02*
G01X14843Y5793D01*
G01X7659Y5995D02*
G01X9633Y5995D01*
G01X12865Y5995D02*
G01X14843Y5995D01*
G01X7659Y6197D02*
G01X9799Y6197D01*
G01X10699Y6197D02*
G01X11022Y6197D01*
G01X11476Y6197D02*
G01X11799Y6197D01*
G01X12699Y6197D02*
G01X14843Y6197D01*
G01X7659Y6399D02*
G01X14843Y6399D01*
G01X7659Y6601D02*
G01X14843Y6601D01*
G01X7659Y6803D02*
G01X14843Y6803D01*
G01X7659Y7005D02*
G01X14843Y7005D01*
G01X7631Y7207D02*
G01X14843Y7207D01*
G01X7529Y7409D02*
G01X9407Y7409D01*
G01X13319Y7409D02*
G01X14843Y7409D01*
G01X7264Y7611D02*
G01X9201Y7611D01*
G01X13525Y7611D02*
G01X14843Y7611D01*
G01X5734Y7813D02*
G01X8999Y7813D01*
G01X13727Y7813D02*
G01X14843Y7813D01*
G01X5734Y8015D02*
G01X8797Y8015D01*
G01X13929Y8015D02*
G01X14843Y8015D01*
G01X5734Y8217D02*
G01X8595Y8217D01*
G01X14131Y8217D02*
G01X14843Y8217D01*
G01X5709Y8419D02*
G01X8393Y8419D01*
G01X14333Y8419D02*
G01X14843Y8419D01*
G01X5654Y8621D02*
G01X8191Y8621D01*
G01X14535Y8621D02*
G01X14843Y8621D01*
G01X5856Y8823D02*
G01X7989Y8823D01*
G01X14677Y8823D02*
G01X14843Y8823D01*
G01X6058Y9025D02*
G01X7787Y9025D01*
G01X14679Y9025D02*
G01X14843Y9025D01*
G01X6260Y9227D02*
G01X7585Y9227D01*
G01X14679Y9227D02*
G01X14843Y9227D01*
G01X6462Y9429D02*
G01X6506Y9429D01*
G01X14660Y5686D02*
G01X14660Y8763D01*
G01X14458Y5722D02*
G01X14458Y8544D01*
G01X14256Y5668D02*
G01X14256Y8342D01*
G01X14054Y5464D02*
G01X14054Y8140D01*
G01X13852Y4905D02*
G01X13852Y7938D01*
G01X13650Y5250D02*
G01X13650Y7736D01*
G01X13448Y5389D02*
G01X13448Y7534D01*
G01X13246Y5446D02*
G01X13246Y7377D01*
G01X13044Y5452D02*
G01X13044Y7372D01*
G01X12842Y6034D02*
G01X12842Y7372D01*
G01X12640Y6241D02*
G01X12640Y7372D01*
G01X12438Y6334D02*
G01X12438Y7372D01*
G01X12236Y6360D02*
G01X12236Y7372D01*
G01X12034Y6326D02*
G01X12034Y7372D01*
G01X11832Y6223D02*
G01X11832Y7372D01*
G01X11630Y6076D02*
G01X11630Y7372D01*
G01X11428Y6218D02*
G01X11428Y7372D01*
G01X11226Y6250D02*
G01X11226Y7372D01*
G01X11024Y6198D02*
G01X11024Y7372D01*
G01X10822Y6064D02*
G01X10822Y7372D01*
G01X10620Y6254D02*
G01X10620Y7372D01*
G01X10418Y6339D02*
G01X10418Y7372D01*
G01X10216Y6359D02*
G01X10216Y7372D01*
G01X10014Y6319D02*
G01X10014Y7372D01*
G01X9812Y6207D02*
G01X9812Y7372D01*
G01X9610Y5949D02*
G01X9610Y7372D01*
G01X9408Y5452D02*
G01X9408Y7408D01*
G01X9206Y5439D02*
G01X9206Y7606D01*
G01X9004Y5366D02*
G01X9004Y7808D01*
G01X8802Y3200D02*
G01X8802Y3522D01*
G01X8802Y3977D02*
G01X8802Y4299D01*
G01X8802Y5200D02*
G01X8802Y8010D01*
G01X8600Y2635D02*
G01X8600Y8212D01*
G01X8398Y2837D02*
G01X8398Y3083D01*
G01X8398Y4416D02*
G01X8398Y8414D01*
G01X8196Y4492D02*
G01X8196Y8616D01*
G01X7994Y4492D02*
G01X7994Y8818D01*
G01X7792Y4492D02*
G01X7792Y9020D01*
G01X7590Y7310D02*
G01X7590Y9222D01*
G01X7388Y7544D02*
G01X7388Y9343D01*
G01X7186Y7636D02*
G01X7186Y9316D01*
G01X6984Y7656D02*
G01X6984Y9316D01*
G01X6782Y7656D02*
G01X6782Y9316D01*
G01X6580Y7656D02*
G01X6580Y9335D01*
G01X6378Y7656D02*
G01X6378Y9345D01*
G01X6176Y7656D02*
G01X6176Y9143D01*
G01X5974Y7656D02*
G01X5974Y8941D01*
G01X5772Y7656D02*
G01X5772Y8739D01*
G01X5570Y8486D02*
G01X5570Y8537D01*
G01X13771Y3806D02*
G01X13750Y3785D01*
G01X13771Y4408D02*
G01X13771Y3806D01*
G01X13697Y3975D02*
G01X13771Y3975D01*
G01X13564Y4177D02*
G01X13771Y4177D01*
G01X13754Y4379D02*
G01X13771Y4379D01*
G01X13650Y4051D02*
G01X13650Y4249D01*
G01X10007Y4141D02*
G01X9736Y3869D01*
G01X9653Y4047D02*
G01X9657Y4047D01*
G01X9697Y3975D02*
G01X9842Y3975D01*
G01X9812Y3945D02*
G01X9812Y4064D01*
G01X10600Y4733D02*
G01X10266Y4399D01*
G01X10339Y4581D02*
G01X10448Y4581D01*
G01X10418Y4551D02*
G01X10418Y4660D01*
G01X14174Y4480D02*
G01X14174Y4657D01*
G01X14174Y4657D02*
G01X14315Y4798D01*
G01X14843Y4940D02*
G01X14843Y4492D01*
G01X14843Y4492D02*
G01X14232Y4492D01*
G01X14174Y4581D02*
G01X14843Y4581D01*
G01X14299Y4783D02*
G01X14364Y4783D01*
G01X14591Y4783D02*
G01X14843Y4783D01*
G01X14660Y4492D02*
G01X14660Y4805D01*
G01X14458Y4492D02*
G01X14458Y4769D01*
G01X14256Y4492D02*
G01X14256Y4740D01*
G01X11129Y5263D02*
G01X10858Y4991D01*
G01X10952Y5342D02*
G01X10952Y5346D01*
G01X10935Y5187D02*
G01X11054Y5187D01*
G01X11024Y5157D02*
G01X11024Y5301D01*
G01X11547Y5346D02*
G01X11547Y5342D01*
G01X11547Y5326D02*
G01X11518Y5326D01*
G01X1986Y7656D02*
G01X468Y7656D01*
G01X156Y7968D02*
G01X156Y10507D01*
G01X156Y10507D02*
G01X206Y10507D01*
G01X261Y10405D02*
G01X2187Y8479D01*
G01X197Y7813D02*
G01X1871Y7813D01*
G01X156Y8015D02*
G01X1829Y8015D01*
G01X156Y8217D02*
G01X1876Y8217D01*
G01X156Y8419D02*
G01X2061Y8419D01*
G01X156Y8621D02*
G01X2045Y8621D01*
G01X156Y8823D02*
G01X1843Y8823D01*
G01X156Y9025D02*
G01X1641Y9025D01*
G01X156Y9227D02*
G01X1439Y9227D01*
G01X156Y9429D02*
G01X1237Y9429D01*
G01X156Y9631D02*
G01X1035Y9631D01*
G01X156Y9833D02*
G01X833Y9833D01*
G01X156Y10035D02*
G01X631Y10035D01*
G01X156Y10237D02*
G01X429Y10237D01*
G01X156Y10439D02*
G01X234Y10439D01*
G01X2136Y8455D02*
G01X2136Y8530D01*
G01X1934Y7656D02*
G01X1934Y7710D01*
G01X1934Y8309D02*
G01X1934Y8732D01*
G01X1732Y7656D02*
G01X1732Y8934D01*
G01X1530Y7656D02*
G01X1530Y9136D01*
G01X1328Y7656D02*
G01X1328Y9338D01*
G01X1126Y7656D02*
G01X1126Y9540D01*
G01X924Y7656D02*
G01X924Y9742D01*
G01X722Y7656D02*
G01X722Y9944D01*
G01X520Y7656D02*
G01X520Y10146D01*
G01X318Y7694D02*
G01X318Y10348D01*
G01X2547Y8420D02*
G01X4808Y8420D01*
G01X4781Y8335D02*
G01X4781Y8207D01*
G01X4680Y8152D02*
G01X4632Y8104D01*
G01X4632Y8104D02*
G01X4491Y8104D01*
G01X4491Y8104D02*
G01X4491Y8267D01*
G01X4340Y8419D02*
G01X3159Y8419D01*
G01X3007Y8267D02*
G01X3007Y7656D01*
G01X3007Y7656D02*
G01X2625Y7656D01*
G01X2739Y7813D02*
G01X3007Y7813D01*
G01X2782Y8015D02*
G01X3007Y8015D01*
G01X2734Y8217D02*
G01X3007Y8217D01*
G01X4491Y8217D02*
G01X4781Y8217D01*
G01X2549Y8419D02*
G01X4807Y8419D01*
G01X4762Y8202D02*
G01X4762Y8420D01*
G01X4560Y8104D02*
G01X4560Y8420D01*
G01X4358Y8418D02*
G01X4358Y8420D01*
G01X4156Y8419D02*
G01X4156Y8420D01*
G01X3954Y8419D02*
G01X3954Y8420D01*
G01X3752Y8419D02*
G01X3752Y8420D01*
G01X3550Y8419D02*
G01X3550Y8420D01*
G01X3348Y8419D02*
G01X3348Y8420D01*
G01X3146Y8418D02*
G01X3146Y8420D01*
G01X2944Y7656D02*
G01X2944Y8420D01*
G01X2742Y7656D02*
G01X2742Y7820D01*
G01X2742Y8199D02*
G01X2742Y8420D01*
G01X4491Y7656D02*
G01X4491Y7701D01*
G01X4491Y7701D02*
G01X4715Y7701D01*
G01X4781Y7712D02*
G01X4781Y7685D01*
G01X4784Y7656D02*
G01X4491Y7656D01*
G01X4762Y7656D02*
G01X4762Y7707D01*
G01X4560Y7656D02*
G01X4560Y7701D01*
G01X9330Y8051D02*
G01X7615Y9767D01*
G01X7615Y9767D02*
G01X7615Y9792D01*
G01X7454Y9990D02*
G01X7454Y10118D01*
G01X7303Y10269D02*
G01X6653Y10269D01*
G01X6501Y10118D02*
G01X6501Y9990D01*
G01X6399Y9935D02*
G01X5287Y8823D01*
G01X5287Y8823D02*
G01X5223Y8823D01*
G01X5452Y9342D02*
G01X5452Y9547D01*
G01X5452Y9547D02*
G01X5657Y9547D01*
G01X6213Y10679D02*
G01X7120Y11585D01*
G01X7179Y11728D02*
G01X7179Y12314D01*
G01X6776Y12314D02*
G01X6776Y11811D01*
G01X6776Y11811D02*
G01X6250Y11285D01*
G01X5657Y12952D02*
G01X5452Y12952D01*
G01X5452Y12952D02*
G01X5452Y13157D01*
G01X2047Y13157D02*
G01X2047Y12952D01*
G01X2047Y12952D02*
G01X1842Y12952D01*
G01X1161Y10074D02*
G01X728Y10507D01*
G01X728Y10507D02*
G01X767Y10507D01*
G01X918Y10659D02*
G01X918Y11840D01*
G01X767Y11992D02*
G01X156Y11992D01*
G01X156Y11992D02*
G01X156Y18007D01*
G01X156Y18007D02*
G01X206Y18007D01*
G01X261Y17905D02*
G01X2167Y15999D01*
G01X1991Y15151D02*
G01X1875Y15151D01*
G01X1723Y15000D02*
G01X1723Y14450D01*
G01X1875Y14298D02*
G01X5779Y14298D01*
G01X5930Y14450D02*
G01X5930Y15000D01*
G01X5779Y15151D02*
G01X5731Y15151D01*
G01X5734Y15185D02*
G01X5734Y15835D01*
G01X5583Y15986D02*
G01X5519Y15986D01*
G01X5534Y15999D02*
G01X6501Y16967D01*
G01X6653Y16816D02*
G01X7303Y16816D01*
G01X7343Y16822D02*
G01X7343Y15468D01*
G01X7968Y14843D02*
G01X10507Y14843D01*
G01X10507Y14843D02*
G01X10507Y14232D01*
G01X10659Y14080D02*
G01X11840Y14080D01*
G01X11991Y14232D02*
G01X11991Y14270D01*
G01X11991Y14270D02*
G01X12424Y13838D01*
G01X9547Y13157D02*
G01X9547Y12952D01*
G01X9547Y12952D02*
G01X9342Y12952D01*
G01X9342Y9547D02*
G01X9547Y9547D01*
G01X9547Y9547D02*
G01X9547Y9342D01*
G01X12952Y9342D02*
G01X12952Y9547D01*
G01X12952Y9547D02*
G01X13157Y9547D01*
G01X13625Y9725D02*
G01X13625Y9597D01*
G01X13625Y9597D02*
G01X12616Y8588D01*
G01X12561Y8486D02*
G01X12433Y8486D01*
G01X12281Y8335D02*
G01X12281Y7775D01*
G01X12281Y7775D02*
G01X10220Y7775D01*
G01X10239Y7813D02*
G01X12281Y7813D01*
G01X10282Y8015D02*
G01X12281Y8015D01*
G01X9165Y8217D02*
G01X9376Y8217D01*
G01X10234Y8217D02*
G01X12281Y8217D01*
G01X8963Y8419D02*
G01X9561Y8419D01*
G01X10049Y8419D02*
G01X12307Y8419D01*
G01X8761Y8621D02*
G01X12649Y8621D01*
G01X8559Y8823D02*
G01X9776Y8823D01*
G01X10723Y8823D02*
G01X10986Y8823D01*
G01X11513Y8823D02*
G01X11776Y8823D01*
G01X12723Y8823D02*
G01X12851Y8823D01*
G01X5376Y9025D02*
G01X5489Y9025D01*
G01X8357Y9025D02*
G01X9622Y9025D01*
G01X12876Y9025D02*
G01X13053Y9025D01*
G01X5442Y9227D02*
G01X5691Y9227D01*
G01X8155Y9227D02*
G01X9556Y9227D01*
G01X12942Y9227D02*
G01X13255Y9227D01*
G01X5452Y9429D02*
G01X5893Y9429D01*
G01X7953Y9429D02*
G01X9547Y9429D01*
G01X12952Y9429D02*
G01X13457Y9429D01*
G01X5990Y9631D02*
G01X6095Y9631D01*
G01X7751Y9631D02*
G01X9009Y9631D01*
G01X13490Y9631D02*
G01X13625Y9631D01*
G01X6222Y9833D02*
G01X6297Y9833D01*
G01X7611Y9833D02*
G01X8776Y9833D01*
G01X6326Y10035D02*
G01X6501Y10035D01*
G01X7454Y10035D02*
G01X8673Y10035D01*
G01X999Y10237D02*
G01X1139Y10237D01*
G01X6359Y10237D02*
G01X6559Y10237D01*
G01X7396Y10237D02*
G01X8639Y10237D01*
G01X797Y10439D02*
G01X1165Y10439D01*
G01X6333Y10439D02*
G01X8665Y10439D01*
G01X917Y10641D02*
G01X1258Y10641D01*
G01X6240Y10641D02*
G01X8758Y10641D01*
G01X918Y10843D02*
G01X1456Y10843D01*
G01X6377Y10843D02*
G01X8956Y10843D01*
G01X918Y11045D02*
G01X1291Y11045D01*
G01X6579Y11045D02*
G01X8791Y11045D01*
G01X918Y11247D02*
G01X1248Y11247D01*
G01X6781Y11247D02*
G01X8748Y11247D01*
G01X918Y11449D02*
G01X1289Y11449D01*
G01X6209Y11449D02*
G01X6414Y11449D01*
G01X6983Y11449D02*
G01X8789Y11449D01*
G01X918Y11651D02*
G01X1448Y11651D01*
G01X6050Y11651D02*
G01X6616Y11651D01*
G01X7164Y11651D02*
G01X8948Y11651D01*
G01X918Y11853D02*
G01X1262Y11853D01*
G01X6237Y11853D02*
G01X6776Y11853D01*
G01X7179Y11853D02*
G01X8762Y11853D01*
G01X156Y12055D02*
G01X1167Y12055D01*
G01X6332Y12055D02*
G01X6776Y12055D01*
G01X7179Y12055D02*
G01X8667Y12055D01*
G01X156Y12257D02*
G01X1139Y12257D01*
G01X6359Y12257D02*
G01X6776Y12257D01*
G01X7179Y12257D02*
G01X8639Y12257D01*
G01X156Y12459D02*
G01X1171Y12459D01*
G01X6328Y12459D02*
G01X6597Y12459D01*
G01X7358Y12459D02*
G01X8671Y12459D01*
G01X156Y12661D02*
G01X1272Y12661D01*
G01X6226Y12661D02*
G01X6509Y12661D01*
G01X7447Y12661D02*
G01X8772Y12661D01*
G01X156Y12863D02*
G01X1499Y12863D01*
G01X6000Y12863D02*
G01X6516Y12863D01*
G01X7440Y12863D02*
G01X8999Y12863D01*
G01X156Y13065D02*
G01X2047Y13065D01*
G01X5452Y13065D02*
G01X6624Y13065D01*
G01X7331Y13065D02*
G01X9547Y13065D01*
G01X156Y13267D02*
G01X2055Y13267D01*
G01X5443Y13267D02*
G01X9555Y13267D01*
G01X156Y13469D02*
G01X2120Y13469D01*
G01X5379Y13469D02*
G01X9620Y13469D01*
G01X156Y13671D02*
G01X2270Y13671D01*
G01X3229Y13671D02*
G01X3477Y13671D01*
G01X4021Y13671D02*
G01X4270Y13671D01*
G01X5229Y13671D02*
G01X9770Y13671D01*
G01X10729Y13671D02*
G01X10977Y13671D01*
G01X11521Y13671D02*
G01X11770Y13671D01*
G01X156Y13873D02*
G01X12389Y13873D01*
G01X156Y14075D02*
G01X12187Y14075D01*
G01X156Y14277D02*
G01X10507Y14277D01*
G01X156Y14479D02*
G01X1723Y14479D01*
G01X5930Y14479D02*
G01X10507Y14479D01*
G01X156Y14681D02*
G01X1723Y14681D01*
G01X5930Y14681D02*
G01X10507Y14681D01*
G01X156Y14883D02*
G01X1723Y14883D01*
G01X5930Y14883D02*
G01X7749Y14883D01*
G01X156Y15085D02*
G01X1749Y15085D01*
G01X5904Y15085D02*
G01X7474Y15085D01*
G01X156Y15287D02*
G01X1884Y15287D01*
G01X5734Y15287D02*
G01X7370Y15287D01*
G01X156Y15489D02*
G01X1829Y15489D01*
G01X5734Y15489D02*
G01X7343Y15489D01*
G01X156Y15691D02*
G01X1864Y15691D01*
G01X5734Y15691D02*
G01X7343Y15691D01*
G01X156Y15893D02*
G01X2022Y15893D01*
G01X5723Y15893D02*
G01X7343Y15893D01*
G01X156Y16095D02*
G01X2071Y16095D01*
G01X5629Y16095D02*
G01X7343Y16095D01*
G01X156Y16297D02*
G01X1869Y16297D01*
G01X5831Y16297D02*
G01X7343Y16297D01*
G01X156Y16499D02*
G01X1667Y16499D01*
G01X6033Y16499D02*
G01X7343Y16499D01*
G01X156Y16701D02*
G01X1465Y16701D01*
G01X6235Y16701D02*
G01X7343Y16701D01*
G01X156Y16903D02*
G01X1263Y16903D01*
G01X6437Y16903D02*
G01X6516Y16903D01*
G01X156Y17105D02*
G01X1061Y17105D01*
G01X156Y17307D02*
G01X859Y17307D01*
G01X156Y17509D02*
G01X657Y17509D01*
G01X156Y17711D02*
G01X455Y17711D01*
G01X156Y17913D02*
G01X253Y17913D01*
G01X13448Y9420D02*
G01X13448Y9610D01*
G01X13246Y9218D02*
G01X13246Y9553D01*
G01X13044Y9016D02*
G01X13044Y9547D01*
G01X12842Y8814D02*
G01X12842Y8965D01*
G01X12640Y8612D02*
G01X12640Y8758D01*
G01X12438Y8486D02*
G01X12438Y8665D01*
G01X12236Y7775D02*
G01X12236Y8639D01*
G01X12236Y13860D02*
G01X12236Y14026D01*
G01X12034Y7775D02*
G01X12034Y8673D01*
G01X12034Y13826D02*
G01X12034Y14228D01*
G01X11832Y7775D02*
G01X11832Y8776D01*
G01X11832Y13723D02*
G01X11832Y14080D01*
G01X11630Y7775D02*
G01X11630Y8923D01*
G01X11630Y13576D02*
G01X11630Y14080D01*
G01X11428Y7775D02*
G01X11428Y8781D01*
G01X11428Y13718D02*
G01X11428Y14080D01*
G01X11226Y7775D02*
G01X11226Y8749D01*
G01X11226Y13750D02*
G01X11226Y14080D01*
G01X11024Y7775D02*
G01X11024Y8801D01*
G01X11024Y13698D02*
G01X11024Y14080D01*
G01X10822Y7775D02*
G01X10822Y8935D01*
G01X10822Y13564D02*
G01X10822Y14080D01*
G01X10620Y7775D02*
G01X10620Y8745D01*
G01X10620Y13754D02*
G01X10620Y14085D01*
G01X10418Y7775D02*
G01X10418Y8660D01*
G01X10418Y13839D02*
G01X10418Y14843D01*
G01X10216Y8250D02*
G01X10216Y8640D01*
G01X10216Y13859D02*
G01X10216Y14843D01*
G01X10014Y8438D02*
G01X10014Y8680D01*
G01X10014Y13819D02*
G01X10014Y14843D01*
G01X9812Y8486D02*
G01X9812Y8792D01*
G01X9812Y13707D02*
G01X9812Y14843D01*
G01X9610Y8444D02*
G01X9610Y9050D01*
G01X9610Y13449D02*
G01X9610Y14843D01*
G01X9408Y8273D02*
G01X9408Y9547D01*
G01X9408Y12952D02*
G01X9408Y14843D01*
G01X9206Y8175D02*
G01X9206Y9560D01*
G01X9206Y12939D02*
G01X9206Y14843D01*
G01X9004Y8377D02*
G01X9004Y9633D01*
G01X9004Y12866D02*
G01X9004Y14843D01*
G01X8802Y8579D02*
G01X8802Y9799D01*
G01X8802Y10700D02*
G01X8802Y11022D01*
G01X8802Y11477D02*
G01X8802Y11799D01*
G01X8802Y12700D02*
G01X8802Y14843D01*
G01X8600Y8781D02*
G01X8600Y14843D01*
G01X8398Y8983D02*
G01X8398Y14843D01*
G01X8196Y9185D02*
G01X8196Y14843D01*
G01X7994Y9387D02*
G01X7994Y14843D01*
G01X7792Y9589D02*
G01X7792Y14868D01*
G01X7590Y9889D02*
G01X7590Y14970D01*
G01X7388Y10243D02*
G01X7388Y12504D01*
G01X7388Y12987D02*
G01X7388Y15235D01*
G01X7186Y10269D02*
G01X7186Y12317D01*
G01X7186Y13174D02*
G01X7186Y16816D01*
G01X6984Y10269D02*
G01X6984Y11450D01*
G01X6984Y13222D02*
G01X6984Y16816D01*
G01X6782Y10269D02*
G01X6782Y11248D01*
G01X6782Y13180D02*
G01X6782Y16816D01*
G01X6580Y10251D02*
G01X6580Y11046D01*
G01X6580Y11615D02*
G01X6580Y12483D01*
G01X6580Y13009D02*
G01X6580Y16835D01*
G01X6378Y9914D02*
G01X6378Y10844D01*
G01X6378Y11413D02*
G01X6378Y16844D01*
G01X6176Y9712D02*
G01X6176Y9776D01*
G01X6176Y11513D02*
G01X6176Y11776D01*
G01X6176Y12723D02*
G01X6176Y16642D01*
G01X5974Y9510D02*
G01X5974Y9623D01*
G01X5974Y12876D02*
G01X5974Y16440D01*
G01X5772Y9308D02*
G01X5772Y9556D01*
G01X5772Y12943D02*
G01X5772Y14298D01*
G01X5772Y15151D02*
G01X5772Y16238D01*
G01X5570Y9106D02*
G01X5570Y9547D01*
G01X5570Y12952D02*
G01X5570Y14298D01*
G01X5570Y15986D02*
G01X5570Y16036D01*
G01X5368Y8904D02*
G01X5368Y9009D01*
G01X5368Y13490D02*
G01X5368Y14298D01*
G01X5166Y13723D02*
G01X5166Y14298D01*
G01X4964Y13826D02*
G01X4964Y14298D01*
G01X4762Y13860D02*
G01X4762Y14298D01*
G01X4560Y13834D02*
G01X4560Y14298D01*
G01X4358Y13741D02*
G01X4358Y14298D01*
G01X4156Y13543D02*
G01X4156Y14298D01*
G01X3954Y13707D02*
G01X3954Y14298D01*
G01X3752Y13751D02*
G01X3752Y14298D01*
G01X3550Y13710D02*
G01X3550Y14298D01*
G01X3348Y13551D02*
G01X3348Y14298D01*
G01X3146Y13737D02*
G01X3146Y14298D01*
G01X2944Y13832D02*
G01X2944Y14298D01*
G01X2742Y13860D02*
G01X2742Y14298D01*
G01X2540Y13828D02*
G01X2540Y14298D01*
G01X2338Y13727D02*
G01X2338Y14298D01*
G01X2136Y13500D02*
G01X2136Y14298D01*
G01X2136Y15955D02*
G01X2136Y16030D01*
G01X1934Y12952D02*
G01X1934Y14298D01*
G01X1934Y15151D02*
G01X1934Y15210D01*
G01X1934Y15809D02*
G01X1934Y16232D01*
G01X1732Y12944D02*
G01X1732Y14398D01*
G01X1732Y15051D02*
G01X1732Y16434D01*
G01X1530Y12879D02*
G01X1530Y16636D01*
G01X1328Y10729D02*
G01X1328Y10977D01*
G01X1328Y11522D02*
G01X1328Y11770D01*
G01X1328Y12729D02*
G01X1328Y16838D01*
G01X1126Y10109D02*
G01X1126Y17040D01*
G01X924Y10311D02*
G01X924Y17242D01*
G01X722Y11992D02*
G01X722Y17444D01*
G01X520Y11992D02*
G01X520Y17646D01*
G01X318Y11992D02*
G01X318Y17848D01*
G01X14276Y8931D02*
G01X13234Y7890D01*
G01X13234Y7890D02*
G01X13234Y8335D01*
G01X13084Y8486D02*
G01X13969Y9371D01*
G01X14153Y9316D02*
G01X14276Y9316D01*
G01X14276Y9316D02*
G01X14276Y8931D01*
G01X13234Y8015D02*
G01X13360Y8015D01*
G01X13234Y8217D02*
G01X13562Y8217D01*
G01X13209Y8419D02*
G01X13764Y8419D01*
G01X13218Y8621D02*
G01X13966Y8621D01*
G01X13420Y8823D02*
G01X14168Y8823D01*
G01X13622Y9025D02*
G01X14276Y9025D01*
G01X13824Y9227D02*
G01X14276Y9227D01*
G01X14256Y8911D02*
G01X14256Y9316D01*
G01X14054Y8709D02*
G01X14054Y9352D01*
G01X13852Y8507D02*
G01X13852Y9255D01*
G01X13650Y8305D02*
G01X13650Y9053D01*
G01X13448Y8103D02*
G01X13448Y8851D01*
G01X13246Y7901D02*
G01X13246Y8649D01*
G01X3485Y8823D02*
G01X3223Y8823D01*
G01X3348Y8823D02*
G01X3348Y8948D01*
G01X4276Y8823D02*
G01X4013Y8823D01*
G01X4156Y8823D02*
G01X4156Y8956D01*
G01X2069Y9167D02*
G01X1667Y9569D01*
G01X1842Y9547D02*
G01X2047Y9547D01*
G01X2047Y9547D02*
G01X2047Y9342D01*
G01X2009Y9227D02*
G01X2056Y9227D01*
G01X1807Y9429D02*
G01X2047Y9429D01*
G01X1934Y9301D02*
G01X1934Y9547D01*
G01X1732Y9503D02*
G01X1732Y9555D01*
G01X3452Y9653D02*
G01X3452Y9657D01*
G01X2359Y10922D02*
G01X2805Y11369D01*
G01X3630Y12194D02*
G01X3860Y12423D01*
G01X3860Y12423D02*
G01X4185Y12423D01*
G01X5342Y11547D02*
G01X5345Y11547D01*
G01X5345Y10952D02*
G01X5342Y10952D01*
G01X4047Y9657D02*
G01X4047Y9653D01*
G01X3430Y9833D02*
G01X4069Y9833D01*
G01X3342Y10035D02*
G01X4157Y10035D01*
G01X3146Y10237D02*
G01X4352Y10237D01*
G01X2833Y10439D02*
G01X3251Y10439D01*
G01X4247Y10439D02*
G01X4665Y10439D01*
G01X2740Y10641D02*
G01X3018Y10641D01*
G01X4481Y10641D02*
G01X4758Y10641D01*
G01X2533Y10843D02*
G01X2889Y10843D01*
G01X4609Y10843D02*
G01X4965Y10843D01*
G01X2481Y11045D02*
G01X2820Y11045D01*
G01X4678Y11045D02*
G01X5291Y11045D01*
G01X2683Y11247D02*
G01X2798Y11247D01*
G01X4701Y11247D02*
G01X5248Y11247D01*
G01X4680Y11449D02*
G01X5289Y11449D01*
G01X4612Y11651D02*
G01X4974Y11651D01*
G01X4485Y11853D02*
G01X4762Y11853D01*
G01X4256Y12055D02*
G01X4667Y12055D01*
G01X3693Y12257D02*
G01X4360Y12257D01*
G01X5166Y10930D02*
G01X5166Y11569D01*
G01X4964Y10842D02*
G01X4964Y11657D01*
G01X4762Y10647D02*
G01X4762Y11852D01*
G01X4560Y10334D02*
G01X4560Y10752D01*
G01X4560Y11747D02*
G01X4560Y12165D01*
G01X4358Y10241D02*
G01X4358Y10518D01*
G01X4358Y11981D02*
G01X4358Y12258D01*
G01X4156Y10034D02*
G01X4156Y10389D01*
G01X4156Y12110D02*
G01X4156Y12423D01*
G01X3954Y9707D02*
G01X3954Y10320D01*
G01X3954Y12179D02*
G01X3954Y12423D01*
G01X3752Y9751D02*
G01X3752Y10298D01*
G01X3752Y12201D02*
G01X3752Y12316D01*
G01X3550Y9710D02*
G01X3550Y10319D01*
G01X3348Y10024D02*
G01X3348Y10387D01*
G01X3146Y10237D02*
G01X3146Y10513D01*
G01X2944Y10332D02*
G01X2944Y10742D01*
G01X2742Y10638D02*
G01X2742Y11306D01*
G01X2540Y10838D02*
G01X2540Y11104D01*
G01X10952Y9653D02*
G01X10952Y9657D01*
G01X9859Y10922D02*
G01X10305Y11369D01*
G01X11130Y12194D02*
G01X11360Y12423D01*
G01X11360Y12423D02*
G01X11685Y12423D01*
G01X12842Y11547D02*
G01X12845Y11547D01*
G01X12845Y10952D02*
G01X12842Y10952D01*
G01X11547Y9657D02*
G01X11547Y9653D01*
G01X10930Y9833D02*
G01X11569Y9833D01*
G01X10842Y10035D02*
G01X11657Y10035D01*
G01X10646Y10237D02*
G01X11852Y10237D01*
G01X10333Y10439D02*
G01X10751Y10439D01*
G01X11747Y10439D02*
G01X12165Y10439D01*
G01X10240Y10641D02*
G01X10518Y10641D01*
G01X11981Y10641D02*
G01X12258Y10641D01*
G01X10033Y10843D02*
G01X10389Y10843D01*
G01X12109Y10843D02*
G01X12465Y10843D01*
G01X9981Y11045D02*
G01X10320Y11045D01*
G01X12178Y11045D02*
G01X12791Y11045D01*
G01X10183Y11247D02*
G01X10298Y11247D01*
G01X12201Y11247D02*
G01X12748Y11247D01*
G01X12180Y11449D02*
G01X12789Y11449D01*
G01X12112Y11651D02*
G01X12474Y11651D01*
G01X11985Y11853D02*
G01X12262Y11853D01*
G01X11756Y12055D02*
G01X12167Y12055D01*
G01X11193Y12257D02*
G01X11860Y12257D01*
G01X12842Y10952D02*
G01X12842Y10956D01*
G01X12842Y11543D02*
G01X12842Y11547D01*
G01X12640Y10923D02*
G01X12640Y11576D01*
G01X12438Y10825D02*
G01X12438Y11674D01*
G01X12236Y10606D02*
G01X12236Y11893D01*
G01X12034Y10326D02*
G01X12034Y10712D01*
G01X12034Y11787D02*
G01X12034Y12173D01*
G01X11832Y10223D02*
G01X11832Y10498D01*
G01X11832Y12001D02*
G01X11832Y12276D01*
G01X11630Y9990D02*
G01X11630Y10378D01*
G01X11630Y12121D02*
G01X11630Y12423D01*
G01X11428Y9718D02*
G01X11428Y10315D01*
G01X11428Y12184D02*
G01X11428Y12423D01*
G01X11226Y9750D02*
G01X11226Y10298D01*
G01X11226Y12201D02*
G01X11226Y12290D01*
G01X11024Y9698D02*
G01X11024Y10325D01*
G01X10822Y10064D02*
G01X10822Y10399D01*
G01X10620Y10254D02*
G01X10620Y10536D01*
G01X10418Y10339D02*
G01X10418Y10786D01*
G01X10216Y10675D02*
G01X10216Y11280D01*
G01X10014Y10854D02*
G01X10014Y11078D01*
G01X14028Y10204D02*
G01X14028Y12589D01*
G01X14843Y12440D02*
G01X14843Y11992D01*
G01X14843Y11992D02*
G01X14232Y11992D01*
G01X14080Y11840D02*
G01X14080Y10659D01*
G01X14232Y10507D02*
G01X14843Y10507D01*
G01X14843Y10507D02*
G01X14843Y10264D01*
G01X14803Y10269D02*
G01X14153Y10269D01*
G01X14028Y10237D02*
G01X14059Y10237D01*
G01X14028Y10439D02*
G01X14843Y10439D01*
G01X14028Y10641D02*
G01X14081Y10641D01*
G01X14028Y10843D02*
G01X14080Y10843D01*
G01X14028Y11045D02*
G01X14080Y11045D01*
G01X14028Y11247D02*
G01X14080Y11247D01*
G01X14028Y11449D02*
G01X14080Y11449D01*
G01X14028Y11651D02*
G01X14080Y11651D01*
G01X14028Y11853D02*
G01X14081Y11853D01*
G01X14028Y12055D02*
G01X14843Y12055D01*
G01X14028Y12257D02*
G01X14843Y12257D01*
G01X14028Y12459D02*
G01X14097Y12459D01*
G01X14660Y10269D02*
G01X14660Y10507D01*
G01X14660Y11992D02*
G01X14660Y12305D01*
G01X14458Y10269D02*
G01X14458Y10507D01*
G01X14458Y11992D02*
G01X14458Y12269D01*
G01X14256Y10269D02*
G01X14256Y10507D01*
G01X14256Y11992D02*
G01X14256Y12324D01*
G01X14054Y10233D02*
G01X14054Y12527D01*
G01X13625Y10917D02*
G01X13625Y10774D01*
G01X13543Y10843D02*
G01X13625Y10843D01*
G01X2507Y11641D02*
G01X2236Y11369D01*
G01X2153Y11547D02*
G01X2157Y11547D01*
G01X2209Y11449D02*
G01X2316Y11449D01*
G01X2338Y11471D02*
G01X2338Y11571D01*
G01X10007Y11641D02*
G01X9736Y11369D01*
G01X9653Y11547D02*
G01X9657Y11547D01*
G01X9709Y11449D02*
G01X9816Y11449D01*
G01X9812Y11445D02*
G01X9812Y11564D01*
G01X13625Y11725D02*
G01X13625Y11582D01*
G01X13550Y11651D02*
G01X13625Y11651D01*
G01X3100Y12233D02*
G01X2766Y11899D01*
G01X2832Y12055D02*
G01X2922Y12055D01*
G01X2944Y12077D02*
G01X2944Y12167D01*
G01X10600Y12233D02*
G01X10266Y11899D01*
G01X10332Y12055D02*
G01X10422Y12055D01*
G01X10418Y12051D02*
G01X10418Y12160D01*
G01X3629Y12763D02*
G01X3358Y12491D01*
G01X3452Y12842D02*
G01X3452Y12846D01*
G01X3428Y12661D02*
G01X3528Y12661D01*
G01X3550Y12683D02*
G01X3550Y12789D01*
G01X11129Y12763D02*
G01X10858Y12491D01*
G01X10952Y12842D02*
G01X10952Y12846D01*
G01X10928Y12661D02*
G01X11028Y12661D01*
G01X11024Y12657D02*
G01X11024Y12801D01*
G01X13969Y12863D02*
G01X12094Y14738D01*
G01X11991Y14793D02*
G01X11991Y14843D01*
G01X11991Y14843D02*
G01X14531Y14843D01*
G01X14843Y14531D02*
G01X14843Y13051D01*
G01X13969Y12863D02*
G01X14016Y12863D01*
G01X13767Y13065D02*
G01X14124Y13065D01*
G01X14831Y13065D02*
G01X14843Y13065D01*
G01X13565Y13267D02*
G01X14843Y13267D01*
G01X13363Y13469D02*
G01X14843Y13469D01*
G01X13161Y13671D02*
G01X14843Y13671D01*
G01X12959Y13873D02*
G01X14843Y13873D01*
G01X12757Y14075D02*
G01X14843Y14075D01*
G01X12555Y14277D02*
G01X14843Y14277D01*
G01X12353Y14479D02*
G01X14843Y14479D01*
G01X12151Y14681D02*
G01X14805Y14681D01*
G01X14660Y13186D02*
G01X14660Y14815D01*
G01X14458Y13222D02*
G01X14458Y14843D01*
G01X14256Y13168D02*
G01X14256Y14843D01*
G01X14054Y12964D02*
G01X14054Y14843D01*
G01X13852Y12979D02*
G01X13852Y14843D01*
G01X13650Y13181D02*
G01X13650Y14843D01*
G01X13448Y13383D02*
G01X13448Y14843D01*
G01X13246Y13585D02*
G01X13246Y14843D01*
G01X13044Y13787D02*
G01X13044Y14843D01*
G01X12842Y13989D02*
G01X12842Y14843D01*
G01X12640Y14191D02*
G01X12640Y14843D01*
G01X12438Y14393D02*
G01X12438Y14843D01*
G01X12236Y14595D02*
G01X12236Y14843D01*
G01X12034Y14779D02*
G01X12034Y14843D01*
G01X4047Y12826D02*
G01X4018Y12826D01*
G01X4047Y12846D02*
G01X4047Y12842D01*
G01X11547Y12846D02*
G01X11547Y12842D01*
G01X11547Y12826D02*
G01X11518Y12826D01*
G01X13157Y12952D02*
G01X12952Y12952D01*
G01X12952Y12952D02*
G01X12952Y13157D01*
G01X12930Y13332D02*
G01X13332Y12930D01*
G01X12952Y13065D02*
G01X13197Y13065D01*
G01X12943Y13267D02*
G01X12995Y13267D01*
G01X13246Y12946D02*
G01X13246Y13016D01*
G01X13044Y12952D02*
G01X13044Y13218D01*
G01X2509Y15940D02*
G01X4824Y15940D01*
G01X4781Y15835D02*
G01X4781Y15185D01*
G01X4785Y15151D02*
G01X2619Y15151D01*
G01X2726Y15287D02*
G01X4781Y15287D01*
G01X2781Y15489D02*
G01X4781Y15489D01*
G01X2746Y15691D02*
G01X4781Y15691D01*
G01X2588Y15893D02*
G01X4793Y15893D01*
G01X4762Y15151D02*
G01X4762Y15940D01*
G01X4560Y15151D02*
G01X4560Y15940D01*
G01X4358Y15151D02*
G01X4358Y15940D01*
G01X4156Y15151D02*
G01X4156Y15940D01*
G01X3954Y15151D02*
G01X3954Y15940D01*
G01X3752Y15151D02*
G01X3752Y15940D01*
G01X3550Y15151D02*
G01X3550Y15940D01*
G01X3348Y15151D02*
G01X3348Y15940D01*
G01X3146Y15151D02*
G01X3146Y15940D01*
G01X2944Y15151D02*
G01X2944Y15940D01*
G01X2742Y15151D02*
G01X2742Y15320D01*
G01X2742Y15699D02*
G01X2742Y15940D01*
G01X2540Y15924D02*
G01X2540Y15940D01*
G01X3456Y16343D02*
G01X3244Y16343D01*
G01X3348Y16343D02*
G01X3348Y16448D01*
G01X4255Y16343D02*
G01X4043Y16343D01*
G01X4156Y16343D02*
G01X4156Y16456D01*
G01X6399Y17435D02*
G01X5308Y16343D01*
G01X5308Y16343D02*
G01X5244Y16343D01*
G01X5452Y16842D02*
G01X5452Y17047D01*
G01X5452Y17047D02*
G01X5657Y17047D01*
G01X6213Y18179D02*
G01X6580Y18545D01*
G01X6580Y18545D02*
G01X6580Y18159D01*
G01X6732Y18007D02*
G01X7343Y18007D01*
G01X7343Y18007D02*
G01X7343Y17764D01*
G01X7303Y17769D02*
G01X6653Y17769D01*
G01X6501Y17618D02*
G01X6501Y17490D01*
G01X5362Y16499D02*
G01X5463Y16499D01*
G01X5438Y16701D02*
G01X5665Y16701D01*
G01X5452Y16903D02*
G01X5867Y16903D01*
G01X5936Y17105D02*
G01X6069Y17105D01*
G01X6202Y17307D02*
G01X6271Y17307D01*
G01X6317Y17509D02*
G01X6501Y17509D01*
G01X6358Y17711D02*
G01X6533Y17711D01*
G01X6340Y17913D02*
G01X7343Y17913D01*
G01X6257Y18115D02*
G01X6587Y18115D01*
G01X6351Y18317D02*
G01X6580Y18317D01*
G01X6553Y18519D02*
G01X6580Y18519D01*
G01X7186Y17769D02*
G01X7186Y18007D01*
G01X6984Y17769D02*
G01X6984Y18007D01*
G01X6782Y17769D02*
G01X6782Y18007D01*
G01X6580Y17751D02*
G01X6580Y18152D01*
G01X6378Y17414D02*
G01X6378Y18344D01*
G01X6176Y17212D02*
G01X6176Y17276D01*
G01X5974Y17010D02*
G01X5974Y17123D01*
G01X5772Y16808D02*
G01X5772Y17056D01*
G01X5570Y16606D02*
G01X5570Y17047D01*
G01X5368Y16404D02*
G01X5368Y16509D01*
G01X2069Y16667D02*
G01X1667Y17069D01*
G01X1842Y17047D02*
G01X2047Y17047D01*
G01X2047Y17047D02*
G01X2047Y16842D01*
G01X2035Y16701D02*
G01X2061Y16701D01*
G01X1833Y16903D02*
G01X2047Y16903D01*
G01X1934Y16801D02*
G01X1934Y17047D01*
G01X1732Y17003D02*
G01X1732Y17055D01*
G01X3452Y17153D02*
G01X3452Y17157D01*
G01X2359Y18422D02*
G01X2805Y18869D01*
G01X3630Y19694D02*
G01X3860Y19923D01*
G01X3860Y19923D02*
G01X4185Y19923D01*
G01X5342Y19047D02*
G01X5345Y19047D01*
G01X5345Y18452D02*
G01X5342Y18452D01*
G01X4047Y17157D02*
G01X4047Y17153D01*
G01X3436Y17307D02*
G01X4063Y17307D01*
G01X3358Y17509D02*
G01X4141Y17509D01*
G01X3182Y17711D02*
G01X4317Y17711D01*
G01X2840Y17913D02*
G01X3296Y17913D01*
G01X4202Y17913D02*
G01X4658Y17913D01*
G01X2757Y18115D02*
G01X3040Y18115D01*
G01X4458Y18115D02*
G01X4741Y18115D01*
G01X2571Y18317D02*
G01X2902Y18317D01*
G01X4597Y18317D02*
G01X4927Y18317D01*
G01X2455Y18519D02*
G01X2826Y18519D01*
G01X4672Y18519D02*
G01X5304Y18519D01*
G01X2657Y18721D02*
G01X2798Y18721D01*
G01X4700Y18721D02*
G01X5249Y18721D01*
G01X4685Y18923D02*
G01X5279Y18923D01*
G01X4624Y19125D02*
G01X5020Y19125D01*
G01X4506Y19327D02*
G01X4780Y19327D01*
G01X4295Y19529D02*
G01X4675Y19529D01*
G01X3667Y19731D02*
G01X4403Y19731D01*
G01X5166Y18430D02*
G01X5166Y19069D01*
G01X4964Y18342D02*
G01X4964Y19157D01*
G01X4762Y18147D02*
G01X4762Y19352D01*
G01X4560Y17834D02*
G01X4560Y18252D01*
G01X4560Y19247D02*
G01X4560Y19665D01*
G01X4358Y17741D02*
G01X4358Y18018D01*
G01X4358Y19481D02*
G01X4358Y19758D01*
G01X4156Y17534D02*
G01X4156Y17889D01*
G01X4156Y19610D02*
G01X4156Y19923D01*
G01X3954Y17207D02*
G01X3954Y17820D01*
G01X3954Y19679D02*
G01X3954Y19923D01*
G01X3752Y17251D02*
G01X3752Y17798D01*
G01X3752Y19701D02*
G01X3752Y19816D01*
G01X3550Y17210D02*
G01X3550Y17819D01*
G01X3348Y17524D02*
G01X3348Y17887D01*
G01X3146Y17737D02*
G01X3146Y18013D01*
G01X2944Y17832D02*
G01X2944Y18242D01*
G01X2742Y18138D02*
G01X2742Y18806D01*
G01X2540Y18338D02*
G01X2540Y18604D01*
G01X1161Y17574D02*
G01X728Y18007D01*
G01X728Y18007D02*
G01X767Y18007D01*
G01X918Y18159D02*
G01X918Y19340D01*
G01X767Y19492D02*
G01X156Y19492D01*
G01X156Y19492D02*
G01X156Y22031D01*
G01X468Y22343D02*
G01X3007Y22343D01*
G01X3007Y22343D02*
G01X3007Y21732D01*
G01X3159Y21580D02*
G01X4340Y21580D01*
G01X4491Y21732D02*
G01X4491Y22343D01*
G01X4491Y22343D02*
G01X7031Y22343D01*
G01X7343Y22031D02*
G01X7343Y20551D01*
G01X6501Y20253D02*
G01X5247Y21508D01*
G01X5104Y21567D02*
G01X3615Y21567D01*
G01X3473Y21508D02*
G01X3178Y21213D01*
G01X2047Y20657D02*
G01X2047Y20452D01*
G01X2047Y20452D02*
G01X1842Y20452D01*
G01X1025Y17711D02*
G01X1140Y17711D01*
G01X823Y17913D02*
G01X1158Y17913D01*
G01X912Y18115D02*
G01X1241Y18115D01*
G01X918Y18317D02*
G01X1427Y18317D01*
G01X918Y18519D02*
G01X1304Y18519D01*
G01X918Y18721D02*
G01X1249Y18721D01*
G01X918Y18923D02*
G01X1279Y18923D01*
G01X918Y19125D02*
G01X1417Y19125D01*
G01X918Y19327D02*
G01X1280Y19327D01*
G01X156Y19529D02*
G01X1175Y19529D01*
G01X156Y19731D02*
G01X1139Y19731D01*
G01X156Y19933D02*
G01X1163Y19933D01*
G01X156Y20135D02*
G01X1254Y20135D01*
G01X156Y20337D02*
G01X1456Y20337D01*
G01X6418Y20337D02*
G01X6510Y20337D01*
G01X156Y20539D02*
G01X2047Y20539D01*
G01X6216Y20539D02*
G01X6602Y20539D01*
G01X156Y20741D02*
G01X2052Y20741D01*
G01X6014Y20741D02*
G01X7343Y20741D01*
G01X156Y20943D02*
G01X2107Y20943D01*
G01X5812Y20943D02*
G01X7343Y20943D01*
G01X156Y21145D02*
G01X2243Y21145D01*
G01X5610Y21145D02*
G01X7343Y21145D01*
G01X156Y21347D02*
G01X2615Y21347D01*
G01X2883Y21347D02*
G01X3312Y21347D01*
G01X5408Y21347D02*
G01X7343Y21347D01*
G01X156Y21549D02*
G01X3531Y21549D01*
G01X5188Y21549D02*
G01X7343Y21549D01*
G01X156Y21751D02*
G01X3007Y21751D01*
G01X4491Y21751D02*
G01X7343Y21751D01*
G01X156Y21953D02*
G01X3007Y21953D01*
G01X4491Y21953D02*
G01X7343Y21953D01*
G01X182Y22155D02*
G01X3007Y22155D01*
G01X4491Y22155D02*
G01X7317Y22155D01*
G01X7186Y20674D02*
G01X7186Y22302D01*
G01X6984Y20722D02*
G01X6984Y22343D01*
G01X6782Y20680D02*
G01X6782Y22343D01*
G01X6580Y20509D02*
G01X6580Y22343D01*
G01X6378Y20376D02*
G01X6378Y22343D01*
G01X6176Y20578D02*
G01X6176Y22343D01*
G01X5974Y20780D02*
G01X5974Y22343D01*
G01X5772Y20982D02*
G01X5772Y22343D01*
G01X5570Y21184D02*
G01X5570Y22343D01*
G01X5368Y21386D02*
G01X5368Y22343D01*
G01X5166Y21557D02*
G01X5166Y22343D01*
G01X4964Y21567D02*
G01X4964Y22343D01*
G01X4762Y21567D02*
G01X4762Y22343D01*
G01X4560Y21567D02*
G01X4560Y22343D01*
G01X4358Y21567D02*
G01X4358Y21581D01*
G01X4156Y21567D02*
G01X4156Y21580D01*
G01X3954Y21567D02*
G01X3954Y21580D01*
G01X3752Y21567D02*
G01X3752Y21580D01*
G01X3550Y21556D02*
G01X3550Y21580D01*
G01X3348Y21383D02*
G01X3348Y21580D01*
G01X3146Y21237D02*
G01X3146Y21581D01*
G01X2944Y21332D02*
G01X2944Y22343D01*
G01X2742Y21360D02*
G01X2742Y22343D01*
G01X2540Y21328D02*
G01X2540Y22343D01*
G01X2338Y21227D02*
G01X2338Y22343D01*
G01X2136Y21000D02*
G01X2136Y22343D01*
G01X1934Y20452D02*
G01X1934Y22343D01*
G01X1732Y20444D02*
G01X1732Y22343D01*
G01X1530Y20379D02*
G01X1530Y22343D01*
G01X1328Y18229D02*
G01X1328Y18477D01*
G01X1328Y19022D02*
G01X1328Y19270D01*
G01X1328Y20229D02*
G01X1328Y22343D01*
G01X1126Y17609D02*
G01X1126Y22343D01*
G01X924Y17811D02*
G01X924Y22343D01*
G01X722Y19492D02*
G01X722Y22343D01*
G01X520Y19492D02*
G01X520Y22343D01*
G01X318Y19492D02*
G01X318Y22305D01*
G01X6271Y18806D02*
G01X6250Y18785D01*
G01X6271Y19408D02*
G01X6271Y18806D01*
G01X6220Y18923D02*
G01X6271Y18923D01*
G01X6082Y19125D02*
G01X6271Y19125D01*
G01X6218Y19327D02*
G01X6271Y19327D01*
G01X6176Y19013D02*
G01X6176Y19276D01*
G01X2507Y19141D02*
G01X2236Y18869D01*
G01X2153Y19047D02*
G01X2157Y19047D01*
G01X2220Y18923D02*
G01X2290Y18923D01*
G01X2478Y19125D02*
G01X2492Y19125D01*
G01X2338Y18971D02*
G01X2338Y19071D01*
G01X3100Y19733D02*
G01X2766Y19399D01*
G01X2824Y19529D02*
G01X2896Y19529D01*
G01X3096Y19731D02*
G01X3098Y19731D01*
G01X2944Y19577D02*
G01X2944Y19667D01*
G01X6674Y19480D02*
G01X6674Y19657D01*
G01X6674Y19657D02*
G01X6743Y19725D01*
G01X6744Y19726D02*
G01X6815Y19798D01*
G01X7343Y19940D02*
G01X7343Y19492D01*
G01X7343Y19492D02*
G01X6732Y19492D01*
G01X6674Y19529D02*
G01X7343Y19529D01*
G01X6748Y19731D02*
G01X7343Y19731D01*
G01X7337Y19933D02*
G01X7343Y19933D01*
G01X7186Y19492D02*
G01X7186Y19817D01*
G01X6984Y19492D02*
G01X6984Y19769D01*
G01X6782Y19492D02*
G01X6782Y19765D01*
G01X3629Y20263D02*
G01X3358Y19991D01*
G01X3452Y20342D02*
G01X3452Y20346D01*
G01X3421Y20135D02*
G01X3502Y20135D01*
G01X3452Y20337D02*
G01X3464Y20337D01*
G01X3550Y20183D02*
G01X3550Y20289D01*
G01X4047Y20326D02*
G01X4018Y20326D01*
G01X4047Y20346D02*
G01X4047Y20342D01*
G01X4034Y20337D02*
G01X4047Y20337D01*
G01X5657Y20452D02*
G01X5452Y20452D01*
G01X5452Y20452D02*
G01X5452Y20657D01*
G01X5447Y20737D02*
G01X5737Y20448D01*
G01X5452Y20539D02*
G01X5646Y20539D01*
G01X5570Y20452D02*
G01X5570Y20615D01*
G01X4032Y21164D02*
G01X4263Y21164D01*
G01X4058Y21145D02*
G01X4243Y21145D01*
G01X4156Y21043D02*
G01X4156Y21164D01*

%LPD*%
G36*
G01X4955Y14886D02*
G01X4941Y14886D01*
G01X4921Y14885D01*
G01X4903Y14881D01*
G01X4886Y14875D01*
G01X4856Y14855D01*
G01X4844Y14841D01*
G01X4833Y14826D01*
G01X4825Y14809D01*
G01X4818Y14789D01*
G01X4813Y14769D01*
G01X4810Y14748D01*
G01X4809Y14726D01*
G01X4810Y14703D01*
G01X4813Y14681D01*
G01X4818Y14660D01*
G01X4826Y14640D01*
G01X4835Y14622D01*
G01X4847Y14606D01*
G01X4860Y14593D01*
G01X4876Y14582D01*
G01X4892Y14573D01*
G01X4909Y14567D01*
G01X4927Y14563D01*
G01X4945Y14561D01*
G01X4957Y14562D01*
G01X4969Y14564D01*
G01X4981Y14568D01*
G01X4992Y14573D01*
G01X5002Y14578D01*
G01X5011Y14585D01*
G01X5019Y14592D01*
G01X5027Y14601D01*
G01X5027Y14450D01*
G01X5079Y14450D01*
G01X5079Y14880D01*
G01X5031Y14880D01*
G01X5031Y14838D01*
G01X5022Y14850D01*
G01X5013Y14859D01*
G01X5003Y14868D01*
G01X4993Y14875D01*
G01X4981Y14880D01*
G01X4969Y14884D01*
G01X4955Y14886D01*
G37*

%LPC*%
G36*
G01X4962Y14844D02*
G01X4946Y14846D01*
G01X4929Y14844D01*
G01X4914Y14838D01*
G01X4900Y14829D01*
G01X4888Y14815D01*
G01X4877Y14799D01*
G01X4869Y14778D01*
G01X4864Y14754D01*
G01X4863Y14726D01*
G01X4869Y14673D01*
G01X4888Y14634D01*
G01X4901Y14621D01*
G01X4915Y14612D01*
G01X4931Y14606D01*
G01X4948Y14605D01*
G01X4964Y14606D01*
G01X4980Y14612D01*
G01X4994Y14621D01*
G01X5007Y14634D01*
G01X5017Y14650D01*
G01X5025Y14670D01*
G01X5030Y14694D01*
G01X5032Y14723D01*
G01X5025Y14775D01*
G01X5006Y14813D01*
G01X4992Y14828D01*
G01X4978Y14838D01*
G01X4962Y14844D01*
G37*

%LPD*%
G36*
G01X5310Y14998D02*
G01X5288Y15000D01*
G01X5271Y14999D01*
G01X5255Y14996D01*
G01X5240Y14992D01*
G01X5227Y14986D01*
G01X5214Y14978D01*
G01X5203Y14969D01*
G01X5193Y14958D01*
G01X5184Y14946D01*
G01X5175Y14932D01*
G01X5168Y14917D01*
G01X5162Y14900D01*
G01X5157Y14882D01*
G01X5150Y14837D01*
G01X5148Y14780D01*
G01X5151Y14712D01*
G01X5163Y14659D01*
G01X5171Y14636D01*
G01X5182Y14617D01*
G01X5195Y14600D01*
G01X5210Y14586D01*
G01X5226Y14575D01*
G01X5244Y14567D01*
G01X5265Y14562D01*
G01X5288Y14561D01*
G01X5343Y14572D01*
G01X5385Y14605D01*
G01X5403Y14637D01*
G01X5417Y14676D01*
G01X5425Y14724D01*
G01X5428Y14780D01*
G01X5424Y14849D01*
G01X5412Y14903D01*
G01X5403Y14925D01*
G01X5392Y14944D01*
G01X5379Y14961D01*
G01X5365Y14975D01*
G01X5348Y14986D01*
G01X5330Y14993D01*
G01X5310Y14998D01*
G37*

%LPC*%
G36*
G01X5305Y14954D02*
G01X5288Y14955D01*
G01X5270Y14953D01*
G01X5254Y14947D01*
G01X5239Y14936D01*
G01X5227Y14921D01*
G01X5208Y14869D01*
G01X5202Y14780D01*
G01X5208Y14692D01*
G01X5227Y14640D01*
G01X5239Y14624D01*
G01X5254Y14613D01*
G01X5270Y14607D01*
G01X5288Y14605D01*
G01X5305Y14607D01*
G01X5321Y14613D01*
G01X5335Y14624D01*
G01X5349Y14640D01*
G01X5367Y14692D01*
G01X5373Y14780D01*
G01X5371Y14829D01*
G01X5366Y14869D01*
G01X5357Y14901D01*
G01X5346Y14926D01*
G01X5334Y14939D01*
G01X5321Y14948D01*
G01X5305Y14954D01*
G37*

%LPD*%
G36*
G01X2145Y14998D02*
G01X2092Y14998D01*
G01X2092Y14844D01*
G01X2054Y14876D01*
G01X2007Y14886D01*
G01X1992Y14886D01*
G01X1978Y14884D01*
G01X1965Y14880D01*
G01X1952Y14875D01*
G01X1940Y14868D01*
G01X1929Y14861D01*
G01X1919Y14852D01*
G01X1910Y14842D01*
G01X1902Y14832D01*
G01X1895Y14819D01*
G01X1889Y14806D01*
G01X1884Y14792D01*
G01X1880Y14777D01*
G01X1877Y14761D01*
G01X1875Y14745D01*
G01X1875Y14728D01*
G01X1884Y14657D01*
G01X1914Y14605D01*
G01X1957Y14572D01*
G01X2009Y14561D01*
G01X2058Y14573D01*
G01X2096Y14607D01*
G01X2096Y14569D01*
G01X2145Y14569D01*
G01X2145Y14998D01*
G37*

%LPC*%
G36*
G01X2027Y14842D02*
G01X2011Y14844D01*
G01X1994Y14842D01*
G01X1979Y14836D01*
G01X1965Y14827D01*
G01X1953Y14815D01*
G01X1942Y14798D01*
G01X1935Y14778D01*
G01X1930Y14753D01*
G01X1929Y14725D01*
G01X1930Y14696D01*
G01X1935Y14672D01*
G01X1943Y14651D01*
G01X1954Y14634D01*
G01X1967Y14621D01*
G01X1981Y14612D01*
G01X1997Y14606D01*
G01X2014Y14605D01*
G01X2033Y14607D01*
G01X2051Y14615D01*
G01X2067Y14628D01*
G01X2081Y14646D01*
G01X2087Y14660D01*
G01X2092Y14678D01*
G01X2095Y14701D01*
G01X2096Y14726D01*
G01X2094Y14753D01*
G01X2089Y14776D01*
G01X2081Y14796D01*
G01X2071Y14813D01*
G01X2057Y14827D01*
G01X2043Y14836D01*
G01X2027Y14842D01*
G37*

%LPD*%
G36*
G01X2280Y14880D02*
G01X2227Y14880D01*
G01X2227Y14569D01*
G01X2274Y14569D01*
G01X2274Y14613D01*
G01X2316Y14575D01*
G01X2373Y14561D01*
G01X2386Y14562D01*
G01X2399Y14564D01*
G01X2411Y14567D01*
G01X2424Y14571D01*
G01X2435Y14577D01*
G01X2445Y14584D01*
G01X2453Y14591D01*
G01X2460Y14598D01*
G01X2465Y14607D01*
G01X2469Y14616D01*
G01X2473Y14626D01*
G01X2476Y14638D01*
G01X2477Y14646D01*
G01X2478Y14657D01*
G01X2478Y14671D01*
G01X2479Y14686D01*
G01X2479Y14880D01*
G01X2426Y14880D01*
G01X2426Y14707D01*
G01X2425Y14688D01*
G01X2425Y14672D01*
G01X2424Y14660D01*
G01X2423Y14651D01*
G01X2415Y14633D01*
G01X2409Y14625D01*
G01X2402Y14619D01*
G01X2393Y14613D01*
G01X2384Y14609D01*
G01X2373Y14607D01*
G01X2350Y14607D01*
G01X2339Y14609D01*
G01X2328Y14613D01*
G01X2308Y14625D01*
G01X2300Y14633D01*
G01X2293Y14642D01*
G01X2288Y14651D01*
G01X2284Y14663D01*
G01X2282Y14677D01*
G01X2280Y14694D01*
G01X2280Y14880D01*
G37*

%LPD*%
G36*
G01X2805Y14885D02*
G01X2786Y14886D01*
G01X2761Y14885D01*
G01X2739Y14880D01*
G01X2720Y14872D01*
G01X2703Y14861D01*
G01X2688Y14846D01*
G01X2676Y14830D01*
G01X2667Y14810D01*
G01X2661Y14788D01*
G01X2713Y14780D01*
G01X2717Y14795D01*
G01X2723Y14808D01*
G01X2730Y14819D01*
G01X2739Y14828D01*
G01X2748Y14834D01*
G01X2759Y14840D01*
G01X2771Y14842D01*
G01X2784Y14844D01*
G01X2802Y14842D01*
G01X2819Y14836D01*
G01X2834Y14827D01*
G01X2848Y14815D01*
G01X2858Y14798D01*
G01X2866Y14778D01*
G01X2871Y14753D01*
G01X2873Y14725D01*
G01X2867Y14670D01*
G01X2849Y14632D01*
G01X2836Y14620D01*
G01X2821Y14611D01*
G01X2805Y14606D01*
G01X2787Y14605D01*
G01X2771Y14606D01*
G01X2758Y14609D01*
G01X2745Y14615D01*
G01X2735Y14623D01*
G01X2725Y14634D01*
G01X2717Y14648D01*
G01X2711Y14664D01*
G01X2708Y14682D01*
G01X2656Y14676D01*
G01X2671Y14628D01*
G01X2700Y14592D01*
G01X2718Y14578D01*
G01X2739Y14569D01*
G01X2761Y14563D01*
G01X2786Y14561D01*
G01X2843Y14572D01*
G01X2889Y14603D01*
G01X2917Y14653D01*
G01X2927Y14723D01*
G01X2926Y14747D01*
G01X2923Y14770D01*
G01X2918Y14791D01*
G01X2911Y14811D01*
G01X2901Y14828D01*
G01X2889Y14844D01*
G01X2875Y14857D01*
G01X2860Y14867D01*
G01X2842Y14876D01*
G01X2824Y14882D01*
G01X2805Y14885D01*
G37*

%LPD*%
G36*
G01X3842Y14876D02*
G01X3784Y14886D01*
G01X3727Y14876D01*
G01X3682Y14844D01*
G01X3652Y14793D01*
G01X3643Y14725D01*
G01X3643Y14711D01*
G01X3875Y14711D01*
G01X3872Y14686D01*
G01X3866Y14665D01*
G01X3857Y14647D01*
G01X3846Y14632D01*
G01X3832Y14620D01*
G01X3816Y14611D01*
G01X3799Y14606D01*
G01X3781Y14605D01*
G01X3767Y14605D01*
G01X3754Y14608D01*
G01X3742Y14613D01*
G01X3732Y14619D01*
G01X3722Y14628D01*
G01X3713Y14640D01*
G01X3705Y14653D01*
G01X3699Y14669D01*
G01X3645Y14661D01*
G01X3652Y14639D01*
G01X3663Y14619D01*
G01X3676Y14602D01*
G01X3692Y14588D01*
G01X3710Y14576D01*
G01X3731Y14568D01*
G01X3755Y14563D01*
G01X3781Y14561D01*
G01X3842Y14572D01*
G01X3890Y14603D01*
G01X3920Y14654D01*
G01X3930Y14721D01*
G01X3919Y14791D01*
G01X3889Y14844D01*
G01X3842Y14876D01*
G37*

%LPC*%
G36*
G01X3801Y14842D02*
G01X3784Y14844D01*
G01X3764Y14842D01*
G01X3747Y14836D01*
G01X3731Y14826D01*
G01X3718Y14813D01*
G01X3710Y14801D01*
G01X3705Y14788D01*
G01X3701Y14772D01*
G01X3699Y14753D01*
G01X3872Y14753D01*
G01X3869Y14773D01*
G01X3864Y14790D01*
G01X3856Y14805D01*
G01X3845Y14819D01*
G01X3831Y14830D01*
G01X3817Y14837D01*
G01X3801Y14842D01*
G37*

%LPD*%
G36*
G01X4106Y14885D02*
G01X4086Y14886D01*
G01X4062Y14885D01*
G01X4040Y14880D01*
G01X4021Y14872D01*
G01X4004Y14861D01*
G01X3989Y14846D01*
G01X3977Y14830D01*
G01X3968Y14810D01*
G01X3962Y14788D01*
G01X4013Y14780D01*
G01X4017Y14795D01*
G01X4023Y14808D01*
G01X4030Y14819D01*
G01X4039Y14828D01*
G01X4048Y14834D01*
G01X4059Y14840D01*
G01X4071Y14842D01*
G01X4084Y14844D01*
G01X4103Y14842D01*
G01X4120Y14836D01*
G01X4135Y14827D01*
G01X4149Y14815D01*
G01X4159Y14798D01*
G01X4167Y14778D01*
G01X4172Y14753D01*
G01X4174Y14725D01*
G01X4168Y14670D01*
G01X4150Y14632D01*
G01X4137Y14620D01*
G01X4122Y14611D01*
G01X4105Y14606D01*
G01X4087Y14605D01*
G01X4072Y14606D01*
G01X4058Y14609D01*
G01X4046Y14615D01*
G01X4035Y14623D01*
G01X4025Y14634D01*
G01X4018Y14648D01*
G01X4012Y14664D01*
G01X4009Y14682D01*
G01X3957Y14676D01*
G01X3972Y14628D01*
G01X4001Y14592D01*
G01X4019Y14578D01*
G01X4040Y14569D01*
G01X4062Y14563D01*
G01X4087Y14561D01*
G01X4144Y14572D01*
G01X4189Y14603D01*
G01X4218Y14653D01*
G01X4228Y14723D01*
G01X4227Y14747D01*
G01X4224Y14770D01*
G01X4219Y14791D01*
G01X4212Y14811D01*
G01X4202Y14828D01*
G01X4190Y14844D01*
G01X4176Y14857D01*
G01X4161Y14867D01*
G01X4143Y14876D01*
G01X4125Y14882D01*
G01X4106Y14885D01*
G37*

%LPD*%
G36*
G01X4676Y14876D02*
G01X4618Y14886D01*
G01X4561Y14876D01*
G01X4516Y14844D01*
G01X4486Y14793D01*
G01X4476Y14725D01*
G01X4476Y14715D01*
G01X4477Y14711D01*
G01X4709Y14711D01*
G01X4706Y14686D01*
G01X4700Y14665D01*
G01X4691Y14647D01*
G01X4680Y14632D01*
G01X4666Y14620D01*
G01X4650Y14611D01*
G01X4633Y14606D01*
G01X4615Y14605D01*
G01X4601Y14605D01*
G01X4588Y14608D01*
G01X4576Y14613D01*
G01X4565Y14619D01*
G01X4555Y14628D01*
G01X4547Y14640D01*
G01X4539Y14653D01*
G01X4533Y14669D01*
G01X4478Y14661D01*
G01X4485Y14639D01*
G01X4496Y14619D01*
G01X4509Y14602D01*
G01X4526Y14588D01*
G01X4544Y14576D01*
G01X4565Y14568D01*
G01X4589Y14563D01*
G01X4615Y14561D01*
G01X4676Y14572D01*
G01X4723Y14603D01*
G01X4753Y14654D01*
G01X4763Y14721D01*
G01X4753Y14791D01*
G01X4723Y14844D01*
G01X4676Y14876D01*
G37*

%LPC*%
G36*
G01X4634Y14842D02*
G01X4617Y14844D01*
G01X4597Y14842D01*
G01X4580Y14836D01*
G01X4565Y14826D01*
G01X4552Y14813D01*
G01X4544Y14801D01*
G01X4539Y14788D01*
G01X4534Y14772D01*
G01X4532Y14753D01*
G01X4706Y14753D01*
G01X4703Y14773D01*
G01X4697Y14790D01*
G01X4689Y14805D01*
G01X4678Y14819D01*
G01X4665Y14830D01*
G01X4650Y14837D01*
G01X4634Y14842D01*
G37*

%LPD*%
G36*
G01X3235Y14957D02*
G01X3183Y14988D01*
G01X3183Y14880D01*
G01X3130Y14880D01*
G01X3130Y14838D01*
G01X3183Y14838D01*
G01X3183Y14657D01*
G01X3182Y14646D01*
G01X3182Y14638D01*
G01X3181Y14632D01*
G01X3180Y14628D01*
G01X3178Y14624D01*
G01X3176Y14621D01*
G01X3173Y14619D01*
G01X3171Y14617D01*
G01X3163Y14615D01*
G01X3153Y14613D01*
G01X3148Y14614D01*
G01X3142Y14614D01*
G01X3136Y14615D01*
G01X3130Y14615D01*
G01X3122Y14569D01*
G01X3132Y14567D01*
G01X3143Y14565D01*
G01X3175Y14565D01*
G01X3187Y14567D01*
G01X3197Y14569D01*
G01X3206Y14573D01*
G01X3213Y14578D01*
G01X3219Y14584D01*
G01X3224Y14590D01*
G01X3229Y14598D01*
G01X3231Y14607D01*
G01X3233Y14620D01*
G01X3234Y14638D01*
G01X3235Y14659D01*
G01X3235Y14838D01*
G01X3274Y14838D01*
G01X3274Y14880D01*
G01X3235Y14880D01*
G01X3235Y14957D01*
G37*

%LPD*%
G36*
G01X2613Y14998D02*
G01X2560Y14998D01*
G01X2560Y14569D01*
G01X2613Y14569D01*
G01X2613Y14998D01*
G37*

%LPD*%
G36*
G01X3063Y14628D02*
G01X3003Y14628D01*
G01X3003Y14569D01*
G01X3063Y14569D01*
G01X3063Y14628D01*
G37*

%LPD*%
G36*
G01X3432Y14886D02*
G01X3418Y14886D01*
G01X3405Y14884D01*
G01X3392Y14881D01*
G01X3380Y14876D01*
G01X3369Y14871D01*
G01X3359Y14865D01*
G01X3351Y14857D01*
G01X3345Y14850D01*
G01X3339Y14841D01*
G01X3335Y14832D01*
G01X3331Y14821D01*
G01X3329Y14811D01*
G01X3327Y14802D01*
G01X3326Y14791D01*
G01X3326Y14569D01*
G01X3378Y14569D01*
G01X3378Y14773D01*
G01X3379Y14786D01*
G01X3381Y14796D01*
G01X3384Y14805D01*
G01X3388Y14813D01*
G01X3393Y14820D01*
G01X3399Y14826D01*
G01X3406Y14832D01*
G01X3414Y14836D01*
G01X3432Y14840D01*
G01X3443Y14840D01*
G01X3459Y14839D01*
G01X3474Y14835D01*
G01X3488Y14829D01*
G01X3501Y14819D01*
G01X3511Y14806D01*
G01X3519Y14788D01*
G01X3524Y14766D01*
G01X3526Y14738D01*
G01X3526Y14569D01*
G01X3578Y14569D01*
G01X3578Y14880D01*
G01X3531Y14880D01*
G01X3531Y14836D01*
G01X3489Y14874D01*
G01X3432Y14886D01*
G37*

%LPD*%
G36*
G01X4306Y14886D02*
G01X4284Y14886D01*
G01X4270Y14882D01*
G01X4256Y14877D01*
G01X4243Y14869D01*
G01X4262Y14821D01*
G01X4271Y14825D01*
G01X4281Y14829D01*
G01X4290Y14831D01*
G01X4300Y14832D01*
G01X4308Y14831D01*
G01X4316Y14829D01*
G01X4324Y14826D01*
G01X4331Y14821D01*
G01X4337Y14816D01*
G01X4343Y14809D01*
G01X4347Y14801D01*
G01X4351Y14792D01*
G01X4354Y14778D01*
G01X4357Y14763D01*
G01X4359Y14748D01*
G01X4360Y14732D01*
G01X4360Y14569D01*
G01X4413Y14569D01*
G01X4413Y14880D01*
G01X4365Y14880D01*
G01X4365Y14832D01*
G01X4356Y14848D01*
G01X4347Y14860D01*
G01X4339Y14869D01*
G01X4332Y14876D01*
G01X4323Y14880D01*
G01X4315Y14884D01*
G01X4306Y14886D01*
G37*

%LPD*%
G36*
G01X5583Y14998D02*
G01X5540Y14998D01*
G01X5540Y14719D01*
G01X5482Y14719D01*
G01X5482Y14671D01*
G01X5540Y14671D01*
G01X5540Y14569D01*
G01X5592Y14569D01*
G01X5592Y14671D01*
G01X5779Y14671D01*
G01X5779Y14719D01*
G01X5583Y14998D01*
G37*

%LPC*%
G36*
G01X5727Y14719D02*
G01X5592Y14913D01*
G01X5592Y14719D01*
G01X5727Y14719D01*
G37*

%LPD*%
G75*
G01X7969Y157D02*
G02X7659Y427I0J312D01*
G01*
G75*
G01X7706Y3008D02*
G03X7761Y2906I198J40D01*
G01*
G75*
G01X9687Y980D02*
G03X9694Y973I143J142D01*
G01*
G75*
G01X9694Y973D02*
G03X9329Y510I112J-463D01*
G01*
G75*
G01X9329Y510D02*
G03X9486Y157I477J0D01*
G01*
G75*
G01X10125Y157D02*
G03X10282Y510I-319J353D01*
G01*
G75*
G01X10282Y510D02*
G03X10048Y920I-476J0D01*
G01*
G75*
G01X12308Y920D02*
G03X12282Y835I125J-85D01*
G01*
G75*
G01X12282Y707D02*
G03X12180Y652I41J-197D01*
G01*
G75*
G01X11992Y768D02*
G03X11840Y919I-152J0D01*
G01*
G75*
G01X10659Y919D02*
G03X10508Y768I0J-151D01*
G01*
G75*
G01X13232Y157D02*
G03X13235Y185I-149J28D01*
G01*
G75*
G01X13235Y835D02*
G03X13083Y987I-152J0D01*
G01*
G75*
G01X14002Y1968D02*
G03X14153Y1817I151J0D01*
G01*
G75*
G01X14803Y1817D02*
G03X14844Y1822I0J151D01*
G01*
G75*
G01X14844Y469D02*
G02X14531Y157I-313J0D01*
G01*
G75*
G01X12282Y185D02*
G03X12285Y157I151J0D01*
G01*
G75*
G01X12216Y201D02*
G03X12282Y213I0J202D01*
G01*
G75*
G01X10840Y1461D02*
G03X10986Y1324I410J289D01*
G01*
G75*
G01X10723Y1324D02*
G03X10840Y1461I-473J519D01*
G01*
G75*
G01X11660Y1461D02*
G03X11776Y1324I590J382D01*
G01*
G75*
G01X11514Y1324D02*
G03X11660Y1461I-264J426D01*
G01*
G75*
G01X12723Y1324D02*
G03X12952Y1843I-473J519D01*
G01*
G75*
G01X13157Y2047D02*
G03X13860Y2750I0J703D01*
G01*
G75*
G01X13860Y2750D02*
G03X13714Y3179I-703J0D01*
G01*
G75*
G01X14081Y3159D02*
G03X14232Y3008I151J0D01*
G01*
G75*
G01X14844Y2764D02*
G03X14803Y2770I-41J-146D01*
G01*
G75*
G01X14153Y2770D02*
G03X14002Y2618I0J-152D01*
G01*
G75*
G01X14002Y2490D02*
G03X13899Y2435I40J-197D01*
G01*
G75*
G01X9167Y2069D02*
G03X9342Y2047I175J681D01*
G01*
G75*
G01X9547Y1843D02*
G03X9569Y1667I703J0D01*
G01*
G75*
G01X10952Y2157D02*
G03X10352Y2853I-702J0D01*
G01*
G75*
G01X10352Y2853D02*
G03X9860Y3423I-695J-103D01*
G01*
G75*
G01X10306Y3869D02*
G03X10298Y3750I944J-119D01*
G01*
G75*
G01X10298Y3750D02*
G03X11250Y2799I952J0D01*
G01*
G75*
G01X11250Y2799D02*
G03X12201Y3750I0J951D01*
G01*
G75*
G01X12201Y3750D02*
G03X11250Y4701I-951J0D01*
G01*
G75*
G01X11250Y4701D02*
G03X11131Y4694I0J-951D01*
G01*
G75*
G01X11686Y4924D02*
G03X12147Y4647I564J419D01*
G01*
G75*
G01X12147Y4647D02*
G03X12842Y4047I695J103D01*
G01*
G75*
G01X12846Y4047D02*
G03X12748Y3750I404J-297D01*
G01*
G75*
G01X12748Y3750D02*
G03X12846Y3453I502J0D01*
G01*
G75*
G01X12842Y3453D02*
G03X12147Y2853I0J-703D01*
G01*
G75*
G01X12147Y2853D02*
G03X11547Y2157I103J-696D01*
G01*
G75*
G01X11547Y2154D02*
G03X11250Y2251I-297J-404D01*
G01*
G75*
G01X11250Y2251D02*
G03X10952Y2154I0J-501D01*
G01*
G75*
G01X8267Y3008D02*
G03X8419Y3159I0J151D01*
G01*
G75*
G01X8419Y4341D02*
G03X8267Y4492I-152J0D01*
G01*
G75*
G01X7659Y7031D02*
G03X7656Y7066I-156J0D01*
G01*
G75*
G01X7656Y7066D02*
G03X7031Y7657I-625J-35D01*
G01*
G75*
G01X5732Y7657D02*
G03X5735Y7685I-149J28D01*
G01*
G75*
G01X5735Y8335D02*
G03X5583Y8487I-152J0D01*
G01*
G75*
G01X6502Y9468D02*
G03X6653Y9317I151J0D01*
G01*
G75*
G01X7303Y9317D02*
G03X7429Y9384I0J151D01*
G01*
G75*
G01X9381Y7432D02*
G03X9524Y7372I143J142D01*
G01*
G75*
G01X13204Y7372D02*
G03X13346Y7432I0J202D01*
G01*
G75*
G01X14620Y8706D02*
G03X14679Y8848I-142J142D01*
G01*
G75*
G01X14803Y9317D02*
G03X14844Y9322I0J151D01*
G01*
G75*
G01X14844Y5552D02*
G03X14478Y5723I-366J-306D01*
G01*
G75*
G01X14478Y5723D02*
G03X14002Y5246I0J-477D01*
G01*
G75*
G01X14002Y5246D02*
G03X14030Y5083I476J0D01*
G01*
G75*
G01X13844Y4897D02*
G03X13157Y5453I-687J-147D01*
G01*
G75*
G01X12952Y5657D02*
G03X12250Y6360I-702J0D01*
G01*
G75*
G01X12250Y6360D02*
G03X11660Y6039I0J-703D01*
G01*
G75*
G01X11660Y6039D02*
G03X11250Y6251I-410J-289D01*
G01*
G75*
G01X11250Y6251D02*
G03X10840Y6039I0J-501D01*
G01*
G75*
G01X10840Y6039D02*
G03X10250Y6360I-590J-382D01*
G01*
G75*
G01X10250Y6360D02*
G03X9547Y5657I0J-703D01*
G01*
G75*
G01X9342Y5453D02*
G03X8640Y4750I0J-703D01*
G01*
G75*
G01X8640Y4750D02*
G03X8961Y4160I702J0D01*
G01*
G75*
G01X8961Y4160D02*
G03X8748Y3750I289J-410D01*
G01*
G75*
G01X8748Y3750D02*
G03X8961Y3340I502J0D01*
G01*
G75*
G01X8961Y3340D02*
G03X8640Y2750I381J-590D01*
G01*
G75*
G01X8640Y2750D02*
G03X8662Y2575I702J0D01*
G01*
G75*
G01X13750Y3785D02*
G03X13539Y4160I-500J-35D01*
G01*
G75*
G01X13539Y4160D02*
G03X13771Y4408I-382J590D01*
G01*
G75*
G01X9737Y3870D02*
G03X9654Y4047I-487J-120D01*
G01*
G75*
G01X9657Y4047D02*
G03X10008Y4141I0J703D01*
G01*
G75*
G01X10266Y4399D02*
G03X10352Y4647I-609J351D01*
G01*
G75*
G01X10352Y4647D02*
G03X10600Y4734I-102J696D01*
G01*
G75*
G01X14232Y4492D02*
G03X14174Y4481I0J-151D01*
G01*
G75*
G01X14315Y4798D02*
G03X14478Y4770I163J448D01*
G01*
G75*
G01X14478Y4770D02*
G03X14844Y4940I0J476D01*
G01*
G75*
G01X10859Y4992D02*
G03X10952Y5343I-609J351D01*
G01*
G75*
G01X10952Y5346D02*
G03X11130Y5263I298J404D01*
G01*
G75*
G01X11518Y5326D02*
G03X11547Y5346I-268J424D01*
G01*
G75*
G01X11547Y5343D02*
G03X11547Y5326I703J0D01*
G01*
G75*
G01X1829Y8010D02*
G03X1986Y7657I477J0D01*
G01*
G75*
G01X469Y7657D02*
G02X156Y7969I0J312D01*
G01*
G75*
G01X206Y10508D02*
G03X261Y10406I198J40D01*
G01*
G75*
G01X2187Y8480D02*
G03X2194Y8473I143J142D01*
G01*
G75*
G01X2194Y8473D02*
G03X1829Y8010I112J-463D01*
G01*
G75*
G01X2625Y7657D02*
G03X2782Y8010I-319J353D01*
G01*
G75*
G01X2782Y8010D02*
G03X2548Y8420I-476J0D01*
G01*
G75*
G01X4808Y8420D02*
G03X4782Y8335I125J-85D01*
G01*
G75*
G01X4782Y8207D02*
G03X4680Y8152I41J-197D01*
G01*
G75*
G01X4492Y8268D02*
G03X4340Y8419I-152J0D01*
G01*
G75*
G01X3159Y8419D02*
G03X3008Y8268I0J-151D01*
G01*
G75*
G01X4716Y7701D02*
G03X4782Y7713I0J202D01*
G01*
G75*
G01X4782Y7685D02*
G03X4785Y7657I151J0D01*
G01*
G75*
G01X10220Y7776D02*
G03X10282Y8010I-414J234D01*
G01*
G75*
G01X10282Y8010D02*
G03X9806Y8486I-476J0D01*
G01*
G75*
G01X9806Y8486D02*
G03X9331Y8052I0J-476D01*
G01*
G75*
G01X7615Y9793D02*
G03X7455Y9990I-201J0D01*
G01*
G75*
G01X7455Y10118D02*
G03X7303Y10270I-152J0D01*
G01*
G75*
G01X6653Y10270D02*
G03X6502Y10118I0J-152D01*
G01*
G75*
G01X6502Y9990D02*
G03X6399Y9935I40J-197D01*
G01*
G75*
G01X5223Y8824D02*
G03X5452Y9343I-473J519D01*
G01*
G75*
G01X5657Y9547D02*
G03X6360Y10250I0J703D01*
G01*
G75*
G01X6360Y10250D02*
G03X6214Y10679I-703J0D01*
G01*
G75*
G01X7120Y11586D02*
G03X7179Y11728I-142J142D01*
G01*
G75*
G01X7179Y12314D02*
G03X7455Y12746I-201J432D01*
G01*
G75*
G01X7455Y12746D02*
G03X6978Y13223I-477J0D01*
G01*
G75*
G01X6978Y13223D02*
G03X6502Y12746I0J-477D01*
G01*
G75*
G01X6502Y12746D02*
G03X6776Y12314I476J0D01*
G01*
G75*
G01X6250Y11285D02*
G03X6039Y11660I-500J-35D01*
G01*
G75*
G01X6039Y11660D02*
G03X6360Y12250I-382J590D01*
G01*
G75*
G01X6360Y12250D02*
G03X5657Y12953I-703J0D01*
G01*
G75*
G01X5452Y13157D02*
G03X4750Y13860I-702J0D01*
G01*
G75*
G01X4750Y13860D02*
G03X4160Y13539I0J-703D01*
G01*
G75*
G01X4160Y13539D02*
G03X3750Y13751I-410J-289D01*
G01*
G75*
G01X3750Y13751D02*
G03X3340Y13539I0J-501D01*
G01*
G75*
G01X3340Y13539D02*
G03X2750Y13860I-590J-382D01*
G01*
G75*
G01X2750Y13860D02*
G03X2047Y13157I0J-703D01*
G01*
G75*
G01X1842Y12953D02*
G03X1140Y12250I0J-703D01*
G01*
G75*
G01X1140Y12250D02*
G03X1461Y11660I702J0D01*
G01*
G75*
G01X1461Y11660D02*
G03X1248Y11250I289J-410D01*
G01*
G75*
G01X1248Y11250D02*
G03X1461Y10840I502J0D01*
G01*
G75*
G01X1461Y10840D02*
G03X1140Y10250I381J-590D01*
G01*
G75*
G01X1140Y10250D02*
G03X1162Y10075I702J0D01*
G01*
G75*
G01X767Y10508D02*
G03X919Y10659I0J151D01*
G01*
G75*
G01X919Y11841D02*
G03X767Y11992I-152J0D01*
G01*
G75*
G01X206Y18008D02*
G03X261Y17906I198J40D01*
G01*
G75*
G01X2167Y16000D02*
G03X2198Y15974I143J142D01*
G01*
G75*
G01X2198Y15974D02*
G03X1829Y15510I108J-464D01*
G01*
G75*
G01X1829Y15510D02*
G03X1992Y15151I477J0D01*
G01*
G75*
G01X1875Y15151D02*
G03X1724Y15000I0J-151D01*
G01*
G75*
G01X1724Y14450D02*
G03X1875Y14299I151J0D01*
G01*
G75*
G01X5779Y14299D02*
G03X5931Y14450I0J151D01*
G01*
G75*
G01X5931Y15000D02*
G03X5779Y15151I-152J0D01*
G01*
G75*
G01X5731Y15151D02*
G03X5735Y15185I-148J34D01*
G01*
G75*
G01X5735Y15835D02*
G03X5583Y15987I-152J0D01*
G01*
G75*
G01X5520Y15987D02*
G03X5534Y16000I-128J155D01*
G01*
G75*
G01X6502Y16968D02*
G03X6653Y16817I151J0D01*
G01*
G75*
G01X7303Y16817D02*
G03X7344Y16822I0J151D01*
G01*
G75*
G01X7344Y15469D02*
G03X7969Y14843I625J0D01*
G01*
G75*
G01X10508Y14232D02*
G03X10659Y14081I151J0D01*
G01*
G75*
G01X11840Y14081D02*
G03X11992Y14232I0J151D01*
G01*
G75*
G01X12425Y13838D02*
G03X12250Y13860I-175J-681D01*
G01*
G75*
G01X12250Y13860D02*
G03X11660Y13539I0J-703D01*
G01*
G75*
G01X11660Y13539D02*
G03X11250Y13751I-410J-289D01*
G01*
G75*
G01X11250Y13751D02*
G03X10840Y13539I0J-501D01*
G01*
G75*
G01X10840Y13539D02*
G03X10250Y13860I-590J-382D01*
G01*
G75*
G01X10250Y13860D02*
G03X9547Y13157I0J-703D01*
G01*
G75*
G01X9342Y12953D02*
G03X8640Y12250I0J-703D01*
G01*
G75*
G01X8640Y12250D02*
G03X8961Y11660I702J0D01*
G01*
G75*
G01X8961Y11660D02*
G03X8748Y11250I289J-410D01*
G01*
G75*
G01X8748Y11250D02*
G03X8961Y10840I502J0D01*
G01*
G75*
G01X8961Y10840D02*
G03X8640Y10250I381J-590D01*
G01*
G75*
G01X8640Y10250D02*
G03X9342Y9547I702J0D01*
G01*
G75*
G01X9547Y9343D02*
G03X10250Y8640I703J0D01*
G01*
G75*
G01X10250Y8640D02*
G03X10840Y8961I0J703D01*
G01*
G75*
G01X10840Y8961D02*
G03X11250Y8749I410J289D01*
G01*
G75*
G01X11250Y8749D02*
G03X11660Y8961I0J501D01*
G01*
G75*
G01X11660Y8961D02*
G03X12250Y8640I590J382D01*
G01*
G75*
G01X12250Y8640D02*
G03X12952Y9343I0J703D01*
G01*
G75*
G01X13157Y9547D02*
G03X13625Y9726I0J703D01*
G01*
G75*
G01X12616Y8588D02*
G03X12561Y8487I143J-142D01*
G01*
G75*
G01X12433Y8487D02*
G03X12282Y8335I0J-152D01*
G01*
G75*
G01X13235Y8335D02*
G03X13084Y8487I-152J0D01*
G01*
G75*
G01X13969Y9372D02*
G03X14008Y9425I-142J142D01*
G01*
G75*
G01X14008Y9425D02*
G03X14153Y9317I145J43D01*
G01*
G75*
G01X3340Y8961D02*
G03X3486Y8824I410J289D01*
G01*
G75*
G01X3223Y8824D02*
G03X3340Y8961I-473J519D01*
G01*
G75*
G01X4014Y8824D02*
G03X4160Y8961I-264J426D01*
G01*
G75*
G01X4160Y8961D02*
G03X4276Y8824I590J382D01*
G01*
G75*
G01X1667Y9569D02*
G03X1842Y9547I175J681D01*
G01*
G75*
G01X2047Y9343D02*
G03X2069Y9167I703J0D01*
G01*
G75*
G01X3452Y9657D02*
G03X2852Y10353I-702J0D01*
G01*
G75*
G01X2852Y10353D02*
G03X2360Y10923I-695J-103D01*
G01*
G75*
G01X2806Y11369D02*
G03X2798Y11250I944J-119D01*
G01*
G75*
G01X2798Y11250D02*
G03X3750Y10299I952J0D01*
G01*
G75*
G01X3750Y10299D02*
G03X4701Y11250I0J951D01*
G01*
G75*
G01X4701Y11250D02*
G03X3750Y12201I-951J0D01*
G01*
G75*
G01X3750Y12201D02*
G03X3631Y12194I0J-951D01*
G01*
G75*
G01X4186Y12424D02*
G03X4647Y12147I564J419D01*
G01*
G75*
G01X4647Y12147D02*
G03X5342Y11547I695J103D01*
G01*
G75*
G01X5346Y11547D02*
G03X5248Y11250I404J-297D01*
G01*
G75*
G01X5248Y11250D02*
G03X5346Y10953I502J0D01*
G01*
G75*
G01X5342Y10953D02*
G03X4647Y10353I0J-703D01*
G01*
G75*
G01X4647Y10353D02*
G03X4047Y9657I103J-696D01*
G01*
G75*
G01X4047Y9654D02*
G03X3750Y9751I-297J-404D01*
G01*
G75*
G01X3750Y9751D02*
G03X3452Y9654I0J-501D01*
G01*
G75*
G01X10952Y9657D02*
G03X10352Y10353I-702J0D01*
G01*
G75*
G01X10352Y10353D02*
G03X9860Y10923I-695J-103D01*
G01*
G75*
G01X10306Y11369D02*
G03X10298Y11250I944J-119D01*
G01*
G75*
G01X10298Y11250D02*
G03X11250Y10299I952J0D01*
G01*
G75*
G01X11250Y10299D02*
G03X12201Y11250I0J951D01*
G01*
G75*
G01X12201Y11250D02*
G03X11250Y12201I-951J0D01*
G01*
G75*
G01X11250Y12201D02*
G03X11131Y12194I0J-951D01*
G01*
G75*
G01X11686Y12424D02*
G03X12147Y12147I564J419D01*
G01*
G75*
G01X12147Y12147D02*
G03X12842Y11547I695J103D01*
G01*
G75*
G01X12846Y11547D02*
G03X12748Y11250I404J-297D01*
G01*
G75*
G01X12748Y11250D02*
G03X12846Y10953I502J0D01*
G01*
G75*
G01X12842Y10953D02*
G03X12147Y10353I0J-703D01*
G01*
G75*
G01X12147Y10353D02*
G03X11547Y9657I103J-696D01*
G01*
G75*
G01X11547Y9654D02*
G03X11250Y9751I-297J-404D01*
G01*
G75*
G01X11250Y9751D02*
G03X10952Y9654I0J-501D01*
G01*
G75*
G01X14153Y10270D02*
G03X14028Y10204I0J-152D01*
G01*
G75*
G01X14028Y12589D02*
G03X14478Y12270I450J157D01*
G01*
G75*
G01X14478Y12270D02*
G03X14844Y12440I0J476D01*
G01*
G75*
G01X14232Y11992D02*
G03X14081Y11841I0J-151D01*
G01*
G75*
G01X14081Y10659D02*
G03X14232Y10508I151J0D01*
G01*
G75*
G01X14844Y10264D02*
G03X14803Y10270I-41J-146D01*
G01*
G75*
G01X13625Y10774D02*
G03X13539Y10840I-468J-524D01*
G01*
G75*
G01X13539Y10840D02*
G03X13625Y10918I-289J410D01*
G01*
G75*
G01X2237Y11370D02*
G03X2154Y11547I-487J-120D01*
G01*
G75*
G01X2157Y11547D02*
G03X2508Y11641I0J703D01*
G01*
G75*
G01X9737Y11370D02*
G03X9654Y11547I-487J-120D01*
G01*
G75*
G01X9657Y11547D02*
G03X10008Y11641I0J703D01*
G01*
G75*
G01X13625Y11582D02*
G03X13539Y11660I-375J-332D01*
G01*
G75*
G01X13539Y11660D02*
G03X13625Y11726I-382J590D01*
G01*
G75*
G01X2766Y11899D02*
G03X2852Y12147I-609J351D01*
G01*
G75*
G01X2852Y12147D02*
G03X3100Y12234I-102J696D01*
G01*
G75*
G01X10266Y11899D02*
G03X10352Y12147I-609J351D01*
G01*
G75*
G01X10352Y12147D02*
G03X10600Y12234I-102J696D01*
G01*
G75*
G01X3359Y12492D02*
G03X3452Y12843I-609J351D01*
G01*
G75*
G01X3452Y12846D02*
G03X3630Y12763I298J404D01*
G01*
G75*
G01X10859Y12492D02*
G03X10952Y12843I-609J351D01*
G01*
G75*
G01X10952Y12846D02*
G03X11130Y12763I298J404D01*
G01*
G75*
G01X14478Y13223D02*
G03X14006Y12812I0J-477D01*
G01*
G75*
G01X14006Y12812D02*
G03X13969Y12863I-179J-91D01*
G01*
G75*
G01X12094Y14738D02*
G03X11992Y14793I-142J-142D01*
G01*
G75*
G01X14531Y14843D02*
G02X14844Y14531I0J-312D01*
G01*
G75*
G01X14844Y13052D02*
G03X14478Y13223I-366J-306D01*
G01*
G75*
G01X4047Y12843D02*
G03X4047Y12826I703J0D01*
G01*
G75*
G01X4018Y12826D02*
G03X4047Y12846I-268J424D01*
G01*
G75*
G01X11518Y12826D02*
G03X11547Y12846I-268J424D01*
G01*
G75*
G01X11547Y12843D02*
G03X11547Y12826I703J0D01*
G01*
G75*
G01X13332Y12931D02*
G03X13157Y12953I-175J-681D01*
G01*
G75*
G01X12952Y13157D02*
G03X12930Y13333I-702J0D01*
G01*
G75*
G01X2620Y15151D02*
G03X2782Y15510I-314J359D01*
G01*
G75*
G01X2782Y15510D02*
G03X2510Y15941I-476J0D01*
G01*
G75*
G01X4825Y15941D02*
G03X4782Y15835I108J-106D01*
G01*
G75*
G01X4782Y15185D02*
G03X4786Y15151I151J0D01*
G01*
G75*
G01X3340Y16461D02*
G03X3456Y16343I410J289D01*
G01*
G75*
G01X3244Y16343D02*
G03X3340Y16461I-494J500D01*
G01*
G75*
G01X4043Y16343D02*
G03X4160Y16461I-293J407D01*
G01*
G75*
G01X4160Y16461D02*
G03X4255Y16343I590J382D01*
G01*
G75*
G01X5244Y16343D02*
G03X5452Y16843I-494J500D01*
G01*
G75*
G01X5657Y17047D02*
G03X6360Y17750I0J703D01*
G01*
G75*
G01X6360Y17750D02*
G03X6214Y18179I-703J0D01*
G01*
G75*
G01X6581Y18159D02*
G03X6732Y18008I151J0D01*
G01*
G75*
G01X7344Y17764D02*
G03X7303Y17770I-41J-146D01*
G01*
G75*
G01X6653Y17770D02*
G03X6502Y17618I0J-152D01*
G01*
G75*
G01X6502Y17490D02*
G03X6399Y17435I40J-197D01*
G01*
G75*
G01X1667Y17069D02*
G03X1842Y17047I175J681D01*
G01*
G75*
G01X2047Y16843D02*
G03X2069Y16667I703J0D01*
G01*
G75*
G01X3452Y17157D02*
G03X2852Y17853I-702J0D01*
G01*
G75*
G01X2852Y17853D02*
G03X2360Y18423I-695J-103D01*
G01*
G75*
G01X2806Y18869D02*
G03X2798Y18750I944J-119D01*
G01*
G75*
G01X2798Y18750D02*
G03X3750Y17799I952J0D01*
G01*
G75*
G01X3750Y17799D02*
G03X4701Y18750I0J951D01*
G01*
G75*
G01X4701Y18750D02*
G03X3750Y19701I-951J0D01*
G01*
G75*
G01X3750Y19701D02*
G03X3631Y19694I0J-951D01*
G01*
G75*
G01X4186Y19924D02*
G03X4647Y19647I564J419D01*
G01*
G75*
G01X4647Y19647D02*
G03X5342Y19047I695J103D01*
G01*
G75*
G01X5346Y19047D02*
G03X5248Y18750I404J-297D01*
G01*
G75*
G01X5248Y18750D02*
G03X5346Y18453I502J0D01*
G01*
G75*
G01X5342Y18453D02*
G03X4647Y17853I0J-703D01*
G01*
G75*
G01X4647Y17853D02*
G03X4047Y17157I103J-696D01*
G01*
G75*
G01X4047Y17154D02*
G03X3750Y17251I-297J-404D01*
G01*
G75*
G01X3750Y17251D02*
G03X3452Y17154I0J-501D01*
G01*
G75*
G01X767Y18008D02*
G03X919Y18159I0J151D01*
G01*
G75*
G01X919Y19341D02*
G03X767Y19492I-152J0D01*
G01*
G75*
G01X156Y22031D02*
G02X469Y22343I313J0D01*
G01*
G75*
G01X3008Y21732D02*
G03X3159Y21581I151J0D01*
G01*
G75*
G01X4340Y21581D02*
G03X4492Y21732I0J151D01*
G01*
G75*
G01X7031Y22343D02*
G02X7344Y22031I0J-312D01*
G01*
G75*
G01X7344Y20552D02*
G03X6978Y20723I-366J-306D01*
G01*
G75*
G01X6978Y20723D02*
G03X6502Y20254I0J-477D01*
G01*
G75*
G01X5247Y21508D02*
G03X5105Y21568I-142J-142D01*
G01*
G75*
G01X3616Y21568D02*
G03X3473Y21508I0J-202D01*
G01*
G75*
G01X3179Y21214D02*
G03X2750Y21360I-429J-557D01*
G01*
G75*
G01X2750Y21360D02*
G03X2047Y20657I0J-703D01*
G01*
G75*
G01X1842Y20453D02*
G03X1140Y19750I0J-703D01*
G01*
G75*
G01X1140Y19750D02*
G03X1461Y19160I702J0D01*
G01*
G75*
G01X1461Y19160D02*
G03X1248Y18750I289J-410D01*
G01*
G75*
G01X1248Y18750D02*
G03X1461Y18340I502J0D01*
G01*
G75*
G01X1461Y18340D02*
G03X1140Y17750I381J-590D01*
G01*
G75*
G01X1140Y17750D02*
G03X1162Y17575I702J0D01*
G01*
G75*
G01X6250Y18785D02*
G03X6039Y19160I-500J-35D01*
G01*
G75*
G01X6039Y19160D02*
G03X6271Y19408I-382J590D01*
G01*
G75*
G01X2237Y18870D02*
G03X2154Y19047I-487J-120D01*
G01*
G75*
G01X2157Y19047D02*
G03X2508Y19141I0J703D01*
G01*
G75*
G01X2766Y19399D02*
G03X2852Y19647I-609J351D01*
G01*
G75*
G01X2852Y19647D02*
G03X3100Y19734I-102J696D01*
G01*
G75*
G01X6732Y19492D02*
G03X6674Y19481I0J-151D01*
G01*
G01*
X6744Y19726D02*
X6744Y19726D01*
G75*
G01X6816Y19798D02*
G03X6978Y19770I162J448D01*
G01*
G75*
G01X6978Y19770D02*
G03X7344Y19940I0J476D01*
G01*
G75*
G01X3359Y19992D02*
G03X3452Y20343I-609J351D01*
G01*
G75*
G01X3452Y20346D02*
G03X3630Y20263I298J404D01*
G01*
G75*
G01X4047Y20343D02*
G03X4047Y20326I703J0D01*
G01*
G75*
G01X4018Y20326D02*
G03X4047Y20346I-268J424D01*
G01*
G75*
G01X5738Y20448D02*
G03X5657Y20453I-81J-698D01*
G01*
G75*
G01X5452Y20657D02*
G03X5448Y20738I-702J0D01*
G01*
G75*
G01X4263Y21165D02*
G03X4160Y21039I487J-508D01*
G01*
G75*
G01X4160Y21039D02*
G03X4032Y21165I-410J-289D01*
G01*
G75*
G01X7969Y157D02*
G02X7659Y427I0J312D01*
G01*
G75*
G01X7706Y3008D02*
G03X7761Y2906I198J40D01*
G01*
G75*
G01X9687Y980D02*
G03X9694Y973I143J142D01*
G01*
G75*
G01X9694Y973D02*
G03X9329Y510I112J-463D01*
G01*
G75*
G01X9329Y510D02*
G03X9486Y157I477J0D01*
G01*
G75*
G01X10125Y157D02*
G03X10282Y510I-319J353D01*
G01*
G75*
G01X10282Y510D02*
G03X10048Y920I-476J0D01*
G01*
G75*
G01X12308Y920D02*
G03X12282Y835I125J-85D01*
G01*
G75*
G01X12282Y707D02*
G03X12180Y652I41J-197D01*
G01*
G75*
G01X11992Y768D02*
G03X11840Y919I-152J0D01*
G01*
G75*
G01X10659Y919D02*
G03X10508Y768I0J-151D01*
G01*
G75*
G01X13232Y157D02*
G03X13235Y185I-149J28D01*
G01*
G75*
G01X13235Y835D02*
G03X13083Y987I-152J0D01*
G01*
G75*
G01X14002Y1968D02*
G03X14153Y1817I151J0D01*
G01*
G75*
G01X14803Y1817D02*
G03X14844Y1822I0J151D01*
G01*
G75*
G01X14844Y469D02*
G02X14531Y157I-313J0D01*
G01*
G75*
G01X12282Y185D02*
G03X12285Y157I151J0D01*
G01*
G75*
G01X12216Y201D02*
G03X12282Y213I0J202D01*
G01*
G75*
G01X10840Y1461D02*
G03X10986Y1324I410J289D01*
G01*
G75*
G01X10723Y1324D02*
G03X10840Y1461I-473J519D01*
G01*
G75*
G01X11660Y1461D02*
G03X11776Y1324I590J382D01*
G01*
G75*
G01X11514Y1324D02*
G03X11660Y1461I-264J426D01*
G01*
G75*
G01X12723Y1324D02*
G03X12952Y1843I-473J519D01*
G01*
G75*
G01X13157Y2047D02*
G03X13860Y2750I0J703D01*
G01*
G75*
G01X13860Y2750D02*
G03X13714Y3179I-703J0D01*
G01*
G75*
G01X14081Y3159D02*
G03X14232Y3008I151J0D01*
G01*
G75*
G01X14844Y2764D02*
G03X14803Y2770I-41J-146D01*
G01*
G75*
G01X14153Y2770D02*
G03X14002Y2618I0J-152D01*
G01*
G75*
G01X14002Y2490D02*
G03X13899Y2435I40J-197D01*
G01*
G75*
G01X9167Y2069D02*
G03X9342Y2047I175J681D01*
G01*
G75*
G01X9547Y1843D02*
G03X9569Y1667I703J0D01*
G01*
G75*
G01X10952Y2157D02*
G03X10352Y2853I-702J0D01*
G01*
G75*
G01X10352Y2853D02*
G03X9860Y3423I-695J-103D01*
G01*
G75*
G01X10306Y3869D02*
G03X10298Y3750I944J-119D01*
G01*
G75*
G01X10298Y3750D02*
G03X11250Y2799I952J0D01*
G01*
G75*
G01X11250Y2799D02*
G03X12201Y3750I0J951D01*
G01*
G75*
G01X12201Y3750D02*
G03X11250Y4701I-951J0D01*
G01*
G75*
G01X11250Y4701D02*
G03X11131Y4694I0J-951D01*
G01*
G75*
G01X11686Y4924D02*
G03X12147Y4647I564J419D01*
G01*
G75*
G01X12147Y4647D02*
G03X12842Y4047I695J103D01*
G01*
G75*
G01X12846Y4047D02*
G03X12748Y3750I404J-297D01*
G01*
G75*
G01X12748Y3750D02*
G03X12846Y3453I502J0D01*
G01*
G75*
G01X12842Y3453D02*
G03X12147Y2853I0J-703D01*
G01*
G75*
G01X12147Y2853D02*
G03X11547Y2157I103J-696D01*
G01*
G75*
G01X11547Y2154D02*
G03X11250Y2251I-297J-404D01*
G01*
G75*
G01X11250Y2251D02*
G03X10952Y2154I0J-501D01*
G01*
G75*
G01X8267Y3008D02*
G03X8419Y3159I0J151D01*
G01*
G75*
G01X8419Y4341D02*
G03X8267Y4492I-152J0D01*
G01*
G75*
G01X7659Y7031D02*
G03X7656Y7066I-156J0D01*
G01*
G75*
G01X7656Y7066D02*
G03X7031Y7657I-625J-35D01*
G01*
G75*
G01X5732Y7657D02*
G03X5735Y7685I-149J28D01*
G01*
G75*
G01X5735Y8335D02*
G03X5583Y8487I-152J0D01*
G01*
G75*
G01X6502Y9468D02*
G03X6653Y9317I151J0D01*
G01*
G75*
G01X7303Y9317D02*
G03X7429Y9384I0J151D01*
G01*
G75*
G01X9381Y7432D02*
G03X9524Y7372I143J142D01*
G01*
G75*
G01X13204Y7372D02*
G03X13346Y7432I0J202D01*
G01*
G75*
G01X14620Y8706D02*
G03X14679Y8848I-142J142D01*
G01*
G75*
G01X14803Y9317D02*
G03X14844Y9322I0J151D01*
G01*
G75*
G01X14844Y5552D02*
G03X14478Y5723I-366J-306D01*
G01*
G75*
G01X14478Y5723D02*
G03X14002Y5246I0J-477D01*
G01*
G75*
G01X14002Y5246D02*
G03X14030Y5083I476J0D01*
G01*
G75*
G01X13844Y4897D02*
G03X13157Y5453I-687J-147D01*
G01*
G75*
G01X12952Y5657D02*
G03X12250Y6360I-702J0D01*
G01*
G75*
G01X12250Y6360D02*
G03X11660Y6039I0J-703D01*
G01*
G75*
G01X11660Y6039D02*
G03X11250Y6251I-410J-289D01*
G01*
G75*
G01X11250Y6251D02*
G03X10840Y6039I0J-501D01*
G01*
G75*
G01X10840Y6039D02*
G03X10250Y6360I-590J-382D01*
G01*
G75*
G01X10250Y6360D02*
G03X9547Y5657I0J-703D01*
G01*
G75*
G01X9342Y5453D02*
G03X8640Y4750I0J-703D01*
G01*
G75*
G01X8640Y4750D02*
G03X8961Y4160I702J0D01*
G01*
G75*
G01X8961Y4160D02*
G03X8748Y3750I289J-410D01*
G01*
G75*
G01X8748Y3750D02*
G03X8961Y3340I502J0D01*
G01*
G75*
G01X8961Y3340D02*
G03X8640Y2750I381J-590D01*
G01*
G75*
G01X8640Y2750D02*
G03X8662Y2575I702J0D01*
G01*
G75*
G01X13750Y3785D02*
G03X13539Y4160I-500J-35D01*
G01*
G75*
G01X13539Y4160D02*
G03X13771Y4408I-382J590D01*
G01*
G75*
G01X9737Y3870D02*
G03X9654Y4047I-487J-120D01*
G01*
G75*
G01X9657Y4047D02*
G03X10008Y4141I0J703D01*
G01*
G75*
G01X10266Y4399D02*
G03X10352Y4647I-609J351D01*
G01*
G75*
G01X10352Y4647D02*
G03X10600Y4734I-102J696D01*
G01*
G75*
G01X14232Y4492D02*
G03X14174Y4481I0J-151D01*
G01*
G75*
G01X14315Y4798D02*
G03X14478Y4770I163J448D01*
G01*
G75*
G01X14478Y4770D02*
G03X14844Y4940I0J476D01*
G01*
G75*
G01X10859Y4992D02*
G03X10952Y5343I-609J351D01*
G01*
G75*
G01X10952Y5346D02*
G03X11130Y5263I298J404D01*
G01*
G75*
G01X11518Y5326D02*
G03X11547Y5346I-268J424D01*
G01*
G75*
G01X11547Y5343D02*
G03X11547Y5326I703J0D01*
G01*
G75*
G01X1829Y8010D02*
G03X1986Y7657I477J0D01*
G01*
G75*
G01X469Y7657D02*
G02X156Y7969I0J312D01*
G01*
G75*
G01X206Y10508D02*
G03X261Y10406I198J40D01*
G01*
G75*
G01X2187Y8480D02*
G03X2194Y8473I143J142D01*
G01*
G75*
G01X2194Y8473D02*
G03X1829Y8010I112J-463D01*
G01*
G75*
G01X2625Y7657D02*
G03X2782Y8010I-319J353D01*
G01*
G75*
G01X2782Y8010D02*
G03X2548Y8420I-476J0D01*
G01*
G75*
G01X4808Y8420D02*
G03X4782Y8335I125J-85D01*
G01*
G75*
G01X4782Y8207D02*
G03X4680Y8152I41J-197D01*
G01*
G75*
G01X4492Y8268D02*
G03X4340Y8419I-152J0D01*
G01*
G75*
G01X3159Y8419D02*
G03X3008Y8268I0J-151D01*
G01*
G75*
G01X4716Y7701D02*
G03X4782Y7713I0J202D01*
G01*
G75*
G01X4782Y7685D02*
G03X4785Y7657I151J0D01*
G01*
G75*
G01X10220Y7776D02*
G03X10282Y8010I-414J234D01*
G01*
G75*
G01X10282Y8010D02*
G03X9806Y8486I-476J0D01*
G01*
G75*
G01X9806Y8486D02*
G03X9331Y8052I0J-476D01*
G01*
G75*
G01X7615Y9793D02*
G03X7455Y9990I-201J0D01*
G01*
G75*
G01X7455Y10118D02*
G03X7303Y10270I-152J0D01*
G01*
G75*
G01X6653Y10270D02*
G03X6502Y10118I0J-152D01*
G01*
G75*
G01X6502Y9990D02*
G03X6399Y9935I40J-197D01*
G01*
G75*
G01X5223Y8824D02*
G03X5452Y9343I-473J519D01*
G01*
G75*
G01X5657Y9547D02*
G03X6360Y10250I0J703D01*
G01*
G75*
G01X6360Y10250D02*
G03X6214Y10679I-703J0D01*
G01*
G75*
G01X7120Y11586D02*
G03X7179Y11728I-142J142D01*
G01*
G75*
G01X7179Y12314D02*
G03X7455Y12746I-201J432D01*
G01*
G75*
G01X7455Y12746D02*
G03X6978Y13223I-477J0D01*
G01*
G75*
G01X6978Y13223D02*
G03X6502Y12746I0J-477D01*
G01*
G75*
G01X6502Y12746D02*
G03X6776Y12314I476J0D01*
G01*
G75*
G01X6250Y11285D02*
G03X6039Y11660I-500J-35D01*
G01*
G75*
G01X6039Y11660D02*
G03X6360Y12250I-382J590D01*
G01*
G75*
G01X6360Y12250D02*
G03X5657Y12953I-703J0D01*
G01*
G75*
G01X5452Y13157D02*
G03X4750Y13860I-702J0D01*
G01*
G75*
G01X4750Y13860D02*
G03X4160Y13539I0J-703D01*
G01*
G75*
G01X4160Y13539D02*
G03X3750Y13751I-410J-289D01*
G01*
G75*
G01X3750Y13751D02*
G03X3340Y13539I0J-501D01*
G01*
G75*
G01X3340Y13539D02*
G03X2750Y13860I-590J-382D01*
G01*
G75*
G01X2750Y13860D02*
G03X2047Y13157I0J-703D01*
G01*
G75*
G01X1842Y12953D02*
G03X1140Y12250I0J-703D01*
G01*
G75*
G01X1140Y12250D02*
G03X1461Y11660I702J0D01*
G01*
G75*
G01X1461Y11660D02*
G03X1248Y11250I289J-410D01*
G01*
G75*
G01X1248Y11250D02*
G03X1461Y10840I502J0D01*
G01*
G75*
G01X1461Y10840D02*
G03X1140Y10250I381J-590D01*
G01*
G75*
G01X1140Y10250D02*
G03X1162Y10075I702J0D01*
G01*
G75*
G01X767Y10508D02*
G03X919Y10659I0J151D01*
G01*
G75*
G01X919Y11841D02*
G03X767Y11992I-152J0D01*
G01*
G75*
G01X206Y18008D02*
G03X261Y17906I198J40D01*
G01*
G75*
G01X2167Y16000D02*
G03X2198Y15974I143J142D01*
G01*
G75*
G01X2198Y15974D02*
G03X1829Y15510I108J-464D01*
G01*
G75*
G01X1829Y15510D02*
G03X1992Y15151I477J0D01*
G01*
G75*
G01X1875Y15151D02*
G03X1724Y15000I0J-151D01*
G01*
G75*
G01X1724Y14450D02*
G03X1875Y14299I151J0D01*
G01*
G75*
G01X5779Y14299D02*
G03X5931Y14450I0J151D01*
G01*
G75*
G01X5931Y15000D02*
G03X5779Y15151I-152J0D01*
G01*
G75*
G01X5731Y15151D02*
G03X5735Y15185I-148J34D01*
G01*
G75*
G01X5735Y15835D02*
G03X5583Y15987I-152J0D01*
G01*
G75*
G01X5520Y15987D02*
G03X5534Y16000I-128J155D01*
G01*
G75*
G01X6502Y16968D02*
G03X6653Y16817I151J0D01*
G01*
G75*
G01X7303Y16817D02*
G03X7344Y16822I0J151D01*
G01*
G75*
G01X7344Y15469D02*
G03X7969Y14843I625J0D01*
G01*
G75*
G01X10508Y14232D02*
G03X10659Y14081I151J0D01*
G01*
G75*
G01X11840Y14081D02*
G03X11992Y14232I0J151D01*
G01*
G75*
G01X12425Y13838D02*
G03X12250Y13860I-175J-681D01*
G01*
G75*
G01X12250Y13860D02*
G03X11660Y13539I0J-703D01*
G01*
G75*
G01X11660Y13539D02*
G03X11250Y13751I-410J-289D01*
G01*
G75*
G01X11250Y13751D02*
G03X10840Y13539I0J-501D01*
G01*
G75*
G01X10840Y13539D02*
G03X10250Y13860I-590J-382D01*
G01*
G75*
G01X10250Y13860D02*
G03X9547Y13157I0J-703D01*
G01*
G75*
G01X9342Y12953D02*
G03X8640Y12250I0J-703D01*
G01*
G75*
G01X8640Y12250D02*
G03X8961Y11660I702J0D01*
G01*
G75*
G01X8961Y11660D02*
G03X8748Y11250I289J-410D01*
G01*
G75*
G01X8748Y11250D02*
G03X8961Y10840I502J0D01*
G01*
G75*
G01X8961Y10840D02*
G03X8640Y10250I381J-590D01*
G01*
G75*
G01X8640Y10250D02*
G03X9342Y9547I702J0D01*
G01*
G75*
G01X9547Y9343D02*
G03X10250Y8640I703J0D01*
G01*
G75*
G01X10250Y8640D02*
G03X10840Y8961I0J703D01*
G01*
G75*
G01X10840Y8961D02*
G03X11250Y8749I410J289D01*
G01*
G75*
G01X11250Y8749D02*
G03X11660Y8961I0J501D01*
G01*
G75*
G01X11660Y8961D02*
G03X12250Y8640I590J382D01*
G01*
G75*
G01X12250Y8640D02*
G03X12952Y9343I0J703D01*
G01*
G75*
G01X13157Y9547D02*
G03X13625Y9726I0J703D01*
G01*
G75*
G01X12616Y8588D02*
G03X12561Y8487I143J-142D01*
G01*
G75*
G01X12433Y8487D02*
G03X12282Y8335I0J-152D01*
G01*
G75*
G01X13235Y8335D02*
G03X13084Y8487I-152J0D01*
G01*
G75*
G01X13969Y9372D02*
G03X14008Y9425I-142J142D01*
G01*
G75*
G01X14008Y9425D02*
G03X14153Y9317I145J43D01*
G01*
G75*
G01X3340Y8961D02*
G03X3486Y8824I410J289D01*
G01*
G75*
G01X3223Y8824D02*
G03X3340Y8961I-473J519D01*
G01*
G75*
G01X4014Y8824D02*
G03X4160Y8961I-264J426D01*
G01*
G75*
G01X4160Y8961D02*
G03X4276Y8824I590J382D01*
G01*
G75*
G01X1667Y9569D02*
G03X1842Y9547I175J681D01*
G01*
G75*
G01X2047Y9343D02*
G03X2069Y9167I703J0D01*
G01*
G75*
G01X3452Y9657D02*
G03X2852Y10353I-702J0D01*
G01*
G75*
G01X2852Y10353D02*
G03X2360Y10923I-695J-103D01*
G01*
G75*
G01X2806Y11369D02*
G03X2798Y11250I944J-119D01*
G01*
G75*
G01X2798Y11250D02*
G03X3750Y10299I952J0D01*
G01*
G75*
G01X3750Y10299D02*
G03X4701Y11250I0J951D01*
G01*
G75*
G01X4701Y11250D02*
G03X3750Y12201I-951J0D01*
G01*
G75*
G01X3750Y12201D02*
G03X3631Y12194I0J-951D01*
G01*
G75*
G01X4186Y12424D02*
G03X4647Y12147I564J419D01*
G01*
G75*
G01X4647Y12147D02*
G03X5342Y11547I695J103D01*
G01*
G75*
G01X5346Y11547D02*
G03X5248Y11250I404J-297D01*
G01*
G75*
G01X5248Y11250D02*
G03X5346Y10953I502J0D01*
G01*
G75*
G01X5342Y10953D02*
G03X4647Y10353I0J-703D01*
G01*
G75*
G01X4647Y10353D02*
G03X4047Y9657I103J-696D01*
G01*
G75*
G01X4047Y9654D02*
G03X3750Y9751I-297J-404D01*
G01*
G75*
G01X3750Y9751D02*
G03X3452Y9654I0J-501D01*
G01*
G75*
G01X10952Y9657D02*
G03X10352Y10353I-702J0D01*
G01*
G75*
G01X10352Y10353D02*
G03X9860Y10923I-695J-103D01*
G01*
G75*
G01X10306Y11369D02*
G03X10298Y11250I944J-119D01*
G01*
G75*
G01X10298Y11250D02*
G03X11250Y10299I952J0D01*
G01*
G75*
G01X11250Y10299D02*
G03X12201Y11250I0J951D01*
G01*
G75*
G01X12201Y11250D02*
G03X11250Y12201I-951J0D01*
G01*
G75*
G01X11250Y12201D02*
G03X11131Y12194I0J-951D01*
G01*
G75*
G01X11686Y12424D02*
G03X12147Y12147I564J419D01*
G01*
G75*
G01X12147Y12147D02*
G03X12842Y11547I695J103D01*
G01*
G75*
G01X12846Y11547D02*
G03X12748Y11250I404J-297D01*
G01*
G75*
G01X12748Y11250D02*
G03X12846Y10953I502J0D01*
G01*
G75*
G01X12842Y10953D02*
G03X12147Y10353I0J-703D01*
G01*
G75*
G01X12147Y10353D02*
G03X11547Y9657I103J-696D01*
G01*
G75*
G01X11547Y9654D02*
G03X11250Y9751I-297J-404D01*
G01*
G75*
G01X11250Y9751D02*
G03X10952Y9654I0J-501D01*
G01*
G75*
G01X14153Y10270D02*
G03X14028Y10204I0J-152D01*
G01*
G75*
G01X14028Y12589D02*
G03X14478Y12270I450J157D01*
G01*
G75*
G01X14478Y12270D02*
G03X14844Y12440I0J476D01*
G01*
G75*
G01X14232Y11992D02*
G03X14081Y11841I0J-151D01*
G01*
G75*
G01X14081Y10659D02*
G03X14232Y10508I151J0D01*
G01*
G75*
G01X14844Y10264D02*
G03X14803Y10270I-41J-146D01*
G01*
G75*
G01X13625Y10774D02*
G03X13539Y10840I-468J-524D01*
G01*
G75*
G01X13539Y10840D02*
G03X13625Y10918I-289J410D01*
G01*
G75*
G01X2237Y11370D02*
G03X2154Y11547I-487J-120D01*
G01*
G75*
G01X2157Y11547D02*
G03X2508Y11641I0J703D01*
G01*
G75*
G01X9737Y11370D02*
G03X9654Y11547I-487J-120D01*
G01*
G75*
G01X9657Y11547D02*
G03X10008Y11641I0J703D01*
G01*
G75*
G01X13625Y11582D02*
G03X13539Y11660I-375J-332D01*
G01*
G75*
G01X13539Y11660D02*
G03X13625Y11726I-382J590D01*
G01*
G75*
G01X2766Y11899D02*
G03X2852Y12147I-609J351D01*
G01*
G75*
G01X2852Y12147D02*
G03X3100Y12234I-102J696D01*
G01*
G75*
G01X10266Y11899D02*
G03X10352Y12147I-609J351D01*
G01*
G75*
G01X10352Y12147D02*
G03X10600Y12234I-102J696D01*
G01*
G75*
G01X3359Y12492D02*
G03X3452Y12843I-609J351D01*
G01*
G75*
G01X3452Y12846D02*
G03X3630Y12763I298J404D01*
G01*
G75*
G01X10859Y12492D02*
G03X10952Y12843I-609J351D01*
G01*
G75*
G01X10952Y12846D02*
G03X11130Y12763I298J404D01*
G01*
G75*
G01X14478Y13223D02*
G03X14006Y12812I0J-477D01*
G01*
G75*
G01X14006Y12812D02*
G03X13969Y12863I-179J-91D01*
G01*
G75*
G01X12094Y14738D02*
G03X11992Y14793I-142J-142D01*
G01*
G75*
G01X14531Y14843D02*
G02X14844Y14531I0J-312D01*
G01*
G75*
G01X14844Y13052D02*
G03X14478Y13223I-366J-306D01*
G01*
G75*
G01X4047Y12843D02*
G03X4047Y12826I703J0D01*
G01*
G75*
G01X4018Y12826D02*
G03X4047Y12846I-268J424D01*
G01*
G75*
G01X11518Y12826D02*
G03X11547Y12846I-268J424D01*
G01*
G75*
G01X11547Y12843D02*
G03X11547Y12826I703J0D01*
G01*
G75*
G01X13332Y12931D02*
G03X13157Y12953I-175J-681D01*
G01*
G75*
G01X12952Y13157D02*
G03X12930Y13333I-702J0D01*
G01*
G75*
G01X2620Y15151D02*
G03X2782Y15510I-314J359D01*
G01*
G75*
G01X2782Y15510D02*
G03X2510Y15941I-476J0D01*
G01*
G75*
G01X4825Y15941D02*
G03X4782Y15835I108J-106D01*
G01*
G75*
G01X4782Y15185D02*
G03X4786Y15151I151J0D01*
G01*
G75*
G01X3340Y16461D02*
G03X3456Y16343I410J289D01*
G01*
G75*
G01X3244Y16343D02*
G03X3340Y16461I-494J500D01*
G01*
G75*
G01X4043Y16343D02*
G03X4160Y16461I-293J407D01*
G01*
G75*
G01X4160Y16461D02*
G03X4255Y16343I590J382D01*
G01*
G75*
G01X5244Y16343D02*
G03X5452Y16843I-494J500D01*
G01*
G75*
G01X5657Y17047D02*
G03X6360Y17750I0J703D01*
G01*
G75*
G01X6360Y17750D02*
G03X6214Y18179I-703J0D01*
G01*
G75*
G01X6581Y18159D02*
G03X6732Y18008I151J0D01*
G01*
G75*
G01X7344Y17764D02*
G03X7303Y17770I-41J-146D01*
G01*
G75*
G01X6653Y17770D02*
G03X6502Y17618I0J-152D01*
G01*
G75*
G01X6502Y17490D02*
G03X6399Y17435I40J-197D01*
G01*
G75*
G01X1667Y17069D02*
G03X1842Y17047I175J681D01*
G01*
G75*
G01X2047Y16843D02*
G03X2069Y16667I703J0D01*
G01*
G75*
G01X3452Y17157D02*
G03X2852Y17853I-702J0D01*
G01*
G75*
G01X2852Y17853D02*
G03X2360Y18423I-695J-103D01*
G01*
G75*
G01X2806Y18869D02*
G03X2798Y18750I944J-119D01*
G01*
G75*
G01X2798Y18750D02*
G03X3750Y17799I952J0D01*
G01*
G75*
G01X3750Y17799D02*
G03X4701Y18750I0J951D01*
G01*
G75*
G01X4701Y18750D02*
G03X3750Y19701I-951J0D01*
G01*
G75*
G01X3750Y19701D02*
G03X3631Y19694I0J-951D01*
G01*
G75*
G01X4186Y19924D02*
G03X4647Y19647I564J419D01*
G01*
G75*
G01X4647Y19647D02*
G03X5342Y19047I695J103D01*
G01*
G75*
G01X5346Y19047D02*
G03X5248Y18750I404J-297D01*
G01*
G75*
G01X5248Y18750D02*
G03X5346Y18453I502J0D01*
G01*
G75*
G01X5342Y18453D02*
G03X4647Y17853I0J-703D01*
G01*
G75*
G01X4647Y17853D02*
G03X4047Y17157I103J-696D01*
G01*
G75*
G01X4047Y17154D02*
G03X3750Y17251I-297J-404D01*
G01*
G75*
G01X3750Y17251D02*
G03X3452Y17154I0J-501D01*
G01*
G75*
G01X767Y18008D02*
G03X919Y18159I0J151D01*
G01*
G75*
G01X919Y19341D02*
G03X767Y19492I-152J0D01*
G01*
G75*
G01X156Y22031D02*
G02X469Y22343I313J0D01*
G01*
G75*
G01X3008Y21732D02*
G03X3159Y21581I151J0D01*
G01*
G75*
G01X4340Y21581D02*
G03X4492Y21732I0J151D01*
G01*
G75*
G01X7031Y22343D02*
G02X7344Y22031I0J-312D01*
G01*
G75*
G01X7344Y20552D02*
G03X6978Y20723I-366J-306D01*
G01*
G75*
G01X6978Y20723D02*
G03X6502Y20254I0J-477D01*
G01*
G75*
G01X5247Y21508D02*
G03X5105Y21568I-142J-142D01*
G01*
G75*
G01X3616Y21568D02*
G03X3473Y21508I0J-202D01*
G01*
G75*
G01X3179Y21214D02*
G03X2750Y21360I-429J-557D01*
G01*
G75*
G01X2750Y21360D02*
G03X2047Y20657I0J-703D01*
G01*
G75*
G01X1842Y20453D02*
G03X1140Y19750I0J-703D01*
G01*
G75*
G01X1140Y19750D02*
G03X1461Y19160I702J0D01*
G01*
G75*
G01X1461Y19160D02*
G03X1248Y18750I289J-410D01*
G01*
G75*
G01X1248Y18750D02*
G03X1461Y18340I502J0D01*
G01*
G75*
G01X1461Y18340D02*
G03X1140Y17750I381J-590D01*
G01*
G75*
G01X1140Y17750D02*
G03X1162Y17575I702J0D01*
G01*
G75*
G01X6250Y18785D02*
G03X6039Y19160I-500J-35D01*
G01*
G75*
G01X6039Y19160D02*
G03X6271Y19408I-382J590D01*
G01*
G75*
G01X2237Y18870D02*
G03X2154Y19047I-487J-120D01*
G01*
G75*
G01X2157Y19047D02*
G03X2508Y19141I0J703D01*
G01*
G75*
G01X2766Y19399D02*
G03X2852Y19647I-609J351D01*
G01*
G75*
G01X2852Y19647D02*
G03X3100Y19734I-102J696D01*
G01*
G75*
G01X6732Y19492D02*
G03X6674Y19481I0J-151D01*
G01*
G01*
X6744Y19726D02*
X6744Y19726D01*
G75*
G01X6816Y19798D02*
G03X6978Y19770I162J448D01*
G01*
G75*
G01X6978Y19770D02*
G03X7344Y19940I0J476D01*
G01*
G75*
G01X3359Y19992D02*
G03X3452Y20343I-609J351D01*
G01*
G75*
G01X3452Y20346D02*
G03X3630Y20263I298J404D01*
G01*
G75*
G01X4047Y20343D02*
G03X4047Y20326I703J0D01*
G01*
G75*
G01X4018Y20326D02*
G03X4047Y20346I-268J424D01*
G01*
G75*
G01X5738Y20448D02*
G03X5657Y20453I-81J-698D01*
G01*
G75*
G01X5452Y20657D02*
G03X5448Y20738I-702J0D01*
G01*
G75*
G01X4263Y21165D02*
G03X4160Y21039I487J-508D01*
G01*
G75*
G01X4160Y21039D02*
G03X4032Y21165I-410J-289D01*
G01*
G36*
G01X7303Y16968D02*
G01X6653Y16968D01*
G01X6653Y17618D01*
G01X7303Y17618D01*
G01X7303Y16968D01*
G37*
G54D13*
G01X6978Y20246D03*
G54D12*
G01X5258Y15510D03*
G54D13*
G01X2305Y15509D03*
G54D14*
G01X3749Y22096D03*
G54D15*
G01X7096Y18750D03*
G01X403Y18750D03*
G36*
G01X7303Y9468D02*
G01X6653Y9468D01*
G01X6653Y10118D01*
G01X7303Y10118D01*
G01X7303Y9468D01*
G37*
G54D13*
G01X6978Y12746D03*
G54D12*
G01X5258Y8010D03*
G54D13*
G01X2305Y8009D03*
G54D14*
G01X3749Y7903D03*
G54D15*
G01X403Y11250D03*
G36*
G01X14803Y9468D02*
G01X14153Y9468D01*
G01X14153Y10118D01*
G01X14803Y10118D01*
G01X14803Y9468D01*
G37*
G54D13*
G01X14478Y12746D03*
G54D12*
G01X12758Y8010D03*
G54D13*
G01X9805Y8009D03*
G54D14*
G01X11249Y14596D03*
G54D15*
G01X14596Y11250D03*
G36*
G01X14803Y1968D02*
G01X14153Y1968D01*
G01X14153Y2618D01*
G01X14803Y2618D01*
G01X14803Y1968D01*
G37*
G54D13*
G01X14478Y5246D03*
G54D12*
G01X12758Y510D03*
G54D13*
G01X9805Y509D03*
G54D15*
G01X14596Y3750D03*
G54D14*
G01X11249Y403D03*
G54D15*
G01X7903Y3750D03*
G54D16*
G01X2749Y20657D02*
G01X2749Y20342D01*
G01X1842Y19750D02*
G01X2157Y19750D01*
G01X4749Y17157D02*
G01X4749Y16842D01*
G01X5342Y17750D02*
G01X5657Y17750D01*
G01X2749Y17157D02*
G01X2749Y16842D01*
G01X1842Y17750D02*
G01X2157Y17750D01*
G01X5342Y19750D02*
G01X5657Y19750D01*
G01X4749Y20657D02*
G01X4749Y20342D01*
G01X2749Y13157D02*
G01X2749Y12842D01*
G01X1842Y12250D02*
G01X2157Y12250D01*
G01X4749Y9657D02*
G01X4749Y9342D01*
G01X5342Y10250D02*
G01X5657Y10250D01*
G01X2749Y9657D02*
G01X2749Y9342D01*
G01X1842Y10250D02*
G01X2157Y10250D01*
G01X5342Y12250D02*
G01X5657Y12250D01*
G01X4749Y13157D02*
G01X4749Y12842D01*
G01X10249Y13157D02*
G01X10249Y12842D01*
G01X9342Y12250D02*
G01X9657Y12250D01*
G01X12249Y9657D02*
G01X12249Y9342D01*
G01X12842Y10250D02*
G01X13157Y10250D01*
G01X10249Y9657D02*
G01X10249Y9342D01*
G01X9342Y10250D02*
G01X9657Y10250D01*
G01X12842Y12250D02*
G01X13157Y12250D01*
G01X12249Y13157D02*
G01X12249Y12842D01*
G01X10249Y5657D02*
G01X10249Y5342D01*
G01X9342Y4750D02*
G01X9657Y4750D01*
G01X12249Y2157D02*
G01X12249Y1842D01*
G01X12842Y2750D02*
G01X13157Y2750D01*
G01X10249Y2157D02*
G01X10249Y1842D01*
G01X9342Y2750D02*
G01X9657Y2750D01*
G01X12842Y4750D02*
G01X13157Y4750D01*
G01X12249Y5657D02*
G01X12249Y5342D01*
M00*
M02*
