;Layer: Drill PTH
;EasyEDA v6.1.49, Wed, 05 Jun 2019 22:56:17 GMT
;b2477c8acd00442fb18246f7a8401325,d502dfb0143049649cf38511bf809cad,10
;Gerber Generator version 0.2
M48
INCH,LZ,00.0000
;Holesize 1 = 0.020 INCH
T01C0.020
;Holesize 2 = 0.039 INCH
T02C0.039
;Holesize 3 = 0.060 INCH
T03C0.060
%
G05
G90
T01
X+003749Y+022096
X+007096Y+018750
X+000403Y+018750
X+003749Y+007903
X+000403Y+011250
X+011249Y+014596
X+014596Y+011250
X+014596Y+003750
X+011249Y+000403
X+007903Y+003750
T02
X+006978Y+017293
X+006978Y+020246
X+005258Y+015510
X+002305Y+015509
X+006978Y+009793
X+006978Y+012746
X+005258Y+008010
X+002305Y+008009
X+014478Y+009793
X+014478Y+012746
X+012758Y+008010
X+009805Y+008009
X+014478Y+002293
X+014478Y+005246
X+012758Y+000510
X+009805Y+000509
T03
X+002749Y+020250G85X+002749Y+020749
X+002248Y+019750G85X+001750Y+019750
X+004749Y+016750G85X+004749Y+017249
X+005748Y+017750G85X+005250Y+017750
X+002749Y+016750G85X+002749Y+017249
X+002248Y+017750G85X+001750Y+017750
X+005748Y+019750G85X+005250Y+019750
X+004749Y+020250G85X+004749Y+020749
X+002749Y+012750G85X+002749Y+013249
X+002248Y+012250G85X+001750Y+012250
X+004749Y+009250G85X+004749Y+009749
X+005748Y+010250G85X+005250Y+010250
X+002749Y+009250G85X+002749Y+009749
X+002248Y+010250G85X+001750Y+010250
X+005748Y+012250G85X+005250Y+012250
X+004749Y+012750G85X+004749Y+013249
X+010249Y+012750G85X+010249Y+013249
X+009748Y+012250G85X+009250Y+012250
X+012249Y+009250G85X+012249Y+009749
X+013248Y+010250G85X+012750Y+010250
X+010249Y+009250G85X+010249Y+009749
X+009748Y+010250G85X+009250Y+010250
X+013248Y+012250G85X+012750Y+012250
X+012249Y+012750G85X+012249Y+013249
X+010249Y+005250G85X+010249Y+005749
X+009748Y+004750G85X+009250Y+004750
X+012249Y+001750G85X+012249Y+002249
X+013248Y+002750G85X+012750Y+002750
X+010249Y+001750G85X+010249Y+002249
X+009748Y+002750G85X+009250Y+002750
X+013248Y+004750G85X+012750Y+004750
X+012249Y+005250G85X+012249Y+005749
M30
