;Layer: Drill NPTH
;EasyEDA v6.1.49, Wed, 05 Jun 2019 22:56:17 GMT
;b2477c8acd00442fb18246f7a8401325,d502dfb0143049649cf38511bf809cad,10
;Gerber Generator version 0.2
M48
INCH,LZ,00.0000
;Holesize 1 = 0.070 INCH
T01C0.070
;Holesize 2 = 0.160 INCH
T02C0.160
%
G05
G90
T01
X+005749Y+018750
X+001749Y+018750
X+003749Y+020750
X+003749Y+016750
X+005749Y+011250
X+001749Y+011250
X+003749Y+013250
X+003749Y+009250
X+013249Y+011250
X+009249Y+011250
X+011249Y+013250
X+011249Y+009250
X+013249Y+003750
X+009249Y+003750
X+011249Y+005750
X+011249Y+001750
T02
X+003749Y+018750
X+003749Y+011250
X+011249Y+011250
X+011249Y+003750
M30
