G04 Layer: TopSolderMaskLayer*
G04 EasyEDA v6.1.49, Wed, 05 Jun 2019 22:56:06 GMT*
G04 81ac7e2167e14938b7c0012cd52f8194,d502dfb0143049649cf38511bf809cad,10*
G04 Gerber Generator version 0.2*
G04 Scale: 100 percent, Rotated: No, Reflected: No *
G04 Dimensions in inches *
G04 leading zeros omitted , absolute positions ,2 integer and 4 decimal *
%FSLAX24Y24*%
%MOIN*%
G90*
G70D02*

%ADD18C,0.118268*%
%ADD19R,0.073000X0.073000*%
%ADD20C,0.073000*%
%ADD21R,0.126110X0.080835*%
%ADD22R,0.080835X0.126110*%

%LPD*%
G54D18*
G01X2750Y28156D02*
G01X2750Y27842D01*
G01X1843Y27249D02*
G01X2157Y27249D01*
G01X4750Y24656D02*
G01X4750Y24342D01*
G01X5343Y25249D02*
G01X5657Y25249D01*
G01X2750Y24656D02*
G01X2750Y24342D01*
G01X1843Y25249D02*
G01X2157Y25249D01*
G01X5343Y27249D02*
G01X5657Y27249D01*
G01X4750Y28156D02*
G01X4750Y27842D01*
G01X2750Y20656D02*
G01X2750Y20342D01*
G01X1843Y19749D02*
G01X2157Y19749D01*
G01X4750Y17156D02*
G01X4750Y16842D01*
G01X5343Y17749D02*
G01X5657Y17749D01*
G01X2750Y17156D02*
G01X2750Y16842D01*
G01X1843Y17749D02*
G01X2157Y17749D01*
G01X5343Y19749D02*
G01X5657Y19749D01*
G01X4750Y20656D02*
G01X4750Y20342D01*
G01X2750Y13156D02*
G01X2750Y12842D01*
G01X1843Y12249D02*
G01X2157Y12249D01*
G01X4750Y9656D02*
G01X4750Y9342D01*
G01X5343Y10249D02*
G01X5657Y10249D01*
G01X2750Y9656D02*
G01X2750Y9342D01*
G01X1843Y10249D02*
G01X2157Y10249D01*
G01X5343Y12249D02*
G01X5657Y12249D01*
G01X4750Y13156D02*
G01X4750Y12842D01*
G01X2750Y5656D02*
G01X2750Y5342D01*
G01X1843Y4749D02*
G01X2157Y4749D01*
G01X4750Y2156D02*
G01X4750Y1842D01*
G01X5343Y2749D02*
G01X5657Y2749D01*
G01X2750Y2156D02*
G01X2750Y1842D01*
G01X1843Y2749D02*
G01X2157Y2749D01*
G01X5343Y4749D02*
G01X5657Y4749D01*
G01X4750Y5656D02*
G01X4750Y5342D01*
G36*
G01X6613Y24427D02*
G01X6613Y25157D01*
G01X7343Y25157D01*
G01X7343Y24427D01*
G01X6613Y24427D01*
G37*
G54D20*
G01X6978Y27745D03*
G54D19*
G01X5259Y23009D03*
G54D20*
G01X2306Y23009D03*
G54D21*
G01X3750Y29595D03*
G54D22*
G01X7097Y26249D03*
G01X403Y26249D03*
G36*
G01X6613Y16927D02*
G01X6613Y17657D01*
G01X7343Y17657D01*
G01X7343Y16927D01*
G01X6613Y16927D01*
G37*
G54D20*
G01X6978Y20245D03*
G54D19*
G01X5259Y15509D03*
G54D20*
G01X2306Y15509D03*
G54D22*
G01X7097Y18749D03*
G01X403Y18749D03*
G36*
G01X6613Y9427D02*
G01X6613Y10157D01*
G01X7343Y10157D01*
G01X7343Y9427D01*
G01X6613Y9427D01*
G37*
G54D20*
G01X6978Y12745D03*
G54D19*
G01X5259Y8009D03*
G54D20*
G01X2306Y8009D03*
G54D22*
G01X7097Y11249D03*
G01X403Y11249D03*
G36*
G01X6613Y1927D02*
G01X6613Y2657D01*
G01X7343Y2657D01*
G01X7343Y1927D01*
G01X6613Y1927D01*
G37*
G54D20*
G01X6978Y5245D03*
G54D19*
G01X5259Y509D03*
G54D20*
G01X2306Y509D03*
G54D22*
G01X7097Y3749D03*
G54D21*
G01X3750Y403D03*
G54D22*
G01X403Y3749D03*
M00*
M02*
