;Layer: Drill NPTH
;EasyEDA v6.1.49, Wed, 05 Jun 2019 22:56:06 GMT
;81ac7e2167e14938b7c0012cd52f8194,d502dfb0143049649cf38511bf809cad,10
;Gerber Generator version 0.2
M48
INCH,LZ,00.0000
;Holesize 1 = 0.070 INCH
T01C0.070
;Holesize 2 = 0.160 INCH
T02C0.160
%
G05
G90
T01
X+005750Y+026249
X+001750Y+026249
X+003750Y+028249
X+003750Y+024249
X+005750Y+018749
X+001750Y+018749
X+003750Y+020749
X+003750Y+016749
X+005750Y+011249
X+001750Y+011249
X+003750Y+013249
X+003750Y+009249
X+005750Y+003749
X+001750Y+003749
X+003750Y+005749
X+003750Y+001749
T02
X+003750Y+026249
X+003750Y+018749
X+003750Y+011249
X+003750Y+003749
M30
