;Layer: Drill PTH
;EasyEDA v6.1.49, Wed, 05 Jun 2019 22:56:06 GMT
;81ac7e2167e14938b7c0012cd52f8194,d502dfb0143049649cf38511bf809cad,10
;Gerber Generator version 0.2
M48
INCH,LZ,00.0000
;Holesize 1 = 0.012 INCH
T01C0.012
;Holesize 2 = 0.020 INCH
T02C0.020
;Holesize 3 = 0.039 INCH
T03C0.039
;Holesize 4 = 0.060 INCH
T04C0.060
%
G05
G90
T01
X+006336Y+028694
T02
X+003750Y+029595
X+007096Y+026249
X+000404Y+026249
X+007096Y+018749
X+000404Y+018749
X+007096Y+011249
X+000404Y+011249
X+007096Y+003749
X+003750Y+000403
X+000404Y+003749
T03
X+006978Y+024792
X+006978Y+027745
X+005259Y+023009
X+002306Y+023009
X+006978Y+017292
X+006978Y+020245
X+005259Y+015509
X+002306Y+015509
X+006978Y+009792
X+006978Y+012745
X+005259Y+008009
X+002306Y+008009
X+006978Y+002292
X+006978Y+005245
X+005259Y+000509
X+002306Y+000509
T04
X+002750Y+027750G85X+002750Y+028248
X+002249Y+027249G85X+001751Y+027249
X+004750Y+024250G85X+004750Y+024748
X+005749Y+025249G85X+005251Y+025249
X+002750Y+024250G85X+002750Y+024748
X+002249Y+025249G85X+001751Y+025249
X+005749Y+027249G85X+005251Y+027249
X+004750Y+027750G85X+004750Y+028248
X+002750Y+020250G85X+002750Y+020748
X+002249Y+019749G85X+001751Y+019749
X+004750Y+016750G85X+004750Y+017248
X+005749Y+017749G85X+005251Y+017749
X+002750Y+016750G85X+002750Y+017248
X+002249Y+017749G85X+001751Y+017749
X+005749Y+019749G85X+005251Y+019749
X+004750Y+020250G85X+004750Y+020748
X+002750Y+012750G85X+002750Y+013248
X+002249Y+012249G85X+001751Y+012249
X+004750Y+009250G85X+004750Y+009748
X+005749Y+010249G85X+005251Y+010249
X+002750Y+009250G85X+002750Y+009748
X+002249Y+010249G85X+001751Y+010249
X+005749Y+012249G85X+005251Y+012249
X+004750Y+012750G85X+004750Y+013248
X+002750Y+005250G85X+002750Y+005748
X+002249Y+004749G85X+001751Y+004749
X+004750Y+001750G85X+004750Y+002248
X+005749Y+002749G85X+005251Y+002749
X+002750Y+001750G85X+002750Y+002248
X+002249Y+002749G85X+001751Y+002749
X+005749Y+004749G85X+005251Y+004749
X+004750Y+005250G85X+004750Y+005748
M30
