G04 Layer: TopLayer*
G04 EasyEDA v6.1.49, Wed, 05 Jun 2019 22:56:06 GMT*
G04 81ac7e2167e14938b7c0012cd52f8194,d502dfb0143049649cf38511bf809cad,10*
G04 Gerber Generator version 0.2*
G04 Scale: 100 percent, Rotated: No, Reflected: No *
G04 Dimensions in inches *
G04 leading zeros omitted , absolute positions ,2 integer and 4 decimal *
%FSLAX24Y24*%
%MOIN*%
G90*
G70D02*

%ADD10C,0.010000*%
%ADD12C,0.024000*%
%ADD13R,0.065000X0.065000*%
%ADD14C,0.065000*%
%ADD15R,0.118110X0.072835*%
%ADD16R,0.072835X0.118110*%
%ADD17C,0.110236*%

%LPD*%
G54D10*
G01X6336Y22573D02*
G01X6336Y28694D01*
G01X5259Y15945D02*
G01X6336Y17023D01*
G01X6336Y22573D01*
G01X5259Y22573D02*
G01X6336Y22573D01*
G01X6331Y6501D02*
G01X6331Y14873D01*
G01X5259Y15945D01*
G01X5259Y945D02*
G01X6331Y2017D01*
G01X6331Y6501D01*
G01X6331Y6501D02*
G01X5259Y7573D01*
G01X5259Y8009D02*
G01X5259Y7573D01*
G01X5259Y509D02*
G01X5259Y945D01*
G01X5259Y15509D02*
G01X5259Y15945D01*
G01X5259Y23009D02*
G01X5259Y22573D01*
G01X2306Y15509D02*
G01X2750Y15953D01*
G01X2750Y16999D01*
G01X2306Y8009D02*
G01X2750Y8453D01*
G01X2750Y9499D01*
G01X2306Y509D02*
G01X2306Y1555D01*
G01X2750Y1999D01*
G01X7097Y26249D02*
G01X7097Y25547D01*
G01X7097Y25547D02*
G01X6978Y25429D01*
G01X6978Y24792D01*
G01X7097Y18749D02*
G01X7097Y18047D01*
G01X7097Y18047D02*
G01X6978Y17929D01*
G01X6978Y17292D01*
G01X7097Y11249D02*
G01X7097Y10547D01*
G01X7097Y10547D02*
G01X6978Y10429D01*
G01X6978Y9792D01*
G01X7097Y3749D02*
G01X7097Y3047D01*
G01X7097Y3047D02*
G01X6978Y2929D01*
G01X6978Y2292D01*
G01X7031Y156D02*
G01X5733Y156D01*
G01X5735Y184D02*
G01X5735Y834D01*
G01X5585Y986D02*
G01X6473Y1875D01*
G01X6653Y1816D02*
G01X7303Y1816D01*
G01X7343Y1821D02*
G01X7343Y481D01*
G01X5735Y339D02*
G01X7315Y339D01*
G01X5735Y541D02*
G01X7343Y541D01*
G01X5735Y743D02*
G01X7343Y743D01*
G01X5687Y945D02*
G01X7343Y945D01*
G01X5746Y1147D02*
G01X7343Y1147D01*
G01X5948Y1349D02*
G01X7343Y1349D01*
G01X6150Y1551D02*
G01X7343Y1551D01*
G01X6352Y1753D02*
G01X7343Y1753D01*
G01X7160Y184D02*
G01X7160Y1816D01*
G01X6958Y156D02*
G01X6958Y1816D01*
G01X6756Y156D02*
G01X6756Y1816D01*
G01X6554Y156D02*
G01X6554Y1853D01*
G01X6352Y156D02*
G01X6352Y1753D01*
G01X6150Y156D02*
G01X6150Y1551D01*
G01X5948Y156D02*
G01X5948Y1349D01*
G01X5746Y156D02*
G01X5746Y1147D01*
G01X4785Y156D02*
G01X4492Y156D01*
G01X4492Y156D02*
G01X4492Y767D01*
G01X4341Y918D02*
G01X3159Y918D01*
G01X3008Y767D02*
G01X3008Y156D01*
G01X3008Y156D02*
G01X2626Y156D01*
G01X2507Y941D02*
G01X2507Y1182D01*
G01X5453Y1842D02*
G01X5453Y2046D01*
G01X5453Y2046D02*
G01X5657Y2046D01*
G01X6130Y2228D02*
G01X6130Y2100D01*
G01X6130Y2100D02*
G01X5117Y1087D01*
G01X5062Y986D02*
G01X4934Y986D01*
G01X4782Y834D02*
G01X4782Y184D01*
G01X2751Y339D02*
G01X3008Y339D01*
G01X4492Y339D02*
G01X4782Y339D01*
G01X2781Y541D02*
G01X3008Y541D01*
G01X4492Y541D02*
G01X4782Y541D01*
G01X2721Y743D02*
G01X3008Y743D01*
G01X4492Y743D02*
G01X4782Y743D01*
G01X2507Y945D02*
G01X4830Y945D01*
G01X2507Y1147D02*
G01X2645Y1147D01*
G01X2855Y1147D02*
G01X4645Y1147D01*
G01X4855Y1147D02*
G01X5176Y1147D01*
G01X3251Y1349D02*
G01X3448Y1349D01*
G01X4052Y1349D02*
G01X4249Y1349D01*
G01X5251Y1349D02*
G01X5378Y1349D01*
G01X5390Y1551D02*
G01X5580Y1551D01*
G01X5447Y1753D02*
G01X5782Y1753D01*
G01X5453Y1955D02*
G01X5984Y1955D01*
G01X6036Y2157D02*
G01X6130Y2157D01*
G01X5948Y1919D02*
G01X5948Y2109D01*
G01X5746Y1717D02*
G01X5746Y2052D01*
G01X5544Y1515D02*
G01X5544Y2046D01*
G01X5342Y1313D02*
G01X5342Y1463D01*
G01X5140Y1111D02*
G01X5140Y1257D01*
G01X4938Y986D02*
G01X4938Y1165D01*
G01X4736Y156D02*
G01X4736Y1139D01*
G01X4534Y156D02*
G01X4534Y1173D01*
G01X4332Y918D02*
G01X4332Y1277D01*
G01X4130Y918D02*
G01X4130Y1422D01*
G01X3928Y918D02*
G01X3928Y1280D01*
G01X3726Y918D02*
G01X3726Y1248D01*
G01X3524Y918D02*
G01X3524Y1301D01*
G01X3322Y918D02*
G01X3322Y1434D01*
G01X3120Y913D02*
G01X3120Y1244D01*
G01X2918Y156D02*
G01X2918Y1159D01*
G01X2716Y156D02*
G01X2716Y267D01*
G01X2716Y751D02*
G01X2716Y1140D01*
G01X2514Y938D02*
G01X2514Y1180D01*
G01X156Y468D02*
G01X156Y3007D01*
G01X156Y3007D02*
G01X768Y3007D01*
G01X919Y3158D02*
G01X919Y4340D01*
G01X768Y4491D02*
G01X156Y4491D01*
G01X156Y4491D02*
G01X156Y10507D01*
G01X156Y10507D02*
G01X768Y10507D01*
G01X919Y10658D02*
G01X919Y11840D01*
G01X768Y11991D02*
G01X156Y11991D01*
G01X156Y11991D02*
G01X156Y18007D01*
G01X156Y18007D02*
G01X768Y18007D01*
G01X919Y18158D02*
G01X919Y19340D01*
G01X768Y19491D02*
G01X156Y19491D01*
G01X156Y19491D02*
G01X156Y25507D01*
G01X156Y25507D02*
G01X768Y25507D01*
G01X919Y25658D02*
G01X919Y26840D01*
G01X768Y26991D02*
G01X156Y26991D01*
G01X156Y26991D02*
G01X156Y29531D01*
G01X468Y29843D02*
G01X3008Y29843D01*
G01X3008Y29843D02*
G01X3008Y29231D01*
G01X3159Y29080D02*
G01X4341Y29080D01*
G01X4492Y29231D02*
G01X4492Y29843D01*
G01X4492Y29843D02*
G01X7031Y29843D01*
G01X7343Y29531D02*
G01X7343Y28052D01*
G01X6538Y27926D02*
G01X6538Y28512D01*
G01X6135Y28512D02*
G01X6135Y27765D01*
G01X5657Y27952D02*
G01X5453Y27952D01*
G01X5453Y27952D02*
G01X5453Y28156D01*
G01X2047Y28156D02*
G01X2047Y27952D01*
G01X2047Y27952D02*
G01X1843Y27952D01*
G01X1843Y24546D02*
G01X2047Y24546D01*
G01X2047Y24546D02*
G01X2047Y24342D01*
G01X5453Y24342D02*
G01X5453Y24546D01*
G01X5453Y24546D02*
G01X5657Y24546D01*
G01X6135Y24733D02*
G01X6135Y22775D01*
G01X6135Y22775D02*
G01X5735Y22775D01*
G01X5735Y22775D02*
G01X5735Y23334D01*
G01X5584Y23486D02*
G01X4934Y23486D01*
G01X4782Y23334D02*
G01X4782Y22684D01*
G01X4934Y22533D02*
G01X5062Y22533D01*
G01X5259Y22371D02*
G01X6135Y22371D01*
G01X6135Y22371D02*
G01X6135Y20265D01*
G01X5657Y20452D02*
G01X5453Y20452D01*
G01X5453Y20452D02*
G01X5453Y20656D01*
G01X2047Y20656D02*
G01X2047Y20452D01*
G01X2047Y20452D02*
G01X1843Y20452D01*
G01X1843Y17046D02*
G01X2047Y17046D01*
G01X2047Y17046D02*
G01X2047Y16842D01*
G01X2548Y16168D02*
G01X2548Y16036D01*
G01X2548Y16036D02*
G01X2469Y15957D01*
G01X2041Y15113D02*
G01X1882Y15113D01*
G01X1731Y14962D02*
G01X1731Y14412D01*
G01X1882Y14260D02*
G01X5786Y14260D01*
G01X5938Y14412D02*
G01X5938Y14962D01*
G01X5936Y14983D02*
G01X6130Y14790D01*
G01X6130Y14790D02*
G01X6130Y12770D01*
G01X5657Y12952D02*
G01X5453Y12952D01*
G01X5453Y12952D02*
G01X5453Y13156D01*
G01X2047Y13156D02*
G01X2047Y12952D01*
G01X2047Y12952D02*
G01X1843Y12952D01*
G01X1843Y9546D02*
G01X2047Y9546D01*
G01X2047Y9546D02*
G01X2047Y9342D01*
G01X2548Y8668D02*
G01X2548Y8536D01*
G01X2548Y8536D02*
G01X2469Y8457D01*
G01X2754Y8172D02*
G01X2892Y8311D01*
G01X2952Y8453D02*
G01X2952Y8668D01*
G01X5453Y9342D02*
G01X5453Y9546D01*
G01X5453Y9546D02*
G01X5657Y9546D01*
G01X6130Y9728D02*
G01X6130Y6987D01*
G01X6130Y6987D02*
G01X5584Y7533D01*
G01X5735Y7684D02*
G01X5735Y8334D01*
G01X5584Y8486D02*
G01X4934Y8486D01*
G01X4782Y8334D02*
G01X4782Y7684D01*
G01X4934Y7533D02*
G01X5062Y7533D01*
G01X5117Y7431D02*
G01X6130Y6418D01*
G01X6130Y6418D02*
G01X6130Y5270D01*
G01X5657Y5452D02*
G01X5453Y5452D01*
G01X5453Y5452D02*
G01X5453Y5656D01*
G01X2047Y5656D02*
G01X2047Y5452D01*
G01X2047Y5452D02*
G01X1843Y5452D01*
G01X1843Y2046D02*
G01X2047Y2046D01*
G01X2047Y2046D02*
G01X2047Y1842D01*
G01X2105Y1555D02*
G01X2105Y941D01*
G01X1985Y156D02*
G01X468Y157D01*
G01X184Y339D02*
G01X1861Y339D01*
G01X156Y541D02*
G01X1830Y541D01*
G01X156Y743D02*
G01X1891Y743D01*
G01X156Y945D02*
G01X2105Y945D01*
G01X156Y1147D02*
G01X2105Y1147D01*
G01X156Y1349D02*
G01X2105Y1349D01*
G01X156Y1551D02*
G01X2105Y1551D01*
G01X156Y1753D02*
G01X2053Y1753D01*
G01X156Y1955D02*
G01X2047Y1955D01*
G01X156Y2157D02*
G01X1464Y2157D01*
G01X156Y2359D02*
G01X1258Y2359D01*
G01X156Y2561D02*
G01X1166Y2561D01*
G01X156Y2763D02*
G01X1140Y2763D01*
G01X156Y2965D02*
G01X1174Y2965D01*
G01X919Y3167D02*
G01X1278Y3167D01*
G01X919Y3369D02*
G01X1423Y3369D01*
G01X919Y3571D02*
G01X1281Y3571D01*
G01X919Y3773D02*
G01X1249Y3773D01*
G01X919Y3975D02*
G01X1302Y3975D01*
G01X919Y4177D02*
G01X1435Y4177D01*
G01X914Y4379D02*
G01X1245Y4379D01*
G01X156Y4581D02*
G01X1160Y4581D01*
G01X156Y4783D02*
G01X1141Y4783D01*
G01X156Y4985D02*
G01X1181Y4985D01*
G01X156Y5187D02*
G01X1293Y5187D01*
G01X156Y5389D02*
G01X1552Y5389D01*
G01X5948Y5389D02*
G01X6130Y5389D01*
G01X156Y5591D02*
G01X2047Y5591D01*
G01X5453Y5591D02*
G01X6130Y5591D01*
G01X156Y5793D02*
G01X2061Y5793D01*
G01X5439Y5793D02*
G01X6130Y5793D01*
G01X156Y5995D02*
G01X2134Y5995D01*
G01X5366Y5995D02*
G01X6130Y5995D01*
G01X156Y6197D02*
G01X2301Y6197D01*
G01X3199Y6197D02*
G01X3524Y6197D01*
G01X3976Y6197D02*
G01X4301Y6197D01*
G01X5199Y6197D02*
G01X6130Y6197D01*
G01X156Y6399D02*
G01X6130Y6399D01*
G01X156Y6601D02*
G01X5946Y6601D01*
G01X156Y6803D02*
G01X5744Y6803D01*
G01X156Y7005D02*
G01X5542Y7005D01*
G01X6112Y7005D02*
G01X6130Y7005D01*
G01X156Y7207D02*
G01X5340Y7207D01*
G01X5910Y7207D02*
G01X6130Y7207D01*
G01X156Y7409D02*
G01X5138Y7409D01*
G01X5708Y7409D02*
G01X6130Y7409D01*
G01X156Y7611D02*
G01X2044Y7611D01*
G01X2568Y7611D02*
G01X4801Y7611D01*
G01X5716Y7611D02*
G01X6130Y7611D01*
G01X156Y7813D02*
G01X1872Y7813D01*
G01X2740Y7813D02*
G01X4782Y7813D01*
G01X5735Y7813D02*
G01X6130Y7813D01*
G01X156Y8015D02*
G01X1829Y8015D01*
G01X2782Y8015D02*
G01X4782Y8015D01*
G01X5735Y8015D02*
G01X6130Y8015D01*
G01X156Y8217D02*
G01X1877Y8217D01*
G01X2799Y8217D02*
G01X4782Y8217D01*
G01X5735Y8217D02*
G01X6130Y8217D01*
G01X156Y8419D02*
G01X2063Y8419D01*
G01X2949Y8419D02*
G01X4808Y8419D01*
G01X5709Y8419D02*
G01X6130Y8419D01*
G01X156Y8621D02*
G01X2548Y8621D01*
G01X2952Y8621D02*
G01X6130Y8621D01*
G01X156Y8823D02*
G01X2276Y8823D01*
G01X3224Y8823D02*
G01X3486Y8823D01*
G01X4014Y8823D02*
G01X4276Y8823D01*
G01X5224Y8823D02*
G01X6130Y8823D01*
G01X156Y9025D02*
G01X2123Y9025D01*
G01X5377Y9025D02*
G01X6130Y9025D01*
G01X156Y9227D02*
G01X2057Y9227D01*
G01X5443Y9227D02*
G01X6130Y9227D01*
G01X156Y9429D02*
G01X2047Y9429D01*
G01X5453Y9429D02*
G01X6130Y9429D01*
G01X156Y9631D02*
G01X1509Y9631D01*
G01X5991Y9631D02*
G01X6130Y9631D01*
G01X156Y9833D02*
G01X1276Y9833D01*
G01X156Y10035D02*
G01X1173Y10035D01*
G01X156Y10237D02*
G01X1140Y10237D01*
G01X156Y10439D02*
G01X1166Y10439D01*
G01X918Y10641D02*
G01X1259Y10641D01*
G01X919Y10843D02*
G01X1456Y10843D01*
G01X919Y11045D02*
G01X1292Y11045D01*
G01X919Y11247D02*
G01X1249Y11247D01*
G01X919Y11449D02*
G01X1290Y11449D01*
G01X919Y11651D02*
G01X1450Y11651D01*
G01X919Y11853D02*
G01X1262Y11853D01*
G01X156Y12055D02*
G01X1167Y12055D01*
G01X156Y12257D02*
G01X1140Y12257D01*
G01X156Y12459D02*
G01X1172Y12459D01*
G01X156Y12661D02*
G01X1273Y12661D01*
G01X156Y12863D02*
G01X1500Y12863D01*
G01X6000Y12863D02*
G01X6130Y12863D01*
G01X156Y13065D02*
G01X2047Y13065D01*
G01X5453Y13065D02*
G01X6130Y13065D01*
G01X156Y13267D02*
G01X2056Y13267D01*
G01X5444Y13267D02*
G01X6130Y13267D01*
G01X156Y13469D02*
G01X2121Y13469D01*
G01X5379Y13469D02*
G01X6130Y13469D01*
G01X156Y13671D02*
G01X2271Y13671D01*
G01X3229Y13671D02*
G01X3479Y13671D01*
G01X4021Y13671D02*
G01X4271Y13671D01*
G01X5229Y13671D02*
G01X6130Y13671D01*
G01X156Y13873D02*
G01X6130Y13873D01*
G01X156Y14075D02*
G01X6130Y14075D01*
G01X156Y14277D02*
G01X1813Y14277D01*
G01X5855Y14277D02*
G01X6130Y14277D01*
G01X156Y14479D02*
G01X1731Y14479D01*
G01X5938Y14479D02*
G01X6130Y14479D01*
G01X156Y14681D02*
G01X1731Y14681D01*
G01X5938Y14681D02*
G01X6130Y14681D01*
G01X156Y14883D02*
G01X1731Y14883D01*
G01X5938Y14883D02*
G01X6036Y14883D01*
G01X156Y15085D02*
G01X1794Y15085D01*
G01X156Y15287D02*
G01X1884Y15287D01*
G01X156Y15489D02*
G01X1830Y15489D01*
G01X156Y15691D02*
G01X1865Y15691D01*
G01X156Y15893D02*
G01X2023Y15893D01*
G01X156Y16095D02*
G01X2548Y16095D01*
G01X156Y16297D02*
G01X2306Y16297D01*
G01X156Y16499D02*
G01X2137Y16499D01*
G01X156Y16701D02*
G01X2062Y16701D01*
G01X156Y16903D02*
G01X2047Y16903D01*
G01X156Y17105D02*
G01X1562Y17105D01*
G01X156Y17307D02*
G01X1296Y17307D01*
G01X156Y17509D02*
G01X1182Y17509D01*
G01X156Y17711D02*
G01X1141Y17711D01*
G01X156Y17913D02*
G01X1159Y17913D01*
G01X913Y18115D02*
G01X1243Y18115D01*
G01X919Y18317D02*
G01X1428Y18317D01*
G01X919Y18519D02*
G01X1304Y18519D01*
G01X919Y18721D02*
G01X1249Y18721D01*
G01X919Y18923D02*
G01X1280Y18923D01*
G01X919Y19125D02*
G01X1418Y19125D01*
G01X919Y19327D02*
G01X1281Y19327D01*
G01X156Y19529D02*
G01X1175Y19529D01*
G01X156Y19731D02*
G01X1140Y19731D01*
G01X156Y19933D02*
G01X1164Y19933D01*
G01X156Y20135D02*
G01X1255Y20135D01*
G01X156Y20337D02*
G01X1457Y20337D01*
G01X6043Y20337D02*
G01X6135Y20337D01*
G01X156Y20539D02*
G01X2047Y20539D01*
G01X5453Y20539D02*
G01X6135Y20539D01*
G01X156Y20741D02*
G01X2052Y20741D01*
G01X5448Y20741D02*
G01X6135Y20741D01*
G01X156Y20943D02*
G01X2108Y20943D01*
G01X5392Y20943D02*
G01X6135Y20943D01*
G01X156Y21145D02*
G01X2245Y21145D01*
G01X3255Y21145D02*
G01X3442Y21145D01*
G01X4058Y21145D02*
G01X4245Y21145D01*
G01X5255Y21145D02*
G01X6135Y21145D01*
G01X156Y21347D02*
G01X2619Y21347D01*
G01X2881Y21347D02*
G01X4619Y21347D01*
G01X4881Y21347D02*
G01X6135Y21347D01*
G01X156Y21549D02*
G01X6135Y21549D01*
G01X156Y21751D02*
G01X6135Y21751D01*
G01X156Y21953D02*
G01X6135Y21953D01*
G01X156Y22155D02*
G01X6135Y22155D01*
G01X156Y22357D02*
G01X6135Y22357D01*
G01X156Y22559D02*
G01X2150Y22559D01*
G01X2462Y22559D02*
G01X4849Y22559D01*
G01X156Y22761D02*
G01X1899Y22761D01*
G01X2713Y22761D02*
G01X4782Y22761D01*
G01X156Y22963D02*
G01X1832Y22963D01*
G01X2780Y22963D02*
G01X4782Y22963D01*
G01X5735Y22963D02*
G01X6135Y22963D01*
G01X156Y23165D02*
G01X1856Y23165D01*
G01X2756Y23165D02*
G01X4782Y23165D01*
G01X5735Y23165D02*
G01X6135Y23165D01*
G01X156Y23367D02*
G01X1991Y23367D01*
G01X2621Y23367D02*
G01X4786Y23367D01*
G01X5732Y23367D02*
G01X6135Y23367D01*
G01X156Y23569D02*
G01X6135Y23569D01*
G01X156Y23771D02*
G01X2340Y23771D01*
G01X3160Y23771D02*
G01X3599Y23771D01*
G01X3901Y23771D02*
G01X4340Y23771D01*
G01X5160Y23771D02*
G01X6135Y23771D01*
G01X156Y23973D02*
G01X2152Y23973D01*
G01X5348Y23973D02*
G01X6135Y23973D01*
G01X156Y24175D02*
G01X2067Y24175D01*
G01X5433Y24175D02*
G01X6135Y24175D01*
G01X156Y24377D02*
G01X2047Y24377D01*
G01X5453Y24377D02*
G01X6135Y24377D01*
G01X156Y24579D02*
G01X1632Y24579D01*
G01X5868Y24579D02*
G01X6135Y24579D01*
G01X156Y24781D02*
G01X1319Y24781D01*
G01X156Y24983D02*
G01X1192Y24983D01*
G01X156Y25185D02*
G01X1143Y25185D01*
G01X156Y25387D02*
G01X1153Y25387D01*
G01X902Y25589D02*
G01X1227Y25589D01*
G01X919Y25791D02*
G01X1395Y25791D01*
G01X919Y25993D02*
G01X1319Y25993D01*
G01X919Y26195D02*
G01X1251Y26195D01*
G01X919Y26397D02*
G01X1271Y26397D01*
G01X919Y26599D02*
G01X1391Y26599D01*
G01X919Y26801D02*
G01X1301Y26801D01*
G01X156Y27003D02*
G01X1184Y27003D01*
G01X156Y27205D02*
G01X1141Y27205D01*
G01X156Y27407D02*
G01X1158Y27407D01*
G01X156Y27609D02*
G01X1239Y27609D01*
G01X156Y27811D02*
G01X1420Y27811D01*
G01X6080Y27811D02*
G01X6135Y27811D01*
G01X156Y28013D02*
G01X2047Y28013D01*
G01X5453Y28013D02*
G01X6135Y28013D01*
G01X6538Y28013D02*
G01X6584Y28013D01*
G01X156Y28215D02*
G01X2050Y28215D01*
G01X5450Y28215D02*
G01X6135Y28215D01*
G01X6538Y28215D02*
G01X6898Y28215D01*
G01X7059Y28215D02*
G01X7343Y28215D01*
G01X156Y28417D02*
G01X2097Y28417D01*
G01X5403Y28417D02*
G01X6135Y28417D01*
G01X6538Y28417D02*
G01X7343Y28417D01*
G01X156Y28619D02*
G01X2221Y28619D01*
G01X3279Y28619D02*
G01X3411Y28619D01*
G01X4089Y28619D02*
G01X4221Y28619D01*
G01X5279Y28619D02*
G01X6075Y28619D01*
G01X6597Y28619D02*
G01X7343Y28619D01*
G01X156Y28821D02*
G01X2521Y28821D01*
G01X2979Y28821D02*
G01X4521Y28821D01*
G01X4979Y28821D02*
G01X6096Y28821D01*
G01X6576Y28821D02*
G01X7343Y28821D01*
G01X156Y29023D02*
G01X7343Y29023D01*
G01X156Y29225D02*
G01X3008Y29225D01*
G01X4492Y29225D02*
G01X7343Y29225D01*
G01X156Y29427D02*
G01X3008Y29427D01*
G01X4492Y29427D02*
G01X7343Y29427D01*
G01X172Y29629D02*
G01X3008Y29629D01*
G01X4492Y29629D02*
G01X7327Y29629D01*
G01X382Y29831D02*
G01X3008Y29831D01*
G01X4492Y29831D02*
G01X7117Y29831D01*
G01X7160Y28186D02*
G01X7160Y29815D01*
G01X6958Y28221D02*
G01X6958Y29843D01*
G01X6756Y28167D02*
G01X6756Y29843D01*
G01X6554Y27962D02*
G01X6554Y28533D01*
G01X6554Y28855D02*
G01X6554Y29843D01*
G01X6352Y28965D02*
G01X6352Y29843D01*
G01X6150Y28892D02*
G01X6150Y29843D01*
G01X5948Y5389D02*
G01X5948Y6599D01*
G01X5948Y7169D02*
G01X5948Y9609D01*
G01X5948Y12889D02*
G01X5948Y14971D01*
G01X5948Y20389D02*
G01X5948Y22371D01*
G01X5948Y22775D02*
G01X5948Y24609D01*
G01X5948Y27889D02*
G01X5948Y29843D01*
G01X5746Y5446D02*
G01X5746Y6801D01*
G01X5746Y7371D02*
G01X5746Y9552D01*
G01X5746Y12946D02*
G01X5746Y14260D01*
G01X5746Y20446D02*
G01X5746Y22371D01*
G01X5746Y22775D02*
G01X5746Y24552D01*
G01X5746Y27946D02*
G01X5746Y29843D01*
G01X5544Y5452D02*
G01X5544Y7003D01*
G01X5544Y8486D02*
G01X5544Y9546D01*
G01X5544Y12952D02*
G01X5544Y14260D01*
G01X5544Y20452D02*
G01X5544Y22371D01*
G01X5544Y23486D02*
G01X5544Y24546D01*
G01X5544Y27952D02*
G01X5544Y29843D01*
G01X5342Y6035D02*
G01X5342Y7205D01*
G01X5342Y8486D02*
G01X5342Y8963D01*
G01X5342Y13535D02*
G01X5342Y14260D01*
G01X5342Y21035D02*
G01X5342Y22371D01*
G01X5342Y23486D02*
G01X5342Y23963D01*
G01X5342Y28535D02*
G01X5342Y29843D01*
G01X5140Y6241D02*
G01X5140Y7407D01*
G01X5140Y8486D02*
G01X5140Y8757D01*
G01X5140Y13741D02*
G01X5140Y14260D01*
G01X5140Y21241D02*
G01X5140Y22410D01*
G01X5140Y23486D02*
G01X5140Y23757D01*
G01X5140Y28741D02*
G01X5140Y29843D01*
G01X4938Y6333D02*
G01X4938Y7533D01*
G01X4938Y8486D02*
G01X4938Y8665D01*
G01X4938Y13833D02*
G01X4938Y14260D01*
G01X4938Y21333D02*
G01X4938Y22533D01*
G01X4938Y23486D02*
G01X4938Y23665D01*
G01X4938Y28833D02*
G01X4938Y29843D01*
G01X4736Y6359D02*
G01X4736Y8639D01*
G01X4736Y13859D02*
G01X4736Y14260D01*
G01X4736Y21359D02*
G01X4736Y23639D01*
G01X4736Y28859D02*
G01X4736Y29843D01*
G01X4534Y6325D02*
G01X4534Y8673D01*
G01X4534Y13825D02*
G01X4534Y14260D01*
G01X4534Y21325D02*
G01X4534Y23673D01*
G01X4534Y28825D02*
G01X4534Y29843D01*
G01X4332Y6221D02*
G01X4332Y8777D01*
G01X4332Y13721D02*
G01X4332Y14260D01*
G01X4332Y21221D02*
G01X4332Y23777D01*
G01X4332Y28721D02*
G01X4332Y29080D01*
G01X4130Y6076D02*
G01X4130Y8922D01*
G01X4130Y13576D02*
G01X4130Y14260D01*
G01X4130Y21076D02*
G01X4130Y23922D01*
G01X4130Y28576D02*
G01X4130Y29080D01*
G01X3928Y6218D02*
G01X3928Y8780D01*
G01X3928Y13718D02*
G01X3928Y14260D01*
G01X3928Y21218D02*
G01X3928Y23780D01*
G01X3928Y28718D02*
G01X3928Y29080D01*
G01X3726Y6250D02*
G01X3726Y8748D01*
G01X3726Y13750D02*
G01X3726Y14260D01*
G01X3726Y21250D02*
G01X3726Y23748D01*
G01X3726Y28750D02*
G01X3726Y29080D01*
G01X3524Y6197D02*
G01X3524Y8801D01*
G01X3524Y13697D02*
G01X3524Y14260D01*
G01X3524Y21197D02*
G01X3524Y23801D01*
G01X3524Y28697D02*
G01X3524Y29080D01*
G01X3322Y6064D02*
G01X3322Y8934D01*
G01X3322Y13564D02*
G01X3322Y14260D01*
G01X3322Y21064D02*
G01X3322Y23934D01*
G01X3322Y28564D02*
G01X3322Y29080D01*
G01X3120Y6254D02*
G01X3120Y8744D01*
G01X3120Y13754D02*
G01X3120Y14260D01*
G01X3120Y21254D02*
G01X3120Y23744D01*
G01X3120Y28754D02*
G01X3120Y29085D01*
G01X2918Y6339D02*
G01X2918Y8342D01*
G01X2918Y13839D02*
G01X2918Y14260D01*
G01X2918Y21339D02*
G01X2918Y23659D01*
G01X2918Y28839D02*
G01X2918Y29843D01*
G01X2716Y6358D02*
G01X2716Y7767D01*
G01X2716Y13858D02*
G01X2716Y14260D01*
G01X2716Y21358D02*
G01X2716Y22767D01*
G01X2716Y23251D02*
G01X2716Y23640D01*
G01X2716Y28858D02*
G01X2716Y29843D01*
G01X2514Y6318D02*
G01X2514Y7580D01*
G01X2514Y8502D02*
G01X2514Y8680D01*
G01X2514Y13818D02*
G01X2514Y14260D01*
G01X2514Y16002D02*
G01X2514Y16180D01*
G01X2514Y21318D02*
G01X2514Y22580D01*
G01X2514Y23438D02*
G01X2514Y23680D01*
G01X2514Y28818D02*
G01X2514Y29843D01*
G01X2312Y6206D02*
G01X2312Y7533D01*
G01X2312Y8485D02*
G01X2312Y8792D01*
G01X2312Y13706D02*
G01X2312Y14260D01*
G01X2312Y15985D02*
G01X2312Y16292D01*
G01X2312Y21206D02*
G01X2312Y22533D01*
G01X2312Y23485D02*
G01X2312Y23792D01*
G01X2312Y28706D02*
G01X2312Y29843D01*
G01X2110Y5947D02*
G01X2110Y7575D01*
G01X2110Y8443D02*
G01X2110Y9051D01*
G01X2110Y13447D02*
G01X2110Y14260D01*
G01X2110Y15943D02*
G01X2110Y16551D01*
G01X2110Y20947D02*
G01X2110Y22575D01*
G01X2110Y23443D02*
G01X2110Y24051D01*
G01X2110Y28447D02*
G01X2110Y29843D01*
G01X1908Y156D02*
G01X1908Y246D01*
G01X1908Y772D02*
G01X1908Y2046D01*
G01X1908Y5452D02*
G01X1908Y7746D01*
G01X1908Y8272D02*
G01X1908Y9546D01*
G01X1908Y12952D02*
G01X1908Y14260D01*
G01X1908Y15113D02*
G01X1908Y15246D01*
G01X1908Y15772D02*
G01X1908Y17046D01*
G01X1908Y20452D02*
G01X1908Y22746D01*
G01X1908Y23272D02*
G01X1908Y24546D01*
G01X1908Y27952D02*
G01X1908Y29843D01*
G01X1706Y156D02*
G01X1706Y2060D01*
G01X1706Y5438D02*
G01X1706Y9560D01*
G01X1706Y12938D02*
G01X1706Y17060D01*
G01X1706Y20438D02*
G01X1706Y24560D01*
G01X1706Y27938D02*
G01X1706Y29843D01*
G01X1504Y156D02*
G01X1504Y2133D01*
G01X1504Y5365D02*
G01X1504Y9633D01*
G01X1504Y12865D02*
G01X1504Y17133D01*
G01X1504Y20365D02*
G01X1504Y24633D01*
G01X1504Y27865D02*
G01X1504Y29843D01*
G01X1302Y156D02*
G01X1302Y2300D01*
G01X1302Y3198D02*
G01X1302Y3523D01*
G01X1302Y3975D02*
G01X1302Y4300D01*
G01X1302Y5198D02*
G01X1302Y9800D01*
G01X1302Y10698D02*
G01X1302Y11023D01*
G01X1302Y11475D02*
G01X1302Y11800D01*
G01X1302Y12698D02*
G01X1302Y17300D01*
G01X1302Y18198D02*
G01X1302Y18523D01*
G01X1302Y18975D02*
G01X1302Y19300D01*
G01X1302Y20198D02*
G01X1302Y24800D01*
G01X1302Y25698D02*
G01X1302Y26023D01*
G01X1302Y26475D02*
G01X1302Y26800D01*
G01X1302Y27698D02*
G01X1302Y29843D01*
G01X1100Y156D02*
G01X1100Y29843D01*
G01X898Y156D02*
G01X898Y3082D01*
G01X898Y4416D02*
G01X898Y10582D01*
G01X898Y11916D02*
G01X898Y18082D01*
G01X898Y19416D02*
G01X898Y25582D01*
G01X898Y26916D02*
G01X898Y29843D01*
G01X696Y156D02*
G01X696Y3007D01*
G01X696Y4491D02*
G01X696Y10507D01*
G01X696Y11991D02*
G01X696Y18007D01*
G01X696Y19491D02*
G01X696Y25507D01*
G01X696Y26991D02*
G01X696Y29843D01*
G01X494Y156D02*
G01X494Y3007D01*
G01X494Y4491D02*
G01X494Y10507D01*
G01X494Y11991D02*
G01X494Y18007D01*
G01X494Y19491D02*
G01X494Y25507D01*
G01X494Y26991D02*
G01X494Y29843D01*
G01X292Y210D02*
G01X292Y3007D01*
G01X292Y4491D02*
G01X292Y10507D01*
G01X292Y11991D02*
G01X292Y18007D01*
G01X292Y19491D02*
G01X292Y25507D01*
G01X292Y26991D02*
G01X292Y29789D01*
G01X3453Y2153D02*
G01X3453Y2156D01*
G01X2157Y3452D02*
G01X2154Y3452D01*
G01X2154Y4046D02*
G01X2157Y4046D01*
G01X3453Y5342D02*
G01X3453Y5345D01*
G01X4047Y5345D02*
G01X4047Y5342D01*
G01X5343Y4046D02*
G01X5346Y4046D01*
G01X5346Y3452D02*
G01X5343Y3452D01*
G01X4047Y2156D02*
G01X4047Y2153D01*
G01X3453Y2157D02*
G01X3458Y2157D01*
G01X4042Y2157D02*
G01X4047Y2157D01*
G01X3423Y2359D02*
G01X4077Y2359D01*
G01X3325Y2561D02*
G01X4175Y2561D01*
G01X3105Y2763D02*
G01X4395Y2763D01*
G01X2826Y2965D02*
G01X3211Y2965D01*
G01X4289Y2965D02*
G01X4674Y2965D01*
G01X2722Y3167D02*
G01X2997Y3167D01*
G01X4503Y3167D02*
G01X4778Y3167D01*
G01X2489Y3369D02*
G01X2878Y3369D01*
G01X4622Y3369D02*
G01X5011Y3369D01*
G01X2219Y3571D02*
G01X2815Y3571D01*
G01X4685Y3571D02*
G01X5281Y3571D01*
G01X2251Y3773D02*
G01X2799Y3773D01*
G01X4701Y3773D02*
G01X5249Y3773D01*
G01X2198Y3975D02*
G01X2826Y3975D01*
G01X4674Y3975D02*
G01X5302Y3975D01*
G01X2565Y4177D02*
G01X2900Y4177D01*
G01X4600Y4177D02*
G01X4935Y4177D01*
G01X2755Y4379D02*
G01X3037Y4379D01*
G01X4463Y4379D02*
G01X4745Y4379D01*
G01X2840Y4581D02*
G01X3288Y4581D01*
G01X4212Y4581D02*
G01X4660Y4581D01*
G01X3176Y4783D02*
G01X4324Y4783D01*
G01X3355Y4985D02*
G01X4145Y4985D01*
G01X3435Y5187D02*
G01X4065Y5187D01*
G01X5342Y3452D02*
G01X5342Y3457D01*
G01X5342Y4041D02*
G01X5342Y4046D01*
G01X5140Y3422D02*
G01X5140Y4076D01*
G01X4938Y3324D02*
G01X4938Y4174D01*
G01X4736Y3104D02*
G01X4736Y4394D01*
G01X4534Y2825D02*
G01X4534Y3210D01*
G01X4534Y4288D02*
G01X4534Y4673D01*
G01X4332Y2721D02*
G01X4332Y2996D01*
G01X4332Y4502D02*
G01X4332Y4777D01*
G01X4130Y2488D02*
G01X4130Y2877D01*
G01X4130Y4621D02*
G01X4130Y5010D01*
G01X3928Y2218D02*
G01X3928Y2814D01*
G01X3928Y4684D02*
G01X3928Y5280D01*
G01X3726Y2250D02*
G01X3726Y2798D01*
G01X3726Y4700D02*
G01X3726Y5248D01*
G01X3524Y2197D02*
G01X3524Y2825D01*
G01X3524Y4673D02*
G01X3524Y5301D01*
G01X3322Y2564D02*
G01X3322Y2899D01*
G01X3322Y4599D02*
G01X3322Y4934D01*
G01X3120Y2754D02*
G01X3120Y3036D01*
G01X3120Y4462D02*
G01X3120Y4744D01*
G01X2918Y2839D02*
G01X2918Y3287D01*
G01X2918Y4211D02*
G01X2918Y4659D01*
G01X2716Y3175D02*
G01X2716Y4323D01*
G01X2514Y3354D02*
G01X2514Y4144D01*
G01X2312Y3434D02*
G01X2312Y4064D01*
G01X6532Y2709D02*
G01X6532Y5077D01*
G01X7343Y4939D02*
G01X7343Y4491D01*
G01X7343Y4491D02*
G01X6732Y4491D01*
G01X6581Y4340D02*
G01X6581Y3158D01*
G01X6732Y3007D02*
G01X6792Y3007D01*
G01X6777Y2929D02*
G01X6777Y2769D01*
G01X6777Y2769D02*
G01X6653Y2769D01*
G01X6532Y2763D02*
G01X6611Y2763D01*
G01X6532Y2965D02*
G01X6780Y2965D01*
G01X6532Y3167D02*
G01X6581Y3167D01*
G01X6532Y3369D02*
G01X6581Y3369D01*
G01X6532Y3571D02*
G01X6581Y3571D01*
G01X6532Y3773D02*
G01X6581Y3773D01*
G01X6532Y3975D02*
G01X6581Y3975D01*
G01X6532Y4177D02*
G01X6581Y4177D01*
G01X6532Y4379D02*
G01X6586Y4379D01*
G01X6532Y4581D02*
G01X7343Y4581D01*
G01X6532Y4783D02*
G01X6863Y4783D01*
G01X7094Y4783D02*
G01X7343Y4783D01*
G01X6532Y4985D02*
G01X6579Y4985D01*
G01X7160Y4491D02*
G01X7160Y4805D01*
G01X6958Y4491D02*
G01X6958Y4769D01*
G01X6756Y2769D02*
G01X6756Y3007D01*
G01X6756Y4491D02*
G01X6756Y4824D01*
G01X6554Y2732D02*
G01X6554Y5028D01*
G01X7343Y3007D02*
G01X7343Y2763D01*
G01X7303Y2769D02*
G01X7180Y2769D01*
G01X7180Y2769D02*
G01X7180Y2845D01*
G01X7180Y2845D02*
G01X7239Y2904D01*
G01X7294Y3007D02*
G01X7343Y3007D01*
G01X7281Y2965D02*
G01X7343Y2965D01*
G01X6130Y3421D02*
G01X6130Y3270D01*
G01X6077Y3369D02*
G01X6130Y3369D01*
G01X6130Y4228D02*
G01X6130Y4077D01*
G01X6065Y4177D02*
G01X6130Y4177D01*
G01X6532Y5413D02*
G01X6532Y6501D01*
G01X6532Y6501D02*
G01X6532Y9376D01*
G01X6653Y9316D02*
G01X7303Y9316D01*
G01X7343Y9321D02*
G01X7343Y5551D01*
G01X6532Y5591D02*
G01X6650Y5591D01*
G01X7306Y5591D02*
G01X7343Y5591D01*
G01X6532Y5793D02*
G01X7343Y5793D01*
G01X6532Y5995D02*
G01X7343Y5995D01*
G01X6532Y6197D02*
G01X7343Y6197D01*
G01X6532Y6399D02*
G01X7343Y6399D01*
G01X6532Y6601D02*
G01X7343Y6601D01*
G01X6532Y6803D02*
G01X7343Y6803D01*
G01X6532Y7005D02*
G01X7343Y7005D01*
G01X6532Y7207D02*
G01X7343Y7207D01*
G01X6532Y7409D02*
G01X7343Y7409D01*
G01X6532Y7611D02*
G01X7343Y7611D01*
G01X6532Y7813D02*
G01X7343Y7813D01*
G01X6532Y8015D02*
G01X7343Y8015D01*
G01X6532Y8217D02*
G01X7343Y8217D01*
G01X6532Y8419D02*
G01X7343Y8419D01*
G01X6532Y8621D02*
G01X7343Y8621D01*
G01X6532Y8823D02*
G01X7343Y8823D01*
G01X6532Y9025D02*
G01X7343Y9025D01*
G01X6532Y9227D02*
G01X7343Y9227D01*
G01X7160Y5686D02*
G01X7160Y9316D01*
G01X6958Y5721D02*
G01X6958Y9316D01*
G01X6756Y5667D02*
G01X6756Y9316D01*
G01X6554Y5462D02*
G01X6554Y9353D01*
G01X3453Y9653D02*
G01X3453Y9656D01*
G01X2157Y10952D02*
G01X2154Y10952D01*
G01X2154Y11546D02*
G01X2157Y11546D01*
G01X3453Y12842D02*
G01X3453Y12845D01*
G01X4047Y12845D02*
G01X4047Y12842D01*
G01X5343Y11546D02*
G01X5346Y11546D01*
G01X5346Y10952D02*
G01X5343Y10952D01*
G01X4047Y9656D02*
G01X4047Y9653D01*
G01X3430Y9833D02*
G01X4070Y9833D01*
G01X3342Y10035D02*
G01X4158Y10035D01*
G01X3146Y10237D02*
G01X4354Y10237D01*
G01X2834Y10439D02*
G01X3251Y10439D01*
G01X4249Y10439D02*
G01X4666Y10439D01*
G01X2741Y10641D02*
G01X3018Y10641D01*
G01X4482Y10641D02*
G01X4759Y10641D01*
G01X2533Y10843D02*
G01X2890Y10843D01*
G01X4610Y10843D02*
G01X4967Y10843D01*
G01X2208Y11045D02*
G01X2821Y11045D01*
G01X4679Y11045D02*
G01X5292Y11045D01*
G01X2251Y11247D02*
G01X2799Y11247D01*
G01X4701Y11247D02*
G01X5249Y11247D01*
G01X2210Y11449D02*
G01X2820Y11449D01*
G01X4680Y11449D02*
G01X5290Y11449D01*
G01X2526Y11651D02*
G01X2887Y11651D01*
G01X4613Y11651D02*
G01X4974Y11651D01*
G01X2738Y11853D02*
G01X3015Y11853D01*
G01X4485Y11853D02*
G01X4762Y11853D01*
G01X2833Y12055D02*
G01X3244Y12055D01*
G01X4256Y12055D02*
G01X4667Y12055D01*
G01X3140Y12257D02*
G01X4360Y12257D01*
G01X3339Y12459D02*
G01X4161Y12459D01*
G01X3429Y12661D02*
G01X4071Y12661D01*
G01X5342Y10952D02*
G01X5342Y10957D01*
G01X5342Y11541D02*
G01X5342Y11546D01*
G01X5140Y10922D02*
G01X5140Y11576D01*
G01X4938Y10824D02*
G01X4938Y11674D01*
G01X4736Y10604D02*
G01X4736Y11894D01*
G01X4534Y10325D02*
G01X4534Y10710D01*
G01X4534Y11788D02*
G01X4534Y12173D01*
G01X4332Y10221D02*
G01X4332Y10496D01*
G01X4332Y12002D02*
G01X4332Y12277D01*
G01X4130Y9988D02*
G01X4130Y10377D01*
G01X4130Y12121D02*
G01X4130Y12510D01*
G01X3928Y9718D02*
G01X3928Y10314D01*
G01X3928Y12184D02*
G01X3928Y12780D01*
G01X3726Y9750D02*
G01X3726Y10298D01*
G01X3726Y12200D02*
G01X3726Y12748D01*
G01X3524Y9697D02*
G01X3524Y10325D01*
G01X3524Y12173D02*
G01X3524Y12801D01*
G01X3322Y10064D02*
G01X3322Y10399D01*
G01X3322Y12099D02*
G01X3322Y12434D01*
G01X3120Y10254D02*
G01X3120Y10536D01*
G01X3120Y11962D02*
G01X3120Y12244D01*
G01X2918Y10339D02*
G01X2918Y10787D01*
G01X2918Y11711D02*
G01X2918Y12159D01*
G01X2716Y10675D02*
G01X2716Y11823D01*
G01X2514Y10854D02*
G01X2514Y11644D01*
G01X2312Y10934D02*
G01X2312Y11564D01*
G01X6532Y10209D02*
G01X6532Y12577D01*
G01X7343Y12439D02*
G01X7343Y11991D01*
G01X7343Y11991D02*
G01X6732Y11991D01*
G01X6581Y11840D02*
G01X6581Y10658D01*
G01X6732Y10507D02*
G01X6792Y10507D01*
G01X6777Y10429D02*
G01X6777Y10269D01*
G01X6777Y10269D02*
G01X6653Y10269D01*
G01X6532Y10237D02*
G01X6560Y10237D01*
G01X6532Y10439D02*
G01X6777Y10439D01*
G01X6532Y10641D02*
G01X6582Y10641D01*
G01X6532Y10843D02*
G01X6581Y10843D01*
G01X6532Y11045D02*
G01X6581Y11045D01*
G01X6532Y11247D02*
G01X6581Y11247D01*
G01X6532Y11449D02*
G01X6581Y11449D01*
G01X6532Y11651D02*
G01X6581Y11651D01*
G01X6532Y11853D02*
G01X6581Y11853D01*
G01X6532Y12055D02*
G01X7343Y12055D01*
G01X6532Y12257D02*
G01X7343Y12257D01*
G01X6532Y12459D02*
G01X6598Y12459D01*
G01X7160Y11991D02*
G01X7160Y12305D01*
G01X6958Y11991D02*
G01X6958Y12269D01*
G01X6756Y10269D02*
G01X6756Y10507D01*
G01X6756Y11991D02*
G01X6756Y12324D01*
G01X6554Y10232D02*
G01X6554Y12528D01*
G01X7343Y10507D02*
G01X7343Y10263D01*
G01X7303Y10269D02*
G01X7180Y10269D01*
G01X7180Y10269D02*
G01X7180Y10345D01*
G01X7180Y10345D02*
G01X7239Y10404D01*
G01X7294Y10507D02*
G01X7343Y10507D01*
G01X7267Y10439D02*
G01X7343Y10439D01*
G01X6130Y10921D02*
G01X6130Y10770D01*
G01X6044Y10843D02*
G01X6130Y10843D01*
G01X6130Y11728D02*
G01X6130Y11577D01*
G01X6050Y11651D02*
G01X6130Y11651D01*
G01X6532Y12913D02*
G01X6532Y14873D01*
G01X6473Y15015D02*
G01X5735Y15754D01*
G01X5735Y15754D02*
G01X5735Y15834D01*
G01X5584Y15986D02*
G01X6479Y16881D01*
G01X6653Y16816D02*
G01X7303Y16816D01*
G01X7343Y16821D02*
G01X7343Y13052D01*
G01X6532Y13065D02*
G01X6625Y13065D01*
G01X7332Y13065D02*
G01X7343Y13065D01*
G01X6532Y13267D02*
G01X7343Y13267D01*
G01X6532Y13469D02*
G01X7343Y13469D01*
G01X6532Y13671D02*
G01X7343Y13671D01*
G01X6532Y13873D02*
G01X7343Y13873D01*
G01X6532Y14075D02*
G01X7343Y14075D01*
G01X6532Y14277D02*
G01X7343Y14277D01*
G01X6532Y14479D02*
G01X7343Y14479D01*
G01X6532Y14681D02*
G01X7343Y14681D01*
G01X6532Y14883D02*
G01X7343Y14883D01*
G01X6404Y15085D02*
G01X7343Y15085D01*
G01X6202Y15287D02*
G01X7343Y15287D01*
G01X6000Y15489D02*
G01X7343Y15489D01*
G01X5798Y15691D02*
G01X7343Y15691D01*
G01X5723Y15893D02*
G01X7343Y15893D01*
G01X5693Y16095D02*
G01X7343Y16095D01*
G01X5895Y16297D02*
G01X7343Y16297D01*
G01X6097Y16499D02*
G01X7343Y16499D01*
G01X6299Y16701D02*
G01X7343Y16701D01*
G01X6498Y16903D02*
G01X6516Y16903D01*
G01X7160Y13186D02*
G01X7160Y16816D01*
G01X6958Y13221D02*
G01X6958Y16816D01*
G01X6756Y13167D02*
G01X6756Y16816D01*
G01X6554Y12962D02*
G01X6554Y16853D01*
G01X6352Y15137D02*
G01X6352Y16754D01*
G01X6150Y15339D02*
G01X6150Y16552D01*
G01X5948Y15541D02*
G01X5948Y16350D01*
G01X5746Y15743D02*
G01X5746Y16148D01*
G01X5786Y15113D02*
G01X5718Y15113D01*
G01X5735Y15184D02*
G01X5807Y15112D01*
G01X5746Y15113D02*
G01X5746Y15173D01*
G01X4800Y15113D02*
G01X2571Y15113D01*
G01X2754Y15672D02*
G01X2892Y15811D01*
G01X2952Y15953D02*
G01X2952Y16168D01*
G01X5453Y16842D02*
G01X5453Y17046D01*
G01X5453Y17046D02*
G01X5657Y17046D01*
G01X6135Y17233D02*
G01X6135Y17106D01*
G01X6135Y17106D02*
G01X5116Y16087D01*
G01X5062Y15986D02*
G01X4934Y15986D01*
G01X4782Y15834D02*
G01X4782Y15184D01*
G01X2727Y15287D02*
G01X4782Y15287D01*
G01X2782Y15489D02*
G01X4782Y15489D01*
G01X2773Y15691D02*
G01X4782Y15691D01*
G01X2942Y15893D02*
G01X4794Y15893D01*
G01X2952Y16095D02*
G01X5124Y16095D01*
G01X3194Y16297D02*
G01X3533Y16297D01*
G01X3967Y16297D02*
G01X4306Y16297D01*
G01X5194Y16297D02*
G01X5326Y16297D01*
G01X5363Y16499D02*
G01X5527Y16499D01*
G01X5438Y16701D02*
G01X5729Y16701D01*
G01X5453Y16903D02*
G01X5931Y16903D01*
G01X5938Y17105D02*
G01X6133Y17105D01*
G01X5948Y16920D02*
G01X5948Y17109D01*
G01X5746Y16718D02*
G01X5746Y17052D01*
G01X5544Y16516D02*
G01X5544Y17046D01*
G01X5342Y16313D02*
G01X5342Y16463D01*
G01X5140Y16111D02*
G01X5140Y16257D01*
G01X4938Y15986D02*
G01X4938Y16165D01*
G01X4736Y15113D02*
G01X4736Y16139D01*
G01X4534Y15113D02*
G01X4534Y16173D01*
G01X4332Y15113D02*
G01X4332Y16277D01*
G01X4130Y15113D02*
G01X4130Y16422D01*
G01X3928Y15113D02*
G01X3928Y16280D01*
G01X3726Y15113D02*
G01X3726Y16248D01*
G01X3524Y15113D02*
G01X3524Y16301D01*
G01X3322Y15113D02*
G01X3322Y16434D01*
G01X3120Y15113D02*
G01X3120Y16244D01*
G01X2918Y15113D02*
G01X2918Y15842D01*
G01X2716Y15113D02*
G01X2716Y15267D01*
G01X3453Y17153D02*
G01X3453Y17156D01*
G01X2157Y18452D02*
G01X2154Y18452D01*
G01X2154Y19046D02*
G01X2157Y19046D01*
G01X3453Y20342D02*
G01X3453Y20345D01*
G01X4047Y20345D02*
G01X4047Y20342D01*
G01X5343Y19046D02*
G01X5346Y19046D01*
G01X5346Y18452D02*
G01X5343Y18452D01*
G01X4047Y17156D02*
G01X4047Y17153D01*
G01X3436Y17307D02*
G01X4064Y17307D01*
G01X3358Y17509D02*
G01X4142Y17509D01*
G01X3182Y17711D02*
G01X4318Y17711D01*
G01X2841Y17913D02*
G01X3296Y17913D01*
G01X4204Y17913D02*
G01X4659Y17913D01*
G01X2757Y18115D02*
G01X3041Y18115D01*
G01X4459Y18115D02*
G01X4743Y18115D01*
G01X2572Y18317D02*
G01X2902Y18317D01*
G01X4598Y18317D02*
G01X4928Y18317D01*
G01X2196Y18519D02*
G01X2827Y18519D01*
G01X4673Y18519D02*
G01X5304Y18519D01*
G01X2251Y18721D02*
G01X2799Y18721D01*
G01X4701Y18721D02*
G01X5249Y18721D01*
G01X2220Y18923D02*
G01X2814Y18923D01*
G01X4686Y18923D02*
G01X5280Y18923D01*
G01X2480Y19125D02*
G01X2876Y19125D01*
G01X4624Y19125D02*
G01X5020Y19125D01*
G01X2719Y19327D02*
G01X2994Y19327D01*
G01X4506Y19327D02*
G01X4781Y19327D01*
G01X2825Y19529D02*
G01X3205Y19529D01*
G01X4295Y19529D02*
G01X4675Y19529D01*
G01X3097Y19731D02*
G01X4403Y19731D01*
G01X3322Y19933D02*
G01X4178Y19933D01*
G01X3422Y20135D02*
G01X4078Y20135D01*
G01X3453Y20337D02*
G01X3464Y20337D01*
G01X4036Y20337D02*
G01X4047Y20337D01*
G01X5342Y18452D02*
G01X5342Y18457D01*
G01X5342Y19041D02*
G01X5342Y19046D01*
G01X5140Y18422D02*
G01X5140Y19076D01*
G01X4938Y18324D02*
G01X4938Y19174D01*
G01X4736Y18104D02*
G01X4736Y19394D01*
G01X4534Y17825D02*
G01X4534Y18210D01*
G01X4534Y19288D02*
G01X4534Y19673D01*
G01X4332Y17721D02*
G01X4332Y17996D01*
G01X4332Y19502D02*
G01X4332Y19777D01*
G01X4130Y17488D02*
G01X4130Y17877D01*
G01X4130Y19621D02*
G01X4130Y20010D01*
G01X3928Y17218D02*
G01X3928Y17814D01*
G01X3928Y19684D02*
G01X3928Y20280D01*
G01X3726Y17250D02*
G01X3726Y17798D01*
G01X3726Y19700D02*
G01X3726Y20248D01*
G01X3524Y17197D02*
G01X3524Y17825D01*
G01X3524Y19673D02*
G01X3524Y20301D01*
G01X3322Y17564D02*
G01X3322Y17899D01*
G01X3322Y19599D02*
G01X3322Y19934D01*
G01X3120Y17754D02*
G01X3120Y18036D01*
G01X3120Y19462D02*
G01X3120Y19744D01*
G01X2918Y17839D02*
G01X2918Y18287D01*
G01X2918Y19211D02*
G01X2918Y19659D01*
G01X2716Y18175D02*
G01X2716Y19323D01*
G01X2514Y18354D02*
G01X2514Y19144D01*
G01X2312Y18434D02*
G01X2312Y19064D01*
G01X6538Y17715D02*
G01X6538Y20064D01*
G01X7343Y19939D02*
G01X7343Y19491D01*
G01X7343Y19491D02*
G01X6732Y19491D01*
G01X6581Y19340D02*
G01X6581Y18158D01*
G01X6732Y18007D02*
G01X6792Y18007D01*
G01X6777Y17929D02*
G01X6777Y17769D01*
G01X6777Y17769D02*
G01X6653Y17769D01*
G01X6538Y17913D02*
G01X6777Y17913D01*
G01X6538Y18115D02*
G01X6587Y18115D01*
G01X6538Y18317D02*
G01X6581Y18317D01*
G01X6538Y18519D02*
G01X6581Y18519D01*
G01X6538Y18721D02*
G01X6581Y18721D01*
G01X6538Y18923D02*
G01X6581Y18923D01*
G01X6538Y19125D02*
G01X6581Y19125D01*
G01X6538Y19327D02*
G01X6581Y19327D01*
G01X6538Y19529D02*
G01X7343Y19529D01*
G01X6538Y19731D02*
G01X7343Y19731D01*
G01X6538Y19933D02*
G01X6619Y19933D01*
G01X7338Y19933D02*
G01X7343Y19933D01*
G01X7160Y19491D02*
G01X7160Y19805D01*
G01X6958Y19491D02*
G01X6958Y19769D01*
G01X6756Y17769D02*
G01X6756Y18007D01*
G01X6756Y19491D02*
G01X6756Y19824D01*
G01X6554Y17732D02*
G01X6554Y20028D01*
G01X7343Y18007D02*
G01X7343Y17763D01*
G01X7303Y17769D02*
G01X7180Y17769D01*
G01X7180Y17769D02*
G01X7180Y17845D01*
G01X7180Y17845D02*
G01X7239Y17904D01*
G01X7294Y18007D02*
G01X7343Y18007D01*
G01X7247Y17913D02*
G01X7343Y17913D01*
G01X6135Y18427D02*
G01X6135Y18265D01*
G01X6072Y18317D02*
G01X6135Y18317D01*
G01X6135Y19233D02*
G01X6135Y19071D01*
G01X6082Y19125D02*
G01X6135Y19125D01*
G01X6538Y20426D02*
G01X6538Y22573D01*
G01X6538Y22573D02*
G01X6538Y24370D01*
G01X6653Y24316D02*
G01X7303Y24316D01*
G01X7343Y24321D02*
G01X7343Y20552D01*
G01X6538Y20539D02*
G01X6603Y20539D01*
G01X6538Y20741D02*
G01X7343Y20741D01*
G01X6538Y20943D02*
G01X7343Y20943D01*
G01X6538Y21145D02*
G01X7343Y21145D01*
G01X6538Y21347D02*
G01X7343Y21347D01*
G01X6538Y21549D02*
G01X7343Y21549D01*
G01X6538Y21751D02*
G01X7343Y21751D01*
G01X6538Y21953D02*
G01X7343Y21953D01*
G01X6538Y22155D02*
G01X7343Y22155D01*
G01X6538Y22357D02*
G01X7343Y22357D01*
G01X6538Y22559D02*
G01X7343Y22559D01*
G01X6538Y22761D02*
G01X7343Y22761D01*
G01X6538Y22963D02*
G01X7343Y22963D01*
G01X6538Y23165D02*
G01X7343Y23165D01*
G01X6538Y23367D02*
G01X7343Y23367D01*
G01X6538Y23569D02*
G01X7343Y23569D01*
G01X6538Y23771D02*
G01X7343Y23771D01*
G01X6538Y23973D02*
G01X7343Y23973D01*
G01X6538Y24175D02*
G01X7343Y24175D01*
G01X7160Y20686D02*
G01X7160Y24316D01*
G01X6958Y20721D02*
G01X6958Y24316D01*
G01X6756Y20667D02*
G01X6756Y24316D01*
G01X6554Y20462D02*
G01X6554Y24353D01*
G01X3453Y24653D02*
G01X3453Y24656D01*
G01X2157Y25952D02*
G01X2154Y25952D01*
G01X2154Y26546D02*
G01X2157Y26546D01*
G01X3453Y27842D02*
G01X3453Y27845D01*
G01X4047Y27845D02*
G01X4047Y27842D01*
G01X5343Y26546D02*
G01X5346Y26546D01*
G01X5346Y25952D02*
G01X5343Y25952D01*
G01X4047Y24656D02*
G01X4047Y24653D01*
G01X3442Y24781D02*
G01X4058Y24781D01*
G01X3372Y24983D02*
G01X4128Y24983D01*
G01X3213Y25185D02*
G01X4287Y25185D01*
G01X2847Y25387D02*
G01X3348Y25387D01*
G01X4152Y25387D02*
G01X4653Y25387D01*
G01X2773Y25589D02*
G01X3065Y25589D01*
G01X4435Y25589D02*
G01X4727Y25589D01*
G01X2605Y25791D02*
G01X2916Y25791D01*
G01X4584Y25791D02*
G01X4895Y25791D01*
G01X2181Y25993D02*
G01X2834Y25993D01*
G01X4666Y25993D02*
G01X5319Y25993D01*
G01X2249Y26195D02*
G01X2800Y26195D01*
G01X4700Y26195D02*
G01X5251Y26195D01*
G01X2229Y26397D02*
G01X2810Y26397D01*
G01X4690Y26397D02*
G01X5271Y26397D01*
G01X2424Y26599D02*
G01X2865Y26599D01*
G01X4635Y26599D02*
G01X5076Y26599D01*
G01X2699Y26801D02*
G01X2975Y26801D01*
G01X4525Y26801D02*
G01X4801Y26801D01*
G01X2816Y27003D02*
G01X3169Y27003D01*
G01X4331Y27003D02*
G01X4684Y27003D01*
G01X3047Y27205D02*
G01X4453Y27205D01*
G01X3302Y27407D02*
G01X4198Y27407D01*
G01X3413Y27609D02*
G01X4087Y27609D01*
G01X3452Y27811D02*
G01X3506Y27811D01*
G01X3994Y27811D02*
G01X4048Y27811D01*
G01X5342Y25952D02*
G01X5342Y25957D01*
G01X5342Y26541D02*
G01X5342Y26546D01*
G01X5140Y25922D02*
G01X5140Y26576D01*
G01X4938Y25824D02*
G01X4938Y26674D01*
G01X4736Y25604D02*
G01X4736Y26894D01*
G01X4534Y25325D02*
G01X4534Y25710D01*
G01X4534Y26788D02*
G01X4534Y27173D01*
G01X4332Y25221D02*
G01X4332Y25496D01*
G01X4332Y27002D02*
G01X4332Y27277D01*
G01X4130Y24988D02*
G01X4130Y25377D01*
G01X4130Y27121D02*
G01X4130Y27510D01*
G01X3928Y24718D02*
G01X3928Y25314D01*
G01X3928Y27184D02*
G01X3928Y27780D01*
G01X3726Y24750D02*
G01X3726Y25298D01*
G01X3726Y27200D02*
G01X3726Y27748D01*
G01X3524Y24697D02*
G01X3524Y25325D01*
G01X3524Y27173D02*
G01X3524Y27801D01*
G01X3322Y25064D02*
G01X3322Y25399D01*
G01X3322Y27099D02*
G01X3322Y27434D01*
G01X3120Y25254D02*
G01X3120Y25536D01*
G01X3120Y26962D02*
G01X3120Y27244D01*
G01X2918Y25339D02*
G01X2918Y25787D01*
G01X2918Y26711D02*
G01X2918Y27159D01*
G01X2716Y25675D02*
G01X2716Y26823D01*
G01X2514Y25854D02*
G01X2514Y26644D01*
G01X2312Y25934D02*
G01X2312Y26564D01*
G01X6538Y25215D02*
G01X6538Y27564D01*
G01X7343Y27438D02*
G01X7343Y26991D01*
G01X7343Y26991D02*
G01X6732Y26991D01*
G01X6581Y26840D02*
G01X6581Y25658D01*
G01X6732Y25507D02*
G01X6792Y25507D01*
G01X6777Y25429D02*
G01X6777Y25269D01*
G01X6777Y25269D02*
G01X6653Y25269D01*
G01X6538Y25387D02*
G01X6777Y25387D01*
G01X6538Y25589D02*
G01X6598Y25589D01*
G01X6538Y25791D02*
G01X6581Y25791D01*
G01X6538Y25993D02*
G01X6581Y25993D01*
G01X6538Y26195D02*
G01X6581Y26195D01*
G01X6538Y26397D02*
G01X6581Y26397D01*
G01X6538Y26599D02*
G01X6581Y26599D01*
G01X6538Y26801D02*
G01X6581Y26801D01*
G01X6538Y27003D02*
G01X7343Y27003D01*
G01X6538Y27205D02*
G01X7343Y27205D01*
G01X6538Y27407D02*
G01X6643Y27407D01*
G01X7314Y27407D02*
G01X7343Y27407D01*
G01X7160Y26991D02*
G01X7160Y27305D01*
G01X6958Y26991D02*
G01X6958Y27269D01*
G01X6756Y25269D02*
G01X6756Y25507D01*
G01X6756Y26991D02*
G01X6756Y27324D01*
G01X6554Y25232D02*
G01X6554Y27528D01*
G01X7343Y25507D02*
G01X7343Y25263D01*
G01X7303Y25269D02*
G01X7180Y25269D01*
G01X7180Y25269D02*
G01X7180Y25345D01*
G01X7180Y25345D02*
G01X7239Y25404D01*
G01X7294Y25507D02*
G01X7343Y25507D01*
G01X7222Y25387D02*
G01X7343Y25387D01*
G01X6135Y25927D02*
G01X6135Y25765D01*
G01X6105Y25791D02*
G01X6135Y25791D01*
G01X6135Y26733D02*
G01X6135Y26571D01*
G01X6109Y26599D02*
G01X6135Y26599D01*
G01X7031Y156D02*
G01X5733Y156D01*
G01X5735Y184D02*
G01X5735Y834D01*
G01X5585Y986D02*
G01X6473Y1875D01*
G01X6653Y1816D02*
G01X7303Y1816D01*
G01X7343Y1821D02*
G01X7343Y481D01*
G01X5735Y339D02*
G01X7315Y339D01*
G01X5735Y541D02*
G01X7343Y541D01*
G01X5735Y743D02*
G01X7343Y743D01*
G01X5687Y945D02*
G01X7343Y945D01*
G01X5746Y1147D02*
G01X7343Y1147D01*
G01X5948Y1349D02*
G01X7343Y1349D01*
G01X6150Y1551D02*
G01X7343Y1551D01*
G01X6352Y1753D02*
G01X7343Y1753D01*
G01X7160Y184D02*
G01X7160Y1816D01*
G01X6958Y156D02*
G01X6958Y1816D01*
G01X6756Y156D02*
G01X6756Y1816D01*
G01X6554Y156D02*
G01X6554Y1853D01*
G01X6352Y156D02*
G01X6352Y1753D01*
G01X6150Y156D02*
G01X6150Y1551D01*
G01X5948Y156D02*
G01X5948Y1349D01*
G01X5746Y156D02*
G01X5746Y1147D01*
G01X4785Y156D02*
G01X4492Y156D01*
G01X4492Y156D02*
G01X4492Y767D01*
G01X4341Y918D02*
G01X3159Y918D01*
G01X3008Y767D02*
G01X3008Y156D01*
G01X3008Y156D02*
G01X2626Y156D01*
G01X2507Y941D02*
G01X2507Y1182D01*
G01X5453Y1842D02*
G01X5453Y2046D01*
G01X5453Y2046D02*
G01X5657Y2046D01*
G01X6130Y2228D02*
G01X6130Y2100D01*
G01X6130Y2100D02*
G01X5117Y1087D01*
G01X5062Y986D02*
G01X4934Y986D01*
G01X4782Y834D02*
G01X4782Y184D01*
G01X2751Y339D02*
G01X3008Y339D01*
G01X4492Y339D02*
G01X4782Y339D01*
G01X2781Y541D02*
G01X3008Y541D01*
G01X4492Y541D02*
G01X4782Y541D01*
G01X2721Y743D02*
G01X3008Y743D01*
G01X4492Y743D02*
G01X4782Y743D01*
G01X2507Y945D02*
G01X4830Y945D01*
G01X2507Y1147D02*
G01X2645Y1147D01*
G01X2855Y1147D02*
G01X4645Y1147D01*
G01X4855Y1147D02*
G01X5176Y1147D01*
G01X3251Y1349D02*
G01X3448Y1349D01*
G01X4052Y1349D02*
G01X4249Y1349D01*
G01X5251Y1349D02*
G01X5378Y1349D01*
G01X5390Y1551D02*
G01X5580Y1551D01*
G01X5447Y1753D02*
G01X5782Y1753D01*
G01X5453Y1955D02*
G01X5984Y1955D01*
G01X6036Y2157D02*
G01X6130Y2157D01*
G01X5948Y1919D02*
G01X5948Y2109D01*
G01X5746Y1717D02*
G01X5746Y2052D01*
G01X5544Y1515D02*
G01X5544Y2046D01*
G01X5342Y1313D02*
G01X5342Y1463D01*
G01X5140Y1111D02*
G01X5140Y1257D01*
G01X4938Y986D02*
G01X4938Y1165D01*
G01X4736Y156D02*
G01X4736Y1139D01*
G01X4534Y156D02*
G01X4534Y1173D01*
G01X4332Y918D02*
G01X4332Y1277D01*
G01X4130Y918D02*
G01X4130Y1422D01*
G01X3928Y918D02*
G01X3928Y1280D01*
G01X3726Y918D02*
G01X3726Y1248D01*
G01X3524Y918D02*
G01X3524Y1301D01*
G01X3322Y918D02*
G01X3322Y1434D01*
G01X3120Y913D02*
G01X3120Y1244D01*
G01X2918Y156D02*
G01X2918Y1159D01*
G01X2716Y156D02*
G01X2716Y267D01*
G01X2716Y751D02*
G01X2716Y1140D01*
G01X2514Y938D02*
G01X2514Y1180D01*
G01X156Y468D02*
G01X156Y3007D01*
G01X156Y3007D02*
G01X768Y3007D01*
G01X919Y3158D02*
G01X919Y4340D01*
G01X768Y4491D02*
G01X156Y4491D01*
G01X156Y4491D02*
G01X156Y10507D01*
G01X156Y10507D02*
G01X768Y10507D01*
G01X919Y10658D02*
G01X919Y11840D01*
G01X768Y11991D02*
G01X156Y11991D01*
G01X156Y11991D02*
G01X156Y18007D01*
G01X156Y18007D02*
G01X768Y18007D01*
G01X919Y18158D02*
G01X919Y19340D01*
G01X768Y19491D02*
G01X156Y19491D01*
G01X156Y19491D02*
G01X156Y25507D01*
G01X156Y25507D02*
G01X768Y25507D01*
G01X919Y25658D02*
G01X919Y26840D01*
G01X768Y26991D02*
G01X156Y26991D01*
G01X156Y26991D02*
G01X156Y29531D01*
G01X468Y29843D02*
G01X3008Y29843D01*
G01X3008Y29843D02*
G01X3008Y29231D01*
G01X3159Y29080D02*
G01X4341Y29080D01*
G01X4492Y29231D02*
G01X4492Y29843D01*
G01X4492Y29843D02*
G01X7031Y29843D01*
G01X7343Y29531D02*
G01X7343Y28052D01*
G01X6538Y27926D02*
G01X6538Y28512D01*
G01X6135Y28512D02*
G01X6135Y27765D01*
G01X5657Y27952D02*
G01X5453Y27952D01*
G01X5453Y27952D02*
G01X5453Y28156D01*
G01X2047Y28156D02*
G01X2047Y27952D01*
G01X2047Y27952D02*
G01X1843Y27952D01*
G01X1843Y24546D02*
G01X2047Y24546D01*
G01X2047Y24546D02*
G01X2047Y24342D01*
G01X5453Y24342D02*
G01X5453Y24546D01*
G01X5453Y24546D02*
G01X5657Y24546D01*
G01X6135Y24733D02*
G01X6135Y22775D01*
G01X6135Y22775D02*
G01X5735Y22775D01*
G01X5735Y22775D02*
G01X5735Y23334D01*
G01X5584Y23486D02*
G01X4934Y23486D01*
G01X4782Y23334D02*
G01X4782Y22684D01*
G01X4934Y22533D02*
G01X5062Y22533D01*
G01X5259Y22371D02*
G01X6135Y22371D01*
G01X6135Y22371D02*
G01X6135Y20265D01*
G01X5657Y20452D02*
G01X5453Y20452D01*
G01X5453Y20452D02*
G01X5453Y20656D01*
G01X2047Y20656D02*
G01X2047Y20452D01*
G01X2047Y20452D02*
G01X1843Y20452D01*
G01X1843Y17046D02*
G01X2047Y17046D01*
G01X2047Y17046D02*
G01X2047Y16842D01*
G01X2548Y16168D02*
G01X2548Y16036D01*
G01X2548Y16036D02*
G01X2469Y15957D01*
G01X2041Y15113D02*
G01X1882Y15113D01*
G01X1731Y14962D02*
G01X1731Y14412D01*
G01X1882Y14260D02*
G01X5786Y14260D01*
G01X5938Y14412D02*
G01X5938Y14962D01*
G01X5936Y14983D02*
G01X6130Y14790D01*
G01X6130Y14790D02*
G01X6130Y12770D01*
G01X5657Y12952D02*
G01X5453Y12952D01*
G01X5453Y12952D02*
G01X5453Y13156D01*
G01X2047Y13156D02*
G01X2047Y12952D01*
G01X2047Y12952D02*
G01X1843Y12952D01*
G01X1843Y9546D02*
G01X2047Y9546D01*
G01X2047Y9546D02*
G01X2047Y9342D01*
G01X2548Y8668D02*
G01X2548Y8536D01*
G01X2548Y8536D02*
G01X2469Y8457D01*
G01X2754Y8172D02*
G01X2892Y8311D01*
G01X2952Y8453D02*
G01X2952Y8668D01*
G01X5453Y9342D02*
G01X5453Y9546D01*
G01X5453Y9546D02*
G01X5657Y9546D01*
G01X6130Y9728D02*
G01X6130Y6987D01*
G01X6130Y6987D02*
G01X5584Y7533D01*
G01X5735Y7684D02*
G01X5735Y8334D01*
G01X5584Y8486D02*
G01X4934Y8486D01*
G01X4782Y8334D02*
G01X4782Y7684D01*
G01X4934Y7533D02*
G01X5062Y7533D01*
G01X5117Y7431D02*
G01X6130Y6418D01*
G01X6130Y6418D02*
G01X6130Y5270D01*
G01X5657Y5452D02*
G01X5453Y5452D01*
G01X5453Y5452D02*
G01X5453Y5656D01*
G01X2047Y5656D02*
G01X2047Y5452D01*
G01X2047Y5452D02*
G01X1843Y5452D01*
G01X1843Y2046D02*
G01X2047Y2046D01*
G01X2047Y2046D02*
G01X2047Y1842D01*
G01X2105Y1555D02*
G01X2105Y941D01*
G01X1985Y156D02*
G01X468Y157D01*
G01X184Y339D02*
G01X1861Y339D01*
G01X156Y541D02*
G01X1830Y541D01*
G01X156Y743D02*
G01X1891Y743D01*
G01X156Y945D02*
G01X2105Y945D01*
G01X156Y1147D02*
G01X2105Y1147D01*
G01X156Y1349D02*
G01X2105Y1349D01*
G01X156Y1551D02*
G01X2105Y1551D01*
G01X156Y1753D02*
G01X2053Y1753D01*
G01X156Y1955D02*
G01X2047Y1955D01*
G01X156Y2157D02*
G01X1464Y2157D01*
G01X156Y2359D02*
G01X1258Y2359D01*
G01X156Y2561D02*
G01X1166Y2561D01*
G01X156Y2763D02*
G01X1140Y2763D01*
G01X156Y2965D02*
G01X1174Y2965D01*
G01X919Y3167D02*
G01X1278Y3167D01*
G01X919Y3369D02*
G01X1423Y3369D01*
G01X919Y3571D02*
G01X1281Y3571D01*
G01X919Y3773D02*
G01X1249Y3773D01*
G01X919Y3975D02*
G01X1302Y3975D01*
G01X919Y4177D02*
G01X1435Y4177D01*
G01X914Y4379D02*
G01X1245Y4379D01*
G01X156Y4581D02*
G01X1160Y4581D01*
G01X156Y4783D02*
G01X1141Y4783D01*
G01X156Y4985D02*
G01X1181Y4985D01*
G01X156Y5187D02*
G01X1293Y5187D01*
G01X156Y5389D02*
G01X1552Y5389D01*
G01X5948Y5389D02*
G01X6130Y5389D01*
G01X156Y5591D02*
G01X2047Y5591D01*
G01X5453Y5591D02*
G01X6130Y5591D01*
G01X156Y5793D02*
G01X2061Y5793D01*
G01X5439Y5793D02*
G01X6130Y5793D01*
G01X156Y5995D02*
G01X2134Y5995D01*
G01X5366Y5995D02*
G01X6130Y5995D01*
G01X156Y6197D02*
G01X2301Y6197D01*
G01X3199Y6197D02*
G01X3524Y6197D01*
G01X3976Y6197D02*
G01X4301Y6197D01*
G01X5199Y6197D02*
G01X6130Y6197D01*
G01X156Y6399D02*
G01X6130Y6399D01*
G01X156Y6601D02*
G01X5946Y6601D01*
G01X156Y6803D02*
G01X5744Y6803D01*
G01X156Y7005D02*
G01X5542Y7005D01*
G01X6112Y7005D02*
G01X6130Y7005D01*
G01X156Y7207D02*
G01X5340Y7207D01*
G01X5910Y7207D02*
G01X6130Y7207D01*
G01X156Y7409D02*
G01X5138Y7409D01*
G01X5708Y7409D02*
G01X6130Y7409D01*
G01X156Y7611D02*
G01X2044Y7611D01*
G01X2568Y7611D02*
G01X4801Y7611D01*
G01X5716Y7611D02*
G01X6130Y7611D01*
G01X156Y7813D02*
G01X1872Y7813D01*
G01X2740Y7813D02*
G01X4782Y7813D01*
G01X5735Y7813D02*
G01X6130Y7813D01*
G01X156Y8015D02*
G01X1829Y8015D01*
G01X2782Y8015D02*
G01X4782Y8015D01*
G01X5735Y8015D02*
G01X6130Y8015D01*
G01X156Y8217D02*
G01X1877Y8217D01*
G01X2799Y8217D02*
G01X4782Y8217D01*
G01X5735Y8217D02*
G01X6130Y8217D01*
G01X156Y8419D02*
G01X2063Y8419D01*
G01X2949Y8419D02*
G01X4808Y8419D01*
G01X5709Y8419D02*
G01X6130Y8419D01*
G01X156Y8621D02*
G01X2548Y8621D01*
G01X2952Y8621D02*
G01X6130Y8621D01*
G01X156Y8823D02*
G01X2276Y8823D01*
G01X3224Y8823D02*
G01X3486Y8823D01*
G01X4014Y8823D02*
G01X4276Y8823D01*
G01X5224Y8823D02*
G01X6130Y8823D01*
G01X156Y9025D02*
G01X2123Y9025D01*
G01X5377Y9025D02*
G01X6130Y9025D01*
G01X156Y9227D02*
G01X2057Y9227D01*
G01X5443Y9227D02*
G01X6130Y9227D01*
G01X156Y9429D02*
G01X2047Y9429D01*
G01X5453Y9429D02*
G01X6130Y9429D01*
G01X156Y9631D02*
G01X1509Y9631D01*
G01X5991Y9631D02*
G01X6130Y9631D01*
G01X156Y9833D02*
G01X1276Y9833D01*
G01X156Y10035D02*
G01X1173Y10035D01*
G01X156Y10237D02*
G01X1140Y10237D01*
G01X156Y10439D02*
G01X1166Y10439D01*
G01X918Y10641D02*
G01X1259Y10641D01*
G01X919Y10843D02*
G01X1456Y10843D01*
G01X919Y11045D02*
G01X1292Y11045D01*
G01X919Y11247D02*
G01X1249Y11247D01*
G01X919Y11449D02*
G01X1290Y11449D01*
G01X919Y11651D02*
G01X1450Y11651D01*
G01X919Y11853D02*
G01X1262Y11853D01*
G01X156Y12055D02*
G01X1167Y12055D01*
G01X156Y12257D02*
G01X1140Y12257D01*
G01X156Y12459D02*
G01X1172Y12459D01*
G01X156Y12661D02*
G01X1273Y12661D01*
G01X156Y12863D02*
G01X1500Y12863D01*
G01X6000Y12863D02*
G01X6130Y12863D01*
G01X156Y13065D02*
G01X2047Y13065D01*
G01X5453Y13065D02*
G01X6130Y13065D01*
G01X156Y13267D02*
G01X2056Y13267D01*
G01X5444Y13267D02*
G01X6130Y13267D01*
G01X156Y13469D02*
G01X2121Y13469D01*
G01X5379Y13469D02*
G01X6130Y13469D01*
G01X156Y13671D02*
G01X2271Y13671D01*
G01X3229Y13671D02*
G01X3479Y13671D01*
G01X4021Y13671D02*
G01X4271Y13671D01*
G01X5229Y13671D02*
G01X6130Y13671D01*
G01X156Y13873D02*
G01X6130Y13873D01*
G01X156Y14075D02*
G01X6130Y14075D01*
G01X156Y14277D02*
G01X1813Y14277D01*
G01X5855Y14277D02*
G01X6130Y14277D01*
G01X156Y14479D02*
G01X1731Y14479D01*
G01X5938Y14479D02*
G01X6130Y14479D01*
G01X156Y14681D02*
G01X1731Y14681D01*
G01X5938Y14681D02*
G01X6130Y14681D01*
G01X156Y14883D02*
G01X1731Y14883D01*
G01X5938Y14883D02*
G01X6036Y14883D01*
G01X156Y15085D02*
G01X1794Y15085D01*
G01X156Y15287D02*
G01X1884Y15287D01*
G01X156Y15489D02*
G01X1830Y15489D01*
G01X156Y15691D02*
G01X1865Y15691D01*
G01X156Y15893D02*
G01X2023Y15893D01*
G01X156Y16095D02*
G01X2548Y16095D01*
G01X156Y16297D02*
G01X2306Y16297D01*
G01X156Y16499D02*
G01X2137Y16499D01*
G01X156Y16701D02*
G01X2062Y16701D01*
G01X156Y16903D02*
G01X2047Y16903D01*
G01X156Y17105D02*
G01X1562Y17105D01*
G01X156Y17307D02*
G01X1296Y17307D01*
G01X156Y17509D02*
G01X1182Y17509D01*
G01X156Y17711D02*
G01X1141Y17711D01*
G01X156Y17913D02*
G01X1159Y17913D01*
G01X913Y18115D02*
G01X1243Y18115D01*
G01X919Y18317D02*
G01X1428Y18317D01*
G01X919Y18519D02*
G01X1304Y18519D01*
G01X919Y18721D02*
G01X1249Y18721D01*
G01X919Y18923D02*
G01X1280Y18923D01*
G01X919Y19125D02*
G01X1418Y19125D01*
G01X919Y19327D02*
G01X1281Y19327D01*
G01X156Y19529D02*
G01X1175Y19529D01*
G01X156Y19731D02*
G01X1140Y19731D01*
G01X156Y19933D02*
G01X1164Y19933D01*
G01X156Y20135D02*
G01X1255Y20135D01*
G01X156Y20337D02*
G01X1457Y20337D01*
G01X6043Y20337D02*
G01X6135Y20337D01*
G01X156Y20539D02*
G01X2047Y20539D01*
G01X5453Y20539D02*
G01X6135Y20539D01*
G01X156Y20741D02*
G01X2052Y20741D01*
G01X5448Y20741D02*
G01X6135Y20741D01*
G01X156Y20943D02*
G01X2108Y20943D01*
G01X5392Y20943D02*
G01X6135Y20943D01*
G01X156Y21145D02*
G01X2245Y21145D01*
G01X3255Y21145D02*
G01X3442Y21145D01*
G01X4058Y21145D02*
G01X4245Y21145D01*
G01X5255Y21145D02*
G01X6135Y21145D01*
G01X156Y21347D02*
G01X2619Y21347D01*
G01X2881Y21347D02*
G01X4619Y21347D01*
G01X4881Y21347D02*
G01X6135Y21347D01*
G01X156Y21549D02*
G01X6135Y21549D01*
G01X156Y21751D02*
G01X6135Y21751D01*
G01X156Y21953D02*
G01X6135Y21953D01*
G01X156Y22155D02*
G01X6135Y22155D01*
G01X156Y22357D02*
G01X6135Y22357D01*
G01X156Y22559D02*
G01X2150Y22559D01*
G01X2462Y22559D02*
G01X4849Y22559D01*
G01X156Y22761D02*
G01X1899Y22761D01*
G01X2713Y22761D02*
G01X4782Y22761D01*
G01X156Y22963D02*
G01X1832Y22963D01*
G01X2780Y22963D02*
G01X4782Y22963D01*
G01X5735Y22963D02*
G01X6135Y22963D01*
G01X156Y23165D02*
G01X1856Y23165D01*
G01X2756Y23165D02*
G01X4782Y23165D01*
G01X5735Y23165D02*
G01X6135Y23165D01*
G01X156Y23367D02*
G01X1991Y23367D01*
G01X2621Y23367D02*
G01X4786Y23367D01*
G01X5732Y23367D02*
G01X6135Y23367D01*
G01X156Y23569D02*
G01X6135Y23569D01*
G01X156Y23771D02*
G01X2340Y23771D01*
G01X3160Y23771D02*
G01X3599Y23771D01*
G01X3901Y23771D02*
G01X4340Y23771D01*
G01X5160Y23771D02*
G01X6135Y23771D01*
G01X156Y23973D02*
G01X2152Y23973D01*
G01X5348Y23973D02*
G01X6135Y23973D01*
G01X156Y24175D02*
G01X2067Y24175D01*
G01X5433Y24175D02*
G01X6135Y24175D01*
G01X156Y24377D02*
G01X2047Y24377D01*
G01X5453Y24377D02*
G01X6135Y24377D01*
G01X156Y24579D02*
G01X1632Y24579D01*
G01X5868Y24579D02*
G01X6135Y24579D01*
G01X156Y24781D02*
G01X1319Y24781D01*
G01X156Y24983D02*
G01X1192Y24983D01*
G01X156Y25185D02*
G01X1143Y25185D01*
G01X156Y25387D02*
G01X1153Y25387D01*
G01X902Y25589D02*
G01X1227Y25589D01*
G01X919Y25791D02*
G01X1395Y25791D01*
G01X919Y25993D02*
G01X1319Y25993D01*
G01X919Y26195D02*
G01X1251Y26195D01*
G01X919Y26397D02*
G01X1271Y26397D01*
G01X919Y26599D02*
G01X1391Y26599D01*
G01X919Y26801D02*
G01X1301Y26801D01*
G01X156Y27003D02*
G01X1184Y27003D01*
G01X156Y27205D02*
G01X1141Y27205D01*
G01X156Y27407D02*
G01X1158Y27407D01*
G01X156Y27609D02*
G01X1239Y27609D01*
G01X156Y27811D02*
G01X1420Y27811D01*
G01X6080Y27811D02*
G01X6135Y27811D01*
G01X156Y28013D02*
G01X2047Y28013D01*
G01X5453Y28013D02*
G01X6135Y28013D01*
G01X6538Y28013D02*
G01X6584Y28013D01*
G01X156Y28215D02*
G01X2050Y28215D01*
G01X5450Y28215D02*
G01X6135Y28215D01*
G01X6538Y28215D02*
G01X6898Y28215D01*
G01X7059Y28215D02*
G01X7343Y28215D01*
G01X156Y28417D02*
G01X2097Y28417D01*
G01X5403Y28417D02*
G01X6135Y28417D01*
G01X6538Y28417D02*
G01X7343Y28417D01*
G01X156Y28619D02*
G01X2221Y28619D01*
G01X3279Y28619D02*
G01X3411Y28619D01*
G01X4089Y28619D02*
G01X4221Y28619D01*
G01X5279Y28619D02*
G01X6075Y28619D01*
G01X6597Y28619D02*
G01X7343Y28619D01*
G01X156Y28821D02*
G01X2521Y28821D01*
G01X2979Y28821D02*
G01X4521Y28821D01*
G01X4979Y28821D02*
G01X6096Y28821D01*
G01X6576Y28821D02*
G01X7343Y28821D01*
G01X156Y29023D02*
G01X7343Y29023D01*
G01X156Y29225D02*
G01X3008Y29225D01*
G01X4492Y29225D02*
G01X7343Y29225D01*
G01X156Y29427D02*
G01X3008Y29427D01*
G01X4492Y29427D02*
G01X7343Y29427D01*
G01X172Y29629D02*
G01X3008Y29629D01*
G01X4492Y29629D02*
G01X7327Y29629D01*
G01X382Y29831D02*
G01X3008Y29831D01*
G01X4492Y29831D02*
G01X7117Y29831D01*
G01X7160Y28186D02*
G01X7160Y29815D01*
G01X6958Y28221D02*
G01X6958Y29843D01*
G01X6756Y28167D02*
G01X6756Y29843D01*
G01X6554Y27962D02*
G01X6554Y28533D01*
G01X6554Y28855D02*
G01X6554Y29843D01*
G01X6352Y28965D02*
G01X6352Y29843D01*
G01X6150Y28892D02*
G01X6150Y29843D01*
G01X5948Y5389D02*
G01X5948Y6599D01*
G01X5948Y7169D02*
G01X5948Y9609D01*
G01X5948Y12889D02*
G01X5948Y14971D01*
G01X5948Y20389D02*
G01X5948Y22371D01*
G01X5948Y22775D02*
G01X5948Y24609D01*
G01X5948Y27889D02*
G01X5948Y29843D01*
G01X5746Y5446D02*
G01X5746Y6801D01*
G01X5746Y7371D02*
G01X5746Y9552D01*
G01X5746Y12946D02*
G01X5746Y14260D01*
G01X5746Y20446D02*
G01X5746Y22371D01*
G01X5746Y22775D02*
G01X5746Y24552D01*
G01X5746Y27946D02*
G01X5746Y29843D01*
G01X5544Y5452D02*
G01X5544Y7003D01*
G01X5544Y8486D02*
G01X5544Y9546D01*
G01X5544Y12952D02*
G01X5544Y14260D01*
G01X5544Y20452D02*
G01X5544Y22371D01*
G01X5544Y23486D02*
G01X5544Y24546D01*
G01X5544Y27952D02*
G01X5544Y29843D01*
G01X5342Y6035D02*
G01X5342Y7205D01*
G01X5342Y8486D02*
G01X5342Y8963D01*
G01X5342Y13535D02*
G01X5342Y14260D01*
G01X5342Y21035D02*
G01X5342Y22371D01*
G01X5342Y23486D02*
G01X5342Y23963D01*
G01X5342Y28535D02*
G01X5342Y29843D01*
G01X5140Y6241D02*
G01X5140Y7407D01*
G01X5140Y8486D02*
G01X5140Y8757D01*
G01X5140Y13741D02*
G01X5140Y14260D01*
G01X5140Y21241D02*
G01X5140Y22410D01*
G01X5140Y23486D02*
G01X5140Y23757D01*
G01X5140Y28741D02*
G01X5140Y29843D01*
G01X4938Y6333D02*
G01X4938Y7533D01*
G01X4938Y8486D02*
G01X4938Y8665D01*
G01X4938Y13833D02*
G01X4938Y14260D01*
G01X4938Y21333D02*
G01X4938Y22533D01*
G01X4938Y23486D02*
G01X4938Y23665D01*
G01X4938Y28833D02*
G01X4938Y29843D01*
G01X4736Y6359D02*
G01X4736Y8639D01*
G01X4736Y13859D02*
G01X4736Y14260D01*
G01X4736Y21359D02*
G01X4736Y23639D01*
G01X4736Y28859D02*
G01X4736Y29843D01*
G01X4534Y6325D02*
G01X4534Y8673D01*
G01X4534Y13825D02*
G01X4534Y14260D01*
G01X4534Y21325D02*
G01X4534Y23673D01*
G01X4534Y28825D02*
G01X4534Y29843D01*
G01X4332Y6221D02*
G01X4332Y8777D01*
G01X4332Y13721D02*
G01X4332Y14260D01*
G01X4332Y21221D02*
G01X4332Y23777D01*
G01X4332Y28721D02*
G01X4332Y29080D01*
G01X4130Y6076D02*
G01X4130Y8922D01*
G01X4130Y13576D02*
G01X4130Y14260D01*
G01X4130Y21076D02*
G01X4130Y23922D01*
G01X4130Y28576D02*
G01X4130Y29080D01*
G01X3928Y6218D02*
G01X3928Y8780D01*
G01X3928Y13718D02*
G01X3928Y14260D01*
G01X3928Y21218D02*
G01X3928Y23780D01*
G01X3928Y28718D02*
G01X3928Y29080D01*
G01X3726Y6250D02*
G01X3726Y8748D01*
G01X3726Y13750D02*
G01X3726Y14260D01*
G01X3726Y21250D02*
G01X3726Y23748D01*
G01X3726Y28750D02*
G01X3726Y29080D01*
G01X3524Y6197D02*
G01X3524Y8801D01*
G01X3524Y13697D02*
G01X3524Y14260D01*
G01X3524Y21197D02*
G01X3524Y23801D01*
G01X3524Y28697D02*
G01X3524Y29080D01*
G01X3322Y6064D02*
G01X3322Y8934D01*
G01X3322Y13564D02*
G01X3322Y14260D01*
G01X3322Y21064D02*
G01X3322Y23934D01*
G01X3322Y28564D02*
G01X3322Y29080D01*
G01X3120Y6254D02*
G01X3120Y8744D01*
G01X3120Y13754D02*
G01X3120Y14260D01*
G01X3120Y21254D02*
G01X3120Y23744D01*
G01X3120Y28754D02*
G01X3120Y29085D01*
G01X2918Y6339D02*
G01X2918Y8342D01*
G01X2918Y13839D02*
G01X2918Y14260D01*
G01X2918Y21339D02*
G01X2918Y23659D01*
G01X2918Y28839D02*
G01X2918Y29843D01*
G01X2716Y6358D02*
G01X2716Y7767D01*
G01X2716Y13858D02*
G01X2716Y14260D01*
G01X2716Y21358D02*
G01X2716Y22767D01*
G01X2716Y23251D02*
G01X2716Y23640D01*
G01X2716Y28858D02*
G01X2716Y29843D01*
G01X2514Y6318D02*
G01X2514Y7580D01*
G01X2514Y8502D02*
G01X2514Y8680D01*
G01X2514Y13818D02*
G01X2514Y14260D01*
G01X2514Y16002D02*
G01X2514Y16180D01*
G01X2514Y21318D02*
G01X2514Y22580D01*
G01X2514Y23438D02*
G01X2514Y23680D01*
G01X2514Y28818D02*
G01X2514Y29843D01*
G01X2312Y6206D02*
G01X2312Y7533D01*
G01X2312Y8485D02*
G01X2312Y8792D01*
G01X2312Y13706D02*
G01X2312Y14260D01*
G01X2312Y15985D02*
G01X2312Y16292D01*
G01X2312Y21206D02*
G01X2312Y22533D01*
G01X2312Y23485D02*
G01X2312Y23792D01*
G01X2312Y28706D02*
G01X2312Y29843D01*
G01X2110Y5947D02*
G01X2110Y7575D01*
G01X2110Y8443D02*
G01X2110Y9051D01*
G01X2110Y13447D02*
G01X2110Y14260D01*
G01X2110Y15943D02*
G01X2110Y16551D01*
G01X2110Y20947D02*
G01X2110Y22575D01*
G01X2110Y23443D02*
G01X2110Y24051D01*
G01X2110Y28447D02*
G01X2110Y29843D01*
G01X1908Y156D02*
G01X1908Y246D01*
G01X1908Y772D02*
G01X1908Y2046D01*
G01X1908Y5452D02*
G01X1908Y7746D01*
G01X1908Y8272D02*
G01X1908Y9546D01*
G01X1908Y12952D02*
G01X1908Y14260D01*
G01X1908Y15113D02*
G01X1908Y15246D01*
G01X1908Y15772D02*
G01X1908Y17046D01*
G01X1908Y20452D02*
G01X1908Y22746D01*
G01X1908Y23272D02*
G01X1908Y24546D01*
G01X1908Y27952D02*
G01X1908Y29843D01*
G01X1706Y156D02*
G01X1706Y2060D01*
G01X1706Y5438D02*
G01X1706Y9560D01*
G01X1706Y12938D02*
G01X1706Y17060D01*
G01X1706Y20438D02*
G01X1706Y24560D01*
G01X1706Y27938D02*
G01X1706Y29843D01*
G01X1504Y156D02*
G01X1504Y2133D01*
G01X1504Y5365D02*
G01X1504Y9633D01*
G01X1504Y12865D02*
G01X1504Y17133D01*
G01X1504Y20365D02*
G01X1504Y24633D01*
G01X1504Y27865D02*
G01X1504Y29843D01*
G01X1302Y156D02*
G01X1302Y2300D01*
G01X1302Y3198D02*
G01X1302Y3523D01*
G01X1302Y3975D02*
G01X1302Y4300D01*
G01X1302Y5198D02*
G01X1302Y9800D01*
G01X1302Y10698D02*
G01X1302Y11023D01*
G01X1302Y11475D02*
G01X1302Y11800D01*
G01X1302Y12698D02*
G01X1302Y17300D01*
G01X1302Y18198D02*
G01X1302Y18523D01*
G01X1302Y18975D02*
G01X1302Y19300D01*
G01X1302Y20198D02*
G01X1302Y24800D01*
G01X1302Y25698D02*
G01X1302Y26023D01*
G01X1302Y26475D02*
G01X1302Y26800D01*
G01X1302Y27698D02*
G01X1302Y29843D01*
G01X1100Y156D02*
G01X1100Y29843D01*
G01X898Y156D02*
G01X898Y3082D01*
G01X898Y4416D02*
G01X898Y10582D01*
G01X898Y11916D02*
G01X898Y18082D01*
G01X898Y19416D02*
G01X898Y25582D01*
G01X898Y26916D02*
G01X898Y29843D01*
G01X696Y156D02*
G01X696Y3007D01*
G01X696Y4491D02*
G01X696Y10507D01*
G01X696Y11991D02*
G01X696Y18007D01*
G01X696Y19491D02*
G01X696Y25507D01*
G01X696Y26991D02*
G01X696Y29843D01*
G01X494Y156D02*
G01X494Y3007D01*
G01X494Y4491D02*
G01X494Y10507D01*
G01X494Y11991D02*
G01X494Y18007D01*
G01X494Y19491D02*
G01X494Y25507D01*
G01X494Y26991D02*
G01X494Y29843D01*
G01X292Y210D02*
G01X292Y3007D01*
G01X292Y4491D02*
G01X292Y10507D01*
G01X292Y11991D02*
G01X292Y18007D01*
G01X292Y19491D02*
G01X292Y25507D01*
G01X292Y26991D02*
G01X292Y29789D01*
G01X3453Y2153D02*
G01X3453Y2156D01*
G01X2157Y3452D02*
G01X2154Y3452D01*
G01X2154Y4046D02*
G01X2157Y4046D01*
G01X3453Y5342D02*
G01X3453Y5345D01*
G01X4047Y5345D02*
G01X4047Y5342D01*
G01X5343Y4046D02*
G01X5346Y4046D01*
G01X5346Y3452D02*
G01X5343Y3452D01*
G01X4047Y2156D02*
G01X4047Y2153D01*
G01X3453Y2157D02*
G01X3458Y2157D01*
G01X4042Y2157D02*
G01X4047Y2157D01*
G01X3423Y2359D02*
G01X4077Y2359D01*
G01X3325Y2561D02*
G01X4175Y2561D01*
G01X3105Y2763D02*
G01X4395Y2763D01*
G01X2826Y2965D02*
G01X3211Y2965D01*
G01X4289Y2965D02*
G01X4674Y2965D01*
G01X2722Y3167D02*
G01X2997Y3167D01*
G01X4503Y3167D02*
G01X4778Y3167D01*
G01X2489Y3369D02*
G01X2878Y3369D01*
G01X4622Y3369D02*
G01X5011Y3369D01*
G01X2219Y3571D02*
G01X2815Y3571D01*
G01X4685Y3571D02*
G01X5281Y3571D01*
G01X2251Y3773D02*
G01X2799Y3773D01*
G01X4701Y3773D02*
G01X5249Y3773D01*
G01X2198Y3975D02*
G01X2826Y3975D01*
G01X4674Y3975D02*
G01X5302Y3975D01*
G01X2565Y4177D02*
G01X2900Y4177D01*
G01X4600Y4177D02*
G01X4935Y4177D01*
G01X2755Y4379D02*
G01X3037Y4379D01*
G01X4463Y4379D02*
G01X4745Y4379D01*
G01X2840Y4581D02*
G01X3288Y4581D01*
G01X4212Y4581D02*
G01X4660Y4581D01*
G01X3176Y4783D02*
G01X4324Y4783D01*
G01X3355Y4985D02*
G01X4145Y4985D01*
G01X3435Y5187D02*
G01X4065Y5187D01*
G01X5342Y3452D02*
G01X5342Y3457D01*
G01X5342Y4041D02*
G01X5342Y4046D01*
G01X5140Y3422D02*
G01X5140Y4076D01*
G01X4938Y3324D02*
G01X4938Y4174D01*
G01X4736Y3104D02*
G01X4736Y4394D01*
G01X4534Y2825D02*
G01X4534Y3210D01*
G01X4534Y4288D02*
G01X4534Y4673D01*
G01X4332Y2721D02*
G01X4332Y2996D01*
G01X4332Y4502D02*
G01X4332Y4777D01*
G01X4130Y2488D02*
G01X4130Y2877D01*
G01X4130Y4621D02*
G01X4130Y5010D01*
G01X3928Y2218D02*
G01X3928Y2814D01*
G01X3928Y4684D02*
G01X3928Y5280D01*
G01X3726Y2250D02*
G01X3726Y2798D01*
G01X3726Y4700D02*
G01X3726Y5248D01*
G01X3524Y2197D02*
G01X3524Y2825D01*
G01X3524Y4673D02*
G01X3524Y5301D01*
G01X3322Y2564D02*
G01X3322Y2899D01*
G01X3322Y4599D02*
G01X3322Y4934D01*
G01X3120Y2754D02*
G01X3120Y3036D01*
G01X3120Y4462D02*
G01X3120Y4744D01*
G01X2918Y2839D02*
G01X2918Y3287D01*
G01X2918Y4211D02*
G01X2918Y4659D01*
G01X2716Y3175D02*
G01X2716Y4323D01*
G01X2514Y3354D02*
G01X2514Y4144D01*
G01X2312Y3434D02*
G01X2312Y4064D01*
G01X6532Y2709D02*
G01X6532Y5077D01*
G01X7343Y4939D02*
G01X7343Y4491D01*
G01X7343Y4491D02*
G01X6732Y4491D01*
G01X6581Y4340D02*
G01X6581Y3158D01*
G01X6732Y3007D02*
G01X6792Y3007D01*
G01X6777Y2929D02*
G01X6777Y2769D01*
G01X6777Y2769D02*
G01X6653Y2769D01*
G01X6532Y2763D02*
G01X6611Y2763D01*
G01X6532Y2965D02*
G01X6780Y2965D01*
G01X6532Y3167D02*
G01X6581Y3167D01*
G01X6532Y3369D02*
G01X6581Y3369D01*
G01X6532Y3571D02*
G01X6581Y3571D01*
G01X6532Y3773D02*
G01X6581Y3773D01*
G01X6532Y3975D02*
G01X6581Y3975D01*
G01X6532Y4177D02*
G01X6581Y4177D01*
G01X6532Y4379D02*
G01X6586Y4379D01*
G01X6532Y4581D02*
G01X7343Y4581D01*
G01X6532Y4783D02*
G01X6863Y4783D01*
G01X7094Y4783D02*
G01X7343Y4783D01*
G01X6532Y4985D02*
G01X6579Y4985D01*
G01X7160Y4491D02*
G01X7160Y4805D01*
G01X6958Y4491D02*
G01X6958Y4769D01*
G01X6756Y2769D02*
G01X6756Y3007D01*
G01X6756Y4491D02*
G01X6756Y4824D01*
G01X6554Y2732D02*
G01X6554Y5028D01*
G01X7343Y3007D02*
G01X7343Y2763D01*
G01X7303Y2769D02*
G01X7180Y2769D01*
G01X7180Y2769D02*
G01X7180Y2845D01*
G01X7180Y2845D02*
G01X7239Y2904D01*
G01X7294Y3007D02*
G01X7343Y3007D01*
G01X7281Y2965D02*
G01X7343Y2965D01*
G01X6130Y3421D02*
G01X6130Y3270D01*
G01X6077Y3369D02*
G01X6130Y3369D01*
G01X6130Y4228D02*
G01X6130Y4077D01*
G01X6065Y4177D02*
G01X6130Y4177D01*
G01X6532Y5413D02*
G01X6532Y6501D01*
G01X6532Y6501D02*
G01X6532Y9376D01*
G01X6653Y9316D02*
G01X7303Y9316D01*
G01X7343Y9321D02*
G01X7343Y5551D01*
G01X6532Y5591D02*
G01X6650Y5591D01*
G01X7306Y5591D02*
G01X7343Y5591D01*
G01X6532Y5793D02*
G01X7343Y5793D01*
G01X6532Y5995D02*
G01X7343Y5995D01*
G01X6532Y6197D02*
G01X7343Y6197D01*
G01X6532Y6399D02*
G01X7343Y6399D01*
G01X6532Y6601D02*
G01X7343Y6601D01*
G01X6532Y6803D02*
G01X7343Y6803D01*
G01X6532Y7005D02*
G01X7343Y7005D01*
G01X6532Y7207D02*
G01X7343Y7207D01*
G01X6532Y7409D02*
G01X7343Y7409D01*
G01X6532Y7611D02*
G01X7343Y7611D01*
G01X6532Y7813D02*
G01X7343Y7813D01*
G01X6532Y8015D02*
G01X7343Y8015D01*
G01X6532Y8217D02*
G01X7343Y8217D01*
G01X6532Y8419D02*
G01X7343Y8419D01*
G01X6532Y8621D02*
G01X7343Y8621D01*
G01X6532Y8823D02*
G01X7343Y8823D01*
G01X6532Y9025D02*
G01X7343Y9025D01*
G01X6532Y9227D02*
G01X7343Y9227D01*
G01X7160Y5686D02*
G01X7160Y9316D01*
G01X6958Y5721D02*
G01X6958Y9316D01*
G01X6756Y5667D02*
G01X6756Y9316D01*
G01X6554Y5462D02*
G01X6554Y9353D01*
G01X3453Y9653D02*
G01X3453Y9656D01*
G01X2157Y10952D02*
G01X2154Y10952D01*
G01X2154Y11546D02*
G01X2157Y11546D01*
G01X3453Y12842D02*
G01X3453Y12845D01*
G01X4047Y12845D02*
G01X4047Y12842D01*
G01X5343Y11546D02*
G01X5346Y11546D01*
G01X5346Y10952D02*
G01X5343Y10952D01*
G01X4047Y9656D02*
G01X4047Y9653D01*
G01X3430Y9833D02*
G01X4070Y9833D01*
G01X3342Y10035D02*
G01X4158Y10035D01*
G01X3146Y10237D02*
G01X4354Y10237D01*
G01X2834Y10439D02*
G01X3251Y10439D01*
G01X4249Y10439D02*
G01X4666Y10439D01*
G01X2741Y10641D02*
G01X3018Y10641D01*
G01X4482Y10641D02*
G01X4759Y10641D01*
G01X2533Y10843D02*
G01X2890Y10843D01*
G01X4610Y10843D02*
G01X4967Y10843D01*
G01X2208Y11045D02*
G01X2821Y11045D01*
G01X4679Y11045D02*
G01X5292Y11045D01*
G01X2251Y11247D02*
G01X2799Y11247D01*
G01X4701Y11247D02*
G01X5249Y11247D01*
G01X2210Y11449D02*
G01X2820Y11449D01*
G01X4680Y11449D02*
G01X5290Y11449D01*
G01X2526Y11651D02*
G01X2887Y11651D01*
G01X4613Y11651D02*
G01X4974Y11651D01*
G01X2738Y11853D02*
G01X3015Y11853D01*
G01X4485Y11853D02*
G01X4762Y11853D01*
G01X2833Y12055D02*
G01X3244Y12055D01*
G01X4256Y12055D02*
G01X4667Y12055D01*
G01X3140Y12257D02*
G01X4360Y12257D01*
G01X3339Y12459D02*
G01X4161Y12459D01*
G01X3429Y12661D02*
G01X4071Y12661D01*
G01X5342Y10952D02*
G01X5342Y10957D01*
G01X5342Y11541D02*
G01X5342Y11546D01*
G01X5140Y10922D02*
G01X5140Y11576D01*
G01X4938Y10824D02*
G01X4938Y11674D01*
G01X4736Y10604D02*
G01X4736Y11894D01*
G01X4534Y10325D02*
G01X4534Y10710D01*
G01X4534Y11788D02*
G01X4534Y12173D01*
G01X4332Y10221D02*
G01X4332Y10496D01*
G01X4332Y12002D02*
G01X4332Y12277D01*
G01X4130Y9988D02*
G01X4130Y10377D01*
G01X4130Y12121D02*
G01X4130Y12510D01*
G01X3928Y9718D02*
G01X3928Y10314D01*
G01X3928Y12184D02*
G01X3928Y12780D01*
G01X3726Y9750D02*
G01X3726Y10298D01*
G01X3726Y12200D02*
G01X3726Y12748D01*
G01X3524Y9697D02*
G01X3524Y10325D01*
G01X3524Y12173D02*
G01X3524Y12801D01*
G01X3322Y10064D02*
G01X3322Y10399D01*
G01X3322Y12099D02*
G01X3322Y12434D01*
G01X3120Y10254D02*
G01X3120Y10536D01*
G01X3120Y11962D02*
G01X3120Y12244D01*
G01X2918Y10339D02*
G01X2918Y10787D01*
G01X2918Y11711D02*
G01X2918Y12159D01*
G01X2716Y10675D02*
G01X2716Y11823D01*
G01X2514Y10854D02*
G01X2514Y11644D01*
G01X2312Y10934D02*
G01X2312Y11564D01*
G01X6532Y10209D02*
G01X6532Y12577D01*
G01X7343Y12439D02*
G01X7343Y11991D01*
G01X7343Y11991D02*
G01X6732Y11991D01*
G01X6581Y11840D02*
G01X6581Y10658D01*
G01X6732Y10507D02*
G01X6792Y10507D01*
G01X6777Y10429D02*
G01X6777Y10269D01*
G01X6777Y10269D02*
G01X6653Y10269D01*
G01X6532Y10237D02*
G01X6560Y10237D01*
G01X6532Y10439D02*
G01X6777Y10439D01*
G01X6532Y10641D02*
G01X6582Y10641D01*
G01X6532Y10843D02*
G01X6581Y10843D01*
G01X6532Y11045D02*
G01X6581Y11045D01*
G01X6532Y11247D02*
G01X6581Y11247D01*
G01X6532Y11449D02*
G01X6581Y11449D01*
G01X6532Y11651D02*
G01X6581Y11651D01*
G01X6532Y11853D02*
G01X6581Y11853D01*
G01X6532Y12055D02*
G01X7343Y12055D01*
G01X6532Y12257D02*
G01X7343Y12257D01*
G01X6532Y12459D02*
G01X6598Y12459D01*
G01X7160Y11991D02*
G01X7160Y12305D01*
G01X6958Y11991D02*
G01X6958Y12269D01*
G01X6756Y10269D02*
G01X6756Y10507D01*
G01X6756Y11991D02*
G01X6756Y12324D01*
G01X6554Y10232D02*
G01X6554Y12528D01*
G01X7343Y10507D02*
G01X7343Y10263D01*
G01X7303Y10269D02*
G01X7180Y10269D01*
G01X7180Y10269D02*
G01X7180Y10345D01*
G01X7180Y10345D02*
G01X7239Y10404D01*
G01X7294Y10507D02*
G01X7343Y10507D01*
G01X7267Y10439D02*
G01X7343Y10439D01*
G01X6130Y10921D02*
G01X6130Y10770D01*
G01X6044Y10843D02*
G01X6130Y10843D01*
G01X6130Y11728D02*
G01X6130Y11577D01*
G01X6050Y11651D02*
G01X6130Y11651D01*
G01X6532Y12913D02*
G01X6532Y14873D01*
G01X6473Y15015D02*
G01X5735Y15754D01*
G01X5735Y15754D02*
G01X5735Y15834D01*
G01X5584Y15986D02*
G01X6479Y16881D01*
G01X6653Y16816D02*
G01X7303Y16816D01*
G01X7343Y16821D02*
G01X7343Y13052D01*
G01X6532Y13065D02*
G01X6625Y13065D01*
G01X7332Y13065D02*
G01X7343Y13065D01*
G01X6532Y13267D02*
G01X7343Y13267D01*
G01X6532Y13469D02*
G01X7343Y13469D01*
G01X6532Y13671D02*
G01X7343Y13671D01*
G01X6532Y13873D02*
G01X7343Y13873D01*
G01X6532Y14075D02*
G01X7343Y14075D01*
G01X6532Y14277D02*
G01X7343Y14277D01*
G01X6532Y14479D02*
G01X7343Y14479D01*
G01X6532Y14681D02*
G01X7343Y14681D01*
G01X6532Y14883D02*
G01X7343Y14883D01*
G01X6404Y15085D02*
G01X7343Y15085D01*
G01X6202Y15287D02*
G01X7343Y15287D01*
G01X6000Y15489D02*
G01X7343Y15489D01*
G01X5798Y15691D02*
G01X7343Y15691D01*
G01X5723Y15893D02*
G01X7343Y15893D01*
G01X5693Y16095D02*
G01X7343Y16095D01*
G01X5895Y16297D02*
G01X7343Y16297D01*
G01X6097Y16499D02*
G01X7343Y16499D01*
G01X6299Y16701D02*
G01X7343Y16701D01*
G01X6498Y16903D02*
G01X6516Y16903D01*
G01X7160Y13186D02*
G01X7160Y16816D01*
G01X6958Y13221D02*
G01X6958Y16816D01*
G01X6756Y13167D02*
G01X6756Y16816D01*
G01X6554Y12962D02*
G01X6554Y16853D01*
G01X6352Y15137D02*
G01X6352Y16754D01*
G01X6150Y15339D02*
G01X6150Y16552D01*
G01X5948Y15541D02*
G01X5948Y16350D01*
G01X5746Y15743D02*
G01X5746Y16148D01*
G01X5786Y15113D02*
G01X5718Y15113D01*
G01X5735Y15184D02*
G01X5807Y15112D01*
G01X5746Y15113D02*
G01X5746Y15173D01*
G01X4800Y15113D02*
G01X2571Y15113D01*
G01X2754Y15672D02*
G01X2892Y15811D01*
G01X2952Y15953D02*
G01X2952Y16168D01*
G01X5453Y16842D02*
G01X5453Y17046D01*
G01X5453Y17046D02*
G01X5657Y17046D01*
G01X6135Y17233D02*
G01X6135Y17106D01*
G01X6135Y17106D02*
G01X5116Y16087D01*
G01X5062Y15986D02*
G01X4934Y15986D01*
G01X4782Y15834D02*
G01X4782Y15184D01*
G01X2727Y15287D02*
G01X4782Y15287D01*
G01X2782Y15489D02*
G01X4782Y15489D01*
G01X2773Y15691D02*
G01X4782Y15691D01*
G01X2942Y15893D02*
G01X4794Y15893D01*
G01X2952Y16095D02*
G01X5124Y16095D01*
G01X3194Y16297D02*
G01X3533Y16297D01*
G01X3967Y16297D02*
G01X4306Y16297D01*
G01X5194Y16297D02*
G01X5326Y16297D01*
G01X5363Y16499D02*
G01X5527Y16499D01*
G01X5438Y16701D02*
G01X5729Y16701D01*
G01X5453Y16903D02*
G01X5931Y16903D01*
G01X5938Y17105D02*
G01X6133Y17105D01*
G01X5948Y16920D02*
G01X5948Y17109D01*
G01X5746Y16718D02*
G01X5746Y17052D01*
G01X5544Y16516D02*
G01X5544Y17046D01*
G01X5342Y16313D02*
G01X5342Y16463D01*
G01X5140Y16111D02*
G01X5140Y16257D01*
G01X4938Y15986D02*
G01X4938Y16165D01*
G01X4736Y15113D02*
G01X4736Y16139D01*
G01X4534Y15113D02*
G01X4534Y16173D01*
G01X4332Y15113D02*
G01X4332Y16277D01*
G01X4130Y15113D02*
G01X4130Y16422D01*
G01X3928Y15113D02*
G01X3928Y16280D01*
G01X3726Y15113D02*
G01X3726Y16248D01*
G01X3524Y15113D02*
G01X3524Y16301D01*
G01X3322Y15113D02*
G01X3322Y16434D01*
G01X3120Y15113D02*
G01X3120Y16244D01*
G01X2918Y15113D02*
G01X2918Y15842D01*
G01X2716Y15113D02*
G01X2716Y15267D01*
G01X3453Y17153D02*
G01X3453Y17156D01*
G01X2157Y18452D02*
G01X2154Y18452D01*
G01X2154Y19046D02*
G01X2157Y19046D01*
G01X3453Y20342D02*
G01X3453Y20345D01*
G01X4047Y20345D02*
G01X4047Y20342D01*
G01X5343Y19046D02*
G01X5346Y19046D01*
G01X5346Y18452D02*
G01X5343Y18452D01*
G01X4047Y17156D02*
G01X4047Y17153D01*
G01X3436Y17307D02*
G01X4064Y17307D01*
G01X3358Y17509D02*
G01X4142Y17509D01*
G01X3182Y17711D02*
G01X4318Y17711D01*
G01X2841Y17913D02*
G01X3296Y17913D01*
G01X4204Y17913D02*
G01X4659Y17913D01*
G01X2757Y18115D02*
G01X3041Y18115D01*
G01X4459Y18115D02*
G01X4743Y18115D01*
G01X2572Y18317D02*
G01X2902Y18317D01*
G01X4598Y18317D02*
G01X4928Y18317D01*
G01X2196Y18519D02*
G01X2827Y18519D01*
G01X4673Y18519D02*
G01X5304Y18519D01*
G01X2251Y18721D02*
G01X2799Y18721D01*
G01X4701Y18721D02*
G01X5249Y18721D01*
G01X2220Y18923D02*
G01X2814Y18923D01*
G01X4686Y18923D02*
G01X5280Y18923D01*
G01X2480Y19125D02*
G01X2876Y19125D01*
G01X4624Y19125D02*
G01X5020Y19125D01*
G01X2719Y19327D02*
G01X2994Y19327D01*
G01X4506Y19327D02*
G01X4781Y19327D01*
G01X2825Y19529D02*
G01X3205Y19529D01*
G01X4295Y19529D02*
G01X4675Y19529D01*
G01X3097Y19731D02*
G01X4403Y19731D01*
G01X3322Y19933D02*
G01X4178Y19933D01*
G01X3422Y20135D02*
G01X4078Y20135D01*
G01X3453Y20337D02*
G01X3464Y20337D01*
G01X4036Y20337D02*
G01X4047Y20337D01*
G01X5342Y18452D02*
G01X5342Y18457D01*
G01X5342Y19041D02*
G01X5342Y19046D01*
G01X5140Y18422D02*
G01X5140Y19076D01*
G01X4938Y18324D02*
G01X4938Y19174D01*
G01X4736Y18104D02*
G01X4736Y19394D01*
G01X4534Y17825D02*
G01X4534Y18210D01*
G01X4534Y19288D02*
G01X4534Y19673D01*
G01X4332Y17721D02*
G01X4332Y17996D01*
G01X4332Y19502D02*
G01X4332Y19777D01*
G01X4130Y17488D02*
G01X4130Y17877D01*
G01X4130Y19621D02*
G01X4130Y20010D01*
G01X3928Y17218D02*
G01X3928Y17814D01*
G01X3928Y19684D02*
G01X3928Y20280D01*
G01X3726Y17250D02*
G01X3726Y17798D01*
G01X3726Y19700D02*
G01X3726Y20248D01*
G01X3524Y17197D02*
G01X3524Y17825D01*
G01X3524Y19673D02*
G01X3524Y20301D01*
G01X3322Y17564D02*
G01X3322Y17899D01*
G01X3322Y19599D02*
G01X3322Y19934D01*
G01X3120Y17754D02*
G01X3120Y18036D01*
G01X3120Y19462D02*
G01X3120Y19744D01*
G01X2918Y17839D02*
G01X2918Y18287D01*
G01X2918Y19211D02*
G01X2918Y19659D01*
G01X2716Y18175D02*
G01X2716Y19323D01*
G01X2514Y18354D02*
G01X2514Y19144D01*
G01X2312Y18434D02*
G01X2312Y19064D01*
G01X6538Y17715D02*
G01X6538Y20064D01*
G01X7343Y19939D02*
G01X7343Y19491D01*
G01X7343Y19491D02*
G01X6732Y19491D01*
G01X6581Y19340D02*
G01X6581Y18158D01*
G01X6732Y18007D02*
G01X6792Y18007D01*
G01X6777Y17929D02*
G01X6777Y17769D01*
G01X6777Y17769D02*
G01X6653Y17769D01*
G01X6538Y17913D02*
G01X6777Y17913D01*
G01X6538Y18115D02*
G01X6587Y18115D01*
G01X6538Y18317D02*
G01X6581Y18317D01*
G01X6538Y18519D02*
G01X6581Y18519D01*
G01X6538Y18721D02*
G01X6581Y18721D01*
G01X6538Y18923D02*
G01X6581Y18923D01*
G01X6538Y19125D02*
G01X6581Y19125D01*
G01X6538Y19327D02*
G01X6581Y19327D01*
G01X6538Y19529D02*
G01X7343Y19529D01*
G01X6538Y19731D02*
G01X7343Y19731D01*
G01X6538Y19933D02*
G01X6619Y19933D01*
G01X7338Y19933D02*
G01X7343Y19933D01*
G01X7160Y19491D02*
G01X7160Y19805D01*
G01X6958Y19491D02*
G01X6958Y19769D01*
G01X6756Y17769D02*
G01X6756Y18007D01*
G01X6756Y19491D02*
G01X6756Y19824D01*
G01X6554Y17732D02*
G01X6554Y20028D01*
G01X7343Y18007D02*
G01X7343Y17763D01*
G01X7303Y17769D02*
G01X7180Y17769D01*
G01X7180Y17769D02*
G01X7180Y17845D01*
G01X7180Y17845D02*
G01X7239Y17904D01*
G01X7294Y18007D02*
G01X7343Y18007D01*
G01X7247Y17913D02*
G01X7343Y17913D01*
G01X6135Y18427D02*
G01X6135Y18265D01*
G01X6072Y18317D02*
G01X6135Y18317D01*
G01X6135Y19233D02*
G01X6135Y19071D01*
G01X6082Y19125D02*
G01X6135Y19125D01*
G01X6538Y20426D02*
G01X6538Y22573D01*
G01X6538Y22573D02*
G01X6538Y24370D01*
G01X6653Y24316D02*
G01X7303Y24316D01*
G01X7343Y24321D02*
G01X7343Y20552D01*
G01X6538Y20539D02*
G01X6603Y20539D01*
G01X6538Y20741D02*
G01X7343Y20741D01*
G01X6538Y20943D02*
G01X7343Y20943D01*
G01X6538Y21145D02*
G01X7343Y21145D01*
G01X6538Y21347D02*
G01X7343Y21347D01*
G01X6538Y21549D02*
G01X7343Y21549D01*
G01X6538Y21751D02*
G01X7343Y21751D01*
G01X6538Y21953D02*
G01X7343Y21953D01*
G01X6538Y22155D02*
G01X7343Y22155D01*
G01X6538Y22357D02*
G01X7343Y22357D01*
G01X6538Y22559D02*
G01X7343Y22559D01*
G01X6538Y22761D02*
G01X7343Y22761D01*
G01X6538Y22963D02*
G01X7343Y22963D01*
G01X6538Y23165D02*
G01X7343Y23165D01*
G01X6538Y23367D02*
G01X7343Y23367D01*
G01X6538Y23569D02*
G01X7343Y23569D01*
G01X6538Y23771D02*
G01X7343Y23771D01*
G01X6538Y23973D02*
G01X7343Y23973D01*
G01X6538Y24175D02*
G01X7343Y24175D01*
G01X7160Y20686D02*
G01X7160Y24316D01*
G01X6958Y20721D02*
G01X6958Y24316D01*
G01X6756Y20667D02*
G01X6756Y24316D01*
G01X6554Y20462D02*
G01X6554Y24353D01*
G01X3453Y24653D02*
G01X3453Y24656D01*
G01X2157Y25952D02*
G01X2154Y25952D01*
G01X2154Y26546D02*
G01X2157Y26546D01*
G01X3453Y27842D02*
G01X3453Y27845D01*
G01X4047Y27845D02*
G01X4047Y27842D01*
G01X5343Y26546D02*
G01X5346Y26546D01*
G01X5346Y25952D02*
G01X5343Y25952D01*
G01X4047Y24656D02*
G01X4047Y24653D01*
G01X3442Y24781D02*
G01X4058Y24781D01*
G01X3372Y24983D02*
G01X4128Y24983D01*
G01X3213Y25185D02*
G01X4287Y25185D01*
G01X2847Y25387D02*
G01X3348Y25387D01*
G01X4152Y25387D02*
G01X4653Y25387D01*
G01X2773Y25589D02*
G01X3065Y25589D01*
G01X4435Y25589D02*
G01X4727Y25589D01*
G01X2605Y25791D02*
G01X2916Y25791D01*
G01X4584Y25791D02*
G01X4895Y25791D01*
G01X2181Y25993D02*
G01X2834Y25993D01*
G01X4666Y25993D02*
G01X5319Y25993D01*
G01X2249Y26195D02*
G01X2800Y26195D01*
G01X4700Y26195D02*
G01X5251Y26195D01*
G01X2229Y26397D02*
G01X2810Y26397D01*
G01X4690Y26397D02*
G01X5271Y26397D01*
G01X2424Y26599D02*
G01X2865Y26599D01*
G01X4635Y26599D02*
G01X5076Y26599D01*
G01X2699Y26801D02*
G01X2975Y26801D01*
G01X4525Y26801D02*
G01X4801Y26801D01*
G01X2816Y27003D02*
G01X3169Y27003D01*
G01X4331Y27003D02*
G01X4684Y27003D01*
G01X3047Y27205D02*
G01X4453Y27205D01*
G01X3302Y27407D02*
G01X4198Y27407D01*
G01X3413Y27609D02*
G01X4087Y27609D01*
G01X3452Y27811D02*
G01X3506Y27811D01*
G01X3994Y27811D02*
G01X4048Y27811D01*
G01X5342Y25952D02*
G01X5342Y25957D01*
G01X5342Y26541D02*
G01X5342Y26546D01*
G01X5140Y25922D02*
G01X5140Y26576D01*
G01X4938Y25824D02*
G01X4938Y26674D01*
G01X4736Y25604D02*
G01X4736Y26894D01*
G01X4534Y25325D02*
G01X4534Y25710D01*
G01X4534Y26788D02*
G01X4534Y27173D01*
G01X4332Y25221D02*
G01X4332Y25496D01*
G01X4332Y27002D02*
G01X4332Y27277D01*
G01X4130Y24988D02*
G01X4130Y25377D01*
G01X4130Y27121D02*
G01X4130Y27510D01*
G01X3928Y24718D02*
G01X3928Y25314D01*
G01X3928Y27184D02*
G01X3928Y27780D01*
G01X3726Y24750D02*
G01X3726Y25298D01*
G01X3726Y27200D02*
G01X3726Y27748D01*
G01X3524Y24697D02*
G01X3524Y25325D01*
G01X3524Y27173D02*
G01X3524Y27801D01*
G01X3322Y25064D02*
G01X3322Y25399D01*
G01X3322Y27099D02*
G01X3322Y27434D01*
G01X3120Y25254D02*
G01X3120Y25536D01*
G01X3120Y26962D02*
G01X3120Y27244D01*
G01X2918Y25339D02*
G01X2918Y25787D01*
G01X2918Y26711D02*
G01X2918Y27159D01*
G01X2716Y25675D02*
G01X2716Y26823D01*
G01X2514Y25854D02*
G01X2514Y26644D01*
G01X2312Y25934D02*
G01X2312Y26564D01*
G01X6538Y25215D02*
G01X6538Y27564D01*
G01X7343Y27438D02*
G01X7343Y26991D01*
G01X7343Y26991D02*
G01X6732Y26991D01*
G01X6581Y26840D02*
G01X6581Y25658D01*
G01X6732Y25507D02*
G01X6792Y25507D01*
G01X6777Y25429D02*
G01X6777Y25269D01*
G01X6777Y25269D02*
G01X6653Y25269D01*
G01X6538Y25387D02*
G01X6777Y25387D01*
G01X6538Y25589D02*
G01X6598Y25589D01*
G01X6538Y25791D02*
G01X6581Y25791D01*
G01X6538Y25993D02*
G01X6581Y25993D01*
G01X6538Y26195D02*
G01X6581Y26195D01*
G01X6538Y26397D02*
G01X6581Y26397D01*
G01X6538Y26599D02*
G01X6581Y26599D01*
G01X6538Y26801D02*
G01X6581Y26801D01*
G01X6538Y27003D02*
G01X7343Y27003D01*
G01X6538Y27205D02*
G01X7343Y27205D01*
G01X6538Y27407D02*
G01X6643Y27407D01*
G01X7314Y27407D02*
G01X7343Y27407D01*
G01X7160Y26991D02*
G01X7160Y27305D01*
G01X6958Y26991D02*
G01X6958Y27269D01*
G01X6756Y25269D02*
G01X6756Y25507D01*
G01X6756Y26991D02*
G01X6756Y27324D01*
G01X6554Y25232D02*
G01X6554Y27528D01*
G01X7343Y25507D02*
G01X7343Y25263D01*
G01X7303Y25269D02*
G01X7180Y25269D01*
G01X7180Y25269D02*
G01X7180Y25345D01*
G01X7180Y25345D02*
G01X7239Y25404D01*
G01X7294Y25507D02*
G01X7343Y25507D01*
G01X7222Y25387D02*
G01X7343Y25387D01*
G01X6135Y25927D02*
G01X6135Y25765D01*
G01X6105Y25791D02*
G01X6135Y25791D01*
G01X6135Y26733D02*
G01X6135Y26571D01*
G01X6109Y26599D02*
G01X6135Y26599D01*

%LPD*%
G36*
G01X2739Y14847D02*
G01X2720Y14849D01*
G01X2705Y14848D01*
G01X2692Y14846D01*
G01X2679Y14842D01*
G01X2668Y14837D01*
G01X2657Y14830D01*
G01X2647Y14822D01*
G01X2638Y14813D01*
G01X2629Y14802D01*
G01X2629Y14842D01*
G01X2581Y14842D01*
G01X2581Y14412D01*
G01X2634Y14412D01*
G01X2634Y14563D01*
G01X2641Y14555D01*
G01X2650Y14547D01*
G01X2659Y14541D01*
G01X2669Y14535D01*
G01X2680Y14530D01*
G01X2691Y14526D01*
G01X2703Y14524D01*
G01X2716Y14524D01*
G01X2734Y14525D01*
G01X2751Y14529D01*
G01X2768Y14535D01*
G01X2785Y14544D01*
G01X2800Y14555D01*
G01X2813Y14569D01*
G01X2825Y14585D01*
G01X2834Y14603D01*
G01X2842Y14622D01*
G01X2847Y14643D01*
G01X2851Y14665D01*
G01X2852Y14689D01*
G01X2851Y14710D01*
G01X2848Y14731D01*
G01X2843Y14751D01*
G01X2836Y14771D01*
G01X2827Y14788D01*
G01X2817Y14804D01*
G01X2804Y14817D01*
G01X2790Y14829D01*
G01X2774Y14837D01*
G01X2758Y14844D01*
G01X2739Y14847D01*
G37*

%LPC*%
G36*
G01X2731Y14806D02*
G01X2715Y14808D01*
G01X2699Y14806D01*
G01X2683Y14800D01*
G01X2669Y14790D01*
G01X2655Y14776D01*
G01X2636Y14737D01*
G01X2629Y14685D01*
G01X2631Y14657D01*
G01X2635Y14632D01*
G01X2643Y14612D01*
G01X2654Y14596D01*
G01X2667Y14583D01*
G01X2680Y14574D01*
G01X2696Y14569D01*
G01X2712Y14567D01*
G01X2729Y14569D01*
G01X2745Y14574D01*
G01X2760Y14584D01*
G01X2773Y14597D01*
G01X2792Y14635D01*
G01X2798Y14689D01*
G01X2796Y14717D01*
G01X2792Y14741D01*
G01X2784Y14761D01*
G01X2773Y14778D01*
G01X2760Y14791D01*
G01X2746Y14800D01*
G01X2731Y14806D01*
G37*

%LPD*%
G36*
G01X5569Y14960D02*
G01X5516Y14960D01*
G01X5516Y14531D01*
G01X5565Y14531D01*
G01X5565Y14570D01*
G01X5602Y14535D01*
G01X5651Y14524D01*
G01X5703Y14535D01*
G01X5746Y14568D01*
G01X5776Y14620D01*
G01X5786Y14691D01*
G01X5785Y14707D01*
G01X5784Y14724D01*
G01X5781Y14739D01*
G01X5777Y14755D01*
G01X5772Y14769D01*
G01X5766Y14782D01*
G01X5759Y14794D01*
G01X5751Y14805D01*
G01X5742Y14815D01*
G01X5732Y14823D01*
G01X5720Y14831D01*
G01X5708Y14838D01*
G01X5695Y14843D01*
G01X5682Y14846D01*
G01X5668Y14848D01*
G01X5654Y14849D01*
G01X5607Y14838D01*
G01X5569Y14807D01*
G01X5569Y14960D01*
G37*

%LPC*%
G36*
G01X5666Y14804D02*
G01X5649Y14806D01*
G01X5633Y14804D01*
G01X5617Y14798D01*
G01X5603Y14789D01*
G01X5590Y14776D01*
G01X5579Y14759D01*
G01X5571Y14739D01*
G01X5566Y14716D01*
G01X5564Y14689D01*
G01X5565Y14663D01*
G01X5568Y14640D01*
G01X5573Y14622D01*
G01X5580Y14608D01*
G01X5594Y14590D01*
G01X5609Y14577D01*
G01X5627Y14569D01*
G01X5647Y14567D01*
G01X5664Y14569D01*
G01X5680Y14574D01*
G01X5694Y14584D01*
G01X5707Y14597D01*
G01X5718Y14614D01*
G01X5726Y14634D01*
G01X5730Y14659D01*
G01X5732Y14687D01*
G01X5730Y14715D01*
G01X5726Y14740D01*
G01X5718Y14760D01*
G01X5708Y14777D01*
G01X5695Y14789D01*
G01X5681Y14798D01*
G01X5666Y14804D01*
G37*

%LPD*%
G36*
G01X5234Y14842D02*
G01X5182Y14842D01*
G01X5182Y14633D01*
G01X5183Y14620D01*
G01X5184Y14609D01*
G01X5185Y14600D01*
G01X5187Y14589D01*
G01X5191Y14579D01*
G01X5196Y14569D01*
G01X5201Y14561D01*
G01X5208Y14553D01*
G01X5216Y14546D01*
G01X5225Y14540D01*
G01X5236Y14535D01*
G01X5248Y14530D01*
G01X5261Y14526D01*
G01X5274Y14524D01*
G01X5288Y14524D01*
G01X5344Y14537D01*
G01X5387Y14577D01*
G01X5387Y14531D01*
G01X5434Y14531D01*
G01X5434Y14842D01*
G01X5381Y14842D01*
G01X5381Y14675D01*
G01X5380Y14656D01*
G01X5379Y14640D01*
G01X5376Y14626D01*
G01X5372Y14615D01*
G01X5367Y14605D01*
G01X5361Y14596D01*
G01X5353Y14588D01*
G01X5343Y14582D01*
G01X5332Y14576D01*
G01X5321Y14572D01*
G01X5310Y14570D01*
G01X5298Y14569D01*
G01X5287Y14569D01*
G01X5267Y14575D01*
G01X5251Y14587D01*
G01X5245Y14595D01*
G01X5240Y14604D01*
G01X5237Y14614D01*
G01X5236Y14622D01*
G01X5235Y14635D01*
G01X5234Y14650D01*
G01X5234Y14842D01*
G37*

%LPD*%
G36*
G01X4899Y14847D02*
G01X4875Y14849D01*
G01X4855Y14848D01*
G01X4837Y14844D01*
G01X4818Y14838D01*
G01X4801Y14830D01*
G01X4785Y14819D01*
G01X4771Y14806D01*
G01X4760Y14791D01*
G01X4750Y14774D01*
G01X4743Y14754D01*
G01X4737Y14732D01*
G01X4734Y14709D01*
G01X4733Y14685D01*
G01X4743Y14616D01*
G01X4772Y14566D01*
G01X4817Y14534D01*
G01X4875Y14524D01*
G01X4900Y14526D01*
G01X4922Y14531D01*
G01X4943Y14541D01*
G01X4961Y14554D01*
G01X4989Y14590D01*
G01X5004Y14638D01*
G01X4952Y14645D01*
G01X4949Y14626D01*
G01X4943Y14610D01*
G01X4935Y14597D01*
G01X4926Y14586D01*
G01X4915Y14577D01*
G01X4902Y14572D01*
G01X4889Y14568D01*
G01X4874Y14567D01*
G01X4856Y14569D01*
G01X4839Y14574D01*
G01X4825Y14583D01*
G01X4812Y14596D01*
G01X4793Y14632D01*
G01X4787Y14687D01*
G01X4789Y14716D01*
G01X4793Y14740D01*
G01X4801Y14761D01*
G01X4812Y14777D01*
G01X4825Y14789D01*
G01X4841Y14798D01*
G01X4858Y14804D01*
G01X4877Y14806D01*
G01X4890Y14805D01*
G01X4902Y14802D01*
G01X4912Y14797D01*
G01X4922Y14790D01*
G01X4931Y14781D01*
G01X4938Y14770D01*
G01X4944Y14757D01*
G01X4948Y14743D01*
G01X4999Y14751D01*
G01X4993Y14773D01*
G01X4984Y14793D01*
G01X4973Y14809D01*
G01X4958Y14824D01*
G01X4941Y14835D01*
G01X4921Y14842D01*
G01X4899Y14847D01*
G37*

%LPD*%
G36*
G01X3933Y14838D02*
G01X3876Y14849D01*
G01X3818Y14838D01*
G01X3771Y14806D01*
G01X3741Y14753D01*
G01X3731Y14684D01*
G01X3741Y14616D01*
G01X3771Y14566D01*
G01X3818Y14534D01*
G01X3879Y14524D01*
G01X3905Y14525D01*
G01X3928Y14530D01*
G01X3949Y14538D01*
G01X3968Y14550D01*
G01X3984Y14564D01*
G01X3998Y14582D01*
G01X4008Y14602D01*
G01X4016Y14624D01*
G01X3962Y14631D01*
G01X3955Y14615D01*
G01X3948Y14602D01*
G01X3939Y14591D01*
G01X3929Y14583D01*
G01X3918Y14576D01*
G01X3907Y14571D01*
G01X3894Y14568D01*
G01X3880Y14567D01*
G01X3861Y14568D01*
G01X3844Y14574D01*
G01X3829Y14582D01*
G01X3815Y14595D01*
G01X3803Y14610D01*
G01X3794Y14628D01*
G01X3789Y14649D01*
G01X3786Y14673D01*
G01X4018Y14673D01*
G01X4018Y14687D01*
G01X4008Y14755D01*
G01X3978Y14807D01*
G01X3933Y14838D01*
G37*

%LPC*%
G36*
G01X3896Y14804D02*
G01X3877Y14806D01*
G01X3860Y14804D01*
G01X3844Y14799D01*
G01X3829Y14792D01*
G01X3816Y14781D01*
G01X3805Y14768D01*
G01X3796Y14752D01*
G01X3791Y14735D01*
G01X3788Y14716D01*
G01X3962Y14716D01*
G01X3960Y14734D01*
G01X3956Y14750D01*
G01X3950Y14764D01*
G01X3942Y14775D01*
G01X3929Y14788D01*
G01X3913Y14798D01*
G01X3896Y14804D01*
G37*

%LPD*%
G36*
G01X3598Y14847D02*
G01X3574Y14849D01*
G01X3554Y14848D01*
G01X3535Y14844D01*
G01X3517Y14838D01*
G01X3500Y14830D01*
G01X3484Y14819D01*
G01X3470Y14806D01*
G01X3459Y14791D01*
G01X3449Y14774D01*
G01X3442Y14754D01*
G01X3437Y14732D01*
G01X3434Y14709D01*
G01X3433Y14685D01*
G01X3443Y14616D01*
G01X3471Y14566D01*
G01X3516Y14534D01*
G01X3574Y14524D01*
G01X3599Y14526D01*
G01X3621Y14531D01*
G01X3641Y14541D01*
G01X3660Y14554D01*
G01X3688Y14590D01*
G01X3704Y14638D01*
G01X3652Y14645D01*
G01X3648Y14626D01*
G01X3642Y14610D01*
G01X3635Y14597D01*
G01X3625Y14586D01*
G01X3614Y14577D01*
G01X3602Y14572D01*
G01X3588Y14568D01*
G01X3573Y14567D01*
G01X3555Y14569D01*
G01X3538Y14574D01*
G01X3524Y14583D01*
G01X3511Y14596D01*
G01X3501Y14612D01*
G01X3493Y14632D01*
G01X3489Y14657D01*
G01X3487Y14687D01*
G01X3489Y14716D01*
G01X3493Y14740D01*
G01X3501Y14761D01*
G01X3512Y14777D01*
G01X3525Y14789D01*
G01X3541Y14798D01*
G01X3557Y14804D01*
G01X3576Y14806D01*
G01X3589Y14805D01*
G01X3601Y14802D01*
G01X3611Y14797D01*
G01X3621Y14790D01*
G01X3630Y14781D01*
G01X3637Y14770D01*
G01X3643Y14757D01*
G01X3647Y14743D01*
G01X3699Y14751D01*
G01X3693Y14773D01*
G01X3684Y14793D01*
G01X3672Y14809D01*
G01X3657Y14824D01*
G01X3640Y14835D01*
G01X3620Y14842D01*
G01X3598Y14847D01*
G37*

%LPD*%
G36*
G01X3100Y14838D02*
G01X3043Y14849D01*
G01X2984Y14838D01*
G01X2938Y14806D01*
G01X2908Y14753D01*
G01X2898Y14684D01*
G01X2908Y14616D01*
G01X2938Y14566D01*
G01X2985Y14534D01*
G01X3046Y14524D01*
G01X3072Y14525D01*
G01X3095Y14530D01*
G01X3116Y14538D01*
G01X3135Y14550D01*
G01X3151Y14564D01*
G01X3164Y14582D01*
G01X3175Y14602D01*
G01X3183Y14624D01*
G01X3128Y14631D01*
G01X3122Y14615D01*
G01X3114Y14602D01*
G01X3105Y14591D01*
G01X3096Y14583D01*
G01X3085Y14576D01*
G01X3073Y14571D01*
G01X3060Y14568D01*
G01X3046Y14567D01*
G01X3027Y14568D01*
G01X3010Y14574D01*
G01X2995Y14582D01*
G01X2981Y14595D01*
G01X2969Y14610D01*
G01X2961Y14628D01*
G01X2955Y14649D01*
G01X2952Y14673D01*
G01X3184Y14673D01*
G01X3184Y14687D01*
G01X3174Y14755D01*
G01X3145Y14807D01*
G01X3100Y14838D01*
G37*

%LPC*%
G36*
G01X3063Y14804D02*
G01X3043Y14806D01*
G01X3026Y14804D01*
G01X3010Y14799D01*
G01X2995Y14792D01*
G01X2982Y14781D01*
G01X2971Y14768D01*
G01X2963Y14752D01*
G01X2958Y14735D01*
G01X2955Y14716D01*
G01X3129Y14716D01*
G01X3126Y14734D01*
G01X3122Y14750D01*
G01X3116Y14764D01*
G01X3109Y14775D01*
G01X3096Y14788D01*
G01X3080Y14798D01*
G01X3063Y14804D01*
G37*

%LPD*%
G36*
G01X2390Y14961D02*
G01X2373Y14962D01*
G01X2351Y14960D01*
G01X2330Y14955D01*
G01X2312Y14948D01*
G01X2295Y14937D01*
G01X2281Y14923D01*
G01X2268Y14906D01*
G01X2258Y14887D01*
G01X2249Y14865D01*
G01X2237Y14811D01*
G01X2233Y14743D01*
G01X2236Y14686D01*
G01X2244Y14638D01*
G01X2257Y14599D01*
G01X2276Y14568D01*
G01X2318Y14535D01*
G01X2373Y14524D01*
G01X2396Y14525D01*
G01X2416Y14530D01*
G01X2435Y14538D01*
G01X2451Y14549D01*
G01X2466Y14563D01*
G01X2478Y14579D01*
G01X2489Y14599D01*
G01X2498Y14621D01*
G01X2509Y14674D01*
G01X2513Y14743D01*
G01X2511Y14800D01*
G01X2504Y14844D01*
G01X2499Y14862D01*
G01X2492Y14879D01*
G01X2485Y14894D01*
G01X2477Y14908D01*
G01X2468Y14920D01*
G01X2458Y14931D01*
G01X2446Y14940D01*
G01X2434Y14948D01*
G01X2420Y14954D01*
G01X2406Y14958D01*
G01X2390Y14961D01*
G37*

%LPC*%
G36*
G01X2390Y14917D02*
G01X2373Y14919D01*
G01X2355Y14917D01*
G01X2340Y14911D01*
G01X2326Y14901D01*
G01X2315Y14888D01*
G01X2303Y14864D01*
G01X2294Y14832D01*
G01X2289Y14792D01*
G01X2287Y14743D01*
G01X2293Y14654D01*
G01X2312Y14602D01*
G01X2325Y14586D01*
G01X2340Y14575D01*
G01X2356Y14569D01*
G01X2373Y14567D01*
G01X2390Y14569D01*
G01X2406Y14575D01*
G01X2421Y14586D01*
G01X2434Y14602D01*
G01X2453Y14654D01*
G01X2459Y14743D01*
G01X2453Y14831D01*
G01X2434Y14884D01*
G01X2421Y14899D01*
G01X2406Y14910D01*
G01X2390Y14917D01*
G37*

%LPD*%
G36*
G01X4478Y14842D02*
G01X4478Y14951D01*
G01X4426Y14919D01*
G01X4426Y14842D01*
G01X4387Y14842D01*
G01X4387Y14801D01*
G01X4426Y14801D01*
G01X4426Y14600D01*
G01X4427Y14583D01*
G01X4429Y14569D01*
G01X4432Y14560D01*
G01X4436Y14553D01*
G01X4441Y14546D01*
G01X4447Y14541D01*
G01X4454Y14536D01*
G01X4463Y14532D01*
G01X4473Y14529D01*
G01X4485Y14527D01*
G01X4508Y14527D01*
G01X4518Y14528D01*
G01X4528Y14530D01*
G01X4539Y14532D01*
G01X4531Y14578D01*
G01X4524Y14577D01*
G01X4518Y14576D01*
G01X4502Y14576D01*
G01X4497Y14577D01*
G01X4493Y14578D01*
G01X4487Y14582D01*
G01X4485Y14584D01*
G01X4481Y14590D01*
G01X4480Y14594D01*
G01X4479Y14600D01*
G01X4478Y14609D01*
G01X4478Y14801D01*
G01X4531Y14801D01*
G01X4531Y14842D01*
G01X4478Y14842D01*
G37*

%LPD*%
G36*
G01X5101Y14960D02*
G01X5048Y14960D01*
G01X5048Y14531D01*
G01X5101Y14531D01*
G01X5101Y14960D01*
G37*

%LPD*%
G36*
G01X4658Y14591D02*
G01X4598Y14591D01*
G01X4598Y14531D01*
G01X4658Y14531D01*
G01X4658Y14591D01*
G37*

%LPD*%
G36*
G01X4243Y14848D02*
G01X4229Y14849D01*
G01X4172Y14836D01*
G01X4130Y14798D01*
G01X4130Y14842D01*
G01X4082Y14842D01*
G01X4082Y14531D01*
G01X4135Y14531D01*
G01X4135Y14701D01*
G01X4137Y14728D01*
G01X4141Y14751D01*
G01X4149Y14769D01*
G01X4160Y14782D01*
G01X4173Y14791D01*
G01X4187Y14797D01*
G01X4202Y14801D01*
G01X4218Y14803D01*
G01X4228Y14802D01*
G01X4238Y14800D01*
G01X4246Y14798D01*
G01X4254Y14794D01*
G01X4268Y14782D01*
G01X4276Y14768D01*
G01X4279Y14759D01*
G01X4280Y14748D01*
G01X4282Y14735D01*
G01X4282Y14531D01*
G01X4335Y14531D01*
G01X4335Y14739D01*
G01X4334Y14753D01*
G01X4333Y14765D01*
G01X4332Y14774D01*
G01X4329Y14784D01*
G01X4326Y14795D01*
G01X4322Y14804D01*
G01X4316Y14813D01*
G01X4309Y14820D01*
G01X4301Y14827D01*
G01X4292Y14833D01*
G01X4281Y14839D01*
G01X4269Y14843D01*
G01X4256Y14846D01*
G01X4243Y14848D01*
G37*

%LPD*%
G36*
G01X3377Y14848D02*
G01X3363Y14849D01*
G01X3354Y14848D01*
G01X3346Y14846D01*
G01X3337Y14843D01*
G01X3329Y14839D01*
G01X3321Y14832D01*
G01X3313Y14822D01*
G01X3305Y14810D01*
G01X3296Y14795D01*
G01X3296Y14842D01*
G01X3248Y14842D01*
G01X3248Y14531D01*
G01X3301Y14531D01*
G01X3301Y14694D01*
G01X3302Y14710D01*
G01X3303Y14725D01*
G01X3306Y14740D01*
G01X3310Y14755D01*
G01X3313Y14764D01*
G01X3323Y14778D01*
G01X3329Y14784D01*
G01X3336Y14789D01*
G01X3344Y14792D01*
G01X3352Y14794D01*
G01X3360Y14795D01*
G01X3370Y14794D01*
G01X3380Y14792D01*
G01X3389Y14788D01*
G01X3399Y14783D01*
G01X3417Y14832D01*
G01X3404Y14839D01*
G01X3390Y14844D01*
G01X3377Y14848D01*
G37*

%LPD*%
G36*
G01X2121Y14960D02*
G01X2078Y14960D01*
G01X1882Y14682D01*
G01X1882Y14634D01*
G01X2068Y14634D01*
G01X2068Y14531D01*
G01X2121Y14531D01*
G01X2121Y14634D01*
G01X2179Y14634D01*
G01X2179Y14682D01*
G01X2121Y14682D01*
G01X2121Y14960D01*
G37*

%LPC*%
G36*
G01X2068Y14682D02*
G01X2068Y14876D01*
G01X1934Y14682D01*
G01X2068Y14682D01*
G37*

%LPD*%
G75*
G01X7344Y469D02*
G02X7031Y157I-313J0D01*
G01*
G75*
G01X5733Y157D02*
G03X5736Y185I-149J28D01*
G01*
G75*
G01X5736Y835D02*
G03X5585Y986I-152J0D01*
G01*
G75*
G01X6474Y1875D02*
G03X6509Y1923I-142J143D01*
G01*
G75*
G01X6509Y1923D02*
G03X6654Y1816I145J45D01*
G01*
G75*
G01X7304Y1816D02*
G03X7344Y1822I0J152D01*
G01*
G75*
G01X7344Y481D02*
G03X7344Y469I156J-12D01*
G01*
G75*
G01X4783Y185D02*
G03X4785Y157I151J0D01*
G01*
G75*
G01X4493Y767D02*
G03X4341Y919I-152J0D01*
G01*
G75*
G01X3160Y919D02*
G03X3008Y767I0J-152D01*
G01*
G75*
G01X2627Y157D02*
G03X2783Y509I-321J353D01*
G01*
G75*
G01X2783Y509D02*
G03X2508Y941I-477J1D01*
G01*
G75*
G01X2508Y1183D02*
G03X2751Y1139I242J659D01*
G01*
G75*
G01X2751Y1139D02*
G03X3341Y1461I0J703D01*
G01*
G75*
G01X3341Y1461D02*
G03X3751Y1248I409J288D01*
G01*
G75*
G01X3751Y1248D02*
G03X4160Y1461I0J501D01*
G01*
G75*
G01X4160Y1461D02*
G03X4751Y1139I590J381D01*
G01*
G75*
G01X4751Y1139D02*
G03X5453Y1842I0J703D01*
G01*
G75*
G01X5658Y2047D02*
G03X6130Y2229I0J702D01*
G01*
G75*
G01X5117Y1088D02*
G03X5062Y986I142J-143D01*
G01*
G75*
G01X4934Y986D02*
G03X4783Y835I0J-151D01*
G01*
G75*
G01X469Y157D02*
G03X458Y157I0J-156D01*
G01*
G75*
G01X458Y157D02*
G02X156Y469I11J312D01*
G01*
G75*
G01X768Y3007D02*
G03X920Y3159I0J152D01*
G01*
G75*
G01X920Y4340D02*
G03X768Y4492I-152J0D01*
G01*
G75*
G01X768Y10507D02*
G03X920Y10659I0J152D01*
G01*
G75*
G01X920Y11840D02*
G03X768Y11992I-152J0D01*
G01*
G75*
G01X768Y18007D02*
G03X920Y18159I0J152D01*
G01*
G75*
G01X920Y19340D02*
G03X768Y19492I-152J0D01*
G01*
G75*
G01X768Y25507D02*
G03X920Y25659I0J152D01*
G01*
G75*
G01X920Y26840D02*
G03X768Y26992I-152J0D01*
G01*
G75*
G01X156Y29531D02*
G02X469Y29843I313J0D01*
G01*
G75*
G01X3008Y29232D02*
G03X3160Y29080I152J0D01*
G01*
G75*
G01X4341Y29080D02*
G03X4493Y29232I0J152D01*
G01*
G75*
G01X7031Y29843D02*
G02X7344Y29531I0J-312D01*
G01*
G75*
G01X7344Y28052D02*
G03X6979Y28222I-365J-306D01*
G01*
G75*
G01X6979Y28222D02*
G03X6538Y27926I0J-476D01*
G01*
G75*
G01X6538Y28513D02*
G03X6608Y28695I-201J181D01*
G01*
G75*
G01X6608Y28695D02*
G03X6336Y28966I-272J-1D01*
G01*
G75*
G01X6336Y28966D02*
G03X6065Y28695I0J-272D01*
G01*
G75*
G01X6065Y28695D02*
G03X6135Y28513I271J-1D01*
G01*
G75*
G01X6135Y27765D02*
G03X5658Y27952I-477J-515D01*
G01*
G75*
G01X5453Y28157D02*
G03X4751Y28860I-702J0D01*
G01*
G75*
G01X4751Y28860D02*
G03X4160Y28538I-1J-703D01*
G01*
G75*
G01X4160Y28538D02*
G03X3751Y28751I-409J-288D01*
G01*
G75*
G01X3751Y28751D02*
G03X3341Y28538I-1J-501D01*
G01*
G75*
G01X3341Y28538D02*
G03X2751Y28860I-590J-381D01*
G01*
G75*
G01X2751Y28860D02*
G03X2048Y28157I-1J-703D01*
G01*
G75*
G01X1843Y27952D02*
G03X1140Y27249I0J-703D01*
G01*
G75*
G01X1140Y27249D02*
G03X1462Y26659I703J0D01*
G01*
G75*
G01X1462Y26659D02*
G03X1249Y26249I288J-409D01*
G01*
G75*
G01X1249Y26249D02*
G03X1462Y25840I501J0D01*
G01*
G75*
G01X1462Y25840D02*
G03X1140Y25249I381J-590D01*
G01*
G75*
G01X1140Y25249D02*
G03X1843Y24547I703J0D01*
G01*
G75*
G01X2048Y24342D02*
G03X2751Y23639I702J0D01*
G01*
G75*
G01X2751Y23639D02*
G03X3341Y23961I0J703D01*
G01*
G75*
G01X3341Y23961D02*
G03X3751Y23748I409J288D01*
G01*
G75*
G01X3751Y23748D02*
G03X4160Y23961I0J501D01*
G01*
G75*
G01X4160Y23961D02*
G03X4751Y23639I590J381D01*
G01*
G75*
G01X4751Y23639D02*
G03X5453Y24342I0J703D01*
G01*
G75*
G01X5658Y24547D02*
G03X6135Y24734I0J702D01*
G01*
G75*
G01X5736Y23335D02*
G03X5584Y23486I-152J0D01*
G01*
G75*
G01X4934Y23486D02*
G03X4783Y23335I0J-151D01*
G01*
G75*
G01X4783Y22685D02*
G03X4934Y22533I151J0D01*
G01*
G75*
G01X5062Y22533D02*
G03X5260Y22372I198J40D01*
G01*
G75*
G01X6135Y20265D02*
G03X5658Y20452I-477J-515D01*
G01*
G75*
G01X5453Y20657D02*
G03X4751Y21360I-702J0D01*
G01*
G75*
G01X4751Y21360D02*
G03X4160Y21038I-1J-703D01*
G01*
G75*
G01X4160Y21038D02*
G03X3751Y21251I-409J-288D01*
G01*
G75*
G01X3751Y21251D02*
G03X3341Y21038I-1J-501D01*
G01*
G75*
G01X3341Y21038D02*
G03X2751Y21360I-590J-381D01*
G01*
G75*
G01X2751Y21360D02*
G03X2048Y20657I-1J-703D01*
G01*
G75*
G01X1843Y20452D02*
G03X1140Y19749I0J-703D01*
G01*
G75*
G01X1140Y19749D02*
G03X1462Y19159I703J0D01*
G01*
G75*
G01X1462Y19159D02*
G03X1249Y18749I288J-409D01*
G01*
G75*
G01X1249Y18749D02*
G03X1462Y18340I501J0D01*
G01*
G75*
G01X1462Y18340D02*
G03X1140Y17749I381J-590D01*
G01*
G75*
G01X1140Y17749D02*
G03X1843Y17047I703J0D01*
G01*
G75*
G01X2048Y16842D02*
G03X2549Y16169I702J0D01*
G01*
G75*
G01X2469Y15957D02*
G03X2306Y15986I-163J-448D01*
G01*
G75*
G01X2306Y15986D02*
G03X1830Y15509I0J-476D01*
G01*
G75*
G01X1830Y15509D02*
G03X2041Y15114I476J1D01*
G01*
G75*
G01X1882Y15114D02*
G03X1731Y14962I1J-152D01*
G01*
G75*
G01X1731Y14412D02*
G03X1882Y14261I152J0D01*
G01*
G75*
G01X5786Y14261D02*
G03X5938Y14412I0J151D01*
G01*
G75*
G01X5938Y14962D02*
G03X5936Y14984I-151J0D01*
G01*
G75*
G01X6130Y12770D02*
G03X5658Y12952I-472J-520D01*
G01*
G75*
G01X5453Y13157D02*
G03X4751Y13860I-702J0D01*
G01*
G75*
G01X4751Y13860D02*
G03X4160Y13538I-1J-703D01*
G01*
G75*
G01X4160Y13538D02*
G03X3751Y13751I-409J-288D01*
G01*
G75*
G01X3751Y13751D02*
G03X3341Y13538I-1J-501D01*
G01*
G75*
G01X3341Y13538D02*
G03X2751Y13860I-590J-381D01*
G01*
G75*
G01X2751Y13860D02*
G03X2048Y13157I-1J-703D01*
G01*
G75*
G01X1843Y12952D02*
G03X1140Y12249I0J-703D01*
G01*
G75*
G01X1140Y12249D02*
G03X1462Y11659I703J0D01*
G01*
G75*
G01X1462Y11659D02*
G03X1249Y11249I288J-409D01*
G01*
G75*
G01X1249Y11249D02*
G03X1462Y10840I501J0D01*
G01*
G75*
G01X1462Y10840D02*
G03X1140Y10249I381J-590D01*
G01*
G75*
G01X1140Y10249D02*
G03X1843Y9547I703J0D01*
G01*
G75*
G01X2048Y9342D02*
G03X2549Y8669I702J0D01*
G01*
G75*
G01X2469Y8457D02*
G03X2306Y8486I-163J-448D01*
G01*
G75*
G01X2306Y8486D02*
G03X1830Y8009I0J-476D01*
G01*
G75*
G01X1830Y8009D02*
G03X2306Y7533I476J0D01*
G01*
G75*
G01X2306Y7533D02*
G03X2783Y8009I0J476D01*
G01*
G75*
G01X2783Y8009D02*
G03X2754Y8172I-477J0D01*
G01*
G75*
G01X2893Y8311D02*
G03X2952Y8453I-142J143D01*
G01*
G75*
G01X2952Y8669D02*
G03X3341Y8961I-201J673D01*
G01*
G75*
G01X3341Y8961D02*
G03X3751Y8748I409J288D01*
G01*
G75*
G01X3751Y8748D02*
G03X4160Y8961I0J501D01*
G01*
G75*
G01X4160Y8961D02*
G03X4751Y8639I590J381D01*
G01*
G75*
G01X4751Y8639D02*
G03X5453Y9342I0J703D01*
G01*
G75*
G01X5658Y9547D02*
G03X6130Y9729I0J702D01*
G01*
G75*
G01X5585Y7533D02*
G03X5736Y7685I-1J152D01*
G01*
G75*
G01X5736Y8335D02*
G03X5584Y8486I-152J0D01*
G01*
G75*
G01X4934Y8486D02*
G03X4783Y8335I0J-151D01*
G01*
G75*
G01X4783Y7685D02*
G03X4934Y7533I151J0D01*
G01*
G75*
G01X5062Y7533D02*
G03X5117Y7431I198J40D01*
G01*
G75*
G01X6130Y5270D02*
G03X5658Y5452I-472J-520D01*
G01*
G75*
G01X5453Y5657D02*
G03X4751Y6360I-702J0D01*
G01*
G75*
G01X4751Y6360D02*
G03X4160Y6038I-1J-703D01*
G01*
G75*
G01X4160Y6038D02*
G03X3751Y6251I-409J-288D01*
G01*
G75*
G01X3751Y6251D02*
G03X3341Y6038I-1J-501D01*
G01*
G75*
G01X3341Y6038D02*
G03X2751Y6360I-590J-381D01*
G01*
G75*
G01X2751Y6360D02*
G03X2048Y5657I-1J-703D01*
G01*
G75*
G01X1843Y5452D02*
G03X1140Y4749I0J-703D01*
G01*
G75*
G01X1140Y4749D02*
G03X1462Y4159I703J0D01*
G01*
G75*
G01X1462Y4159D02*
G03X1249Y3749I288J-409D01*
G01*
G75*
G01X1249Y3749D02*
G03X1462Y3340I501J0D01*
G01*
G75*
G01X1462Y3340D02*
G03X1140Y2749I381J-590D01*
G01*
G75*
G01X1140Y2749D02*
G03X1843Y2047I703J0D01*
G01*
G75*
G01X2048Y1842D02*
G03X2105Y1564I702J0D01*
G01*
G75*
G01X2105Y1564D02*
G03X2105Y1555I201J-9D01*
G01*
G75*
G01X2105Y941D02*
G03X1830Y509I201J-432D01*
G01*
G75*
G01X1830Y509D02*
G03X1986Y157I476J0D01*
G01*
G75*
G01X1830Y23009D02*
G03X2306Y22533I476J0D01*
G01*
G75*
G01X2306Y22533D02*
G03X2783Y23009I0J476D01*
G01*
G75*
G01X2783Y23009D02*
G03X2306Y23486I-477J1D01*
G01*
G75*
G01X2306Y23486D02*
G03X1830Y23009I0J-476D01*
G01*
G75*
G01X3453Y2157D02*
G03X2853Y2852I-702J0D01*
G01*
G75*
G01X2853Y2852D02*
G03X2158Y3452I-695J-102D01*
G01*
G75*
G01X2154Y3452D02*
G03X2252Y3749I-403J298D01*
G01*
G75*
G01X2252Y3749D02*
G03X2154Y4047I-501J0D01*
G01*
G75*
G01X2158Y4047D02*
G03X2853Y4647I0J702D01*
G01*
G75*
G01X2853Y4647D02*
G03X3453Y5342I-102J695D01*
G01*
G75*
G01X3453Y5346D02*
G03X3751Y5248I298J403D01*
G01*
G75*
G01X3751Y5248D02*
G03X4048Y5346I-1J501D01*
G01*
G75*
G01X4048Y5342D02*
G03X4648Y4647I702J0D01*
G01*
G75*
G01X4648Y4647D02*
G03X5343Y4047I695J102D01*
G01*
G75*
G01X5347Y4047D02*
G03X5249Y3749I403J-298D01*
G01*
G75*
G01X5249Y3749D02*
G03X5347Y3452I501J1D01*
G01*
G75*
G01X5343Y3452D02*
G03X4648Y2852I0J-702D01*
G01*
G75*
G01X4648Y2852D02*
G03X4048Y2157I102J-695D01*
G01*
G75*
G01X4048Y2153D02*
G03X3751Y2251I-298J-403D01*
G01*
G75*
G01X3751Y2251D02*
G03X3453Y2153I0J-501D01*
G01*
G75*
G01X2799Y3749D02*
G03X3751Y2798I951J1D01*
G01*
G75*
G01X3751Y2798D02*
G03X4702Y3749I0J952D01*
G01*
G75*
G01X4702Y3749D02*
G03X3751Y4701I-951J1D01*
G01*
G75*
G01X3751Y4701D02*
G03X2799Y3749I-1J-951D01*
G01*
G75*
G01X6533Y5078D02*
G03X6979Y4769I446J168D01*
G01*
G75*
G01X6979Y4769D02*
G03X7344Y4939I0J477D01*
G01*
G75*
G01X6733Y4492D02*
G03X6581Y4340I0J-152D01*
G01*
G75*
G01X6581Y3159D02*
G03X6733Y3007I152J0D01*
G01*
G75*
G01X6793Y3007D02*
G03X6777Y2930I185J-77D01*
G01*
G75*
G01X6654Y2769D02*
G03X6533Y2709I0J-151D01*
G01*
G75*
G01X7344Y2764D02*
G03X7304Y2769I-40J-146D01*
G01*
G75*
G01X7239Y2904D02*
G03X7295Y3007I-141J143D01*
G01*
G75*
G01X6130Y3270D02*
G03X6039Y3340I-472J-521D01*
G01*
G75*
G01X6039Y3340D02*
G03X6130Y3422I-289J409D01*
G01*
G75*
G01X6130Y4077D02*
G03X6039Y4159I-380J-327D01*
G01*
G75*
G01X6039Y4159D02*
G03X6130Y4229I-381J591D01*
G01*
G75*
G01X6533Y9376D02*
G03X6654Y9316I121J92D01*
G01*
G75*
G01X7304Y9316D02*
G03X7344Y9322I0J152D01*
G01*
G75*
G01X7344Y5552D02*
G03X6979Y5722I-365J-306D01*
G01*
G75*
G01X6979Y5722D02*
G03X6533Y5414I0J-476D01*
G01*
G75*
G01X3453Y9657D02*
G03X2853Y10352I-702J0D01*
G01*
G75*
G01X2853Y10352D02*
G03X2158Y10952I-695J-102D01*
G01*
G75*
G01X2154Y10952D02*
G03X2252Y11249I-403J298D01*
G01*
G75*
G01X2252Y11249D02*
G03X2154Y11547I-501J0D01*
G01*
G75*
G01X2158Y11547D02*
G03X2853Y12147I0J702D01*
G01*
G75*
G01X2853Y12147D02*
G03X3453Y12842I-102J695D01*
G01*
G75*
G01X3453Y12846D02*
G03X3751Y12748I298J403D01*
G01*
G75*
G01X3751Y12748D02*
G03X4048Y12846I-1J501D01*
G01*
G75*
G01X4048Y12842D02*
G03X4648Y12147I702J0D01*
G01*
G75*
G01X4648Y12147D02*
G03X5343Y11547I695J102D01*
G01*
G75*
G01X5347Y11547D02*
G03X5249Y11249I403J-298D01*
G01*
G75*
G01X5249Y11249D02*
G03X5347Y10952I501J1D01*
G01*
G75*
G01X5343Y10952D02*
G03X4648Y10352I0J-702D01*
G01*
G75*
G01X4648Y10352D02*
G03X4048Y9657I102J-695D01*
G01*
G75*
G01X4048Y9653D02*
G03X3751Y9751I-298J-403D01*
G01*
G75*
G01X3751Y9751D02*
G03X3453Y9653I0J-501D01*
G01*
G75*
G01X2799Y11249D02*
G03X3751Y10298I951J1D01*
G01*
G75*
G01X3751Y10298D02*
G03X4702Y11249I0J952D01*
G01*
G75*
G01X4702Y11249D02*
G03X3751Y12201I-951J1D01*
G01*
G75*
G01X3751Y12201D02*
G03X2799Y11249I-1J-951D01*
G01*
G75*
G01X6533Y12578D02*
G03X6979Y12269I446J168D01*
G01*
G75*
G01X6979Y12269D02*
G03X7344Y12439I0J477D01*
G01*
G75*
G01X6733Y11992D02*
G03X6581Y11840I0J-152D01*
G01*
G75*
G01X6581Y10659D02*
G03X6733Y10507I152J0D01*
G01*
G75*
G01X6793Y10507D02*
G03X6777Y10430I185J-77D01*
G01*
G75*
G01X6654Y10269D02*
G03X6533Y10209I0J-151D01*
G01*
G75*
G01X7344Y10264D02*
G03X7304Y10269I-40J-146D01*
G01*
G75*
G01X7239Y10404D02*
G03X7295Y10507I-141J143D01*
G01*
G75*
G01X6130Y10770D02*
G03X6039Y10840I-472J-521D01*
G01*
G75*
G01X6039Y10840D02*
G03X6130Y10922I-289J409D01*
G01*
G75*
G01X6130Y11577D02*
G03X6039Y11659I-380J-327D01*
G01*
G75*
G01X6039Y11659D02*
G03X6130Y11729I-381J591D01*
G01*
G75*
G01X6533Y14874D02*
G03X6474Y15016I-201J-1D01*
G01*
G75*
G01X5736Y15835D02*
G03X5585Y15986I-152J0D01*
G01*
G75*
G01X6479Y16881D02*
G03X6510Y16921I-143J142D01*
G01*
G75*
G01X6510Y16921D02*
G03X6654Y16816I144J47D01*
G01*
G75*
G01X7304Y16816D02*
G03X7344Y16822I0J152D01*
G01*
G75*
G01X7344Y13052D02*
G03X6979Y13222I-365J-306D01*
G01*
G75*
G01X6979Y13222D02*
G03X6533Y12914I0J-476D01*
G01*
G75*
G01X5808Y15112D02*
G03X5786Y15114I-21J-150D01*
G01*
G75*
G01X5718Y15114D02*
G03X5736Y15184I-134J71D01*
G01*
G75*
G01X4783Y15185D02*
G03X4800Y15114I151J0D01*
G01*
G75*
G01X2572Y15114D02*
G03X2783Y15509I-266J396D01*
G01*
G75*
G01X2783Y15509D02*
G03X2754Y15672I-477J0D01*
G01*
G75*
G01X2893Y15811D02*
G03X2952Y15953I-142J143D01*
G01*
G75*
G01X2952Y16169D02*
G03X3341Y16461I-201J673D01*
G01*
G75*
G01X3341Y16461D02*
G03X3751Y16248I409J288D01*
G01*
G75*
G01X3751Y16248D02*
G03X4160Y16461I0J501D01*
G01*
G75*
G01X4160Y16461D02*
G03X4751Y16139I590J381D01*
G01*
G75*
G01X4751Y16139D02*
G03X5453Y16842I0J703D01*
G01*
G75*
G01X5658Y17047D02*
G03X6135Y17234I0J702D01*
G01*
G75*
G01X5117Y16088D02*
G03X5062Y15986I142J-143D01*
G01*
G75*
G01X4934Y15986D02*
G03X4783Y15835I0J-151D01*
G01*
G75*
G01X3453Y17157D02*
G03X2853Y17852I-702J0D01*
G01*
G75*
G01X2853Y17852D02*
G03X2158Y18452I-695J-102D01*
G01*
G75*
G01X2154Y18452D02*
G03X2252Y18749I-403J298D01*
G01*
G75*
G01X2252Y18749D02*
G03X2154Y19047I-501J0D01*
G01*
G75*
G01X2158Y19047D02*
G03X2853Y19647I0J702D01*
G01*
G75*
G01X2853Y19647D02*
G03X3453Y20342I-102J695D01*
G01*
G75*
G01X3453Y20346D02*
G03X3751Y20248I298J403D01*
G01*
G75*
G01X3751Y20248D02*
G03X4048Y20346I-1J501D01*
G01*
G75*
G01X4048Y20342D02*
G03X4648Y19647I702J0D01*
G01*
G75*
G01X4648Y19647D02*
G03X5343Y19047I695J102D01*
G01*
G75*
G01X5347Y19047D02*
G03X5249Y18749I403J-298D01*
G01*
G75*
G01X5249Y18749D02*
G03X5347Y18452I501J1D01*
G01*
G75*
G01X5343Y18452D02*
G03X4648Y17852I0J-702D01*
G01*
G75*
G01X4648Y17852D02*
G03X4048Y17157I102J-695D01*
G01*
G75*
G01X4048Y17153D02*
G03X3751Y17251I-298J-403D01*
G01*
G75*
G01X3751Y17251D02*
G03X3453Y17153I0J-501D01*
G01*
G75*
G01X3751Y17798D02*
G03X4702Y18749I0J952D01*
G01*
G75*
G01X4702Y18749D02*
G03X3751Y19701I-951J1D01*
G01*
G75*
G01X3751Y19701D02*
G03X2799Y18749I-1J-951D01*
G01*
G75*
G01X2799Y18749D02*
G03X3751Y17798I951J1D01*
G01*
G75*
G01X6538Y20065D02*
G03X6979Y19769I441J181D01*
G01*
G75*
G01X6979Y19769D02*
G03X7344Y19939I0J477D01*
G01*
G75*
G01X6733Y19492D02*
G03X6581Y19340I0J-152D01*
G01*
G75*
G01X6581Y18159D02*
G03X6733Y18007I152J0D01*
G01*
G75*
G01X6793Y18007D02*
G03X6777Y17930I185J-77D01*
G01*
G75*
G01X6654Y17769D02*
G03X6538Y17715I0J-151D01*
G01*
G75*
G01X7344Y17764D02*
G03X7304Y17769I-40J-146D01*
G01*
G75*
G01X7239Y17904D02*
G03X7295Y18007I-141J143D01*
G01*
G75*
G01X6135Y18265D02*
G03X6039Y18340I-477J-515D01*
G01*
G75*
G01X6039Y18340D02*
G03X6135Y18428I-289J409D01*
G01*
G75*
G01X6135Y19071D02*
G03X6039Y19159I-385J-321D01*
G01*
G75*
G01X6039Y19159D02*
G03X6135Y19234I-381J590D01*
G01*
G75*
G01X6538Y24370D02*
G03X6654Y24316I116J98D01*
G01*
G75*
G01X7304Y24316D02*
G03X7344Y24322I0J152D01*
G01*
G75*
G01X7344Y20552D02*
G03X6979Y20722I-365J-306D01*
G01*
G75*
G01X6979Y20722D02*
G03X6538Y20426I0J-476D01*
G01*
G75*
G01X3751Y24751D02*
G03X3453Y24653I0J-501D01*
G01*
G75*
G01X3453Y24657D02*
G03X2853Y25352I-702J0D01*
G01*
G75*
G01X2853Y25352D02*
G03X2158Y25952I-695J-102D01*
G01*
G75*
G01X2154Y25952D02*
G03X2252Y26249I-403J298D01*
G01*
G75*
G01X2252Y26249D02*
G03X2154Y26547I-501J0D01*
G01*
G75*
G01X2158Y26547D02*
G03X2853Y27147I0J702D01*
G01*
G75*
G01X2853Y27147D02*
G03X3453Y27842I-102J695D01*
G01*
G75*
G01X3453Y27846D02*
G03X3751Y27748I298J403D01*
G01*
G75*
G01X3751Y27748D02*
G03X4048Y27846I-1J501D01*
G01*
G75*
G01X4048Y27842D02*
G03X4648Y27147I702J0D01*
G01*
G75*
G01X4648Y27147D02*
G03X5343Y26547I695J102D01*
G01*
G75*
G01X5347Y26547D02*
G03X5249Y26249I403J-298D01*
G01*
G75*
G01X5249Y26249D02*
G03X5347Y25952I501J1D01*
G01*
G75*
G01X5343Y25952D02*
G03X4648Y25352I0J-702D01*
G01*
G75*
G01X4648Y25352D02*
G03X4048Y24657I102J-695D01*
G01*
G75*
G01X4048Y24653D02*
G03X3751Y24751I-298J-403D01*
G01*
G75*
G01X3751Y25298D02*
G03X4702Y26249I0J952D01*
G01*
G75*
G01X4702Y26249D02*
G03X3751Y27201I-951J1D01*
G01*
G75*
G01X3751Y27201D02*
G03X2799Y26249I-1J-951D01*
G01*
G75*
G01X2799Y26249D02*
G03X3751Y25298I951J1D01*
G01*
G75*
G01X6538Y27565D02*
G03X6979Y27269I441J181D01*
G01*
G75*
G01X6979Y27269D02*
G03X7344Y27439I0J477D01*
G01*
G75*
G01X6733Y26992D02*
G03X6581Y26840I0J-152D01*
G01*
G75*
G01X6581Y25659D02*
G03X6733Y25507I152J0D01*
G01*
G75*
G01X6793Y25507D02*
G03X6777Y25430I185J-77D01*
G01*
G75*
G01X6654Y25269D02*
G03X6538Y25215I0J-151D01*
G01*
G75*
G01X7344Y25264D02*
G03X7304Y25269I-40J-146D01*
G01*
G75*
G01X7239Y25404D02*
G03X7295Y25507I-141J143D01*
G01*
G75*
G01X6135Y25765D02*
G03X6039Y25840I-477J-515D01*
G01*
G75*
G01X6039Y25840D02*
G03X6135Y25928I-289J409D01*
G01*
G75*
G01X6135Y26571D02*
G03X6039Y26659I-385J-321D01*
G01*
G75*
G01X6039Y26659D02*
G03X6135Y26734I-381J590D01*
G01*
G75*
G01X7344Y469D02*
G02X7031Y157I-313J0D01*
G01*
G75*
G01X5733Y157D02*
G03X5736Y185I-149J28D01*
G01*
G75*
G01X5736Y835D02*
G03X5585Y986I-152J0D01*
G01*
G75*
G01X6474Y1875D02*
G03X6509Y1923I-142J143D01*
G01*
G75*
G01X6509Y1923D02*
G03X6654Y1816I145J45D01*
G01*
G75*
G01X7304Y1816D02*
G03X7344Y1822I0J152D01*
G01*
G75*
G01X7344Y481D02*
G03X7344Y469I156J-12D01*
G01*
G75*
G01X4783Y185D02*
G03X4785Y157I151J0D01*
G01*
G75*
G01X4493Y767D02*
G03X4341Y919I-152J0D01*
G01*
G75*
G01X3160Y919D02*
G03X3008Y767I0J-152D01*
G01*
G75*
G01X2627Y157D02*
G03X2783Y509I-321J353D01*
G01*
G75*
G01X2783Y509D02*
G03X2508Y941I-477J1D01*
G01*
G75*
G01X2508Y1183D02*
G03X2751Y1139I242J659D01*
G01*
G75*
G01X2751Y1139D02*
G03X3341Y1461I0J703D01*
G01*
G75*
G01X3341Y1461D02*
G03X3751Y1248I409J288D01*
G01*
G75*
G01X3751Y1248D02*
G03X4160Y1461I0J501D01*
G01*
G75*
G01X4160Y1461D02*
G03X4751Y1139I590J381D01*
G01*
G75*
G01X4751Y1139D02*
G03X5453Y1842I0J703D01*
G01*
G75*
G01X5658Y2047D02*
G03X6130Y2229I0J702D01*
G01*
G75*
G01X5117Y1088D02*
G03X5062Y986I142J-143D01*
G01*
G75*
G01X4934Y986D02*
G03X4783Y835I0J-151D01*
G01*
G75*
G01X469Y157D02*
G03X458Y157I0J-156D01*
G01*
G75*
G01X458Y157D02*
G02X156Y469I11J312D01*
G01*
G75*
G01X768Y3007D02*
G03X920Y3159I0J152D01*
G01*
G75*
G01X920Y4340D02*
G03X768Y4492I-152J0D01*
G01*
G75*
G01X768Y10507D02*
G03X920Y10659I0J152D01*
G01*
G75*
G01X920Y11840D02*
G03X768Y11992I-152J0D01*
G01*
G75*
G01X768Y18007D02*
G03X920Y18159I0J152D01*
G01*
G75*
G01X920Y19340D02*
G03X768Y19492I-152J0D01*
G01*
G75*
G01X768Y25507D02*
G03X920Y25659I0J152D01*
G01*
G75*
G01X920Y26840D02*
G03X768Y26992I-152J0D01*
G01*
G75*
G01X156Y29531D02*
G02X469Y29843I313J0D01*
G01*
G75*
G01X3008Y29232D02*
G03X3160Y29080I152J0D01*
G01*
G75*
G01X4341Y29080D02*
G03X4493Y29232I0J152D01*
G01*
G75*
G01X7031Y29843D02*
G02X7344Y29531I0J-312D01*
G01*
G75*
G01X7344Y28052D02*
G03X6979Y28222I-365J-306D01*
G01*
G75*
G01X6979Y28222D02*
G03X6538Y27926I0J-476D01*
G01*
G75*
G01X6538Y28513D02*
G03X6608Y28695I-201J181D01*
G01*
G75*
G01X6608Y28695D02*
G03X6336Y28966I-272J-1D01*
G01*
G75*
G01X6336Y28966D02*
G03X6065Y28695I0J-272D01*
G01*
G75*
G01X6065Y28695D02*
G03X6135Y28513I271J-1D01*
G01*
G75*
G01X6135Y27765D02*
G03X5658Y27952I-477J-515D01*
G01*
G75*
G01X5453Y28157D02*
G03X4751Y28860I-702J0D01*
G01*
G75*
G01X4751Y28860D02*
G03X4160Y28538I-1J-703D01*
G01*
G75*
G01X4160Y28538D02*
G03X3751Y28751I-409J-288D01*
G01*
G75*
G01X3751Y28751D02*
G03X3341Y28538I-1J-501D01*
G01*
G75*
G01X3341Y28538D02*
G03X2751Y28860I-590J-381D01*
G01*
G75*
G01X2751Y28860D02*
G03X2048Y28157I-1J-703D01*
G01*
G75*
G01X1843Y27952D02*
G03X1140Y27249I0J-703D01*
G01*
G75*
G01X1140Y27249D02*
G03X1462Y26659I703J0D01*
G01*
G75*
G01X1462Y26659D02*
G03X1249Y26249I288J-409D01*
G01*
G75*
G01X1249Y26249D02*
G03X1462Y25840I501J0D01*
G01*
G75*
G01X1462Y25840D02*
G03X1140Y25249I381J-590D01*
G01*
G75*
G01X1140Y25249D02*
G03X1843Y24547I703J0D01*
G01*
G75*
G01X2048Y24342D02*
G03X2751Y23639I702J0D01*
G01*
G75*
G01X2751Y23639D02*
G03X3341Y23961I0J703D01*
G01*
G75*
G01X3341Y23961D02*
G03X3751Y23748I409J288D01*
G01*
G75*
G01X3751Y23748D02*
G03X4160Y23961I0J501D01*
G01*
G75*
G01X4160Y23961D02*
G03X4751Y23639I590J381D01*
G01*
G75*
G01X4751Y23639D02*
G03X5453Y24342I0J703D01*
G01*
G75*
G01X5658Y24547D02*
G03X6135Y24734I0J702D01*
G01*
G75*
G01X5736Y23335D02*
G03X5584Y23486I-152J0D01*
G01*
G75*
G01X4934Y23486D02*
G03X4783Y23335I0J-151D01*
G01*
G75*
G01X4783Y22685D02*
G03X4934Y22533I151J0D01*
G01*
G75*
G01X5062Y22533D02*
G03X5260Y22372I198J40D01*
G01*
G75*
G01X6135Y20265D02*
G03X5658Y20452I-477J-515D01*
G01*
G75*
G01X5453Y20657D02*
G03X4751Y21360I-702J0D01*
G01*
G75*
G01X4751Y21360D02*
G03X4160Y21038I-1J-703D01*
G01*
G75*
G01X4160Y21038D02*
G03X3751Y21251I-409J-288D01*
G01*
G75*
G01X3751Y21251D02*
G03X3341Y21038I-1J-501D01*
G01*
G75*
G01X3341Y21038D02*
G03X2751Y21360I-590J-381D01*
G01*
G75*
G01X2751Y21360D02*
G03X2048Y20657I-1J-703D01*
G01*
G75*
G01X1843Y20452D02*
G03X1140Y19749I0J-703D01*
G01*
G75*
G01X1140Y19749D02*
G03X1462Y19159I703J0D01*
G01*
G75*
G01X1462Y19159D02*
G03X1249Y18749I288J-409D01*
G01*
G75*
G01X1249Y18749D02*
G03X1462Y18340I501J0D01*
G01*
G75*
G01X1462Y18340D02*
G03X1140Y17749I381J-590D01*
G01*
G75*
G01X1140Y17749D02*
G03X1843Y17047I703J0D01*
G01*
G75*
G01X2048Y16842D02*
G03X2549Y16169I702J0D01*
G01*
G75*
G01X2469Y15957D02*
G03X2306Y15986I-163J-448D01*
G01*
G75*
G01X2306Y15986D02*
G03X1830Y15509I0J-476D01*
G01*
G75*
G01X1830Y15509D02*
G03X2041Y15114I476J1D01*
G01*
G75*
G01X1882Y15114D02*
G03X1731Y14962I1J-152D01*
G01*
G75*
G01X1731Y14412D02*
G03X1882Y14261I152J0D01*
G01*
G75*
G01X5786Y14261D02*
G03X5938Y14412I0J151D01*
G01*
G75*
G01X5938Y14962D02*
G03X5936Y14984I-151J0D01*
G01*
G75*
G01X6130Y12770D02*
G03X5658Y12952I-472J-520D01*
G01*
G75*
G01X5453Y13157D02*
G03X4751Y13860I-702J0D01*
G01*
G75*
G01X4751Y13860D02*
G03X4160Y13538I-1J-703D01*
G01*
G75*
G01X4160Y13538D02*
G03X3751Y13751I-409J-288D01*
G01*
G75*
G01X3751Y13751D02*
G03X3341Y13538I-1J-501D01*
G01*
G75*
G01X3341Y13538D02*
G03X2751Y13860I-590J-381D01*
G01*
G75*
G01X2751Y13860D02*
G03X2048Y13157I-1J-703D01*
G01*
G75*
G01X1843Y12952D02*
G03X1140Y12249I0J-703D01*
G01*
G75*
G01X1140Y12249D02*
G03X1462Y11659I703J0D01*
G01*
G75*
G01X1462Y11659D02*
G03X1249Y11249I288J-409D01*
G01*
G75*
G01X1249Y11249D02*
G03X1462Y10840I501J0D01*
G01*
G75*
G01X1462Y10840D02*
G03X1140Y10249I381J-590D01*
G01*
G75*
G01X1140Y10249D02*
G03X1843Y9547I703J0D01*
G01*
G75*
G01X2048Y9342D02*
G03X2549Y8669I702J0D01*
G01*
G75*
G01X2469Y8457D02*
G03X2306Y8486I-163J-448D01*
G01*
G75*
G01X2306Y8486D02*
G03X1830Y8009I0J-476D01*
G01*
G75*
G01X1830Y8009D02*
G03X2306Y7533I476J0D01*
G01*
G75*
G01X2306Y7533D02*
G03X2783Y8009I0J476D01*
G01*
G75*
G01X2783Y8009D02*
G03X2754Y8172I-477J0D01*
G01*
G75*
G01X2893Y8311D02*
G03X2952Y8453I-142J143D01*
G01*
G75*
G01X2952Y8669D02*
G03X3341Y8961I-201J673D01*
G01*
G75*
G01X3341Y8961D02*
G03X3751Y8748I409J288D01*
G01*
G75*
G01X3751Y8748D02*
G03X4160Y8961I0J501D01*
G01*
G75*
G01X4160Y8961D02*
G03X4751Y8639I590J381D01*
G01*
G75*
G01X4751Y8639D02*
G03X5453Y9342I0J703D01*
G01*
G75*
G01X5658Y9547D02*
G03X6130Y9729I0J702D01*
G01*
G75*
G01X5585Y7533D02*
G03X5736Y7685I-1J152D01*
G01*
G75*
G01X5736Y8335D02*
G03X5584Y8486I-152J0D01*
G01*
G75*
G01X4934Y8486D02*
G03X4783Y8335I0J-151D01*
G01*
G75*
G01X4783Y7685D02*
G03X4934Y7533I151J0D01*
G01*
G75*
G01X5062Y7533D02*
G03X5117Y7431I198J40D01*
G01*
G75*
G01X6130Y5270D02*
G03X5658Y5452I-472J-520D01*
G01*
G75*
G01X5453Y5657D02*
G03X4751Y6360I-702J0D01*
G01*
G75*
G01X4751Y6360D02*
G03X4160Y6038I-1J-703D01*
G01*
G75*
G01X4160Y6038D02*
G03X3751Y6251I-409J-288D01*
G01*
G75*
G01X3751Y6251D02*
G03X3341Y6038I-1J-501D01*
G01*
G75*
G01X3341Y6038D02*
G03X2751Y6360I-590J-381D01*
G01*
G75*
G01X2751Y6360D02*
G03X2048Y5657I-1J-703D01*
G01*
G75*
G01X1843Y5452D02*
G03X1140Y4749I0J-703D01*
G01*
G75*
G01X1140Y4749D02*
G03X1462Y4159I703J0D01*
G01*
G75*
G01X1462Y4159D02*
G03X1249Y3749I288J-409D01*
G01*
G75*
G01X1249Y3749D02*
G03X1462Y3340I501J0D01*
G01*
G75*
G01X1462Y3340D02*
G03X1140Y2749I381J-590D01*
G01*
G75*
G01X1140Y2749D02*
G03X1843Y2047I703J0D01*
G01*
G75*
G01X2048Y1842D02*
G03X2105Y1564I702J0D01*
G01*
G75*
G01X2105Y1564D02*
G03X2105Y1555I201J-9D01*
G01*
G75*
G01X2105Y941D02*
G03X1830Y509I201J-432D01*
G01*
G75*
G01X1830Y509D02*
G03X1986Y157I476J0D01*
G01*
G75*
G01X1830Y23009D02*
G03X2306Y22533I476J0D01*
G01*
G75*
G01X2306Y22533D02*
G03X2783Y23009I0J476D01*
G01*
G75*
G01X2783Y23009D02*
G03X2306Y23486I-477J1D01*
G01*
G75*
G01X2306Y23486D02*
G03X1830Y23009I0J-476D01*
G01*
G75*
G01X3453Y2157D02*
G03X2853Y2852I-702J0D01*
G01*
G75*
G01X2853Y2852D02*
G03X2158Y3452I-695J-102D01*
G01*
G75*
G01X2154Y3452D02*
G03X2252Y3749I-403J298D01*
G01*
G75*
G01X2252Y3749D02*
G03X2154Y4047I-501J0D01*
G01*
G75*
G01X2158Y4047D02*
G03X2853Y4647I0J702D01*
G01*
G75*
G01X2853Y4647D02*
G03X3453Y5342I-102J695D01*
G01*
G75*
G01X3453Y5346D02*
G03X3751Y5248I298J403D01*
G01*
G75*
G01X3751Y5248D02*
G03X4048Y5346I-1J501D01*
G01*
G75*
G01X4048Y5342D02*
G03X4648Y4647I702J0D01*
G01*
G75*
G01X4648Y4647D02*
G03X5343Y4047I695J102D01*
G01*
G75*
G01X5347Y4047D02*
G03X5249Y3749I403J-298D01*
G01*
G75*
G01X5249Y3749D02*
G03X5347Y3452I501J1D01*
G01*
G75*
G01X5343Y3452D02*
G03X4648Y2852I0J-702D01*
G01*
G75*
G01X4648Y2852D02*
G03X4048Y2157I102J-695D01*
G01*
G75*
G01X4048Y2153D02*
G03X3751Y2251I-298J-403D01*
G01*
G75*
G01X3751Y2251D02*
G03X3453Y2153I0J-501D01*
G01*
G75*
G01X2799Y3749D02*
G03X3751Y2798I951J1D01*
G01*
G75*
G01X3751Y2798D02*
G03X4702Y3749I0J952D01*
G01*
G75*
G01X4702Y3749D02*
G03X3751Y4701I-951J1D01*
G01*
G75*
G01X3751Y4701D02*
G03X2799Y3749I-1J-951D01*
G01*
G75*
G01X6533Y5078D02*
G03X6979Y4769I446J168D01*
G01*
G75*
G01X6979Y4769D02*
G03X7344Y4939I0J477D01*
G01*
G75*
G01X6733Y4492D02*
G03X6581Y4340I0J-152D01*
G01*
G75*
G01X6581Y3159D02*
G03X6733Y3007I152J0D01*
G01*
G75*
G01X6793Y3007D02*
G03X6777Y2930I185J-77D01*
G01*
G75*
G01X6654Y2769D02*
G03X6533Y2709I0J-151D01*
G01*
G75*
G01X7344Y2764D02*
G03X7304Y2769I-40J-146D01*
G01*
G75*
G01X7239Y2904D02*
G03X7295Y3007I-141J143D01*
G01*
G75*
G01X6130Y3270D02*
G03X6039Y3340I-472J-521D01*
G01*
G75*
G01X6039Y3340D02*
G03X6130Y3422I-289J409D01*
G01*
G75*
G01X6130Y4077D02*
G03X6039Y4159I-380J-327D01*
G01*
G75*
G01X6039Y4159D02*
G03X6130Y4229I-381J591D01*
G01*
G75*
G01X6533Y9376D02*
G03X6654Y9316I121J92D01*
G01*
G75*
G01X7304Y9316D02*
G03X7344Y9322I0J152D01*
G01*
G75*
G01X7344Y5552D02*
G03X6979Y5722I-365J-306D01*
G01*
G75*
G01X6979Y5722D02*
G03X6533Y5414I0J-476D01*
G01*
G75*
G01X3453Y9657D02*
G03X2853Y10352I-702J0D01*
G01*
G75*
G01X2853Y10352D02*
G03X2158Y10952I-695J-102D01*
G01*
G75*
G01X2154Y10952D02*
G03X2252Y11249I-403J298D01*
G01*
G75*
G01X2252Y11249D02*
G03X2154Y11547I-501J0D01*
G01*
G75*
G01X2158Y11547D02*
G03X2853Y12147I0J702D01*
G01*
G75*
G01X2853Y12147D02*
G03X3453Y12842I-102J695D01*
G01*
G75*
G01X3453Y12846D02*
G03X3751Y12748I298J403D01*
G01*
G75*
G01X3751Y12748D02*
G03X4048Y12846I-1J501D01*
G01*
G75*
G01X4048Y12842D02*
G03X4648Y12147I702J0D01*
G01*
G75*
G01X4648Y12147D02*
G03X5343Y11547I695J102D01*
G01*
G75*
G01X5347Y11547D02*
G03X5249Y11249I403J-298D01*
G01*
G75*
G01X5249Y11249D02*
G03X5347Y10952I501J1D01*
G01*
G75*
G01X5343Y10952D02*
G03X4648Y10352I0J-702D01*
G01*
G75*
G01X4648Y10352D02*
G03X4048Y9657I102J-695D01*
G01*
G75*
G01X4048Y9653D02*
G03X3751Y9751I-298J-403D01*
G01*
G75*
G01X3751Y9751D02*
G03X3453Y9653I0J-501D01*
G01*
G75*
G01X2799Y11249D02*
G03X3751Y10298I951J1D01*
G01*
G75*
G01X3751Y10298D02*
G03X4702Y11249I0J952D01*
G01*
G75*
G01X4702Y11249D02*
G03X3751Y12201I-951J1D01*
G01*
G75*
G01X3751Y12201D02*
G03X2799Y11249I-1J-951D01*
G01*
G75*
G01X6533Y12578D02*
G03X6979Y12269I446J168D01*
G01*
G75*
G01X6979Y12269D02*
G03X7344Y12439I0J477D01*
G01*
G75*
G01X6733Y11992D02*
G03X6581Y11840I0J-152D01*
G01*
G75*
G01X6581Y10659D02*
G03X6733Y10507I152J0D01*
G01*
G75*
G01X6793Y10507D02*
G03X6777Y10430I185J-77D01*
G01*
G75*
G01X6654Y10269D02*
G03X6533Y10209I0J-151D01*
G01*
G75*
G01X7344Y10264D02*
G03X7304Y10269I-40J-146D01*
G01*
G75*
G01X7239Y10404D02*
G03X7295Y10507I-141J143D01*
G01*
G75*
G01X6130Y10770D02*
G03X6039Y10840I-472J-521D01*
G01*
G75*
G01X6039Y10840D02*
G03X6130Y10922I-289J409D01*
G01*
G75*
G01X6130Y11577D02*
G03X6039Y11659I-380J-327D01*
G01*
G75*
G01X6039Y11659D02*
G03X6130Y11729I-381J591D01*
G01*
G75*
G01X6533Y14874D02*
G03X6474Y15016I-201J-1D01*
G01*
G75*
G01X5736Y15835D02*
G03X5585Y15986I-152J0D01*
G01*
G75*
G01X6479Y16881D02*
G03X6510Y16921I-143J142D01*
G01*
G75*
G01X6510Y16921D02*
G03X6654Y16816I144J47D01*
G01*
G75*
G01X7304Y16816D02*
G03X7344Y16822I0J152D01*
G01*
G75*
G01X7344Y13052D02*
G03X6979Y13222I-365J-306D01*
G01*
G75*
G01X6979Y13222D02*
G03X6533Y12914I0J-476D01*
G01*
G75*
G01X5808Y15112D02*
G03X5786Y15114I-21J-150D01*
G01*
G75*
G01X5718Y15114D02*
G03X5736Y15184I-134J71D01*
G01*
G75*
G01X4783Y15185D02*
G03X4800Y15114I151J0D01*
G01*
G75*
G01X2572Y15114D02*
G03X2783Y15509I-266J396D01*
G01*
G75*
G01X2783Y15509D02*
G03X2754Y15672I-477J0D01*
G01*
G75*
G01X2893Y15811D02*
G03X2952Y15953I-142J143D01*
G01*
G75*
G01X2952Y16169D02*
G03X3341Y16461I-201J673D01*
G01*
G75*
G01X3341Y16461D02*
G03X3751Y16248I409J288D01*
G01*
G75*
G01X3751Y16248D02*
G03X4160Y16461I0J501D01*
G01*
G75*
G01X4160Y16461D02*
G03X4751Y16139I590J381D01*
G01*
G75*
G01X4751Y16139D02*
G03X5453Y16842I0J703D01*
G01*
G75*
G01X5658Y17047D02*
G03X6135Y17234I0J702D01*
G01*
G75*
G01X5117Y16088D02*
G03X5062Y15986I142J-143D01*
G01*
G75*
G01X4934Y15986D02*
G03X4783Y15835I0J-151D01*
G01*
G75*
G01X3453Y17157D02*
G03X2853Y17852I-702J0D01*
G01*
G75*
G01X2853Y17852D02*
G03X2158Y18452I-695J-102D01*
G01*
G75*
G01X2154Y18452D02*
G03X2252Y18749I-403J298D01*
G01*
G75*
G01X2252Y18749D02*
G03X2154Y19047I-501J0D01*
G01*
G75*
G01X2158Y19047D02*
G03X2853Y19647I0J702D01*
G01*
G75*
G01X2853Y19647D02*
G03X3453Y20342I-102J695D01*
G01*
G75*
G01X3453Y20346D02*
G03X3751Y20248I298J403D01*
G01*
G75*
G01X3751Y20248D02*
G03X4048Y20346I-1J501D01*
G01*
G75*
G01X4048Y20342D02*
G03X4648Y19647I702J0D01*
G01*
G75*
G01X4648Y19647D02*
G03X5343Y19047I695J102D01*
G01*
G75*
G01X5347Y19047D02*
G03X5249Y18749I403J-298D01*
G01*
G75*
G01X5249Y18749D02*
G03X5347Y18452I501J1D01*
G01*
G75*
G01X5343Y18452D02*
G03X4648Y17852I0J-702D01*
G01*
G75*
G01X4648Y17852D02*
G03X4048Y17157I102J-695D01*
G01*
G75*
G01X4048Y17153D02*
G03X3751Y17251I-298J-403D01*
G01*
G75*
G01X3751Y17251D02*
G03X3453Y17153I0J-501D01*
G01*
G75*
G01X3751Y17798D02*
G03X4702Y18749I0J952D01*
G01*
G75*
G01X4702Y18749D02*
G03X3751Y19701I-951J1D01*
G01*
G75*
G01X3751Y19701D02*
G03X2799Y18749I-1J-951D01*
G01*
G75*
G01X2799Y18749D02*
G03X3751Y17798I951J1D01*
G01*
G75*
G01X6538Y20065D02*
G03X6979Y19769I441J181D01*
G01*
G75*
G01X6979Y19769D02*
G03X7344Y19939I0J477D01*
G01*
G75*
G01X6733Y19492D02*
G03X6581Y19340I0J-152D01*
G01*
G75*
G01X6581Y18159D02*
G03X6733Y18007I152J0D01*
G01*
G75*
G01X6793Y18007D02*
G03X6777Y17930I185J-77D01*
G01*
G75*
G01X6654Y17769D02*
G03X6538Y17715I0J-151D01*
G01*
G75*
G01X7344Y17764D02*
G03X7304Y17769I-40J-146D01*
G01*
G75*
G01X7239Y17904D02*
G03X7295Y18007I-141J143D01*
G01*
G75*
G01X6135Y18265D02*
G03X6039Y18340I-477J-515D01*
G01*
G75*
G01X6039Y18340D02*
G03X6135Y18428I-289J409D01*
G01*
G75*
G01X6135Y19071D02*
G03X6039Y19159I-385J-321D01*
G01*
G75*
G01X6039Y19159D02*
G03X6135Y19234I-381J590D01*
G01*
G75*
G01X6538Y24370D02*
G03X6654Y24316I116J98D01*
G01*
G75*
G01X7304Y24316D02*
G03X7344Y24322I0J152D01*
G01*
G75*
G01X7344Y20552D02*
G03X6979Y20722I-365J-306D01*
G01*
G75*
G01X6979Y20722D02*
G03X6538Y20426I0J-476D01*
G01*
G75*
G01X3751Y24751D02*
G03X3453Y24653I0J-501D01*
G01*
G75*
G01X3453Y24657D02*
G03X2853Y25352I-702J0D01*
G01*
G75*
G01X2853Y25352D02*
G03X2158Y25952I-695J-102D01*
G01*
G75*
G01X2154Y25952D02*
G03X2252Y26249I-403J298D01*
G01*
G75*
G01X2252Y26249D02*
G03X2154Y26547I-501J0D01*
G01*
G75*
G01X2158Y26547D02*
G03X2853Y27147I0J702D01*
G01*
G75*
G01X2853Y27147D02*
G03X3453Y27842I-102J695D01*
G01*
G75*
G01X3453Y27846D02*
G03X3751Y27748I298J403D01*
G01*
G75*
G01X3751Y27748D02*
G03X4048Y27846I-1J501D01*
G01*
G75*
G01X4048Y27842D02*
G03X4648Y27147I702J0D01*
G01*
G75*
G01X4648Y27147D02*
G03X5343Y26547I695J102D01*
G01*
G75*
G01X5347Y26547D02*
G03X5249Y26249I403J-298D01*
G01*
G75*
G01X5249Y26249D02*
G03X5347Y25952I501J1D01*
G01*
G75*
G01X5343Y25952D02*
G03X4648Y25352I0J-702D01*
G01*
G75*
G01X4648Y25352D02*
G03X4048Y24657I102J-695D01*
G01*
G75*
G01X4048Y24653D02*
G03X3751Y24751I-298J-403D01*
G01*
G75*
G01X3751Y25298D02*
G03X4702Y26249I0J952D01*
G01*
G75*
G01X4702Y26249D02*
G03X3751Y27201I-951J1D01*
G01*
G75*
G01X3751Y27201D02*
G03X2799Y26249I-1J-951D01*
G01*
G75*
G01X2799Y26249D02*
G03X3751Y25298I951J1D01*
G01*
G75*
G01X6538Y27565D02*
G03X6979Y27269I441J181D01*
G01*
G75*
G01X6979Y27269D02*
G03X7344Y27439I0J477D01*
G01*
G75*
G01X6733Y26992D02*
G03X6581Y26840I0J-152D01*
G01*
G75*
G01X6581Y25659D02*
G03X6733Y25507I152J0D01*
G01*
G75*
G01X6793Y25507D02*
G03X6777Y25430I185J-77D01*
G01*
G75*
G01X6654Y25269D02*
G03X6538Y25215I0J-151D01*
G01*
G75*
G01X7344Y25264D02*
G03X7304Y25269I-40J-146D01*
G01*
G75*
G01X7239Y25404D02*
G03X7295Y25507I-141J143D01*
G01*
G75*
G01X6135Y25765D02*
G03X6039Y25840I-477J-515D01*
G01*
G75*
G01X6039Y25840D02*
G03X6135Y25928I-289J409D01*
G01*
G75*
G01X6135Y26571D02*
G03X6039Y26659I-385J-321D01*
G01*
G75*
G01X6039Y26659D02*
G03X6135Y26734I-381J590D01*
G01*
G36*
G01X7303Y24467D02*
G01X6653Y24467D01*
G01X6653Y25117D01*
G01X7303Y25117D01*
G01X7303Y24467D01*
G37*
G54D14*
G01X6978Y27745D03*
G54D13*
G01X5259Y23009D03*
G54D14*
G01X2306Y23009D03*
G54D15*
G01X3750Y29595D03*
G54D16*
G01X7097Y26249D03*
G01X403Y26249D03*
G36*
G01X7303Y16967D02*
G01X6653Y16967D01*
G01X6653Y17617D01*
G01X7303Y17617D01*
G01X7303Y16967D01*
G37*
G54D14*
G01X6978Y20245D03*
G54D13*
G01X5259Y15509D03*
G54D14*
G01X2306Y15509D03*
G54D16*
G01X7097Y18749D03*
G01X403Y18749D03*
G36*
G01X7303Y9467D02*
G01X6653Y9467D01*
G01X6653Y10117D01*
G01X7303Y10117D01*
G01X7303Y9467D01*
G37*
G54D14*
G01X6978Y12745D03*
G54D13*
G01X5259Y8009D03*
G54D14*
G01X2306Y8009D03*
G54D16*
G01X7097Y11249D03*
G01X403Y11249D03*
G36*
G01X7303Y1967D02*
G01X6653Y1967D01*
G01X6653Y2617D01*
G01X7303Y2617D01*
G01X7303Y1967D01*
G37*
G54D14*
G01X6978Y5245D03*
G54D13*
G01X5259Y509D03*
G54D14*
G01X2306Y509D03*
G54D16*
G01X7097Y3749D03*
G54D15*
G01X3750Y403D03*
G54D16*
G01X403Y3749D03*
G54D12*
G01X6336Y28694D03*
G54D17*
G01X2750Y28156D02*
G01X2750Y27842D01*
G01X1843Y27249D02*
G01X2157Y27249D01*
G01X4750Y24656D02*
G01X4750Y24342D01*
G01X5343Y25249D02*
G01X5657Y25249D01*
G01X2750Y24656D02*
G01X2750Y24342D01*
G01X1843Y25249D02*
G01X2157Y25249D01*
G01X5343Y27249D02*
G01X5657Y27249D01*
G01X4750Y28156D02*
G01X4750Y27842D01*
G01X2750Y20656D02*
G01X2750Y20342D01*
G01X1843Y19749D02*
G01X2157Y19749D01*
G01X4750Y17156D02*
G01X4750Y16842D01*
G01X5343Y17749D02*
G01X5657Y17749D01*
G01X2750Y17156D02*
G01X2750Y16842D01*
G01X1843Y17749D02*
G01X2157Y17749D01*
G01X5343Y19749D02*
G01X5657Y19749D01*
G01X4750Y20656D02*
G01X4750Y20342D01*
G01X2750Y13156D02*
G01X2750Y12842D01*
G01X1843Y12249D02*
G01X2157Y12249D01*
G01X4750Y9656D02*
G01X4750Y9342D01*
G01X5343Y10249D02*
G01X5657Y10249D01*
G01X2750Y9656D02*
G01X2750Y9342D01*
G01X1843Y10249D02*
G01X2157Y10249D01*
G01X5343Y12249D02*
G01X5657Y12249D01*
G01X4750Y13156D02*
G01X4750Y12842D01*
G01X2750Y5656D02*
G01X2750Y5342D01*
G01X1843Y4749D02*
G01X2157Y4749D01*
G01X4750Y2156D02*
G01X4750Y1842D01*
G01X5343Y2749D02*
G01X5657Y2749D01*
G01X2750Y2156D02*
G01X2750Y1842D01*
G01X1843Y2749D02*
G01X2157Y2749D01*
G01X5343Y4749D02*
G01X5657Y4749D01*
G01X4750Y5656D02*
G01X4750Y5342D01*
M00*
M02*
