G04 Layer: BottomLayer*
G04 EasyEDA v6.1.49, Wed, 05 Jun 2019 22:15:46 GMT*
G04 b5b2ecbcf65847559b5efec0ee8f82f3,d502dfb0143049649cf38511bf809cad,10*
G04 Gerber Generator version 0.2*
G04 Scale: 100 percent, Rotated: No, Reflected: No *
G04 Dimensions in inches *
G04 leading zeros omitted , absolute positions ,2 integer and 4 decimal *
%FSLAX24Y24*%
%MOIN*%
G90*
G70D02*

%ADD10C,0.010000*%
%ADD12R,0.065000X0.065000*%
%ADD13C,0.065000*%
%ADD14R,0.118110X0.072835*%
%ADD15R,0.072835X0.118110*%
%ADD16C,0.110236*%

%LPD*%
G54D10*
G01X2000Y12250D02*
G01X2750Y13000D01*
G01X5289Y10250D02*
G01X5289Y11059D01*
G01X3348Y13000D01*
G01X2750Y13000D01*
G01X4750Y9500D02*
G01X5289Y10038D01*
G01X5289Y10250D01*
G01X5289Y10250D02*
G01X5500Y10250D01*
G01X2000Y10250D02*
G01X2750Y9500D01*
G01X2306Y8009D02*
G01X2750Y8453D01*
G01X2750Y9500D01*
G01X14597Y11250D02*
G01X14597Y10548D01*
G01X14597Y10548D02*
G01X14478Y10430D01*
G01X14478Y9792D01*
G01X5259Y8009D02*
G01X5259Y8446D01*
G01X3750Y14596D02*
G01X4452Y14596D01*
G01X4452Y14596D02*
G01X6366Y12682D01*
G01X6366Y9553D01*
G01X5259Y8446D01*
G01X5259Y8009D02*
G01X5259Y7573D01*
G01X5259Y509D02*
G01X5259Y946D01*
G01X5259Y946D02*
G01X6331Y2017D01*
G01X6331Y6501D01*
G01X5259Y7573D01*
G01X9500Y12250D02*
G01X10250Y13000D01*
G01X12789Y10250D02*
G01X12789Y11059D01*
G01X10848Y13000D01*
G01X10250Y13000D01*
G01X12250Y9500D02*
G01X12789Y10038D01*
G01X12789Y10250D01*
G01X12789Y10250D02*
G01X13000Y10250D01*
G01X9500Y10250D02*
G01X10250Y9500D01*
G01X9806Y8009D02*
G01X10250Y8453D01*
G01X10250Y9500D01*
G01X12759Y8009D02*
G01X12759Y8446D01*
G01X11250Y14596D02*
G01X11952Y14596D01*
G01X11952Y14596D02*
G01X13827Y12721D01*
G01X13827Y9513D01*
G01X12759Y8446D01*
G01X12759Y8009D02*
G01X12759Y7573D01*
G01X12759Y509D02*
G01X12759Y946D01*
G01X12759Y946D02*
G01X13831Y2017D01*
G01X13831Y6501D01*
G01X12759Y7573D01*
G01X2000Y4750D02*
G01X2750Y5500D01*
G01X5289Y2750D02*
G01X5289Y3559D01*
G01X3348Y5500D01*
G01X2750Y5500D01*
G01X4750Y2000D02*
G01X5289Y2538D01*
G01X5289Y2750D01*
G01X5289Y2750D02*
G01X5500Y2750D01*
G01X2000Y2750D02*
G01X2750Y2000D01*
G01X2306Y509D02*
G01X2306Y1555D01*
G01X2750Y2000D01*
G01X14597Y3750D02*
G01X14597Y3048D01*
G01X14597Y3048D02*
G01X14478Y2930D01*
G01X14478Y2292D01*
G01X9500Y4750D02*
G01X10250Y5500D01*
G01X12789Y2750D02*
G01X12789Y3559D01*
G01X10848Y5500D01*
G01X10250Y5500D01*
G01X12250Y2000D02*
G01X12789Y2538D01*
G01X12789Y2750D01*
G01X12789Y2750D02*
G01X13000Y2750D01*
G01X9500Y2750D02*
G01X10250Y2000D01*
G01X9806Y509D02*
G01X9806Y1555D01*
G01X10250Y2000D01*
G01X13157Y12952D02*
G01X12952Y12952D01*
G01X12952Y12952D02*
G01X12952Y13157D01*
G01X12930Y13332D02*
G01X13332Y12930D01*
G01X12952Y13065D02*
G01X13198Y13065D01*
G01X12944Y13267D02*
G01X12996Y13267D01*
G01X13246Y12947D02*
G01X13246Y13016D01*
G01X13044Y12952D02*
G01X13044Y13218D01*
G01X5657Y12952D02*
G01X5452Y12952D01*
G01X5452Y12952D02*
G01X5452Y13157D01*
G01X5430Y13332D02*
G01X5832Y12930D01*
G01X5452Y13065D02*
G01X5698Y13065D01*
G01X5444Y13267D02*
G01X5496Y13267D01*
G01X5772Y12943D02*
G01X5772Y12990D01*
G01X5570Y12952D02*
G01X5570Y13192D01*
G01X13969Y12863D02*
G01X12094Y14738D01*
G01X11992Y14793D02*
G01X11992Y14843D01*
G01X11992Y14843D02*
G01X14531Y14843D01*
G01X14843Y14531D02*
G01X14843Y13052D01*
G01X13969Y12863D02*
G01X14016Y12863D01*
G01X13767Y13065D02*
G01X14124Y13065D01*
G01X14832Y13065D02*
G01X14843Y13065D01*
G01X13565Y13267D02*
G01X14843Y13267D01*
G01X13363Y13469D02*
G01X14843Y13469D01*
G01X13161Y13671D02*
G01X14843Y13671D01*
G01X12959Y13873D02*
G01X14843Y13873D01*
G01X12757Y14075D02*
G01X14843Y14075D01*
G01X12555Y14277D02*
G01X14843Y14277D01*
G01X12353Y14479D02*
G01X14843Y14479D01*
G01X12151Y14681D02*
G01X14805Y14681D01*
G01X14660Y13186D02*
G01X14660Y14815D01*
G01X14458Y13222D02*
G01X14458Y14843D01*
G01X14256Y13167D02*
G01X14256Y14843D01*
G01X14054Y12963D02*
G01X14054Y14843D01*
G01X13852Y12980D02*
G01X13852Y14843D01*
G01X13650Y13182D02*
G01X13650Y14843D01*
G01X13448Y13384D02*
G01X13448Y14843D01*
G01X13246Y13586D02*
G01X13246Y14843D01*
G01X13044Y13788D02*
G01X13044Y14843D01*
G01X12842Y13990D02*
G01X12842Y14843D01*
G01X12640Y14192D02*
G01X12640Y14843D01*
G01X12438Y14394D02*
G01X12438Y14843D01*
G01X12236Y14596D02*
G01X12236Y14843D01*
G01X12034Y14779D02*
G01X12034Y14843D01*
G01X11641Y12491D02*
G01X11370Y12763D01*
G01X11547Y12846D02*
G01X11547Y12842D01*
G01X11471Y12661D02*
G01X11571Y12661D01*
G01X11630Y12502D02*
G01X11630Y12510D01*
G01X11428Y12704D02*
G01X11428Y12781D01*
G01X4141Y12491D02*
G01X3870Y12763D01*
G01X4047Y12846D02*
G01X4047Y12842D01*
G01X3971Y12661D02*
G01X4071Y12661D01*
G01X3954Y12678D02*
G01X3954Y12792D01*
G01X12233Y11899D02*
G01X11899Y12233D01*
G01X12077Y12055D02*
G01X12167Y12055D01*
G01X12034Y12098D02*
G01X12034Y12173D01*
G01X4733Y11899D02*
G01X4399Y12233D01*
G01X4577Y12055D02*
G01X4667Y12055D01*
G01X4560Y12072D02*
G01X4560Y12165D01*
G01X13625Y11725D02*
G01X13625Y11582D01*
G01X13551Y11651D02*
G01X13625Y11651D01*
G01X6164Y11763D02*
G01X6164Y11532D01*
G01X6051Y11651D02*
G01X6164Y11651D01*
G01X12763Y11369D02*
G01X12492Y11641D01*
G01X12842Y11547D02*
G01X12846Y11547D01*
G01X12683Y11449D02*
G01X12790Y11449D01*
G01X12842Y11542D02*
G01X12842Y11547D01*
G01X12640Y11492D02*
G01X12640Y11576D01*
G01X5263Y11369D02*
G01X4992Y11641D01*
G01X5342Y11547D02*
G01X5346Y11547D01*
G01X5183Y11449D02*
G01X5290Y11449D01*
G01X5166Y11466D02*
G01X5166Y11569D01*
G01X13625Y10917D02*
G01X13625Y10774D01*
G01X13543Y10843D02*
G01X13625Y10843D01*
G01X6164Y10967D02*
G01X6164Y10736D01*
G01X6043Y10843D02*
G01X6164Y10843D01*
G01X14843Y10507D02*
G01X14843Y10264D01*
G01X14803Y10269D02*
G01X14679Y10269D01*
G01X14679Y10269D02*
G01X14679Y10346D01*
G01X14679Y10346D02*
G01X14739Y10404D01*
G01X14794Y10507D02*
G01X14843Y10507D01*
G01X14766Y10439D02*
G01X14843Y10439D01*
G01X14028Y10204D02*
G01X14028Y12589D01*
G01X14843Y12439D02*
G01X14843Y11992D01*
G01X14843Y11992D02*
G01X14232Y11992D01*
G01X14081Y11840D02*
G01X14081Y10659D01*
G01X14232Y10507D02*
G01X14292Y10507D01*
G01X14276Y10430D02*
G01X14276Y10269D01*
G01X14276Y10269D02*
G01X14153Y10269D01*
G01X14028Y10237D02*
G01X14059Y10237D01*
G01X14028Y10439D02*
G01X14276Y10439D01*
G01X14028Y10641D02*
G01X14082Y10641D01*
G01X14028Y10843D02*
G01X14081Y10843D01*
G01X14028Y11045D02*
G01X14081Y11045D01*
G01X14028Y11247D02*
G01X14081Y11247D01*
G01X14028Y11449D02*
G01X14081Y11449D01*
G01X14028Y11651D02*
G01X14081Y11651D01*
G01X14028Y11853D02*
G01X14081Y11853D01*
G01X14028Y12055D02*
G01X14843Y12055D01*
G01X14028Y12257D02*
G01X14843Y12257D01*
G01X14028Y12459D02*
G01X14098Y12459D01*
G01X14660Y11992D02*
G01X14660Y12305D01*
G01X14458Y11992D02*
G01X14458Y12270D01*
G01X14256Y10269D02*
G01X14256Y10507D01*
G01X14256Y11992D02*
G01X14256Y12324D01*
G01X14054Y10233D02*
G01X14054Y12528D01*
G01X11547Y9657D02*
G01X11547Y9653D01*
G01X10952Y9653D02*
G01X10952Y9657D01*
G01X9657Y10952D02*
G01X9654Y10952D01*
G01X9654Y11547D02*
G01X9657Y11547D01*
G01X10923Y12640D02*
G01X11369Y12194D01*
G01X12194Y11369D02*
G01X12587Y10975D01*
G01X12587Y10975D02*
G01X12587Y10904D01*
G01X10930Y9833D02*
G01X11569Y9833D01*
G01X10842Y10035D02*
G01X11657Y10035D01*
G01X10647Y10237D02*
G01X11853Y10237D01*
G01X10334Y10439D02*
G01X10752Y10439D01*
G01X11748Y10439D02*
G01X12166Y10439D01*
G01X10241Y10641D02*
G01X10518Y10641D01*
G01X11981Y10641D02*
G01X12259Y10641D01*
G01X10034Y10843D02*
G01X10390Y10843D01*
G01X12110Y10843D02*
G01X12466Y10843D01*
G01X9708Y11045D02*
G01X10321Y11045D01*
G01X12179Y11045D02*
G01X12518Y11045D01*
G01X9751Y11247D02*
G01X10298Y11247D01*
G01X12201Y11247D02*
G01X12316Y11247D01*
G01X9710Y11449D02*
G01X10319Y11449D01*
G01X10025Y11651D02*
G01X10387Y11651D01*
G01X10237Y11853D02*
G01X10514Y11853D01*
G01X10332Y12055D02*
G01X10743Y12055D01*
G01X10639Y12257D02*
G01X11306Y12257D01*
G01X10839Y12459D02*
G01X11104Y12459D01*
G01X12438Y10824D02*
G01X12438Y11124D01*
G01X12236Y10605D02*
G01X12236Y11326D01*
G01X12034Y10326D02*
G01X12034Y10711D01*
G01X11832Y10222D02*
G01X11832Y10497D01*
G01X11630Y9989D02*
G01X11630Y10377D01*
G01X11428Y9718D02*
G01X11428Y10315D01*
G01X11226Y9750D02*
G01X11226Y10298D01*
G01X11226Y12201D02*
G01X11226Y12336D01*
G01X11024Y9697D02*
G01X11024Y10325D01*
G01X11024Y12174D02*
G01X11024Y12538D01*
G01X10822Y10064D02*
G01X10822Y10399D01*
G01X10822Y12100D02*
G01X10822Y12435D01*
G01X10620Y10254D02*
G01X10620Y10536D01*
G01X10620Y11963D02*
G01X10620Y12245D01*
G01X10418Y10339D02*
G01X10418Y10787D01*
G01X10418Y11712D02*
G01X10418Y12160D01*
G01X10216Y10675D02*
G01X10216Y11824D01*
G01X10014Y10855D02*
G01X10014Y11644D01*
G01X9812Y10935D02*
G01X9812Y11564D01*
G01X4047Y9657D02*
G01X4047Y9653D01*
G01X3452Y9653D02*
G01X3452Y9657D01*
G01X2157Y10952D02*
G01X2154Y10952D01*
G01X2154Y11547D02*
G01X2157Y11547D01*
G01X3423Y12640D02*
G01X3869Y12194D01*
G01X4694Y11369D02*
G01X5087Y10975D01*
G01X5087Y10975D02*
G01X5087Y10904D01*
G01X3430Y9833D02*
G01X4069Y9833D01*
G01X3342Y10035D02*
G01X4157Y10035D01*
G01X3147Y10237D02*
G01X4353Y10237D01*
G01X2834Y10439D02*
G01X3252Y10439D01*
G01X4248Y10439D02*
G01X4666Y10439D01*
G01X2741Y10641D02*
G01X3018Y10641D01*
G01X4481Y10641D02*
G01X4759Y10641D01*
G01X2534Y10843D02*
G01X2890Y10843D01*
G01X4610Y10843D02*
G01X4966Y10843D01*
G01X2208Y11045D02*
G01X2821Y11045D01*
G01X4679Y11045D02*
G01X5018Y11045D01*
G01X2251Y11247D02*
G01X2798Y11247D01*
G01X4701Y11247D02*
G01X4816Y11247D01*
G01X2210Y11449D02*
G01X2819Y11449D01*
G01X2525Y11651D02*
G01X2887Y11651D01*
G01X2737Y11853D02*
G01X3014Y11853D01*
G01X2832Y12055D02*
G01X3243Y12055D01*
G01X3139Y12257D02*
G01X3806Y12257D01*
G01X3339Y12459D02*
G01X3604Y12459D01*
G01X4964Y10842D02*
G01X4964Y11098D01*
G01X4762Y10646D02*
G01X4762Y11300D01*
G01X4560Y10334D02*
G01X4560Y10751D01*
G01X4358Y10240D02*
G01X4358Y10518D01*
G01X4156Y10033D02*
G01X4156Y10389D01*
G01X3954Y9707D02*
G01X3954Y10320D01*
G01X3752Y9751D02*
G01X3752Y10298D01*
G01X3752Y12201D02*
G01X3752Y12310D01*
G01X3550Y9710D02*
G01X3550Y10319D01*
G01X3550Y12180D02*
G01X3550Y12512D01*
G01X3348Y10025D02*
G01X3348Y10387D01*
G01X3348Y12112D02*
G01X3348Y12474D01*
G01X3146Y10237D02*
G01X3146Y10514D01*
G01X3146Y11985D02*
G01X3146Y12262D01*
G01X2944Y10332D02*
G01X2944Y10743D01*
G01X2944Y11756D02*
G01X2944Y12167D01*
G01X2742Y10639D02*
G01X2742Y11860D01*
G01X2540Y10839D02*
G01X2540Y11660D01*
G01X2338Y10928D02*
G01X2338Y11571D01*
G01X14032Y5414D02*
G01X14032Y6501D01*
G01X13973Y6644D02*
G01X13084Y7533D01*
G01X13235Y7685D02*
G01X13235Y8335D01*
G01X13084Y8486D02*
G01X13969Y9371D01*
G01X14153Y9316D02*
G01X14803Y9316D01*
G01X14843Y9322D02*
G01X14843Y5552D01*
G01X14032Y5591D02*
G01X14150Y5591D01*
G01X14807Y5591D02*
G01X14843Y5591D01*
G01X14032Y5793D02*
G01X14843Y5793D01*
G01X14032Y5995D02*
G01X14843Y5995D01*
G01X14032Y6197D02*
G01X14843Y6197D01*
G01X14032Y6399D02*
G01X14843Y6399D01*
G01X14006Y6601D02*
G01X14843Y6601D01*
G01X13814Y6803D02*
G01X14843Y6803D01*
G01X13612Y7005D02*
G01X14843Y7005D01*
G01X13410Y7207D02*
G01X14843Y7207D01*
G01X13208Y7409D02*
G01X14843Y7409D01*
G01X13216Y7611D02*
G01X14843Y7611D01*
G01X13235Y7813D02*
G01X14843Y7813D01*
G01X13235Y8015D02*
G01X14843Y8015D01*
G01X13235Y8217D02*
G01X14843Y8217D01*
G01X13209Y8419D02*
G01X14843Y8419D01*
G01X13219Y8621D02*
G01X14843Y8621D01*
G01X13421Y8823D02*
G01X14843Y8823D01*
G01X13623Y9025D02*
G01X14843Y9025D01*
G01X13825Y9227D02*
G01X14843Y9227D01*
G01X14660Y5686D02*
G01X14660Y9316D01*
G01X14458Y5722D02*
G01X14458Y9316D01*
G01X14256Y5667D02*
G01X14256Y9316D01*
G01X14054Y5463D02*
G01X14054Y9353D01*
G01X13852Y6765D02*
G01X13852Y9254D01*
G01X13650Y6967D02*
G01X13650Y9052D01*
G01X13448Y7169D02*
G01X13448Y8850D01*
G01X13246Y7371D02*
G01X13246Y8648D01*
G01X11641Y4991D02*
G01X11370Y5263D01*
G01X11547Y5346D02*
G01X11547Y5342D01*
G01X11445Y5187D02*
G01X11564Y5187D01*
G01X11630Y5002D02*
G01X11630Y5010D01*
G01X11428Y5204D02*
G01X11428Y5281D01*
G01X4141Y4991D02*
G01X3870Y5263D01*
G01X4047Y5346D02*
G01X4047Y5342D01*
G01X3945Y5187D02*
G01X4064Y5187D01*
G01X3954Y5178D02*
G01X3954Y5292D01*
G01X12233Y4399D02*
G01X11899Y4733D01*
G01X12051Y4581D02*
G01X12160Y4581D01*
G01X12034Y4598D02*
G01X12034Y4673D01*
G01X4733Y4399D02*
G01X4399Y4733D01*
G01X4551Y4581D02*
G01X4660Y4581D01*
G01X4560Y4572D02*
G01X4560Y4665D01*
G01X13629Y4229D02*
G01X13629Y4077D01*
G01X13564Y4177D02*
G01X13629Y4177D01*
G01X6129Y4229D02*
G01X6129Y4077D01*
G01X6064Y4177D02*
G01X6129Y4177D01*
G01X12763Y3869D02*
G01X12492Y4141D01*
G01X12842Y4047D02*
G01X12846Y4047D01*
G01X12657Y3975D02*
G01X12802Y3975D01*
G01X12842Y4042D02*
G01X12842Y4047D01*
G01X12640Y3992D02*
G01X12640Y4076D01*
G01X5263Y3869D02*
G01X4992Y4141D01*
G01X5342Y4047D02*
G01X5346Y4047D01*
G01X5157Y3975D02*
G01X5302Y3975D01*
G01X5166Y3966D02*
G01X5166Y4069D01*
G01X13629Y3422D02*
G01X13629Y3270D01*
G01X13576Y3369D02*
G01X13629Y3369D01*
G01X6129Y3422D02*
G01X6129Y3270D01*
G01X6076Y3369D02*
G01X6129Y3369D01*
G01X14843Y3007D02*
G01X14843Y2764D01*
G01X14803Y2769D02*
G01X14679Y2769D01*
G01X14679Y2769D02*
G01X14679Y2846D01*
G01X14679Y2846D02*
G01X14739Y2904D01*
G01X14794Y3007D02*
G01X14843Y3007D01*
G01X14780Y2965D02*
G01X14843Y2965D01*
G01X14032Y2709D02*
G01X14032Y5078D01*
G01X14843Y4939D02*
G01X14843Y4492D01*
G01X14843Y4492D02*
G01X14232Y4492D01*
G01X14081Y4340D02*
G01X14081Y3159D01*
G01X14232Y3007D02*
G01X14292Y3007D01*
G01X14276Y2930D02*
G01X14276Y2769D01*
G01X14276Y2769D02*
G01X14153Y2769D01*
G01X14032Y2763D02*
G01X14109Y2763D01*
G01X14032Y2965D02*
G01X14279Y2965D01*
G01X14032Y3167D02*
G01X14081Y3167D01*
G01X14032Y3369D02*
G01X14081Y3369D01*
G01X14032Y3571D02*
G01X14081Y3571D01*
G01X14032Y3773D02*
G01X14081Y3773D01*
G01X14032Y3975D02*
G01X14081Y3975D01*
G01X14032Y4177D02*
G01X14081Y4177D01*
G01X14032Y4379D02*
G01X14086Y4379D01*
G01X14032Y4581D02*
G01X14843Y4581D01*
G01X14032Y4783D02*
G01X14365Y4783D01*
G01X14591Y4783D02*
G01X14843Y4783D01*
G01X14032Y4985D02*
G01X14079Y4985D01*
G01X14660Y4492D02*
G01X14660Y4805D01*
G01X14458Y4492D02*
G01X14458Y4770D01*
G01X14256Y2769D02*
G01X14256Y3007D01*
G01X14256Y4492D02*
G01X14256Y4824D01*
G01X14054Y2733D02*
G01X14054Y5028D01*
G01X6532Y2709D02*
G01X6532Y5078D01*
G01X7348Y4945D02*
G01X7348Y2762D01*
G01X7303Y2769D02*
G01X6653Y2769D01*
G01X6532Y2763D02*
G01X6609Y2763D01*
G01X7347Y2763D02*
G01X7348Y2763D01*
G01X6532Y2965D02*
G01X7348Y2965D01*
G01X6532Y3167D02*
G01X7348Y3167D01*
G01X6532Y3369D02*
G01X7348Y3369D01*
G01X6532Y3571D02*
G01X7348Y3571D01*
G01X6532Y3773D02*
G01X7348Y3773D01*
G01X6532Y3975D02*
G01X7348Y3975D01*
G01X6532Y4177D02*
G01X7348Y4177D01*
G01X6532Y4379D02*
G01X7348Y4379D01*
G01X6532Y4581D02*
G01X7348Y4581D01*
G01X6532Y4783D02*
G01X6865Y4783D01*
G01X7091Y4783D02*
G01X7348Y4783D01*
G01X6532Y4985D02*
G01X6579Y4985D01*
G01X7186Y2769D02*
G01X7186Y4817D01*
G01X6984Y2769D02*
G01X6984Y4769D01*
G01X6782Y2769D02*
G01X6782Y4811D01*
G01X6580Y2751D02*
G01X6580Y4983D01*
G01X11547Y2157D02*
G01X11547Y2153D01*
G01X10952Y2153D02*
G01X10952Y2157D01*
G01X9657Y3452D02*
G01X9654Y3452D01*
G01X9654Y4047D02*
G01X9657Y4047D01*
G01X10923Y5140D02*
G01X11369Y4694D01*
G01X12194Y3869D02*
G01X12587Y3475D01*
G01X12587Y3475D02*
G01X12587Y3404D01*
G01X10952Y2157D02*
G01X10957Y2157D01*
G01X11542Y2157D02*
G01X11547Y2157D01*
G01X10923Y2359D02*
G01X11577Y2359D01*
G01X10825Y2561D02*
G01X11675Y2561D01*
G01X10606Y2763D02*
G01X11894Y2763D01*
G01X10326Y2965D02*
G01X10712Y2965D01*
G01X11788Y2965D02*
G01X12173Y2965D01*
G01X10223Y3167D02*
G01X10498Y3167D01*
G01X12002Y3167D02*
G01X12277Y3167D01*
G01X9989Y3369D02*
G01X10378Y3369D01*
G01X12122Y3369D02*
G01X12510Y3369D01*
G01X9718Y3571D02*
G01X10315Y3571D01*
G01X12184Y3571D02*
G01X12492Y3571D01*
G01X9751Y3773D02*
G01X10299Y3773D01*
G01X12201Y3773D02*
G01X12290Y3773D01*
G01X9698Y3975D02*
G01X10325Y3975D01*
G01X10064Y4177D02*
G01X10400Y4177D01*
G01X10254Y4379D02*
G01X10536Y4379D01*
G01X10339Y4581D02*
G01X10787Y4581D01*
G01X10675Y4783D02*
G01X11280Y4783D01*
G01X10855Y4985D02*
G01X11078Y4985D01*
G01X12438Y3324D02*
G01X12438Y3624D01*
G01X12236Y3105D02*
G01X12236Y3826D01*
G01X12034Y2826D02*
G01X12034Y3211D01*
G01X11832Y2722D02*
G01X11832Y2997D01*
G01X11630Y2489D02*
G01X11630Y2877D01*
G01X11428Y2218D02*
G01X11428Y2815D01*
G01X11226Y2250D02*
G01X11226Y2798D01*
G01X11226Y4701D02*
G01X11226Y4836D01*
G01X11024Y2197D02*
G01X11024Y2825D01*
G01X11024Y4674D02*
G01X11024Y5038D01*
G01X10822Y2564D02*
G01X10822Y2899D01*
G01X10822Y4600D02*
G01X10822Y4935D01*
G01X10620Y2754D02*
G01X10620Y3036D01*
G01X10620Y4463D02*
G01X10620Y4745D01*
G01X10418Y2839D02*
G01X10418Y3287D01*
G01X10418Y4212D02*
G01X10418Y4660D01*
G01X10216Y3175D02*
G01X10216Y4324D01*
G01X10014Y3355D02*
G01X10014Y4144D01*
G01X9812Y3435D02*
G01X9812Y4064D01*
G01X3452Y2153D02*
G01X3452Y2157D01*
G01X2157Y3452D02*
G01X2154Y3452D01*
G01X2154Y4047D02*
G01X2157Y4047D01*
G01X3423Y5140D02*
G01X3869Y4694D01*
G01X4694Y3869D02*
G01X5087Y3475D01*
G01X5087Y3475D02*
G01X5087Y3404D01*
G01X4047Y2157D02*
G01X4047Y2153D01*
G01X3452Y2157D02*
G01X3457Y2157D01*
G01X4042Y2157D02*
G01X4047Y2157D01*
G01X3423Y2359D02*
G01X4077Y2359D01*
G01X3325Y2561D02*
G01X4175Y2561D01*
G01X3106Y2763D02*
G01X4394Y2763D01*
G01X2826Y2965D02*
G01X3212Y2965D01*
G01X4288Y2965D02*
G01X4673Y2965D01*
G01X2723Y3167D02*
G01X2998Y3167D01*
G01X4502Y3167D02*
G01X4777Y3167D01*
G01X2489Y3369D02*
G01X2878Y3369D01*
G01X4622Y3369D02*
G01X5010Y3369D01*
G01X2218Y3571D02*
G01X2815Y3571D01*
G01X4684Y3571D02*
G01X4992Y3571D01*
G01X2251Y3773D02*
G01X2799Y3773D01*
G01X4701Y3773D02*
G01X4790Y3773D01*
G01X2198Y3975D02*
G01X2825Y3975D01*
G01X2564Y4177D02*
G01X2900Y4177D01*
G01X2754Y4379D02*
G01X3036Y4379D01*
G01X2839Y4581D02*
G01X3287Y4581D01*
G01X3175Y4783D02*
G01X3780Y4783D01*
G01X3355Y4985D02*
G01X3578Y4985D01*
G01X4964Y3342D02*
G01X4964Y3598D01*
G01X4762Y3146D02*
G01X4762Y3800D01*
G01X4560Y2834D02*
G01X4560Y3251D01*
G01X4358Y2740D02*
G01X4358Y3018D01*
G01X4156Y2533D02*
G01X4156Y2889D01*
G01X3954Y2207D02*
G01X3954Y2820D01*
G01X3752Y2251D02*
G01X3752Y2798D01*
G01X3752Y4701D02*
G01X3752Y4810D01*
G01X3550Y2210D02*
G01X3550Y2819D01*
G01X3550Y4680D02*
G01X3550Y5012D01*
G01X3348Y2525D02*
G01X3348Y2887D01*
G01X3348Y4612D02*
G01X3348Y4974D01*
G01X3146Y2737D02*
G01X3146Y3014D01*
G01X3146Y4485D02*
G01X3146Y4762D01*
G01X2944Y2832D02*
G01X2944Y3243D01*
G01X2944Y4256D02*
G01X2944Y4667D01*
G01X2742Y3139D02*
G01X2742Y4360D01*
G01X2540Y3339D02*
G01X2540Y4160D01*
G01X2338Y3428D02*
G01X2338Y4071D01*
G01X2507Y941D02*
G01X2507Y1183D01*
G01X5452Y1842D02*
G01X5452Y2047D01*
G01X5452Y2047D02*
G01X5657Y2047D01*
G01X6129Y2229D02*
G01X6129Y2101D01*
G01X6129Y2101D02*
G01X5116Y1088D01*
G01X5061Y986D02*
G01X4933Y986D01*
G01X4782Y835D02*
G01X4782Y185D01*
G01X4785Y156D02*
G01X4492Y156D01*
G01X4492Y156D02*
G01X4492Y767D01*
G01X4340Y919D02*
G01X3159Y919D01*
G01X3008Y767D02*
G01X3008Y156D01*
G01X3008Y156D02*
G01X2625Y156D01*
G01X2751Y339D02*
G01X3008Y339D01*
G01X4492Y339D02*
G01X4782Y339D01*
G01X2781Y541D02*
G01X3008Y541D01*
G01X4492Y541D02*
G01X4782Y541D01*
G01X2721Y743D02*
G01X3008Y743D01*
G01X4492Y743D02*
G01X4782Y743D01*
G01X2507Y945D02*
G01X4829Y945D01*
G01X2507Y1147D02*
G01X2648Y1147D01*
G01X2852Y1147D02*
G01X4648Y1147D01*
G01X4852Y1147D02*
G01X5175Y1147D01*
G01X3250Y1349D02*
G01X3448Y1349D01*
G01X4051Y1349D02*
G01X4249Y1349D01*
G01X5250Y1349D02*
G01X5377Y1349D01*
G01X5389Y1551D02*
G01X5579Y1551D01*
G01X5447Y1753D02*
G01X5781Y1753D01*
G01X5452Y1955D02*
G01X5983Y1955D01*
G01X6035Y2157D02*
G01X6129Y2157D01*
G01X5974Y1946D02*
G01X5974Y2122D01*
G01X5772Y1744D02*
G01X5772Y2056D01*
G01X5570Y1542D02*
G01X5570Y2047D01*
G01X5368Y1340D02*
G01X5368Y1509D01*
G01X5166Y1138D02*
G01X5166Y1276D01*
G01X4964Y986D02*
G01X4964Y1173D01*
G01X4762Y156D02*
G01X4762Y1139D01*
G01X4560Y156D02*
G01X4560Y1165D01*
G01X4358Y918D02*
G01X4358Y1259D01*
G01X4156Y919D02*
G01X4156Y1456D01*
G01X3954Y919D02*
G01X3954Y1292D01*
G01X3752Y919D02*
G01X3752Y1248D01*
G01X3550Y919D02*
G01X3550Y1289D01*
G01X3348Y919D02*
G01X3348Y1449D01*
G01X3146Y918D02*
G01X3146Y1262D01*
G01X2944Y156D02*
G01X2944Y1167D01*
G01X2742Y156D02*
G01X2742Y319D01*
G01X2742Y700D02*
G01X2742Y1139D01*
G01X2540Y924D02*
G01X2540Y1171D01*
G01X11992Y156D02*
G01X11992Y767D01*
G01X11840Y919D02*
G01X10659Y919D01*
G01X10508Y767D02*
G01X10508Y156D01*
G01X10508Y156D02*
G01X10125Y156D01*
G01X10007Y941D02*
G01X10007Y1183D01*
G01X12952Y1842D02*
G01X12952Y2047D01*
G01X12952Y2047D02*
G01X13157Y2047D01*
G01X13629Y2229D02*
G01X13629Y2101D01*
G01X13629Y2101D02*
G01X12616Y1088D01*
G01X12561Y986D02*
G01X12433Y986D01*
G01X12282Y835D02*
G01X12282Y185D01*
G01X12285Y156D02*
G01X11992Y156D01*
G01X10251Y339D02*
G01X10508Y339D01*
G01X11992Y339D02*
G01X12282Y339D01*
G01X10281Y541D02*
G01X10508Y541D01*
G01X11992Y541D02*
G01X12282Y541D01*
G01X10221Y743D02*
G01X10508Y743D01*
G01X11992Y743D02*
G01X12282Y743D01*
G01X10007Y945D02*
G01X12329Y945D01*
G01X10007Y1147D02*
G01X10148Y1147D01*
G01X10352Y1147D02*
G01X12148Y1147D01*
G01X12352Y1147D02*
G01X12675Y1147D01*
G01X10750Y1349D02*
G01X10948Y1349D01*
G01X11551Y1349D02*
G01X11749Y1349D01*
G01X12750Y1349D02*
G01X12877Y1349D01*
G01X12889Y1551D02*
G01X13079Y1551D01*
G01X12947Y1753D02*
G01X13281Y1753D01*
G01X12952Y1955D02*
G01X13483Y1955D01*
G01X13535Y2157D02*
G01X13629Y2157D01*
G01X13448Y1920D02*
G01X13448Y2110D01*
G01X13246Y1718D02*
G01X13246Y2052D01*
G01X13044Y1516D02*
G01X13044Y2047D01*
G01X12842Y1314D02*
G01X12842Y1464D01*
G01X12640Y1112D02*
G01X12640Y1258D01*
G01X12438Y986D02*
G01X12438Y1165D01*
G01X12236Y156D02*
G01X12236Y1139D01*
G01X12034Y156D02*
G01X12034Y1173D01*
G01X11832Y919D02*
G01X11832Y1277D01*
G01X11630Y919D02*
G01X11630Y1423D01*
G01X11428Y919D02*
G01X11428Y1281D01*
G01X11226Y919D02*
G01X11226Y1249D01*
G01X11024Y919D02*
G01X11024Y1302D01*
G01X10822Y919D02*
G01X10822Y1435D01*
G01X10620Y914D02*
G01X10620Y1245D01*
G01X10418Y156D02*
G01X10418Y1160D01*
G01X10216Y156D02*
G01X10216Y268D01*
G01X10216Y751D02*
G01X10216Y1140D01*
G01X10014Y938D02*
G01X10014Y1180D01*
G01X5735Y185D02*
G01X5735Y835D01*
G01X5584Y986D02*
G01X6473Y1875D01*
G01X6653Y1816D02*
G01X7303Y1816D01*
G01X7348Y1823D02*
G01X7348Y1721D01*
G01X7500Y1569D02*
G01X8050Y1569D01*
G01X8201Y1721D02*
G01X8201Y5625D01*
G01X8050Y5776D02*
G01X7500Y5776D01*
G01X7348Y5625D02*
G01X7348Y5546D01*
G01X6532Y5414D02*
G01X6532Y6501D01*
G01X6473Y6644D02*
G01X5584Y7533D01*
G01X5735Y7685D02*
G01X5735Y8335D01*
G01X5584Y8486D02*
G01X6508Y9410D01*
G01X6653Y9316D02*
G01X7303Y9316D01*
G01X7455Y9468D02*
G01X7455Y10118D01*
G01X7303Y10269D02*
G01X6653Y10269D01*
G01X6567Y10243D02*
G01X6567Y12504D01*
G01X6508Y12824D02*
G01X4594Y14738D01*
G01X4492Y14793D02*
G01X4492Y14843D01*
G01X4492Y14843D02*
G01X10508Y14843D01*
G01X10508Y14843D02*
G01X10508Y14232D01*
G01X10659Y14080D02*
G01X11840Y14080D01*
G01X11992Y14232D02*
G01X11992Y14270D01*
G01X11992Y14270D02*
G01X12425Y13838D01*
G01X9547Y13157D02*
G01X9547Y12952D01*
G01X9547Y12952D02*
G01X9342Y12952D01*
G01X9342Y9547D02*
G01X9547Y9547D01*
G01X9547Y9547D02*
G01X9547Y9342D01*
G01X10048Y8669D02*
G01X10048Y8537D01*
G01X10048Y8537D02*
G01X9969Y8457D01*
G01X10253Y8172D02*
G01X10392Y8311D01*
G01X10451Y8453D02*
G01X10451Y8669D01*
G01X12952Y9342D02*
G01X12952Y9547D01*
G01X12952Y9547D02*
G01X13157Y9547D01*
G01X13625Y9725D02*
G01X13625Y9597D01*
G01X13625Y9597D02*
G01X12616Y8588D01*
G01X12561Y8486D02*
G01X12433Y8486D01*
G01X12282Y8335D02*
G01X12282Y7685D01*
G01X12433Y7533D02*
G01X12561Y7533D01*
G01X12616Y7431D02*
G01X13629Y6418D01*
G01X13629Y6418D02*
G01X13629Y5270D01*
G01X13157Y5452D02*
G01X12952Y5452D01*
G01X12952Y5452D02*
G01X12952Y5657D01*
G01X9547Y5657D02*
G01X9547Y5452D01*
G01X9547Y5452D02*
G01X9342Y5452D01*
G01X9342Y2047D02*
G01X9547Y2047D01*
G01X9547Y2047D02*
G01X9547Y1842D01*
G01X9604Y1555D02*
G01X9604Y941D01*
G01X9486Y156D02*
G01X5732Y156D01*
G01X5735Y339D02*
G01X9361Y339D01*
G01X5735Y541D02*
G01X9330Y541D01*
G01X5735Y743D02*
G01X9390Y743D01*
G01X5687Y945D02*
G01X9604Y945D01*
G01X5745Y1147D02*
G01X9604Y1147D01*
G01X5947Y1349D02*
G01X9604Y1349D01*
G01X6149Y1551D02*
G01X9604Y1551D01*
G01X6351Y1753D02*
G01X7348Y1753D01*
G01X8201Y1753D02*
G01X9553Y1753D01*
G01X8201Y1955D02*
G01X9547Y1955D01*
G01X8201Y2157D02*
G01X8965Y2157D01*
G01X8201Y2359D02*
G01X8758Y2359D01*
G01X8201Y2561D02*
G01X8665Y2561D01*
G01X8201Y2763D02*
G01X8640Y2763D01*
G01X8201Y2965D02*
G01X8673Y2965D01*
G01X8201Y3167D02*
G01X8777Y3167D01*
G01X8201Y3369D02*
G01X8923Y3369D01*
G01X8201Y3571D02*
G01X8781Y3571D01*
G01X8201Y3773D02*
G01X8749Y3773D01*
G01X8201Y3975D02*
G01X8802Y3975D01*
G01X8201Y4177D02*
G01X8935Y4177D01*
G01X8201Y4379D02*
G01X8745Y4379D01*
G01X8201Y4581D02*
G01X8660Y4581D01*
G01X8201Y4783D02*
G01X8640Y4783D01*
G01X8201Y4985D02*
G01X8680Y4985D01*
G01X8201Y5187D02*
G01X8792Y5187D01*
G01X8201Y5389D02*
G01X9051Y5389D01*
G01X13449Y5389D02*
G01X13629Y5389D01*
G01X6532Y5591D02*
G01X6650Y5591D01*
G01X7307Y5591D02*
G01X7348Y5591D01*
G01X8201Y5591D02*
G01X9547Y5591D01*
G01X12952Y5591D02*
G01X13629Y5591D01*
G01X6532Y5793D02*
G01X9560Y5793D01*
G01X12939Y5793D02*
G01X13629Y5793D01*
G01X6532Y5995D02*
G01X9634Y5995D01*
G01X12866Y5995D02*
G01X13629Y5995D01*
G01X6532Y6197D02*
G01X9800Y6197D01*
G01X10700Y6197D02*
G01X11023Y6197D01*
G01X11477Y6197D02*
G01X11800Y6197D01*
G01X12700Y6197D02*
G01X13629Y6197D01*
G01X6532Y6399D02*
G01X13629Y6399D01*
G01X6506Y6601D02*
G01X13447Y6601D01*
G01X6314Y6803D02*
G01X13245Y6803D01*
G01X6112Y7005D02*
G01X13043Y7005D01*
G01X5910Y7207D02*
G01X12841Y7207D01*
G01X5708Y7409D02*
G01X12639Y7409D01*
G01X5716Y7611D02*
G01X9545Y7611D01*
G01X10067Y7611D02*
G01X12301Y7611D01*
G01X5735Y7813D02*
G01X9372Y7813D01*
G01X10240Y7813D02*
G01X12282Y7813D01*
G01X5735Y8015D02*
G01X9329Y8015D01*
G01X10282Y8015D02*
G01X12282Y8015D01*
G01X5735Y8217D02*
G01X9377Y8217D01*
G01X10298Y8217D02*
G01X12282Y8217D01*
G01X5709Y8419D02*
G01X9562Y8419D01*
G01X10448Y8419D02*
G01X12308Y8419D01*
G01X5719Y8621D02*
G01X10048Y8621D01*
G01X10451Y8621D02*
G01X12649Y8621D01*
G01X5921Y8823D02*
G01X9776Y8823D01*
G01X10723Y8823D02*
G01X10986Y8823D01*
G01X11513Y8823D02*
G01X11776Y8823D01*
G01X12723Y8823D02*
G01X12851Y8823D01*
G01X6123Y9025D02*
G01X9623Y9025D01*
G01X12877Y9025D02*
G01X13053Y9025D01*
G01X6325Y9227D02*
G01X9557Y9227D01*
G01X12943Y9227D02*
G01X13255Y9227D01*
G01X7449Y9429D02*
G01X9547Y9429D01*
G01X12952Y9429D02*
G01X13457Y9429D01*
G01X7455Y9631D02*
G01X9009Y9631D01*
G01X13490Y9631D02*
G01X13625Y9631D01*
G01X7455Y9833D02*
G01X8777Y9833D01*
G01X7455Y10035D02*
G01X8673Y10035D01*
G01X7397Y10237D02*
G01X8640Y10237D01*
G01X6567Y10439D02*
G01X8666Y10439D01*
G01X6567Y10641D02*
G01X8759Y10641D01*
G01X6567Y10843D02*
G01X8956Y10843D01*
G01X6567Y11045D02*
G01X8792Y11045D01*
G01X6567Y11247D02*
G01X8748Y11247D01*
G01X6567Y11449D02*
G01X8790Y11449D01*
G01X6567Y11651D02*
G01X8949Y11651D01*
G01X6567Y11853D02*
G01X8762Y11853D01*
G01X6567Y12055D02*
G01X8667Y12055D01*
G01X6567Y12257D02*
G01X8640Y12257D01*
G01X6567Y12459D02*
G01X6598Y12459D01*
G01X7359Y12459D02*
G01X8671Y12459D01*
G01X7447Y12661D02*
G01X8773Y12661D01*
G01X6469Y12863D02*
G01X6516Y12863D01*
G01X7440Y12863D02*
G01X8999Y12863D01*
G01X6267Y13065D02*
G01X6624Y13065D01*
G01X7332Y13065D02*
G01X9547Y13065D01*
G01X6065Y13267D02*
G01X9556Y13267D01*
G01X5863Y13469D02*
G01X9620Y13469D01*
G01X5661Y13671D02*
G01X9770Y13671D01*
G01X10729Y13671D02*
G01X10978Y13671D01*
G01X11522Y13671D02*
G01X11770Y13671D01*
G01X5459Y13873D02*
G01X12390Y13873D01*
G01X5257Y14075D02*
G01X12188Y14075D01*
G01X5055Y14277D02*
G01X10508Y14277D01*
G01X4853Y14479D02*
G01X10508Y14479D01*
G01X4651Y14681D02*
G01X10508Y14681D01*
G01X13448Y5389D02*
G01X13448Y6599D01*
G01X13448Y9420D02*
G01X13448Y9610D01*
G01X13246Y5447D02*
G01X13246Y6801D01*
G01X13246Y9218D02*
G01X13246Y9552D01*
G01X13044Y5452D02*
G01X13044Y7003D01*
G01X13044Y9016D02*
G01X13044Y9547D01*
G01X12842Y6035D02*
G01X12842Y7205D01*
G01X12842Y8814D02*
G01X12842Y8964D01*
G01X12640Y6241D02*
G01X12640Y7407D01*
G01X12640Y8612D02*
G01X12640Y8758D01*
G01X12438Y6334D02*
G01X12438Y7533D01*
G01X12438Y8486D02*
G01X12438Y8665D01*
G01X12236Y6360D02*
G01X12236Y8639D01*
G01X12236Y13860D02*
G01X12236Y14026D01*
G01X12034Y6326D02*
G01X12034Y8673D01*
G01X12034Y13826D02*
G01X12034Y14228D01*
G01X11832Y6222D02*
G01X11832Y8777D01*
G01X11832Y13722D02*
G01X11832Y14080D01*
G01X11630Y6076D02*
G01X11630Y8923D01*
G01X11630Y13576D02*
G01X11630Y14080D01*
G01X11428Y6218D02*
G01X11428Y8781D01*
G01X11428Y13718D02*
G01X11428Y14080D01*
G01X11226Y6250D02*
G01X11226Y8749D01*
G01X11226Y13750D02*
G01X11226Y14080D01*
G01X11024Y6197D02*
G01X11024Y8802D01*
G01X11024Y13697D02*
G01X11024Y14080D01*
G01X10822Y6064D02*
G01X10822Y8935D01*
G01X10822Y13564D02*
G01X10822Y14080D01*
G01X10620Y6254D02*
G01X10620Y8745D01*
G01X10620Y13754D02*
G01X10620Y14085D01*
G01X10418Y6339D02*
G01X10418Y8343D01*
G01X10418Y13839D02*
G01X10418Y14843D01*
G01X10216Y6359D02*
G01X10216Y7768D01*
G01X10216Y13859D02*
G01X10216Y14843D01*
G01X10014Y6319D02*
G01X10014Y7581D01*
G01X10014Y8503D02*
G01X10014Y8680D01*
G01X10014Y13819D02*
G01X10014Y14843D01*
G01X9812Y6207D02*
G01X9812Y7533D01*
G01X9812Y8486D02*
G01X9812Y8792D01*
G01X9812Y13707D02*
G01X9812Y14843D01*
G01X9610Y5948D02*
G01X9610Y7575D01*
G01X9610Y8444D02*
G01X9610Y9051D01*
G01X9610Y13448D02*
G01X9610Y14843D01*
G01X9408Y156D02*
G01X9408Y247D01*
G01X9408Y772D02*
G01X9408Y2047D01*
G01X9408Y5452D02*
G01X9408Y7747D01*
G01X9408Y8272D02*
G01X9408Y9547D01*
G01X9408Y12952D02*
G01X9408Y14843D01*
G01X9206Y156D02*
G01X9206Y2060D01*
G01X9206Y5439D02*
G01X9206Y9560D01*
G01X9206Y12939D02*
G01X9206Y14843D01*
G01X9004Y156D02*
G01X9004Y2133D01*
G01X9004Y5366D02*
G01X9004Y9633D01*
G01X9004Y12866D02*
G01X9004Y14843D01*
G01X8802Y156D02*
G01X8802Y2300D01*
G01X8802Y3199D02*
G01X8802Y3523D01*
G01X8802Y3976D02*
G01X8802Y4300D01*
G01X8802Y5199D02*
G01X8802Y9800D01*
G01X8802Y10699D02*
G01X8802Y11023D01*
G01X8802Y11476D02*
G01X8802Y11800D01*
G01X8802Y12699D02*
G01X8802Y14843D01*
G01X8600Y156D02*
G01X8600Y14843D01*
G01X8398Y156D02*
G01X8398Y14843D01*
G01X8196Y156D02*
G01X8196Y1683D01*
G01X8196Y5662D02*
G01X8196Y14843D01*
G01X7994Y156D02*
G01X7994Y1569D01*
G01X7994Y5776D02*
G01X7994Y14843D01*
G01X7792Y156D02*
G01X7792Y1569D01*
G01X7792Y5776D02*
G01X7792Y14843D01*
G01X7590Y156D02*
G01X7590Y1569D01*
G01X7590Y5776D02*
G01X7590Y14843D01*
G01X7388Y156D02*
G01X7388Y1618D01*
G01X7388Y5728D02*
G01X7388Y9342D01*
G01X7388Y10243D02*
G01X7388Y12503D01*
G01X7388Y12988D02*
G01X7388Y14843D01*
G01X7186Y156D02*
G01X7186Y1816D01*
G01X7186Y5674D02*
G01X7186Y9316D01*
G01X7186Y10269D02*
G01X7186Y12317D01*
G01X7186Y13174D02*
G01X7186Y14843D01*
G01X6984Y156D02*
G01X6984Y1816D01*
G01X6984Y5722D02*
G01X6984Y9316D01*
G01X6984Y10269D02*
G01X6984Y12269D01*
G01X6984Y13222D02*
G01X6984Y14843D01*
G01X6782Y156D02*
G01X6782Y1816D01*
G01X6782Y5680D02*
G01X6782Y9316D01*
G01X6782Y10269D02*
G01X6782Y12311D01*
G01X6782Y13180D02*
G01X6782Y14843D01*
G01X6580Y156D02*
G01X6580Y1835D01*
G01X6580Y5508D02*
G01X6580Y9335D01*
G01X6580Y10251D02*
G01X6580Y12483D01*
G01X6580Y13008D02*
G01X6580Y14843D01*
G01X6378Y156D02*
G01X6378Y1780D01*
G01X6378Y6739D02*
G01X6378Y9280D01*
G01X6378Y12954D02*
G01X6378Y14843D01*
G01X6176Y156D02*
G01X6176Y1578D01*
G01X6176Y6941D02*
G01X6176Y9078D01*
G01X6176Y13156D02*
G01X6176Y14843D01*
G01X5974Y156D02*
G01X5974Y1376D01*
G01X5974Y7143D02*
G01X5974Y8876D01*
G01X5974Y13358D02*
G01X5974Y14843D01*
G01X5772Y156D02*
G01X5772Y1174D01*
G01X5772Y7345D02*
G01X5772Y8674D01*
G01X5772Y13560D02*
G01X5772Y14843D01*
G01X5570Y13762D02*
G01X5570Y14843D01*
G01X5368Y13964D02*
G01X5368Y14843D01*
G01X5166Y14166D02*
G01X5166Y14843D01*
G01X4964Y14368D02*
G01X4964Y14843D01*
G01X4762Y14570D02*
G01X4762Y14843D01*
G01X4560Y14765D02*
G01X4560Y14843D01*
G01X13235Y185D02*
G01X13235Y835D01*
G01X13084Y986D02*
G01X13973Y1875D01*
G01X14153Y1816D02*
G01X14803Y1816D01*
G01X14843Y1822D02*
G01X14843Y468D01*
G01X14531Y156D02*
G01X13232Y156D01*
G01X13235Y339D02*
G01X14815Y339D01*
G01X13235Y541D02*
G01X14843Y541D01*
G01X13235Y743D02*
G01X14843Y743D01*
G01X13187Y945D02*
G01X14843Y945D01*
G01X13245Y1147D02*
G01X14843Y1147D01*
G01X13447Y1349D02*
G01X14843Y1349D01*
G01X13649Y1551D02*
G01X14843Y1551D01*
G01X13851Y1753D02*
G01X14843Y1753D01*
G01X14660Y184D02*
G01X14660Y1816D01*
G01X14458Y156D02*
G01X14458Y1816D01*
G01X14256Y156D02*
G01X14256Y1816D01*
G01X14054Y156D02*
G01X14054Y1853D01*
G01X13852Y156D02*
G01X13852Y1754D01*
G01X13650Y156D02*
G01X13650Y1552D01*
G01X13448Y156D02*
G01X13448Y1350D01*
G01X13246Y156D02*
G01X13246Y1148D01*
G01X156Y468D02*
G01X156Y3007D01*
G01X156Y3007D02*
G01X767Y3007D01*
G01X919Y3159D02*
G01X919Y4340D01*
G01X767Y4492D02*
G01X156Y4492D01*
G01X156Y4492D02*
G01X156Y10507D01*
G01X156Y10507D02*
G01X767Y10507D01*
G01X919Y10659D02*
G01X919Y11840D01*
G01X767Y11992D02*
G01X156Y11992D01*
G01X156Y11992D02*
G01X156Y14531D01*
G01X468Y14843D02*
G01X3008Y14843D01*
G01X3008Y14843D02*
G01X3008Y14232D01*
G01X3159Y14080D02*
G01X4340Y14080D01*
G01X4492Y14232D02*
G01X4492Y14270D01*
G01X4492Y14270D02*
G01X4925Y13838D01*
G01X2047Y13157D02*
G01X2047Y12952D01*
G01X2047Y12952D02*
G01X1842Y12952D01*
G01X1842Y9547D02*
G01X2047Y9547D01*
G01X2047Y9547D02*
G01X2047Y9342D01*
G01X2548Y8669D02*
G01X2548Y8537D01*
G01X2548Y8537D02*
G01X2469Y8457D01*
G01X2753Y8172D02*
G01X2892Y8311D01*
G01X2951Y8453D02*
G01X2951Y8669D01*
G01X5452Y9342D02*
G01X5452Y9547D01*
G01X5452Y9547D02*
G01X5657Y9547D01*
G01X6164Y9763D02*
G01X6164Y9636D01*
G01X6164Y9636D02*
G01X5116Y8588D01*
G01X5061Y8486D02*
G01X4933Y8486D01*
G01X4782Y8335D02*
G01X4782Y7685D01*
G01X4933Y7533D02*
G01X5061Y7533D01*
G01X5116Y7431D02*
G01X6129Y6418D01*
G01X6129Y6418D02*
G01X6129Y5270D01*
G01X5657Y5452D02*
G01X5452Y5452D01*
G01X5452Y5452D02*
G01X5452Y5657D01*
G01X2047Y5657D02*
G01X2047Y5452D01*
G01X2047Y5452D02*
G01X1842Y5452D01*
G01X1842Y2047D02*
G01X2047Y2047D01*
G01X2047Y2047D02*
G01X2047Y1842D01*
G01X2104Y1555D02*
G01X2104Y941D01*
G01X1986Y156D02*
G01X468Y156D01*
G01X184Y339D02*
G01X1861Y339D01*
G01X156Y541D02*
G01X1830Y541D01*
G01X156Y743D02*
G01X1890Y743D01*
G01X156Y945D02*
G01X2104Y945D01*
G01X156Y1147D02*
G01X2104Y1147D01*
G01X156Y1349D02*
G01X2104Y1349D01*
G01X156Y1551D02*
G01X2104Y1551D01*
G01X156Y1753D02*
G01X2053Y1753D01*
G01X156Y1955D02*
G01X2047Y1955D01*
G01X156Y2157D02*
G01X1465Y2157D01*
G01X156Y2359D02*
G01X1258Y2359D01*
G01X156Y2561D02*
G01X1165Y2561D01*
G01X156Y2763D02*
G01X1140Y2763D01*
G01X156Y2965D02*
G01X1173Y2965D01*
G01X919Y3167D02*
G01X1277Y3167D01*
G01X919Y3369D02*
G01X1423Y3369D01*
G01X919Y3571D02*
G01X1281Y3571D01*
G01X919Y3773D02*
G01X1249Y3773D01*
G01X919Y3975D02*
G01X1302Y3975D01*
G01X919Y4177D02*
G01X1435Y4177D01*
G01X914Y4379D02*
G01X1245Y4379D01*
G01X156Y4581D02*
G01X1160Y4581D01*
G01X156Y4783D02*
G01X1140Y4783D01*
G01X156Y4985D02*
G01X1180Y4985D01*
G01X156Y5187D02*
G01X1292Y5187D01*
G01X156Y5389D02*
G01X1551Y5389D01*
G01X5949Y5389D02*
G01X6129Y5389D01*
G01X156Y5591D02*
G01X2047Y5591D01*
G01X5452Y5591D02*
G01X6129Y5591D01*
G01X156Y5793D02*
G01X2060Y5793D01*
G01X5439Y5793D02*
G01X6129Y5793D01*
G01X156Y5995D02*
G01X2134Y5995D01*
G01X5366Y5995D02*
G01X6129Y5995D01*
G01X156Y6197D02*
G01X2300Y6197D01*
G01X3200Y6197D02*
G01X3523Y6197D01*
G01X3977Y6197D02*
G01X4300Y6197D01*
G01X5200Y6197D02*
G01X6129Y6197D01*
G01X156Y6399D02*
G01X6129Y6399D01*
G01X156Y6601D02*
G01X5947Y6601D01*
G01X156Y6803D02*
G01X5745Y6803D01*
G01X156Y7005D02*
G01X5543Y7005D01*
G01X156Y7207D02*
G01X5341Y7207D01*
G01X156Y7409D02*
G01X5139Y7409D01*
G01X156Y7611D02*
G01X2045Y7611D01*
G01X2567Y7611D02*
G01X4801Y7611D01*
G01X156Y7813D02*
G01X1872Y7813D01*
G01X2740Y7813D02*
G01X4782Y7813D01*
G01X156Y8015D02*
G01X1829Y8015D01*
G01X2782Y8015D02*
G01X4782Y8015D01*
G01X156Y8217D02*
G01X1877Y8217D01*
G01X2798Y8217D02*
G01X4782Y8217D01*
G01X156Y8419D02*
G01X2062Y8419D01*
G01X2948Y8419D02*
G01X4808Y8419D01*
G01X156Y8621D02*
G01X2548Y8621D01*
G01X2951Y8621D02*
G01X5149Y8621D01*
G01X156Y8823D02*
G01X2276Y8823D01*
G01X3223Y8823D02*
G01X3486Y8823D01*
G01X4013Y8823D02*
G01X4276Y8823D01*
G01X5223Y8823D02*
G01X5351Y8823D01*
G01X156Y9025D02*
G01X2123Y9025D01*
G01X5377Y9025D02*
G01X5553Y9025D01*
G01X156Y9227D02*
G01X2057Y9227D01*
G01X5443Y9227D02*
G01X5755Y9227D01*
G01X156Y9429D02*
G01X2047Y9429D01*
G01X5452Y9429D02*
G01X5957Y9429D01*
G01X156Y9631D02*
G01X1509Y9631D01*
G01X5990Y9631D02*
G01X6159Y9631D01*
G01X156Y9833D02*
G01X1277Y9833D01*
G01X156Y10035D02*
G01X1173Y10035D01*
G01X156Y10237D02*
G01X1140Y10237D01*
G01X156Y10439D02*
G01X1166Y10439D01*
G01X918Y10641D02*
G01X1259Y10641D01*
G01X919Y10843D02*
G01X1456Y10843D01*
G01X919Y11045D02*
G01X1292Y11045D01*
G01X919Y11247D02*
G01X1248Y11247D01*
G01X919Y11449D02*
G01X1290Y11449D01*
G01X919Y11651D02*
G01X1449Y11651D01*
G01X918Y11853D02*
G01X1262Y11853D01*
G01X156Y12055D02*
G01X1167Y12055D01*
G01X156Y12257D02*
G01X1140Y12257D01*
G01X156Y12459D02*
G01X1171Y12459D01*
G01X156Y12661D02*
G01X1273Y12661D01*
G01X156Y12863D02*
G01X1499Y12863D01*
G01X156Y13065D02*
G01X2047Y13065D01*
G01X156Y13267D02*
G01X2056Y13267D01*
G01X156Y13469D02*
G01X2120Y13469D01*
G01X156Y13671D02*
G01X2270Y13671D01*
G01X3229Y13671D02*
G01X3478Y13671D01*
G01X4022Y13671D02*
G01X4270Y13671D01*
G01X156Y13873D02*
G01X4890Y13873D01*
G01X156Y14075D02*
G01X4688Y14075D01*
G01X156Y14277D02*
G01X3008Y14277D01*
G01X156Y14479D02*
G01X3008Y14479D01*
G01X194Y14681D02*
G01X3008Y14681D01*
G01X5974Y5377D02*
G01X5974Y6573D01*
G01X5974Y9446D02*
G01X5974Y9622D01*
G01X5772Y5443D02*
G01X5772Y6775D01*
G01X5772Y9244D02*
G01X5772Y9556D01*
G01X5570Y5452D02*
G01X5570Y6977D01*
G01X5570Y9042D02*
G01X5570Y9547D01*
G01X5368Y5990D02*
G01X5368Y7179D01*
G01X5368Y8840D02*
G01X5368Y9009D01*
G01X5166Y6223D02*
G01X5166Y7381D01*
G01X5166Y8638D02*
G01X5166Y8776D01*
G01X4964Y6326D02*
G01X4964Y7533D01*
G01X4964Y8486D02*
G01X4964Y8673D01*
G01X4762Y6360D02*
G01X4762Y8639D01*
G01X4762Y13860D02*
G01X4762Y14000D01*
G01X4560Y6334D02*
G01X4560Y8665D01*
G01X4560Y13834D02*
G01X4560Y14202D01*
G01X4358Y6240D02*
G01X4358Y8759D01*
G01X4358Y13740D02*
G01X4358Y14081D01*
G01X4156Y6043D02*
G01X4156Y8956D01*
G01X4156Y13543D02*
G01X4156Y14080D01*
G01X3954Y6207D02*
G01X3954Y8792D01*
G01X3954Y13707D02*
G01X3954Y14080D01*
G01X3752Y6251D02*
G01X3752Y8748D01*
G01X3752Y13751D02*
G01X3752Y14080D01*
G01X3550Y6210D02*
G01X3550Y8789D01*
G01X3550Y13710D02*
G01X3550Y14080D01*
G01X3348Y6050D02*
G01X3348Y8949D01*
G01X3348Y13550D02*
G01X3348Y14080D01*
G01X3146Y6237D02*
G01X3146Y8762D01*
G01X3146Y13737D02*
G01X3146Y14081D01*
G01X2944Y6332D02*
G01X2944Y8401D01*
G01X2944Y13832D02*
G01X2944Y14843D01*
G01X2742Y6360D02*
G01X2742Y7819D01*
G01X2742Y13860D02*
G01X2742Y14843D01*
G01X2540Y6328D02*
G01X2540Y7595D01*
G01X2540Y8529D02*
G01X2540Y8671D01*
G01X2540Y13828D02*
G01X2540Y14843D01*
G01X2338Y6227D02*
G01X2338Y7534D01*
G01X2338Y8485D02*
G01X2338Y8772D01*
G01X2338Y13727D02*
G01X2338Y14843D01*
G01X2136Y6000D02*
G01X2136Y7564D01*
G01X2136Y8455D02*
G01X2136Y8999D01*
G01X2136Y13500D02*
G01X2136Y14843D01*
G01X1934Y156D02*
G01X1934Y211D01*
G01X1934Y808D02*
G01X1934Y2047D01*
G01X1934Y5452D02*
G01X1934Y7711D01*
G01X1934Y8308D02*
G01X1934Y9547D01*
G01X1934Y12952D02*
G01X1934Y14843D01*
G01X1732Y156D02*
G01X1732Y2055D01*
G01X1732Y5444D02*
G01X1732Y9555D01*
G01X1732Y12944D02*
G01X1732Y14843D01*
G01X1530Y156D02*
G01X1530Y2120D01*
G01X1530Y5379D02*
G01X1530Y9620D01*
G01X1530Y12879D02*
G01X1530Y14843D01*
G01X1328Y156D02*
G01X1328Y2270D01*
G01X1328Y3229D02*
G01X1328Y3478D01*
G01X1328Y4021D02*
G01X1328Y4270D01*
G01X1328Y5229D02*
G01X1328Y9770D01*
G01X1328Y10729D02*
G01X1328Y10978D01*
G01X1328Y11521D02*
G01X1328Y11770D01*
G01X1328Y12729D02*
G01X1328Y14843D01*
G01X1126Y156D02*
G01X1126Y14843D01*
G01X924Y156D02*
G01X924Y14843D01*
G01X722Y156D02*
G01X722Y3007D01*
G01X722Y4492D02*
G01X722Y10507D01*
G01X722Y11992D02*
G01X722Y14843D01*
G01X520Y156D02*
G01X520Y3007D01*
G01X520Y4492D02*
G01X520Y10507D01*
G01X520Y11992D02*
G01X520Y14843D01*
G01X318Y194D02*
G01X318Y3007D01*
G01X318Y4492D02*
G01X318Y10507D01*
G01X318Y11992D02*
G01X318Y14805D01*
G01X13157Y12952D02*
G01X12952Y12952D01*
G01X12952Y12952D02*
G01X12952Y13157D01*
G01X12930Y13332D02*
G01X13332Y12930D01*
G01X12952Y13065D02*
G01X13198Y13065D01*
G01X12944Y13267D02*
G01X12996Y13267D01*
G01X13246Y12947D02*
G01X13246Y13016D01*
G01X13044Y12952D02*
G01X13044Y13218D01*
G01X5657Y12952D02*
G01X5452Y12952D01*
G01X5452Y12952D02*
G01X5452Y13157D01*
G01X5430Y13332D02*
G01X5832Y12930D01*
G01X5452Y13065D02*
G01X5698Y13065D01*
G01X5444Y13267D02*
G01X5496Y13267D01*
G01X5772Y12943D02*
G01X5772Y12990D01*
G01X5570Y12952D02*
G01X5570Y13192D01*
G01X13969Y12863D02*
G01X12094Y14738D01*
G01X11992Y14793D02*
G01X11992Y14843D01*
G01X11992Y14843D02*
G01X14531Y14843D01*
G01X14843Y14531D02*
G01X14843Y13052D01*
G01X13969Y12863D02*
G01X14016Y12863D01*
G01X13767Y13065D02*
G01X14124Y13065D01*
G01X14832Y13065D02*
G01X14843Y13065D01*
G01X13565Y13267D02*
G01X14843Y13267D01*
G01X13363Y13469D02*
G01X14843Y13469D01*
G01X13161Y13671D02*
G01X14843Y13671D01*
G01X12959Y13873D02*
G01X14843Y13873D01*
G01X12757Y14075D02*
G01X14843Y14075D01*
G01X12555Y14277D02*
G01X14843Y14277D01*
G01X12353Y14479D02*
G01X14843Y14479D01*
G01X12151Y14681D02*
G01X14805Y14681D01*
G01X14660Y13186D02*
G01X14660Y14815D01*
G01X14458Y13222D02*
G01X14458Y14843D01*
G01X14256Y13167D02*
G01X14256Y14843D01*
G01X14054Y12963D02*
G01X14054Y14843D01*
G01X13852Y12980D02*
G01X13852Y14843D01*
G01X13650Y13182D02*
G01X13650Y14843D01*
G01X13448Y13384D02*
G01X13448Y14843D01*
G01X13246Y13586D02*
G01X13246Y14843D01*
G01X13044Y13788D02*
G01X13044Y14843D01*
G01X12842Y13990D02*
G01X12842Y14843D01*
G01X12640Y14192D02*
G01X12640Y14843D01*
G01X12438Y14394D02*
G01X12438Y14843D01*
G01X12236Y14596D02*
G01X12236Y14843D01*
G01X12034Y14779D02*
G01X12034Y14843D01*
G01X11641Y12491D02*
G01X11370Y12763D01*
G01X11547Y12846D02*
G01X11547Y12842D01*
G01X11471Y12661D02*
G01X11571Y12661D01*
G01X11630Y12502D02*
G01X11630Y12510D01*
G01X11428Y12704D02*
G01X11428Y12781D01*
G01X4141Y12491D02*
G01X3870Y12763D01*
G01X4047Y12846D02*
G01X4047Y12842D01*
G01X3971Y12661D02*
G01X4071Y12661D01*
G01X3954Y12678D02*
G01X3954Y12792D01*
G01X12233Y11899D02*
G01X11899Y12233D01*
G01X12077Y12055D02*
G01X12167Y12055D01*
G01X12034Y12098D02*
G01X12034Y12173D01*
G01X4733Y11899D02*
G01X4399Y12233D01*
G01X4577Y12055D02*
G01X4667Y12055D01*
G01X4560Y12072D02*
G01X4560Y12165D01*
G01X13625Y11725D02*
G01X13625Y11582D01*
G01X13551Y11651D02*
G01X13625Y11651D01*
G01X6164Y11763D02*
G01X6164Y11532D01*
G01X6051Y11651D02*
G01X6164Y11651D01*
G01X12763Y11369D02*
G01X12492Y11641D01*
G01X12842Y11547D02*
G01X12846Y11547D01*
G01X12683Y11449D02*
G01X12790Y11449D01*
G01X12842Y11542D02*
G01X12842Y11547D01*
G01X12640Y11492D02*
G01X12640Y11576D01*
G01X5263Y11369D02*
G01X4992Y11641D01*
G01X5342Y11547D02*
G01X5346Y11547D01*
G01X5183Y11449D02*
G01X5290Y11449D01*
G01X5166Y11466D02*
G01X5166Y11569D01*
G01X13625Y10917D02*
G01X13625Y10774D01*
G01X13543Y10843D02*
G01X13625Y10843D01*
G01X6164Y10967D02*
G01X6164Y10736D01*
G01X6043Y10843D02*
G01X6164Y10843D01*
G01X14843Y10507D02*
G01X14843Y10264D01*
G01X14803Y10269D02*
G01X14679Y10269D01*
G01X14679Y10269D02*
G01X14679Y10346D01*
G01X14679Y10346D02*
G01X14739Y10404D01*
G01X14794Y10507D02*
G01X14843Y10507D01*
G01X14766Y10439D02*
G01X14843Y10439D01*
G01X14028Y10204D02*
G01X14028Y12589D01*
G01X14843Y12439D02*
G01X14843Y11992D01*
G01X14843Y11992D02*
G01X14232Y11992D01*
G01X14081Y11840D02*
G01X14081Y10659D01*
G01X14232Y10507D02*
G01X14292Y10507D01*
G01X14276Y10430D02*
G01X14276Y10269D01*
G01X14276Y10269D02*
G01X14153Y10269D01*
G01X14028Y10237D02*
G01X14059Y10237D01*
G01X14028Y10439D02*
G01X14276Y10439D01*
G01X14028Y10641D02*
G01X14082Y10641D01*
G01X14028Y10843D02*
G01X14081Y10843D01*
G01X14028Y11045D02*
G01X14081Y11045D01*
G01X14028Y11247D02*
G01X14081Y11247D01*
G01X14028Y11449D02*
G01X14081Y11449D01*
G01X14028Y11651D02*
G01X14081Y11651D01*
G01X14028Y11853D02*
G01X14081Y11853D01*
G01X14028Y12055D02*
G01X14843Y12055D01*
G01X14028Y12257D02*
G01X14843Y12257D01*
G01X14028Y12459D02*
G01X14098Y12459D01*
G01X14660Y11992D02*
G01X14660Y12305D01*
G01X14458Y11992D02*
G01X14458Y12270D01*
G01X14256Y10269D02*
G01X14256Y10507D01*
G01X14256Y11992D02*
G01X14256Y12324D01*
G01X14054Y10233D02*
G01X14054Y12528D01*
G01X11547Y9657D02*
G01X11547Y9653D01*
G01X10952Y9653D02*
G01X10952Y9657D01*
G01X9657Y10952D02*
G01X9654Y10952D01*
G01X9654Y11547D02*
G01X9657Y11547D01*
G01X10923Y12640D02*
G01X11369Y12194D01*
G01X12194Y11369D02*
G01X12587Y10975D01*
G01X12587Y10975D02*
G01X12587Y10904D01*
G01X10930Y9833D02*
G01X11569Y9833D01*
G01X10842Y10035D02*
G01X11657Y10035D01*
G01X10647Y10237D02*
G01X11853Y10237D01*
G01X10334Y10439D02*
G01X10752Y10439D01*
G01X11748Y10439D02*
G01X12166Y10439D01*
G01X10241Y10641D02*
G01X10518Y10641D01*
G01X11981Y10641D02*
G01X12259Y10641D01*
G01X10034Y10843D02*
G01X10390Y10843D01*
G01X12110Y10843D02*
G01X12466Y10843D01*
G01X9708Y11045D02*
G01X10321Y11045D01*
G01X12179Y11045D02*
G01X12518Y11045D01*
G01X9751Y11247D02*
G01X10298Y11247D01*
G01X12201Y11247D02*
G01X12316Y11247D01*
G01X9710Y11449D02*
G01X10319Y11449D01*
G01X10025Y11651D02*
G01X10387Y11651D01*
G01X10237Y11853D02*
G01X10514Y11853D01*
G01X10332Y12055D02*
G01X10743Y12055D01*
G01X10639Y12257D02*
G01X11306Y12257D01*
G01X10839Y12459D02*
G01X11104Y12459D01*
G01X12438Y10824D02*
G01X12438Y11124D01*
G01X12236Y10605D02*
G01X12236Y11326D01*
G01X12034Y10326D02*
G01X12034Y10711D01*
G01X11832Y10222D02*
G01X11832Y10497D01*
G01X11630Y9989D02*
G01X11630Y10377D01*
G01X11428Y9718D02*
G01X11428Y10315D01*
G01X11226Y9750D02*
G01X11226Y10298D01*
G01X11226Y12201D02*
G01X11226Y12336D01*
G01X11024Y9697D02*
G01X11024Y10325D01*
G01X11024Y12174D02*
G01X11024Y12538D01*
G01X10822Y10064D02*
G01X10822Y10399D01*
G01X10822Y12100D02*
G01X10822Y12435D01*
G01X10620Y10254D02*
G01X10620Y10536D01*
G01X10620Y11963D02*
G01X10620Y12245D01*
G01X10418Y10339D02*
G01X10418Y10787D01*
G01X10418Y11712D02*
G01X10418Y12160D01*
G01X10216Y10675D02*
G01X10216Y11824D01*
G01X10014Y10855D02*
G01X10014Y11644D01*
G01X9812Y10935D02*
G01X9812Y11564D01*
G01X4047Y9657D02*
G01X4047Y9653D01*
G01X3452Y9653D02*
G01X3452Y9657D01*
G01X2157Y10952D02*
G01X2154Y10952D01*
G01X2154Y11547D02*
G01X2157Y11547D01*
G01X3423Y12640D02*
G01X3869Y12194D01*
G01X4694Y11369D02*
G01X5087Y10975D01*
G01X5087Y10975D02*
G01X5087Y10904D01*
G01X3430Y9833D02*
G01X4069Y9833D01*
G01X3342Y10035D02*
G01X4157Y10035D01*
G01X3147Y10237D02*
G01X4353Y10237D01*
G01X2834Y10439D02*
G01X3252Y10439D01*
G01X4248Y10439D02*
G01X4666Y10439D01*
G01X2741Y10641D02*
G01X3018Y10641D01*
G01X4481Y10641D02*
G01X4759Y10641D01*
G01X2534Y10843D02*
G01X2890Y10843D01*
G01X4610Y10843D02*
G01X4966Y10843D01*
G01X2208Y11045D02*
G01X2821Y11045D01*
G01X4679Y11045D02*
G01X5018Y11045D01*
G01X2251Y11247D02*
G01X2798Y11247D01*
G01X4701Y11247D02*
G01X4816Y11247D01*
G01X2210Y11449D02*
G01X2819Y11449D01*
G01X2525Y11651D02*
G01X2887Y11651D01*
G01X2737Y11853D02*
G01X3014Y11853D01*
G01X2832Y12055D02*
G01X3243Y12055D01*
G01X3139Y12257D02*
G01X3806Y12257D01*
G01X3339Y12459D02*
G01X3604Y12459D01*
G01X4964Y10842D02*
G01X4964Y11098D01*
G01X4762Y10646D02*
G01X4762Y11300D01*
G01X4560Y10334D02*
G01X4560Y10751D01*
G01X4358Y10240D02*
G01X4358Y10518D01*
G01X4156Y10033D02*
G01X4156Y10389D01*
G01X3954Y9707D02*
G01X3954Y10320D01*
G01X3752Y9751D02*
G01X3752Y10298D01*
G01X3752Y12201D02*
G01X3752Y12310D01*
G01X3550Y9710D02*
G01X3550Y10319D01*
G01X3550Y12180D02*
G01X3550Y12512D01*
G01X3348Y10025D02*
G01X3348Y10387D01*
G01X3348Y12112D02*
G01X3348Y12474D01*
G01X3146Y10237D02*
G01X3146Y10514D01*
G01X3146Y11985D02*
G01X3146Y12262D01*
G01X2944Y10332D02*
G01X2944Y10743D01*
G01X2944Y11756D02*
G01X2944Y12167D01*
G01X2742Y10639D02*
G01X2742Y11860D01*
G01X2540Y10839D02*
G01X2540Y11660D01*
G01X2338Y10928D02*
G01X2338Y11571D01*
G01X14032Y5414D02*
G01X14032Y6501D01*
G01X13973Y6644D02*
G01X13084Y7533D01*
G01X13235Y7685D02*
G01X13235Y8335D01*
G01X13084Y8486D02*
G01X13969Y9371D01*
G01X14153Y9316D02*
G01X14803Y9316D01*
G01X14843Y9322D02*
G01X14843Y5552D01*
G01X14032Y5591D02*
G01X14150Y5591D01*
G01X14807Y5591D02*
G01X14843Y5591D01*
G01X14032Y5793D02*
G01X14843Y5793D01*
G01X14032Y5995D02*
G01X14843Y5995D01*
G01X14032Y6197D02*
G01X14843Y6197D01*
G01X14032Y6399D02*
G01X14843Y6399D01*
G01X14006Y6601D02*
G01X14843Y6601D01*
G01X13814Y6803D02*
G01X14843Y6803D01*
G01X13612Y7005D02*
G01X14843Y7005D01*
G01X13410Y7207D02*
G01X14843Y7207D01*
G01X13208Y7409D02*
G01X14843Y7409D01*
G01X13216Y7611D02*
G01X14843Y7611D01*
G01X13235Y7813D02*
G01X14843Y7813D01*
G01X13235Y8015D02*
G01X14843Y8015D01*
G01X13235Y8217D02*
G01X14843Y8217D01*
G01X13209Y8419D02*
G01X14843Y8419D01*
G01X13219Y8621D02*
G01X14843Y8621D01*
G01X13421Y8823D02*
G01X14843Y8823D01*
G01X13623Y9025D02*
G01X14843Y9025D01*
G01X13825Y9227D02*
G01X14843Y9227D01*
G01X14660Y5686D02*
G01X14660Y9316D01*
G01X14458Y5722D02*
G01X14458Y9316D01*
G01X14256Y5667D02*
G01X14256Y9316D01*
G01X14054Y5463D02*
G01X14054Y9353D01*
G01X13852Y6765D02*
G01X13852Y9254D01*
G01X13650Y6967D02*
G01X13650Y9052D01*
G01X13448Y7169D02*
G01X13448Y8850D01*
G01X13246Y7371D02*
G01X13246Y8648D01*
G01X11641Y4991D02*
G01X11370Y5263D01*
G01X11547Y5346D02*
G01X11547Y5342D01*
G01X11445Y5187D02*
G01X11564Y5187D01*
G01X11630Y5002D02*
G01X11630Y5010D01*
G01X11428Y5204D02*
G01X11428Y5281D01*
G01X4141Y4991D02*
G01X3870Y5263D01*
G01X4047Y5346D02*
G01X4047Y5342D01*
G01X3945Y5187D02*
G01X4064Y5187D01*
G01X3954Y5178D02*
G01X3954Y5292D01*
G01X12233Y4399D02*
G01X11899Y4733D01*
G01X12051Y4581D02*
G01X12160Y4581D01*
G01X12034Y4598D02*
G01X12034Y4673D01*
G01X4733Y4399D02*
G01X4399Y4733D01*
G01X4551Y4581D02*
G01X4660Y4581D01*
G01X4560Y4572D02*
G01X4560Y4665D01*
G01X13629Y4229D02*
G01X13629Y4077D01*
G01X13564Y4177D02*
G01X13629Y4177D01*
G01X6129Y4229D02*
G01X6129Y4077D01*
G01X6064Y4177D02*
G01X6129Y4177D01*
G01X12763Y3869D02*
G01X12492Y4141D01*
G01X12842Y4047D02*
G01X12846Y4047D01*
G01X12657Y3975D02*
G01X12802Y3975D01*
G01X12842Y4042D02*
G01X12842Y4047D01*
G01X12640Y3992D02*
G01X12640Y4076D01*
G01X5263Y3869D02*
G01X4992Y4141D01*
G01X5342Y4047D02*
G01X5346Y4047D01*
G01X5157Y3975D02*
G01X5302Y3975D01*
G01X5166Y3966D02*
G01X5166Y4069D01*
G01X13629Y3422D02*
G01X13629Y3270D01*
G01X13576Y3369D02*
G01X13629Y3369D01*
G01X6129Y3422D02*
G01X6129Y3270D01*
G01X6076Y3369D02*
G01X6129Y3369D01*
G01X14843Y3007D02*
G01X14843Y2764D01*
G01X14803Y2769D02*
G01X14679Y2769D01*
G01X14679Y2769D02*
G01X14679Y2846D01*
G01X14679Y2846D02*
G01X14739Y2904D01*
G01X14794Y3007D02*
G01X14843Y3007D01*
G01X14780Y2965D02*
G01X14843Y2965D01*
G01X14032Y2709D02*
G01X14032Y5078D01*
G01X14843Y4939D02*
G01X14843Y4492D01*
G01X14843Y4492D02*
G01X14232Y4492D01*
G01X14081Y4340D02*
G01X14081Y3159D01*
G01X14232Y3007D02*
G01X14292Y3007D01*
G01X14276Y2930D02*
G01X14276Y2769D01*
G01X14276Y2769D02*
G01X14153Y2769D01*
G01X14032Y2763D02*
G01X14109Y2763D01*
G01X14032Y2965D02*
G01X14279Y2965D01*
G01X14032Y3167D02*
G01X14081Y3167D01*
G01X14032Y3369D02*
G01X14081Y3369D01*
G01X14032Y3571D02*
G01X14081Y3571D01*
G01X14032Y3773D02*
G01X14081Y3773D01*
G01X14032Y3975D02*
G01X14081Y3975D01*
G01X14032Y4177D02*
G01X14081Y4177D01*
G01X14032Y4379D02*
G01X14086Y4379D01*
G01X14032Y4581D02*
G01X14843Y4581D01*
G01X14032Y4783D02*
G01X14365Y4783D01*
G01X14591Y4783D02*
G01X14843Y4783D01*
G01X14032Y4985D02*
G01X14079Y4985D01*
G01X14660Y4492D02*
G01X14660Y4805D01*
G01X14458Y4492D02*
G01X14458Y4770D01*
G01X14256Y2769D02*
G01X14256Y3007D01*
G01X14256Y4492D02*
G01X14256Y4824D01*
G01X14054Y2733D02*
G01X14054Y5028D01*
G01X6532Y2709D02*
G01X6532Y5078D01*
G01X7348Y4945D02*
G01X7348Y2762D01*
G01X7303Y2769D02*
G01X6653Y2769D01*
G01X6532Y2763D02*
G01X6609Y2763D01*
G01X7347Y2763D02*
G01X7348Y2763D01*
G01X6532Y2965D02*
G01X7348Y2965D01*
G01X6532Y3167D02*
G01X7348Y3167D01*
G01X6532Y3369D02*
G01X7348Y3369D01*
G01X6532Y3571D02*
G01X7348Y3571D01*
G01X6532Y3773D02*
G01X7348Y3773D01*
G01X6532Y3975D02*
G01X7348Y3975D01*
G01X6532Y4177D02*
G01X7348Y4177D01*
G01X6532Y4379D02*
G01X7348Y4379D01*
G01X6532Y4581D02*
G01X7348Y4581D01*
G01X6532Y4783D02*
G01X6865Y4783D01*
G01X7091Y4783D02*
G01X7348Y4783D01*
G01X6532Y4985D02*
G01X6579Y4985D01*
G01X7186Y2769D02*
G01X7186Y4817D01*
G01X6984Y2769D02*
G01X6984Y4769D01*
G01X6782Y2769D02*
G01X6782Y4811D01*
G01X6580Y2751D02*
G01X6580Y4983D01*
G01X11547Y2157D02*
G01X11547Y2153D01*
G01X10952Y2153D02*
G01X10952Y2157D01*
G01X9657Y3452D02*
G01X9654Y3452D01*
G01X9654Y4047D02*
G01X9657Y4047D01*
G01X10923Y5140D02*
G01X11369Y4694D01*
G01X12194Y3869D02*
G01X12587Y3475D01*
G01X12587Y3475D02*
G01X12587Y3404D01*
G01X10952Y2157D02*
G01X10957Y2157D01*
G01X11542Y2157D02*
G01X11547Y2157D01*
G01X10923Y2359D02*
G01X11577Y2359D01*
G01X10825Y2561D02*
G01X11675Y2561D01*
G01X10606Y2763D02*
G01X11894Y2763D01*
G01X10326Y2965D02*
G01X10712Y2965D01*
G01X11788Y2965D02*
G01X12173Y2965D01*
G01X10223Y3167D02*
G01X10498Y3167D01*
G01X12002Y3167D02*
G01X12277Y3167D01*
G01X9989Y3369D02*
G01X10378Y3369D01*
G01X12122Y3369D02*
G01X12510Y3369D01*
G01X9718Y3571D02*
G01X10315Y3571D01*
G01X12184Y3571D02*
G01X12492Y3571D01*
G01X9751Y3773D02*
G01X10299Y3773D01*
G01X12201Y3773D02*
G01X12290Y3773D01*
G01X9698Y3975D02*
G01X10325Y3975D01*
G01X10064Y4177D02*
G01X10400Y4177D01*
G01X10254Y4379D02*
G01X10536Y4379D01*
G01X10339Y4581D02*
G01X10787Y4581D01*
G01X10675Y4783D02*
G01X11280Y4783D01*
G01X10855Y4985D02*
G01X11078Y4985D01*
G01X12438Y3324D02*
G01X12438Y3624D01*
G01X12236Y3105D02*
G01X12236Y3826D01*
G01X12034Y2826D02*
G01X12034Y3211D01*
G01X11832Y2722D02*
G01X11832Y2997D01*
G01X11630Y2489D02*
G01X11630Y2877D01*
G01X11428Y2218D02*
G01X11428Y2815D01*
G01X11226Y2250D02*
G01X11226Y2798D01*
G01X11226Y4701D02*
G01X11226Y4836D01*
G01X11024Y2197D02*
G01X11024Y2825D01*
G01X11024Y4674D02*
G01X11024Y5038D01*
G01X10822Y2564D02*
G01X10822Y2899D01*
G01X10822Y4600D02*
G01X10822Y4935D01*
G01X10620Y2754D02*
G01X10620Y3036D01*
G01X10620Y4463D02*
G01X10620Y4745D01*
G01X10418Y2839D02*
G01X10418Y3287D01*
G01X10418Y4212D02*
G01X10418Y4660D01*
G01X10216Y3175D02*
G01X10216Y4324D01*
G01X10014Y3355D02*
G01X10014Y4144D01*
G01X9812Y3435D02*
G01X9812Y4064D01*
G01X3452Y2153D02*
G01X3452Y2157D01*
G01X2157Y3452D02*
G01X2154Y3452D01*
G01X2154Y4047D02*
G01X2157Y4047D01*
G01X3423Y5140D02*
G01X3869Y4694D01*
G01X4694Y3869D02*
G01X5087Y3475D01*
G01X5087Y3475D02*
G01X5087Y3404D01*
G01X4047Y2157D02*
G01X4047Y2153D01*
G01X3452Y2157D02*
G01X3457Y2157D01*
G01X4042Y2157D02*
G01X4047Y2157D01*
G01X3423Y2359D02*
G01X4077Y2359D01*
G01X3325Y2561D02*
G01X4175Y2561D01*
G01X3106Y2763D02*
G01X4394Y2763D01*
G01X2826Y2965D02*
G01X3212Y2965D01*
G01X4288Y2965D02*
G01X4673Y2965D01*
G01X2723Y3167D02*
G01X2998Y3167D01*
G01X4502Y3167D02*
G01X4777Y3167D01*
G01X2489Y3369D02*
G01X2878Y3369D01*
G01X4622Y3369D02*
G01X5010Y3369D01*
G01X2218Y3571D02*
G01X2815Y3571D01*
G01X4684Y3571D02*
G01X4992Y3571D01*
G01X2251Y3773D02*
G01X2799Y3773D01*
G01X4701Y3773D02*
G01X4790Y3773D01*
G01X2198Y3975D02*
G01X2825Y3975D01*
G01X2564Y4177D02*
G01X2900Y4177D01*
G01X2754Y4379D02*
G01X3036Y4379D01*
G01X2839Y4581D02*
G01X3287Y4581D01*
G01X3175Y4783D02*
G01X3780Y4783D01*
G01X3355Y4985D02*
G01X3578Y4985D01*
G01X4964Y3342D02*
G01X4964Y3598D01*
G01X4762Y3146D02*
G01X4762Y3800D01*
G01X4560Y2834D02*
G01X4560Y3251D01*
G01X4358Y2740D02*
G01X4358Y3018D01*
G01X4156Y2533D02*
G01X4156Y2889D01*
G01X3954Y2207D02*
G01X3954Y2820D01*
G01X3752Y2251D02*
G01X3752Y2798D01*
G01X3752Y4701D02*
G01X3752Y4810D01*
G01X3550Y2210D02*
G01X3550Y2819D01*
G01X3550Y4680D02*
G01X3550Y5012D01*
G01X3348Y2525D02*
G01X3348Y2887D01*
G01X3348Y4612D02*
G01X3348Y4974D01*
G01X3146Y2737D02*
G01X3146Y3014D01*
G01X3146Y4485D02*
G01X3146Y4762D01*
G01X2944Y2832D02*
G01X2944Y3243D01*
G01X2944Y4256D02*
G01X2944Y4667D01*
G01X2742Y3139D02*
G01X2742Y4360D01*
G01X2540Y3339D02*
G01X2540Y4160D01*
G01X2338Y3428D02*
G01X2338Y4071D01*
G01X2507Y941D02*
G01X2507Y1183D01*
G01X5452Y1842D02*
G01X5452Y2047D01*
G01X5452Y2047D02*
G01X5657Y2047D01*
G01X6129Y2229D02*
G01X6129Y2101D01*
G01X6129Y2101D02*
G01X5116Y1088D01*
G01X5061Y986D02*
G01X4933Y986D01*
G01X4782Y835D02*
G01X4782Y185D01*
G01X4785Y156D02*
G01X4492Y156D01*
G01X4492Y156D02*
G01X4492Y767D01*
G01X4340Y919D02*
G01X3159Y919D01*
G01X3008Y767D02*
G01X3008Y156D01*
G01X3008Y156D02*
G01X2625Y156D01*
G01X2751Y339D02*
G01X3008Y339D01*
G01X4492Y339D02*
G01X4782Y339D01*
G01X2781Y541D02*
G01X3008Y541D01*
G01X4492Y541D02*
G01X4782Y541D01*
G01X2721Y743D02*
G01X3008Y743D01*
G01X4492Y743D02*
G01X4782Y743D01*
G01X2507Y945D02*
G01X4829Y945D01*
G01X2507Y1147D02*
G01X2648Y1147D01*
G01X2852Y1147D02*
G01X4648Y1147D01*
G01X4852Y1147D02*
G01X5175Y1147D01*
G01X3250Y1349D02*
G01X3448Y1349D01*
G01X4051Y1349D02*
G01X4249Y1349D01*
G01X5250Y1349D02*
G01X5377Y1349D01*
G01X5389Y1551D02*
G01X5579Y1551D01*
G01X5447Y1753D02*
G01X5781Y1753D01*
G01X5452Y1955D02*
G01X5983Y1955D01*
G01X6035Y2157D02*
G01X6129Y2157D01*
G01X5974Y1946D02*
G01X5974Y2122D01*
G01X5772Y1744D02*
G01X5772Y2056D01*
G01X5570Y1542D02*
G01X5570Y2047D01*
G01X5368Y1340D02*
G01X5368Y1509D01*
G01X5166Y1138D02*
G01X5166Y1276D01*
G01X4964Y986D02*
G01X4964Y1173D01*
G01X4762Y156D02*
G01X4762Y1139D01*
G01X4560Y156D02*
G01X4560Y1165D01*
G01X4358Y918D02*
G01X4358Y1259D01*
G01X4156Y919D02*
G01X4156Y1456D01*
G01X3954Y919D02*
G01X3954Y1292D01*
G01X3752Y919D02*
G01X3752Y1248D01*
G01X3550Y919D02*
G01X3550Y1289D01*
G01X3348Y919D02*
G01X3348Y1449D01*
G01X3146Y918D02*
G01X3146Y1262D01*
G01X2944Y156D02*
G01X2944Y1167D01*
G01X2742Y156D02*
G01X2742Y319D01*
G01X2742Y700D02*
G01X2742Y1139D01*
G01X2540Y924D02*
G01X2540Y1171D01*
G01X11992Y156D02*
G01X11992Y767D01*
G01X11840Y919D02*
G01X10659Y919D01*
G01X10508Y767D02*
G01X10508Y156D01*
G01X10508Y156D02*
G01X10125Y156D01*
G01X10007Y941D02*
G01X10007Y1183D01*
G01X12952Y1842D02*
G01X12952Y2047D01*
G01X12952Y2047D02*
G01X13157Y2047D01*
G01X13629Y2229D02*
G01X13629Y2101D01*
G01X13629Y2101D02*
G01X12616Y1088D01*
G01X12561Y986D02*
G01X12433Y986D01*
G01X12282Y835D02*
G01X12282Y185D01*
G01X12285Y156D02*
G01X11992Y156D01*
G01X10251Y339D02*
G01X10508Y339D01*
G01X11992Y339D02*
G01X12282Y339D01*
G01X10281Y541D02*
G01X10508Y541D01*
G01X11992Y541D02*
G01X12282Y541D01*
G01X10221Y743D02*
G01X10508Y743D01*
G01X11992Y743D02*
G01X12282Y743D01*
G01X10007Y945D02*
G01X12329Y945D01*
G01X10007Y1147D02*
G01X10148Y1147D01*
G01X10352Y1147D02*
G01X12148Y1147D01*
G01X12352Y1147D02*
G01X12675Y1147D01*
G01X10750Y1349D02*
G01X10948Y1349D01*
G01X11551Y1349D02*
G01X11749Y1349D01*
G01X12750Y1349D02*
G01X12877Y1349D01*
G01X12889Y1551D02*
G01X13079Y1551D01*
G01X12947Y1753D02*
G01X13281Y1753D01*
G01X12952Y1955D02*
G01X13483Y1955D01*
G01X13535Y2157D02*
G01X13629Y2157D01*
G01X13448Y1920D02*
G01X13448Y2110D01*
G01X13246Y1718D02*
G01X13246Y2052D01*
G01X13044Y1516D02*
G01X13044Y2047D01*
G01X12842Y1314D02*
G01X12842Y1464D01*
G01X12640Y1112D02*
G01X12640Y1258D01*
G01X12438Y986D02*
G01X12438Y1165D01*
G01X12236Y156D02*
G01X12236Y1139D01*
G01X12034Y156D02*
G01X12034Y1173D01*
G01X11832Y919D02*
G01X11832Y1277D01*
G01X11630Y919D02*
G01X11630Y1423D01*
G01X11428Y919D02*
G01X11428Y1281D01*
G01X11226Y919D02*
G01X11226Y1249D01*
G01X11024Y919D02*
G01X11024Y1302D01*
G01X10822Y919D02*
G01X10822Y1435D01*
G01X10620Y914D02*
G01X10620Y1245D01*
G01X10418Y156D02*
G01X10418Y1160D01*
G01X10216Y156D02*
G01X10216Y268D01*
G01X10216Y751D02*
G01X10216Y1140D01*
G01X10014Y938D02*
G01X10014Y1180D01*
G01X5735Y185D02*
G01X5735Y835D01*
G01X5584Y986D02*
G01X6473Y1875D01*
G01X6653Y1816D02*
G01X7303Y1816D01*
G01X7348Y1823D02*
G01X7348Y1721D01*
G01X7500Y1569D02*
G01X8050Y1569D01*
G01X8201Y1721D02*
G01X8201Y5625D01*
G01X8050Y5776D02*
G01X7500Y5776D01*
G01X7348Y5625D02*
G01X7348Y5546D01*
G01X6532Y5414D02*
G01X6532Y6501D01*
G01X6473Y6644D02*
G01X5584Y7533D01*
G01X5735Y7685D02*
G01X5735Y8335D01*
G01X5584Y8486D02*
G01X6508Y9410D01*
G01X6653Y9316D02*
G01X7303Y9316D01*
G01X7455Y9468D02*
G01X7455Y10118D01*
G01X7303Y10269D02*
G01X6653Y10269D01*
G01X6567Y10243D02*
G01X6567Y12504D01*
G01X6508Y12824D02*
G01X4594Y14738D01*
G01X4492Y14793D02*
G01X4492Y14843D01*
G01X4492Y14843D02*
G01X10508Y14843D01*
G01X10508Y14843D02*
G01X10508Y14232D01*
G01X10659Y14080D02*
G01X11840Y14080D01*
G01X11992Y14232D02*
G01X11992Y14270D01*
G01X11992Y14270D02*
G01X12425Y13838D01*
G01X9547Y13157D02*
G01X9547Y12952D01*
G01X9547Y12952D02*
G01X9342Y12952D01*
G01X9342Y9547D02*
G01X9547Y9547D01*
G01X9547Y9547D02*
G01X9547Y9342D01*
G01X10048Y8669D02*
G01X10048Y8537D01*
G01X10048Y8537D02*
G01X9969Y8457D01*
G01X10253Y8172D02*
G01X10392Y8311D01*
G01X10451Y8453D02*
G01X10451Y8669D01*
G01X12952Y9342D02*
G01X12952Y9547D01*
G01X12952Y9547D02*
G01X13157Y9547D01*
G01X13625Y9725D02*
G01X13625Y9597D01*
G01X13625Y9597D02*
G01X12616Y8588D01*
G01X12561Y8486D02*
G01X12433Y8486D01*
G01X12282Y8335D02*
G01X12282Y7685D01*
G01X12433Y7533D02*
G01X12561Y7533D01*
G01X12616Y7431D02*
G01X13629Y6418D01*
G01X13629Y6418D02*
G01X13629Y5270D01*
G01X13157Y5452D02*
G01X12952Y5452D01*
G01X12952Y5452D02*
G01X12952Y5657D01*
G01X9547Y5657D02*
G01X9547Y5452D01*
G01X9547Y5452D02*
G01X9342Y5452D01*
G01X9342Y2047D02*
G01X9547Y2047D01*
G01X9547Y2047D02*
G01X9547Y1842D01*
G01X9604Y1555D02*
G01X9604Y941D01*
G01X9486Y156D02*
G01X5732Y156D01*
G01X5735Y339D02*
G01X9361Y339D01*
G01X5735Y541D02*
G01X9330Y541D01*
G01X5735Y743D02*
G01X9390Y743D01*
G01X5687Y945D02*
G01X9604Y945D01*
G01X5745Y1147D02*
G01X9604Y1147D01*
G01X5947Y1349D02*
G01X9604Y1349D01*
G01X6149Y1551D02*
G01X9604Y1551D01*
G01X6351Y1753D02*
G01X7348Y1753D01*
G01X8201Y1753D02*
G01X9553Y1753D01*
G01X8201Y1955D02*
G01X9547Y1955D01*
G01X8201Y2157D02*
G01X8965Y2157D01*
G01X8201Y2359D02*
G01X8758Y2359D01*
G01X8201Y2561D02*
G01X8665Y2561D01*
G01X8201Y2763D02*
G01X8640Y2763D01*
G01X8201Y2965D02*
G01X8673Y2965D01*
G01X8201Y3167D02*
G01X8777Y3167D01*
G01X8201Y3369D02*
G01X8923Y3369D01*
G01X8201Y3571D02*
G01X8781Y3571D01*
G01X8201Y3773D02*
G01X8749Y3773D01*
G01X8201Y3975D02*
G01X8802Y3975D01*
G01X8201Y4177D02*
G01X8935Y4177D01*
G01X8201Y4379D02*
G01X8745Y4379D01*
G01X8201Y4581D02*
G01X8660Y4581D01*
G01X8201Y4783D02*
G01X8640Y4783D01*
G01X8201Y4985D02*
G01X8680Y4985D01*
G01X8201Y5187D02*
G01X8792Y5187D01*
G01X8201Y5389D02*
G01X9051Y5389D01*
G01X13449Y5389D02*
G01X13629Y5389D01*
G01X6532Y5591D02*
G01X6650Y5591D01*
G01X7307Y5591D02*
G01X7348Y5591D01*
G01X8201Y5591D02*
G01X9547Y5591D01*
G01X12952Y5591D02*
G01X13629Y5591D01*
G01X6532Y5793D02*
G01X9560Y5793D01*
G01X12939Y5793D02*
G01X13629Y5793D01*
G01X6532Y5995D02*
G01X9634Y5995D01*
G01X12866Y5995D02*
G01X13629Y5995D01*
G01X6532Y6197D02*
G01X9800Y6197D01*
G01X10700Y6197D02*
G01X11023Y6197D01*
G01X11477Y6197D02*
G01X11800Y6197D01*
G01X12700Y6197D02*
G01X13629Y6197D01*
G01X6532Y6399D02*
G01X13629Y6399D01*
G01X6506Y6601D02*
G01X13447Y6601D01*
G01X6314Y6803D02*
G01X13245Y6803D01*
G01X6112Y7005D02*
G01X13043Y7005D01*
G01X5910Y7207D02*
G01X12841Y7207D01*
G01X5708Y7409D02*
G01X12639Y7409D01*
G01X5716Y7611D02*
G01X9545Y7611D01*
G01X10067Y7611D02*
G01X12301Y7611D01*
G01X5735Y7813D02*
G01X9372Y7813D01*
G01X10240Y7813D02*
G01X12282Y7813D01*
G01X5735Y8015D02*
G01X9329Y8015D01*
G01X10282Y8015D02*
G01X12282Y8015D01*
G01X5735Y8217D02*
G01X9377Y8217D01*
G01X10298Y8217D02*
G01X12282Y8217D01*
G01X5709Y8419D02*
G01X9562Y8419D01*
G01X10448Y8419D02*
G01X12308Y8419D01*
G01X5719Y8621D02*
G01X10048Y8621D01*
G01X10451Y8621D02*
G01X12649Y8621D01*
G01X5921Y8823D02*
G01X9776Y8823D01*
G01X10723Y8823D02*
G01X10986Y8823D01*
G01X11513Y8823D02*
G01X11776Y8823D01*
G01X12723Y8823D02*
G01X12851Y8823D01*
G01X6123Y9025D02*
G01X9623Y9025D01*
G01X12877Y9025D02*
G01X13053Y9025D01*
G01X6325Y9227D02*
G01X9557Y9227D01*
G01X12943Y9227D02*
G01X13255Y9227D01*
G01X7449Y9429D02*
G01X9547Y9429D01*
G01X12952Y9429D02*
G01X13457Y9429D01*
G01X7455Y9631D02*
G01X9009Y9631D01*
G01X13490Y9631D02*
G01X13625Y9631D01*
G01X7455Y9833D02*
G01X8777Y9833D01*
G01X7455Y10035D02*
G01X8673Y10035D01*
G01X7397Y10237D02*
G01X8640Y10237D01*
G01X6567Y10439D02*
G01X8666Y10439D01*
G01X6567Y10641D02*
G01X8759Y10641D01*
G01X6567Y10843D02*
G01X8956Y10843D01*
G01X6567Y11045D02*
G01X8792Y11045D01*
G01X6567Y11247D02*
G01X8748Y11247D01*
G01X6567Y11449D02*
G01X8790Y11449D01*
G01X6567Y11651D02*
G01X8949Y11651D01*
G01X6567Y11853D02*
G01X8762Y11853D01*
G01X6567Y12055D02*
G01X8667Y12055D01*
G01X6567Y12257D02*
G01X8640Y12257D01*
G01X6567Y12459D02*
G01X6598Y12459D01*
G01X7359Y12459D02*
G01X8671Y12459D01*
G01X7447Y12661D02*
G01X8773Y12661D01*
G01X6469Y12863D02*
G01X6516Y12863D01*
G01X7440Y12863D02*
G01X8999Y12863D01*
G01X6267Y13065D02*
G01X6624Y13065D01*
G01X7332Y13065D02*
G01X9547Y13065D01*
G01X6065Y13267D02*
G01X9556Y13267D01*
G01X5863Y13469D02*
G01X9620Y13469D01*
G01X5661Y13671D02*
G01X9770Y13671D01*
G01X10729Y13671D02*
G01X10978Y13671D01*
G01X11522Y13671D02*
G01X11770Y13671D01*
G01X5459Y13873D02*
G01X12390Y13873D01*
G01X5257Y14075D02*
G01X12188Y14075D01*
G01X5055Y14277D02*
G01X10508Y14277D01*
G01X4853Y14479D02*
G01X10508Y14479D01*
G01X4651Y14681D02*
G01X10508Y14681D01*
G01X13448Y5389D02*
G01X13448Y6599D01*
G01X13448Y9420D02*
G01X13448Y9610D01*
G01X13246Y5447D02*
G01X13246Y6801D01*
G01X13246Y9218D02*
G01X13246Y9552D01*
G01X13044Y5452D02*
G01X13044Y7003D01*
G01X13044Y9016D02*
G01X13044Y9547D01*
G01X12842Y6035D02*
G01X12842Y7205D01*
G01X12842Y8814D02*
G01X12842Y8964D01*
G01X12640Y6241D02*
G01X12640Y7407D01*
G01X12640Y8612D02*
G01X12640Y8758D01*
G01X12438Y6334D02*
G01X12438Y7533D01*
G01X12438Y8486D02*
G01X12438Y8665D01*
G01X12236Y6360D02*
G01X12236Y8639D01*
G01X12236Y13860D02*
G01X12236Y14026D01*
G01X12034Y6326D02*
G01X12034Y8673D01*
G01X12034Y13826D02*
G01X12034Y14228D01*
G01X11832Y6222D02*
G01X11832Y8777D01*
G01X11832Y13722D02*
G01X11832Y14080D01*
G01X11630Y6076D02*
G01X11630Y8923D01*
G01X11630Y13576D02*
G01X11630Y14080D01*
G01X11428Y6218D02*
G01X11428Y8781D01*
G01X11428Y13718D02*
G01X11428Y14080D01*
G01X11226Y6250D02*
G01X11226Y8749D01*
G01X11226Y13750D02*
G01X11226Y14080D01*
G01X11024Y6197D02*
G01X11024Y8802D01*
G01X11024Y13697D02*
G01X11024Y14080D01*
G01X10822Y6064D02*
G01X10822Y8935D01*
G01X10822Y13564D02*
G01X10822Y14080D01*
G01X10620Y6254D02*
G01X10620Y8745D01*
G01X10620Y13754D02*
G01X10620Y14085D01*
G01X10418Y6339D02*
G01X10418Y8343D01*
G01X10418Y13839D02*
G01X10418Y14843D01*
G01X10216Y6359D02*
G01X10216Y7768D01*
G01X10216Y13859D02*
G01X10216Y14843D01*
G01X10014Y6319D02*
G01X10014Y7581D01*
G01X10014Y8503D02*
G01X10014Y8680D01*
G01X10014Y13819D02*
G01X10014Y14843D01*
G01X9812Y6207D02*
G01X9812Y7533D01*
G01X9812Y8486D02*
G01X9812Y8792D01*
G01X9812Y13707D02*
G01X9812Y14843D01*
G01X9610Y5948D02*
G01X9610Y7575D01*
G01X9610Y8444D02*
G01X9610Y9051D01*
G01X9610Y13448D02*
G01X9610Y14843D01*
G01X9408Y156D02*
G01X9408Y247D01*
G01X9408Y772D02*
G01X9408Y2047D01*
G01X9408Y5452D02*
G01X9408Y7747D01*
G01X9408Y8272D02*
G01X9408Y9547D01*
G01X9408Y12952D02*
G01X9408Y14843D01*
G01X9206Y156D02*
G01X9206Y2060D01*
G01X9206Y5439D02*
G01X9206Y9560D01*
G01X9206Y12939D02*
G01X9206Y14843D01*
G01X9004Y156D02*
G01X9004Y2133D01*
G01X9004Y5366D02*
G01X9004Y9633D01*
G01X9004Y12866D02*
G01X9004Y14843D01*
G01X8802Y156D02*
G01X8802Y2300D01*
G01X8802Y3199D02*
G01X8802Y3523D01*
G01X8802Y3976D02*
G01X8802Y4300D01*
G01X8802Y5199D02*
G01X8802Y9800D01*
G01X8802Y10699D02*
G01X8802Y11023D01*
G01X8802Y11476D02*
G01X8802Y11800D01*
G01X8802Y12699D02*
G01X8802Y14843D01*
G01X8600Y156D02*
G01X8600Y14843D01*
G01X8398Y156D02*
G01X8398Y14843D01*
G01X8196Y156D02*
G01X8196Y1683D01*
G01X8196Y5662D02*
G01X8196Y14843D01*
G01X7994Y156D02*
G01X7994Y1569D01*
G01X7994Y5776D02*
G01X7994Y14843D01*
G01X7792Y156D02*
G01X7792Y1569D01*
G01X7792Y5776D02*
G01X7792Y14843D01*
G01X7590Y156D02*
G01X7590Y1569D01*
G01X7590Y5776D02*
G01X7590Y14843D01*
G01X7388Y156D02*
G01X7388Y1618D01*
G01X7388Y5728D02*
G01X7388Y9342D01*
G01X7388Y10243D02*
G01X7388Y12503D01*
G01X7388Y12988D02*
G01X7388Y14843D01*
G01X7186Y156D02*
G01X7186Y1816D01*
G01X7186Y5674D02*
G01X7186Y9316D01*
G01X7186Y10269D02*
G01X7186Y12317D01*
G01X7186Y13174D02*
G01X7186Y14843D01*
G01X6984Y156D02*
G01X6984Y1816D01*
G01X6984Y5722D02*
G01X6984Y9316D01*
G01X6984Y10269D02*
G01X6984Y12269D01*
G01X6984Y13222D02*
G01X6984Y14843D01*
G01X6782Y156D02*
G01X6782Y1816D01*
G01X6782Y5680D02*
G01X6782Y9316D01*
G01X6782Y10269D02*
G01X6782Y12311D01*
G01X6782Y13180D02*
G01X6782Y14843D01*
G01X6580Y156D02*
G01X6580Y1835D01*
G01X6580Y5508D02*
G01X6580Y9335D01*
G01X6580Y10251D02*
G01X6580Y12483D01*
G01X6580Y13008D02*
G01X6580Y14843D01*
G01X6378Y156D02*
G01X6378Y1780D01*
G01X6378Y6739D02*
G01X6378Y9280D01*
G01X6378Y12954D02*
G01X6378Y14843D01*
G01X6176Y156D02*
G01X6176Y1578D01*
G01X6176Y6941D02*
G01X6176Y9078D01*
G01X6176Y13156D02*
G01X6176Y14843D01*
G01X5974Y156D02*
G01X5974Y1376D01*
G01X5974Y7143D02*
G01X5974Y8876D01*
G01X5974Y13358D02*
G01X5974Y14843D01*
G01X5772Y156D02*
G01X5772Y1174D01*
G01X5772Y7345D02*
G01X5772Y8674D01*
G01X5772Y13560D02*
G01X5772Y14843D01*
G01X5570Y13762D02*
G01X5570Y14843D01*
G01X5368Y13964D02*
G01X5368Y14843D01*
G01X5166Y14166D02*
G01X5166Y14843D01*
G01X4964Y14368D02*
G01X4964Y14843D01*
G01X4762Y14570D02*
G01X4762Y14843D01*
G01X4560Y14765D02*
G01X4560Y14843D01*
G01X13235Y185D02*
G01X13235Y835D01*
G01X13084Y986D02*
G01X13973Y1875D01*
G01X14153Y1816D02*
G01X14803Y1816D01*
G01X14843Y1822D02*
G01X14843Y468D01*
G01X14531Y156D02*
G01X13232Y156D01*
G01X13235Y339D02*
G01X14815Y339D01*
G01X13235Y541D02*
G01X14843Y541D01*
G01X13235Y743D02*
G01X14843Y743D01*
G01X13187Y945D02*
G01X14843Y945D01*
G01X13245Y1147D02*
G01X14843Y1147D01*
G01X13447Y1349D02*
G01X14843Y1349D01*
G01X13649Y1551D02*
G01X14843Y1551D01*
G01X13851Y1753D02*
G01X14843Y1753D01*
G01X14660Y184D02*
G01X14660Y1816D01*
G01X14458Y156D02*
G01X14458Y1816D01*
G01X14256Y156D02*
G01X14256Y1816D01*
G01X14054Y156D02*
G01X14054Y1853D01*
G01X13852Y156D02*
G01X13852Y1754D01*
G01X13650Y156D02*
G01X13650Y1552D01*
G01X13448Y156D02*
G01X13448Y1350D01*
G01X13246Y156D02*
G01X13246Y1148D01*
G01X156Y468D02*
G01X156Y3007D01*
G01X156Y3007D02*
G01X767Y3007D01*
G01X919Y3159D02*
G01X919Y4340D01*
G01X767Y4492D02*
G01X156Y4492D01*
G01X156Y4492D02*
G01X156Y10507D01*
G01X156Y10507D02*
G01X767Y10507D01*
G01X919Y10659D02*
G01X919Y11840D01*
G01X767Y11992D02*
G01X156Y11992D01*
G01X156Y11992D02*
G01X156Y14531D01*
G01X468Y14843D02*
G01X3008Y14843D01*
G01X3008Y14843D02*
G01X3008Y14232D01*
G01X3159Y14080D02*
G01X4340Y14080D01*
G01X4492Y14232D02*
G01X4492Y14270D01*
G01X4492Y14270D02*
G01X4925Y13838D01*
G01X2047Y13157D02*
G01X2047Y12952D01*
G01X2047Y12952D02*
G01X1842Y12952D01*
G01X1842Y9547D02*
G01X2047Y9547D01*
G01X2047Y9547D02*
G01X2047Y9342D01*
G01X2548Y8669D02*
G01X2548Y8537D01*
G01X2548Y8537D02*
G01X2469Y8457D01*
G01X2753Y8172D02*
G01X2892Y8311D01*
G01X2951Y8453D02*
G01X2951Y8669D01*
G01X5452Y9342D02*
G01X5452Y9547D01*
G01X5452Y9547D02*
G01X5657Y9547D01*
G01X6164Y9763D02*
G01X6164Y9636D01*
G01X6164Y9636D02*
G01X5116Y8588D01*
G01X5061Y8486D02*
G01X4933Y8486D01*
G01X4782Y8335D02*
G01X4782Y7685D01*
G01X4933Y7533D02*
G01X5061Y7533D01*
G01X5116Y7431D02*
G01X6129Y6418D01*
G01X6129Y6418D02*
G01X6129Y5270D01*
G01X5657Y5452D02*
G01X5452Y5452D01*
G01X5452Y5452D02*
G01X5452Y5657D01*
G01X2047Y5657D02*
G01X2047Y5452D01*
G01X2047Y5452D02*
G01X1842Y5452D01*
G01X1842Y2047D02*
G01X2047Y2047D01*
G01X2047Y2047D02*
G01X2047Y1842D01*
G01X2104Y1555D02*
G01X2104Y941D01*
G01X1986Y156D02*
G01X468Y156D01*
G01X184Y339D02*
G01X1861Y339D01*
G01X156Y541D02*
G01X1830Y541D01*
G01X156Y743D02*
G01X1890Y743D01*
G01X156Y945D02*
G01X2104Y945D01*
G01X156Y1147D02*
G01X2104Y1147D01*
G01X156Y1349D02*
G01X2104Y1349D01*
G01X156Y1551D02*
G01X2104Y1551D01*
G01X156Y1753D02*
G01X2053Y1753D01*
G01X156Y1955D02*
G01X2047Y1955D01*
G01X156Y2157D02*
G01X1465Y2157D01*
G01X156Y2359D02*
G01X1258Y2359D01*
G01X156Y2561D02*
G01X1165Y2561D01*
G01X156Y2763D02*
G01X1140Y2763D01*
G01X156Y2965D02*
G01X1173Y2965D01*
G01X919Y3167D02*
G01X1277Y3167D01*
G01X919Y3369D02*
G01X1423Y3369D01*
G01X919Y3571D02*
G01X1281Y3571D01*
G01X919Y3773D02*
G01X1249Y3773D01*
G01X919Y3975D02*
G01X1302Y3975D01*
G01X919Y4177D02*
G01X1435Y4177D01*
G01X914Y4379D02*
G01X1245Y4379D01*
G01X156Y4581D02*
G01X1160Y4581D01*
G01X156Y4783D02*
G01X1140Y4783D01*
G01X156Y4985D02*
G01X1180Y4985D01*
G01X156Y5187D02*
G01X1292Y5187D01*
G01X156Y5389D02*
G01X1551Y5389D01*
G01X5949Y5389D02*
G01X6129Y5389D01*
G01X156Y5591D02*
G01X2047Y5591D01*
G01X5452Y5591D02*
G01X6129Y5591D01*
G01X156Y5793D02*
G01X2060Y5793D01*
G01X5439Y5793D02*
G01X6129Y5793D01*
G01X156Y5995D02*
G01X2134Y5995D01*
G01X5366Y5995D02*
G01X6129Y5995D01*
G01X156Y6197D02*
G01X2300Y6197D01*
G01X3200Y6197D02*
G01X3523Y6197D01*
G01X3977Y6197D02*
G01X4300Y6197D01*
G01X5200Y6197D02*
G01X6129Y6197D01*
G01X156Y6399D02*
G01X6129Y6399D01*
G01X156Y6601D02*
G01X5947Y6601D01*
G01X156Y6803D02*
G01X5745Y6803D01*
G01X156Y7005D02*
G01X5543Y7005D01*
G01X156Y7207D02*
G01X5341Y7207D01*
G01X156Y7409D02*
G01X5139Y7409D01*
G01X156Y7611D02*
G01X2045Y7611D01*
G01X2567Y7611D02*
G01X4801Y7611D01*
G01X156Y7813D02*
G01X1872Y7813D01*
G01X2740Y7813D02*
G01X4782Y7813D01*
G01X156Y8015D02*
G01X1829Y8015D01*
G01X2782Y8015D02*
G01X4782Y8015D01*
G01X156Y8217D02*
G01X1877Y8217D01*
G01X2798Y8217D02*
G01X4782Y8217D01*
G01X156Y8419D02*
G01X2062Y8419D01*
G01X2948Y8419D02*
G01X4808Y8419D01*
G01X156Y8621D02*
G01X2548Y8621D01*
G01X2951Y8621D02*
G01X5149Y8621D01*
G01X156Y8823D02*
G01X2276Y8823D01*
G01X3223Y8823D02*
G01X3486Y8823D01*
G01X4013Y8823D02*
G01X4276Y8823D01*
G01X5223Y8823D02*
G01X5351Y8823D01*
G01X156Y9025D02*
G01X2123Y9025D01*
G01X5377Y9025D02*
G01X5553Y9025D01*
G01X156Y9227D02*
G01X2057Y9227D01*
G01X5443Y9227D02*
G01X5755Y9227D01*
G01X156Y9429D02*
G01X2047Y9429D01*
G01X5452Y9429D02*
G01X5957Y9429D01*
G01X156Y9631D02*
G01X1509Y9631D01*
G01X5990Y9631D02*
G01X6159Y9631D01*
G01X156Y9833D02*
G01X1277Y9833D01*
G01X156Y10035D02*
G01X1173Y10035D01*
G01X156Y10237D02*
G01X1140Y10237D01*
G01X156Y10439D02*
G01X1166Y10439D01*
G01X918Y10641D02*
G01X1259Y10641D01*
G01X919Y10843D02*
G01X1456Y10843D01*
G01X919Y11045D02*
G01X1292Y11045D01*
G01X919Y11247D02*
G01X1248Y11247D01*
G01X919Y11449D02*
G01X1290Y11449D01*
G01X919Y11651D02*
G01X1449Y11651D01*
G01X918Y11853D02*
G01X1262Y11853D01*
G01X156Y12055D02*
G01X1167Y12055D01*
G01X156Y12257D02*
G01X1140Y12257D01*
G01X156Y12459D02*
G01X1171Y12459D01*
G01X156Y12661D02*
G01X1273Y12661D01*
G01X156Y12863D02*
G01X1499Y12863D01*
G01X156Y13065D02*
G01X2047Y13065D01*
G01X156Y13267D02*
G01X2056Y13267D01*
G01X156Y13469D02*
G01X2120Y13469D01*
G01X156Y13671D02*
G01X2270Y13671D01*
G01X3229Y13671D02*
G01X3478Y13671D01*
G01X4022Y13671D02*
G01X4270Y13671D01*
G01X156Y13873D02*
G01X4890Y13873D01*
G01X156Y14075D02*
G01X4688Y14075D01*
G01X156Y14277D02*
G01X3008Y14277D01*
G01X156Y14479D02*
G01X3008Y14479D01*
G01X194Y14681D02*
G01X3008Y14681D01*
G01X5974Y5377D02*
G01X5974Y6573D01*
G01X5974Y9446D02*
G01X5974Y9622D01*
G01X5772Y5443D02*
G01X5772Y6775D01*
G01X5772Y9244D02*
G01X5772Y9556D01*
G01X5570Y5452D02*
G01X5570Y6977D01*
G01X5570Y9042D02*
G01X5570Y9547D01*
G01X5368Y5990D02*
G01X5368Y7179D01*
G01X5368Y8840D02*
G01X5368Y9009D01*
G01X5166Y6223D02*
G01X5166Y7381D01*
G01X5166Y8638D02*
G01X5166Y8776D01*
G01X4964Y6326D02*
G01X4964Y7533D01*
G01X4964Y8486D02*
G01X4964Y8673D01*
G01X4762Y6360D02*
G01X4762Y8639D01*
G01X4762Y13860D02*
G01X4762Y14000D01*
G01X4560Y6334D02*
G01X4560Y8665D01*
G01X4560Y13834D02*
G01X4560Y14202D01*
G01X4358Y6240D02*
G01X4358Y8759D01*
G01X4358Y13740D02*
G01X4358Y14081D01*
G01X4156Y6043D02*
G01X4156Y8956D01*
G01X4156Y13543D02*
G01X4156Y14080D01*
G01X3954Y6207D02*
G01X3954Y8792D01*
G01X3954Y13707D02*
G01X3954Y14080D01*
G01X3752Y6251D02*
G01X3752Y8748D01*
G01X3752Y13751D02*
G01X3752Y14080D01*
G01X3550Y6210D02*
G01X3550Y8789D01*
G01X3550Y13710D02*
G01X3550Y14080D01*
G01X3348Y6050D02*
G01X3348Y8949D01*
G01X3348Y13550D02*
G01X3348Y14080D01*
G01X3146Y6237D02*
G01X3146Y8762D01*
G01X3146Y13737D02*
G01X3146Y14081D01*
G01X2944Y6332D02*
G01X2944Y8401D01*
G01X2944Y13832D02*
G01X2944Y14843D01*
G01X2742Y6360D02*
G01X2742Y7819D01*
G01X2742Y13860D02*
G01X2742Y14843D01*
G01X2540Y6328D02*
G01X2540Y7595D01*
G01X2540Y8529D02*
G01X2540Y8671D01*
G01X2540Y13828D02*
G01X2540Y14843D01*
G01X2338Y6227D02*
G01X2338Y7534D01*
G01X2338Y8485D02*
G01X2338Y8772D01*
G01X2338Y13727D02*
G01X2338Y14843D01*
G01X2136Y6000D02*
G01X2136Y7564D01*
G01X2136Y8455D02*
G01X2136Y8999D01*
G01X2136Y13500D02*
G01X2136Y14843D01*
G01X1934Y156D02*
G01X1934Y211D01*
G01X1934Y808D02*
G01X1934Y2047D01*
G01X1934Y5452D02*
G01X1934Y7711D01*
G01X1934Y8308D02*
G01X1934Y9547D01*
G01X1934Y12952D02*
G01X1934Y14843D01*
G01X1732Y156D02*
G01X1732Y2055D01*
G01X1732Y5444D02*
G01X1732Y9555D01*
G01X1732Y12944D02*
G01X1732Y14843D01*
G01X1530Y156D02*
G01X1530Y2120D01*
G01X1530Y5379D02*
G01X1530Y9620D01*
G01X1530Y12879D02*
G01X1530Y14843D01*
G01X1328Y156D02*
G01X1328Y2270D01*
G01X1328Y3229D02*
G01X1328Y3478D01*
G01X1328Y4021D02*
G01X1328Y4270D01*
G01X1328Y5229D02*
G01X1328Y9770D01*
G01X1328Y10729D02*
G01X1328Y10978D01*
G01X1328Y11521D02*
G01X1328Y11770D01*
G01X1328Y12729D02*
G01X1328Y14843D01*
G01X1126Y156D02*
G01X1126Y14843D01*
G01X924Y156D02*
G01X924Y14843D01*
G01X722Y156D02*
G01X722Y3007D01*
G01X722Y4492D02*
G01X722Y10507D01*
G01X722Y11992D02*
G01X722Y14843D01*
G01X520Y156D02*
G01X520Y3007D01*
G01X520Y4492D02*
G01X520Y10507D01*
G01X520Y11992D02*
G01X520Y14843D01*
G01X318Y194D02*
G01X318Y3007D01*
G01X318Y4492D02*
G01X318Y10507D01*
G01X318Y11992D02*
G01X318Y14805D01*

%LPD*%
G36*
G01X7931Y1991D02*
G01X7502Y1991D01*
G01X7502Y1938D01*
G01X7655Y1938D01*
G01X7623Y1900D01*
G01X7613Y1853D01*
G01X7613Y1838D01*
G01X7616Y1825D01*
G01X7619Y1811D01*
G01X7625Y1798D01*
G01X7631Y1786D01*
G01X7638Y1775D01*
G01X7647Y1765D01*
G01X7657Y1756D01*
G01X7668Y1748D01*
G01X7680Y1741D01*
G01X7693Y1735D01*
G01X7708Y1730D01*
G01X7722Y1726D01*
G01X7738Y1723D01*
G01X7754Y1721D01*
G01X7771Y1721D01*
G01X7842Y1730D01*
G01X7895Y1760D01*
G01X7927Y1803D01*
G01X7938Y1855D01*
G01X7926Y1904D01*
G01X7892Y1942D01*
G01X7931Y1942D01*
G01X7931Y1991D01*
G37*

%LPC*%
G36*
G01X7799Y1941D02*
G01X7773Y1942D01*
G01X7746Y1940D01*
G01X7723Y1936D01*
G01X7703Y1928D01*
G01X7686Y1917D01*
G01X7672Y1903D01*
G01X7663Y1889D01*
G01X7657Y1873D01*
G01X7656Y1857D01*
G01X7657Y1840D01*
G01X7663Y1825D01*
G01X7672Y1811D01*
G01X7685Y1799D01*
G01X7701Y1788D01*
G01X7722Y1781D01*
G01X7746Y1776D01*
G01X7775Y1775D01*
G01X7803Y1776D01*
G01X7827Y1781D01*
G01X7848Y1789D01*
G01X7865Y1800D01*
G01X7878Y1813D01*
G01X7887Y1827D01*
G01X7893Y1843D01*
G01X7895Y1860D01*
G01X7892Y1880D01*
G01X7884Y1898D01*
G01X7871Y1913D01*
G01X7854Y1927D01*
G01X7839Y1933D01*
G01X7821Y1938D01*
G01X7799Y1941D01*
G37*

%LPD*%
G36*
G01X7828Y2325D02*
G01X7620Y2325D01*
G01X7620Y2272D01*
G01X7793Y2272D01*
G01X7811Y2271D01*
G01X7827Y2271D01*
G01X7839Y2270D01*
G01X7848Y2269D01*
G01X7866Y2261D01*
G01X7874Y2255D01*
G01X7881Y2248D01*
G01X7886Y2239D01*
G01X7890Y2230D01*
G01X7892Y2219D01*
G01X7893Y2208D01*
G01X7892Y2196D01*
G01X7890Y2185D01*
G01X7886Y2174D01*
G01X7881Y2164D01*
G01X7874Y2154D01*
G01X7866Y2146D01*
G01X7857Y2139D01*
G01X7848Y2134D01*
G01X7836Y2130D01*
G01X7822Y2128D01*
G01X7805Y2126D01*
G01X7620Y2126D01*
G01X7620Y2073D01*
G01X7931Y2073D01*
G01X7931Y2120D01*
G01X7886Y2120D01*
G01X7925Y2163D01*
G01X7938Y2219D01*
G01X7937Y2232D01*
G01X7935Y2245D01*
G01X7932Y2257D01*
G01X7928Y2270D01*
G01X7922Y2281D01*
G01X7915Y2291D01*
G01X7908Y2299D01*
G01X7901Y2306D01*
G01X7892Y2311D01*
G01X7883Y2315D01*
G01X7873Y2319D01*
G01X7862Y2322D01*
G01X7853Y2323D01*
G01X7842Y2324D01*
G01X7828Y2325D01*
G37*

%LPD*%
G36*
G01X7931Y2459D02*
G01X7502Y2459D01*
G01X7502Y2406D01*
G01X7931Y2406D01*
G01X7931Y2459D01*
G37*

%LPD*%
G36*
G01X7846Y2763D02*
G01X7777Y2773D01*
G01X7752Y2772D01*
G01X7729Y2769D01*
G01X7708Y2764D01*
G01X7689Y2757D01*
G01X7671Y2747D01*
G01X7655Y2736D01*
G01X7642Y2722D01*
G01X7632Y2706D01*
G01X7623Y2688D01*
G01X7617Y2670D01*
G01X7614Y2651D01*
G01X7613Y2632D01*
G01X7614Y2607D01*
G01X7619Y2586D01*
G01X7627Y2566D01*
G01X7639Y2549D01*
G01X7652Y2534D01*
G01X7669Y2522D01*
G01X7689Y2513D01*
G01X7712Y2507D01*
G01X7719Y2559D01*
G01X7704Y2563D01*
G01X7691Y2569D01*
G01X7680Y2576D01*
G01X7672Y2585D01*
G01X7665Y2594D01*
G01X7660Y2605D01*
G01X7657Y2617D01*
G01X7656Y2630D01*
G01X7657Y2648D01*
G01X7663Y2665D01*
G01X7672Y2680D01*
G01X7685Y2694D01*
G01X7701Y2705D01*
G01X7722Y2713D01*
G01X7746Y2717D01*
G01X7775Y2719D01*
G01X7829Y2713D01*
G01X7867Y2695D01*
G01X7879Y2682D01*
G01X7888Y2667D01*
G01X7893Y2651D01*
G01X7895Y2633D01*
G01X7893Y2617D01*
G01X7890Y2604D01*
G01X7884Y2592D01*
G01X7876Y2581D01*
G01X7865Y2571D01*
G01X7851Y2563D01*
G01X7835Y2558D01*
G01X7817Y2554D01*
G01X7824Y2502D01*
G01X7872Y2517D01*
G01X7908Y2546D01*
G01X7921Y2564D01*
G01X7930Y2585D01*
G01X7936Y2607D01*
G01X7938Y2632D01*
G01X7927Y2690D01*
G01X7897Y2735D01*
G01X7846Y2763D01*
G37*

%LPD*%
G36*
G01X7931Y2909D02*
G01X7871Y2909D01*
G01X7871Y2849D01*
G01X7931Y2849D01*
G01X7931Y2909D01*
G37*

%LPD*%
G36*
G01X7661Y3120D02*
G01X7620Y3120D01*
G01X7620Y3081D01*
G01X7543Y3081D01*
G01X7511Y3029D01*
G01X7620Y3029D01*
G01X7620Y2976D01*
G01X7661Y2976D01*
G01X7661Y3029D01*
G01X7843Y3029D01*
G01X7853Y3028D01*
G01X7861Y3028D01*
G01X7867Y3027D01*
G01X7872Y3026D01*
G01X7878Y3022D01*
G01X7880Y3019D01*
G01X7882Y3017D01*
G01X7883Y3013D01*
G01X7885Y3009D01*
G01X7885Y3004D01*
G01X7886Y2999D01*
G01X7885Y2994D01*
G01X7885Y2988D01*
G01X7884Y2982D01*
G01X7884Y2976D01*
G01X7931Y2968D01*
G01X7932Y2978D01*
G01X7934Y2989D01*
G01X7934Y2998D01*
G01X7935Y3008D01*
G01X7934Y3021D01*
G01X7932Y3033D01*
G01X7929Y3043D01*
G01X7926Y3052D01*
G01X7921Y3059D01*
G01X7909Y3071D01*
G01X7902Y3075D01*
G01X7892Y3077D01*
G01X7879Y3079D01*
G01X7861Y3080D01*
G01X7840Y3081D01*
G01X7661Y3081D01*
G01X7661Y3120D01*
G37*

%LPD*%
G36*
G01X7931Y3424D02*
G01X7620Y3424D01*
G01X7620Y3377D01*
G01X7664Y3377D01*
G01X7625Y3335D01*
G01X7613Y3278D01*
G01X7613Y3264D01*
G01X7615Y3251D01*
G01X7618Y3238D01*
G01X7623Y3226D01*
G01X7628Y3215D01*
G01X7634Y3205D01*
G01X7641Y3197D01*
G01X7650Y3191D01*
G01X7658Y3185D01*
G01X7667Y3181D01*
G01X7677Y3177D01*
G01X7689Y3175D01*
G01X7697Y3173D01*
G01X7708Y3173D01*
G01X7722Y3172D01*
G01X7931Y3172D01*
G01X7931Y3224D01*
G01X7727Y3224D01*
G01X7714Y3225D01*
G01X7703Y3227D01*
G01X7694Y3230D01*
G01X7686Y3234D01*
G01X7679Y3239D01*
G01X7673Y3245D01*
G01X7668Y3252D01*
G01X7664Y3260D01*
G01X7661Y3269D01*
G01X7659Y3278D01*
G01X7659Y3289D01*
G01X7660Y3305D01*
G01X7664Y3320D01*
G01X7670Y3334D01*
G01X7680Y3347D01*
G01X7693Y3358D01*
G01X7711Y3365D01*
G01X7733Y3370D01*
G01X7761Y3372D01*
G01X7931Y3372D01*
G01X7931Y3424D01*
G37*

%LPD*%
G36*
G01X7845Y3766D02*
G01X7778Y3776D01*
G01X7708Y3765D01*
G01X7656Y3735D01*
G01X7623Y3688D01*
G01X7613Y3630D01*
G01X7623Y3573D01*
G01X7656Y3528D01*
G01X7706Y3498D01*
G01X7775Y3489D01*
G01X7789Y3489D01*
G01X7789Y3721D01*
G01X7813Y3718D01*
G01X7834Y3712D01*
G01X7852Y3703D01*
G01X7868Y3692D01*
G01X7879Y3678D01*
G01X7888Y3663D01*
G01X7893Y3645D01*
G01X7895Y3627D01*
G01X7894Y3613D01*
G01X7891Y3600D01*
G01X7886Y3588D01*
G01X7880Y3578D01*
G01X7870Y3568D01*
G01X7859Y3559D01*
G01X7846Y3551D01*
G01X7831Y3545D01*
G01X7838Y3491D01*
G01X7860Y3498D01*
G01X7880Y3509D01*
G01X7897Y3522D01*
G01X7912Y3538D01*
G01X7923Y3556D01*
G01X7931Y3578D01*
G01X7936Y3601D01*
G01X7938Y3627D01*
G01X7927Y3688D01*
G01X7896Y3736D01*
G01X7845Y3766D01*
G37*

%LPC*%
G36*
G01X7746Y3545D02*
G01X7746Y3718D01*
G01X7726Y3715D01*
G01X7709Y3710D01*
G01X7694Y3702D01*
G01X7681Y3691D01*
G01X7670Y3678D01*
G01X7662Y3663D01*
G01X7657Y3647D01*
G01X7656Y3630D01*
G01X7657Y3611D01*
G01X7663Y3593D01*
G01X7673Y3578D01*
G01X7687Y3564D01*
G01X7698Y3557D01*
G01X7711Y3551D01*
G01X7727Y3547D01*
G01X7746Y3545D01*
G37*

%LPD*%
G36*
G01X7846Y4064D02*
G01X7777Y4074D01*
G01X7752Y4073D01*
G01X7729Y4070D01*
G01X7708Y4065D01*
G01X7689Y4058D01*
G01X7671Y4048D01*
G01X7655Y4036D01*
G01X7642Y4023D01*
G01X7632Y4007D01*
G01X7623Y3989D01*
G01X7617Y3971D01*
G01X7614Y3952D01*
G01X7613Y3932D01*
G01X7614Y3908D01*
G01X7619Y3886D01*
G01X7627Y3867D01*
G01X7639Y3850D01*
G01X7652Y3835D01*
G01X7669Y3823D01*
G01X7689Y3814D01*
G01X7712Y3808D01*
G01X7719Y3859D01*
G01X7704Y3863D01*
G01X7691Y3869D01*
G01X7680Y3876D01*
G01X7672Y3885D01*
G01X7665Y3895D01*
G01X7660Y3905D01*
G01X7657Y3917D01*
G01X7656Y3930D01*
G01X7657Y3949D01*
G01X7663Y3966D01*
G01X7672Y3981D01*
G01X7685Y3995D01*
G01X7701Y4006D01*
G01X7722Y4013D01*
G01X7746Y4018D01*
G01X7775Y4020D01*
G01X7829Y4014D01*
G01X7867Y3996D01*
G01X7879Y3983D01*
G01X7888Y3968D01*
G01X7893Y3951D01*
G01X7895Y3933D01*
G01X7893Y3918D01*
G01X7890Y3904D01*
G01X7884Y3892D01*
G01X7876Y3881D01*
G01X7865Y3871D01*
G01X7851Y3864D01*
G01X7835Y3859D01*
G01X7817Y3855D01*
G01X7824Y3803D01*
G01X7872Y3818D01*
G01X7908Y3847D01*
G01X7921Y3865D01*
G01X7930Y3886D01*
G01X7936Y3908D01*
G01X7938Y3933D01*
G01X7927Y3990D01*
G01X7897Y4035D01*
G01X7846Y4064D01*
G37*

%LPD*%
G36*
G01X7931Y4259D02*
G01X7620Y4259D01*
G01X7620Y4211D01*
G01X7667Y4211D01*
G01X7651Y4202D01*
G01X7639Y4194D01*
G01X7630Y4185D01*
G01X7624Y4178D01*
G01X7619Y4169D01*
G01X7615Y4161D01*
G01X7613Y4153D01*
G01X7613Y4144D01*
G01X7614Y4130D01*
G01X7617Y4117D01*
G01X7622Y4103D01*
G01X7630Y4089D01*
G01X7679Y4108D01*
G01X7674Y4117D01*
G01X7670Y4127D01*
G01X7668Y4136D01*
G01X7668Y4154D01*
G01X7670Y4163D01*
G01X7673Y4170D01*
G01X7678Y4177D01*
G01X7683Y4183D01*
G01X7690Y4189D01*
G01X7698Y4193D01*
G01X7707Y4197D01*
G01X7721Y4201D01*
G01X7751Y4205D01*
G01X7768Y4206D01*
G01X7931Y4206D01*
G01X7931Y4259D01*
G37*

%LPD*%
G36*
G01X7845Y4599D02*
G01X7778Y4609D01*
G01X7708Y4599D01*
G01X7656Y4569D01*
G01X7623Y4522D01*
G01X7613Y4464D01*
G01X7623Y4407D01*
G01X7656Y4362D01*
G01X7706Y4332D01*
G01X7775Y4322D01*
G01X7784Y4322D01*
G01X7789Y4323D01*
G01X7789Y4555D01*
G01X7813Y4552D01*
G01X7834Y4546D01*
G01X7852Y4537D01*
G01X7868Y4526D01*
G01X7879Y4512D01*
G01X7888Y4496D01*
G01X7893Y4479D01*
G01X7895Y4461D01*
G01X7894Y4447D01*
G01X7891Y4434D01*
G01X7886Y4422D01*
G01X7880Y4411D01*
G01X7870Y4401D01*
G01X7859Y4393D01*
G01X7846Y4385D01*
G01X7831Y4379D01*
G01X7838Y4324D01*
G01X7860Y4332D01*
G01X7880Y4342D01*
G01X7897Y4355D01*
G01X7912Y4372D01*
G01X7923Y4390D01*
G01X7931Y4411D01*
G01X7936Y4435D01*
G01X7938Y4461D01*
G01X7927Y4522D01*
G01X7896Y4569D01*
G01X7845Y4599D01*
G37*

%LPC*%
G36*
G01X7746Y4378D02*
G01X7746Y4552D01*
G01X7726Y4549D01*
G01X7709Y4543D01*
G01X7694Y4535D01*
G01X7681Y4524D01*
G01X7670Y4511D01*
G01X7662Y4496D01*
G01X7657Y4480D01*
G01X7656Y4463D01*
G01X7657Y4444D01*
G01X7663Y4426D01*
G01X7673Y4411D01*
G01X7687Y4398D01*
G01X7698Y4390D01*
G01X7711Y4385D01*
G01X7727Y4380D01*
G01X7746Y4378D01*
G37*

%LPD*%
G36*
G01X8050Y4925D02*
G01X7620Y4925D01*
G01X7620Y4877D01*
G01X7661Y4877D01*
G01X7649Y4868D01*
G01X7640Y4859D01*
G01X7631Y4849D01*
G01X7625Y4839D01*
G01X7619Y4828D01*
G01X7616Y4815D01*
G01X7613Y4801D01*
G01X7613Y4787D01*
G01X7614Y4767D01*
G01X7618Y4749D01*
G01X7624Y4732D01*
G01X7634Y4717D01*
G01X7645Y4702D01*
G01X7658Y4690D01*
G01X7673Y4679D01*
G01X7691Y4671D01*
G01X7710Y4664D01*
G01X7730Y4659D01*
G01X7751Y4656D01*
G01X7773Y4655D01*
G01X7796Y4656D01*
G01X7818Y4659D01*
G01X7839Y4664D01*
G01X7859Y4672D01*
G01X7877Y4681D01*
G01X7893Y4693D01*
G01X7906Y4706D01*
G01X7918Y4722D01*
G01X7926Y4738D01*
G01X7933Y4755D01*
G01X7936Y4773D01*
G01X7938Y4791D01*
G01X7937Y4803D01*
G01X7935Y4815D01*
G01X7931Y4827D01*
G01X7927Y4838D01*
G01X7921Y4848D01*
G01X7914Y4857D01*
G01X7907Y4865D01*
G01X7899Y4873D01*
G01X8050Y4873D01*
G01X8050Y4925D01*
G37*

%LPC*%
G36*
G01X7805Y4876D02*
G01X7777Y4878D01*
G01X7724Y4871D01*
G01X7686Y4852D01*
G01X7672Y4838D01*
G01X7662Y4824D01*
G01X7656Y4808D01*
G01X7654Y4792D01*
G01X7655Y4775D01*
G01X7661Y4760D01*
G01X7670Y4746D01*
G01X7684Y4734D01*
G01X7700Y4723D01*
G01X7721Y4715D01*
G01X7745Y4710D01*
G01X7773Y4709D01*
G01X7827Y4715D01*
G01X7865Y4734D01*
G01X7878Y4747D01*
G01X7887Y4761D01*
G01X7893Y4777D01*
G01X7895Y4794D01*
G01X7893Y4811D01*
G01X7887Y4826D01*
G01X7878Y4840D01*
G01X7866Y4853D01*
G01X7849Y4864D01*
G01X7829Y4871D01*
G01X7805Y4876D01*
G37*

%LPD*%
G36*
G01X7775Y5271D02*
G01X7719Y5274D01*
G01X7650Y5270D01*
G01X7597Y5258D01*
G01X7574Y5249D01*
G01X7555Y5238D01*
G01X7538Y5225D01*
G01X7525Y5211D01*
G01X7514Y5194D01*
G01X7506Y5176D01*
G01X7501Y5156D01*
G01X7500Y5134D01*
G01X7500Y5117D01*
G01X7503Y5101D01*
G01X7507Y5086D01*
G01X7521Y5060D01*
G01X7531Y5049D01*
G01X7541Y5039D01*
G01X7554Y5030D01*
G01X7567Y5022D01*
G01X7599Y5008D01*
G01X7618Y5003D01*
G01X7662Y4996D01*
G01X7719Y4994D01*
G01X7787Y4998D01*
G01X7841Y5009D01*
G01X7863Y5018D01*
G01X7882Y5028D01*
G01X7899Y5041D01*
G01X7913Y5056D01*
G01X7924Y5072D01*
G01X7932Y5090D01*
G01X7937Y5111D01*
G01X7939Y5134D01*
G01X7927Y5189D01*
G01X7894Y5231D01*
G01X7862Y5250D01*
G01X7823Y5263D01*
G01X7775Y5271D01*
G37*

%LPC*%
G36*
G01X7807Y5213D02*
G01X7719Y5219D01*
G01X7670Y5217D01*
G01X7630Y5212D01*
G01X7598Y5203D01*
G01X7574Y5192D01*
G01X7560Y5180D01*
G01X7551Y5167D01*
G01X7545Y5151D01*
G01X7544Y5134D01*
G01X7546Y5116D01*
G01X7552Y5100D01*
G01X7563Y5086D01*
G01X7579Y5073D01*
G01X7631Y5054D01*
G01X7719Y5048D01*
G01X7807Y5054D01*
G01X7860Y5073D01*
G01X7875Y5086D01*
G01X7886Y5100D01*
G01X7892Y5116D01*
G01X7895Y5134D01*
G01X7892Y5151D01*
G01X7886Y5167D01*
G01X7875Y5182D01*
G01X7860Y5195D01*
G01X7807Y5213D01*
G37*

%LPD*%
G36*
G01X7828Y5625D02*
G01X7780Y5625D01*
G01X7502Y5429D01*
G01X7502Y5386D01*
G01X7780Y5386D01*
G01X7780Y5328D01*
G01X7828Y5328D01*
G01X7828Y5386D01*
G01X7931Y5386D01*
G01X7931Y5438D01*
G01X7828Y5438D01*
G01X7828Y5625D01*
G37*

%LPC*%
G36*
G01X7780Y5438D02*
G01X7780Y5573D01*
G01X7586Y5438D01*
G01X7780Y5438D01*
G37*

%LPD*%
G75*
G01X13333Y12931D02*
G03X13158Y12953I-175J-681D01*
G01*
G75*
G01X12953Y13157D02*
G03X12931Y13333I-703J0D01*
G01*
G75*
G01X5833Y12931D02*
G03X5658Y12953I-175J-681D01*
G01*
G75*
G01X5453Y13157D02*
G03X5431Y13333I-703J0D01*
G01*
G75*
G01X14479Y13223D02*
G03X14007Y12812I0J-477D01*
G01*
G75*
G01X14007Y12812D02*
G03X13970Y12863I-180J-91D01*
G01*
G75*
G01X12095Y14738D02*
G03X11992Y14793I-143J-142D01*
G01*
G75*
G01X14531Y14843D02*
G02X14844Y14531I0J-312D01*
G01*
G75*
G01X14844Y13053D02*
G03X14479Y13223I-365J-307D01*
G01*
G75*
G01X11548Y12843D02*
G03X11641Y12492I702J0D01*
G01*
G75*
G01X11370Y12763D02*
G03X11548Y12846I-120J487D01*
G01*
G75*
G01X3870Y12763D02*
G03X4048Y12846I-120J487D01*
G01*
G75*
G01X4048Y12843D02*
G03X4141Y12492I702J0D01*
G01*
G75*
G01X12148Y12147D02*
G03X12234Y11899I695J103D01*
G01*
G75*
G01X11900Y12234D02*
G03X12148Y12147I350J609D01*
G01*
G75*
G01X4400Y12234D02*
G03X4648Y12147I350J609D01*
G01*
G75*
G01X4648Y12147D02*
G03X4734Y11899I695J103D01*
G01*
G75*
G01X13626Y11582D02*
G03X13539Y11660I-376J-332D01*
G01*
G75*
G01X13539Y11660D02*
G03X13626Y11726I-381J590D01*
G01*
G75*
G01X6165Y11532D02*
G03X6039Y11660I-415J-282D01*
G01*
G75*
G01X6039Y11660D02*
G03X6165Y11763I-381J590D01*
G01*
G75*
G01X12492Y11641D02*
G03X12843Y11547I351J609D01*
G01*
G75*
G01X12846Y11547D02*
G03X12763Y11370I404J-297D01*
G01*
G75*
G01X4992Y11641D02*
G03X5343Y11547I351J609D01*
G01*
G75*
G01X5346Y11547D02*
G03X5263Y11370I404J-297D01*
G01*
G75*
G01X13626Y10774D02*
G03X13539Y10840I-468J-524D01*
G01*
G75*
G01X13539Y10840D02*
G03X13626Y10918I-289J410D01*
G01*
G75*
G01X6165Y10737D02*
G03X6039Y10840I-507J-487D01*
G01*
G75*
G01X6039Y10840D02*
G03X6165Y10968I-289J410D01*
G01*
G75*
G01X14844Y10264D02*
G03X14804Y10270I-40J-146D01*
G01*
G75*
G01X14739Y10405D02*
G03X14795Y10508I-142J143D01*
G01*
G75*
G01X14029Y12589D02*
G03X14479Y12270I450J157D01*
G01*
G75*
G01X14479Y12270D02*
G03X14844Y12440I0J476D01*
G01*
G75*
G01X14233Y11992D02*
G03X14081Y11841I0J-151D01*
G01*
G75*
G01X14081Y10659D02*
G03X14233Y10508I152J0D01*
G01*
G75*
G01X14292Y10508D02*
G03X14277Y10430I186J-78D01*
G01*
G75*
G01X14154Y10270D02*
G03X14029Y10204I0J-152D01*
G01*
G75*
G01X11548Y9654D02*
G03X11250Y9751I-298J-404D01*
G01*
G75*
G01X11250Y9751D02*
G03X10953Y9654I0J-501D01*
G01*
G75*
G01X10953Y9657D02*
G03X10353Y10353I-703J0D01*
G01*
G75*
G01X10353Y10353D02*
G03X9658Y10953I-695J-103D01*
G01*
G75*
G01X9654Y10953D02*
G03X9752Y11250I-404J297D01*
G01*
G75*
G01X9752Y11250D02*
G03X9654Y11547I-502J0D01*
G01*
G75*
G01X9658Y11547D02*
G03X10353Y12147I0J703D01*
G01*
G75*
G01X10353Y12147D02*
G03X10923Y12640I-103J696D01*
G01*
G75*
G01X11369Y12194D02*
G03X11250Y12201I-119J-944D01*
G01*
G75*
G01X11250Y12201D02*
G03X10299Y11250I0J-951D01*
G01*
G75*
G01X10299Y11250D02*
G03X11250Y10299I951J0D01*
G01*
G75*
G01X11250Y10299D02*
G03X12202Y11250I0J951D01*
G01*
G75*
G01X12202Y11250D02*
G03X12194Y11369I-952J0D01*
G01*
G75*
G01X12588Y10905D02*
G03X12148Y10353I255J-655D01*
G01*
G75*
G01X12148Y10353D02*
G03X11548Y9657I102J-696D01*
G01*
G75*
G01X4048Y9654D02*
G03X3750Y9751I-298J-404D01*
G01*
G75*
G01X3750Y9751D02*
G03X3453Y9654I0J-501D01*
G01*
G75*
G01X3453Y9657D02*
G03X2853Y10353I-703J0D01*
G01*
G75*
G01X2853Y10353D02*
G03X2158Y10953I-695J-103D01*
G01*
G75*
G01X2154Y10953D02*
G03X2252Y11250I-404J297D01*
G01*
G75*
G01X2252Y11250D02*
G03X2154Y11547I-502J0D01*
G01*
G75*
G01X2158Y11547D02*
G03X2853Y12147I0J703D01*
G01*
G75*
G01X2853Y12147D02*
G03X3423Y12640I-103J696D01*
G01*
G75*
G01X3869Y12194D02*
G03X3750Y12201I-119J-944D01*
G01*
G75*
G01X3750Y12201D02*
G03X2799Y11250I0J-951D01*
G01*
G75*
G01X2799Y11250D02*
G03X3750Y10299I951J0D01*
G01*
G75*
G01X3750Y10299D02*
G03X4702Y11250I0J951D01*
G01*
G75*
G01X4702Y11250D02*
G03X4694Y11369I-952J0D01*
G01*
G75*
G01X5088Y10905D02*
G03X4648Y10353I255J-655D01*
G01*
G75*
G01X4648Y10353D02*
G03X4048Y9657I102J-696D01*
G01*
G75*
G01X14479Y5723D02*
G03X14033Y5414I0J-477D01*
G01*
G75*
G01X14033Y6502D02*
G03X13974Y6644I-202J0D01*
G01*
G75*
G01X13085Y7534D02*
G03X13235Y7685I-1J151D01*
G01*
G75*
G01X13235Y8335D02*
G03X13085Y8487I-151J0D01*
G01*
G75*
G01X13970Y9372D02*
G03X14008Y9425I-143J142D01*
G01*
G75*
G01X14008Y9425D02*
G03X14154Y9317I146J43D01*
G01*
G75*
G01X14804Y9317D02*
G03X14844Y9322I0J151D01*
G01*
G75*
G01X14844Y5553D02*
G03X14479Y5723I-365J-307D01*
G01*
G75*
G01X11370Y5263D02*
G03X11548Y5346I-120J487D01*
G01*
G75*
G01X11548Y5343D02*
G03X11641Y4992I702J0D01*
G01*
G75*
G01X4048Y5343D02*
G03X4141Y4992I702J0D01*
G01*
G75*
G01X3870Y5263D02*
G03X4048Y5346I-120J487D01*
G01*
G75*
G01X11900Y4734D02*
G03X12148Y4647I350J609D01*
G01*
G75*
G01X12148Y4647D02*
G03X12234Y4399I695J103D01*
G01*
G75*
G01X4648Y4647D02*
G03X4734Y4399I695J103D01*
G01*
G75*
G01X4400Y4734D02*
G03X4648Y4647I350J609D01*
G01*
G75*
G01X13630Y4078D02*
G03X13539Y4160I-380J-328D01*
G01*
G75*
G01X13539Y4160D02*
G03X13630Y4229I-381J590D01*
G01*
G75*
G01X6130Y4078D02*
G03X6039Y4160I-380J-328D01*
G01*
G75*
G01X6039Y4160D02*
G03X6130Y4229I-381J590D01*
G01*
G75*
G01X12492Y4141D02*
G03X12843Y4047I351J609D01*
G01*
G75*
G01X12846Y4047D02*
G03X12763Y3870I404J-297D01*
G01*
G75*
G01X4992Y4141D02*
G03X5343Y4047I351J609D01*
G01*
G75*
G01X5346Y4047D02*
G03X5263Y3870I404J-297D01*
G01*
G75*
G01X13630Y3271D02*
G03X13539Y3340I-472J-521D01*
G01*
G75*
G01X13539Y3340D02*
G03X13630Y3422I-289J410D01*
G01*
G75*
G01X6130Y3271D02*
G03X6039Y3340I-472J-521D01*
G01*
G75*
G01X6039Y3340D02*
G03X6130Y3422I-289J410D01*
G01*
G75*
G01X14844Y2764D02*
G03X14804Y2770I-40J-146D01*
G01*
G75*
G01X14739Y2905D02*
G03X14795Y3008I-142J143D01*
G01*
G75*
G01X14033Y5078D02*
G03X14479Y4770I446J168D01*
G01*
G75*
G01X14479Y4770D02*
G03X14844Y4940I0J476D01*
G01*
G75*
G01X14233Y4492D02*
G03X14081Y4341I0J-151D01*
G01*
G75*
G01X14081Y3159D02*
G03X14233Y3008I152J0D01*
G01*
G75*
G01X14292Y3008D02*
G03X14277Y2930I186J-78D01*
G01*
G75*
G01X14154Y2770D02*
G03X14033Y2710I0J-152D01*
G01*
G75*
G01X6533Y5078D02*
G03X6979Y4770I446J168D01*
G01*
G75*
G01X6979Y4770D02*
G03X7348Y4946I0J476D01*
G01*
G75*
G01X7348Y2763D02*
G03X7304Y2770I-44J-145D01*
G01*
G75*
G01X6654Y2770D02*
G03X6533Y2710I0J-152D01*
G01*
G75*
G01X11548Y2154D02*
G03X11250Y2251I-298J-404D01*
G01*
G75*
G01X11250Y2251D02*
G03X10953Y2154I0J-501D01*
G01*
G75*
G01X10953Y2157D02*
G03X10353Y2853I-703J0D01*
G01*
G75*
G01X10353Y2853D02*
G03X9658Y3453I-695J-103D01*
G01*
G75*
G01X9654Y3453D02*
G03X9752Y3750I-404J297D01*
G01*
G75*
G01X9752Y3750D02*
G03X9654Y4047I-502J0D01*
G01*
G75*
G01X9658Y4047D02*
G03X10353Y4647I0J703D01*
G01*
G75*
G01X10353Y4647D02*
G03X10923Y5140I-103J696D01*
G01*
G75*
G01X11369Y4694D02*
G03X11250Y4701I-119J-944D01*
G01*
G75*
G01X11250Y4701D02*
G03X10299Y3750I0J-951D01*
G01*
G75*
G01X10299Y3750D02*
G03X11250Y2799I951J0D01*
G01*
G75*
G01X11250Y2799D02*
G03X12202Y3750I0J951D01*
G01*
G75*
G01X12202Y3750D02*
G03X12194Y3869I-952J0D01*
G01*
G75*
G01X12588Y3405D02*
G03X12148Y2853I255J-655D01*
G01*
G75*
G01X12148Y2853D02*
G03X11548Y2157I102J-696D01*
G01*
G75*
G01X3453Y2157D02*
G03X2853Y2853I-703J0D01*
G01*
G75*
G01X2853Y2853D02*
G03X2158Y3453I-695J-103D01*
G01*
G75*
G01X2154Y3453D02*
G03X2252Y3750I-404J297D01*
G01*
G75*
G01X2252Y3750D02*
G03X2154Y4047I-502J0D01*
G01*
G75*
G01X2158Y4047D02*
G03X2853Y4647I0J703D01*
G01*
G75*
G01X2853Y4647D02*
G03X3423Y5140I-103J696D01*
G01*
G75*
G01X3869Y4694D02*
G03X3750Y4701I-119J-944D01*
G01*
G75*
G01X3750Y4701D02*
G03X2799Y3750I0J-951D01*
G01*
G75*
G01X2799Y3750D02*
G03X3750Y2799I951J0D01*
G01*
G75*
G01X3750Y2799D02*
G03X4702Y3750I0J951D01*
G01*
G75*
G01X4702Y3750D02*
G03X4694Y3869I-952J0D01*
G01*
G75*
G01X5088Y3405D02*
G03X4648Y2853I255J-655D01*
G01*
G75*
G01X4648Y2853D02*
G03X4048Y2157I102J-696D01*
G01*
G75*
G01X4048Y2154D02*
G03X3750Y2251I-298J-404D01*
G01*
G75*
G01X3750Y2251D02*
G03X3453Y2154I0J-501D01*
G01*
G75*
G01X2626Y157D02*
G03X2783Y510I-320J353D01*
G01*
G75*
G01X2783Y510D02*
G03X2508Y942I-477J0D01*
G01*
G75*
G01X2508Y1183D02*
G03X2750Y1140I242J660D01*
G01*
G75*
G01X2750Y1140D02*
G03X3340Y1461I0J703D01*
G01*
G75*
G01X3340Y1461D02*
G03X3750Y1249I410J289D01*
G01*
G75*
G01X3750Y1249D02*
G03X4160Y1461I0J501D01*
G01*
G75*
G01X4160Y1461D02*
G03X4750Y1140I590J382D01*
G01*
G75*
G01X4750Y1140D02*
G03X5453Y1843I0J703D01*
G01*
G75*
G01X5658Y2047D02*
G03X6130Y2229I0J703D01*
G01*
G75*
G01X5117Y1088D02*
G03X5062Y987I142J-142D01*
G01*
G75*
G01X4934Y987D02*
G03X4782Y835I0J-152D01*
G01*
G75*
G01X4782Y185D02*
G03X4785Y157I152J0D01*
G01*
G75*
G01X4492Y768D02*
G03X4341Y919I-151J0D01*
G01*
G75*
G01X3160Y919D02*
G03X3008Y768I0J-151D01*
G01*
G75*
G01X11992Y768D02*
G03X11841Y919I-151J0D01*
G01*
G75*
G01X10660Y919D02*
G03X10508Y768I0J-151D01*
G01*
G75*
G01X10126Y157D02*
G03X10283Y510I-320J353D01*
G01*
G75*
G01X10283Y510D02*
G03X10008Y942I-477J0D01*
G01*
G75*
G01X10008Y1183D02*
G03X10250Y1140I242J660D01*
G01*
G75*
G01X10250Y1140D02*
G03X10840Y1461I0J703D01*
G01*
G75*
G01X10840Y1461D02*
G03X11250Y1249I410J289D01*
G01*
G75*
G01X11250Y1249D02*
G03X11660Y1461I0J501D01*
G01*
G75*
G01X11660Y1461D02*
G03X12250Y1140I590J382D01*
G01*
G75*
G01X12250Y1140D02*
G03X12953Y1843I0J703D01*
G01*
G75*
G01X13158Y2047D02*
G03X13630Y2229I0J703D01*
G01*
G75*
G01X12617Y1088D02*
G03X12562Y987I142J-142D01*
G01*
G75*
G01X12434Y987D02*
G03X12282Y835I0J-152D01*
G01*
G75*
G01X12282Y185D02*
G03X12285Y157I152J0D01*
G01*
G75*
G01X5733Y157D02*
G03X5735Y185I-149J28D01*
G01*
G75*
G01X5735Y835D02*
G03X5585Y987I-151J0D01*
G01*
G75*
G01X6474Y1876D02*
G03X6509Y1923I-143J142D01*
G01*
G75*
G01X6509Y1923D02*
G03X6654Y1817I145J45D01*
G01*
G75*
G01X7304Y1817D02*
G03X7348Y1824I0J151D01*
G01*
G75*
G01X7348Y1721D02*
G03X7500Y1570I152J0D01*
G01*
G75*
G01X8050Y1570D02*
G03X8202Y1721I0J151D01*
G01*
G75*
G01X8202Y5625D02*
G03X8050Y5777I-152J0D01*
G01*
G75*
G01X7500Y5777D02*
G03X7348Y5625I0J-152D01*
G01*
G75*
G01X7348Y5547D02*
G03X6979Y5723I-369J-301D01*
G01*
G75*
G01X6979Y5723D02*
G03X6533Y5414I0J-477D01*
G01*
G75*
G01X6533Y6502D02*
G03X6474Y6644I-202J0D01*
G01*
G75*
G01X5585Y7534D02*
G03X5735Y7685I-1J151D01*
G01*
G75*
G01X5735Y8335D02*
G03X5585Y8487I-151J0D01*
G01*
G75*
G01X6509Y9411D02*
G03X6512Y9414I-143J142D01*
G01*
G75*
G01X6512Y9414D02*
G03X6654Y9317I142J54D01*
G01*
G75*
G01X7304Y9317D02*
G03X7455Y9468I0J151D01*
G01*
G75*
G01X7455Y10118D02*
G03X7304Y10270I-151J0D01*
G01*
G75*
G01X6654Y10270D02*
G03X6568Y10243I0J-152D01*
G01*
G75*
G01X6568Y12505D02*
G03X6979Y12270I411J241D01*
G01*
G75*
G01X6979Y12270D02*
G03X7455Y12746I0J476D01*
G01*
G75*
G01X7455Y12746D02*
G03X6979Y13223I-476J0D01*
G01*
G75*
G01X6979Y13223D02*
G03X6509Y12825I0J-477D01*
G01*
G75*
G01X4595Y14738D02*
G03X4492Y14793I-143J-142D01*
G01*
G75*
G01X10508Y14232D02*
G03X10660Y14081I152J0D01*
G01*
G75*
G01X11841Y14081D02*
G03X11992Y14232I0J151D01*
G01*
G75*
G01X12425Y13838D02*
G03X12250Y13860I-175J-681D01*
G01*
G75*
G01X12250Y13860D02*
G03X11660Y13539I0J-703D01*
G01*
G75*
G01X11660Y13539D02*
G03X11250Y13751I-410J-289D01*
G01*
G75*
G01X11250Y13751D02*
G03X10840Y13539I0J-501D01*
G01*
G75*
G01X10840Y13539D02*
G03X10250Y13860I-590J-382D01*
G01*
G75*
G01X10250Y13860D02*
G03X9548Y13157I0J-703D01*
G01*
G75*
G01X9343Y12953D02*
G03X8640Y12250I0J-703D01*
G01*
G75*
G01X8640Y12250D02*
G03X8961Y11660I703J0D01*
G01*
G75*
G01X8961Y11660D02*
G03X8749Y11250I289J-410D01*
G01*
G75*
G01X8749Y11250D02*
G03X8961Y10840I501J0D01*
G01*
G75*
G01X8961Y10840D02*
G03X8640Y10250I382J-590D01*
G01*
G75*
G01X8640Y10250D02*
G03X9343Y9547I703J0D01*
G01*
G75*
G01X9548Y9343D02*
G03X10049Y8669I702J0D01*
G01*
G75*
G01X9969Y8458D02*
G03X9806Y8486I-163J-448D01*
G01*
G75*
G01X9806Y8486D02*
G03X9330Y8010I0J-476D01*
G01*
G75*
G01X9330Y8010D02*
G03X9806Y7534I476J0D01*
G01*
G75*
G01X9806Y7534D02*
G03X10283Y8010I0J476D01*
G01*
G75*
G01X10283Y8010D02*
G03X10254Y8173I-477J0D01*
G01*
G75*
G01X10393Y8312D02*
G03X10452Y8454I-143J142D01*
G01*
G75*
G01X10452Y8669D02*
G03X10840Y8961I-202J674D01*
G01*
G75*
G01X10840Y8961D02*
G03X11250Y8749I410J289D01*
G01*
G75*
G01X11250Y8749D02*
G03X11660Y8961I0J501D01*
G01*
G75*
G01X11660Y8961D02*
G03X12250Y8640I590J382D01*
G01*
G75*
G01X12250Y8640D02*
G03X12953Y9343I0J703D01*
G01*
G75*
G01X13158Y9547D02*
G03X13626Y9726I0J703D01*
G01*
G75*
G01X12617Y8588D02*
G03X12562Y8487I142J-142D01*
G01*
G75*
G01X12434Y8487D02*
G03X12282Y8335I0J-152D01*
G01*
G75*
G01X12282Y7685D02*
G03X12434Y7534I152J0D01*
G01*
G75*
G01X12562Y7534D02*
G03X12617Y7432I197J40D01*
G01*
G75*
G01X13630Y5271D02*
G03X13158Y5453I-472J-521D01*
G01*
G75*
G01X12953Y5657D02*
G03X12250Y6360I-703J0D01*
G01*
G75*
G01X12250Y6360D02*
G03X11660Y6039I0J-703D01*
G01*
G75*
G01X11660Y6039D02*
G03X11250Y6251I-410J-289D01*
G01*
G75*
G01X11250Y6251D02*
G03X10840Y6039I0J-501D01*
G01*
G75*
G01X10840Y6039D02*
G03X10250Y6360I-590J-382D01*
G01*
G75*
G01X10250Y6360D02*
G03X9548Y5657I0J-703D01*
G01*
G75*
G01X9343Y5453D02*
G03X8640Y4750I0J-703D01*
G01*
G75*
G01X8640Y4750D02*
G03X8961Y4160I703J0D01*
G01*
G75*
G01X8961Y4160D02*
G03X8749Y3750I289J-410D01*
G01*
G75*
G01X8749Y3750D02*
G03X8961Y3340I501J0D01*
G01*
G75*
G01X8961Y3340D02*
G03X8640Y2750I382J-590D01*
G01*
G75*
G01X8640Y2750D02*
G03X9343Y2047I703J0D01*
G01*
G75*
G01X9548Y1843D02*
G03X9605Y1564I702J0D01*
G01*
G75*
G01X9605Y1564D02*
G03X9605Y1556I201J-8D01*
G01*
G75*
G01X9605Y942D02*
G03X9330Y510I201J-432D01*
G01*
G75*
G01X9330Y510D02*
G03X9487Y157I476J0D01*
G01*
G75*
G01X13233Y157D02*
G03X13235Y185I-149J28D01*
G01*
G75*
G01X13235Y835D02*
G03X13085Y987I-151J0D01*
G01*
G75*
G01X13974Y1876D02*
G03X14009Y1923I-143J142D01*
G01*
G75*
G01X14009Y1923D02*
G03X14154Y1817I145J45D01*
G01*
G75*
G01X14804Y1817D02*
G03X14844Y1822I0J151D01*
G01*
G75*
G01X14844Y469D02*
G02X14531Y157I-313J0D01*
G01*
G75*
G01X469Y157D02*
G02X156Y469I0J312D01*
G01*
G75*
G01X768Y3008D02*
G03X919Y3159I0J151D01*
G01*
G75*
G01X919Y4341D02*
G03X768Y4492I-151J0D01*
G01*
G75*
G01X768Y10508D02*
G03X919Y10659I0J151D01*
G01*
G75*
G01X919Y11841D02*
G03X768Y11992I-151J0D01*
G01*
G75*
G01X156Y14531D02*
G02X469Y14843I313J0D01*
G01*
G75*
G01X3008Y14232D02*
G03X3160Y14081I152J0D01*
G01*
G75*
G01X4341Y14081D02*
G03X4492Y14232I0J151D01*
G01*
G75*
G01X4925Y13838D02*
G03X4750Y13860I-175J-681D01*
G01*
G75*
G01X4750Y13860D02*
G03X4160Y13539I0J-703D01*
G01*
G75*
G01X4160Y13539D02*
G03X3750Y13751I-410J-289D01*
G01*
G75*
G01X3750Y13751D02*
G03X3340Y13539I0J-501D01*
G01*
G75*
G01X3340Y13539D02*
G03X2750Y13860I-590J-382D01*
G01*
G75*
G01X2750Y13860D02*
G03X2048Y13157I0J-703D01*
G01*
G75*
G01X1843Y12953D02*
G03X1140Y12250I0J-703D01*
G01*
G75*
G01X1140Y12250D02*
G03X1461Y11660I703J0D01*
G01*
G75*
G01X1461Y11660D02*
G03X1249Y11250I289J-410D01*
G01*
G75*
G01X1249Y11250D02*
G03X1461Y10840I501J0D01*
G01*
G75*
G01X1461Y10840D02*
G03X1140Y10250I382J-590D01*
G01*
G75*
G01X1140Y10250D02*
G03X1843Y9547I703J0D01*
G01*
G75*
G01X2048Y9343D02*
G03X2549Y8669I702J0D01*
G01*
G75*
G01X2469Y8458D02*
G03X2306Y8486I-163J-448D01*
G01*
G75*
G01X2306Y8486D02*
G03X1830Y8010I0J-476D01*
G01*
G75*
G01X1830Y8010D02*
G03X2306Y7534I476J0D01*
G01*
G75*
G01X2306Y7534D02*
G03X2783Y8010I0J476D01*
G01*
G75*
G01X2783Y8010D02*
G03X2754Y8173I-477J0D01*
G01*
G75*
G01X2893Y8312D02*
G03X2952Y8454I-143J142D01*
G01*
G75*
G01X2952Y8669D02*
G03X3340Y8961I-202J674D01*
G01*
G75*
G01X3340Y8961D02*
G03X3750Y8749I410J289D01*
G01*
G75*
G01X3750Y8749D02*
G03X4160Y8961I0J501D01*
G01*
G75*
G01X4160Y8961D02*
G03X4750Y8640I590J382D01*
G01*
G75*
G01X4750Y8640D02*
G03X5453Y9343I0J703D01*
G01*
G75*
G01X5658Y9547D02*
G03X6165Y9763I0J703D01*
G01*
G75*
G01X5117Y8588D02*
G03X5062Y8487I142J-142D01*
G01*
G75*
G01X4934Y8487D02*
G03X4782Y8335I0J-152D01*
G01*
G75*
G01X4782Y7685D02*
G03X4934Y7534I152J0D01*
G01*
G75*
G01X5062Y7534D02*
G03X5117Y7432I197J40D01*
G01*
G75*
G01X6130Y5271D02*
G03X5658Y5453I-472J-521D01*
G01*
G75*
G01X5453Y5657D02*
G03X4750Y6360I-703J0D01*
G01*
G75*
G01X4750Y6360D02*
G03X4160Y6039I0J-703D01*
G01*
G75*
G01X4160Y6039D02*
G03X3750Y6251I-410J-289D01*
G01*
G75*
G01X3750Y6251D02*
G03X3340Y6039I0J-501D01*
G01*
G75*
G01X3340Y6039D02*
G03X2750Y6360I-590J-382D01*
G01*
G75*
G01X2750Y6360D02*
G03X2048Y5657I0J-703D01*
G01*
G75*
G01X1843Y5453D02*
G03X1140Y4750I0J-703D01*
G01*
G75*
G01X1140Y4750D02*
G03X1461Y4160I703J0D01*
G01*
G75*
G01X1461Y4160D02*
G03X1249Y3750I289J-410D01*
G01*
G75*
G01X1249Y3750D02*
G03X1461Y3340I501J0D01*
G01*
G75*
G01X1461Y3340D02*
G03X1140Y2750I382J-590D01*
G01*
G75*
G01X1140Y2750D02*
G03X1843Y2047I703J0D01*
G01*
G75*
G01X2048Y1843D02*
G03X2105Y1564I702J0D01*
G01*
G75*
G01X2105Y1564D02*
G03X2105Y1556I201J-8D01*
G01*
G75*
G01X2105Y942D02*
G03X1830Y510I201J-432D01*
G01*
G75*
G01X1830Y510D02*
G03X1987Y157I476J0D01*
G01*
G75*
G01X13333Y12931D02*
G03X13158Y12953I-175J-681D01*
G01*
G75*
G01X12953Y13157D02*
G03X12931Y13333I-703J0D01*
G01*
G75*
G01X5833Y12931D02*
G03X5658Y12953I-175J-681D01*
G01*
G75*
G01X5453Y13157D02*
G03X5431Y13333I-703J0D01*
G01*
G75*
G01X14479Y13223D02*
G03X14007Y12812I0J-477D01*
G01*
G75*
G01X14007Y12812D02*
G03X13970Y12863I-180J-91D01*
G01*
G75*
G01X12095Y14738D02*
G03X11992Y14793I-143J-142D01*
G01*
G75*
G01X14531Y14843D02*
G02X14844Y14531I0J-312D01*
G01*
G75*
G01X14844Y13053D02*
G03X14479Y13223I-365J-307D01*
G01*
G75*
G01X11548Y12843D02*
G03X11641Y12492I702J0D01*
G01*
G75*
G01X11370Y12763D02*
G03X11548Y12846I-120J487D01*
G01*
G75*
G01X3870Y12763D02*
G03X4048Y12846I-120J487D01*
G01*
G75*
G01X4048Y12843D02*
G03X4141Y12492I702J0D01*
G01*
G75*
G01X12148Y12147D02*
G03X12234Y11899I695J103D01*
G01*
G75*
G01X11900Y12234D02*
G03X12148Y12147I350J609D01*
G01*
G75*
G01X4400Y12234D02*
G03X4648Y12147I350J609D01*
G01*
G75*
G01X4648Y12147D02*
G03X4734Y11899I695J103D01*
G01*
G75*
G01X13626Y11582D02*
G03X13539Y11660I-376J-332D01*
G01*
G75*
G01X13539Y11660D02*
G03X13626Y11726I-381J590D01*
G01*
G75*
G01X6165Y11532D02*
G03X6039Y11660I-415J-282D01*
G01*
G75*
G01X6039Y11660D02*
G03X6165Y11763I-381J590D01*
G01*
G75*
G01X12492Y11641D02*
G03X12843Y11547I351J609D01*
G01*
G75*
G01X12846Y11547D02*
G03X12763Y11370I404J-297D01*
G01*
G75*
G01X4992Y11641D02*
G03X5343Y11547I351J609D01*
G01*
G75*
G01X5346Y11547D02*
G03X5263Y11370I404J-297D01*
G01*
G75*
G01X13626Y10774D02*
G03X13539Y10840I-468J-524D01*
G01*
G75*
G01X13539Y10840D02*
G03X13626Y10918I-289J410D01*
G01*
G75*
G01X6165Y10737D02*
G03X6039Y10840I-507J-487D01*
G01*
G75*
G01X6039Y10840D02*
G03X6165Y10968I-289J410D01*
G01*
G75*
G01X14844Y10264D02*
G03X14804Y10270I-40J-146D01*
G01*
G75*
G01X14739Y10405D02*
G03X14795Y10508I-142J143D01*
G01*
G75*
G01X14029Y12589D02*
G03X14479Y12270I450J157D01*
G01*
G75*
G01X14479Y12270D02*
G03X14844Y12440I0J476D01*
G01*
G75*
G01X14233Y11992D02*
G03X14081Y11841I0J-151D01*
G01*
G75*
G01X14081Y10659D02*
G03X14233Y10508I152J0D01*
G01*
G75*
G01X14292Y10508D02*
G03X14277Y10430I186J-78D01*
G01*
G75*
G01X14154Y10270D02*
G03X14029Y10204I0J-152D01*
G01*
G75*
G01X11548Y9654D02*
G03X11250Y9751I-298J-404D01*
G01*
G75*
G01X11250Y9751D02*
G03X10953Y9654I0J-501D01*
G01*
G75*
G01X10953Y9657D02*
G03X10353Y10353I-703J0D01*
G01*
G75*
G01X10353Y10353D02*
G03X9658Y10953I-695J-103D01*
G01*
G75*
G01X9654Y10953D02*
G03X9752Y11250I-404J297D01*
G01*
G75*
G01X9752Y11250D02*
G03X9654Y11547I-502J0D01*
G01*
G75*
G01X9658Y11547D02*
G03X10353Y12147I0J703D01*
G01*
G75*
G01X10353Y12147D02*
G03X10923Y12640I-103J696D01*
G01*
G75*
G01X11369Y12194D02*
G03X11250Y12201I-119J-944D01*
G01*
G75*
G01X11250Y12201D02*
G03X10299Y11250I0J-951D01*
G01*
G75*
G01X10299Y11250D02*
G03X11250Y10299I951J0D01*
G01*
G75*
G01X11250Y10299D02*
G03X12202Y11250I0J951D01*
G01*
G75*
G01X12202Y11250D02*
G03X12194Y11369I-952J0D01*
G01*
G75*
G01X12588Y10905D02*
G03X12148Y10353I255J-655D01*
G01*
G75*
G01X12148Y10353D02*
G03X11548Y9657I102J-696D01*
G01*
G75*
G01X4048Y9654D02*
G03X3750Y9751I-298J-404D01*
G01*
G75*
G01X3750Y9751D02*
G03X3453Y9654I0J-501D01*
G01*
G75*
G01X3453Y9657D02*
G03X2853Y10353I-703J0D01*
G01*
G75*
G01X2853Y10353D02*
G03X2158Y10953I-695J-103D01*
G01*
G75*
G01X2154Y10953D02*
G03X2252Y11250I-404J297D01*
G01*
G75*
G01X2252Y11250D02*
G03X2154Y11547I-502J0D01*
G01*
G75*
G01X2158Y11547D02*
G03X2853Y12147I0J703D01*
G01*
G75*
G01X2853Y12147D02*
G03X3423Y12640I-103J696D01*
G01*
G75*
G01X3869Y12194D02*
G03X3750Y12201I-119J-944D01*
G01*
G75*
G01X3750Y12201D02*
G03X2799Y11250I0J-951D01*
G01*
G75*
G01X2799Y11250D02*
G03X3750Y10299I951J0D01*
G01*
G75*
G01X3750Y10299D02*
G03X4702Y11250I0J951D01*
G01*
G75*
G01X4702Y11250D02*
G03X4694Y11369I-952J0D01*
G01*
G75*
G01X5088Y10905D02*
G03X4648Y10353I255J-655D01*
G01*
G75*
G01X4648Y10353D02*
G03X4048Y9657I102J-696D01*
G01*
G75*
G01X14479Y5723D02*
G03X14033Y5414I0J-477D01*
G01*
G75*
G01X14033Y6502D02*
G03X13974Y6644I-202J0D01*
G01*
G75*
G01X13085Y7534D02*
G03X13235Y7685I-1J151D01*
G01*
G75*
G01X13235Y8335D02*
G03X13085Y8487I-151J0D01*
G01*
G75*
G01X13970Y9372D02*
G03X14008Y9425I-143J142D01*
G01*
G75*
G01X14008Y9425D02*
G03X14154Y9317I146J43D01*
G01*
G75*
G01X14804Y9317D02*
G03X14844Y9322I0J151D01*
G01*
G75*
G01X14844Y5553D02*
G03X14479Y5723I-365J-307D01*
G01*
G75*
G01X11370Y5263D02*
G03X11548Y5346I-120J487D01*
G01*
G75*
G01X11548Y5343D02*
G03X11641Y4992I702J0D01*
G01*
G75*
G01X4048Y5343D02*
G03X4141Y4992I702J0D01*
G01*
G75*
G01X3870Y5263D02*
G03X4048Y5346I-120J487D01*
G01*
G75*
G01X11900Y4734D02*
G03X12148Y4647I350J609D01*
G01*
G75*
G01X12148Y4647D02*
G03X12234Y4399I695J103D01*
G01*
G75*
G01X4648Y4647D02*
G03X4734Y4399I695J103D01*
G01*
G75*
G01X4400Y4734D02*
G03X4648Y4647I350J609D01*
G01*
G75*
G01X13630Y4078D02*
G03X13539Y4160I-380J-328D01*
G01*
G75*
G01X13539Y4160D02*
G03X13630Y4229I-381J590D01*
G01*
G75*
G01X6130Y4078D02*
G03X6039Y4160I-380J-328D01*
G01*
G75*
G01X6039Y4160D02*
G03X6130Y4229I-381J590D01*
G01*
G75*
G01X12492Y4141D02*
G03X12843Y4047I351J609D01*
G01*
G75*
G01X12846Y4047D02*
G03X12763Y3870I404J-297D01*
G01*
G75*
G01X4992Y4141D02*
G03X5343Y4047I351J609D01*
G01*
G75*
G01X5346Y4047D02*
G03X5263Y3870I404J-297D01*
G01*
G75*
G01X13630Y3271D02*
G03X13539Y3340I-472J-521D01*
G01*
G75*
G01X13539Y3340D02*
G03X13630Y3422I-289J410D01*
G01*
G75*
G01X6130Y3271D02*
G03X6039Y3340I-472J-521D01*
G01*
G75*
G01X6039Y3340D02*
G03X6130Y3422I-289J410D01*
G01*
G75*
G01X14844Y2764D02*
G03X14804Y2770I-40J-146D01*
G01*
G75*
G01X14739Y2905D02*
G03X14795Y3008I-142J143D01*
G01*
G75*
G01X14033Y5078D02*
G03X14479Y4770I446J168D01*
G01*
G75*
G01X14479Y4770D02*
G03X14844Y4940I0J476D01*
G01*
G75*
G01X14233Y4492D02*
G03X14081Y4341I0J-151D01*
G01*
G75*
G01X14081Y3159D02*
G03X14233Y3008I152J0D01*
G01*
G75*
G01X14292Y3008D02*
G03X14277Y2930I186J-78D01*
G01*
G75*
G01X14154Y2770D02*
G03X14033Y2710I0J-152D01*
G01*
G75*
G01X6533Y5078D02*
G03X6979Y4770I446J168D01*
G01*
G75*
G01X6979Y4770D02*
G03X7348Y4946I0J476D01*
G01*
G75*
G01X7348Y2763D02*
G03X7304Y2770I-44J-145D01*
G01*
G75*
G01X6654Y2770D02*
G03X6533Y2710I0J-152D01*
G01*
G75*
G01X11548Y2154D02*
G03X11250Y2251I-298J-404D01*
G01*
G75*
G01X11250Y2251D02*
G03X10953Y2154I0J-501D01*
G01*
G75*
G01X10953Y2157D02*
G03X10353Y2853I-703J0D01*
G01*
G75*
G01X10353Y2853D02*
G03X9658Y3453I-695J-103D01*
G01*
G75*
G01X9654Y3453D02*
G03X9752Y3750I-404J297D01*
G01*
G75*
G01X9752Y3750D02*
G03X9654Y4047I-502J0D01*
G01*
G75*
G01X9658Y4047D02*
G03X10353Y4647I0J703D01*
G01*
G75*
G01X10353Y4647D02*
G03X10923Y5140I-103J696D01*
G01*
G75*
G01X11369Y4694D02*
G03X11250Y4701I-119J-944D01*
G01*
G75*
G01X11250Y4701D02*
G03X10299Y3750I0J-951D01*
G01*
G75*
G01X10299Y3750D02*
G03X11250Y2799I951J0D01*
G01*
G75*
G01X11250Y2799D02*
G03X12202Y3750I0J951D01*
G01*
G75*
G01X12202Y3750D02*
G03X12194Y3869I-952J0D01*
G01*
G75*
G01X12588Y3405D02*
G03X12148Y2853I255J-655D01*
G01*
G75*
G01X12148Y2853D02*
G03X11548Y2157I102J-696D01*
G01*
G75*
G01X3453Y2157D02*
G03X2853Y2853I-703J0D01*
G01*
G75*
G01X2853Y2853D02*
G03X2158Y3453I-695J-103D01*
G01*
G75*
G01X2154Y3453D02*
G03X2252Y3750I-404J297D01*
G01*
G75*
G01X2252Y3750D02*
G03X2154Y4047I-502J0D01*
G01*
G75*
G01X2158Y4047D02*
G03X2853Y4647I0J703D01*
G01*
G75*
G01X2853Y4647D02*
G03X3423Y5140I-103J696D01*
G01*
G75*
G01X3869Y4694D02*
G03X3750Y4701I-119J-944D01*
G01*
G75*
G01X3750Y4701D02*
G03X2799Y3750I0J-951D01*
G01*
G75*
G01X2799Y3750D02*
G03X3750Y2799I951J0D01*
G01*
G75*
G01X3750Y2799D02*
G03X4702Y3750I0J951D01*
G01*
G75*
G01X4702Y3750D02*
G03X4694Y3869I-952J0D01*
G01*
G75*
G01X5088Y3405D02*
G03X4648Y2853I255J-655D01*
G01*
G75*
G01X4648Y2853D02*
G03X4048Y2157I102J-696D01*
G01*
G75*
G01X4048Y2154D02*
G03X3750Y2251I-298J-404D01*
G01*
G75*
G01X3750Y2251D02*
G03X3453Y2154I0J-501D01*
G01*
G75*
G01X2626Y157D02*
G03X2783Y510I-320J353D01*
G01*
G75*
G01X2783Y510D02*
G03X2508Y942I-477J0D01*
G01*
G75*
G01X2508Y1183D02*
G03X2750Y1140I242J660D01*
G01*
G75*
G01X2750Y1140D02*
G03X3340Y1461I0J703D01*
G01*
G75*
G01X3340Y1461D02*
G03X3750Y1249I410J289D01*
G01*
G75*
G01X3750Y1249D02*
G03X4160Y1461I0J501D01*
G01*
G75*
G01X4160Y1461D02*
G03X4750Y1140I590J382D01*
G01*
G75*
G01X4750Y1140D02*
G03X5453Y1843I0J703D01*
G01*
G75*
G01X5658Y2047D02*
G03X6130Y2229I0J703D01*
G01*
G75*
G01X5117Y1088D02*
G03X5062Y987I142J-142D01*
G01*
G75*
G01X4934Y987D02*
G03X4782Y835I0J-152D01*
G01*
G75*
G01X4782Y185D02*
G03X4785Y157I152J0D01*
G01*
G75*
G01X4492Y768D02*
G03X4341Y919I-151J0D01*
G01*
G75*
G01X3160Y919D02*
G03X3008Y768I0J-151D01*
G01*
G75*
G01X11992Y768D02*
G03X11841Y919I-151J0D01*
G01*
G75*
G01X10660Y919D02*
G03X10508Y768I0J-151D01*
G01*
G75*
G01X10126Y157D02*
G03X10283Y510I-320J353D01*
G01*
G75*
G01X10283Y510D02*
G03X10008Y942I-477J0D01*
G01*
G75*
G01X10008Y1183D02*
G03X10250Y1140I242J660D01*
G01*
G75*
G01X10250Y1140D02*
G03X10840Y1461I0J703D01*
G01*
G75*
G01X10840Y1461D02*
G03X11250Y1249I410J289D01*
G01*
G75*
G01X11250Y1249D02*
G03X11660Y1461I0J501D01*
G01*
G75*
G01X11660Y1461D02*
G03X12250Y1140I590J382D01*
G01*
G75*
G01X12250Y1140D02*
G03X12953Y1843I0J703D01*
G01*
G75*
G01X13158Y2047D02*
G03X13630Y2229I0J703D01*
G01*
G75*
G01X12617Y1088D02*
G03X12562Y987I142J-142D01*
G01*
G75*
G01X12434Y987D02*
G03X12282Y835I0J-152D01*
G01*
G75*
G01X12282Y185D02*
G03X12285Y157I152J0D01*
G01*
G75*
G01X5733Y157D02*
G03X5735Y185I-149J28D01*
G01*
G75*
G01X5735Y835D02*
G03X5585Y987I-151J0D01*
G01*
G75*
G01X6474Y1876D02*
G03X6509Y1923I-143J142D01*
G01*
G75*
G01X6509Y1923D02*
G03X6654Y1817I145J45D01*
G01*
G75*
G01X7304Y1817D02*
G03X7348Y1824I0J151D01*
G01*
G75*
G01X7348Y1721D02*
G03X7500Y1570I152J0D01*
G01*
G75*
G01X8050Y1570D02*
G03X8202Y1721I0J151D01*
G01*
G75*
G01X8202Y5625D02*
G03X8050Y5777I-152J0D01*
G01*
G75*
G01X7500Y5777D02*
G03X7348Y5625I0J-152D01*
G01*
G75*
G01X7348Y5547D02*
G03X6979Y5723I-369J-301D01*
G01*
G75*
G01X6979Y5723D02*
G03X6533Y5414I0J-477D01*
G01*
G75*
G01X6533Y6502D02*
G03X6474Y6644I-202J0D01*
G01*
G75*
G01X5585Y7534D02*
G03X5735Y7685I-1J151D01*
G01*
G75*
G01X5735Y8335D02*
G03X5585Y8487I-151J0D01*
G01*
G75*
G01X6509Y9411D02*
G03X6512Y9414I-143J142D01*
G01*
G75*
G01X6512Y9414D02*
G03X6654Y9317I142J54D01*
G01*
G75*
G01X7304Y9317D02*
G03X7455Y9468I0J151D01*
G01*
G75*
G01X7455Y10118D02*
G03X7304Y10270I-151J0D01*
G01*
G75*
G01X6654Y10270D02*
G03X6568Y10243I0J-152D01*
G01*
G75*
G01X6568Y12505D02*
G03X6979Y12270I411J241D01*
G01*
G75*
G01X6979Y12270D02*
G03X7455Y12746I0J476D01*
G01*
G75*
G01X7455Y12746D02*
G03X6979Y13223I-476J0D01*
G01*
G75*
G01X6979Y13223D02*
G03X6509Y12825I0J-477D01*
G01*
G75*
G01X4595Y14738D02*
G03X4492Y14793I-143J-142D01*
G01*
G75*
G01X10508Y14232D02*
G03X10660Y14081I152J0D01*
G01*
G75*
G01X11841Y14081D02*
G03X11992Y14232I0J151D01*
G01*
G75*
G01X12425Y13838D02*
G03X12250Y13860I-175J-681D01*
G01*
G75*
G01X12250Y13860D02*
G03X11660Y13539I0J-703D01*
G01*
G75*
G01X11660Y13539D02*
G03X11250Y13751I-410J-289D01*
G01*
G75*
G01X11250Y13751D02*
G03X10840Y13539I0J-501D01*
G01*
G75*
G01X10840Y13539D02*
G03X10250Y13860I-590J-382D01*
G01*
G75*
G01X10250Y13860D02*
G03X9548Y13157I0J-703D01*
G01*
G75*
G01X9343Y12953D02*
G03X8640Y12250I0J-703D01*
G01*
G75*
G01X8640Y12250D02*
G03X8961Y11660I703J0D01*
G01*
G75*
G01X8961Y11660D02*
G03X8749Y11250I289J-410D01*
G01*
G75*
G01X8749Y11250D02*
G03X8961Y10840I501J0D01*
G01*
G75*
G01X8961Y10840D02*
G03X8640Y10250I382J-590D01*
G01*
G75*
G01X8640Y10250D02*
G03X9343Y9547I703J0D01*
G01*
G75*
G01X9548Y9343D02*
G03X10049Y8669I702J0D01*
G01*
G75*
G01X9969Y8458D02*
G03X9806Y8486I-163J-448D01*
G01*
G75*
G01X9806Y8486D02*
G03X9330Y8010I0J-476D01*
G01*
G75*
G01X9330Y8010D02*
G03X9806Y7534I476J0D01*
G01*
G75*
G01X9806Y7534D02*
G03X10283Y8010I0J476D01*
G01*
G75*
G01X10283Y8010D02*
G03X10254Y8173I-477J0D01*
G01*
G75*
G01X10393Y8312D02*
G03X10452Y8454I-143J142D01*
G01*
G75*
G01X10452Y8669D02*
G03X10840Y8961I-202J674D01*
G01*
G75*
G01X10840Y8961D02*
G03X11250Y8749I410J289D01*
G01*
G75*
G01X11250Y8749D02*
G03X11660Y8961I0J501D01*
G01*
G75*
G01X11660Y8961D02*
G03X12250Y8640I590J382D01*
G01*
G75*
G01X12250Y8640D02*
G03X12953Y9343I0J703D01*
G01*
G75*
G01X13158Y9547D02*
G03X13626Y9726I0J703D01*
G01*
G75*
G01X12617Y8588D02*
G03X12562Y8487I142J-142D01*
G01*
G75*
G01X12434Y8487D02*
G03X12282Y8335I0J-152D01*
G01*
G75*
G01X12282Y7685D02*
G03X12434Y7534I152J0D01*
G01*
G75*
G01X12562Y7534D02*
G03X12617Y7432I197J40D01*
G01*
G75*
G01X13630Y5271D02*
G03X13158Y5453I-472J-521D01*
G01*
G75*
G01X12953Y5657D02*
G03X12250Y6360I-703J0D01*
G01*
G75*
G01X12250Y6360D02*
G03X11660Y6039I0J-703D01*
G01*
G75*
G01X11660Y6039D02*
G03X11250Y6251I-410J-289D01*
G01*
G75*
G01X11250Y6251D02*
G03X10840Y6039I0J-501D01*
G01*
G75*
G01X10840Y6039D02*
G03X10250Y6360I-590J-382D01*
G01*
G75*
G01X10250Y6360D02*
G03X9548Y5657I0J-703D01*
G01*
G75*
G01X9343Y5453D02*
G03X8640Y4750I0J-703D01*
G01*
G75*
G01X8640Y4750D02*
G03X8961Y4160I703J0D01*
G01*
G75*
G01X8961Y4160D02*
G03X8749Y3750I289J-410D01*
G01*
G75*
G01X8749Y3750D02*
G03X8961Y3340I501J0D01*
G01*
G75*
G01X8961Y3340D02*
G03X8640Y2750I382J-590D01*
G01*
G75*
G01X8640Y2750D02*
G03X9343Y2047I703J0D01*
G01*
G75*
G01X9548Y1843D02*
G03X9605Y1564I702J0D01*
G01*
G75*
G01X9605Y1564D02*
G03X9605Y1556I201J-8D01*
G01*
G75*
G01X9605Y942D02*
G03X9330Y510I201J-432D01*
G01*
G75*
G01X9330Y510D02*
G03X9487Y157I476J0D01*
G01*
G75*
G01X13233Y157D02*
G03X13235Y185I-149J28D01*
G01*
G75*
G01X13235Y835D02*
G03X13085Y987I-151J0D01*
G01*
G75*
G01X13974Y1876D02*
G03X14009Y1923I-143J142D01*
G01*
G75*
G01X14009Y1923D02*
G03X14154Y1817I145J45D01*
G01*
G75*
G01X14804Y1817D02*
G03X14844Y1822I0J151D01*
G01*
G75*
G01X14844Y469D02*
G02X14531Y157I-313J0D01*
G01*
G75*
G01X469Y157D02*
G02X156Y469I0J312D01*
G01*
G75*
G01X768Y3008D02*
G03X919Y3159I0J151D01*
G01*
G75*
G01X919Y4341D02*
G03X768Y4492I-151J0D01*
G01*
G75*
G01X768Y10508D02*
G03X919Y10659I0J151D01*
G01*
G75*
G01X919Y11841D02*
G03X768Y11992I-151J0D01*
G01*
G75*
G01X156Y14531D02*
G02X469Y14843I313J0D01*
G01*
G75*
G01X3008Y14232D02*
G03X3160Y14081I152J0D01*
G01*
G75*
G01X4341Y14081D02*
G03X4492Y14232I0J151D01*
G01*
G75*
G01X4925Y13838D02*
G03X4750Y13860I-175J-681D01*
G01*
G75*
G01X4750Y13860D02*
G03X4160Y13539I0J-703D01*
G01*
G75*
G01X4160Y13539D02*
G03X3750Y13751I-410J-289D01*
G01*
G75*
G01X3750Y13751D02*
G03X3340Y13539I0J-501D01*
G01*
G75*
G01X3340Y13539D02*
G03X2750Y13860I-590J-382D01*
G01*
G75*
G01X2750Y13860D02*
G03X2048Y13157I0J-703D01*
G01*
G75*
G01X1843Y12953D02*
G03X1140Y12250I0J-703D01*
G01*
G75*
G01X1140Y12250D02*
G03X1461Y11660I703J0D01*
G01*
G75*
G01X1461Y11660D02*
G03X1249Y11250I289J-410D01*
G01*
G75*
G01X1249Y11250D02*
G03X1461Y10840I501J0D01*
G01*
G75*
G01X1461Y10840D02*
G03X1140Y10250I382J-590D01*
G01*
G75*
G01X1140Y10250D02*
G03X1843Y9547I703J0D01*
G01*
G75*
G01X2048Y9343D02*
G03X2549Y8669I702J0D01*
G01*
G75*
G01X2469Y8458D02*
G03X2306Y8486I-163J-448D01*
G01*
G75*
G01X2306Y8486D02*
G03X1830Y8010I0J-476D01*
G01*
G75*
G01X1830Y8010D02*
G03X2306Y7534I476J0D01*
G01*
G75*
G01X2306Y7534D02*
G03X2783Y8010I0J476D01*
G01*
G75*
G01X2783Y8010D02*
G03X2754Y8173I-477J0D01*
G01*
G75*
G01X2893Y8312D02*
G03X2952Y8454I-143J142D01*
G01*
G75*
G01X2952Y8669D02*
G03X3340Y8961I-202J674D01*
G01*
G75*
G01X3340Y8961D02*
G03X3750Y8749I410J289D01*
G01*
G75*
G01X3750Y8749D02*
G03X4160Y8961I0J501D01*
G01*
G75*
G01X4160Y8961D02*
G03X4750Y8640I590J382D01*
G01*
G75*
G01X4750Y8640D02*
G03X5453Y9343I0J703D01*
G01*
G75*
G01X5658Y9547D02*
G03X6165Y9763I0J703D01*
G01*
G75*
G01X5117Y8588D02*
G03X5062Y8487I142J-142D01*
G01*
G75*
G01X4934Y8487D02*
G03X4782Y8335I0J-152D01*
G01*
G75*
G01X4782Y7685D02*
G03X4934Y7534I152J0D01*
G01*
G75*
G01X5062Y7534D02*
G03X5117Y7432I197J40D01*
G01*
G75*
G01X6130Y5271D02*
G03X5658Y5453I-472J-521D01*
G01*
G75*
G01X5453Y5657D02*
G03X4750Y6360I-703J0D01*
G01*
G75*
G01X4750Y6360D02*
G03X4160Y6039I0J-703D01*
G01*
G75*
G01X4160Y6039D02*
G03X3750Y6251I-410J-289D01*
G01*
G75*
G01X3750Y6251D02*
G03X3340Y6039I0J-501D01*
G01*
G75*
G01X3340Y6039D02*
G03X2750Y6360I-590J-382D01*
G01*
G75*
G01X2750Y6360D02*
G03X2048Y5657I0J-703D01*
G01*
G75*
G01X1843Y5453D02*
G03X1140Y4750I0J-703D01*
G01*
G75*
G01X1140Y4750D02*
G03X1461Y4160I703J0D01*
G01*
G75*
G01X1461Y4160D02*
G03X1249Y3750I289J-410D01*
G01*
G75*
G01X1249Y3750D02*
G03X1461Y3340I501J0D01*
G01*
G75*
G01X1461Y3340D02*
G03X1140Y2750I382J-590D01*
G01*
G75*
G01X1140Y2750D02*
G03X1843Y2047I703J0D01*
G01*
G75*
G01X2048Y1843D02*
G03X2105Y1564I702J0D01*
G01*
G75*
G01X2105Y1564D02*
G03X2105Y1556I201J-8D01*
G01*
G75*
G01X2105Y942D02*
G03X1830Y510I201J-432D01*
G01*
G75*
G01X1830Y510D02*
G03X1987Y157I476J0D01*
G01*
G36*
G01X7303Y9468D02*
G01X6653Y9468D01*
G01X6653Y10118D01*
G01X7303Y10118D01*
G01X7303Y9468D01*
G37*
G54D13*
G01X6978Y12746D03*
G54D12*
G01X5258Y8010D03*
G54D13*
G01X2306Y8009D03*
G54D14*
G01X3750Y14596D03*
G54D15*
G01X403Y11250D03*
G36*
G01X14803Y9468D02*
G01X14153Y9468D01*
G01X14153Y10118D01*
G01X14803Y10118D01*
G01X14803Y9468D01*
G37*
G54D13*
G01X14478Y12746D03*
G54D12*
G01X12758Y8010D03*
G54D13*
G01X9806Y8009D03*
G54D14*
G01X11250Y14596D03*
G54D15*
G01X14596Y11250D03*
G36*
G01X7303Y1968D02*
G01X6653Y1968D01*
G01X6653Y2618D01*
G01X7303Y2618D01*
G01X7303Y1968D01*
G37*
G54D13*
G01X6978Y5246D03*
G54D12*
G01X5258Y510D03*
G54D13*
G01X2306Y509D03*
G54D14*
G01X3750Y403D03*
G54D15*
G01X403Y3750D03*
G36*
G01X14803Y1968D02*
G01X14153Y1968D01*
G01X14153Y2618D01*
G01X14803Y2618D01*
G01X14803Y1968D01*
G37*
G54D13*
G01X14478Y5246D03*
G54D12*
G01X12758Y510D03*
G54D13*
G01X9806Y509D03*
G54D15*
G01X14596Y3750D03*
G54D14*
G01X11250Y403D03*
G54D16*
G01X2750Y13157D02*
G01X2750Y12842D01*
G01X1842Y12250D02*
G01X2157Y12250D01*
G01X4750Y9657D02*
G01X4750Y9342D01*
G01X5342Y10250D02*
G01X5657Y10250D01*
G01X2750Y9657D02*
G01X2750Y9342D01*
G01X1842Y10250D02*
G01X2157Y10250D01*
G01X5342Y12250D02*
G01X5657Y12250D01*
G01X4750Y13157D02*
G01X4750Y12842D01*
G01X10250Y13157D02*
G01X10250Y12842D01*
G01X9342Y12250D02*
G01X9657Y12250D01*
G01X12250Y9657D02*
G01X12250Y9342D01*
G01X12842Y10250D02*
G01X13157Y10250D01*
G01X10250Y9657D02*
G01X10250Y9342D01*
G01X9342Y10250D02*
G01X9657Y10250D01*
G01X12842Y12250D02*
G01X13157Y12250D01*
G01X12250Y13157D02*
G01X12250Y12842D01*
G01X2750Y5657D02*
G01X2750Y5342D01*
G01X1842Y4750D02*
G01X2157Y4750D01*
G01X4750Y2157D02*
G01X4750Y1842D01*
G01X5342Y2750D02*
G01X5657Y2750D01*
G01X2750Y2157D02*
G01X2750Y1842D01*
G01X1842Y2750D02*
G01X2157Y2750D01*
G01X5342Y4750D02*
G01X5657Y4750D01*
G01X4750Y5657D02*
G01X4750Y5342D01*
G01X10250Y5657D02*
G01X10250Y5342D01*
G01X9342Y4750D02*
G01X9657Y4750D01*
G01X12250Y2157D02*
G01X12250Y1842D01*
G01X12842Y2750D02*
G01X13157Y2750D01*
G01X10250Y2157D02*
G01X10250Y1842D01*
G01X9342Y2750D02*
G01X9657Y2750D01*
G01X12842Y4750D02*
G01X13157Y4750D01*
G01X12250Y5657D02*
G01X12250Y5342D01*
M00*
M02*
