G04 Layer: TopLayer*
G04 EasyEDA v6.1.49, Wed, 05 Jun 2019 22:15:46 GMT*
G04 b5b2ecbcf65847559b5efec0ee8f82f3,d502dfb0143049649cf38511bf809cad,10*
G04 Gerber Generator version 0.2*
G04 Scale: 100 percent, Rotated: No, Reflected: No *
G04 Dimensions in inches *
G04 leading zeros omitted , absolute positions ,2 integer and 4 decimal *
%FSLAX24Y24*%
%MOIN*%
G90*
G70D02*

%ADD10C,0.010000*%
%ADD12R,0.065000X0.065000*%
%ADD13C,0.065000*%
%ADD14R,0.118110X0.072835*%
%ADD15R,0.072835X0.118110*%
%ADD16C,0.110236*%

%LPD*%
G54D10*
G01X6978Y12746D02*
G01X6978Y11728D01*
G01X5500Y10250D01*
G01X4750Y12625D02*
G01X3777Y12625D01*
G01X2000Y10848D01*
G01X2000Y10250D01*
G01X5500Y12250D02*
G01X5125Y12625D01*
G01X4750Y12625D01*
G01X4750Y13000D02*
G01X4750Y12625D01*
G01X6978Y9792D02*
G01X6542Y9792D01*
G01X404Y11250D02*
G01X404Y10548D01*
G01X404Y10548D02*
G01X2310Y8642D01*
G01X5392Y8642D01*
G01X6542Y9792D01*
G01X6978Y9792D02*
G01X7414Y9792D01*
G01X14478Y9792D02*
G01X14042Y9792D01*
G01X14042Y9792D02*
G01X12911Y8661D01*
G01X8546Y8661D01*
G01X7414Y9792D01*
G01X5259Y509D02*
G01X4823Y509D01*
G01X3750Y403D02*
G01X4716Y403D01*
G01X4823Y509D01*
G01X14478Y12746D02*
G01X13973Y12240D01*
G01X13973Y11223D01*
G01X13000Y10250D01*
G01X12250Y12625D02*
G01X11277Y12625D01*
G01X9500Y10848D01*
G01X9500Y10250D01*
G01X13000Y12250D02*
G01X12625Y12625D01*
G01X12250Y12625D01*
G01X12250Y13000D02*
G01X12250Y12625D01*
G01X12759Y509D02*
G01X12323Y509D01*
G01X11250Y403D02*
G01X12216Y403D01*
G01X12323Y509D01*
G01X6978Y5246D02*
G01X6978Y4228D01*
G01X5500Y2750D01*
G01X4750Y5125D02*
G01X3777Y5125D01*
G01X2000Y3348D01*
G01X2000Y2750D01*
G01X5500Y4750D02*
G01X5125Y5125D01*
G01X4750Y5125D01*
G01X4750Y5500D02*
G01X4750Y5125D01*
G01X6978Y2292D02*
G01X6542Y2292D01*
G01X404Y3750D02*
G01X404Y3048D01*
G01X404Y3048D02*
G01X2330Y1121D01*
G01X5371Y1121D01*
G01X6542Y2292D01*
G01X6978Y2292D02*
G01X7414Y2292D01*
G01X14478Y2292D02*
G01X14042Y2292D01*
G01X14042Y2292D02*
G01X12911Y1161D01*
G01X8546Y1161D01*
G01X7414Y2292D01*
G01X14478Y5246D02*
G01X13973Y4740D01*
G01X13973Y3723D01*
G01X13000Y2750D01*
G01X12250Y5125D02*
G01X11277Y5125D01*
G01X9500Y3348D01*
G01X9500Y2750D01*
G01X13000Y4750D02*
G01X12625Y5125D01*
G01X12250Y5125D01*
G01X12250Y5500D02*
G01X12250Y5125D01*
G01X4047Y12826D02*
G01X4018Y12826D01*
G01X4047Y12846D02*
G01X4047Y12842D01*
G01X11547Y12826D02*
G01X11518Y12826D01*
G01X11547Y12846D02*
G01X11547Y12842D01*
G01X11130Y12763D02*
G01X10859Y12491D01*
G01X10952Y12842D02*
G01X10952Y12846D01*
G01X10929Y12661D02*
G01X11028Y12661D01*
G01X11024Y12657D02*
G01X11024Y12802D01*
G01X3630Y12763D02*
G01X3359Y12491D01*
G01X3452Y12842D02*
G01X3452Y12846D01*
G01X3429Y12661D02*
G01X3528Y12661D01*
G01X3550Y12683D02*
G01X3550Y12789D01*
G01X14174Y11980D02*
G01X14174Y12157D01*
G01X14174Y12157D02*
G01X14315Y12298D01*
G01X14843Y12439D02*
G01X14843Y11992D01*
G01X14843Y11992D02*
G01X14232Y11992D01*
G01X14174Y12055D02*
G01X14843Y12055D01*
G01X14274Y12257D02*
G01X14843Y12257D01*
G01X14660Y11992D02*
G01X14660Y12305D01*
G01X14458Y11992D02*
G01X14458Y12270D01*
G01X14256Y11992D02*
G01X14256Y12239D01*
G01X10600Y12233D02*
G01X10266Y11899D01*
G01X10332Y12055D02*
G01X10422Y12055D01*
G01X10418Y12051D02*
G01X10418Y12160D01*
G01X3100Y12233D02*
G01X2766Y11899D01*
G01X2832Y12055D02*
G01X2922Y12055D01*
G01X2944Y12077D02*
G01X2944Y12167D01*
G01X10008Y11641D02*
G01X9737Y11369D01*
G01X9654Y11547D02*
G01X9657Y11547D01*
G01X9710Y11449D02*
G01X9816Y11449D01*
G01X9812Y11445D02*
G01X9812Y11564D01*
G01X2508Y11641D02*
G01X2237Y11369D01*
G01X2154Y11547D02*
G01X2157Y11547D01*
G01X2210Y11449D02*
G01X2316Y11449D01*
G01X2338Y11471D02*
G01X2338Y11571D01*
G01X13771Y11306D02*
G01X13750Y11285D01*
G01X13771Y11908D02*
G01X13771Y11306D01*
G01X13710Y11449D02*
G01X13771Y11449D01*
G01X13551Y11651D02*
G01X13771Y11651D01*
G01X13737Y11853D02*
G01X13771Y11853D01*
G01X13650Y11551D02*
G01X13650Y11749D01*
G01X10952Y9653D02*
G01X10952Y9657D01*
G01X9860Y10922D02*
G01X10306Y11369D01*
G01X11131Y12194D02*
G01X11360Y12423D01*
G01X11360Y12423D02*
G01X11686Y12423D01*
G01X12842Y11547D02*
G01X12846Y11547D01*
G01X12846Y10952D02*
G01X12842Y10952D01*
G01X11547Y9657D02*
G01X11547Y9653D01*
G01X10930Y9833D02*
G01X11569Y9833D01*
G01X10842Y10035D02*
G01X11657Y10035D01*
G01X10647Y10237D02*
G01X11853Y10237D01*
G01X10334Y10439D02*
G01X10752Y10439D01*
G01X11748Y10439D02*
G01X12166Y10439D01*
G01X10241Y10641D02*
G01X10518Y10641D01*
G01X11981Y10641D02*
G01X12259Y10641D01*
G01X10034Y10843D02*
G01X10390Y10843D01*
G01X12110Y10843D02*
G01X12466Y10843D01*
G01X9982Y11045D02*
G01X10321Y11045D01*
G01X12179Y11045D02*
G01X12792Y11045D01*
G01X10184Y11247D02*
G01X10298Y11247D01*
G01X12201Y11247D02*
G01X12748Y11247D01*
G01X12180Y11449D02*
G01X12790Y11449D01*
G01X12113Y11651D02*
G01X12474Y11651D01*
G01X11986Y11853D02*
G01X12262Y11853D01*
G01X11757Y12055D02*
G01X12167Y12055D01*
G01X11194Y12257D02*
G01X11861Y12257D01*
G01X12842Y10952D02*
G01X12842Y10957D01*
G01X12842Y11542D02*
G01X12842Y11547D01*
G01X12640Y10923D02*
G01X12640Y11576D01*
G01X12438Y10824D02*
G01X12438Y11675D01*
G01X12236Y10605D02*
G01X12236Y11894D01*
G01X12034Y10326D02*
G01X12034Y10711D01*
G01X12034Y11788D02*
G01X12034Y12173D01*
G01X11832Y10222D02*
G01X11832Y10497D01*
G01X11832Y12002D02*
G01X11832Y12277D01*
G01X11630Y9989D02*
G01X11630Y10377D01*
G01X11630Y12122D02*
G01X11630Y12423D01*
G01X11428Y9718D02*
G01X11428Y10315D01*
G01X11428Y12184D02*
G01X11428Y12423D01*
G01X11226Y9750D02*
G01X11226Y10298D01*
G01X11226Y12201D02*
G01X11226Y12289D01*
G01X11024Y9697D02*
G01X11024Y10325D01*
G01X10822Y10064D02*
G01X10822Y10399D01*
G01X10620Y10254D02*
G01X10620Y10536D01*
G01X10418Y10339D02*
G01X10418Y10787D01*
G01X10216Y10675D02*
G01X10216Y11279D01*
G01X10014Y10855D02*
G01X10014Y11077D01*
G01X3452Y9653D02*
G01X3452Y9657D01*
G01X2360Y10922D02*
G01X2806Y11369D01*
G01X3631Y12194D02*
G01X3860Y12423D01*
G01X3860Y12423D02*
G01X4186Y12423D01*
G01X5342Y11547D02*
G01X5346Y11547D01*
G01X5346Y10952D02*
G01X5342Y10952D01*
G01X4047Y9657D02*
G01X4047Y9653D01*
G01X3430Y9833D02*
G01X4069Y9833D01*
G01X3342Y10035D02*
G01X4157Y10035D01*
G01X3147Y10237D02*
G01X4353Y10237D01*
G01X2834Y10439D02*
G01X3252Y10439D01*
G01X4248Y10439D02*
G01X4666Y10439D01*
G01X2741Y10641D02*
G01X3018Y10641D01*
G01X4481Y10641D02*
G01X4759Y10641D01*
G01X2534Y10843D02*
G01X2890Y10843D01*
G01X4610Y10843D02*
G01X4966Y10843D01*
G01X2482Y11045D02*
G01X2821Y11045D01*
G01X4679Y11045D02*
G01X5292Y11045D01*
G01X2684Y11247D02*
G01X2798Y11247D01*
G01X4701Y11247D02*
G01X5248Y11247D01*
G01X4680Y11449D02*
G01X5290Y11449D01*
G01X4613Y11651D02*
G01X4974Y11651D01*
G01X4486Y11853D02*
G01X4762Y11853D01*
G01X4257Y12055D02*
G01X4667Y12055D01*
G01X3694Y12257D02*
G01X4361Y12257D01*
G01X5166Y10930D02*
G01X5166Y11569D01*
G01X4964Y10842D02*
G01X4964Y11657D01*
G01X4762Y10646D02*
G01X4762Y11853D01*
G01X4560Y10334D02*
G01X4560Y10751D01*
G01X4560Y11748D02*
G01X4560Y12165D01*
G01X4358Y10240D02*
G01X4358Y10518D01*
G01X4358Y11981D02*
G01X4358Y12259D01*
G01X4156Y10033D02*
G01X4156Y10389D01*
G01X4156Y12110D02*
G01X4156Y12423D01*
G01X3954Y9707D02*
G01X3954Y10320D01*
G01X3954Y12179D02*
G01X3954Y12423D01*
G01X3752Y9751D02*
G01X3752Y10298D01*
G01X3752Y12201D02*
G01X3752Y12315D01*
G01X3550Y9710D02*
G01X3550Y10319D01*
G01X3348Y10025D02*
G01X3348Y10387D01*
G01X3146Y10237D02*
G01X3146Y10514D01*
G01X2944Y10332D02*
G01X2944Y10743D01*
G01X2742Y10639D02*
G01X2742Y11305D01*
G01X2540Y10839D02*
G01X2540Y11103D01*
G01X2069Y9167D02*
G01X1667Y9569D01*
G01X1842Y9547D02*
G01X2047Y9547D01*
G01X2047Y9547D02*
G01X2047Y9342D01*
G01X2009Y9227D02*
G01X2057Y9227D01*
G01X1807Y9429D02*
G01X2047Y9429D01*
G01X1934Y9302D02*
G01X1934Y9547D01*
G01X1732Y9504D02*
G01X1732Y9555D01*
G01X11736Y8863D02*
G01X11569Y8863D01*
G01X11630Y8863D02*
G01X11630Y8923D01*
G01X10930Y8863D02*
G01X10764Y8863D01*
G01X10822Y8863D02*
G01X10822Y8935D01*
G01X13899Y9935D02*
G01X12827Y8863D01*
G01X12827Y8863D02*
G01X12764Y8863D01*
G01X12952Y9342D02*
G01X12952Y9547D01*
G01X12952Y9547D02*
G01X13157Y9547D01*
G01X13714Y10679D02*
G01X14081Y11045D01*
G01X14081Y11045D02*
G01X14081Y10659D01*
G01X14232Y10507D02*
G01X14843Y10507D01*
G01X14843Y10507D02*
G01X14843Y10264D01*
G01X14803Y10269D02*
G01X14153Y10269D01*
G01X14002Y10118D02*
G01X14002Y9990D01*
G01X12877Y9025D02*
G01X12989Y9025D01*
G01X12943Y9227D02*
G01X13191Y9227D01*
G01X12952Y9429D02*
G01X13393Y9429D01*
G01X13490Y9631D02*
G01X13595Y9631D01*
G01X13723Y9833D02*
G01X13797Y9833D01*
G01X13826Y10035D02*
G01X14002Y10035D01*
G01X13860Y10237D02*
G01X14059Y10237D01*
G01X13834Y10439D02*
G01X14843Y10439D01*
G01X13741Y10641D02*
G01X14082Y10641D01*
G01X13878Y10843D02*
G01X14081Y10843D01*
G01X14080Y11045D02*
G01X14081Y11045D01*
G01X14660Y10269D02*
G01X14660Y10507D01*
G01X14458Y10269D02*
G01X14458Y10507D01*
G01X14256Y10269D02*
G01X14256Y10507D01*
G01X14054Y10233D02*
G01X14054Y11019D01*
G01X13852Y9888D02*
G01X13852Y10146D01*
G01X13852Y10353D02*
G01X13852Y10817D01*
G01X13650Y9686D02*
G01X13650Y9749D01*
G01X13448Y9484D02*
G01X13448Y9610D01*
G01X13246Y9282D02*
G01X13246Y9552D01*
G01X13044Y9080D02*
G01X13044Y9547D01*
G01X12842Y8878D02*
G01X12842Y8964D01*
G01X5452Y9342D02*
G01X5452Y9547D01*
G01X5452Y9547D02*
G01X5657Y9547D01*
G01X6214Y10679D02*
G01X7120Y11585D01*
G01X7179Y11728D02*
G01X7179Y12314D01*
G01X6776Y12314D02*
G01X6776Y11811D01*
G01X6776Y11811D02*
G01X6250Y11285D01*
G01X5657Y12952D02*
G01X5452Y12952D01*
G01X5452Y12952D02*
G01X5452Y13157D01*
G01X2047Y13157D02*
G01X2047Y12952D01*
G01X2047Y12952D02*
G01X1842Y12952D01*
G01X1162Y10074D02*
G01X729Y10507D01*
G01X729Y10507D02*
G01X767Y10507D01*
G01X919Y10659D02*
G01X919Y11840D01*
G01X767Y11992D02*
G01X156Y11992D01*
G01X156Y11992D02*
G01X156Y14531D01*
G01X468Y14843D02*
G01X3008Y14843D01*
G01X3008Y14843D02*
G01X3008Y14232D01*
G01X3159Y14080D02*
G01X4340Y14080D01*
G01X4492Y14232D02*
G01X4492Y14843D01*
G01X4492Y14843D02*
G01X10508Y14843D01*
G01X10508Y14843D02*
G01X10508Y14232D01*
G01X10659Y14080D02*
G01X11840Y14080D01*
G01X11992Y14232D02*
G01X11992Y14843D01*
G01X11992Y14843D02*
G01X14531Y14843D01*
G01X14843Y14531D02*
G01X14843Y13052D01*
G01X14030Y12583D02*
G01X13844Y12397D01*
G01X13157Y12952D02*
G01X12952Y12952D01*
G01X12952Y12952D02*
G01X12952Y13157D01*
G01X9547Y13157D02*
G01X9547Y12952D01*
G01X9547Y12952D02*
G01X9342Y12952D01*
G01X9342Y9547D02*
G01X9547Y9547D01*
G01X9547Y9547D02*
G01X9547Y9342D01*
G01X9736Y8863D02*
G01X8629Y8863D01*
G01X8629Y8863D02*
G01X7556Y9935D01*
G01X7455Y9990D02*
G01X7455Y10118D01*
G01X7303Y10269D02*
G01X6653Y10269D01*
G01X6502Y10118D02*
G01X6502Y9990D01*
G01X6399Y9935D02*
G01X5308Y8843D01*
G01X5308Y8843D02*
G01X5244Y8843D01*
G01X5377Y9025D02*
G01X5490Y9025D01*
G01X8467Y9025D02*
G01X9623Y9025D01*
G01X5443Y9227D02*
G01X5692Y9227D01*
G01X8265Y9227D02*
G01X9557Y9227D01*
G01X5452Y9429D02*
G01X5893Y9429D01*
G01X8063Y9429D02*
G01X9547Y9429D01*
G01X5990Y9631D02*
G01X6095Y9631D01*
G01X7861Y9631D02*
G01X9009Y9631D01*
G01X6223Y9833D02*
G01X6297Y9833D01*
G01X7659Y9833D02*
G01X8777Y9833D01*
G01X6326Y10035D02*
G01X6502Y10035D01*
G01X7455Y10035D02*
G01X8673Y10035D01*
G01X999Y10237D02*
G01X1140Y10237D01*
G01X6360Y10237D02*
G01X6559Y10237D01*
G01X7397Y10237D02*
G01X8640Y10237D01*
G01X797Y10439D02*
G01X1166Y10439D01*
G01X6334Y10439D02*
G01X8666Y10439D01*
G01X918Y10641D02*
G01X1259Y10641D01*
G01X6241Y10641D02*
G01X8759Y10641D01*
G01X919Y10843D02*
G01X1456Y10843D01*
G01X6378Y10843D02*
G01X8956Y10843D01*
G01X919Y11045D02*
G01X1292Y11045D01*
G01X6580Y11045D02*
G01X8792Y11045D01*
G01X919Y11247D02*
G01X1248Y11247D01*
G01X6782Y11247D02*
G01X8748Y11247D01*
G01X919Y11449D02*
G01X1290Y11449D01*
G01X6210Y11449D02*
G01X6414Y11449D01*
G01X6984Y11449D02*
G01X8790Y11449D01*
G01X919Y11651D02*
G01X1449Y11651D01*
G01X6051Y11651D02*
G01X6616Y11651D01*
G01X7164Y11651D02*
G01X8949Y11651D01*
G01X918Y11853D02*
G01X1262Y11853D01*
G01X6237Y11853D02*
G01X6776Y11853D01*
G01X7179Y11853D02*
G01X8762Y11853D01*
G01X156Y12055D02*
G01X1167Y12055D01*
G01X6332Y12055D02*
G01X6776Y12055D01*
G01X7179Y12055D02*
G01X8667Y12055D01*
G01X156Y12257D02*
G01X1140Y12257D01*
G01X6360Y12257D02*
G01X6776Y12257D01*
G01X7179Y12257D02*
G01X8640Y12257D01*
G01X156Y12459D02*
G01X1171Y12459D01*
G01X6328Y12459D02*
G01X6598Y12459D01*
G01X7359Y12459D02*
G01X8671Y12459D01*
G01X13828Y12459D02*
G01X13906Y12459D01*
G01X156Y12661D02*
G01X1273Y12661D01*
G01X6227Y12661D02*
G01X6509Y12661D01*
G01X7447Y12661D02*
G01X8773Y12661D01*
G01X13727Y12661D02*
G01X14009Y12661D01*
G01X156Y12863D02*
G01X1499Y12863D01*
G01X6000Y12863D02*
G01X6516Y12863D01*
G01X7440Y12863D02*
G01X8999Y12863D01*
G01X13500Y12863D02*
G01X14016Y12863D01*
G01X156Y13065D02*
G01X2047Y13065D01*
G01X5452Y13065D02*
G01X6624Y13065D01*
G01X7332Y13065D02*
G01X9547Y13065D01*
G01X12952Y13065D02*
G01X14124Y13065D01*
G01X14832Y13065D02*
G01X14843Y13065D01*
G01X156Y13267D02*
G01X2056Y13267D01*
G01X5444Y13267D02*
G01X9556Y13267D01*
G01X12944Y13267D02*
G01X14843Y13267D01*
G01X156Y13469D02*
G01X2120Y13469D01*
G01X5379Y13469D02*
G01X9620Y13469D01*
G01X12879Y13469D02*
G01X14843Y13469D01*
G01X156Y13671D02*
G01X2270Y13671D01*
G01X3229Y13671D02*
G01X3478Y13671D01*
G01X4022Y13671D02*
G01X4270Y13671D01*
G01X5229Y13671D02*
G01X9770Y13671D01*
G01X10729Y13671D02*
G01X10978Y13671D01*
G01X11522Y13671D02*
G01X11770Y13671D01*
G01X12729Y13671D02*
G01X14843Y13671D01*
G01X156Y13873D02*
G01X14843Y13873D01*
G01X156Y14075D02*
G01X14843Y14075D01*
G01X156Y14277D02*
G01X3008Y14277D01*
G01X4492Y14277D02*
G01X10508Y14277D01*
G01X11992Y14277D02*
G01X14843Y14277D01*
G01X156Y14479D02*
G01X3008Y14479D01*
G01X4492Y14479D02*
G01X10508Y14479D01*
G01X11992Y14479D02*
G01X14843Y14479D01*
G01X194Y14681D02*
G01X3008Y14681D01*
G01X4492Y14681D02*
G01X10508Y14681D01*
G01X11992Y14681D02*
G01X14805Y14681D01*
G01X14660Y13186D02*
G01X14660Y14815D01*
G01X14458Y13222D02*
G01X14458Y14843D01*
G01X14256Y13167D02*
G01X14256Y14843D01*
G01X14054Y12963D02*
G01X14054Y14843D01*
G01X13852Y12405D02*
G01X13852Y14843D01*
G01X13650Y12750D02*
G01X13650Y14843D01*
G01X13448Y12889D02*
G01X13448Y14843D01*
G01X13246Y12947D02*
G01X13246Y14843D01*
G01X13044Y12952D02*
G01X13044Y14843D01*
G01X12842Y13535D02*
G01X12842Y14843D01*
G01X12640Y13741D02*
G01X12640Y14843D01*
G01X12438Y13834D02*
G01X12438Y14843D01*
G01X12236Y13860D02*
G01X12236Y14843D01*
G01X12034Y13826D02*
G01X12034Y14843D01*
G01X11832Y13722D02*
G01X11832Y14080D01*
G01X11630Y13576D02*
G01X11630Y14080D01*
G01X11428Y13718D02*
G01X11428Y14080D01*
G01X11226Y13750D02*
G01X11226Y14080D01*
G01X11024Y13697D02*
G01X11024Y14080D01*
G01X10822Y13564D02*
G01X10822Y14080D01*
G01X10620Y13754D02*
G01X10620Y14085D01*
G01X10418Y13839D02*
G01X10418Y14843D01*
G01X10216Y13859D02*
G01X10216Y14843D01*
G01X10014Y13819D02*
G01X10014Y14843D01*
G01X9812Y13707D02*
G01X9812Y14843D01*
G01X9610Y8863D02*
G01X9610Y9051D01*
G01X9610Y13448D02*
G01X9610Y14843D01*
G01X9408Y8863D02*
G01X9408Y9547D01*
G01X9408Y12952D02*
G01X9408Y14843D01*
G01X9206Y8863D02*
G01X9206Y9560D01*
G01X9206Y12939D02*
G01X9206Y14843D01*
G01X9004Y8863D02*
G01X9004Y9633D01*
G01X9004Y12866D02*
G01X9004Y14843D01*
G01X8802Y8863D02*
G01X8802Y9800D01*
G01X8802Y10699D02*
G01X8802Y11023D01*
G01X8802Y11476D02*
G01X8802Y11800D01*
G01X8802Y12699D02*
G01X8802Y14843D01*
G01X8600Y8892D02*
G01X8600Y14843D01*
G01X8398Y9094D02*
G01X8398Y14843D01*
G01X8196Y9296D02*
G01X8196Y14843D01*
G01X7994Y9497D02*
G01X7994Y14843D01*
G01X7792Y9699D02*
G01X7792Y14843D01*
G01X7590Y9901D02*
G01X7590Y14843D01*
G01X7388Y10243D02*
G01X7388Y12503D01*
G01X7388Y12988D02*
G01X7388Y14843D01*
G01X7186Y10269D02*
G01X7186Y12317D01*
G01X7186Y13174D02*
G01X7186Y14843D01*
G01X6984Y10269D02*
G01X6984Y11449D01*
G01X6984Y13222D02*
G01X6984Y14843D01*
G01X6782Y10269D02*
G01X6782Y11247D01*
G01X6782Y13180D02*
G01X6782Y14843D01*
G01X6580Y10251D02*
G01X6580Y11045D01*
G01X6580Y11615D02*
G01X6580Y12483D01*
G01X6580Y13008D02*
G01X6580Y14843D01*
G01X6378Y9914D02*
G01X6378Y10843D01*
G01X6378Y11413D02*
G01X6378Y14843D01*
G01X6176Y9712D02*
G01X6176Y9776D01*
G01X6176Y11513D02*
G01X6176Y11776D01*
G01X6176Y12723D02*
G01X6176Y14843D01*
G01X5974Y9510D02*
G01X5974Y9622D01*
G01X5974Y12877D02*
G01X5974Y14843D01*
G01X5772Y9307D02*
G01X5772Y9556D01*
G01X5772Y12943D02*
G01X5772Y14843D01*
G01X5570Y9105D02*
G01X5570Y9547D01*
G01X5570Y12952D02*
G01X5570Y14843D01*
G01X5368Y8903D02*
G01X5368Y9009D01*
G01X5368Y13490D02*
G01X5368Y14843D01*
G01X5166Y13723D02*
G01X5166Y14843D01*
G01X4964Y13826D02*
G01X4964Y14843D01*
G01X4762Y13860D02*
G01X4762Y14843D01*
G01X4560Y13834D02*
G01X4560Y14843D01*
G01X4358Y13740D02*
G01X4358Y14081D01*
G01X4156Y13543D02*
G01X4156Y14080D01*
G01X3954Y13707D02*
G01X3954Y14080D01*
G01X3752Y13751D02*
G01X3752Y14080D01*
G01X3550Y13710D02*
G01X3550Y14080D01*
G01X3348Y13550D02*
G01X3348Y14080D01*
G01X3146Y13737D02*
G01X3146Y14081D01*
G01X2944Y13832D02*
G01X2944Y14843D01*
G01X2742Y13860D02*
G01X2742Y14843D01*
G01X2540Y13828D02*
G01X2540Y14843D01*
G01X2338Y13727D02*
G01X2338Y14843D01*
G01X2136Y13500D02*
G01X2136Y14843D01*
G01X1934Y12952D02*
G01X1934Y14843D01*
G01X1732Y12944D02*
G01X1732Y14843D01*
G01X1530Y12879D02*
G01X1530Y14843D01*
G01X1328Y10729D02*
G01X1328Y10978D01*
G01X1328Y11521D02*
G01X1328Y11770D01*
G01X1328Y12729D02*
G01X1328Y14843D01*
G01X1126Y10110D02*
G01X1126Y14843D01*
G01X924Y10312D02*
G01X924Y14843D01*
G01X722Y11992D02*
G01X722Y14843D01*
G01X520Y11992D02*
G01X520Y14843D01*
G01X318Y11992D02*
G01X318Y14805D01*
G01X3456Y8843D02*
G01X3244Y8843D01*
G01X3348Y8843D02*
G01X3348Y8949D01*
G01X4255Y8843D02*
G01X4043Y8843D01*
G01X4156Y8843D02*
G01X4156Y8956D01*
G01X2510Y8440D02*
G01X4825Y8440D01*
G01X4782Y8335D02*
G01X4782Y7685D01*
G01X4786Y7651D02*
G01X2620Y7651D01*
G01X2740Y7813D02*
G01X4782Y7813D01*
G01X2782Y8015D02*
G01X4782Y8015D01*
G01X2735Y8217D02*
G01X4782Y8217D01*
G01X2550Y8419D02*
G01X4808Y8419D01*
G01X4762Y7651D02*
G01X4762Y8440D01*
G01X4560Y7651D02*
G01X4560Y8440D01*
G01X4358Y7651D02*
G01X4358Y8440D01*
G01X4156Y7651D02*
G01X4156Y8440D01*
G01X3954Y7651D02*
G01X3954Y8440D01*
G01X3752Y7651D02*
G01X3752Y8440D01*
G01X3550Y7651D02*
G01X3550Y8440D01*
G01X3348Y7651D02*
G01X3348Y8440D01*
G01X3146Y7651D02*
G01X3146Y8440D01*
G01X2944Y7651D02*
G01X2944Y8440D01*
G01X2742Y7651D02*
G01X2742Y7819D01*
G01X2742Y8200D02*
G01X2742Y8440D01*
G01X2540Y8424D02*
G01X2540Y8440D01*
G01X11547Y5326D02*
G01X11518Y5326D01*
G01X11547Y5346D02*
G01X11547Y5342D01*
G01X4047Y5326D02*
G01X4018Y5326D01*
G01X4047Y5346D02*
G01X4047Y5342D01*
G01X11130Y5263D02*
G01X10859Y4991D01*
G01X10952Y5342D02*
G01X10952Y5346D01*
G01X10935Y5187D02*
G01X11054Y5187D01*
G01X11024Y5157D02*
G01X11024Y5302D01*
G01X3630Y5263D02*
G01X3359Y4991D01*
G01X3452Y5342D02*
G01X3452Y5346D01*
G01X3435Y5187D02*
G01X3554Y5187D01*
G01X3550Y5183D02*
G01X3550Y5289D01*
G01X14174Y4480D02*
G01X14174Y4657D01*
G01X14174Y4657D02*
G01X14315Y4798D01*
G01X14843Y4939D02*
G01X14843Y4492D01*
G01X14843Y4492D02*
G01X14232Y4492D01*
G01X14174Y4581D02*
G01X14843Y4581D01*
G01X14300Y4783D02*
G01X14365Y4783D01*
G01X14591Y4783D02*
G01X14843Y4783D01*
G01X14660Y4492D02*
G01X14660Y4805D01*
G01X14458Y4492D02*
G01X14458Y4770D01*
G01X14256Y4492D02*
G01X14256Y4739D01*
G01X10600Y4733D02*
G01X10266Y4399D01*
G01X10339Y4581D02*
G01X10448Y4581D01*
G01X10418Y4551D02*
G01X10418Y4660D01*
G01X3100Y4733D02*
G01X2766Y4399D01*
G01X2839Y4581D02*
G01X2948Y4581D01*
G01X2944Y4577D02*
G01X2944Y4667D01*
G01X10008Y4141D02*
G01X9737Y3869D01*
G01X9654Y4047D02*
G01X9657Y4047D01*
G01X9698Y3975D02*
G01X9842Y3975D01*
G01X9812Y3945D02*
G01X9812Y4064D01*
G01X2508Y4141D02*
G01X2237Y3869D01*
G01X2154Y4047D02*
G01X2157Y4047D01*
G01X2198Y3975D02*
G01X2342Y3975D01*
G01X2338Y3971D02*
G01X2338Y4071D01*
G01X13771Y3806D02*
G01X13750Y3785D01*
G01X13771Y4408D02*
G01X13771Y3806D01*
G01X13698Y3975D02*
G01X13771Y3975D01*
G01X13564Y4177D02*
G01X13771Y4177D01*
G01X13754Y4379D02*
G01X13771Y4379D01*
G01X13650Y4051D02*
G01X13650Y4249D01*
G01X11547Y2157D02*
G01X11547Y2153D01*
G01X10952Y2153D02*
G01X10952Y2157D01*
G01X9860Y3422D02*
G01X10306Y3869D01*
G01X11131Y4694D02*
G01X11360Y4923D01*
G01X11360Y4923D02*
G01X11686Y4923D01*
G01X12842Y4047D02*
G01X12846Y4047D01*
G01X12846Y3452D02*
G01X12842Y3452D01*
G01X10952Y2157D02*
G01X10957Y2157D01*
G01X11542Y2157D02*
G01X11547Y2157D01*
G01X10923Y2359D02*
G01X11577Y2359D01*
G01X10825Y2561D02*
G01X11675Y2561D01*
G01X10606Y2763D02*
G01X11894Y2763D01*
G01X10326Y2965D02*
G01X10712Y2965D01*
G01X11788Y2965D02*
G01X12173Y2965D01*
G01X10223Y3167D02*
G01X10498Y3167D01*
G01X12002Y3167D02*
G01X12277Y3167D01*
G01X9989Y3369D02*
G01X10378Y3369D01*
G01X12122Y3369D02*
G01X12510Y3369D01*
G01X10008Y3571D02*
G01X10315Y3571D01*
G01X12184Y3571D02*
G01X12781Y3571D01*
G01X10210Y3773D02*
G01X10299Y3773D01*
G01X12201Y3773D02*
G01X12749Y3773D01*
G01X12174Y3975D02*
G01X12802Y3975D01*
G01X12100Y4177D02*
G01X12435Y4177D01*
G01X11963Y4379D02*
G01X12245Y4379D01*
G01X11713Y4581D02*
G01X12160Y4581D01*
G01X11220Y4783D02*
G01X11824Y4783D01*
G01X12842Y3452D02*
G01X12842Y3457D01*
G01X12842Y4042D02*
G01X12842Y4047D01*
G01X12640Y3423D02*
G01X12640Y4076D01*
G01X12438Y3324D02*
G01X12438Y4175D01*
G01X12236Y3105D02*
G01X12236Y4394D01*
G01X12034Y2826D02*
G01X12034Y3211D01*
G01X12034Y4288D02*
G01X12034Y4673D01*
G01X11832Y2722D02*
G01X11832Y2997D01*
G01X11832Y4502D02*
G01X11832Y4777D01*
G01X11630Y2489D02*
G01X11630Y2877D01*
G01X11630Y4622D02*
G01X11630Y4923D01*
G01X11428Y2218D02*
G01X11428Y2815D01*
G01X11428Y4684D02*
G01X11428Y4923D01*
G01X11226Y2250D02*
G01X11226Y2798D01*
G01X11226Y4701D02*
G01X11226Y4789D01*
G01X11024Y2197D02*
G01X11024Y2825D01*
G01X10822Y2564D02*
G01X10822Y2899D01*
G01X10620Y2754D02*
G01X10620Y3036D01*
G01X10418Y2839D02*
G01X10418Y3287D01*
G01X10216Y3175D02*
G01X10216Y3779D01*
G01X10014Y3355D02*
G01X10014Y3577D01*
G01X3452Y2153D02*
G01X3452Y2157D01*
G01X2360Y3422D02*
G01X2806Y3869D01*
G01X3631Y4694D02*
G01X3860Y4923D01*
G01X3860Y4923D02*
G01X4186Y4923D01*
G01X5342Y4047D02*
G01X5346Y4047D01*
G01X5346Y3452D02*
G01X5342Y3452D01*
G01X4047Y2157D02*
G01X4047Y2153D01*
G01X3452Y2157D02*
G01X3457Y2157D01*
G01X4042Y2157D02*
G01X4047Y2157D01*
G01X3423Y2359D02*
G01X4077Y2359D01*
G01X3325Y2561D02*
G01X4175Y2561D01*
G01X3106Y2763D02*
G01X4394Y2763D01*
G01X2826Y2965D02*
G01X3212Y2965D01*
G01X4288Y2965D02*
G01X4673Y2965D01*
G01X2723Y3167D02*
G01X2998Y3167D01*
G01X4502Y3167D02*
G01X4777Y3167D01*
G01X2489Y3369D02*
G01X2878Y3369D01*
G01X4622Y3369D02*
G01X5010Y3369D01*
G01X2508Y3571D02*
G01X2815Y3571D01*
G01X4684Y3571D02*
G01X5281Y3571D01*
G01X2710Y3773D02*
G01X2799Y3773D01*
G01X4701Y3773D02*
G01X5249Y3773D01*
G01X4674Y3975D02*
G01X5302Y3975D01*
G01X4600Y4177D02*
G01X4935Y4177D01*
G01X4463Y4379D02*
G01X4745Y4379D01*
G01X4213Y4581D02*
G01X4660Y4581D01*
G01X3720Y4783D02*
G01X4324Y4783D01*
G01X5166Y3430D02*
G01X5166Y4069D01*
G01X4964Y3342D02*
G01X4964Y4157D01*
G01X4762Y3146D02*
G01X4762Y4353D01*
G01X4560Y2834D02*
G01X4560Y3251D01*
G01X4560Y4248D02*
G01X4560Y4665D01*
G01X4358Y2740D02*
G01X4358Y3018D01*
G01X4358Y4481D02*
G01X4358Y4759D01*
G01X4156Y2533D02*
G01X4156Y2889D01*
G01X4156Y4610D02*
G01X4156Y4923D01*
G01X3954Y2207D02*
G01X3954Y2820D01*
G01X3954Y4679D02*
G01X3954Y4923D01*
G01X3752Y2251D02*
G01X3752Y2798D01*
G01X3752Y4701D02*
G01X3752Y4815D01*
G01X3550Y2210D02*
G01X3550Y2819D01*
G01X3348Y2525D02*
G01X3348Y2887D01*
G01X3146Y2737D02*
G01X3146Y3014D01*
G01X2944Y2832D02*
G01X2944Y3243D01*
G01X2742Y3139D02*
G01X2742Y3805D01*
G01X2540Y3339D02*
G01X2540Y3603D01*
G01X2069Y1667D02*
G01X1667Y2069D01*
G01X1842Y2047D02*
G01X2047Y2047D01*
G01X2047Y2047D02*
G01X2047Y1842D01*
G01X1983Y1753D02*
G01X2053Y1753D01*
G01X1781Y1955D02*
G01X2047Y1955D01*
G01X1934Y1802D02*
G01X1934Y2047D01*
G01X1732Y2004D02*
G01X1732Y2055D01*
G01X11736Y1363D02*
G01X11569Y1363D01*
G01X11630Y1363D02*
G01X11630Y1423D01*
G01X10930Y1363D02*
G01X10764Y1363D01*
G01X10822Y1363D02*
G01X10822Y1435D01*
G01X12952Y1842D02*
G01X12952Y2047D01*
G01X12952Y2047D02*
G01X13157Y2047D01*
G01X13714Y3179D02*
G01X14081Y3545D01*
G01X14081Y3545D02*
G01X14081Y3159D01*
G01X14232Y3007D02*
G01X14843Y3007D01*
G01X14843Y3007D02*
G01X14843Y2764D01*
G01X14803Y2769D02*
G01X14153Y2769D01*
G01X14002Y2618D02*
G01X14002Y2490D01*
G01X13899Y2435D02*
G01X12827Y1363D01*
G01X12827Y1363D02*
G01X12764Y1363D01*
G01X12889Y1551D02*
G01X13015Y1551D01*
G01X12947Y1753D02*
G01X13217Y1753D01*
G01X12952Y1955D02*
G01X13419Y1955D01*
G01X13535Y2157D02*
G01X13621Y2157D01*
G01X13741Y2359D02*
G01X13823Y2359D01*
G01X13834Y2561D02*
G01X14002Y2561D01*
G01X13860Y2763D02*
G01X14109Y2763D01*
G01X13826Y2965D02*
G01X14843Y2965D01*
G01X13723Y3167D02*
G01X14081Y3167D01*
G01X13904Y3369D02*
G01X14081Y3369D01*
G01X14660Y2769D02*
G01X14660Y3007D01*
G01X14458Y2769D02*
G01X14458Y3007D01*
G01X14256Y2769D02*
G01X14256Y3007D01*
G01X14054Y2733D02*
G01X14054Y3519D01*
G01X13852Y2388D02*
G01X13852Y2646D01*
G01X13852Y2853D02*
G01X13852Y3317D01*
G01X13650Y2186D02*
G01X13650Y2249D01*
G01X13448Y1984D02*
G01X13448Y2110D01*
G01X13246Y1782D02*
G01X13246Y2052D01*
G01X13044Y1580D02*
G01X13044Y2047D01*
G01X12842Y1378D02*
G01X12842Y1464D01*
G01X5452Y1842D02*
G01X5452Y2047D01*
G01X5452Y2047D02*
G01X5657Y2047D01*
G01X6214Y3179D02*
G01X7120Y4085D01*
G01X7179Y4228D02*
G01X7179Y4814D01*
G01X6776Y4814D02*
G01X6776Y4311D01*
G01X6776Y4311D02*
G01X6250Y3785D01*
G01X5657Y5452D02*
G01X5452Y5452D01*
G01X5452Y5452D02*
G01X5452Y5657D01*
G01X2047Y5657D02*
G01X2047Y5452D01*
G01X2047Y5452D02*
G01X1842Y5452D01*
G01X1162Y2574D02*
G01X729Y3007D01*
G01X729Y3007D02*
G01X767Y3007D01*
G01X919Y3159D02*
G01X919Y4340D01*
G01X767Y4492D02*
G01X156Y4492D01*
G01X156Y4492D02*
G01X156Y10507D01*
G01X156Y10507D02*
G01X206Y10507D01*
G01X261Y10405D02*
G01X2167Y8499D01*
G01X1992Y7651D02*
G01X1875Y7651D01*
G01X1723Y7500D02*
G01X1723Y6950D01*
G01X1875Y6798D02*
G01X5779Y6798D01*
G01X5930Y6950D02*
G01X5930Y7500D01*
G01X5779Y7651D02*
G01X5731Y7651D01*
G01X5735Y7685D02*
G01X5735Y8335D01*
G01X5583Y8486D02*
G01X5520Y8486D01*
G01X5534Y8499D02*
G01X6502Y9467D01*
G01X6653Y9316D02*
G01X7303Y9316D01*
G01X7455Y9467D02*
G01X8403Y8519D01*
G01X8546Y8460D02*
G01X9650Y8460D01*
G01X9961Y8460D02*
G01X12349Y8460D01*
G01X12282Y8335D02*
G01X12282Y7685D01*
G01X12433Y7533D02*
G01X13083Y7533D01*
G01X13235Y7685D02*
G01X13235Y8335D01*
G01X13083Y8486D02*
G01X13010Y8486D01*
G01X13053Y8519D02*
G01X14002Y9467D01*
G01X14153Y9316D02*
G01X14803Y9316D01*
G01X14843Y9322D02*
G01X14843Y5552D01*
G01X14030Y5083D02*
G01X13844Y4897D01*
G01X13157Y5452D02*
G01X12952Y5452D01*
G01X12952Y5452D02*
G01X12952Y5657D01*
G01X9547Y5657D02*
G01X9547Y5452D01*
G01X9547Y5452D02*
G01X9342Y5452D01*
G01X9342Y2047D02*
G01X9547Y2047D01*
G01X9547Y2047D02*
G01X9547Y1842D01*
G01X9736Y1363D02*
G01X8629Y1363D01*
G01X8629Y1363D02*
G01X7556Y2435D01*
G01X7455Y2490D02*
G01X7455Y2618D01*
G01X7303Y2769D02*
G01X6653Y2769D01*
G01X6502Y2618D02*
G01X6502Y2490D01*
G01X6399Y2435D02*
G01X5287Y1323D01*
G01X5287Y1323D02*
G01X5223Y1323D01*
G01X5250Y1349D02*
G01X5313Y1349D01*
G01X5389Y1551D02*
G01X5515Y1551D01*
G01X8441Y1551D02*
G01X9610Y1551D01*
G01X5447Y1753D02*
G01X5717Y1753D01*
G01X8239Y1753D02*
G01X9553Y1753D01*
G01X5452Y1955D02*
G01X5919Y1955D01*
G01X8037Y1955D02*
G01X9547Y1955D01*
G01X6035Y2157D02*
G01X6121Y2157D01*
G01X7835Y2157D02*
G01X8965Y2157D01*
G01X6241Y2359D02*
G01X6323Y2359D01*
G01X7633Y2359D02*
G01X8758Y2359D01*
G01X6334Y2561D02*
G01X6502Y2561D01*
G01X7455Y2561D02*
G01X8665Y2561D01*
G01X973Y2763D02*
G01X1140Y2763D01*
G01X6360Y2763D02*
G01X6609Y2763D01*
G01X7347Y2763D02*
G01X8640Y2763D01*
G01X771Y2965D02*
G01X1173Y2965D01*
G01X6326Y2965D02*
G01X8673Y2965D01*
G01X919Y3167D02*
G01X1277Y3167D01*
G01X6223Y3167D02*
G01X8777Y3167D01*
G01X919Y3369D02*
G01X1423Y3369D01*
G01X6404Y3369D02*
G01X8923Y3369D01*
G01X919Y3571D02*
G01X1281Y3571D01*
G01X6606Y3571D02*
G01X8781Y3571D01*
G01X919Y3773D02*
G01X1249Y3773D01*
G01X6808Y3773D02*
G01X8749Y3773D01*
G01X919Y3975D02*
G01X1302Y3975D01*
G01X6198Y3975D02*
G01X6440Y3975D01*
G01X7010Y3975D02*
G01X8802Y3975D01*
G01X919Y4177D02*
G01X1435Y4177D01*
G01X6064Y4177D02*
G01X6642Y4177D01*
G01X7173Y4177D02*
G01X8935Y4177D01*
G01X914Y4379D02*
G01X1245Y4379D01*
G01X6254Y4379D02*
G01X6776Y4379D01*
G01X7179Y4379D02*
G01X8745Y4379D01*
G01X156Y4581D02*
G01X1160Y4581D01*
G01X6339Y4581D02*
G01X6776Y4581D01*
G01X7179Y4581D02*
G01X8660Y4581D01*
G01X156Y4783D02*
G01X1140Y4783D01*
G01X6359Y4783D02*
G01X6776Y4783D01*
G01X7179Y4783D02*
G01X8640Y4783D01*
G01X156Y4985D02*
G01X1180Y4985D01*
G01X6319Y4985D02*
G01X6579Y4985D01*
G01X7377Y4985D02*
G01X8680Y4985D01*
G01X13819Y4985D02*
G01X13932Y4985D01*
G01X156Y5187D02*
G01X1292Y5187D01*
G01X6207Y5187D02*
G01X6505Y5187D01*
G01X7451Y5187D02*
G01X8792Y5187D01*
G01X13707Y5187D02*
G01X14005Y5187D01*
G01X156Y5389D02*
G01X1551Y5389D01*
G01X5949Y5389D02*
G01X6524Y5389D01*
G01X7433Y5389D02*
G01X9051Y5389D01*
G01X13449Y5389D02*
G01X14024Y5389D01*
G01X156Y5591D02*
G01X2047Y5591D01*
G01X5452Y5591D02*
G01X6650Y5591D01*
G01X7307Y5591D02*
G01X9547Y5591D01*
G01X12952Y5591D02*
G01X14150Y5591D01*
G01X14807Y5591D02*
G01X14843Y5591D01*
G01X156Y5793D02*
G01X2060Y5793D01*
G01X5439Y5793D02*
G01X9560Y5793D01*
G01X12939Y5793D02*
G01X14843Y5793D01*
G01X156Y5995D02*
G01X2134Y5995D01*
G01X5366Y5995D02*
G01X9634Y5995D01*
G01X12866Y5995D02*
G01X14843Y5995D01*
G01X156Y6197D02*
G01X2300Y6197D01*
G01X3200Y6197D02*
G01X3523Y6197D01*
G01X3977Y6197D02*
G01X4300Y6197D01*
G01X5200Y6197D02*
G01X9800Y6197D01*
G01X10700Y6197D02*
G01X11023Y6197D01*
G01X11477Y6197D02*
G01X11800Y6197D01*
G01X12700Y6197D02*
G01X14843Y6197D01*
G01X156Y6399D02*
G01X14843Y6399D01*
G01X156Y6601D02*
G01X14843Y6601D01*
G01X156Y6803D02*
G01X1837Y6803D01*
G01X5816Y6803D02*
G01X14843Y6803D01*
G01X156Y7005D02*
G01X1723Y7005D01*
G01X5930Y7005D02*
G01X14843Y7005D01*
G01X156Y7207D02*
G01X1723Y7207D01*
G01X5930Y7207D02*
G01X14843Y7207D01*
G01X156Y7409D02*
G01X1723Y7409D01*
G01X5930Y7409D02*
G01X14843Y7409D01*
G01X156Y7611D02*
G01X1772Y7611D01*
G01X5882Y7611D02*
G01X9545Y7611D01*
G01X10067Y7611D02*
G01X12301Y7611D01*
G01X13216Y7611D02*
G01X14843Y7611D01*
G01X156Y7813D02*
G01X1872Y7813D01*
G01X5735Y7813D02*
G01X9372Y7813D01*
G01X10240Y7813D02*
G01X12282Y7813D01*
G01X13235Y7813D02*
G01X14843Y7813D01*
G01X156Y8015D02*
G01X1829Y8015D01*
G01X5735Y8015D02*
G01X9329Y8015D01*
G01X10282Y8015D02*
G01X12282Y8015D01*
G01X13235Y8015D02*
G01X14843Y8015D01*
G01X156Y8217D02*
G01X1877Y8217D01*
G01X5735Y8217D02*
G01X9377Y8217D01*
G01X10235Y8217D02*
G01X12282Y8217D01*
G01X13235Y8217D02*
G01X14843Y8217D01*
G01X156Y8419D02*
G01X2062Y8419D01*
G01X5709Y8419D02*
G01X9562Y8419D01*
G01X10050Y8419D02*
G01X12308Y8419D01*
G01X13209Y8419D02*
G01X14843Y8419D01*
G01X156Y8621D02*
G01X2046Y8621D01*
G01X5656Y8621D02*
G01X8301Y8621D01*
G01X13155Y8621D02*
G01X14843Y8621D01*
G01X156Y8823D02*
G01X1844Y8823D01*
G01X5858Y8823D02*
G01X8099Y8823D01*
G01X13357Y8823D02*
G01X14843Y8823D01*
G01X156Y9025D02*
G01X1642Y9025D01*
G01X6060Y9025D02*
G01X7897Y9025D01*
G01X13559Y9025D02*
G01X14843Y9025D01*
G01X156Y9227D02*
G01X1440Y9227D01*
G01X6261Y9227D02*
G01X7695Y9227D01*
G01X13761Y9227D02*
G01X14843Y9227D01*
G01X156Y9429D02*
G01X1238Y9429D01*
G01X6463Y9429D02*
G01X6507Y9429D01*
G01X7449Y9429D02*
G01X7493Y9429D01*
G01X13963Y9429D02*
G01X14007Y9429D01*
G01X156Y9631D02*
G01X1036Y9631D01*
G01X156Y9833D02*
G01X834Y9833D01*
G01X156Y10035D02*
G01X632Y10035D01*
G01X156Y10237D02*
G01X430Y10237D01*
G01X156Y10439D02*
G01X234Y10439D01*
G01X14660Y5686D02*
G01X14660Y9316D01*
G01X14458Y5722D02*
G01X14458Y9316D01*
G01X14256Y5667D02*
G01X14256Y9316D01*
G01X14054Y5463D02*
G01X14054Y9353D01*
G01X13852Y4905D02*
G01X13852Y9318D01*
G01X13650Y5250D02*
G01X13650Y9116D01*
G01X13448Y5389D02*
G01X13448Y8914D01*
G01X13246Y5447D02*
G01X13246Y8712D01*
G01X13044Y5452D02*
G01X13044Y7533D01*
G01X13044Y8486D02*
G01X13044Y8511D01*
G01X12842Y6035D02*
G01X12842Y7533D01*
G01X12640Y6241D02*
G01X12640Y7533D01*
G01X12438Y6334D02*
G01X12438Y7533D01*
G01X12236Y6360D02*
G01X12236Y8460D01*
G01X12034Y6326D02*
G01X12034Y8460D01*
G01X11832Y6222D02*
G01X11832Y8460D01*
G01X11630Y6076D02*
G01X11630Y8460D01*
G01X11428Y6218D02*
G01X11428Y8460D01*
G01X11226Y6250D02*
G01X11226Y8460D01*
G01X11024Y6197D02*
G01X11024Y8460D01*
G01X10822Y6064D02*
G01X10822Y8460D01*
G01X10620Y6254D02*
G01X10620Y8460D01*
G01X10418Y6339D02*
G01X10418Y8460D01*
G01X10216Y6359D02*
G01X10216Y7768D01*
G01X10216Y8251D02*
G01X10216Y8460D01*
G01X10014Y6319D02*
G01X10014Y7581D01*
G01X10014Y8438D02*
G01X10014Y8460D01*
G01X9812Y6207D02*
G01X9812Y7533D01*
G01X9610Y1363D02*
G01X9610Y1551D01*
G01X9610Y5948D02*
G01X9610Y7575D01*
G01X9610Y8444D02*
G01X9610Y8460D01*
G01X9408Y1363D02*
G01X9408Y2047D01*
G01X9408Y5452D02*
G01X9408Y7747D01*
G01X9408Y8272D02*
G01X9408Y8460D01*
G01X9206Y1363D02*
G01X9206Y2060D01*
G01X9206Y5439D02*
G01X9206Y8460D01*
G01X9004Y1363D02*
G01X9004Y2133D01*
G01X9004Y5366D02*
G01X9004Y8460D01*
G01X8802Y1363D02*
G01X8802Y2300D01*
G01X8802Y3199D02*
G01X8802Y3523D01*
G01X8802Y3976D02*
G01X8802Y4300D01*
G01X8802Y5199D02*
G01X8802Y8460D01*
G01X8600Y1392D02*
G01X8600Y8460D01*
G01X8398Y1594D02*
G01X8398Y8524D01*
G01X8196Y1796D02*
G01X8196Y8726D01*
G01X7994Y1997D02*
G01X7994Y8928D01*
G01X7792Y2199D02*
G01X7792Y9129D01*
G01X7590Y2401D02*
G01X7590Y9331D01*
G01X7388Y2743D02*
G01X7388Y5003D01*
G01X7388Y5488D02*
G01X7388Y9342D01*
G01X7186Y2769D02*
G01X7186Y4817D01*
G01X7186Y5674D02*
G01X7186Y9316D01*
G01X6984Y2769D02*
G01X6984Y3949D01*
G01X6984Y5722D02*
G01X6984Y9316D01*
G01X6782Y2769D02*
G01X6782Y3747D01*
G01X6782Y5680D02*
G01X6782Y9316D01*
G01X6580Y2751D02*
G01X6580Y3545D01*
G01X6580Y4115D02*
G01X6580Y4983D01*
G01X6580Y5508D02*
G01X6580Y9335D01*
G01X6378Y2414D02*
G01X6378Y3343D01*
G01X6378Y3913D02*
G01X6378Y9344D01*
G01X6176Y2212D02*
G01X6176Y2276D01*
G01X6176Y4013D02*
G01X6176Y4276D01*
G01X6176Y5223D02*
G01X6176Y9142D01*
G01X5974Y2010D02*
G01X5974Y2122D01*
G01X5974Y5377D02*
G01X5974Y8939D01*
G01X5772Y1808D02*
G01X5772Y2056D01*
G01X5772Y5443D02*
G01X5772Y6798D01*
G01X5772Y7651D02*
G01X5772Y8737D01*
G01X5570Y1606D02*
G01X5570Y2047D01*
G01X5570Y5452D02*
G01X5570Y6798D01*
G01X5570Y8486D02*
G01X5570Y8535D01*
G01X5368Y1404D02*
G01X5368Y1509D01*
G01X5368Y5990D02*
G01X5368Y6798D01*
G01X5166Y6223D02*
G01X5166Y6798D01*
G01X4964Y6326D02*
G01X4964Y6798D01*
G01X4762Y6360D02*
G01X4762Y6798D01*
G01X4560Y6334D02*
G01X4560Y6798D01*
G01X4358Y6240D02*
G01X4358Y6798D01*
G01X4156Y6043D02*
G01X4156Y6798D01*
G01X3954Y6207D02*
G01X3954Y6798D01*
G01X3752Y6251D02*
G01X3752Y6798D01*
G01X3550Y6210D02*
G01X3550Y6798D01*
G01X3348Y6050D02*
G01X3348Y6798D01*
G01X3146Y6237D02*
G01X3146Y6798D01*
G01X2944Y6332D02*
G01X2944Y6798D01*
G01X2742Y6360D02*
G01X2742Y6798D01*
G01X2540Y6328D02*
G01X2540Y6798D01*
G01X2338Y6227D02*
G01X2338Y6798D01*
G01X2136Y6000D02*
G01X2136Y6798D01*
G01X2136Y8455D02*
G01X2136Y8530D01*
G01X1934Y5452D02*
G01X1934Y6798D01*
G01X1934Y7651D02*
G01X1934Y7711D01*
G01X1934Y8308D02*
G01X1934Y8732D01*
G01X1732Y5444D02*
G01X1732Y6898D01*
G01X1732Y7551D02*
G01X1732Y8934D01*
G01X1530Y5379D02*
G01X1530Y9136D01*
G01X1328Y3229D02*
G01X1328Y3478D01*
G01X1328Y4021D02*
G01X1328Y4270D01*
G01X1328Y5229D02*
G01X1328Y9338D01*
G01X1126Y2610D02*
G01X1126Y9540D01*
G01X924Y2812D02*
G01X924Y9742D01*
G01X722Y4492D02*
G01X722Y9944D01*
G01X520Y4492D02*
G01X520Y10146D01*
G01X318Y4492D02*
G01X318Y10348D01*
G01X3486Y1323D02*
G01X3223Y1323D01*
G01X3250Y1349D02*
G01X3448Y1349D01*
G01X3348Y1323D02*
G01X3348Y1449D01*
G01X4276Y1323D02*
G01X4014Y1323D01*
G01X4051Y1349D02*
G01X4249Y1349D01*
G01X4156Y1323D02*
G01X4156Y1456D01*
G01X2548Y920D02*
G01X4808Y920D01*
G01X4782Y835D02*
G01X4782Y707D01*
G01X4680Y652D02*
G01X4632Y604D01*
G01X4632Y604D02*
G01X4492Y604D01*
G01X4492Y604D02*
G01X4492Y767D01*
G01X4340Y919D02*
G01X3159Y919D01*
G01X3008Y767D02*
G01X3008Y156D01*
G01X3008Y156D02*
G01X2625Y156D01*
G01X2751Y339D02*
G01X3008Y339D01*
G01X2781Y541D02*
G01X3008Y541D01*
G01X2721Y743D02*
G01X3008Y743D01*
G01X4492Y743D02*
G01X4782Y743D01*
G01X4762Y702D02*
G01X4762Y920D01*
G01X4560Y604D02*
G01X4560Y920D01*
G01X4358Y918D02*
G01X4358Y920D01*
G01X4156Y919D02*
G01X4156Y920D01*
G01X3954Y919D02*
G01X3954Y920D01*
G01X3752Y919D02*
G01X3752Y920D01*
G01X3550Y919D02*
G01X3550Y920D01*
G01X3348Y919D02*
G01X3348Y920D01*
G01X3146Y918D02*
G01X3146Y920D01*
G01X2944Y156D02*
G01X2944Y920D01*
G01X2742Y156D02*
G01X2742Y319D01*
G01X2742Y700D02*
G01X2742Y920D01*
G01X14531Y156D02*
G01X13232Y156D01*
G01X13235Y185D02*
G01X13235Y835D01*
G01X13083Y986D02*
G01X13010Y986D01*
G01X13053Y1019D02*
G01X14002Y1967D01*
G01X14153Y1816D02*
G01X14803Y1816D01*
G01X14843Y1822D02*
G01X14843Y468D01*
G01X13235Y339D02*
G01X14815Y339D01*
G01X13235Y541D02*
G01X14843Y541D01*
G01X13235Y743D02*
G01X14843Y743D01*
G01X13187Y945D02*
G01X14843Y945D01*
G01X13181Y1147D02*
G01X14843Y1147D01*
G01X13383Y1349D02*
G01X14843Y1349D01*
G01X13585Y1551D02*
G01X14843Y1551D01*
G01X13787Y1753D02*
G01X14843Y1753D01*
G01X13989Y1955D02*
G01X14002Y1955D01*
G01X14660Y184D02*
G01X14660Y1816D01*
G01X14458Y156D02*
G01X14458Y1816D01*
G01X14256Y156D02*
G01X14256Y1816D01*
G01X14054Y156D02*
G01X14054Y1853D01*
G01X13852Y156D02*
G01X13852Y1818D01*
G01X13650Y156D02*
G01X13650Y1616D01*
G01X13448Y156D02*
G01X13448Y1414D01*
G01X13246Y156D02*
G01X13246Y1212D01*
G01X13044Y986D02*
G01X13044Y1011D01*
G01X4785Y156D02*
G01X4492Y156D01*
G01X4492Y156D02*
G01X4492Y201D01*
G01X4492Y201D02*
G01X4716Y201D01*
G01X4782Y212D02*
G01X4782Y185D01*
G01X4762Y156D02*
G01X4762Y206D01*
G01X4560Y156D02*
G01X4560Y201D01*
G01X9486Y156D02*
G01X5732Y156D01*
G01X5735Y185D02*
G01X5735Y835D01*
G01X5583Y986D02*
G01X5520Y986D01*
G01X5520Y986D02*
G01X6502Y1967D01*
G01X6653Y1816D02*
G01X7303Y1816D01*
G01X7455Y1967D02*
G01X8403Y1019D01*
G01X8546Y960D02*
G01X9650Y960D01*
G01X5735Y339D02*
G01X9361Y339D01*
G01X5735Y541D02*
G01X9330Y541D01*
G01X5735Y743D02*
G01X9390Y743D01*
G01X5687Y945D02*
G01X9612Y945D01*
G01X5681Y1147D02*
G01X8275Y1147D01*
G01X5883Y1349D02*
G01X8073Y1349D01*
G01X6085Y1551D02*
G01X7871Y1551D01*
G01X6287Y1753D02*
G01X7669Y1753D01*
G01X6489Y1955D02*
G01X6502Y1955D01*
G01X7454Y1955D02*
G01X7467Y1955D01*
G01X9610Y944D02*
G01X9610Y960D01*
G01X9408Y156D02*
G01X9408Y247D01*
G01X9408Y772D02*
G01X9408Y960D01*
G01X9206Y156D02*
G01X9206Y960D01*
G01X9004Y156D02*
G01X9004Y960D01*
G01X8802Y156D02*
G01X8802Y960D01*
G01X8600Y156D02*
G01X8600Y960D01*
G01X8398Y156D02*
G01X8398Y1024D01*
G01X8196Y156D02*
G01X8196Y1226D01*
G01X7994Y156D02*
G01X7994Y1428D01*
G01X7792Y156D02*
G01X7792Y1629D01*
G01X7590Y156D02*
G01X7590Y1831D01*
G01X7388Y156D02*
G01X7388Y1842D01*
G01X7186Y156D02*
G01X7186Y1816D01*
G01X6984Y156D02*
G01X6984Y1816D01*
G01X6782Y156D02*
G01X6782Y1816D01*
G01X6580Y156D02*
G01X6580Y1835D01*
G01X6378Y156D02*
G01X6378Y1844D01*
G01X6176Y156D02*
G01X6176Y1642D01*
G01X5974Y156D02*
G01X5974Y1440D01*
G01X5772Y156D02*
G01X5772Y1238D01*
G01X5570Y986D02*
G01X5570Y1036D01*
G01X12285Y156D02*
G01X11992Y156D01*
G01X11992Y156D02*
G01X11992Y201D01*
G01X11992Y201D02*
G01X12216Y201D01*
G01X12282Y212D02*
G01X12282Y185D01*
G01X12236Y156D02*
G01X12236Y202D01*
G01X12034Y156D02*
G01X12034Y201D01*
G01X9961Y960D02*
G01X12349Y960D01*
G01X12282Y835D02*
G01X12282Y707D01*
G01X12180Y652D02*
G01X12132Y604D01*
G01X12132Y604D02*
G01X11992Y604D01*
G01X11992Y604D02*
G01X11992Y767D01*
G01X11840Y919D02*
G01X10659Y919D01*
G01X10508Y767D02*
G01X10508Y156D01*
G01X10508Y156D02*
G01X10125Y156D01*
G01X10251Y339D02*
G01X10508Y339D01*
G01X10281Y541D02*
G01X10508Y541D01*
G01X10221Y743D02*
G01X10508Y743D01*
G01X11992Y743D02*
G01X12282Y743D01*
G01X10000Y945D02*
G01X12329Y945D01*
G01X12236Y691D02*
G01X12236Y960D01*
G01X12034Y604D02*
G01X12034Y960D01*
G01X11832Y919D02*
G01X11832Y960D01*
G01X11630Y919D02*
G01X11630Y960D01*
G01X11428Y919D02*
G01X11428Y960D01*
G01X11226Y919D02*
G01X11226Y960D01*
G01X11024Y919D02*
G01X11024Y960D01*
G01X10822Y919D02*
G01X10822Y960D01*
G01X10620Y914D02*
G01X10620Y960D01*
G01X10418Y156D02*
G01X10418Y960D01*
G01X10216Y156D02*
G01X10216Y268D01*
G01X10216Y751D02*
G01X10216Y960D01*
G01X10014Y938D02*
G01X10014Y960D01*
G01X156Y468D02*
G01X156Y3007D01*
G01X156Y3007D02*
G01X206Y3007D01*
G01X261Y2905D02*
G01X2187Y979D01*
G01X1986Y156D02*
G01X468Y156D01*
G01X184Y339D02*
G01X1861Y339D01*
G01X156Y541D02*
G01X1830Y541D01*
G01X156Y743D02*
G01X1890Y743D01*
G01X156Y945D02*
G01X2112Y945D01*
G01X156Y1147D02*
G01X2020Y1147D01*
G01X156Y1349D02*
G01X1818Y1349D01*
G01X156Y1551D02*
G01X1616Y1551D01*
G01X156Y1753D02*
G01X1414Y1753D01*
G01X156Y1955D02*
G01X1212Y1955D01*
G01X156Y2157D02*
G01X1010Y2157D01*
G01X156Y2359D02*
G01X808Y2359D01*
G01X156Y2561D02*
G01X606Y2561D01*
G01X156Y2763D02*
G01X404Y2763D01*
G01X156Y2965D02*
G01X220Y2965D01*
G01X2136Y955D02*
G01X2136Y1030D01*
G01X1934Y156D02*
G01X1934Y211D01*
G01X1934Y808D02*
G01X1934Y1232D01*
G01X1732Y156D02*
G01X1732Y1434D01*
G01X1530Y156D02*
G01X1530Y1636D01*
G01X1328Y156D02*
G01X1328Y1838D01*
G01X1126Y156D02*
G01X1126Y2040D01*
G01X924Y156D02*
G01X924Y2242D01*
G01X722Y156D02*
G01X722Y2444D01*
G01X520Y156D02*
G01X520Y2646D01*
G01X318Y194D02*
G01X318Y2848D01*
G01X4047Y12826D02*
G01X4018Y12826D01*
G01X4047Y12846D02*
G01X4047Y12842D01*
G01X11547Y12826D02*
G01X11518Y12826D01*
G01X11547Y12846D02*
G01X11547Y12842D01*
G01X11130Y12763D02*
G01X10859Y12491D01*
G01X10952Y12842D02*
G01X10952Y12846D01*
G01X10929Y12661D02*
G01X11028Y12661D01*
G01X11024Y12657D02*
G01X11024Y12802D01*
G01X3630Y12763D02*
G01X3359Y12491D01*
G01X3452Y12842D02*
G01X3452Y12846D01*
G01X3429Y12661D02*
G01X3528Y12661D01*
G01X3550Y12683D02*
G01X3550Y12789D01*
G01X14174Y11980D02*
G01X14174Y12157D01*
G01X14174Y12157D02*
G01X14315Y12298D01*
G01X14843Y12439D02*
G01X14843Y11992D01*
G01X14843Y11992D02*
G01X14232Y11992D01*
G01X14174Y12055D02*
G01X14843Y12055D01*
G01X14274Y12257D02*
G01X14843Y12257D01*
G01X14660Y11992D02*
G01X14660Y12305D01*
G01X14458Y11992D02*
G01X14458Y12270D01*
G01X14256Y11992D02*
G01X14256Y12239D01*
G01X10600Y12233D02*
G01X10266Y11899D01*
G01X10332Y12055D02*
G01X10422Y12055D01*
G01X10418Y12051D02*
G01X10418Y12160D01*
G01X3100Y12233D02*
G01X2766Y11899D01*
G01X2832Y12055D02*
G01X2922Y12055D01*
G01X2944Y12077D02*
G01X2944Y12167D01*
G01X10008Y11641D02*
G01X9737Y11369D01*
G01X9654Y11547D02*
G01X9657Y11547D01*
G01X9710Y11449D02*
G01X9816Y11449D01*
G01X9812Y11445D02*
G01X9812Y11564D01*
G01X2508Y11641D02*
G01X2237Y11369D01*
G01X2154Y11547D02*
G01X2157Y11547D01*
G01X2210Y11449D02*
G01X2316Y11449D01*
G01X2338Y11471D02*
G01X2338Y11571D01*
G01X13771Y11306D02*
G01X13750Y11285D01*
G01X13771Y11908D02*
G01X13771Y11306D01*
G01X13710Y11449D02*
G01X13771Y11449D01*
G01X13551Y11651D02*
G01X13771Y11651D01*
G01X13737Y11853D02*
G01X13771Y11853D01*
G01X13650Y11551D02*
G01X13650Y11749D01*
G01X10952Y9653D02*
G01X10952Y9657D01*
G01X9860Y10922D02*
G01X10306Y11369D01*
G01X11131Y12194D02*
G01X11360Y12423D01*
G01X11360Y12423D02*
G01X11686Y12423D01*
G01X12842Y11547D02*
G01X12846Y11547D01*
G01X12846Y10952D02*
G01X12842Y10952D01*
G01X11547Y9657D02*
G01X11547Y9653D01*
G01X10930Y9833D02*
G01X11569Y9833D01*
G01X10842Y10035D02*
G01X11657Y10035D01*
G01X10647Y10237D02*
G01X11853Y10237D01*
G01X10334Y10439D02*
G01X10752Y10439D01*
G01X11748Y10439D02*
G01X12166Y10439D01*
G01X10241Y10641D02*
G01X10518Y10641D01*
G01X11981Y10641D02*
G01X12259Y10641D01*
G01X10034Y10843D02*
G01X10390Y10843D01*
G01X12110Y10843D02*
G01X12466Y10843D01*
G01X9982Y11045D02*
G01X10321Y11045D01*
G01X12179Y11045D02*
G01X12792Y11045D01*
G01X10184Y11247D02*
G01X10298Y11247D01*
G01X12201Y11247D02*
G01X12748Y11247D01*
G01X12180Y11449D02*
G01X12790Y11449D01*
G01X12113Y11651D02*
G01X12474Y11651D01*
G01X11986Y11853D02*
G01X12262Y11853D01*
G01X11757Y12055D02*
G01X12167Y12055D01*
G01X11194Y12257D02*
G01X11861Y12257D01*
G01X12842Y10952D02*
G01X12842Y10957D01*
G01X12842Y11542D02*
G01X12842Y11547D01*
G01X12640Y10923D02*
G01X12640Y11576D01*
G01X12438Y10824D02*
G01X12438Y11675D01*
G01X12236Y10605D02*
G01X12236Y11894D01*
G01X12034Y10326D02*
G01X12034Y10711D01*
G01X12034Y11788D02*
G01X12034Y12173D01*
G01X11832Y10222D02*
G01X11832Y10497D01*
G01X11832Y12002D02*
G01X11832Y12277D01*
G01X11630Y9989D02*
G01X11630Y10377D01*
G01X11630Y12122D02*
G01X11630Y12423D01*
G01X11428Y9718D02*
G01X11428Y10315D01*
G01X11428Y12184D02*
G01X11428Y12423D01*
G01X11226Y9750D02*
G01X11226Y10298D01*
G01X11226Y12201D02*
G01X11226Y12289D01*
G01X11024Y9697D02*
G01X11024Y10325D01*
G01X10822Y10064D02*
G01X10822Y10399D01*
G01X10620Y10254D02*
G01X10620Y10536D01*
G01X10418Y10339D02*
G01X10418Y10787D01*
G01X10216Y10675D02*
G01X10216Y11279D01*
G01X10014Y10855D02*
G01X10014Y11077D01*
G01X3452Y9653D02*
G01X3452Y9657D01*
G01X2360Y10922D02*
G01X2806Y11369D01*
G01X3631Y12194D02*
G01X3860Y12423D01*
G01X3860Y12423D02*
G01X4186Y12423D01*
G01X5342Y11547D02*
G01X5346Y11547D01*
G01X5346Y10952D02*
G01X5342Y10952D01*
G01X4047Y9657D02*
G01X4047Y9653D01*
G01X3430Y9833D02*
G01X4069Y9833D01*
G01X3342Y10035D02*
G01X4157Y10035D01*
G01X3147Y10237D02*
G01X4353Y10237D01*
G01X2834Y10439D02*
G01X3252Y10439D01*
G01X4248Y10439D02*
G01X4666Y10439D01*
G01X2741Y10641D02*
G01X3018Y10641D01*
G01X4481Y10641D02*
G01X4759Y10641D01*
G01X2534Y10843D02*
G01X2890Y10843D01*
G01X4610Y10843D02*
G01X4966Y10843D01*
G01X2482Y11045D02*
G01X2821Y11045D01*
G01X4679Y11045D02*
G01X5292Y11045D01*
G01X2684Y11247D02*
G01X2798Y11247D01*
G01X4701Y11247D02*
G01X5248Y11247D01*
G01X4680Y11449D02*
G01X5290Y11449D01*
G01X4613Y11651D02*
G01X4974Y11651D01*
G01X4486Y11853D02*
G01X4762Y11853D01*
G01X4257Y12055D02*
G01X4667Y12055D01*
G01X3694Y12257D02*
G01X4361Y12257D01*
G01X5166Y10930D02*
G01X5166Y11569D01*
G01X4964Y10842D02*
G01X4964Y11657D01*
G01X4762Y10646D02*
G01X4762Y11853D01*
G01X4560Y10334D02*
G01X4560Y10751D01*
G01X4560Y11748D02*
G01X4560Y12165D01*
G01X4358Y10240D02*
G01X4358Y10518D01*
G01X4358Y11981D02*
G01X4358Y12259D01*
G01X4156Y10033D02*
G01X4156Y10389D01*
G01X4156Y12110D02*
G01X4156Y12423D01*
G01X3954Y9707D02*
G01X3954Y10320D01*
G01X3954Y12179D02*
G01X3954Y12423D01*
G01X3752Y9751D02*
G01X3752Y10298D01*
G01X3752Y12201D02*
G01X3752Y12315D01*
G01X3550Y9710D02*
G01X3550Y10319D01*
G01X3348Y10025D02*
G01X3348Y10387D01*
G01X3146Y10237D02*
G01X3146Y10514D01*
G01X2944Y10332D02*
G01X2944Y10743D01*
G01X2742Y10639D02*
G01X2742Y11305D01*
G01X2540Y10839D02*
G01X2540Y11103D01*
G01X2069Y9167D02*
G01X1667Y9569D01*
G01X1842Y9547D02*
G01X2047Y9547D01*
G01X2047Y9547D02*
G01X2047Y9342D01*
G01X2009Y9227D02*
G01X2057Y9227D01*
G01X1807Y9429D02*
G01X2047Y9429D01*
G01X1934Y9302D02*
G01X1934Y9547D01*
G01X1732Y9504D02*
G01X1732Y9555D01*
G01X11736Y8863D02*
G01X11569Y8863D01*
G01X11630Y8863D02*
G01X11630Y8923D01*
G01X10930Y8863D02*
G01X10764Y8863D01*
G01X10822Y8863D02*
G01X10822Y8935D01*
G01X13899Y9935D02*
G01X12827Y8863D01*
G01X12827Y8863D02*
G01X12764Y8863D01*
G01X12952Y9342D02*
G01X12952Y9547D01*
G01X12952Y9547D02*
G01X13157Y9547D01*
G01X13714Y10679D02*
G01X14081Y11045D01*
G01X14081Y11045D02*
G01X14081Y10659D01*
G01X14232Y10507D02*
G01X14843Y10507D01*
G01X14843Y10507D02*
G01X14843Y10264D01*
G01X14803Y10269D02*
G01X14153Y10269D01*
G01X14002Y10118D02*
G01X14002Y9990D01*
G01X12877Y9025D02*
G01X12989Y9025D01*
G01X12943Y9227D02*
G01X13191Y9227D01*
G01X12952Y9429D02*
G01X13393Y9429D01*
G01X13490Y9631D02*
G01X13595Y9631D01*
G01X13723Y9833D02*
G01X13797Y9833D01*
G01X13826Y10035D02*
G01X14002Y10035D01*
G01X13860Y10237D02*
G01X14059Y10237D01*
G01X13834Y10439D02*
G01X14843Y10439D01*
G01X13741Y10641D02*
G01X14082Y10641D01*
G01X13878Y10843D02*
G01X14081Y10843D01*
G01X14080Y11045D02*
G01X14081Y11045D01*
G01X14660Y10269D02*
G01X14660Y10507D01*
G01X14458Y10269D02*
G01X14458Y10507D01*
G01X14256Y10269D02*
G01X14256Y10507D01*
G01X14054Y10233D02*
G01X14054Y11019D01*
G01X13852Y9888D02*
G01X13852Y10146D01*
G01X13852Y10353D02*
G01X13852Y10817D01*
G01X13650Y9686D02*
G01X13650Y9749D01*
G01X13448Y9484D02*
G01X13448Y9610D01*
G01X13246Y9282D02*
G01X13246Y9552D01*
G01X13044Y9080D02*
G01X13044Y9547D01*
G01X12842Y8878D02*
G01X12842Y8964D01*
G01X5452Y9342D02*
G01X5452Y9547D01*
G01X5452Y9547D02*
G01X5657Y9547D01*
G01X6214Y10679D02*
G01X7120Y11585D01*
G01X7179Y11728D02*
G01X7179Y12314D01*
G01X6776Y12314D02*
G01X6776Y11811D01*
G01X6776Y11811D02*
G01X6250Y11285D01*
G01X5657Y12952D02*
G01X5452Y12952D01*
G01X5452Y12952D02*
G01X5452Y13157D01*
G01X2047Y13157D02*
G01X2047Y12952D01*
G01X2047Y12952D02*
G01X1842Y12952D01*
G01X1162Y10074D02*
G01X729Y10507D01*
G01X729Y10507D02*
G01X767Y10507D01*
G01X919Y10659D02*
G01X919Y11840D01*
G01X767Y11992D02*
G01X156Y11992D01*
G01X156Y11992D02*
G01X156Y14531D01*
G01X468Y14843D02*
G01X3008Y14843D01*
G01X3008Y14843D02*
G01X3008Y14232D01*
G01X3159Y14080D02*
G01X4340Y14080D01*
G01X4492Y14232D02*
G01X4492Y14843D01*
G01X4492Y14843D02*
G01X10508Y14843D01*
G01X10508Y14843D02*
G01X10508Y14232D01*
G01X10659Y14080D02*
G01X11840Y14080D01*
G01X11992Y14232D02*
G01X11992Y14843D01*
G01X11992Y14843D02*
G01X14531Y14843D01*
G01X14843Y14531D02*
G01X14843Y13052D01*
G01X14030Y12583D02*
G01X13844Y12397D01*
G01X13157Y12952D02*
G01X12952Y12952D01*
G01X12952Y12952D02*
G01X12952Y13157D01*
G01X9547Y13157D02*
G01X9547Y12952D01*
G01X9547Y12952D02*
G01X9342Y12952D01*
G01X9342Y9547D02*
G01X9547Y9547D01*
G01X9547Y9547D02*
G01X9547Y9342D01*
G01X9736Y8863D02*
G01X8629Y8863D01*
G01X8629Y8863D02*
G01X7556Y9935D01*
G01X7455Y9990D02*
G01X7455Y10118D01*
G01X7303Y10269D02*
G01X6653Y10269D01*
G01X6502Y10118D02*
G01X6502Y9990D01*
G01X6399Y9935D02*
G01X5308Y8843D01*
G01X5308Y8843D02*
G01X5244Y8843D01*
G01X5377Y9025D02*
G01X5490Y9025D01*
G01X8467Y9025D02*
G01X9623Y9025D01*
G01X5443Y9227D02*
G01X5692Y9227D01*
G01X8265Y9227D02*
G01X9557Y9227D01*
G01X5452Y9429D02*
G01X5893Y9429D01*
G01X8063Y9429D02*
G01X9547Y9429D01*
G01X5990Y9631D02*
G01X6095Y9631D01*
G01X7861Y9631D02*
G01X9009Y9631D01*
G01X6223Y9833D02*
G01X6297Y9833D01*
G01X7659Y9833D02*
G01X8777Y9833D01*
G01X6326Y10035D02*
G01X6502Y10035D01*
G01X7455Y10035D02*
G01X8673Y10035D01*
G01X999Y10237D02*
G01X1140Y10237D01*
G01X6360Y10237D02*
G01X6559Y10237D01*
G01X7397Y10237D02*
G01X8640Y10237D01*
G01X797Y10439D02*
G01X1166Y10439D01*
G01X6334Y10439D02*
G01X8666Y10439D01*
G01X918Y10641D02*
G01X1259Y10641D01*
G01X6241Y10641D02*
G01X8759Y10641D01*
G01X919Y10843D02*
G01X1456Y10843D01*
G01X6378Y10843D02*
G01X8956Y10843D01*
G01X919Y11045D02*
G01X1292Y11045D01*
G01X6580Y11045D02*
G01X8792Y11045D01*
G01X919Y11247D02*
G01X1248Y11247D01*
G01X6782Y11247D02*
G01X8748Y11247D01*
G01X919Y11449D02*
G01X1290Y11449D01*
G01X6210Y11449D02*
G01X6414Y11449D01*
G01X6984Y11449D02*
G01X8790Y11449D01*
G01X919Y11651D02*
G01X1449Y11651D01*
G01X6051Y11651D02*
G01X6616Y11651D01*
G01X7164Y11651D02*
G01X8949Y11651D01*
G01X918Y11853D02*
G01X1262Y11853D01*
G01X6237Y11853D02*
G01X6776Y11853D01*
G01X7179Y11853D02*
G01X8762Y11853D01*
G01X156Y12055D02*
G01X1167Y12055D01*
G01X6332Y12055D02*
G01X6776Y12055D01*
G01X7179Y12055D02*
G01X8667Y12055D01*
G01X156Y12257D02*
G01X1140Y12257D01*
G01X6360Y12257D02*
G01X6776Y12257D01*
G01X7179Y12257D02*
G01X8640Y12257D01*
G01X156Y12459D02*
G01X1171Y12459D01*
G01X6328Y12459D02*
G01X6598Y12459D01*
G01X7359Y12459D02*
G01X8671Y12459D01*
G01X13828Y12459D02*
G01X13906Y12459D01*
G01X156Y12661D02*
G01X1273Y12661D01*
G01X6227Y12661D02*
G01X6509Y12661D01*
G01X7447Y12661D02*
G01X8773Y12661D01*
G01X13727Y12661D02*
G01X14009Y12661D01*
G01X156Y12863D02*
G01X1499Y12863D01*
G01X6000Y12863D02*
G01X6516Y12863D01*
G01X7440Y12863D02*
G01X8999Y12863D01*
G01X13500Y12863D02*
G01X14016Y12863D01*
G01X156Y13065D02*
G01X2047Y13065D01*
G01X5452Y13065D02*
G01X6624Y13065D01*
G01X7332Y13065D02*
G01X9547Y13065D01*
G01X12952Y13065D02*
G01X14124Y13065D01*
G01X14832Y13065D02*
G01X14843Y13065D01*
G01X156Y13267D02*
G01X2056Y13267D01*
G01X5444Y13267D02*
G01X9556Y13267D01*
G01X12944Y13267D02*
G01X14843Y13267D01*
G01X156Y13469D02*
G01X2120Y13469D01*
G01X5379Y13469D02*
G01X9620Y13469D01*
G01X12879Y13469D02*
G01X14843Y13469D01*
G01X156Y13671D02*
G01X2270Y13671D01*
G01X3229Y13671D02*
G01X3478Y13671D01*
G01X4022Y13671D02*
G01X4270Y13671D01*
G01X5229Y13671D02*
G01X9770Y13671D01*
G01X10729Y13671D02*
G01X10978Y13671D01*
G01X11522Y13671D02*
G01X11770Y13671D01*
G01X12729Y13671D02*
G01X14843Y13671D01*
G01X156Y13873D02*
G01X14843Y13873D01*
G01X156Y14075D02*
G01X14843Y14075D01*
G01X156Y14277D02*
G01X3008Y14277D01*
G01X4492Y14277D02*
G01X10508Y14277D01*
G01X11992Y14277D02*
G01X14843Y14277D01*
G01X156Y14479D02*
G01X3008Y14479D01*
G01X4492Y14479D02*
G01X10508Y14479D01*
G01X11992Y14479D02*
G01X14843Y14479D01*
G01X194Y14681D02*
G01X3008Y14681D01*
G01X4492Y14681D02*
G01X10508Y14681D01*
G01X11992Y14681D02*
G01X14805Y14681D01*
G01X14660Y13186D02*
G01X14660Y14815D01*
G01X14458Y13222D02*
G01X14458Y14843D01*
G01X14256Y13167D02*
G01X14256Y14843D01*
G01X14054Y12963D02*
G01X14054Y14843D01*
G01X13852Y12405D02*
G01X13852Y14843D01*
G01X13650Y12750D02*
G01X13650Y14843D01*
G01X13448Y12889D02*
G01X13448Y14843D01*
G01X13246Y12947D02*
G01X13246Y14843D01*
G01X13044Y12952D02*
G01X13044Y14843D01*
G01X12842Y13535D02*
G01X12842Y14843D01*
G01X12640Y13741D02*
G01X12640Y14843D01*
G01X12438Y13834D02*
G01X12438Y14843D01*
G01X12236Y13860D02*
G01X12236Y14843D01*
G01X12034Y13826D02*
G01X12034Y14843D01*
G01X11832Y13722D02*
G01X11832Y14080D01*
G01X11630Y13576D02*
G01X11630Y14080D01*
G01X11428Y13718D02*
G01X11428Y14080D01*
G01X11226Y13750D02*
G01X11226Y14080D01*
G01X11024Y13697D02*
G01X11024Y14080D01*
G01X10822Y13564D02*
G01X10822Y14080D01*
G01X10620Y13754D02*
G01X10620Y14085D01*
G01X10418Y13839D02*
G01X10418Y14843D01*
G01X10216Y13859D02*
G01X10216Y14843D01*
G01X10014Y13819D02*
G01X10014Y14843D01*
G01X9812Y13707D02*
G01X9812Y14843D01*
G01X9610Y8863D02*
G01X9610Y9051D01*
G01X9610Y13448D02*
G01X9610Y14843D01*
G01X9408Y8863D02*
G01X9408Y9547D01*
G01X9408Y12952D02*
G01X9408Y14843D01*
G01X9206Y8863D02*
G01X9206Y9560D01*
G01X9206Y12939D02*
G01X9206Y14843D01*
G01X9004Y8863D02*
G01X9004Y9633D01*
G01X9004Y12866D02*
G01X9004Y14843D01*
G01X8802Y8863D02*
G01X8802Y9800D01*
G01X8802Y10699D02*
G01X8802Y11023D01*
G01X8802Y11476D02*
G01X8802Y11800D01*
G01X8802Y12699D02*
G01X8802Y14843D01*
G01X8600Y8892D02*
G01X8600Y14843D01*
G01X8398Y9094D02*
G01X8398Y14843D01*
G01X8196Y9296D02*
G01X8196Y14843D01*
G01X7994Y9497D02*
G01X7994Y14843D01*
G01X7792Y9699D02*
G01X7792Y14843D01*
G01X7590Y9901D02*
G01X7590Y14843D01*
G01X7388Y10243D02*
G01X7388Y12503D01*
G01X7388Y12988D02*
G01X7388Y14843D01*
G01X7186Y10269D02*
G01X7186Y12317D01*
G01X7186Y13174D02*
G01X7186Y14843D01*
G01X6984Y10269D02*
G01X6984Y11449D01*
G01X6984Y13222D02*
G01X6984Y14843D01*
G01X6782Y10269D02*
G01X6782Y11247D01*
G01X6782Y13180D02*
G01X6782Y14843D01*
G01X6580Y10251D02*
G01X6580Y11045D01*
G01X6580Y11615D02*
G01X6580Y12483D01*
G01X6580Y13008D02*
G01X6580Y14843D01*
G01X6378Y9914D02*
G01X6378Y10843D01*
G01X6378Y11413D02*
G01X6378Y14843D01*
G01X6176Y9712D02*
G01X6176Y9776D01*
G01X6176Y11513D02*
G01X6176Y11776D01*
G01X6176Y12723D02*
G01X6176Y14843D01*
G01X5974Y9510D02*
G01X5974Y9622D01*
G01X5974Y12877D02*
G01X5974Y14843D01*
G01X5772Y9307D02*
G01X5772Y9556D01*
G01X5772Y12943D02*
G01X5772Y14843D01*
G01X5570Y9105D02*
G01X5570Y9547D01*
G01X5570Y12952D02*
G01X5570Y14843D01*
G01X5368Y8903D02*
G01X5368Y9009D01*
G01X5368Y13490D02*
G01X5368Y14843D01*
G01X5166Y13723D02*
G01X5166Y14843D01*
G01X4964Y13826D02*
G01X4964Y14843D01*
G01X4762Y13860D02*
G01X4762Y14843D01*
G01X4560Y13834D02*
G01X4560Y14843D01*
G01X4358Y13740D02*
G01X4358Y14081D01*
G01X4156Y13543D02*
G01X4156Y14080D01*
G01X3954Y13707D02*
G01X3954Y14080D01*
G01X3752Y13751D02*
G01X3752Y14080D01*
G01X3550Y13710D02*
G01X3550Y14080D01*
G01X3348Y13550D02*
G01X3348Y14080D01*
G01X3146Y13737D02*
G01X3146Y14081D01*
G01X2944Y13832D02*
G01X2944Y14843D01*
G01X2742Y13860D02*
G01X2742Y14843D01*
G01X2540Y13828D02*
G01X2540Y14843D01*
G01X2338Y13727D02*
G01X2338Y14843D01*
G01X2136Y13500D02*
G01X2136Y14843D01*
G01X1934Y12952D02*
G01X1934Y14843D01*
G01X1732Y12944D02*
G01X1732Y14843D01*
G01X1530Y12879D02*
G01X1530Y14843D01*
G01X1328Y10729D02*
G01X1328Y10978D01*
G01X1328Y11521D02*
G01X1328Y11770D01*
G01X1328Y12729D02*
G01X1328Y14843D01*
G01X1126Y10110D02*
G01X1126Y14843D01*
G01X924Y10312D02*
G01X924Y14843D01*
G01X722Y11992D02*
G01X722Y14843D01*
G01X520Y11992D02*
G01X520Y14843D01*
G01X318Y11992D02*
G01X318Y14805D01*
G01X3456Y8843D02*
G01X3244Y8843D01*
G01X3348Y8843D02*
G01X3348Y8949D01*
G01X4255Y8843D02*
G01X4043Y8843D01*
G01X4156Y8843D02*
G01X4156Y8956D01*
G01X2510Y8440D02*
G01X4825Y8440D01*
G01X4782Y8335D02*
G01X4782Y7685D01*
G01X4786Y7651D02*
G01X2620Y7651D01*
G01X2740Y7813D02*
G01X4782Y7813D01*
G01X2782Y8015D02*
G01X4782Y8015D01*
G01X2735Y8217D02*
G01X4782Y8217D01*
G01X2550Y8419D02*
G01X4808Y8419D01*
G01X4762Y7651D02*
G01X4762Y8440D01*
G01X4560Y7651D02*
G01X4560Y8440D01*
G01X4358Y7651D02*
G01X4358Y8440D01*
G01X4156Y7651D02*
G01X4156Y8440D01*
G01X3954Y7651D02*
G01X3954Y8440D01*
G01X3752Y7651D02*
G01X3752Y8440D01*
G01X3550Y7651D02*
G01X3550Y8440D01*
G01X3348Y7651D02*
G01X3348Y8440D01*
G01X3146Y7651D02*
G01X3146Y8440D01*
G01X2944Y7651D02*
G01X2944Y8440D01*
G01X2742Y7651D02*
G01X2742Y7819D01*
G01X2742Y8200D02*
G01X2742Y8440D01*
G01X2540Y8424D02*
G01X2540Y8440D01*
G01X11547Y5326D02*
G01X11518Y5326D01*
G01X11547Y5346D02*
G01X11547Y5342D01*
G01X4047Y5326D02*
G01X4018Y5326D01*
G01X4047Y5346D02*
G01X4047Y5342D01*
G01X11130Y5263D02*
G01X10859Y4991D01*
G01X10952Y5342D02*
G01X10952Y5346D01*
G01X10935Y5187D02*
G01X11054Y5187D01*
G01X11024Y5157D02*
G01X11024Y5302D01*
G01X3630Y5263D02*
G01X3359Y4991D01*
G01X3452Y5342D02*
G01X3452Y5346D01*
G01X3435Y5187D02*
G01X3554Y5187D01*
G01X3550Y5183D02*
G01X3550Y5289D01*
G01X14174Y4480D02*
G01X14174Y4657D01*
G01X14174Y4657D02*
G01X14315Y4798D01*
G01X14843Y4939D02*
G01X14843Y4492D01*
G01X14843Y4492D02*
G01X14232Y4492D01*
G01X14174Y4581D02*
G01X14843Y4581D01*
G01X14300Y4783D02*
G01X14365Y4783D01*
G01X14591Y4783D02*
G01X14843Y4783D01*
G01X14660Y4492D02*
G01X14660Y4805D01*
G01X14458Y4492D02*
G01X14458Y4770D01*
G01X14256Y4492D02*
G01X14256Y4739D01*
G01X10600Y4733D02*
G01X10266Y4399D01*
G01X10339Y4581D02*
G01X10448Y4581D01*
G01X10418Y4551D02*
G01X10418Y4660D01*
G01X3100Y4733D02*
G01X2766Y4399D01*
G01X2839Y4581D02*
G01X2948Y4581D01*
G01X2944Y4577D02*
G01X2944Y4667D01*
G01X10008Y4141D02*
G01X9737Y3869D01*
G01X9654Y4047D02*
G01X9657Y4047D01*
G01X9698Y3975D02*
G01X9842Y3975D01*
G01X9812Y3945D02*
G01X9812Y4064D01*
G01X2508Y4141D02*
G01X2237Y3869D01*
G01X2154Y4047D02*
G01X2157Y4047D01*
G01X2198Y3975D02*
G01X2342Y3975D01*
G01X2338Y3971D02*
G01X2338Y4071D01*
G01X13771Y3806D02*
G01X13750Y3785D01*
G01X13771Y4408D02*
G01X13771Y3806D01*
G01X13698Y3975D02*
G01X13771Y3975D01*
G01X13564Y4177D02*
G01X13771Y4177D01*
G01X13754Y4379D02*
G01X13771Y4379D01*
G01X13650Y4051D02*
G01X13650Y4249D01*
G01X11547Y2157D02*
G01X11547Y2153D01*
G01X10952Y2153D02*
G01X10952Y2157D01*
G01X9860Y3422D02*
G01X10306Y3869D01*
G01X11131Y4694D02*
G01X11360Y4923D01*
G01X11360Y4923D02*
G01X11686Y4923D01*
G01X12842Y4047D02*
G01X12846Y4047D01*
G01X12846Y3452D02*
G01X12842Y3452D01*
G01X10952Y2157D02*
G01X10957Y2157D01*
G01X11542Y2157D02*
G01X11547Y2157D01*
G01X10923Y2359D02*
G01X11577Y2359D01*
G01X10825Y2561D02*
G01X11675Y2561D01*
G01X10606Y2763D02*
G01X11894Y2763D01*
G01X10326Y2965D02*
G01X10712Y2965D01*
G01X11788Y2965D02*
G01X12173Y2965D01*
G01X10223Y3167D02*
G01X10498Y3167D01*
G01X12002Y3167D02*
G01X12277Y3167D01*
G01X9989Y3369D02*
G01X10378Y3369D01*
G01X12122Y3369D02*
G01X12510Y3369D01*
G01X10008Y3571D02*
G01X10315Y3571D01*
G01X12184Y3571D02*
G01X12781Y3571D01*
G01X10210Y3773D02*
G01X10299Y3773D01*
G01X12201Y3773D02*
G01X12749Y3773D01*
G01X12174Y3975D02*
G01X12802Y3975D01*
G01X12100Y4177D02*
G01X12435Y4177D01*
G01X11963Y4379D02*
G01X12245Y4379D01*
G01X11713Y4581D02*
G01X12160Y4581D01*
G01X11220Y4783D02*
G01X11824Y4783D01*
G01X12842Y3452D02*
G01X12842Y3457D01*
G01X12842Y4042D02*
G01X12842Y4047D01*
G01X12640Y3423D02*
G01X12640Y4076D01*
G01X12438Y3324D02*
G01X12438Y4175D01*
G01X12236Y3105D02*
G01X12236Y4394D01*
G01X12034Y2826D02*
G01X12034Y3211D01*
G01X12034Y4288D02*
G01X12034Y4673D01*
G01X11832Y2722D02*
G01X11832Y2997D01*
G01X11832Y4502D02*
G01X11832Y4777D01*
G01X11630Y2489D02*
G01X11630Y2877D01*
G01X11630Y4622D02*
G01X11630Y4923D01*
G01X11428Y2218D02*
G01X11428Y2815D01*
G01X11428Y4684D02*
G01X11428Y4923D01*
G01X11226Y2250D02*
G01X11226Y2798D01*
G01X11226Y4701D02*
G01X11226Y4789D01*
G01X11024Y2197D02*
G01X11024Y2825D01*
G01X10822Y2564D02*
G01X10822Y2899D01*
G01X10620Y2754D02*
G01X10620Y3036D01*
G01X10418Y2839D02*
G01X10418Y3287D01*
G01X10216Y3175D02*
G01X10216Y3779D01*
G01X10014Y3355D02*
G01X10014Y3577D01*
G01X3452Y2153D02*
G01X3452Y2157D01*
G01X2360Y3422D02*
G01X2806Y3869D01*
G01X3631Y4694D02*
G01X3860Y4923D01*
G01X3860Y4923D02*
G01X4186Y4923D01*
G01X5342Y4047D02*
G01X5346Y4047D01*
G01X5346Y3452D02*
G01X5342Y3452D01*
G01X4047Y2157D02*
G01X4047Y2153D01*
G01X3452Y2157D02*
G01X3457Y2157D01*
G01X4042Y2157D02*
G01X4047Y2157D01*
G01X3423Y2359D02*
G01X4077Y2359D01*
G01X3325Y2561D02*
G01X4175Y2561D01*
G01X3106Y2763D02*
G01X4394Y2763D01*
G01X2826Y2965D02*
G01X3212Y2965D01*
G01X4288Y2965D02*
G01X4673Y2965D01*
G01X2723Y3167D02*
G01X2998Y3167D01*
G01X4502Y3167D02*
G01X4777Y3167D01*
G01X2489Y3369D02*
G01X2878Y3369D01*
G01X4622Y3369D02*
G01X5010Y3369D01*
G01X2508Y3571D02*
G01X2815Y3571D01*
G01X4684Y3571D02*
G01X5281Y3571D01*
G01X2710Y3773D02*
G01X2799Y3773D01*
G01X4701Y3773D02*
G01X5249Y3773D01*
G01X4674Y3975D02*
G01X5302Y3975D01*
G01X4600Y4177D02*
G01X4935Y4177D01*
G01X4463Y4379D02*
G01X4745Y4379D01*
G01X4213Y4581D02*
G01X4660Y4581D01*
G01X3720Y4783D02*
G01X4324Y4783D01*
G01X5166Y3430D02*
G01X5166Y4069D01*
G01X4964Y3342D02*
G01X4964Y4157D01*
G01X4762Y3146D02*
G01X4762Y4353D01*
G01X4560Y2834D02*
G01X4560Y3251D01*
G01X4560Y4248D02*
G01X4560Y4665D01*
G01X4358Y2740D02*
G01X4358Y3018D01*
G01X4358Y4481D02*
G01X4358Y4759D01*
G01X4156Y2533D02*
G01X4156Y2889D01*
G01X4156Y4610D02*
G01X4156Y4923D01*
G01X3954Y2207D02*
G01X3954Y2820D01*
G01X3954Y4679D02*
G01X3954Y4923D01*
G01X3752Y2251D02*
G01X3752Y2798D01*
G01X3752Y4701D02*
G01X3752Y4815D01*
G01X3550Y2210D02*
G01X3550Y2819D01*
G01X3348Y2525D02*
G01X3348Y2887D01*
G01X3146Y2737D02*
G01X3146Y3014D01*
G01X2944Y2832D02*
G01X2944Y3243D01*
G01X2742Y3139D02*
G01X2742Y3805D01*
G01X2540Y3339D02*
G01X2540Y3603D01*
G01X2069Y1667D02*
G01X1667Y2069D01*
G01X1842Y2047D02*
G01X2047Y2047D01*
G01X2047Y2047D02*
G01X2047Y1842D01*
G01X1983Y1753D02*
G01X2053Y1753D01*
G01X1781Y1955D02*
G01X2047Y1955D01*
G01X1934Y1802D02*
G01X1934Y2047D01*
G01X1732Y2004D02*
G01X1732Y2055D01*
G01X11736Y1363D02*
G01X11569Y1363D01*
G01X11630Y1363D02*
G01X11630Y1423D01*
G01X10930Y1363D02*
G01X10764Y1363D01*
G01X10822Y1363D02*
G01X10822Y1435D01*
G01X12952Y1842D02*
G01X12952Y2047D01*
G01X12952Y2047D02*
G01X13157Y2047D01*
G01X13714Y3179D02*
G01X14081Y3545D01*
G01X14081Y3545D02*
G01X14081Y3159D01*
G01X14232Y3007D02*
G01X14843Y3007D01*
G01X14843Y3007D02*
G01X14843Y2764D01*
G01X14803Y2769D02*
G01X14153Y2769D01*
G01X14002Y2618D02*
G01X14002Y2490D01*
G01X13899Y2435D02*
G01X12827Y1363D01*
G01X12827Y1363D02*
G01X12764Y1363D01*
G01X12889Y1551D02*
G01X13015Y1551D01*
G01X12947Y1753D02*
G01X13217Y1753D01*
G01X12952Y1955D02*
G01X13419Y1955D01*
G01X13535Y2157D02*
G01X13621Y2157D01*
G01X13741Y2359D02*
G01X13823Y2359D01*
G01X13834Y2561D02*
G01X14002Y2561D01*
G01X13860Y2763D02*
G01X14109Y2763D01*
G01X13826Y2965D02*
G01X14843Y2965D01*
G01X13723Y3167D02*
G01X14081Y3167D01*
G01X13904Y3369D02*
G01X14081Y3369D01*
G01X14660Y2769D02*
G01X14660Y3007D01*
G01X14458Y2769D02*
G01X14458Y3007D01*
G01X14256Y2769D02*
G01X14256Y3007D01*
G01X14054Y2733D02*
G01X14054Y3519D01*
G01X13852Y2388D02*
G01X13852Y2646D01*
G01X13852Y2853D02*
G01X13852Y3317D01*
G01X13650Y2186D02*
G01X13650Y2249D01*
G01X13448Y1984D02*
G01X13448Y2110D01*
G01X13246Y1782D02*
G01X13246Y2052D01*
G01X13044Y1580D02*
G01X13044Y2047D01*
G01X12842Y1378D02*
G01X12842Y1464D01*
G01X5452Y1842D02*
G01X5452Y2047D01*
G01X5452Y2047D02*
G01X5657Y2047D01*
G01X6214Y3179D02*
G01X7120Y4085D01*
G01X7179Y4228D02*
G01X7179Y4814D01*
G01X6776Y4814D02*
G01X6776Y4311D01*
G01X6776Y4311D02*
G01X6250Y3785D01*
G01X5657Y5452D02*
G01X5452Y5452D01*
G01X5452Y5452D02*
G01X5452Y5657D01*
G01X2047Y5657D02*
G01X2047Y5452D01*
G01X2047Y5452D02*
G01X1842Y5452D01*
G01X1162Y2574D02*
G01X729Y3007D01*
G01X729Y3007D02*
G01X767Y3007D01*
G01X919Y3159D02*
G01X919Y4340D01*
G01X767Y4492D02*
G01X156Y4492D01*
G01X156Y4492D02*
G01X156Y10507D01*
G01X156Y10507D02*
G01X206Y10507D01*
G01X261Y10405D02*
G01X2167Y8499D01*
G01X1992Y7651D02*
G01X1875Y7651D01*
G01X1723Y7500D02*
G01X1723Y6950D01*
G01X1875Y6798D02*
G01X5779Y6798D01*
G01X5930Y6950D02*
G01X5930Y7500D01*
G01X5779Y7651D02*
G01X5731Y7651D01*
G01X5735Y7685D02*
G01X5735Y8335D01*
G01X5583Y8486D02*
G01X5520Y8486D01*
G01X5534Y8499D02*
G01X6502Y9467D01*
G01X6653Y9316D02*
G01X7303Y9316D01*
G01X7455Y9467D02*
G01X8403Y8519D01*
G01X8546Y8460D02*
G01X9650Y8460D01*
G01X9961Y8460D02*
G01X12349Y8460D01*
G01X12282Y8335D02*
G01X12282Y7685D01*
G01X12433Y7533D02*
G01X13083Y7533D01*
G01X13235Y7685D02*
G01X13235Y8335D01*
G01X13083Y8486D02*
G01X13010Y8486D01*
G01X13053Y8519D02*
G01X14002Y9467D01*
G01X14153Y9316D02*
G01X14803Y9316D01*
G01X14843Y9322D02*
G01X14843Y5552D01*
G01X14030Y5083D02*
G01X13844Y4897D01*
G01X13157Y5452D02*
G01X12952Y5452D01*
G01X12952Y5452D02*
G01X12952Y5657D01*
G01X9547Y5657D02*
G01X9547Y5452D01*
G01X9547Y5452D02*
G01X9342Y5452D01*
G01X9342Y2047D02*
G01X9547Y2047D01*
G01X9547Y2047D02*
G01X9547Y1842D01*
G01X9736Y1363D02*
G01X8629Y1363D01*
G01X8629Y1363D02*
G01X7556Y2435D01*
G01X7455Y2490D02*
G01X7455Y2618D01*
G01X7303Y2769D02*
G01X6653Y2769D01*
G01X6502Y2618D02*
G01X6502Y2490D01*
G01X6399Y2435D02*
G01X5287Y1323D01*
G01X5287Y1323D02*
G01X5223Y1323D01*
G01X5250Y1349D02*
G01X5313Y1349D01*
G01X5389Y1551D02*
G01X5515Y1551D01*
G01X8441Y1551D02*
G01X9610Y1551D01*
G01X5447Y1753D02*
G01X5717Y1753D01*
G01X8239Y1753D02*
G01X9553Y1753D01*
G01X5452Y1955D02*
G01X5919Y1955D01*
G01X8037Y1955D02*
G01X9547Y1955D01*
G01X6035Y2157D02*
G01X6121Y2157D01*
G01X7835Y2157D02*
G01X8965Y2157D01*
G01X6241Y2359D02*
G01X6323Y2359D01*
G01X7633Y2359D02*
G01X8758Y2359D01*
G01X6334Y2561D02*
G01X6502Y2561D01*
G01X7455Y2561D02*
G01X8665Y2561D01*
G01X973Y2763D02*
G01X1140Y2763D01*
G01X6360Y2763D02*
G01X6609Y2763D01*
G01X7347Y2763D02*
G01X8640Y2763D01*
G01X771Y2965D02*
G01X1173Y2965D01*
G01X6326Y2965D02*
G01X8673Y2965D01*
G01X919Y3167D02*
G01X1277Y3167D01*
G01X6223Y3167D02*
G01X8777Y3167D01*
G01X919Y3369D02*
G01X1423Y3369D01*
G01X6404Y3369D02*
G01X8923Y3369D01*
G01X919Y3571D02*
G01X1281Y3571D01*
G01X6606Y3571D02*
G01X8781Y3571D01*
G01X919Y3773D02*
G01X1249Y3773D01*
G01X6808Y3773D02*
G01X8749Y3773D01*
G01X919Y3975D02*
G01X1302Y3975D01*
G01X6198Y3975D02*
G01X6440Y3975D01*
G01X7010Y3975D02*
G01X8802Y3975D01*
G01X919Y4177D02*
G01X1435Y4177D01*
G01X6064Y4177D02*
G01X6642Y4177D01*
G01X7173Y4177D02*
G01X8935Y4177D01*
G01X914Y4379D02*
G01X1245Y4379D01*
G01X6254Y4379D02*
G01X6776Y4379D01*
G01X7179Y4379D02*
G01X8745Y4379D01*
G01X156Y4581D02*
G01X1160Y4581D01*
G01X6339Y4581D02*
G01X6776Y4581D01*
G01X7179Y4581D02*
G01X8660Y4581D01*
G01X156Y4783D02*
G01X1140Y4783D01*
G01X6359Y4783D02*
G01X6776Y4783D01*
G01X7179Y4783D02*
G01X8640Y4783D01*
G01X156Y4985D02*
G01X1180Y4985D01*
G01X6319Y4985D02*
G01X6579Y4985D01*
G01X7377Y4985D02*
G01X8680Y4985D01*
G01X13819Y4985D02*
G01X13932Y4985D01*
G01X156Y5187D02*
G01X1292Y5187D01*
G01X6207Y5187D02*
G01X6505Y5187D01*
G01X7451Y5187D02*
G01X8792Y5187D01*
G01X13707Y5187D02*
G01X14005Y5187D01*
G01X156Y5389D02*
G01X1551Y5389D01*
G01X5949Y5389D02*
G01X6524Y5389D01*
G01X7433Y5389D02*
G01X9051Y5389D01*
G01X13449Y5389D02*
G01X14024Y5389D01*
G01X156Y5591D02*
G01X2047Y5591D01*
G01X5452Y5591D02*
G01X6650Y5591D01*
G01X7307Y5591D02*
G01X9547Y5591D01*
G01X12952Y5591D02*
G01X14150Y5591D01*
G01X14807Y5591D02*
G01X14843Y5591D01*
G01X156Y5793D02*
G01X2060Y5793D01*
G01X5439Y5793D02*
G01X9560Y5793D01*
G01X12939Y5793D02*
G01X14843Y5793D01*
G01X156Y5995D02*
G01X2134Y5995D01*
G01X5366Y5995D02*
G01X9634Y5995D01*
G01X12866Y5995D02*
G01X14843Y5995D01*
G01X156Y6197D02*
G01X2300Y6197D01*
G01X3200Y6197D02*
G01X3523Y6197D01*
G01X3977Y6197D02*
G01X4300Y6197D01*
G01X5200Y6197D02*
G01X9800Y6197D01*
G01X10700Y6197D02*
G01X11023Y6197D01*
G01X11477Y6197D02*
G01X11800Y6197D01*
G01X12700Y6197D02*
G01X14843Y6197D01*
G01X156Y6399D02*
G01X14843Y6399D01*
G01X156Y6601D02*
G01X14843Y6601D01*
G01X156Y6803D02*
G01X1837Y6803D01*
G01X5816Y6803D02*
G01X14843Y6803D01*
G01X156Y7005D02*
G01X1723Y7005D01*
G01X5930Y7005D02*
G01X14843Y7005D01*
G01X156Y7207D02*
G01X1723Y7207D01*
G01X5930Y7207D02*
G01X14843Y7207D01*
G01X156Y7409D02*
G01X1723Y7409D01*
G01X5930Y7409D02*
G01X14843Y7409D01*
G01X156Y7611D02*
G01X1772Y7611D01*
G01X5882Y7611D02*
G01X9545Y7611D01*
G01X10067Y7611D02*
G01X12301Y7611D01*
G01X13216Y7611D02*
G01X14843Y7611D01*
G01X156Y7813D02*
G01X1872Y7813D01*
G01X5735Y7813D02*
G01X9372Y7813D01*
G01X10240Y7813D02*
G01X12282Y7813D01*
G01X13235Y7813D02*
G01X14843Y7813D01*
G01X156Y8015D02*
G01X1829Y8015D01*
G01X5735Y8015D02*
G01X9329Y8015D01*
G01X10282Y8015D02*
G01X12282Y8015D01*
G01X13235Y8015D02*
G01X14843Y8015D01*
G01X156Y8217D02*
G01X1877Y8217D01*
G01X5735Y8217D02*
G01X9377Y8217D01*
G01X10235Y8217D02*
G01X12282Y8217D01*
G01X13235Y8217D02*
G01X14843Y8217D01*
G01X156Y8419D02*
G01X2062Y8419D01*
G01X5709Y8419D02*
G01X9562Y8419D01*
G01X10050Y8419D02*
G01X12308Y8419D01*
G01X13209Y8419D02*
G01X14843Y8419D01*
G01X156Y8621D02*
G01X2046Y8621D01*
G01X5656Y8621D02*
G01X8301Y8621D01*
G01X13155Y8621D02*
G01X14843Y8621D01*
G01X156Y8823D02*
G01X1844Y8823D01*
G01X5858Y8823D02*
G01X8099Y8823D01*
G01X13357Y8823D02*
G01X14843Y8823D01*
G01X156Y9025D02*
G01X1642Y9025D01*
G01X6060Y9025D02*
G01X7897Y9025D01*
G01X13559Y9025D02*
G01X14843Y9025D01*
G01X156Y9227D02*
G01X1440Y9227D01*
G01X6261Y9227D02*
G01X7695Y9227D01*
G01X13761Y9227D02*
G01X14843Y9227D01*
G01X156Y9429D02*
G01X1238Y9429D01*
G01X6463Y9429D02*
G01X6507Y9429D01*
G01X7449Y9429D02*
G01X7493Y9429D01*
G01X13963Y9429D02*
G01X14007Y9429D01*
G01X156Y9631D02*
G01X1036Y9631D01*
G01X156Y9833D02*
G01X834Y9833D01*
G01X156Y10035D02*
G01X632Y10035D01*
G01X156Y10237D02*
G01X430Y10237D01*
G01X156Y10439D02*
G01X234Y10439D01*
G01X14660Y5686D02*
G01X14660Y9316D01*
G01X14458Y5722D02*
G01X14458Y9316D01*
G01X14256Y5667D02*
G01X14256Y9316D01*
G01X14054Y5463D02*
G01X14054Y9353D01*
G01X13852Y4905D02*
G01X13852Y9318D01*
G01X13650Y5250D02*
G01X13650Y9116D01*
G01X13448Y5389D02*
G01X13448Y8914D01*
G01X13246Y5447D02*
G01X13246Y8712D01*
G01X13044Y5452D02*
G01X13044Y7533D01*
G01X13044Y8486D02*
G01X13044Y8511D01*
G01X12842Y6035D02*
G01X12842Y7533D01*
G01X12640Y6241D02*
G01X12640Y7533D01*
G01X12438Y6334D02*
G01X12438Y7533D01*
G01X12236Y6360D02*
G01X12236Y8460D01*
G01X12034Y6326D02*
G01X12034Y8460D01*
G01X11832Y6222D02*
G01X11832Y8460D01*
G01X11630Y6076D02*
G01X11630Y8460D01*
G01X11428Y6218D02*
G01X11428Y8460D01*
G01X11226Y6250D02*
G01X11226Y8460D01*
G01X11024Y6197D02*
G01X11024Y8460D01*
G01X10822Y6064D02*
G01X10822Y8460D01*
G01X10620Y6254D02*
G01X10620Y8460D01*
G01X10418Y6339D02*
G01X10418Y8460D01*
G01X10216Y6359D02*
G01X10216Y7768D01*
G01X10216Y8251D02*
G01X10216Y8460D01*
G01X10014Y6319D02*
G01X10014Y7581D01*
G01X10014Y8438D02*
G01X10014Y8460D01*
G01X9812Y6207D02*
G01X9812Y7533D01*
G01X9610Y1363D02*
G01X9610Y1551D01*
G01X9610Y5948D02*
G01X9610Y7575D01*
G01X9610Y8444D02*
G01X9610Y8460D01*
G01X9408Y1363D02*
G01X9408Y2047D01*
G01X9408Y5452D02*
G01X9408Y7747D01*
G01X9408Y8272D02*
G01X9408Y8460D01*
G01X9206Y1363D02*
G01X9206Y2060D01*
G01X9206Y5439D02*
G01X9206Y8460D01*
G01X9004Y1363D02*
G01X9004Y2133D01*
G01X9004Y5366D02*
G01X9004Y8460D01*
G01X8802Y1363D02*
G01X8802Y2300D01*
G01X8802Y3199D02*
G01X8802Y3523D01*
G01X8802Y3976D02*
G01X8802Y4300D01*
G01X8802Y5199D02*
G01X8802Y8460D01*
G01X8600Y1392D02*
G01X8600Y8460D01*
G01X8398Y1594D02*
G01X8398Y8524D01*
G01X8196Y1796D02*
G01X8196Y8726D01*
G01X7994Y1997D02*
G01X7994Y8928D01*
G01X7792Y2199D02*
G01X7792Y9129D01*
G01X7590Y2401D02*
G01X7590Y9331D01*
G01X7388Y2743D02*
G01X7388Y5003D01*
G01X7388Y5488D02*
G01X7388Y9342D01*
G01X7186Y2769D02*
G01X7186Y4817D01*
G01X7186Y5674D02*
G01X7186Y9316D01*
G01X6984Y2769D02*
G01X6984Y3949D01*
G01X6984Y5722D02*
G01X6984Y9316D01*
G01X6782Y2769D02*
G01X6782Y3747D01*
G01X6782Y5680D02*
G01X6782Y9316D01*
G01X6580Y2751D02*
G01X6580Y3545D01*
G01X6580Y4115D02*
G01X6580Y4983D01*
G01X6580Y5508D02*
G01X6580Y9335D01*
G01X6378Y2414D02*
G01X6378Y3343D01*
G01X6378Y3913D02*
G01X6378Y9344D01*
G01X6176Y2212D02*
G01X6176Y2276D01*
G01X6176Y4013D02*
G01X6176Y4276D01*
G01X6176Y5223D02*
G01X6176Y9142D01*
G01X5974Y2010D02*
G01X5974Y2122D01*
G01X5974Y5377D02*
G01X5974Y8939D01*
G01X5772Y1808D02*
G01X5772Y2056D01*
G01X5772Y5443D02*
G01X5772Y6798D01*
G01X5772Y7651D02*
G01X5772Y8737D01*
G01X5570Y1606D02*
G01X5570Y2047D01*
G01X5570Y5452D02*
G01X5570Y6798D01*
G01X5570Y8486D02*
G01X5570Y8535D01*
G01X5368Y1404D02*
G01X5368Y1509D01*
G01X5368Y5990D02*
G01X5368Y6798D01*
G01X5166Y6223D02*
G01X5166Y6798D01*
G01X4964Y6326D02*
G01X4964Y6798D01*
G01X4762Y6360D02*
G01X4762Y6798D01*
G01X4560Y6334D02*
G01X4560Y6798D01*
G01X4358Y6240D02*
G01X4358Y6798D01*
G01X4156Y6043D02*
G01X4156Y6798D01*
G01X3954Y6207D02*
G01X3954Y6798D01*
G01X3752Y6251D02*
G01X3752Y6798D01*
G01X3550Y6210D02*
G01X3550Y6798D01*
G01X3348Y6050D02*
G01X3348Y6798D01*
G01X3146Y6237D02*
G01X3146Y6798D01*
G01X2944Y6332D02*
G01X2944Y6798D01*
G01X2742Y6360D02*
G01X2742Y6798D01*
G01X2540Y6328D02*
G01X2540Y6798D01*
G01X2338Y6227D02*
G01X2338Y6798D01*
G01X2136Y6000D02*
G01X2136Y6798D01*
G01X2136Y8455D02*
G01X2136Y8530D01*
G01X1934Y5452D02*
G01X1934Y6798D01*
G01X1934Y7651D02*
G01X1934Y7711D01*
G01X1934Y8308D02*
G01X1934Y8732D01*
G01X1732Y5444D02*
G01X1732Y6898D01*
G01X1732Y7551D02*
G01X1732Y8934D01*
G01X1530Y5379D02*
G01X1530Y9136D01*
G01X1328Y3229D02*
G01X1328Y3478D01*
G01X1328Y4021D02*
G01X1328Y4270D01*
G01X1328Y5229D02*
G01X1328Y9338D01*
G01X1126Y2610D02*
G01X1126Y9540D01*
G01X924Y2812D02*
G01X924Y9742D01*
G01X722Y4492D02*
G01X722Y9944D01*
G01X520Y4492D02*
G01X520Y10146D01*
G01X318Y4492D02*
G01X318Y10348D01*
G01X3486Y1323D02*
G01X3223Y1323D01*
G01X3250Y1349D02*
G01X3448Y1349D01*
G01X3348Y1323D02*
G01X3348Y1449D01*
G01X4276Y1323D02*
G01X4014Y1323D01*
G01X4051Y1349D02*
G01X4249Y1349D01*
G01X4156Y1323D02*
G01X4156Y1456D01*
G01X2548Y920D02*
G01X4808Y920D01*
G01X4782Y835D02*
G01X4782Y707D01*
G01X4680Y652D02*
G01X4632Y604D01*
G01X4632Y604D02*
G01X4492Y604D01*
G01X4492Y604D02*
G01X4492Y767D01*
G01X4340Y919D02*
G01X3159Y919D01*
G01X3008Y767D02*
G01X3008Y156D01*
G01X3008Y156D02*
G01X2625Y156D01*
G01X2751Y339D02*
G01X3008Y339D01*
G01X2781Y541D02*
G01X3008Y541D01*
G01X2721Y743D02*
G01X3008Y743D01*
G01X4492Y743D02*
G01X4782Y743D01*
G01X4762Y702D02*
G01X4762Y920D01*
G01X4560Y604D02*
G01X4560Y920D01*
G01X4358Y918D02*
G01X4358Y920D01*
G01X4156Y919D02*
G01X4156Y920D01*
G01X3954Y919D02*
G01X3954Y920D01*
G01X3752Y919D02*
G01X3752Y920D01*
G01X3550Y919D02*
G01X3550Y920D01*
G01X3348Y919D02*
G01X3348Y920D01*
G01X3146Y918D02*
G01X3146Y920D01*
G01X2944Y156D02*
G01X2944Y920D01*
G01X2742Y156D02*
G01X2742Y319D01*
G01X2742Y700D02*
G01X2742Y920D01*
G01X14531Y156D02*
G01X13232Y156D01*
G01X13235Y185D02*
G01X13235Y835D01*
G01X13083Y986D02*
G01X13010Y986D01*
G01X13053Y1019D02*
G01X14002Y1967D01*
G01X14153Y1816D02*
G01X14803Y1816D01*
G01X14843Y1822D02*
G01X14843Y468D01*
G01X13235Y339D02*
G01X14815Y339D01*
G01X13235Y541D02*
G01X14843Y541D01*
G01X13235Y743D02*
G01X14843Y743D01*
G01X13187Y945D02*
G01X14843Y945D01*
G01X13181Y1147D02*
G01X14843Y1147D01*
G01X13383Y1349D02*
G01X14843Y1349D01*
G01X13585Y1551D02*
G01X14843Y1551D01*
G01X13787Y1753D02*
G01X14843Y1753D01*
G01X13989Y1955D02*
G01X14002Y1955D01*
G01X14660Y184D02*
G01X14660Y1816D01*
G01X14458Y156D02*
G01X14458Y1816D01*
G01X14256Y156D02*
G01X14256Y1816D01*
G01X14054Y156D02*
G01X14054Y1853D01*
G01X13852Y156D02*
G01X13852Y1818D01*
G01X13650Y156D02*
G01X13650Y1616D01*
G01X13448Y156D02*
G01X13448Y1414D01*
G01X13246Y156D02*
G01X13246Y1212D01*
G01X13044Y986D02*
G01X13044Y1011D01*
G01X4785Y156D02*
G01X4492Y156D01*
G01X4492Y156D02*
G01X4492Y201D01*
G01X4492Y201D02*
G01X4716Y201D01*
G01X4782Y212D02*
G01X4782Y185D01*
G01X4762Y156D02*
G01X4762Y206D01*
G01X4560Y156D02*
G01X4560Y201D01*
G01X9486Y156D02*
G01X5732Y156D01*
G01X5735Y185D02*
G01X5735Y835D01*
G01X5583Y986D02*
G01X5520Y986D01*
G01X5520Y986D02*
G01X6502Y1967D01*
G01X6653Y1816D02*
G01X7303Y1816D01*
G01X7455Y1967D02*
G01X8403Y1019D01*
G01X8546Y960D02*
G01X9650Y960D01*
G01X5735Y339D02*
G01X9361Y339D01*
G01X5735Y541D02*
G01X9330Y541D01*
G01X5735Y743D02*
G01X9390Y743D01*
G01X5687Y945D02*
G01X9612Y945D01*
G01X5681Y1147D02*
G01X8275Y1147D01*
G01X5883Y1349D02*
G01X8073Y1349D01*
G01X6085Y1551D02*
G01X7871Y1551D01*
G01X6287Y1753D02*
G01X7669Y1753D01*
G01X6489Y1955D02*
G01X6502Y1955D01*
G01X7454Y1955D02*
G01X7467Y1955D01*
G01X9610Y944D02*
G01X9610Y960D01*
G01X9408Y156D02*
G01X9408Y247D01*
G01X9408Y772D02*
G01X9408Y960D01*
G01X9206Y156D02*
G01X9206Y960D01*
G01X9004Y156D02*
G01X9004Y960D01*
G01X8802Y156D02*
G01X8802Y960D01*
G01X8600Y156D02*
G01X8600Y960D01*
G01X8398Y156D02*
G01X8398Y1024D01*
G01X8196Y156D02*
G01X8196Y1226D01*
G01X7994Y156D02*
G01X7994Y1428D01*
G01X7792Y156D02*
G01X7792Y1629D01*
G01X7590Y156D02*
G01X7590Y1831D01*
G01X7388Y156D02*
G01X7388Y1842D01*
G01X7186Y156D02*
G01X7186Y1816D01*
G01X6984Y156D02*
G01X6984Y1816D01*
G01X6782Y156D02*
G01X6782Y1816D01*
G01X6580Y156D02*
G01X6580Y1835D01*
G01X6378Y156D02*
G01X6378Y1844D01*
G01X6176Y156D02*
G01X6176Y1642D01*
G01X5974Y156D02*
G01X5974Y1440D01*
G01X5772Y156D02*
G01X5772Y1238D01*
G01X5570Y986D02*
G01X5570Y1036D01*
G01X12285Y156D02*
G01X11992Y156D01*
G01X11992Y156D02*
G01X11992Y201D01*
G01X11992Y201D02*
G01X12216Y201D01*
G01X12282Y212D02*
G01X12282Y185D01*
G01X12236Y156D02*
G01X12236Y202D01*
G01X12034Y156D02*
G01X12034Y201D01*
G01X9961Y960D02*
G01X12349Y960D01*
G01X12282Y835D02*
G01X12282Y707D01*
G01X12180Y652D02*
G01X12132Y604D01*
G01X12132Y604D02*
G01X11992Y604D01*
G01X11992Y604D02*
G01X11992Y767D01*
G01X11840Y919D02*
G01X10659Y919D01*
G01X10508Y767D02*
G01X10508Y156D01*
G01X10508Y156D02*
G01X10125Y156D01*
G01X10251Y339D02*
G01X10508Y339D01*
G01X10281Y541D02*
G01X10508Y541D01*
G01X10221Y743D02*
G01X10508Y743D01*
G01X11992Y743D02*
G01X12282Y743D01*
G01X10000Y945D02*
G01X12329Y945D01*
G01X12236Y691D02*
G01X12236Y960D01*
G01X12034Y604D02*
G01X12034Y960D01*
G01X11832Y919D02*
G01X11832Y960D01*
G01X11630Y919D02*
G01X11630Y960D01*
G01X11428Y919D02*
G01X11428Y960D01*
G01X11226Y919D02*
G01X11226Y960D01*
G01X11024Y919D02*
G01X11024Y960D01*
G01X10822Y919D02*
G01X10822Y960D01*
G01X10620Y914D02*
G01X10620Y960D01*
G01X10418Y156D02*
G01X10418Y960D01*
G01X10216Y156D02*
G01X10216Y268D01*
G01X10216Y751D02*
G01X10216Y960D01*
G01X10014Y938D02*
G01X10014Y960D01*
G01X156Y468D02*
G01X156Y3007D01*
G01X156Y3007D02*
G01X206Y3007D01*
G01X261Y2905D02*
G01X2187Y979D01*
G01X1986Y156D02*
G01X468Y156D01*
G01X184Y339D02*
G01X1861Y339D01*
G01X156Y541D02*
G01X1830Y541D01*
G01X156Y743D02*
G01X1890Y743D01*
G01X156Y945D02*
G01X2112Y945D01*
G01X156Y1147D02*
G01X2020Y1147D01*
G01X156Y1349D02*
G01X1818Y1349D01*
G01X156Y1551D02*
G01X1616Y1551D01*
G01X156Y1753D02*
G01X1414Y1753D01*
G01X156Y1955D02*
G01X1212Y1955D01*
G01X156Y2157D02*
G01X1010Y2157D01*
G01X156Y2359D02*
G01X808Y2359D01*
G01X156Y2561D02*
G01X606Y2561D01*
G01X156Y2763D02*
G01X404Y2763D01*
G01X156Y2965D02*
G01X220Y2965D01*
G01X2136Y955D02*
G01X2136Y1030D01*
G01X1934Y156D02*
G01X1934Y211D01*
G01X1934Y808D02*
G01X1934Y1232D01*
G01X1732Y156D02*
G01X1732Y1434D01*
G01X1530Y156D02*
G01X1530Y1636D01*
G01X1328Y156D02*
G01X1328Y1838D01*
G01X1126Y156D02*
G01X1126Y2040D01*
G01X924Y156D02*
G01X924Y2242D01*
G01X722Y156D02*
G01X722Y2444D01*
G01X520Y156D02*
G01X520Y2646D01*
G01X318Y194D02*
G01X318Y2848D01*

%LPD*%
G36*
G01X2713Y7386D02*
G01X2698Y7386D01*
G01X2684Y7384D01*
G01X2672Y7380D01*
G01X2661Y7375D01*
G01X2651Y7368D01*
G01X2641Y7359D01*
G01X2632Y7350D01*
G01X2623Y7338D01*
G01X2623Y7380D01*
G01X2575Y7380D01*
G01X2575Y6950D01*
G01X2627Y6950D01*
G01X2627Y7101D01*
G01X2634Y7092D01*
G01X2652Y7078D01*
G01X2662Y7073D01*
G01X2673Y7068D01*
G01X2684Y7064D01*
G01X2696Y7062D01*
G01X2709Y7061D01*
G01X2727Y7063D01*
G01X2744Y7067D01*
G01X2761Y7073D01*
G01X2778Y7082D01*
G01X2793Y7093D01*
G01X2807Y7106D01*
G01X2818Y7122D01*
G01X2828Y7140D01*
G01X2835Y7160D01*
G01X2841Y7181D01*
G01X2844Y7203D01*
G01X2845Y7226D01*
G01X2844Y7248D01*
G01X2841Y7269D01*
G01X2836Y7289D01*
G01X2829Y7309D01*
G01X2820Y7326D01*
G01X2810Y7341D01*
G01X2797Y7355D01*
G01X2783Y7365D01*
G01X2767Y7375D01*
G01X2750Y7381D01*
G01X2732Y7385D01*
G01X2713Y7386D01*
G37*

%LPC*%
G36*
G01X2724Y7344D02*
G01X2708Y7346D01*
G01X2691Y7344D01*
G01X2676Y7338D01*
G01X2661Y7328D01*
G01X2648Y7313D01*
G01X2628Y7275D01*
G01X2622Y7223D01*
G01X2623Y7194D01*
G01X2628Y7170D01*
G01X2636Y7150D01*
G01X2647Y7134D01*
G01X2659Y7121D01*
G01X2674Y7112D01*
G01X2689Y7106D01*
G01X2706Y7105D01*
G01X2723Y7106D01*
G01X2738Y7112D01*
G01X2753Y7121D01*
G01X2766Y7134D01*
G01X2785Y7173D01*
G01X2791Y7226D01*
G01X2789Y7254D01*
G01X2785Y7278D01*
G01X2777Y7299D01*
G01X2766Y7315D01*
G01X2753Y7329D01*
G01X2739Y7338D01*
G01X2724Y7344D01*
G37*

%LPD*%
G36*
G01X2383Y7499D02*
G01X2366Y7500D01*
G01X2344Y7498D01*
G01X2324Y7493D01*
G01X2305Y7486D01*
G01X2289Y7475D01*
G01X2274Y7461D01*
G01X2262Y7444D01*
G01X2251Y7425D01*
G01X2242Y7403D01*
G01X2230Y7349D01*
G01X2226Y7280D01*
G01X2228Y7224D01*
G01X2237Y7176D01*
G01X2250Y7137D01*
G01X2269Y7105D01*
G01X2311Y7072D01*
G01X2366Y7061D01*
G01X2389Y7062D01*
G01X2409Y7067D01*
G01X2428Y7075D01*
G01X2444Y7086D01*
G01X2458Y7100D01*
G01X2471Y7117D01*
G01X2482Y7136D01*
G01X2491Y7159D01*
G01X2502Y7212D01*
G01X2506Y7280D01*
G01X2504Y7337D01*
G01X2497Y7382D01*
G01X2491Y7400D01*
G01X2485Y7417D01*
G01X2478Y7432D01*
G01X2470Y7446D01*
G01X2461Y7458D01*
G01X2451Y7469D01*
G01X2439Y7478D01*
G01X2427Y7486D01*
G01X2413Y7492D01*
G01X2399Y7496D01*
G01X2383Y7499D01*
G37*

%LPC*%
G36*
G01X2383Y7453D02*
G01X2366Y7455D01*
G01X2348Y7454D01*
G01X2333Y7448D01*
G01X2319Y7439D01*
G01X2308Y7426D01*
G01X2296Y7401D01*
G01X2288Y7369D01*
G01X2282Y7329D01*
G01X2281Y7280D01*
G01X2287Y7192D01*
G01X2305Y7140D01*
G01X2318Y7124D01*
G01X2333Y7113D01*
G01X2348Y7107D01*
G01X2366Y7105D01*
G01X2383Y7107D01*
G01X2400Y7113D01*
G01X2414Y7124D01*
G01X2427Y7140D01*
G01X2446Y7192D01*
G01X2452Y7280D01*
G01X2446Y7369D01*
G01X2427Y7421D01*
G01X2414Y7436D01*
G01X2400Y7447D01*
G01X2383Y7453D01*
G37*

%LPD*%
G36*
G01X5562Y7498D02*
G01X5509Y7498D01*
G01X5509Y7069D01*
G01X5558Y7069D01*
G01X5558Y7107D01*
G01X5596Y7073D01*
G01X5645Y7061D01*
G01X5696Y7072D01*
G01X5740Y7105D01*
G01X5769Y7157D01*
G01X5779Y7228D01*
G01X5778Y7245D01*
G01X5777Y7261D01*
G01X5774Y7277D01*
G01X5770Y7292D01*
G01X5764Y7306D01*
G01X5758Y7319D01*
G01X5751Y7332D01*
G01X5744Y7342D01*
G01X5735Y7352D01*
G01X5725Y7361D01*
G01X5714Y7368D01*
G01X5702Y7375D01*
G01X5689Y7380D01*
G01X5675Y7384D01*
G01X5661Y7386D01*
G01X5647Y7386D01*
G01X5600Y7376D01*
G01X5562Y7344D01*
G01X5562Y7498D01*
G37*

%LPC*%
G36*
G01X5659Y7342D02*
G01X5643Y7344D01*
G01X5626Y7342D01*
G01X5610Y7336D01*
G01X5596Y7327D01*
G01X5583Y7313D01*
G01X5572Y7296D01*
G01X5564Y7276D01*
G01X5559Y7253D01*
G01X5558Y7226D01*
G01X5559Y7201D01*
G01X5562Y7178D01*
G01X5566Y7160D01*
G01X5573Y7146D01*
G01X5586Y7128D01*
G01X5602Y7115D01*
G01X5620Y7107D01*
G01X5640Y7105D01*
G01X5657Y7106D01*
G01X5672Y7112D01*
G01X5687Y7121D01*
G01X5700Y7134D01*
G01X5711Y7151D01*
G01X5719Y7172D01*
G01X5723Y7196D01*
G01X5725Y7225D01*
G01X5723Y7253D01*
G01X5719Y7278D01*
G01X5711Y7298D01*
G01X5701Y7315D01*
G01X5688Y7327D01*
G01X5674Y7336D01*
G01X5659Y7342D01*
G37*

%LPD*%
G36*
G01X5228Y7380D02*
G01X5175Y7380D01*
G01X5175Y7171D01*
G01X5176Y7157D01*
G01X5176Y7146D01*
G01X5181Y7126D01*
G01X5184Y7116D01*
G01X5194Y7098D01*
G01X5201Y7091D01*
G01X5209Y7084D01*
G01X5219Y7077D01*
G01X5230Y7071D01*
G01X5242Y7067D01*
G01X5255Y7064D01*
G01X5267Y7062D01*
G01X5281Y7061D01*
G01X5337Y7075D01*
G01X5380Y7113D01*
G01X5380Y7069D01*
G01X5427Y7069D01*
G01X5427Y7380D01*
G01X5374Y7380D01*
G01X5374Y7213D01*
G01X5373Y7194D01*
G01X5372Y7177D01*
G01X5369Y7163D01*
G01X5366Y7151D01*
G01X5361Y7142D01*
G01X5354Y7133D01*
G01X5346Y7125D01*
G01X5336Y7119D01*
G01X5325Y7113D01*
G01X5314Y7109D01*
G01X5303Y7107D01*
G01X5280Y7107D01*
G01X5270Y7109D01*
G01X5260Y7113D01*
G01X5244Y7125D01*
G01X5239Y7133D01*
G01X5234Y7142D01*
G01X5231Y7151D01*
G01X5229Y7160D01*
G01X5229Y7172D01*
G01X5228Y7188D01*
G01X5228Y7380D01*
G37*

%LPD*%
G36*
G01X4892Y7385D02*
G01X4868Y7386D01*
G01X4848Y7385D01*
G01X4829Y7382D01*
G01X4811Y7376D01*
G01X4794Y7367D01*
G01X4778Y7357D01*
G01X4764Y7344D01*
G01X4752Y7328D01*
G01X4743Y7311D01*
G01X4736Y7291D01*
G01X4731Y7270D01*
G01X4728Y7247D01*
G01X4727Y7223D01*
G01X4736Y7153D01*
G01X4765Y7103D01*
G01X4810Y7072D01*
G01X4868Y7061D01*
G01X4892Y7063D01*
G01X4915Y7069D01*
G01X4935Y7078D01*
G01X4954Y7092D01*
G01X4982Y7128D01*
G01X4998Y7176D01*
G01X4946Y7182D01*
G01X4942Y7164D01*
G01X4936Y7148D01*
G01X4928Y7134D01*
G01X4919Y7123D01*
G01X4908Y7115D01*
G01X4896Y7109D01*
G01X4882Y7106D01*
G01X4867Y7105D01*
G01X4849Y7106D01*
G01X4832Y7111D01*
G01X4818Y7120D01*
G01X4805Y7132D01*
G01X4787Y7170D01*
G01X4781Y7225D01*
G01X4782Y7253D01*
G01X4787Y7278D01*
G01X4795Y7298D01*
G01X4806Y7315D01*
G01X4819Y7327D01*
G01X4834Y7336D01*
G01X4851Y7342D01*
G01X4870Y7344D01*
G01X4883Y7342D01*
G01X4895Y7340D01*
G01X4915Y7328D01*
G01X4924Y7319D01*
G01X4931Y7308D01*
G01X4937Y7295D01*
G01X4941Y7280D01*
G01X4993Y7288D01*
G01X4986Y7310D01*
G01X4977Y7330D01*
G01X4965Y7346D01*
G01X4951Y7361D01*
G01X4934Y7372D01*
G01X4914Y7380D01*
G01X4892Y7385D01*
G37*

%LPD*%
G36*
G01X3926Y7376D02*
G01X3870Y7386D01*
G01X3811Y7376D01*
G01X3765Y7344D01*
G01X3734Y7291D01*
G01X3724Y7221D01*
G01X3734Y7154D01*
G01X3764Y7103D01*
G01X3811Y7072D01*
G01X3873Y7061D01*
G01X3899Y7063D01*
G01X3922Y7068D01*
G01X3943Y7076D01*
G01X3962Y7088D01*
G01X3977Y7102D01*
G01X3991Y7119D01*
G01X4001Y7139D01*
G01X4009Y7161D01*
G01X3955Y7169D01*
G01X3948Y7153D01*
G01X3941Y7140D01*
G01X3932Y7128D01*
G01X3922Y7119D01*
G01X3911Y7113D01*
G01X3900Y7108D01*
G01X3887Y7105D01*
G01X3873Y7105D01*
G01X3854Y7106D01*
G01X3837Y7111D01*
G01X3822Y7120D01*
G01X3808Y7132D01*
G01X3796Y7147D01*
G01X3788Y7165D01*
G01X3782Y7186D01*
G01X3779Y7211D01*
G01X4011Y7211D01*
G01X4011Y7225D01*
G01X4001Y7293D01*
G01X3972Y7344D01*
G01X3926Y7376D01*
G37*

%LPC*%
G36*
G01X3889Y7342D02*
G01X3870Y7344D01*
G01X3852Y7342D01*
G01X3837Y7337D01*
G01X3822Y7330D01*
G01X3809Y7319D01*
G01X3798Y7305D01*
G01X3790Y7290D01*
G01X3784Y7273D01*
G01X3782Y7253D01*
G01X3955Y7253D01*
G01X3952Y7272D01*
G01X3949Y7288D01*
G01X3943Y7301D01*
G01X3936Y7313D01*
G01X3922Y7326D01*
G01X3906Y7336D01*
G01X3889Y7342D01*
G37*

%LPD*%
G36*
G01X3592Y7385D02*
G01X3568Y7386D01*
G01X3548Y7385D01*
G01X3529Y7382D01*
G01X3510Y7376D01*
G01X3493Y7367D01*
G01X3477Y7357D01*
G01X3463Y7344D01*
G01X3451Y7328D01*
G01X3442Y7311D01*
G01X3435Y7291D01*
G01X3430Y7270D01*
G01X3427Y7247D01*
G01X3426Y7223D01*
G01X3436Y7153D01*
G01X3465Y7103D01*
G01X3509Y7072D01*
G01X3567Y7061D01*
G01X3591Y7063D01*
G01X3614Y7069D01*
G01X3634Y7078D01*
G01X3653Y7092D01*
G01X3681Y7128D01*
G01X3697Y7176D01*
G01X3645Y7182D01*
G01X3641Y7164D01*
G01X3635Y7148D01*
G01X3628Y7134D01*
G01X3619Y7123D01*
G01X3608Y7115D01*
G01X3595Y7109D01*
G01X3582Y7106D01*
G01X3567Y7105D01*
G01X3548Y7106D01*
G01X3532Y7111D01*
G01X3517Y7120D01*
G01X3504Y7132D01*
G01X3486Y7170D01*
G01X3480Y7225D01*
G01X3481Y7253D01*
G01X3486Y7278D01*
G01X3494Y7298D01*
G01X3505Y7315D01*
G01X3518Y7327D01*
G01X3534Y7336D01*
G01X3551Y7342D01*
G01X3570Y7344D01*
G01X3594Y7340D01*
G01X3605Y7334D01*
G01X3615Y7328D01*
G01X3623Y7319D01*
G01X3630Y7308D01*
G01X3636Y7295D01*
G01X3641Y7280D01*
G01X3692Y7288D01*
G01X3686Y7310D01*
G01X3677Y7330D01*
G01X3665Y7346D01*
G01X3650Y7361D01*
G01X3633Y7372D01*
G01X3613Y7380D01*
G01X3592Y7385D01*
G37*

%LPD*%
G36*
G01X3093Y7376D02*
G01X3036Y7386D01*
G01X2978Y7376D01*
G01X2931Y7344D01*
G01X2901Y7291D01*
G01X2891Y7221D01*
G01X2901Y7154D01*
G01X2931Y7103D01*
G01X2978Y7072D01*
G01X3039Y7061D01*
G01X3065Y7063D01*
G01X3088Y7068D01*
G01X3109Y7076D01*
G01X3128Y7088D01*
G01X3144Y7102D01*
G01X3157Y7119D01*
G01X3168Y7139D01*
G01X3176Y7161D01*
G01X3121Y7169D01*
G01X3114Y7153D01*
G01X3107Y7140D01*
G01X3098Y7128D01*
G01X3089Y7119D01*
G01X3078Y7113D01*
G01X3066Y7108D01*
G01X3053Y7105D01*
G01X3039Y7105D01*
G01X3020Y7106D01*
G01X3003Y7111D01*
G01X2988Y7120D01*
G01X2974Y7132D01*
G01X2962Y7147D01*
G01X2954Y7165D01*
G01X2948Y7186D01*
G01X2945Y7211D01*
G01X3177Y7211D01*
G01X3177Y7215D01*
G01X3178Y7219D01*
G01X3178Y7225D01*
G01X3168Y7293D01*
G01X3138Y7344D01*
G01X3093Y7376D01*
G37*

%LPC*%
G36*
G01X3056Y7342D02*
G01X3037Y7344D01*
G01X3019Y7342D01*
G01X3003Y7337D01*
G01X2989Y7330D01*
G01X2976Y7319D01*
G01X2965Y7305D01*
G01X2956Y7290D01*
G01X2951Y7273D01*
G01X2948Y7253D01*
G01X3122Y7253D01*
G01X3119Y7272D01*
G01X3115Y7288D01*
G01X3109Y7301D01*
G01X3102Y7313D01*
G01X3088Y7326D01*
G01X3073Y7336D01*
G01X3056Y7342D01*
G37*

%LPD*%
G36*
G01X4471Y7380D02*
G01X4471Y7488D01*
G01X4419Y7457D01*
G01X4419Y7380D01*
G01X4380Y7380D01*
G01X4380Y7338D01*
G01X4419Y7338D01*
G01X4419Y7138D01*
G01X4420Y7120D01*
G01X4422Y7107D01*
G01X4425Y7098D01*
G01X4429Y7090D01*
G01X4434Y7084D01*
G01X4440Y7078D01*
G01X4448Y7073D01*
G01X4456Y7069D01*
G01X4466Y7067D01*
G01X4478Y7065D01*
G01X4511Y7065D01*
G01X4521Y7067D01*
G01X4532Y7069D01*
G01X4524Y7115D01*
G01X4517Y7115D01*
G01X4511Y7114D01*
G01X4506Y7114D01*
G01X4501Y7113D01*
G01X4491Y7115D01*
G01X4483Y7117D01*
G01X4480Y7119D01*
G01X4475Y7124D01*
G01X4474Y7128D01*
G01X4472Y7132D01*
G01X4472Y7138D01*
G01X4471Y7146D01*
G01X4471Y7338D01*
G01X4524Y7338D01*
G01X4524Y7380D01*
G01X4471Y7380D01*
G37*

%LPD*%
G36*
G01X5094Y7498D02*
G01X5041Y7498D01*
G01X5041Y7069D01*
G01X5094Y7069D01*
G01X5094Y7498D01*
G37*

%LPD*%
G36*
G01X4651Y7128D02*
G01X4591Y7128D01*
G01X4591Y7069D01*
G01X4651Y7069D01*
G01X4651Y7128D01*
G37*

%LPD*%
G36*
G01X4236Y7386D02*
G01X4222Y7386D01*
G01X4165Y7374D01*
G01X4123Y7336D01*
G01X4123Y7380D01*
G01X4076Y7380D01*
G01X4076Y7069D01*
G01X4128Y7069D01*
G01X4128Y7238D01*
G01X4129Y7266D01*
G01X4134Y7288D01*
G01X4142Y7306D01*
G01X4153Y7319D01*
G01X4165Y7329D01*
G01X4179Y7335D01*
G01X4194Y7339D01*
G01X4211Y7340D01*
G01X4221Y7340D01*
G01X4231Y7338D01*
G01X4239Y7336D01*
G01X4248Y7332D01*
G01X4255Y7326D01*
G01X4261Y7320D01*
G01X4266Y7313D01*
G01X4270Y7305D01*
G01X4272Y7296D01*
G01X4274Y7286D01*
G01X4275Y7273D01*
G01X4276Y7257D01*
G01X4276Y7069D01*
G01X4328Y7069D01*
G01X4328Y7276D01*
G01X4327Y7291D01*
G01X4326Y7302D01*
G01X4325Y7311D01*
G01X4322Y7321D01*
G01X4319Y7332D01*
G01X4309Y7350D01*
G01X4294Y7365D01*
G01X4285Y7371D01*
G01X4274Y7376D01*
G01X4262Y7381D01*
G01X4249Y7384D01*
G01X4236Y7386D01*
G37*

%LPD*%
G36*
G01X3369Y7386D02*
G01X3347Y7386D01*
G01X3338Y7384D01*
G01X3322Y7376D01*
G01X3314Y7369D01*
G01X3306Y7360D01*
G01X3298Y7348D01*
G01X3289Y7332D01*
G01X3289Y7380D01*
G01X3241Y7380D01*
G01X3241Y7069D01*
G01X3294Y7069D01*
G01X3294Y7248D01*
G01X3296Y7263D01*
G01X3299Y7278D01*
G01X3303Y7292D01*
G01X3306Y7301D01*
G01X3311Y7309D01*
G01X3316Y7316D01*
G01X3330Y7326D01*
G01X3337Y7329D01*
G01X3345Y7331D01*
G01X3354Y7332D01*
G01X3363Y7331D01*
G01X3373Y7329D01*
G01X3382Y7325D01*
G01X3392Y7321D01*
G01X3411Y7369D01*
G01X3397Y7377D01*
G01X3383Y7382D01*
G01X3369Y7386D01*
G37*

%LPD*%
G36*
G01X2114Y7498D02*
G01X2071Y7498D01*
G01X1875Y7219D01*
G01X1875Y7171D01*
G01X2062Y7171D01*
G01X2062Y7069D01*
G01X2114Y7069D01*
G01X2114Y7171D01*
G01X2172Y7171D01*
G01X2172Y7219D01*
G01X2114Y7219D01*
G01X2114Y7498D01*
G37*

%LPC*%
G36*
G01X2062Y7219D02*
G01X2062Y7413D01*
G01X1927Y7219D01*
G01X2062Y7219D01*
G37*

%LPD*%
G75*
G01X4048Y12843D02*
G03X4048Y12826I702J0D01*
G01*
G75*
G01X4019Y12826D02*
G03X4048Y12846I-269J424D01*
G01*
G75*
G01X11548Y12843D02*
G03X11548Y12826I702J0D01*
G01*
G75*
G01X11519Y12826D02*
G03X11548Y12846I-269J424D01*
G01*
G75*
G01X10859Y12492D02*
G03X10953Y12843I-609J351D01*
G01*
G75*
G01X10953Y12846D02*
G03X11130Y12763I297J404D01*
G01*
G75*
G01X3359Y12492D02*
G03X3453Y12843I-609J351D01*
G01*
G75*
G01X3453Y12846D02*
G03X3630Y12763I297J404D01*
G01*
G75*
G01X14233Y11992D02*
G03X14175Y11981I0J-151D01*
G01*
G75*
G01X14316Y12298D02*
G03X14479Y12270I163J448D01*
G01*
G75*
G01X14479Y12270D02*
G03X14844Y12440I0J476D01*
G01*
G75*
G01X10267Y11899D02*
G03X10353Y12147I-609J351D01*
G01*
G75*
G01X10353Y12147D02*
G03X10601Y12234I-103J696D01*
G01*
G75*
G01X2767Y11899D02*
G03X2853Y12147I-609J351D01*
G01*
G75*
G01X2853Y12147D02*
G03X3101Y12234I-103J696D01*
G01*
G75*
G01X9737Y11370D02*
G03X9654Y11547I-487J-120D01*
G01*
G75*
G01X9658Y11547D02*
G03X10008Y11641I0J703D01*
G01*
G75*
G01X2237Y11370D02*
G03X2154Y11547I-487J-120D01*
G01*
G75*
G01X2158Y11547D02*
G03X2508Y11641I0J703D01*
G01*
G75*
G01X13751Y11285D02*
G03X13539Y11660I-501J-35D01*
G01*
G75*
G01X13539Y11660D02*
G03X13772Y11908I-381J590D01*
G01*
G75*
G01X10953Y9657D02*
G03X10353Y10353I-703J0D01*
G01*
G75*
G01X10353Y10353D02*
G03X9860Y10923I-695J-103D01*
G01*
G75*
G01X10306Y11369D02*
G03X10299Y11250I944J-119D01*
G01*
G75*
G01X10299Y11250D02*
G03X11250Y10299I951J0D01*
G01*
G75*
G01X11250Y10299D02*
G03X12202Y11250I0J951D01*
G01*
G75*
G01X12202Y11250D02*
G03X11250Y12201I-952J0D01*
G01*
G75*
G01X11250Y12201D02*
G03X11131Y12194I0J-951D01*
G01*
G75*
G01X11686Y12424D02*
G03X12148Y12147I564J419D01*
G01*
G75*
G01X12148Y12147D02*
G03X12843Y11547I695J103D01*
G01*
G75*
G01X12846Y11547D02*
G03X12749Y11250I404J-297D01*
G01*
G75*
G01X12749Y11250D02*
G03X12846Y10953I501J0D01*
G01*
G75*
G01X12843Y10953D02*
G03X12148Y10353I0J-703D01*
G01*
G75*
G01X12148Y10353D02*
G03X11548Y9657I102J-696D01*
G01*
G75*
G01X11548Y9654D02*
G03X11250Y9751I-298J-404D01*
G01*
G75*
G01X11250Y9751D02*
G03X10953Y9654I0J-501D01*
G01*
G75*
G01X3453Y9657D02*
G03X2853Y10353I-703J0D01*
G01*
G75*
G01X2853Y10353D02*
G03X2360Y10923I-695J-103D01*
G01*
G75*
G01X2806Y11369D02*
G03X2799Y11250I944J-119D01*
G01*
G75*
G01X2799Y11250D02*
G03X3750Y10299I951J0D01*
G01*
G75*
G01X3750Y10299D02*
G03X4702Y11250I0J951D01*
G01*
G75*
G01X4702Y11250D02*
G03X3750Y12201I-952J0D01*
G01*
G75*
G01X3750Y12201D02*
G03X3631Y12194I0J-951D01*
G01*
G75*
G01X4186Y12424D02*
G03X4648Y12147I564J419D01*
G01*
G75*
G01X4648Y12147D02*
G03X5343Y11547I695J103D01*
G01*
G75*
G01X5346Y11547D02*
G03X5249Y11250I404J-297D01*
G01*
G75*
G01X5249Y11250D02*
G03X5346Y10953I501J0D01*
G01*
G75*
G01X5343Y10953D02*
G03X4648Y10353I0J-703D01*
G01*
G75*
G01X4648Y10353D02*
G03X4048Y9657I102J-696D01*
G01*
G75*
G01X4048Y9654D02*
G03X3750Y9751I-298J-404D01*
G01*
G75*
G01X3750Y9751D02*
G03X3453Y9654I0J-501D01*
G01*
G75*
G01X1668Y9569D02*
G03X1843Y9547I175J681D01*
G01*
G75*
G01X2048Y9343D02*
G03X2070Y9167I702J0D01*
G01*
G75*
G01X11570Y8864D02*
G03X11660Y8961I-320J386D01*
G01*
G75*
G01X11660Y8961D02*
G03X11736Y8864I590J382D01*
G01*
G75*
G01X10764Y8864D02*
G03X10840Y8961I-514J479D01*
G01*
G75*
G01X10840Y8961D02*
G03X10931Y8864I410J289D01*
G01*
G75*
G01X12764Y8864D02*
G03X12953Y9343I-514J479D01*
G01*
G75*
G01X13158Y9547D02*
G03X13860Y10250I0J703D01*
G01*
G75*
G01X13860Y10250D02*
G03X13714Y10679I-702J0D01*
G01*
G75*
G01X14081Y10659D02*
G03X14233Y10508I152J0D01*
G01*
G75*
G01X14844Y10264D02*
G03X14804Y10270I-40J-146D01*
G01*
G75*
G01X14154Y10270D02*
G03X14002Y10118I0J-152D01*
G01*
G75*
G01X14002Y9990D02*
G03X13900Y9935I40J-197D01*
G01*
G75*
G01X5245Y8843D02*
G03X5453Y9343I-495J500D01*
G01*
G75*
G01X5658Y9547D02*
G03X6360Y10250I0J703D01*
G01*
G75*
G01X6360Y10250D02*
G03X6214Y10679I-702J0D01*
G01*
G75*
G01X7121Y11586D02*
G03X7180Y11728I-143J142D01*
G01*
G75*
G01X7180Y12314D02*
G03X7455Y12746I-201J432D01*
G01*
G75*
G01X7455Y12746D02*
G03X6979Y13223I-476J0D01*
G01*
G75*
G01X6979Y13223D02*
G03X6502Y12746I0J-477D01*
G01*
G75*
G01X6502Y12746D02*
G03X6777Y12314I477J0D01*
G01*
G75*
G01X6251Y11285D02*
G03X6039Y11660I-501J-35D01*
G01*
G75*
G01X6039Y11660D02*
G03X6360Y12250I-381J590D01*
G01*
G75*
G01X6360Y12250D02*
G03X5658Y12953I-702J0D01*
G01*
G75*
G01X5453Y13157D02*
G03X4750Y13860I-703J0D01*
G01*
G75*
G01X4750Y13860D02*
G03X4160Y13539I0J-703D01*
G01*
G75*
G01X4160Y13539D02*
G03X3750Y13751I-410J-289D01*
G01*
G75*
G01X3750Y13751D02*
G03X3340Y13539I0J-501D01*
G01*
G75*
G01X3340Y13539D02*
G03X2750Y13860I-590J-382D01*
G01*
G75*
G01X2750Y13860D02*
G03X2048Y13157I0J-703D01*
G01*
G75*
G01X1843Y12953D02*
G03X1140Y12250I0J-703D01*
G01*
G75*
G01X1140Y12250D02*
G03X1461Y11660I703J0D01*
G01*
G75*
G01X1461Y11660D02*
G03X1249Y11250I289J-410D01*
G01*
G75*
G01X1249Y11250D02*
G03X1461Y10840I501J0D01*
G01*
G75*
G01X1461Y10840D02*
G03X1140Y10250I382J-590D01*
G01*
G75*
G01X1140Y10250D02*
G03X1162Y10075I703J0D01*
G01*
G75*
G01X768Y10508D02*
G03X919Y10659I0J151D01*
G01*
G75*
G01X919Y11841D02*
G03X768Y11992I-151J0D01*
G01*
G75*
G01X156Y14531D02*
G02X469Y14843I313J0D01*
G01*
G75*
G01X3008Y14232D02*
G03X3160Y14081I152J0D01*
G01*
G75*
G01X4341Y14081D02*
G03X4492Y14232I0J151D01*
G01*
G75*
G01X10508Y14232D02*
G03X10660Y14081I152J0D01*
G01*
G75*
G01X11841Y14081D02*
G03X11992Y14232I0J151D01*
G01*
G75*
G01X14531Y14843D02*
G02X14844Y14531I0J-312D01*
G01*
G75*
G01X14844Y13053D02*
G03X14479Y13223I-365J-307D01*
G01*
G75*
G01X14479Y13223D02*
G03X14002Y12746I0J-477D01*
G01*
G75*
G01X14002Y12746D02*
G03X14031Y12583I477J0D01*
G01*
G75*
G01X13845Y12397D02*
G03X13158Y12953I-687J-147D01*
G01*
G75*
G01X12953Y13157D02*
G03X12250Y13860I-703J0D01*
G01*
G75*
G01X12250Y13860D02*
G03X11660Y13539I0J-703D01*
G01*
G75*
G01X11660Y13539D02*
G03X11250Y13751I-410J-289D01*
G01*
G75*
G01X11250Y13751D02*
G03X10840Y13539I0J-501D01*
G01*
G75*
G01X10840Y13539D02*
G03X10250Y13860I-590J-382D01*
G01*
G75*
G01X10250Y13860D02*
G03X9548Y13157I0J-703D01*
G01*
G75*
G01X9343Y12953D02*
G03X8640Y12250I0J-703D01*
G01*
G75*
G01X8640Y12250D02*
G03X8961Y11660I703J0D01*
G01*
G75*
G01X8961Y11660D02*
G03X8749Y11250I289J-410D01*
G01*
G75*
G01X8749Y11250D02*
G03X8961Y10840I501J0D01*
G01*
G75*
G01X8961Y10840D02*
G03X8640Y10250I382J-590D01*
G01*
G75*
G01X8640Y10250D02*
G03X9343Y9547I703J0D01*
G01*
G75*
G01X9548Y9343D02*
G03X9736Y8864I702J0D01*
G01*
G75*
G01X7557Y9936D02*
G03X7455Y9990I-143J-143D01*
G01*
G75*
G01X7455Y10118D02*
G03X7304Y10270I-151J0D01*
G01*
G75*
G01X6654Y10270D02*
G03X6502Y10118I0J-152D01*
G01*
G75*
G01X6502Y9990D02*
G03X6400Y9935I40J-197D01*
G01*
G75*
G01X3245Y8843D02*
G03X3340Y8961I-495J500D01*
G01*
G75*
G01X3340Y8961D02*
G03X3457Y8843I410J289D01*
G01*
G75*
G01X4044Y8843D02*
G03X4160Y8961I-294J407D01*
G01*
G75*
G01X4160Y8961D02*
G03X4256Y8843I590J382D01*
G01*
G75*
G01X2620Y7651D02*
G03X2783Y8010I-314J359D01*
G01*
G75*
G01X2783Y8010D02*
G03X2510Y8441I-477J0D01*
G01*
G75*
G01X4825Y8441D02*
G03X4782Y8335I109J-106D01*
G01*
G75*
G01X4782Y7685D02*
G03X4786Y7651I152J0D01*
G01*
G75*
G01X11548Y5343D02*
G03X11548Y5326I702J0D01*
G01*
G75*
G01X11519Y5326D02*
G03X11548Y5346I-269J424D01*
G01*
G75*
G01X4048Y5343D02*
G03X4048Y5326I702J0D01*
G01*
G75*
G01X4019Y5326D02*
G03X4048Y5346I-269J424D01*
G01*
G75*
G01X10859Y4992D02*
G03X10953Y5343I-609J351D01*
G01*
G75*
G01X10953Y5346D02*
G03X11130Y5263I297J404D01*
G01*
G75*
G01X3359Y4992D02*
G03X3453Y5343I-609J351D01*
G01*
G75*
G01X3453Y5346D02*
G03X3630Y5263I297J404D01*
G01*
G75*
G01X14233Y4492D02*
G03X14175Y4481I0J-151D01*
G01*
G75*
G01X14316Y4798D02*
G03X14479Y4770I163J448D01*
G01*
G75*
G01X14479Y4770D02*
G03X14844Y4940I0J476D01*
G01*
G75*
G01X10267Y4399D02*
G03X10353Y4647I-609J351D01*
G01*
G75*
G01X10353Y4647D02*
G03X10601Y4734I-103J696D01*
G01*
G75*
G01X2767Y4399D02*
G03X2853Y4647I-609J351D01*
G01*
G75*
G01X2853Y4647D02*
G03X3101Y4734I-103J696D01*
G01*
G75*
G01X9737Y3870D02*
G03X9654Y4047I-487J-120D01*
G01*
G75*
G01X9658Y4047D02*
G03X10008Y4141I0J703D01*
G01*
G75*
G01X2237Y3870D02*
G03X2154Y4047I-487J-120D01*
G01*
G75*
G01X2158Y4047D02*
G03X2508Y4141I0J703D01*
G01*
G75*
G01X13751Y3785D02*
G03X13539Y4160I-501J-35D01*
G01*
G75*
G01X13539Y4160D02*
G03X13772Y4408I-381J590D01*
G01*
G75*
G01X11548Y2154D02*
G03X11250Y2251I-298J-404D01*
G01*
G75*
G01X11250Y2251D02*
G03X10953Y2154I0J-501D01*
G01*
G75*
G01X10953Y2157D02*
G03X10353Y2853I-703J0D01*
G01*
G75*
G01X10353Y2853D02*
G03X9860Y3423I-695J-103D01*
G01*
G75*
G01X10306Y3869D02*
G03X10299Y3750I944J-119D01*
G01*
G75*
G01X10299Y3750D02*
G03X11250Y2799I951J0D01*
G01*
G75*
G01X11250Y2799D02*
G03X12202Y3750I0J951D01*
G01*
G75*
G01X12202Y3750D02*
G03X11250Y4701I-952J0D01*
G01*
G75*
G01X11250Y4701D02*
G03X11131Y4694I0J-951D01*
G01*
G75*
G01X11686Y4924D02*
G03X12148Y4647I564J419D01*
G01*
G75*
G01X12148Y4647D02*
G03X12843Y4047I695J103D01*
G01*
G75*
G01X12846Y4047D02*
G03X12749Y3750I404J-297D01*
G01*
G75*
G01X12749Y3750D02*
G03X12846Y3453I501J0D01*
G01*
G75*
G01X12843Y3453D02*
G03X12148Y2853I0J-703D01*
G01*
G75*
G01X12148Y2853D02*
G03X11548Y2157I102J-696D01*
G01*
G75*
G01X3453Y2157D02*
G03X2853Y2853I-703J0D01*
G01*
G75*
G01X2853Y2853D02*
G03X2360Y3423I-695J-103D01*
G01*
G75*
G01X2806Y3869D02*
G03X2799Y3750I944J-119D01*
G01*
G75*
G01X2799Y3750D02*
G03X3750Y2799I951J0D01*
G01*
G75*
G01X3750Y2799D02*
G03X4702Y3750I0J951D01*
G01*
G75*
G01X4702Y3750D02*
G03X3750Y4701I-952J0D01*
G01*
G75*
G01X3750Y4701D02*
G03X3631Y4694I0J-951D01*
G01*
G75*
G01X4186Y4924D02*
G03X4648Y4647I564J419D01*
G01*
G75*
G01X4648Y4647D02*
G03X5343Y4047I695J103D01*
G01*
G75*
G01X5346Y4047D02*
G03X5249Y3750I404J-297D01*
G01*
G75*
G01X5249Y3750D02*
G03X5346Y3453I501J0D01*
G01*
G75*
G01X5343Y3453D02*
G03X4648Y2853I0J-703D01*
G01*
G75*
G01X4648Y2853D02*
G03X4048Y2157I102J-696D01*
G01*
G75*
G01X4048Y2154D02*
G03X3750Y2251I-298J-404D01*
G01*
G75*
G01X3750Y2251D02*
G03X3453Y2154I0J-501D01*
G01*
G75*
G01X1668Y2069D02*
G03X1843Y2047I175J681D01*
G01*
G75*
G01X2048Y1843D02*
G03X2070Y1667I702J0D01*
G01*
G75*
G01X11570Y1364D02*
G03X11660Y1461I-320J386D01*
G01*
G75*
G01X11660Y1461D02*
G03X11736Y1364I590J382D01*
G01*
G75*
G01X10764Y1364D02*
G03X10840Y1461I-514J479D01*
G01*
G75*
G01X10840Y1461D02*
G03X10931Y1364I410J289D01*
G01*
G75*
G01X12764Y1364D02*
G03X12953Y1843I-514J479D01*
G01*
G75*
G01X13158Y2047D02*
G03X13860Y2750I0J703D01*
G01*
G75*
G01X13860Y2750D02*
G03X13714Y3179I-702J0D01*
G01*
G75*
G01X14081Y3159D02*
G03X14233Y3008I152J0D01*
G01*
G75*
G01X14844Y2764D02*
G03X14804Y2770I-40J-146D01*
G01*
G75*
G01X14154Y2770D02*
G03X14002Y2618I0J-152D01*
G01*
G75*
G01X14002Y2490D02*
G03X13900Y2435I40J-197D01*
G01*
G75*
G01X5224Y1324D02*
G03X5453Y1843I-474J519D01*
G01*
G75*
G01X5658Y2047D02*
G03X6360Y2750I0J703D01*
G01*
G75*
G01X6360Y2750D02*
G03X6214Y3179I-702J0D01*
G01*
G75*
G01X7121Y4086D02*
G03X7180Y4228I-143J142D01*
G01*
G75*
G01X7180Y4814D02*
G03X7455Y5246I-201J432D01*
G01*
G75*
G01X7455Y5246D02*
G03X6979Y5723I-476J0D01*
G01*
G75*
G01X6979Y5723D02*
G03X6502Y5246I0J-477D01*
G01*
G75*
G01X6502Y5246D02*
G03X6777Y4814I477J0D01*
G01*
G75*
G01X6251Y3785D02*
G03X6039Y4160I-501J-35D01*
G01*
G75*
G01X6039Y4160D02*
G03X6360Y4750I-381J590D01*
G01*
G75*
G01X6360Y4750D02*
G03X5658Y5453I-702J0D01*
G01*
G75*
G01X5453Y5657D02*
G03X4750Y6360I-703J0D01*
G01*
G75*
G01X4750Y6360D02*
G03X4160Y6039I0J-703D01*
G01*
G75*
G01X4160Y6039D02*
G03X3750Y6251I-410J-289D01*
G01*
G75*
G01X3750Y6251D02*
G03X3340Y6039I0J-501D01*
G01*
G75*
G01X3340Y6039D02*
G03X2750Y6360I-590J-382D01*
G01*
G75*
G01X2750Y6360D02*
G03X2048Y5657I0J-703D01*
G01*
G75*
G01X1843Y5453D02*
G03X1140Y4750I0J-703D01*
G01*
G75*
G01X1140Y4750D02*
G03X1461Y4160I703J0D01*
G01*
G75*
G01X1461Y4160D02*
G03X1249Y3750I289J-410D01*
G01*
G75*
G01X1249Y3750D02*
G03X1461Y3340I501J0D01*
G01*
G75*
G01X1461Y3340D02*
G03X1140Y2750I382J-590D01*
G01*
G75*
G01X1140Y2750D02*
G03X1162Y2575I703J0D01*
G01*
G75*
G01X768Y3008D02*
G03X919Y3159I0J151D01*
G01*
G75*
G01X919Y4341D02*
G03X768Y4492I-151J0D01*
G01*
G75*
G01X207Y10508D02*
G03X262Y10406I197J40D01*
G01*
G75*
G01X2168Y8500D02*
G03X2199Y8474I142J142D01*
G01*
G75*
G01X2199Y8474D02*
G03X1830Y8010I107J-464D01*
G01*
G75*
G01X1830Y8010D02*
G03X1992Y7651I476J0D01*
G01*
G75*
G01X1875Y7651D02*
G03X1724Y7500I0J-151D01*
G01*
G75*
G01X1724Y6950D02*
G03X1875Y6799I151J0D01*
G01*
G75*
G01X5779Y6799D02*
G03X5931Y6950I0J151D01*
G01*
G75*
G01X5931Y7500D02*
G03X5779Y7651I-152J0D01*
G01*
G75*
G01X5732Y7651D02*
G03X5735Y7685I-148J34D01*
G01*
G75*
G01X5735Y8335D02*
G03X5584Y8487I-151J0D01*
G01*
G75*
G01X5520Y8487D02*
G03X5535Y8500I-128J155D01*
G01*
G75*
G01X6502Y9468D02*
G03X6654Y9317I152J0D01*
G01*
G75*
G01X7304Y9317D02*
G03X7455Y9467I0J151D01*
G01*
G75*
G01X8404Y8519D02*
G03X8546Y8461I142J143D01*
G01*
G75*
G01X9651Y8461D02*
G03X9330Y8010I155J-451D01*
G01*
G75*
G01X9330Y8010D02*
G03X9806Y7534I476J0D01*
G01*
G75*
G01X9806Y7534D02*
G03X10283Y8010I0J476D01*
G01*
G75*
G01X10283Y8010D02*
G03X9961Y8461I-477J0D01*
G01*
G75*
G01X12349Y8461D02*
G03X12282Y8335I85J-126D01*
G01*
G75*
G01X12282Y7685D02*
G03X12434Y7534I152J0D01*
G01*
G75*
G01X13084Y7534D02*
G03X13235Y7685I0J151D01*
G01*
G75*
G01X13235Y8335D02*
G03X13084Y8487I-151J0D01*
G01*
G75*
G01X13010Y8487D02*
G03X13054Y8520I-99J175D01*
G01*
G75*
G01X14002Y9468D02*
G03X14154Y9317I152J0D01*
G01*
G75*
G01X14804Y9317D02*
G03X14844Y9322I0J151D01*
G01*
G75*
G01X14844Y5553D02*
G03X14479Y5723I-365J-307D01*
G01*
G75*
G01X14479Y5723D02*
G03X14002Y5246I0J-477D01*
G01*
G75*
G01X14002Y5246D02*
G03X14031Y5083I477J0D01*
G01*
G75*
G01X13845Y4897D02*
G03X13158Y5453I-687J-147D01*
G01*
G75*
G01X12953Y5657D02*
G03X12250Y6360I-703J0D01*
G01*
G75*
G01X12250Y6360D02*
G03X11660Y6039I0J-703D01*
G01*
G75*
G01X11660Y6039D02*
G03X11250Y6251I-410J-289D01*
G01*
G75*
G01X11250Y6251D02*
G03X10840Y6039I0J-501D01*
G01*
G75*
G01X10840Y6039D02*
G03X10250Y6360I-590J-382D01*
G01*
G75*
G01X10250Y6360D02*
G03X9548Y5657I0J-703D01*
G01*
G75*
G01X9343Y5453D02*
G03X8640Y4750I0J-703D01*
G01*
G75*
G01X8640Y4750D02*
G03X8961Y4160I703J0D01*
G01*
G75*
G01X8961Y4160D02*
G03X8749Y3750I289J-410D01*
G01*
G75*
G01X8749Y3750D02*
G03X8961Y3340I501J0D01*
G01*
G75*
G01X8961Y3340D02*
G03X8640Y2750I382J-590D01*
G01*
G75*
G01X8640Y2750D02*
G03X9343Y2047I703J0D01*
G01*
G75*
G01X9548Y1843D02*
G03X9736Y1364I702J0D01*
G01*
G75*
G01X7557Y2436D02*
G03X7455Y2490I-143J-143D01*
G01*
G75*
G01X7455Y2618D02*
G03X7304Y2770I-151J0D01*
G01*
G75*
G01X6654Y2770D02*
G03X6502Y2618I0J-152D01*
G01*
G75*
G01X6502Y2490D02*
G03X6400Y2435I40J-197D01*
G01*
G75*
G01X3224Y1324D02*
G03X3340Y1461I-474J519D01*
G01*
G75*
G01X3340Y1461D02*
G03X3486Y1324I410J289D01*
G01*
G75*
G01X4160Y1461D02*
G03X4277Y1324I590J382D01*
G01*
G75*
G01X4014Y1324D02*
G03X4160Y1461I-264J426D01*
G01*
G75*
G01X2626Y157D02*
G03X2783Y510I-320J353D01*
G01*
G75*
G01X2783Y510D02*
G03X2548Y920I-477J0D01*
G01*
G75*
G01X4809Y920D02*
G03X4782Y835I125J-85D01*
G01*
G75*
G01X4782Y707D02*
G03X4681Y652I41J-197D01*
G01*
G75*
G01X4492Y768D02*
G03X4341Y919I-151J0D01*
G01*
G75*
G01X3160Y919D02*
G03X3008Y768I0J-151D01*
G01*
G75*
G01X14844Y469D02*
G02X14531Y157I-313J0D01*
G01*
G75*
G01X13233Y157D02*
G03X13235Y185I-149J28D01*
G01*
G75*
G01X13235Y835D02*
G03X13084Y987I-151J0D01*
G01*
G75*
G01X13010Y987D02*
G03X13054Y1020I-99J175D01*
G01*
G75*
G01X14002Y1968D02*
G03X14154Y1817I152J0D01*
G01*
G75*
G01X14804Y1817D02*
G03X14844Y1822I0J151D01*
G01*
G75*
G01X4782Y185D02*
G03X4785Y157I152J0D01*
G01*
G75*
G01X4716Y201D02*
G03X4782Y213I0J202D01*
G01*
G75*
G01X9330Y510D02*
G03X9487Y157I476J0D01*
G01*
G75*
G01X5733Y157D02*
G03X5735Y185I-149J28D01*
G01*
G75*
G01X5735Y835D02*
G03X5584Y987I-151J0D01*
G01*
G75*
G01X6502Y1968D02*
G03X6654Y1817I152J0D01*
G01*
G75*
G01X7304Y1817D02*
G03X7455Y1967I0J151D01*
G01*
G75*
G01X8404Y1019D02*
G03X8546Y961I142J143D01*
G01*
G75*
G01X9651Y961D02*
G03X9330Y510I155J-451D01*
G01*
G75*
G01X12282Y185D02*
G03X12285Y157I152J0D01*
G01*
G75*
G01X12216Y201D02*
G03X12282Y213I0J202D01*
G01*
G75*
G01X10126Y157D02*
G03X10283Y510I-320J353D01*
G01*
G75*
G01X10283Y510D02*
G03X9961Y961I-477J0D01*
G01*
G75*
G01X12349Y961D02*
G03X12282Y835I85J-126D01*
G01*
G75*
G01X12282Y707D02*
G03X12181Y652I41J-197D01*
G01*
G75*
G01X11992Y768D02*
G03X11841Y919I-151J0D01*
G01*
G75*
G01X10660Y919D02*
G03X10508Y768I0J-151D01*
G01*
G75*
G01X469Y157D02*
G02X156Y469I0J312D01*
G01*
G75*
G01X207Y3008D02*
G03X262Y2906I197J40D01*
G01*
G75*
G01X2188Y980D02*
G03X2194Y973I142J142D01*
G01*
G75*
G01X2194Y973D02*
G03X1830Y510I112J-463D01*
G01*
G75*
G01X1830Y510D02*
G03X1987Y157I476J0D01*
G01*
G75*
G01X4048Y12843D02*
G03X4048Y12826I702J0D01*
G01*
G75*
G01X4019Y12826D02*
G03X4048Y12846I-269J424D01*
G01*
G75*
G01X11548Y12843D02*
G03X11548Y12826I702J0D01*
G01*
G75*
G01X11519Y12826D02*
G03X11548Y12846I-269J424D01*
G01*
G75*
G01X10859Y12492D02*
G03X10953Y12843I-609J351D01*
G01*
G75*
G01X10953Y12846D02*
G03X11130Y12763I297J404D01*
G01*
G75*
G01X3359Y12492D02*
G03X3453Y12843I-609J351D01*
G01*
G75*
G01X3453Y12846D02*
G03X3630Y12763I297J404D01*
G01*
G75*
G01X14233Y11992D02*
G03X14175Y11981I0J-151D01*
G01*
G75*
G01X14316Y12298D02*
G03X14479Y12270I163J448D01*
G01*
G75*
G01X14479Y12270D02*
G03X14844Y12440I0J476D01*
G01*
G75*
G01X10267Y11899D02*
G03X10353Y12147I-609J351D01*
G01*
G75*
G01X10353Y12147D02*
G03X10601Y12234I-103J696D01*
G01*
G75*
G01X2767Y11899D02*
G03X2853Y12147I-609J351D01*
G01*
G75*
G01X2853Y12147D02*
G03X3101Y12234I-103J696D01*
G01*
G75*
G01X9737Y11370D02*
G03X9654Y11547I-487J-120D01*
G01*
G75*
G01X9658Y11547D02*
G03X10008Y11641I0J703D01*
G01*
G75*
G01X2237Y11370D02*
G03X2154Y11547I-487J-120D01*
G01*
G75*
G01X2158Y11547D02*
G03X2508Y11641I0J703D01*
G01*
G75*
G01X13751Y11285D02*
G03X13539Y11660I-501J-35D01*
G01*
G75*
G01X13539Y11660D02*
G03X13772Y11908I-381J590D01*
G01*
G75*
G01X10953Y9657D02*
G03X10353Y10353I-703J0D01*
G01*
G75*
G01X10353Y10353D02*
G03X9860Y10923I-695J-103D01*
G01*
G75*
G01X10306Y11369D02*
G03X10299Y11250I944J-119D01*
G01*
G75*
G01X10299Y11250D02*
G03X11250Y10299I951J0D01*
G01*
G75*
G01X11250Y10299D02*
G03X12202Y11250I0J951D01*
G01*
G75*
G01X12202Y11250D02*
G03X11250Y12201I-952J0D01*
G01*
G75*
G01X11250Y12201D02*
G03X11131Y12194I0J-951D01*
G01*
G75*
G01X11686Y12424D02*
G03X12148Y12147I564J419D01*
G01*
G75*
G01X12148Y12147D02*
G03X12843Y11547I695J103D01*
G01*
G75*
G01X12846Y11547D02*
G03X12749Y11250I404J-297D01*
G01*
G75*
G01X12749Y11250D02*
G03X12846Y10953I501J0D01*
G01*
G75*
G01X12843Y10953D02*
G03X12148Y10353I0J-703D01*
G01*
G75*
G01X12148Y10353D02*
G03X11548Y9657I102J-696D01*
G01*
G75*
G01X11548Y9654D02*
G03X11250Y9751I-298J-404D01*
G01*
G75*
G01X11250Y9751D02*
G03X10953Y9654I0J-501D01*
G01*
G75*
G01X3453Y9657D02*
G03X2853Y10353I-703J0D01*
G01*
G75*
G01X2853Y10353D02*
G03X2360Y10923I-695J-103D01*
G01*
G75*
G01X2806Y11369D02*
G03X2799Y11250I944J-119D01*
G01*
G75*
G01X2799Y11250D02*
G03X3750Y10299I951J0D01*
G01*
G75*
G01X3750Y10299D02*
G03X4702Y11250I0J951D01*
G01*
G75*
G01X4702Y11250D02*
G03X3750Y12201I-952J0D01*
G01*
G75*
G01X3750Y12201D02*
G03X3631Y12194I0J-951D01*
G01*
G75*
G01X4186Y12424D02*
G03X4648Y12147I564J419D01*
G01*
G75*
G01X4648Y12147D02*
G03X5343Y11547I695J103D01*
G01*
G75*
G01X5346Y11547D02*
G03X5249Y11250I404J-297D01*
G01*
G75*
G01X5249Y11250D02*
G03X5346Y10953I501J0D01*
G01*
G75*
G01X5343Y10953D02*
G03X4648Y10353I0J-703D01*
G01*
G75*
G01X4648Y10353D02*
G03X4048Y9657I102J-696D01*
G01*
G75*
G01X4048Y9654D02*
G03X3750Y9751I-298J-404D01*
G01*
G75*
G01X3750Y9751D02*
G03X3453Y9654I0J-501D01*
G01*
G75*
G01X1668Y9569D02*
G03X1843Y9547I175J681D01*
G01*
G75*
G01X2048Y9343D02*
G03X2070Y9167I702J0D01*
G01*
G75*
G01X11570Y8864D02*
G03X11660Y8961I-320J386D01*
G01*
G75*
G01X11660Y8961D02*
G03X11736Y8864I590J382D01*
G01*
G75*
G01X10764Y8864D02*
G03X10840Y8961I-514J479D01*
G01*
G75*
G01X10840Y8961D02*
G03X10931Y8864I410J289D01*
G01*
G75*
G01X12764Y8864D02*
G03X12953Y9343I-514J479D01*
G01*
G75*
G01X13158Y9547D02*
G03X13860Y10250I0J703D01*
G01*
G75*
G01X13860Y10250D02*
G03X13714Y10679I-702J0D01*
G01*
G75*
G01X14081Y10659D02*
G03X14233Y10508I152J0D01*
G01*
G75*
G01X14844Y10264D02*
G03X14804Y10270I-40J-146D01*
G01*
G75*
G01X14154Y10270D02*
G03X14002Y10118I0J-152D01*
G01*
G75*
G01X14002Y9990D02*
G03X13900Y9935I40J-197D01*
G01*
G75*
G01X5245Y8843D02*
G03X5453Y9343I-495J500D01*
G01*
G75*
G01X5658Y9547D02*
G03X6360Y10250I0J703D01*
G01*
G75*
G01X6360Y10250D02*
G03X6214Y10679I-702J0D01*
G01*
G75*
G01X7121Y11586D02*
G03X7180Y11728I-143J142D01*
G01*
G75*
G01X7180Y12314D02*
G03X7455Y12746I-201J432D01*
G01*
G75*
G01X7455Y12746D02*
G03X6979Y13223I-476J0D01*
G01*
G75*
G01X6979Y13223D02*
G03X6502Y12746I0J-477D01*
G01*
G75*
G01X6502Y12746D02*
G03X6777Y12314I477J0D01*
G01*
G75*
G01X6251Y11285D02*
G03X6039Y11660I-501J-35D01*
G01*
G75*
G01X6039Y11660D02*
G03X6360Y12250I-381J590D01*
G01*
G75*
G01X6360Y12250D02*
G03X5658Y12953I-702J0D01*
G01*
G75*
G01X5453Y13157D02*
G03X4750Y13860I-703J0D01*
G01*
G75*
G01X4750Y13860D02*
G03X4160Y13539I0J-703D01*
G01*
G75*
G01X4160Y13539D02*
G03X3750Y13751I-410J-289D01*
G01*
G75*
G01X3750Y13751D02*
G03X3340Y13539I0J-501D01*
G01*
G75*
G01X3340Y13539D02*
G03X2750Y13860I-590J-382D01*
G01*
G75*
G01X2750Y13860D02*
G03X2048Y13157I0J-703D01*
G01*
G75*
G01X1843Y12953D02*
G03X1140Y12250I0J-703D01*
G01*
G75*
G01X1140Y12250D02*
G03X1461Y11660I703J0D01*
G01*
G75*
G01X1461Y11660D02*
G03X1249Y11250I289J-410D01*
G01*
G75*
G01X1249Y11250D02*
G03X1461Y10840I501J0D01*
G01*
G75*
G01X1461Y10840D02*
G03X1140Y10250I382J-590D01*
G01*
G75*
G01X1140Y10250D02*
G03X1162Y10075I703J0D01*
G01*
G75*
G01X768Y10508D02*
G03X919Y10659I0J151D01*
G01*
G75*
G01X919Y11841D02*
G03X768Y11992I-151J0D01*
G01*
G75*
G01X156Y14531D02*
G02X469Y14843I313J0D01*
G01*
G75*
G01X3008Y14232D02*
G03X3160Y14081I152J0D01*
G01*
G75*
G01X4341Y14081D02*
G03X4492Y14232I0J151D01*
G01*
G75*
G01X10508Y14232D02*
G03X10660Y14081I152J0D01*
G01*
G75*
G01X11841Y14081D02*
G03X11992Y14232I0J151D01*
G01*
G75*
G01X14531Y14843D02*
G02X14844Y14531I0J-312D01*
G01*
G75*
G01X14844Y13053D02*
G03X14479Y13223I-365J-307D01*
G01*
G75*
G01X14479Y13223D02*
G03X14002Y12746I0J-477D01*
G01*
G75*
G01X14002Y12746D02*
G03X14031Y12583I477J0D01*
G01*
G75*
G01X13845Y12397D02*
G03X13158Y12953I-687J-147D01*
G01*
G75*
G01X12953Y13157D02*
G03X12250Y13860I-703J0D01*
G01*
G75*
G01X12250Y13860D02*
G03X11660Y13539I0J-703D01*
G01*
G75*
G01X11660Y13539D02*
G03X11250Y13751I-410J-289D01*
G01*
G75*
G01X11250Y13751D02*
G03X10840Y13539I0J-501D01*
G01*
G75*
G01X10840Y13539D02*
G03X10250Y13860I-590J-382D01*
G01*
G75*
G01X10250Y13860D02*
G03X9548Y13157I0J-703D01*
G01*
G75*
G01X9343Y12953D02*
G03X8640Y12250I0J-703D01*
G01*
G75*
G01X8640Y12250D02*
G03X8961Y11660I703J0D01*
G01*
G75*
G01X8961Y11660D02*
G03X8749Y11250I289J-410D01*
G01*
G75*
G01X8749Y11250D02*
G03X8961Y10840I501J0D01*
G01*
G75*
G01X8961Y10840D02*
G03X8640Y10250I382J-590D01*
G01*
G75*
G01X8640Y10250D02*
G03X9343Y9547I703J0D01*
G01*
G75*
G01X9548Y9343D02*
G03X9736Y8864I702J0D01*
G01*
G75*
G01X7557Y9936D02*
G03X7455Y9990I-143J-143D01*
G01*
G75*
G01X7455Y10118D02*
G03X7304Y10270I-151J0D01*
G01*
G75*
G01X6654Y10270D02*
G03X6502Y10118I0J-152D01*
G01*
G75*
G01X6502Y9990D02*
G03X6400Y9935I40J-197D01*
G01*
G75*
G01X3245Y8843D02*
G03X3340Y8961I-495J500D01*
G01*
G75*
G01X3340Y8961D02*
G03X3457Y8843I410J289D01*
G01*
G75*
G01X4044Y8843D02*
G03X4160Y8961I-294J407D01*
G01*
G75*
G01X4160Y8961D02*
G03X4256Y8843I590J382D01*
G01*
G75*
G01X2620Y7651D02*
G03X2783Y8010I-314J359D01*
G01*
G75*
G01X2783Y8010D02*
G03X2510Y8441I-477J0D01*
G01*
G75*
G01X4825Y8441D02*
G03X4782Y8335I109J-106D01*
G01*
G75*
G01X4782Y7685D02*
G03X4786Y7651I152J0D01*
G01*
G75*
G01X11548Y5343D02*
G03X11548Y5326I702J0D01*
G01*
G75*
G01X11519Y5326D02*
G03X11548Y5346I-269J424D01*
G01*
G75*
G01X4048Y5343D02*
G03X4048Y5326I702J0D01*
G01*
G75*
G01X4019Y5326D02*
G03X4048Y5346I-269J424D01*
G01*
G75*
G01X10859Y4992D02*
G03X10953Y5343I-609J351D01*
G01*
G75*
G01X10953Y5346D02*
G03X11130Y5263I297J404D01*
G01*
G75*
G01X3359Y4992D02*
G03X3453Y5343I-609J351D01*
G01*
G75*
G01X3453Y5346D02*
G03X3630Y5263I297J404D01*
G01*
G75*
G01X14233Y4492D02*
G03X14175Y4481I0J-151D01*
G01*
G75*
G01X14316Y4798D02*
G03X14479Y4770I163J448D01*
G01*
G75*
G01X14479Y4770D02*
G03X14844Y4940I0J476D01*
G01*
G75*
G01X10267Y4399D02*
G03X10353Y4647I-609J351D01*
G01*
G75*
G01X10353Y4647D02*
G03X10601Y4734I-103J696D01*
G01*
G75*
G01X2767Y4399D02*
G03X2853Y4647I-609J351D01*
G01*
G75*
G01X2853Y4647D02*
G03X3101Y4734I-103J696D01*
G01*
G75*
G01X9737Y3870D02*
G03X9654Y4047I-487J-120D01*
G01*
G75*
G01X9658Y4047D02*
G03X10008Y4141I0J703D01*
G01*
G75*
G01X2237Y3870D02*
G03X2154Y4047I-487J-120D01*
G01*
G75*
G01X2158Y4047D02*
G03X2508Y4141I0J703D01*
G01*
G75*
G01X13751Y3785D02*
G03X13539Y4160I-501J-35D01*
G01*
G75*
G01X13539Y4160D02*
G03X13772Y4408I-381J590D01*
G01*
G75*
G01X11548Y2154D02*
G03X11250Y2251I-298J-404D01*
G01*
G75*
G01X11250Y2251D02*
G03X10953Y2154I0J-501D01*
G01*
G75*
G01X10953Y2157D02*
G03X10353Y2853I-703J0D01*
G01*
G75*
G01X10353Y2853D02*
G03X9860Y3423I-695J-103D01*
G01*
G75*
G01X10306Y3869D02*
G03X10299Y3750I944J-119D01*
G01*
G75*
G01X10299Y3750D02*
G03X11250Y2799I951J0D01*
G01*
G75*
G01X11250Y2799D02*
G03X12202Y3750I0J951D01*
G01*
G75*
G01X12202Y3750D02*
G03X11250Y4701I-952J0D01*
G01*
G75*
G01X11250Y4701D02*
G03X11131Y4694I0J-951D01*
G01*
G75*
G01X11686Y4924D02*
G03X12148Y4647I564J419D01*
G01*
G75*
G01X12148Y4647D02*
G03X12843Y4047I695J103D01*
G01*
G75*
G01X12846Y4047D02*
G03X12749Y3750I404J-297D01*
G01*
G75*
G01X12749Y3750D02*
G03X12846Y3453I501J0D01*
G01*
G75*
G01X12843Y3453D02*
G03X12148Y2853I0J-703D01*
G01*
G75*
G01X12148Y2853D02*
G03X11548Y2157I102J-696D01*
G01*
G75*
G01X3453Y2157D02*
G03X2853Y2853I-703J0D01*
G01*
G75*
G01X2853Y2853D02*
G03X2360Y3423I-695J-103D01*
G01*
G75*
G01X2806Y3869D02*
G03X2799Y3750I944J-119D01*
G01*
G75*
G01X2799Y3750D02*
G03X3750Y2799I951J0D01*
G01*
G75*
G01X3750Y2799D02*
G03X4702Y3750I0J951D01*
G01*
G75*
G01X4702Y3750D02*
G03X3750Y4701I-952J0D01*
G01*
G75*
G01X3750Y4701D02*
G03X3631Y4694I0J-951D01*
G01*
G75*
G01X4186Y4924D02*
G03X4648Y4647I564J419D01*
G01*
G75*
G01X4648Y4647D02*
G03X5343Y4047I695J103D01*
G01*
G75*
G01X5346Y4047D02*
G03X5249Y3750I404J-297D01*
G01*
G75*
G01X5249Y3750D02*
G03X5346Y3453I501J0D01*
G01*
G75*
G01X5343Y3453D02*
G03X4648Y2853I0J-703D01*
G01*
G75*
G01X4648Y2853D02*
G03X4048Y2157I102J-696D01*
G01*
G75*
G01X4048Y2154D02*
G03X3750Y2251I-298J-404D01*
G01*
G75*
G01X3750Y2251D02*
G03X3453Y2154I0J-501D01*
G01*
G75*
G01X1668Y2069D02*
G03X1843Y2047I175J681D01*
G01*
G75*
G01X2048Y1843D02*
G03X2070Y1667I702J0D01*
G01*
G75*
G01X11570Y1364D02*
G03X11660Y1461I-320J386D01*
G01*
G75*
G01X11660Y1461D02*
G03X11736Y1364I590J382D01*
G01*
G75*
G01X10764Y1364D02*
G03X10840Y1461I-514J479D01*
G01*
G75*
G01X10840Y1461D02*
G03X10931Y1364I410J289D01*
G01*
G75*
G01X12764Y1364D02*
G03X12953Y1843I-514J479D01*
G01*
G75*
G01X13158Y2047D02*
G03X13860Y2750I0J703D01*
G01*
G75*
G01X13860Y2750D02*
G03X13714Y3179I-702J0D01*
G01*
G75*
G01X14081Y3159D02*
G03X14233Y3008I152J0D01*
G01*
G75*
G01X14844Y2764D02*
G03X14804Y2770I-40J-146D01*
G01*
G75*
G01X14154Y2770D02*
G03X14002Y2618I0J-152D01*
G01*
G75*
G01X14002Y2490D02*
G03X13900Y2435I40J-197D01*
G01*
G75*
G01X5224Y1324D02*
G03X5453Y1843I-474J519D01*
G01*
G75*
G01X5658Y2047D02*
G03X6360Y2750I0J703D01*
G01*
G75*
G01X6360Y2750D02*
G03X6214Y3179I-702J0D01*
G01*
G75*
G01X7121Y4086D02*
G03X7180Y4228I-143J142D01*
G01*
G75*
G01X7180Y4814D02*
G03X7455Y5246I-201J432D01*
G01*
G75*
G01X7455Y5246D02*
G03X6979Y5723I-476J0D01*
G01*
G75*
G01X6979Y5723D02*
G03X6502Y5246I0J-477D01*
G01*
G75*
G01X6502Y5246D02*
G03X6777Y4814I477J0D01*
G01*
G75*
G01X6251Y3785D02*
G03X6039Y4160I-501J-35D01*
G01*
G75*
G01X6039Y4160D02*
G03X6360Y4750I-381J590D01*
G01*
G75*
G01X6360Y4750D02*
G03X5658Y5453I-702J0D01*
G01*
G75*
G01X5453Y5657D02*
G03X4750Y6360I-703J0D01*
G01*
G75*
G01X4750Y6360D02*
G03X4160Y6039I0J-703D01*
G01*
G75*
G01X4160Y6039D02*
G03X3750Y6251I-410J-289D01*
G01*
G75*
G01X3750Y6251D02*
G03X3340Y6039I0J-501D01*
G01*
G75*
G01X3340Y6039D02*
G03X2750Y6360I-590J-382D01*
G01*
G75*
G01X2750Y6360D02*
G03X2048Y5657I0J-703D01*
G01*
G75*
G01X1843Y5453D02*
G03X1140Y4750I0J-703D01*
G01*
G75*
G01X1140Y4750D02*
G03X1461Y4160I703J0D01*
G01*
G75*
G01X1461Y4160D02*
G03X1249Y3750I289J-410D01*
G01*
G75*
G01X1249Y3750D02*
G03X1461Y3340I501J0D01*
G01*
G75*
G01X1461Y3340D02*
G03X1140Y2750I382J-590D01*
G01*
G75*
G01X1140Y2750D02*
G03X1162Y2575I703J0D01*
G01*
G75*
G01X768Y3008D02*
G03X919Y3159I0J151D01*
G01*
G75*
G01X919Y4341D02*
G03X768Y4492I-151J0D01*
G01*
G75*
G01X207Y10508D02*
G03X262Y10406I197J40D01*
G01*
G75*
G01X2168Y8500D02*
G03X2199Y8474I142J142D01*
G01*
G75*
G01X2199Y8474D02*
G03X1830Y8010I107J-464D01*
G01*
G75*
G01X1830Y8010D02*
G03X1992Y7651I476J0D01*
G01*
G75*
G01X1875Y7651D02*
G03X1724Y7500I0J-151D01*
G01*
G75*
G01X1724Y6950D02*
G03X1875Y6799I151J0D01*
G01*
G75*
G01X5779Y6799D02*
G03X5931Y6950I0J151D01*
G01*
G75*
G01X5931Y7500D02*
G03X5779Y7651I-152J0D01*
G01*
G75*
G01X5732Y7651D02*
G03X5735Y7685I-148J34D01*
G01*
G75*
G01X5735Y8335D02*
G03X5584Y8487I-151J0D01*
G01*
G75*
G01X5520Y8487D02*
G03X5535Y8500I-128J155D01*
G01*
G75*
G01X6502Y9468D02*
G03X6654Y9317I152J0D01*
G01*
G75*
G01X7304Y9317D02*
G03X7455Y9467I0J151D01*
G01*
G75*
G01X8404Y8519D02*
G03X8546Y8461I142J143D01*
G01*
G75*
G01X9651Y8461D02*
G03X9330Y8010I155J-451D01*
G01*
G75*
G01X9330Y8010D02*
G03X9806Y7534I476J0D01*
G01*
G75*
G01X9806Y7534D02*
G03X10283Y8010I0J476D01*
G01*
G75*
G01X10283Y8010D02*
G03X9961Y8461I-477J0D01*
G01*
G75*
G01X12349Y8461D02*
G03X12282Y8335I85J-126D01*
G01*
G75*
G01X12282Y7685D02*
G03X12434Y7534I152J0D01*
G01*
G75*
G01X13084Y7534D02*
G03X13235Y7685I0J151D01*
G01*
G75*
G01X13235Y8335D02*
G03X13084Y8487I-151J0D01*
G01*
G75*
G01X13010Y8487D02*
G03X13054Y8520I-99J175D01*
G01*
G75*
G01X14002Y9468D02*
G03X14154Y9317I152J0D01*
G01*
G75*
G01X14804Y9317D02*
G03X14844Y9322I0J151D01*
G01*
G75*
G01X14844Y5553D02*
G03X14479Y5723I-365J-307D01*
G01*
G75*
G01X14479Y5723D02*
G03X14002Y5246I0J-477D01*
G01*
G75*
G01X14002Y5246D02*
G03X14031Y5083I477J0D01*
G01*
G75*
G01X13845Y4897D02*
G03X13158Y5453I-687J-147D01*
G01*
G75*
G01X12953Y5657D02*
G03X12250Y6360I-703J0D01*
G01*
G75*
G01X12250Y6360D02*
G03X11660Y6039I0J-703D01*
G01*
G75*
G01X11660Y6039D02*
G03X11250Y6251I-410J-289D01*
G01*
G75*
G01X11250Y6251D02*
G03X10840Y6039I0J-501D01*
G01*
G75*
G01X10840Y6039D02*
G03X10250Y6360I-590J-382D01*
G01*
G75*
G01X10250Y6360D02*
G03X9548Y5657I0J-703D01*
G01*
G75*
G01X9343Y5453D02*
G03X8640Y4750I0J-703D01*
G01*
G75*
G01X8640Y4750D02*
G03X8961Y4160I703J0D01*
G01*
G75*
G01X8961Y4160D02*
G03X8749Y3750I289J-410D01*
G01*
G75*
G01X8749Y3750D02*
G03X8961Y3340I501J0D01*
G01*
G75*
G01X8961Y3340D02*
G03X8640Y2750I382J-590D01*
G01*
G75*
G01X8640Y2750D02*
G03X9343Y2047I703J0D01*
G01*
G75*
G01X9548Y1843D02*
G03X9736Y1364I702J0D01*
G01*
G75*
G01X7557Y2436D02*
G03X7455Y2490I-143J-143D01*
G01*
G75*
G01X7455Y2618D02*
G03X7304Y2770I-151J0D01*
G01*
G75*
G01X6654Y2770D02*
G03X6502Y2618I0J-152D01*
G01*
G75*
G01X6502Y2490D02*
G03X6400Y2435I40J-197D01*
G01*
G75*
G01X3224Y1324D02*
G03X3340Y1461I-474J519D01*
G01*
G75*
G01X3340Y1461D02*
G03X3486Y1324I410J289D01*
G01*
G75*
G01X4160Y1461D02*
G03X4277Y1324I590J382D01*
G01*
G75*
G01X4014Y1324D02*
G03X4160Y1461I-264J426D01*
G01*
G75*
G01X2626Y157D02*
G03X2783Y510I-320J353D01*
G01*
G75*
G01X2783Y510D02*
G03X2548Y920I-477J0D01*
G01*
G75*
G01X4809Y920D02*
G03X4782Y835I125J-85D01*
G01*
G75*
G01X4782Y707D02*
G03X4681Y652I41J-197D01*
G01*
G75*
G01X4492Y768D02*
G03X4341Y919I-151J0D01*
G01*
G75*
G01X3160Y919D02*
G03X3008Y768I0J-151D01*
G01*
G75*
G01X14844Y469D02*
G02X14531Y157I-313J0D01*
G01*
G75*
G01X13233Y157D02*
G03X13235Y185I-149J28D01*
G01*
G75*
G01X13235Y835D02*
G03X13084Y987I-151J0D01*
G01*
G75*
G01X13010Y987D02*
G03X13054Y1020I-99J175D01*
G01*
G75*
G01X14002Y1968D02*
G03X14154Y1817I152J0D01*
G01*
G75*
G01X14804Y1817D02*
G03X14844Y1822I0J151D01*
G01*
G75*
G01X4782Y185D02*
G03X4785Y157I152J0D01*
G01*
G75*
G01X4716Y201D02*
G03X4782Y213I0J202D01*
G01*
G75*
G01X9330Y510D02*
G03X9487Y157I476J0D01*
G01*
G75*
G01X5733Y157D02*
G03X5735Y185I-149J28D01*
G01*
G75*
G01X5735Y835D02*
G03X5584Y987I-151J0D01*
G01*
G75*
G01X6502Y1968D02*
G03X6654Y1817I152J0D01*
G01*
G75*
G01X7304Y1817D02*
G03X7455Y1967I0J151D01*
G01*
G75*
G01X8404Y1019D02*
G03X8546Y961I142J143D01*
G01*
G75*
G01X9651Y961D02*
G03X9330Y510I155J-451D01*
G01*
G75*
G01X12282Y185D02*
G03X12285Y157I152J0D01*
G01*
G75*
G01X12216Y201D02*
G03X12282Y213I0J202D01*
G01*
G75*
G01X10126Y157D02*
G03X10283Y510I-320J353D01*
G01*
G75*
G01X10283Y510D02*
G03X9961Y961I-477J0D01*
G01*
G75*
G01X12349Y961D02*
G03X12282Y835I85J-126D01*
G01*
G75*
G01X12282Y707D02*
G03X12181Y652I41J-197D01*
G01*
G75*
G01X11992Y768D02*
G03X11841Y919I-151J0D01*
G01*
G75*
G01X10660Y919D02*
G03X10508Y768I0J-151D01*
G01*
G75*
G01X469Y157D02*
G02X156Y469I0J312D01*
G01*
G75*
G01X207Y3008D02*
G03X262Y2906I197J40D01*
G01*
G75*
G01X2188Y980D02*
G03X2194Y973I142J142D01*
G01*
G75*
G01X2194Y973D02*
G03X1830Y510I112J-463D01*
G01*
G75*
G01X1830Y510D02*
G03X1987Y157I476J0D01*
G01*
G36*
G01X7303Y9468D02*
G01X6653Y9468D01*
G01X6653Y10118D01*
G01X7303Y10118D01*
G01X7303Y9468D01*
G37*
G54D13*
G01X6978Y12746D03*
G54D12*
G01X5258Y8010D03*
G54D13*
G01X2306Y8009D03*
G54D14*
G01X3750Y14596D03*
G54D15*
G01X403Y11250D03*
G36*
G01X14803Y9468D02*
G01X14153Y9468D01*
G01X14153Y10118D01*
G01X14803Y10118D01*
G01X14803Y9468D01*
G37*
G54D13*
G01X14478Y12746D03*
G54D12*
G01X12758Y8010D03*
G54D13*
G01X9806Y8009D03*
G54D14*
G01X11250Y14596D03*
G54D15*
G01X14596Y11250D03*
G36*
G01X7303Y1968D02*
G01X6653Y1968D01*
G01X6653Y2618D01*
G01X7303Y2618D01*
G01X7303Y1968D01*
G37*
G54D13*
G01X6978Y5246D03*
G54D12*
G01X5258Y510D03*
G54D13*
G01X2306Y509D03*
G54D14*
G01X3750Y403D03*
G54D15*
G01X403Y3750D03*
G36*
G01X14803Y1968D02*
G01X14153Y1968D01*
G01X14153Y2618D01*
G01X14803Y2618D01*
G01X14803Y1968D01*
G37*
G54D13*
G01X14478Y5246D03*
G54D12*
G01X12758Y510D03*
G54D13*
G01X9806Y509D03*
G54D15*
G01X14596Y3750D03*
G54D14*
G01X11250Y403D03*
G54D16*
G01X2750Y13157D02*
G01X2750Y12842D01*
G01X1842Y12250D02*
G01X2157Y12250D01*
G01X4750Y9657D02*
G01X4750Y9342D01*
G01X5342Y10250D02*
G01X5657Y10250D01*
G01X2750Y9657D02*
G01X2750Y9342D01*
G01X1842Y10250D02*
G01X2157Y10250D01*
G01X5342Y12250D02*
G01X5657Y12250D01*
G01X4750Y13157D02*
G01X4750Y12842D01*
G01X10250Y13157D02*
G01X10250Y12842D01*
G01X9342Y12250D02*
G01X9657Y12250D01*
G01X12250Y9657D02*
G01X12250Y9342D01*
G01X12842Y10250D02*
G01X13157Y10250D01*
G01X10250Y9657D02*
G01X10250Y9342D01*
G01X9342Y10250D02*
G01X9657Y10250D01*
G01X12842Y12250D02*
G01X13157Y12250D01*
G01X12250Y13157D02*
G01X12250Y12842D01*
G01X2750Y5657D02*
G01X2750Y5342D01*
G01X1842Y4750D02*
G01X2157Y4750D01*
G01X4750Y2157D02*
G01X4750Y1842D01*
G01X5342Y2750D02*
G01X5657Y2750D01*
G01X2750Y2157D02*
G01X2750Y1842D01*
G01X1842Y2750D02*
G01X2157Y2750D01*
G01X5342Y4750D02*
G01X5657Y4750D01*
G01X4750Y5657D02*
G01X4750Y5342D01*
G01X10250Y5657D02*
G01X10250Y5342D01*
G01X9342Y4750D02*
G01X9657Y4750D01*
G01X12250Y2157D02*
G01X12250Y1842D01*
G01X12842Y2750D02*
G01X13157Y2750D01*
G01X10250Y2157D02*
G01X10250Y1842D01*
G01X9342Y2750D02*
G01X9657Y2750D01*
G01X12842Y4750D02*
G01X13157Y4750D01*
G01X12250Y5657D02*
G01X12250Y5342D01*
M00*
M02*
